<svg width="134" height="141" viewBox="0 0 134 141" fill="none" xmlns="http://www.w3.org/2000/svg">
<path d="M8.35001 109.75H8.25H8.14999H8.04999H7.85001H7.75H7.64999L7.54999 109.65L7.44998 109.55H7.35001L7.25 109.45L7.14999 109.35V109.25L6.94998 109.15L6.85001 109.05L6.75 108.95L6.54999 108.85V108.75H6.44998L6.35001 108.55V108.45L6.25 108.35L6.14999 108.25V108.05L6.04999 107.95L5.94998 107.75L5.85001 107.45V107.35L5.75 107.25L5.64999 107.15V107.05H5.54999V106.95V106.85V106.75V106.65V106.55H5.64999V106.45V106.35V106.15L5.75 105.95V105.85V105.75V105.65V105.55V105.35V105.25V105.05V104.95V104.85V104.75V104.55L5.64999 104.45V104.25V104.15V104.05L5.54999 103.95V103.85V103.75L5.44998 103.55V103.35L5.35001 103.15V103.05L5.25 102.95V102.75L5.14999 102.65V102.55L5.04999 102.45V102.35V102.25V102.15L4.94998 102.05V101.95V101.85V101.75L4.85001 101.65V101.45L4.75 101.25L4.64999 101.15V101.05V100.95L4.54999 100.85L4.44998 100.75V100.65V100.55L4.35001 100.45H4.25V100.35L4.14999 100.15L4.04999 99.95L3.75 99.65L3.64999 99.45H3.54999L3.35001 99.25L3.04999 99.05L2.85001 98.85L2.54999 98.65L2.35001 98.55L2.14999 98.45L1.85001 98.25L1.44998 98.05L1.04999 97.85L0.850006 97.75L0.549988 97.65L0.25 97.55V97.45V97.35L0.350006 97.25V97.15V97.05V96.95H0.449982V96.85V96.75V96.65L0.549988 96.55H0.449982V96.45L0.549988 96.35V96.25V96.15V96.05V95.95L0.649994 95.85L0.75 95.75L0.850006 95.65V95.55V95.45L0.949982 95.35V95.25L1.04999 95.15V95.05V94.95H0.949982V94.85H1.04999V94.75V94.65L0.949982 94.55V94.45V94.35V94.25H1.04999V94.15V94.05V93.95V93.85V93.75V93.65H1.14999V93.55H1.25V93.45V93.35H1.35001V93.25L1.54999 93.05V93.15H1.64999H1.75L1.85001 93.25H1.94998V93.15V93.05V92.95L1.85001 92.65L1.94998 92.55L2.14999 92.65V92.55H2.25V92.45V92.35L2.35001 92.25V92.15V92.05V91.95V91.85L2.25 91.75L2.14999 91.55V91.45L2.04999 91.35L1.94998 91.25L1.85001 91.15L1.75 90.85V90.55L1.54999 90.15V89.95L1.64999 89.85L1.94998 89.55L2.04999 89.45V89.35H2.14999H2.25V89.25L2.35001 89.15H2.25V89.05V88.95L2.14999 88.85V88.75H2.04999H1.94998V88.65V88.55H1.85001V88.65L1.75 88.55V88.45L1.64999 88.35V88.25H1.54999V88.15V88.05H1.44998L1.35001 88.15H1.25V88.05L1.14999 87.95V87.85V87.75V87.65V87.55V87.45V87.35H1.04999V87.25H1.14999V87.15H1.25H1.35001L1.44998 87.05H1.54999H1.64999L1.75 87.15H1.85001H1.94998V87.05H2.04999V86.95V86.85L1.94998 86.75H1.85001V86.65H1.75V86.55H1.85001L1.94998 86.45H2.04999L2.14999 86.35L2.25 86.25L2.35001 86.05V85.95L2.44998 85.85L2.54999 85.55L2.44998 85.35H2.54999H2.64999V85.25V85.15H2.75H2.85001V85.05L2.94998 84.95V84.75H2.85001H2.75V84.65H2.64999L2.54999 84.55V84.45V84.35V84.25H2.44998V84.15V84.05H2.35001V83.95H2.25V83.85H2.14999V83.75V83.65V83.55V83.45V83.35L2.25 83.25H2.35001V83.15L2.44998 83.05V82.95V82.85V82.75V82.65V82.45L2.35001 82.35L2.25 81.95V81.75L2.44998 81.65V81.55V81.45V81.35V81.25L2.35001 81.15V81.05V80.95H2.25V80.85V80.75L2.35001 80.65V80.35L2.44998 80.25V80.15V80.05L2.35001 79.95V78.45V78.35V78.25L2.25 78.15L2.04999 77.95L1.85001 77.75L1.75 77.55H1.64999V77.45L1.54999 77.35L1.35001 76.95L1.25 76.85V76.55L1.35001 76.25V75.95V75.55V75.15L1.44998 74.95H1.35001L1.25 74.85H1.35001V74.75H1.44998V74.65H1.35001H1.25V74.55L1.14999 74.45H1.25V74.35H1.35001V74.25V74.15L1.25 74.05L1.14999 73.95L1.25 73.85V73.75H1.35001V73.65H1.44998L1.54999 73.55L1.64999 73.45V73.35V73.25H1.75V73.15V73.05L1.64999 72.95L1.75 72.85H1.85001H1.94998V72.95H2.04999H2.14999V72.85V72.75V72.65L2.25 72.75L2.35001 72.85L2.44998 72.75L2.35001 72.45L2.14999 72.25L2.35001 71.85V71.75L2.44998 71.35H2.25L2.14999 71.25H2.04999V71.15H1.94998L1.85001 70.95L1.75 70.85V70.75H1.64999V70.65V70.55L1.44998 70.25V70.15V70.05H1.35001V69.85V69.75V69.55V69.45L1.44998 69.35L1.54999 69.15L0.850006 68.75V68.65H0.75V68.55H0.850006L1.44998 67.65L1.54999 67.45L1.85001 66.95V66.85V66.75H1.94998V66.65V66.55V66.45L2.04999 66.35V66.25V66.15V66.05H2.14999V65.95V65.85V65.75H2.25V65.65V65.55V65.45L2.35001 65.25V65.15V65.05H2.44998H2.54999H2.85001L2.94998 65.15V65.05V64.95V64.75V64.65V64.55V64.35V64.25H3.04999H3.14999H3.44998L3.54999 64.15V64.05H3.44998V63.95V63.85H3.54999H3.64999H3.75H3.94998H4.04999H4.25H4.35001H4.44998H4.64999V63.75H4.75H4.85001L4.94998 63.85H5.04999H5.14999L5.35001 63.95L5.44998 63.85H5.54999H5.75L6.14999 63.95L6.35001 64.05H6.44998H6.54999H6.64999V64.15H6.75L6.85001 64.05V63.95V63.85H6.75V63.75L6.64999 63.55V63.45H6.54999V63.35H6.44998L6.25 63.15L6.14999 63.05H6.04999L5.94998 62.95L5.85001 62.85L5.75 62.75V62.65L5.64999 62.55V62.45L5.54999 62.35H5.64999L5.75 62.25L6.04999 62.05H6.14999V61.95H6.25V61.85H6.35001V61.75L6.44998 61.55L6.54999 61.35L6.64999 61.15L6.94998 60.75H6.85001V60.65L6.44998 60.15L6.35001 59.95L6.25 59.85H6.35001L6.44998 59.75L6.54999 59.55H6.64999H6.75V59.45H6.85001H6.94998V59.35V59.25V59.15L7.04999 59.05V59.15H7.14999H7.25L7.35001 59.25V59.45H7.44998H7.64999L7.75 59.55H7.85001V59.65V59.75H7.94998H8.04999V59.85H8.14999H8.25H8.35001L8.54999 59.65V59.35V59.25H8.44998V59.15V59.05V58.95V58.85V58.75L8.35001 58.65V58.55V58.45L8.25 58.35H8.35001V58.45H8.44998L8.54999 58.55L8.64999 58.65L8.75 58.75V58.85H8.85001V58.95H8.94998V59.05L9.04999 59.15L9.14999 59.25L9.35001 59.35H9.44998L9.54999 59.45L9.94998 59.65L10.05 59.75H10.15V59.85H10.25H10.35H10.45H10.55L10.65 59.75L10.95 59.45L11.05 59.35L11.25 59.15L11.45 58.95L11.55 58.85V58.75V58.65H11.45V58.55H11.35V58.45L11.25 58.35H11.35V58.25V58.15H11.45V58.05V57.95V57.85V57.75V57.65V57.55V57.45H11.35V57.35V57.25H11.45V57.15L11.55 57.05H11.65V56.95V56.85H11.75V56.75H11.85H11.95H12.05H12.15H12.25H12.35H12.45H12.55H12.65L12.75 56.65H12.85H12.95L13.25 56.55H13.35L13.55 56.45L13.65 56.35H13.75L13.85 56.45H13.95H14.05L14.15 56.55L14.25 56.65V56.75L14.35 56.85H14.45V56.95L14.55 57.05H14.65V57.15H14.75H14.85V57.25H14.95V57.35H15.05L15.15 57.45H15.25V57.55H15.35L15.45 57.65L15.55 57.75L15.65 57.85L15.75 57.95L15.85 58.05V58.15H15.95V58.25L16.05 58.35L16.15 58.25L16.25 58.15H16.35V58.05H16.45V58.25L16.55 58.55H16.65L16.95 58.45L17.05 58.35H17.15V58.25L17.25 58.05L17.35 57.85L17.65 57.95H17.75V58.05H17.85V58.15H17.95L18.05 58.25H18.15H18.25H18.35L18.45 58.35H18.65V58.45H18.75V58.55V58.65L18.85 58.55V58.45V58.35L18.75 58.25H18.85V58.15H18.95L19.05 58.05V57.95H19.15L19.35 57.75L19.65 57.45V57.35V57.25H19.55H19.45V57.15L19.35 57.05L19.45 56.95H19.55V56.85L19.65 56.75H19.75L19.85 56.85L19.95 56.95V56.85L20.45 56.25L20.55 56.15L20.65 56.05V55.95H20.75V55.85V55.75L20.85 55.65L20.75 55.55V55.45L20.65 55.15L20.55 54.75V54.65V54.55H20.65H20.75H20.85V54.65V54.75L20.95 54.85L21.25 55.35L21.35 55.45L21.45 55.55L21.55 55.65L21.75 55.55V55.45H21.85V55.35V55.25V55.15V55.05H21.95V54.95V54.85H22.05H22.15H22.25H22.35V54.75H22.45V54.65H22.55H22.65V54.75H22.75V54.85V54.95V55.05L22.85 55.15V55.25V55.35V55.45H22.95V55.35L23.05 55.45H23.15V55.35H23.25H23.35H23.55H23.75L23.95 55.45H24.05H24.15V55.55H24.25V55.65H24.35V55.75V55.85L24.45 56.05H24.55H24.65H24.75V55.95H24.85H24.95V55.85H25.05H25.15V55.75L25.25 55.65H25.35H25.45H25.55H25.65L25.75 55.55H25.85H25.95V55.45V55.35L26.05 55.25V55.15H26.15V55.05H26.25L26.35 54.95H26.45H26.55H26.65L26.75 54.85V54.75L26.65 54.55V54.35V54.05V53.95V53.85L26.55 53.65V53.55V53.35V53.25V53.15L26.45 53.05H26.35V52.95H26.25V52.85L26.15 52.75L25.95 52.55L25.85 52.65L25.75 52.75H25.65H25.55H25.45H25.35H25.25H25.15V52.65L25.05 52.55V52.45H25.15L25.05 52.35V52.25L24.95 51.85L24.85 51.65V51.55V51.45L24.75 51.15L24.65 50.85V50.75H24.75V50.65H24.85H24.95H25.05L25.15 50.55H25.25H25.35L25.45 50.35V50.25V50.15V49.95L25.25 50.05L25.15 49.95L24.85 49.75L24.75 49.65H24.65V49.35V49.25V49.15V49.05L24.25 48.85V48.65L24.35 48.55L24.45 48.05V47.95L24.65 47.65V47.75H24.75H24.85V47.65L24.75 47.55V47.45L24.95 46.65V46.55V46.45L24.85 46.35V46.15V46.05L24.75 45.95L24.65 45.75L24.55 45.55L24.45 45.45V45.35H24.35V45.25V45.15L24.45 45.05V44.95L24.55 44.85V44.75H24.65V44.65V44.55V44.45L24.45 44.35L24.55 44.15L24.65 43.95H24.75L24.65 43.85V43.75L24.55 43.65V43.55H24.45V43.45V43.35H24.35V43.25V43.15H24.25V43.05L24.15 42.85L24.05 42.75L23.95 42.45H23.85V42.35L23.65 42.25V42.15H23.55H23.45H23.25L23.05 42.05L22.95 41.95L22.85 41.85H22.65L22.55 41.75L22.45 41.65V41.55V41.45V41.35V41.25L22.35 41.15V41.05V40.95V40.85H22.45H22.75H23.25L23.15 40.25L22.65 40.35L22.55 39.95H22.35V39.25H22.85V39.05H23.45L23.35 38.35V38.15V38.05V37.95V37.85H23.45V37.75V37.65H23.55L23.65 37.55L23.85 37.35L23.95 37.15L24.25 36.75V36.65L24.35 36.25L24.25 36.15V36.05H24.15V35.95H24.05L23.95 36.05L23.55 36.35H23.45V36.45H23.35L23.15 36.65L22.95 36.35L22.65 36.05V35.95H22.55V35.85H22.45V35.75L22.25 35.55L22.15 35.45V35.25H22.05V35.35H21.95L21.85 35.45L21.65 35.55L21.25 35.65L21.15 35.45L20.95 35.35L20.85 35.05L20.35 35.15L20.15 35.25L20.05 34.95L19.65 35.15H19.45L19.25 35.25L19.05 34.75L18.95 34.45L19.35 33.75L19.55 33.45H19.65V33.35L19.75 32.95V32.85L19.85 32.75V32.65V32.55V32.45L19.95 32.25H20.05L20.25 32.45H20.35L20.55 32.55L20.75 32.25L20.85 31.95L20.95 31.65V31.55H21.05H21.25H21.35V31.45L21.25 31.35V31.25H21.15V31.15H21.05L20.95 31.25H20.75H20.55H20.45L20.35 31.35H20.25H20.15L20.05 31.25L19.95 31.15H19.85H19.75H19.65H19.55H19.45H19.35H19.15H19.05H18.95H18.85H18.75H18.65V31.05H18.55V30.95H18.45V30.85H18.55L18.65 30.75V30.65V30.55H18.55V30.45V30.35V30.25V30.15V30.05V29.95V29.85H18.45V29.75V29.65H18.55V29.55V29.45V29.35V29.25L18.65 29.15V29.05V28.95H18.75V28.85V28.75V28.65V28.55V28.45V28.35L18.85 28.25V28.15H18.95V28.25H19.05H19.15H19.25V28.15H19.35L19.45 28.05H19.55H19.65V28.15H19.75V28.25H19.85H19.95V28.35L20.05 28.45V28.55H20.15V28.65V28.75L20.25 28.85H20.35H20.45V28.95H20.55H20.65L20.75 28.85V28.75H20.85V28.65L20.95 28.55H21.05V28.45L21.15 28.35L21.25 28.25H21.35H21.45V28.15V28.05V27.95V27.85V27.75L21.35 27.65V27.55V27.45H21.25H21.15V27.35H21.05V27.25V27.15V27.05V26.95H21.15V26.85V26.75H21.25L21.35 26.65L21.45 26.55V26.45L21.35 26.35V26.25L21.25 26.15V26.05L21.15 25.95V25.85H21.05H20.95V25.75H20.85L20.75 25.65L20.65 25.55H20.55V25.45L20.45 25.35L20.35 25.25H20.25V25.15H20.15H20.05V25.05H19.95V24.95H19.85H19.75H19.65V24.85V24.75V24.65V24.55V24.45H19.75V24.35V24.25V24.15L19.85 24.05L19.95 23.95H20.05L20.15 23.85V23.75H20.25L20.35 23.65V23.55V23.45V23.25L20.45 23.05H20.55H20.65H20.75H20.85H20.95L21.05 22.95L21.15 22.75L21.25 22.65L21.35 22.45V22.35V22.25V22.15V22.05H21.45V21.95V21.85V21.75H21.55V21.65V21.55L21.65 21.45V21.35L21.75 21.15L21.85 21.25L22.35 21.65V21.35V21.15V21.05V20.55V20.35V20.25V20.15V19.85V19.75V19.55V19.45H22.25V19.35H22.35L22.25 19.25H22.15V19.15H22.05L21.95 19.05L21.85 18.95L21.55 18.75L21.45 18.65L21.25 18.45L21.05 18.35L20.95 18.25L20.85 18.15H20.75L20.55 18.05L20.45 17.95L20.35 17.85L20.05 17.65V17.35V17.15V16.95V16.35H19.95V16.25V16.15V15.95L19.85 15.25H19.95L20.15 15.15H20.25H20.35H20.45L20.55 15.05H20.85H20.95H21.05V14.95H21.15L21.25 15.05H21.35L21.45 14.95H21.55H21.75H21.95L22.25 14.85H22.35V14.75L22.25 14.65V14.55L22.15 14.45V14.25L22.35 13.95L22.45 13.85H22.55L22.65 13.75V13.65L22.75 13.55L22.95 13.45V13.35H23.05L23.15 13.15L23.25 13.05L23.55 12.75H23.65V12.65H23.55H23.45H23.35L23.25 12.55H23.15H23.05H22.95L22.85 12.45H22.75V12.35H22.65V12.25V11.95V11.65L23.05 11.55H23.35H23.55V11.45V11.25V11.05V10.85V10.75V10.65H23.65L23.85 10.75L23.95 10.85H24.05H24.15H24.25H24.35H24.45H24.55L24.75 10.75H25.05H25.15H25.25H25.45H25.55H25.65H25.75V10.65H25.85H25.95H26.05H26.15L26.35 10.55H26.45V10.35V10.15V10.05H26.55V9.95L26.65 9.84999H26.75V9.75H26.85H26.95H27.05H27.15H27.25H27.35H27.45H27.65H27.75H27.85H27.95H28.05H28.15L28.25 9.64999H28.35H28.45H28.55V9.55H28.65H28.75H28.85V9.45H28.95L29.15 9.34999L29.25 9.14999L29.45 9.05L29.55 8.95H29.65H29.75L29.85 8.84999H29.95H30.05H30.15H30.25H30.35H30.45L30.65 8.75H30.85H30.95H31.05H31.15V8.84999H31.25H31.35H31.45L31.75 8.95H31.85L31.95 9.05H32.05H32.15H32.25H32.35V9.14999H32.45V9.25H32.55V9.34999H32.65L32.75 9.45H32.85H32.95H33.05H33.15H33.25H33.35H33.45H33.55V9.55H33.65H33.85H34.05H34.15V9.45H34.25H34.55L34.85 9.34999H35.05H35.15H35.45H35.65H35.75V9.45H36.15H36.55V9.34999H36.65H36.75V9.45L36.85 9.34999H37.05H37.15L37.35 9.25H37.45L37.55 9.14999H37.65V9.05H37.75L37.95 8.84999H38.05L38.15 8.75H38.25H38.35L38.45 8.64999H38.55H38.65L38.75 8.55H38.85L39.15 8.45V8.34999L39.25 8.25L39.35 8.14999L39.55 8.05V8.14999L39.65 8.25H39.95L40.25 8.14999H40.55H40.65H40.75H40.85H40.95H41.05H41.15L41.25 8.05H41.35H41.45H41.55H41.65H41.85H41.95L42.05 7.95H42.25H42.45V7.84999H42.55L42.95 7.95L42.75 8.34999H42.85H42.95H43.05H43.15H43.25V8.25V8.14999H43.15V8.05L43.25 7.95V7.84999L43.35 7.64999L43.45 7.55L44.15 7.34999V7.05V6.34999V6.25V6.14999H44.35L44.55 6.05L45.05 6.45V6.55V6.64999V6.95V7.14999V7.25H45.25H45.55L45.65 7.34999H45.75H45.95H46.05H46.15H46.25H46.35H46.45H46.55L46.65 7.25L46.85 7.14999H47.05L48.25 7.45L48.45 7.55H48.65L48.75 7.64999H48.85H48.95H49.05L49.25 7.75H49.35H49.45V7.84999H49.55L49.85 8.05L50.05 8.14999L50.15 8.25H50.25L50.45 8.45L50.65 8.55L50.85 8.64999H50.95V8.75L51.15 8.64999L51.45 8.45H51.55L51.65 8.34999L51.85 8.25V8.14999H51.95V8.05H52.05H52.15L52.25 7.95L52.35 7.84999L52.45 7.55V7.34999L52.55 7.14999V6.95L52.65 6.75V6.64999V6.55V6.45V6.34999H52.75V6.25L52.85 6.14999V6.05V5.95L52.95 5.84999V5.75V5.64999L53.05 5.55L52.95 5.45L53.05 5.34999V5.25H53.15V5.34999H53.25L53.35 5.45L53.55 5.55H53.65H53.75H53.85H53.95V5.45H54.05L54.25 5.55H54.35H54.45H54.55H54.65H54.75H54.85H54.95L55.05 5.45H55.15H55.25H55.35L55.45 5.34999H55.55V5.45V5.55V5.64999V5.75L55.65 5.84999V5.95V6.05V6.14999V6.25L55.85 6.34999H56.05V6.45L56.15 6.55H56.25H56.35L56.45 6.45L56.65 6.34999L56.75 6.25H56.95L57.15 6.14999H57.25L57.35 6.05H57.45H57.65L57.85 5.95L58.15 5.84999L58.45 5.55L58.55 5.64999H58.45V5.75V5.84999V5.95L58.55 6.05V6.14999L58.75 6.25L58.85 6.34999L59.05 6.64999H59.15V6.75L59.35 7.05V7.14999L59.45 7.25L59.55 7.55L60.05 8.25H60.25L60.35 8.45L60.55 9.05V9.14999V9.25H60.65L60.95 9.14999H61.05L61.35 8.95L61.55 8.84999L61.95 8.75L62.05 8.64999H62.15V8.55V8.45V8.34999V8.25V7.75L62.25 7.45V6.64999V6.55V6.45L62.35 6.34999H62.45H62.55H62.65H62.75H62.85V6.25H62.95L63.05 6.14999H63.15V6.05H63.25L63.35 6.14999H63.45H63.55V6.25H63.65H63.75H63.85L64.15 6.45L64.05 6.34999L63.95 5.95V5.84999L64.05 5.95L64.55 6.14999L65.05 6.34999L65.35 6.45L65.45 6.55H65.55L65.75 6.64999L66.15 6.95L66.25 7.05H66.35L66.45 7.14999H66.55L66.65 7.25L66.55 6.95V6.84999V6.75H66.75L66.95 6.64999L67.25 6.55L67.45 6.45L67.65 6.75L67.95 6.64999H68.05L68.25 6.55L68.35 6.84999V6.95L68.45 7.34999V7.45L68.85 7.34999V7.14999L68.95 7.05L69.05 6.75L69.15 6.45L69.35 6.14999L69.45 5.95V5.84999L69.65 5.75H69.95H70.15V5.34999L69.85 5.45H69.75V4.95V4.84999V4.75V4.64999V4.45V4.05V3.75H70.25H70.65L70.95 3.84999H71.05H71.15H71.25H71.45L71.35 3.25V3.14999H71.65H72.25L72.75 3.05H72.85H72.95V2.95V2.84999V2.64999H73.05H73.25L73.45 2.55H74.25H74.45V2.45L74.55 2.25V2.14999L74.65 1.84999L74.75 1.55V1.25L74.85 1.14999L75.05 0.449997V0.25H75.15H75.45H75.55H75.65H75.85H76.05H76.15H76.25V0.349991L76.35 0.449997V0.550003H76.45H76.55V0.649994H76.65H76.75H76.85L76.95 0.75H77.05L77.15 0.849991L77.05 1.25V1.34999V1.45V1.55H77.15V1.64999H77.25H77.35L77.45 1.75H77.55V1.84999H77.65V1.95H77.75V2.05H77.65V2.14999H77.55L77.45 2.25L77.65 2.45L78.05 2.64999L78.45 2.75L79.15 3.05V3.14999L79.25 3.25V3.34999H79.35V3.45L79.45 3.55L79.55 3.64999V3.75H79.65L79.75 3.84999V3.95H79.85V4.05H79.95L79.85 4.34999V4.55L79.65 4.95V5.14999V5.25L79.55 5.55L79.45 5.64999H79.55H79.65H79.75H79.85H79.95V5.55H80.05H80.15H80.35V5.64999V5.75V5.84999V6.05V6.14999V6.34999V6.45L80.45 6.55V6.64999L80.55 6.75L80.65 6.84999L80.75 6.95L80.55 7.25L80.15 7.64999L79.85 8.05L79.45 8.55H79.55L79.95 8.75L80.15 8.84999L80.35 8.95L80.55 9.05V9.75L80.45 10.35V10.75H80.55H80.65L81.65 11.45L82.05 11.65L82.25 11.75L82.35 11.85V12.05V12.15L82.45 12.25V12.35V12.45H82.55V12.55V12.75V12.95L82.25 12.85V12.95H82.15L82.05 13.05V13.15L81.95 13.35L81.85 13.55L82.05 13.75L81.75 14.15L81.55 14.35L81.35 14.75L81.05 15.15H80.95L80.75 15.05H80.65H80.55H80.45V15.15V15.25V15.35V15.45L80.35 15.55V15.65L80.25 15.75V15.95L80.15 16.15V16.25H79.85H79.75L79.65 16.35L79.55 16.45V16.55V16.65V16.75H79.65V16.85V16.95L79.75 17.05H79.85H79.95H80.05H80.15H80.25V17.15H80.35H80.45V17.25L80.55 17.35L80.75 17.55L80.85 17.85L80.95 17.95L81.05 18.15L81.25 18.35L81.35 18.65L81.55 18.85V18.95H81.45H81.35H81.25L81.45 19.35L81.75 19.25L82.05 19.55L82.25 19.75L82.45 19.95L82.75 20.15V20.25L82.65 20.45H82.55V20.55H82.45V20.65V20.75L82.35 20.85V20.95L82.25 21.05V21.25H82.15V21.45L82.05 21.55L81.95 21.65V21.75L81.85 21.85L81.75 21.95V22.05H81.65V22.15V22.25L81.55 22.35V22.45V22.55L81.65 22.65V22.75H81.75V22.85L81.95 22.95V23.05H82.05H82.15L82.25 23.15H82.35H82.45L82.55 23.25H82.65H82.75V23.35H82.85H82.95L83.15 23.45H83.25H83.35H83.45L83.55 23.55H83.65H83.75H83.85V23.45H83.95H84.05H84.15L84.25 23.35H84.35H84.45L84.55 23.25H84.65H84.85H84.95H85.05H85.15L85.25 23.35H85.35H85.55L85.75 23.25L85.95 23.35H86.05H86.15H86.25H86.35L86.45 23.45L86.55 23.35H86.65H86.75L86.85 23.25H86.95H87.05V23.35H87.55L88.15 24.05H88.25V23.95L88.35 23.85H88.45L88.55 23.75L88.75 23.65H88.85L88.95 23.55H89.05H89.15L89.25 23.45H89.35H89.45H89.55L89.65 23.35H89.85H89.95H90.05V23.45H90.15V23.55H90.25L90.35 23.45H90.45H90.55H90.65V23.55H90.75H90.85H90.95L91.05 23.65H91.15H91.25V23.75H91.35H91.45H91.55H91.65H91.75H91.85H91.95H92.05V23.65H92.15V23.55H92.25V23.45H92.35L92.45 23.35V23.25H92.55V23.35H92.65V23.45H92.75L92.85 23.55L92.95 23.65L93.05 23.75L93.35 23.55H93.55V23.45V23.35V23.25H93.65L94.55 22.45L94.65 22.65L94.85 22.95L94.95 23.15L95.05 23.25V23.35V23.55H96.15V23.35V22.75V22.25V21.35V20.75V20.65H96.25H96.35L96.75 20.75H96.85H96.95H97.05H97.45L97.85 20.65H98.35H98.55H98.85V20.75L99.05 21.05L99.35 21.55L99.45 21.65L99.55 21.55L99.65 21.35L100.05 20.85L100.15 20.65H100.25V20.75L100.35 20.65L100.45 20.75H100.55V20.85V20.95H100.65V21.05H100.75V21.15H100.85V21.25H100.95L101.05 21.35V21.25H101.15H101.25H101.35H101.45L101.75 20.45L102.05 19.55L102.15 19.35V19.25L102.25 19.05L102.45 18.85L102.95 18.25V18.15L103.05 18.25H103.15V18.35H103.25V18.45H103.35V18.55H103.45H103.55L103.65 18.65L103.75 18.75L103.85 18.65V18.55V18.45L103.95 18.35V18.05L104.05 17.95L104.35 18.05L104.55 18.15L104.75 18.25H104.85H104.95V18.35L105.25 18.45H105.45L105.55 18.55L106.25 18.85L106.65 18.95L106.75 18.55L107.05 18.75L107.65 18.95H107.75L108.15 19.15H108.35L108.45 19.25H108.55V19.35V19.55V19.65H108.65L108.75 19.75H108.95L109.05 19.85L109.25 19.95V20.15L109.15 20.35H108.95L108.85 20.25L108.65 20.65V20.75H108.55V20.85L108.45 20.95L108.25 21.05L107.95 21.25V21.35V21.45L108.05 21.65V21.85L107.95 21.95L107.85 22.15L107.65 22.35L107.55 22.55L107.45 22.65L107.35 22.75L107.55 22.85H107.65L107.75 22.95V23.05L107.65 23.15L107.45 23.25L107.75 23.65L107.85 23.85L107.95 24.05L108.05 24.15L108.15 24.25V24.35L108.25 24.45L108.35 24.65L108.45 24.85H108.55L108.65 25.05V25.15L108.75 25.25L108.85 25.35V25.45L108.95 25.55L109.05 25.65V25.75V25.95H109.15V26.15V26.25V26.45V26.65L109.25 26.85V26.95V27.05L109.35 27.15V27.25V27.35L109.45 27.55V27.65H109.55H109.75V27.75V27.85L109.85 28.05V28.15H109.75L109.65 28.05V28.35L109.55 28.45V28.75L109.45 28.95H109.55L109.65 29.05H109.95L110.05 29.15H110.15L110.25 29.25L110.85 30.05L110.95 30.25H111.05V30.35L111.15 30.15L111.25 30.05H111.35H111.55H111.75L111.85 30.25V30.55H111.75V30.85V30.95V31.05H111.65L111.55 30.95H111.45L111.35 30.85H111.25H111.15V30.75H111.05H110.95H110.85V30.85H110.75H110.65V30.75H110.55H110.45V30.85H110.35V30.95H110.25V31.05V31.15V31.25L110.15 31.35V31.45L110.05 31.55H109.95H109.85H109.75V31.65V31.75H109.65L109.75 31.85V31.95L109.95 32.25L110.15 32.65L110.35 33.05L110.55 33.35H110.65L110.75 33.45V33.55L110.95 33.65L111.05 33.75L111.25 33.85L111.45 33.95L111.95 34.15H112.05V34.25V34.35L112.15 34.45V34.55L112.25 34.85V34.95L111.65 35.35L111.55 35.45L111.45 35.55L111.35 35.65L111.15 35.75L111.25 35.95L111.35 36.05V36.15L111.15 36.35H111.05V36.45L110.75 36.65L110.55 36.95H110.45L110.65 37.25H110.55V37.35L110.15 37.65L109.85 37.85L109.75 38.05L109.65 38.25L109.55 38.15H109.45L109.35 38.25H109.25L108.75 38.35L108.35 38.45L107.75 38.65L107.85 39.15V39.35V39.45H107.75L107.65 39.65V39.75L107.55 40.05V40.25L107.65 40.65L107.75 40.75H107.85H107.95L108.15 40.95L108.25 41.05L108.35 41.15L108.45 41.25L108.55 41.35V41.45V41.55V41.65V41.75V41.85V41.95L108.65 42.05V42.15V42.25V42.35V42.45V42.75L108.75 42.85L108.65 42.95V43.05V43.15V43.25L108.85 43.45V43.55V43.65L108.95 43.75L109.05 43.85L109.15 43.95V44.05H109.25V44.15V44.25H109.55L109.85 44.35H110.05H110.15V44.45L110.25 44.35H110.35H110.45H110.55H110.65V44.45H110.75H110.85V44.55H110.95L111.05 44.45V44.35L111.15 44.25H111.25H111.35L111.45 44.35H111.55H111.65L112.05 44.65H112.25L112.75 45.05L113.15 45.35L113.55 45.65L113.35 45.75V45.85V45.95H113.25H113.15H113.05V46.05H112.95V46.15V46.25L113.05 46.35V46.45V46.55V46.65V46.75L113.15 46.85H113.25V46.95H113.35V47.05V47.15H113.45L113.35 47.25H113.45V47.35V47.45H113.55V47.55V47.65L113.45 47.75H113.35V47.85H113.25V47.95L113.35 48.05H113.45H113.55H113.65L113.55 48.15L113.45 48.35L113.35 48.55L113.25 48.75L113.35 48.85V48.95L113.45 49.05L113.55 49.15H113.65L113.75 49.25H113.85V49.35H113.95V49.45V49.55H114.05L114.15 49.65V49.75H114.25L114.35 49.85V49.95L114.45 50.05V50.15H114.55V50.25H114.65H114.75H114.85H114.95H115.05L115.15 50.15H115.35L115.45 50.05H115.55L115.65 49.95H115.75L115.85 50.05L115.95 50.15L116.85 50.75L117.05 50.95L117.15 50.85V50.65L117.25 50.55V50.45V50.35V50.15V50.05V49.95V49.85V49.75L117.35 49.65V49.55V49.45L117.45 49.35V49.25H117.55L117.65 49.15L117.75 49.05L118.05 48.95H118.15L118.55 49.95L118.75 50.35L118.65 50.45H118.55H118.45V50.55V50.65V50.75V50.85V50.95V51.05L118.65 51.25L118.85 51.35H118.95L119.05 51.45H119.15H119.25L119.35 51.55H119.45V51.65L119.35 51.75H119.25L119.15 51.85L119.05 51.95V52.05L118.95 52.15H118.85H118.75H118.65H118.55H118.45L118.35 52.05H118.25H118.15V51.95H118.05H117.95V51.85H117.85H117.75L117.85 52.25L118.15 53.25L118.35 53.35L118.95 53.55V54.15V54.55V54.95V55.15V55.25L118.85 55.15H118.75H118.65V55.05L118.55 55.15L118.45 55.35V55.65V56.05H118.55L118.45 56.45V56.65V56.85V56.95V57.15L118.35 57.25H118.05L118.15 57.45V57.75V58.25H118.25V58.35L118.35 58.55L118.45 58.75L118.55 59.05H119.15L119.25 59.25V59.75L119.05 59.85H118.95H118.85L118.75 59.95H118.65H118.55H118.45H118.35V60.05H118.05L117.65 60.15L116.85 60.25L116.65 60.55H116.55H116.45L116.65 61.35V61.45V61.55L116.75 61.65V61.75V61.85L116.85 61.95V62.05V62.15L116.95 62.35L116.85 62.45L116.65 62.35H116.55L116.45 62.25H116.35H116.25H116.15L116.05 62.15H115.95V62.05H115.85L115.65 61.95H115.55H115.45H115.35L115.25 61.85L115.15 61.75L115.05 61.95L114.95 62.45L114.75 62.95V63.15L114.65 63.45L114.45 64.15L114.25 64.55L114.65 64.85L114.55 64.95V65.05L114.45 65.15H114.35H114.25H114.15L114.05 65.25V65.35L114.15 65.55L114.05 65.65L113.95 65.55L113.85 65.45H113.75V65.35L113.65 65.25H113.55V65.15L113.45 64.95H113.35V64.85H113.25L112.85 64.75V64.85L112.95 64.95L113.05 65.05V65.15H113.15V65.25V65.35V65.45V65.55V65.65H113.25V65.75V65.85L113.35 65.95V66.05H113.45L113.55 66.15L113.65 66.25V66.35L113.75 66.45V66.55L113.95 67.05V67.15V67.25V67.35V67.45H114.05V67.55L114.35 68.05L114.55 68.35L115.05 67.95H115.15L115.25 68.15V68.05H115.35H115.45V67.95H115.55V67.85H115.65V67.75H115.75L115.85 67.65H115.95V67.55H116.05V67.45V67.35H116.15H116.25V67.45H116.35V67.55L116.65 67.25L116.75 67.15V67.35V67.55L116.65 67.75L116.75 67.85V68.05V68.15H116.85L117.05 68.05L117.15 68.25L116.95 68.45L116.85 68.65L116.75 68.75L116.95 68.85L117.35 69.15L116.85 69.85L116.65 70.15L116.25 70.75L116.05 71.15L115.55 71.85L115.35 72.05L115.15 72.35L115.35 72.65L115.55 73.05L115.65 73.15L115.55 73.25L115.35 73.75L115.25 73.95L115.45 74.05L115.35 74.15L115.45 74.25L115.75 74.45L115.95 74.55V74.65L116.05 74.75L115.85 74.85L115.75 74.95V75.05H115.95L116.15 75.25L116.95 75.95L117.65 75.65L117.85 75.75L118.05 75.85V75.95H118.15L118.25 76.05H118.35H118.45L118.95 76.15H119.05L119.35 76.25V76.35H119.25V76.45L119.15 76.55L118.75 76.75L118.65 76.85L118.55 76.95L118.25 77.05H118.15H118.05V77.15V77.25L118.15 77.35V77.45H118.25H118.35V77.55H118.45H118.55H118.65H118.75V77.65L118.85 77.75H118.95V77.85L119.05 77.95L118.95 78.15L119.05 78.25V78.35V78.85V79.15L119.15 79.45V79.95V80.25V80.35L119.45 80.45H119.65H119.75V80.55L120.05 80.65L120.35 80.85H120.45L120.65 80.95H120.75V81.45V82.15V82.25L120.85 82.85V83.25V83.75V84.25V84.65L120.95 85.05V85.35V85.55V85.65L121.25 85.75L121.35 85.85L121.45 85.75H121.55L121.65 85.65H121.75H121.85L121.95 85.75L122.05 85.85L122.15 85.95L122.25 86.05H122.35H122.45H122.55L122.65 86.15H122.85H122.95L122.85 86.35H122.75V86.45L122.65 86.55L123.45 86.75H123.65L125.05 87.15H125.15L125.35 87.25L125.65 87.35H125.95V87.65L125.65 87.75L125.75 87.95L125.95 88.15L126.25 88.65H126.35L126.55 88.75V88.85V88.95H126.65V89.05V89.15H126.75V89.25H126.85V89.35V89.45V89.55L126.75 89.85L126.35 89.65L126.05 89.55L125.95 89.95L125.85 90.05L125.75 90.45L125.65 90.55L125.75 90.65L125.45 91.15L125.85 91.25L125.75 91.55H125.95L125.75 92.25L126.25 91.95L126.35 92.05L126.75 92.45L127.05 92.85L127.45 93.25L127.65 93.45L127.95 93.75L128.25 94.05L128.55 94.35L129.25 94.45L130.05 94.55L129.95 94.75L129.85 94.85V94.95V95.05V95.15L129.95 95.45L130.55 95.35L130.65 96.05L131.05 95.95V96.25V96.45L131.15 96.55L131.25 96.65H131.55V96.95L131.65 97.15L132.25 97.05L132.35 97.35V97.45V97.55L132.25 97.65L132.15 97.75V97.85V98.05V98.15V98.25H132.05V98.45H132.15L132.25 98.55V98.65V98.75V98.85H132.15L132.05 98.95H131.95L131.85 99.05V98.95H131.55H131.25L131.15 99.05H131.05L130.65 99.15H130.45H130.25L130.35 99.35L130.25 99.45V99.75L130.15 100.15H130.05L130.15 100.25V100.35V100.45L130.25 100.55L130.35 100.85L130.55 101.05L130.65 101.15L131.25 101.05L131.55 101.15L131.95 101.35L132.35 101.45L132.85 101.85H133.05V101.95V102.05L132.95 102.25V102.35V102.85V102.95L133.05 103.05V103.15L132.95 103.25V103.55L133.05 103.65L133.15 103.75V104.05H133.25L133.15 104.25H133.25H133.45V104.35L133.55 104.45H133.65H133.75V104.55L133.65 104.75H133.75V104.85V105.25L133.65 105.55V105.75V105.85H133.75V105.95V106.05L133.65 106.15L133.55 106.05L133.45 105.95H133.35H133.25H133.15H133.05V106.05H132.95V105.95H132.85L132.75 105.85H132.65H132.55H132.45L132.35 105.95L132.15 106.15L132.25 106.35L132.55 106.45H132.65H132.75L132.95 106.25V106.45H133.05V106.55V106.65L132.95 106.75V106.95V107.05L132.85 107.45V107.75L132.75 108.05H132.35L132.15 107.95H131.75V108.05L131.55 108.25H131.35L131.25 108.15H131.15H131.05L130.95 108.65L130.85 108.95V109.15L130.75 109.45V109.55H130.95L131.15 109.65L131.05 109.85V110.05L130.95 110.45H130.75L130.55 110.35H130.45H130.35V110.45V110.55V110.65L130.45 110.75V110.85V110.95L130.15 111.05L130.25 111.25L129.85 111.45L129.75 111.55L129.65 111.65L129.45 111.75V111.85L129.25 111.95L129.05 112.05V111.95V111.85V111.75L128.95 111.85L128.35 111.95L128.05 112.15V112.25L127.25 112.75L126.95 112.95L126.85 112.75L125.95 113.05L125.85 113.15L125.95 113.25V113.35V113.45H126.05V113.55H126.15V113.65L126.25 113.75V113.85H126.15V113.95L125.55 114.35L124.55 115.25L123.75 115.95L122.35 117.05L121.95 117.35L122.05 117.45L122.15 117.55L122.25 117.65L122.35 117.75H122.45H122.55H122.65L122.75 117.85V117.95L122.85 118.05H122.95V118.15V118.25V118.35V118.45V118.55V118.65L123.05 118.75H123.15V118.85H123.25V118.95H123.35V119.05L123.25 119.15L122.85 118.95V119.05V119.35V119.65V120.15V120.25H122.65L122.55 120.45H122.35H122.05L121.85 120.35V120.65L121.75 121.25V121.45V121.55H121.55H121.45H121.35L121.25 121.65H121.35V121.75H121.25V121.85V121.95H121.15H121.05V122.05L121.25 122.35L121.15 122.45V122.55L120.95 122.65H120.85V122.75L120.75 122.85V122.95H120.65V122.85L120.55 122.75H120.45H120.35H120.25H120.15V122.95V123.15V123.35L120.05 123.45L120.35 123.55V123.65V123.85V123.95H120.55V124.05V124.15V124.25H120.65L120.55 124.35H120.65L120.75 124.45H120.85L120.95 124.55L121.05 124.65L121.25 124.75L121.15 124.95V125.05L121.25 125.35L121.45 125.75H121.35L121.15 125.95L121.35 126.25L121.55 126.45V126.55L121.65 126.75L121.75 126.95V127.05L121.65 127.35L121.55 127.55V127.65L121.45 127.75V127.95H121.35V128.05L121.25 128.15V128.25H121.15L121.25 128.45V128.55V128.65H121.35V128.75H121.25V128.85H121.35L121.25 128.95H121.35L121.45 129.15L121.55 129.25L121.65 129.45V129.55V129.85H121.55L121.35 130.05H121.25H121.15H121.05L120.75 130.25V130.15H120.65H120.55H120.45H120.25H120.05L119.95 130.05H119.85H119.75H119.65H119.55H119.45H119.35H119.25H119.15H119.05H118.95H118.85H118.75L118.55 130.15H118.45H118.35L118.15 130.25L118.05 130.35H117.95L117.85 130.45H117.75V130.55H117.65H117.55L117.35 130.65L117.15 130.75L116.95 130.95L116.85 131.05L116.75 131.15L116.35 130.85L116.15 130.75L116.05 130.65L115.95 130.55H115.85H115.65H115.55H115.35V130.65L115.45 131.05L115.65 131.45L115.75 131.65L116.05 132.15L116.15 132.35L116.25 132.55V132.65L116.35 132.75V132.95V133.05V133.15V133.25V133.65L116.25 134.05V134.65L116.15 134.85V134.95V135.15V135.25V135.35V135.55L116.25 135.65V135.75H116.15V135.95L116.05 136.15L115.95 136.25L115.75 136.15V136.35L115.45 136.25V136.35L115.65 136.45L115.85 136.55H115.95V136.75L115.85 136.95V137.05V137.15L115.75 137.25L115.65 137.15L115.55 137.05L115.45 136.95H115.35H115.15H115.05V136.85H114.95H114.85L114.65 136.95H114.55H114.45V136.85V136.65V136.55L114.55 136.35V136.05H114.45L114.25 135.95L114.15 135.85L113.85 135.75L112.65 135.35V135.45L112.55 135.75L112.45 135.95V136.05V136.15V136.25V136.35L112.35 136.45H112.25V136.55H112.15H112.05H111.95L111.85 136.65V136.75L111.75 136.85L111.65 136.95L111.75 137.05L111.85 137.25V137.45V137.55L111.95 137.65H111.85H111.75H111.65L111.45 137.55H111.35L111.25 137.45L111.15 137.55V137.65L111.05 137.85H110.95H110.85V137.75H110.75H110.55V137.85L110.35 137.95L110.25 137.85H110.15H110.05L109.95 137.75H109.85H109.75L109.65 137.65H109.55L109.45 137.75H109.35H109.25L109.15 137.85V137.95H109.05H108.95H108.85L108.75 137.85H108.65H108.55H108.45H108.35H108.25L108.15 137.75H108.05H107.95H107.85L107.75 137.65H107.55H107.45H107.25V137.55L107.15 137.45H107.05L106.95 137.35H106.85H106.75L106.45 137.25H106.35V137.15V137.05V136.95V136.75L106.25 136.55V136.45L106.15 136.35V136.15L105.85 136.05H105.45L104.65 136.15L104.35 136.25L103.95 136.35H103.75L103.55 136.45L103.15 136.55H102.85L102.25 136.75H102.15V136.85H102.05L101.95 136.95L101.65 137.55H101.55L101.85 138.15L101.05 138.55L100.85 138.25L100.65 138.35H100.55L100.35 138.45L100.05 138.55H99.95V138.45V138.35L100.05 138.25V138.15V138.05L99.75 138.25L99.55 138.35L99.45 138.25H99.35H99.25H99.15L98.85 138.35L98.15 138.75L98.05 138.85L97.95 138.75L97.85 138.65L97.75 138.55H97.65L97.55 138.45L97.35 138.55H97.05H96.95L96.85 138.45V138.35H96.75L96.65 138.25V138.35H96.55L96.45 138.45H96.35H96.25H96.15L95.85 138.35L95.65 138.25V138.15V138.05L95.75 137.55V137.25H95.25L95.35 137.05V136.95L95.25 136.85V136.95H95.15L95.05 137.15L94.75 137.05V136.95L94.65 137.05V137.15H94.45V137.25L94.25 137.15H94.15V137.25V137.35L94.05 137.55H93.95H93.85H93.75L93.65 137.45H93.55L93.45 137.35V137.45H93.25L93.35 137.15L93.15 137.05L92.95 136.75V136.65H92.85L92.65 136.55L92.55 136.45V136.35L92.65 136.15L92.75 136.05L93.05 135.95H93.15H93.25L93.45 135.85V135.95H93.55L93.65 136.05V136.15H93.75L94.15 136.25L94.25 136.15L94.45 135.75V135.65L94.65 135.55H94.85V135.65H94.95H95.05H95.15L95.25 135.55L95.45 135.45V135.25H95.35V135.35H95.25L95.15 135.25V135.15V135.05H95.05V134.95V134.85V134.75V134.65V134.35L94.95 134.05L94.85 134.15V134.25H94.75L94.45 134.65L94.35 134.75L94.15 134.65H93.95V134.75L93.85 134.65L93.65 134.55H93.55V134.65L93.25 134.55H93.05H92.95V134.65V134.75V134.85H92.85V135.25H92.45L92.05 135.15H91.95L91.85 135.05V134.95L91.65 134.85V134.75L91.45 134.65H91.15H90.95H90.85L90.75 134.75H90.45H90.25H90.05H89.75H89.55H89.45V134.65H89.55H89.65L89.85 134.55V134.45H89.95H90.05V134.35L90.15 134.25L90.25 134.15L90.05 134.05L89.95 133.95L89.85 133.85H89.75L89.65 133.55L89.35 133.65L89.05 133.85V133.75H88.95L88.85 133.65L88.65 133.45L88.45 133.25L88.35 133.15L88.25 133.05L88.05 132.75L87.95 132.65L87.85 132.55L87.45 132.15L87.35 131.95L87.25 131.85H87.15V131.75H87.05V131.65L86.95 131.55V131.45H86.85L86.55 131.05L86.35 131.15L86.25 130.85V130.75H86.15V130.65H86.05V130.75H85.95H85.85L85.65 130.65H85.55L85.45 130.85L85.25 130.75V131.05L85.45 131.25L85.35 131.35H85.25L85.35 131.45L85.25 131.75L85.05 131.65L84.85 131.85L84.65 132.15V132.25L84.55 132.55V132.65V132.75V132.95V133.05V133.15V133.25L84.45 133.45L84.55 133.55L84.75 133.75V133.85V133.95L84.85 134.05L84.75 134.25H84.65L84.55 134.55L84.45 134.65V134.75V134.85H84.35V134.95H84.25V135.05L83.95 135.35L84.05 135.45H84.15V135.55L83.95 135.75V135.85H83.85L83.65 135.75H83.55V135.65L83.35 135.55L83.25 135.45V135.35V135.25V135.15L83.15 135.05V134.95L83.05 134.75L82.95 134.55V134.45L82.85 134.35L82.75 134.15H82.65H82.55V134.05V133.95H82.45V134.05V134.15H82.35L82.25 134.05L82.15 133.95L81.95 133.85L81.85 133.95L81.75 134.05V134.15L81.65 134.25L81.55 134.35L81.35 134.25L81.25 134.05L81.15 133.95V133.85H80.85L80.75 133.75V133.65H80.65H80.55H80.35H80.25H80.15L79.85 133.55H79.55L79.45 133.75V133.95L79.35 134.25L79.25 134.55L79.15 134.95L78.95 135.75L78.85 136.45L78.75 137.05V137.35L78.65 137.75V137.85V137.95H78.55H78.45L78.55 138.05V138.15H78.65V138.25H78.55L78.25 138.35L77.85 138.45L76.75 138.75L76.65 138.85L75.85 139.15L75.75 139.25L75.65 139.45H75.75L75.85 139.55H75.95V139.65V139.75L75.85 139.85V139.95H75.75L75.65 140.05V140.15L75.45 140.05V139.95L75.25 139.85L75.05 139.75V139.55V139.45H74.95H74.85L74.65 139.35V139.25V139.15H74.75V139.05V138.95L74.95 138.15L75.05 137.85L75.15 137.65L75.05 137.45L74.95 137.15V137.05L74.85 136.95L74.75 136.85L74.65 136.75V136.65H74.55V136.45L74.45 136.35L74.35 136.05V135.95L74.25 135.85L74.05 135.95V135.85L73.95 135.75L73.85 135.65L73.55 135.75L73.25 135.85L72.95 135.95L72.85 135.85L72.75 135.65L72.65 135.55V135.35H72.55V135.25V135.15L72.45 135.25L72.35 135.35L72.25 135.45H72.05H71.95V135.55V135.65V135.85H71.75H71.35H71.25L70.95 135.95H70.85L70.75 135.85L70.55 135.75L70.45 135.65L70.25 135.45L69.95 135.05H69.75L69.55 135.15L69.25 135.25H68.95L68.75 135.45L68.65 135.55L68.25 135.85L68.05 135.75L67.65 135.55H67.55H67.45H67.35V135.65H67.25V135.75H67.15H67.05L66.95 135.85H66.85H66.75L66.65 135.95H66.55L66.45 135.75L66.25 135.35L66.15 135.15V135.05V134.85V134.75L66.05 134.55L66.15 134.45L66.25 134.25H66.15H66.05L65.95 134.35H65.85H65.75H65.35L65.15 134.45H64.95H64.85H64.75L64.65 134.55H64.55V134.45V134.35V134.25V134.15V134.05V133.95V133.85H64.45L64.25 133.75H64.05V133.65H63.95H63.85V133.75H63.75H63.65V133.65H63.55H63.45V133.55H63.35L63.25 133.45H63.15L63.05 133.35H62.95H62.85V133.25L62.65 133.45V133.35H62.55L62.45 133.25V133.15L62.35 133.05L62.25 132.95V132.85H62.15L62.05 132.75L61.95 132.65L61.85 132.45V132.35H61.75V132.25H61.65L61.55 132.35L61.45 132.45L61.35 132.55L61.25 132.65L61.05 132.75L60.95 132.65V132.55L60.75 132.35L60.65 132.25V132.15L60.55 132.05L60.45 132.15H60.35H60.25V132.25H60.15L59.95 132.35V132.45H59.85H59.75H59.65H59.55L59.35 132.55V132.65V132.75H59.25V132.85H59.15V132.95H59.05V133.05H58.95V133.15H58.85V133.25V133.35V133.45H58.75H58.65V133.55H58.55V133.65V133.75H58.45L58.35 133.85H58.25H58.15H58.05H57.95H57.85V133.95H57.75V133.85H57.65H57.55H57.45H57.35L57.25 133.95L57.45 134.25L57.65 134.45L57.85 134.65L57.95 134.75L58.05 134.85L58.15 134.95H57.95L57.65 135.25L57.25 135.45L57.05 135.75V136.05V136.15V136.25L57.15 136.35V136.45L57.05 136.65H56.95V136.75L56.85 136.85V136.95V137.05V137.35V137.45V137.65V137.75V137.85V137.95V138.05V138.15V138.25V138.35L56.95 138.45V138.55V138.65V138.75L56.85 138.85V138.95V139.05L56.75 139.15V139.25L56.65 139.35V139.45V139.55V139.65V139.75V139.85H56.75V139.95H56.85L56.95 140.05H57.05V140.15H57.15V140.25H57.05V140.35L56.95 140.45H56.85L56.65 140.35H56.55H56.45L56.35 140.25L56.25 140.15L56.15 140.05H56.05L55.95 139.95H55.85L55.75 139.85H55.65H55.55H55.45H55.35L55.25 139.75H55.15L55.05 139.65L54.85 139.55V139.45H54.75L54.65 139.35L54.55 139.25V139.15L54.45 139.05V138.95V138.85L54.35 138.75V138.65L54.25 138.55V138.45L54.15 138.35L54.05 138.25L53.95 138.15V138.05L53.85 137.95V137.85V137.75V137.65V137.55V137.45V137.35V137.25L53.75 137.15V137.05L53.65 136.95V136.85L53.55 136.75L53.45 136.65L53.35 136.55V136.45L53.25 136.35L53.15 136.15H53.05V136.05V135.95V135.85V135.75L53.15 135.65V135.55V135.45H53.25L53.35 135.25L53.45 135.05L53.55 134.95L53.75 134.85L53.95 134.75L54.05 134.55V134.45V134.35L53.95 134.25V134.15L53.85 134.05V133.95V133.85V133.75L53.75 133.65V133.55L53.85 133.45V133.25V133.15V133.05V132.95L53.75 132.85V132.75V132.65H53.65V132.55L53.55 132.45L53.45 132.35V132.25H53.35L53.25 132.15H53.15L52.95 132.05H52.85H52.75L52.65 131.95H52.55H52.45H52.35H52.25H51.95H51.75H51.65H51.55L51.35 132.05H51.25L51.15 132.15L51.05 132.25L50.95 132.35L50.85 132.55H50.75V132.65L50.65 132.75V132.85L50.55 133.05L50.45 133.15V133.35L50.35 133.55V133.65V133.75L50.25 133.95V134.05L50.15 134.15V134.25L50.05 134.35V134.45V134.55L49.95 134.65V134.75H49.85L49.75 134.85V134.95H49.65V135.05H49.55L49.45 135.15H49.25L49.15 135.25H49.05H48.95H48.85V135.35H48.75H48.65H48.55H48.45H48.35H48.15H48.05H47.95L47.85 135.25L47.75 135.15H47.65V135.05H47.55L47.45 134.95H47.35V134.85L47.25 134.75L47.15 134.65V134.55L47.25 134.45V134.35V134.15H47.35V134.05V133.95H47.25V133.85V133.75V133.65V133.55V133.45V133.35L47.35 133.25V133.15L47.45 133.05L47.55 132.95H47.65V132.85H47.75L47.85 132.75H47.95L48.05 132.65L48.35 132.55L48.45 132.45L48.65 132.25L48.95 132.15L49.25 131.95L49.45 131.75L49.65 131.55L49.95 131.05L50.05 130.95L50.15 130.85V130.75V130.65V130.55V130.45V130.35L50.25 130.25V130.15L50.45 129.75V129.65V129.55V129.45V129.35V129.25L50.55 129.15V129.05L50.45 128.85V128.75V128.65V128.55V128.45V128.25V128.15V128.05V127.95H50.35V127.85L50.25 127.75V127.55L50.15 127.45V127.35L50.05 127.25V127.15L49.95 127.05V126.95H49.85V126.85L49.75 126.75L49.65 126.65H49.55H49.45H49.35H49.25L49.15 126.75H49.05L48.95 126.85H48.85V126.95H48.75L48.65 127.05L48.55 127.15V127.35H48.45V127.45V127.55H48.35L48.25 127.65H48.15L48.05 127.75H47.95V127.65H47.85H47.75V127.55L47.65 127.45V127.35H47.55V127.25L47.45 127.15V127.05H47.35H47.25H47.15L47.05 127.15H46.95L46.85 127.25L46.75 127.35L46.65 127.45L46.55 127.55L46.45 127.75L46.35 127.85H46.25L46.15 127.95H46.05H45.85L45.75 128.05H45.65L45.55 128.15H45.45L45.35 128.25L45.25 128.35H45.15L45.05 128.45V128.55L44.95 128.65H44.75V128.75L44.55 128.85H44.45L44.25 128.95L44.15 129.05L44.05 129.15H43.95L43.65 129.35L43.55 129.45H43.45L43.15 129.65L42.95 129.75H42.85H42.75L42.65 129.85H42.55H42.45H42.35H42.25H42.15H42.05L41.95 129.75L41.85 129.65L41.75 129.55L41.55 129.45L41.45 129.35L41.35 129.25V129.15H41.25V129.05V128.95V128.85L41.15 128.65V128.45V128.35V128.25V128.15V128.05L41.05 127.85V127.75V127.65V127.45V127.35V127.15V127.05L41.15 126.85V126.75L41.25 126.65V126.55V126.35V126.25L41.15 126.15L40.95 125.95H40.85L40.75 125.85H40.55L40.35 125.75H40.25L40.05 125.65H39.85L39.55 125.55H39.45L39.35 125.45H39.25L39.15 125.55H39.05L38.95 125.65V125.75V125.95V126.15V126.25L38.85 126.35V126.45V126.55L38.75 126.75L38.65 126.85L38.55 126.95L38.45 127.05L38.35 127.15L38.25 127.25L38.15 127.35H38.05H37.95V127.45H37.85H37.75V127.55H37.65V127.65H37.55L37.45 127.75H37.35V127.85H37.25H37.15H37.05H36.95H36.85L36.75 127.75H36.65H36.55L36.45 127.65H36.35H36.25L36.15 127.55L36.05 127.45V127.35L35.95 127.25V127.15V127.05L35.85 126.95V126.85V126.75V126.65V126.55V126.45V126.35L35.95 126.05V125.95L36.05 125.65L36.15 125.35V125.15L36.35 124.85V124.75V124.65V124.55V124.45V124.35V124.25L36.45 123.95V123.75V123.55L36.55 123.45V123.35V123.15V123.05L36.45 122.85L36.35 122.75V122.65V122.55L36.25 122.25L36.15 122.15V122.05H36.05L35.95 121.95L35.85 121.75V121.65H35.75V121.55L35.65 121.45L35.55 121.35L35.45 121.25L35.35 121.15L35.25 121.05H35.05L34.85 120.95H34.75L34.55 120.85H34.45L34.15 120.75H34.05H33.85H33.65H33.45H33.25L33.15 120.65H33.05H32.85H32.55H32.35H32.25L32.15 120.75H32.05H31.95H31.85L31.65 120.85H31.55L31.35 120.75H31.25H31.15H31.05H30.95H30.85V120.85H30.75H30.55H30.45H30.25L30.05 120.75H29.95H29.85L29.75 120.65L29.55 120.55L29.45 120.45L29.35 120.35L29.25 120.25L29.05 120.05L28.95 119.95L28.85 119.85L28.65 119.75L28.55 119.65L28.35 119.55L28.25 119.45H28.15V119.35H28.05L27.75 119.15L27.65 119.05L27.55 118.95L27.45 118.85L27.35 118.75H27.25V118.65H27.15L27.05 118.55L26.85 118.45L26.75 118.25L26.55 118.15L26.45 117.95V117.85L26.35 117.75H26.25V117.65L26.15 117.55L26.05 117.35L25.95 117.25L25.85 117.15V116.95L25.75 116.75L25.65 116.55V116.35V116.15V116.05V115.95H25.75V115.75V115.65V115.55V115.45V115.35L25.65 115.25V115.15L25.55 114.95V114.85L25.45 114.75L25.35 114.65H25.25L25.15 114.55L24.95 114.45L24.75 114.35L24.65 114.25L24.45 114.15H24.35L24.25 114.05H24.15L24.05 113.95H23.85H23.75H23.65H23.55H23.45L23.35 113.85H23.15L23.05 113.75H22.95L22.85 113.65H22.75L22.65 113.55V113.45L22.55 113.35V113.05L22.45 112.95L22.25 112.65H22.15L22.05 112.55V112.45H21.95L21.85 112.35L21.65 112.25L21.55 112.15L21.45 111.95L21.35 111.85L21.25 111.65H21.15L21.05 111.55H20.95L20.85 111.45H20.65L20.55 111.35L20.35 111.25H20.25L20.15 111.15L20.05 111.05L19.95 110.95L19.85 110.85H19.75L19.55 110.75H19.25H19.15H19.05H18.95H18.85H18.75H18.65L18.55 110.85H18.35L18.25 110.95H18.15L17.85 111.05H17.75L17.65 111.15H17.45L17.35 111.25H17.15L16.95 111.35L16.85 111.45L16.75 111.55H16.55V111.65H16.45L16.35 111.75L16.25 111.85L16.05 111.95H15.95L15.85 112.05H15.75H15.55H15.35H15.15H15.05H14.95H14.85H14.65H14.55H14.35L14.05 111.95H13.85L13.65 111.85L13.35 111.65H13.25H13.15V111.55H13.05H12.95H12.85V111.45H12.75L12.65 111.35H12.55V111.25L12.45 111.15L12.25 111.05L12.05 110.95L11.95 110.85L11.75 110.75H11.65L11.55 110.65L11.45 110.55H11.35H11.25V110.45H11.15V110.35V110.25V110.15V110.05L11.25 109.85H11.35V109.75V109.65V109.55H11.45V109.45L11.55 109.35V109.25V109.15L11.65 109.05V108.95L11.75 108.85L11.85 108.75V108.65V108.55V108.45L11.75 108.35V108.25H11.65V108.15H11.55H11.45L11.35 108.05H11.25H11.15H11.05H10.95L10.85 108.15H10.75H10.65V108.25H10.55H10.45L10.25 108.45L10.15 108.55L9.94998 108.65H9.85001L9.75 108.75L9.64999 108.85L9.54999 108.95L9.35001 109.05L9.14999 109.15L8.85001 109.45L8.54999 109.65H8.44998V109.75H8.35001Z" fill="#220F0F"/>
<path d="M2.04999 88.75H2.14999V88.85L2.25 88.95V89.05V89.15H2.35001L2.25 89.25V89.35H2.14999H2.04999V89.45L1.94998 89.55L1.64999 89.85L1.54999 89.95V90.15L1.75 90.55V90.85L1.85001 91.15L1.94998 91.25L2.04999 91.35L2.14999 91.45V91.55L2.25 91.75L2.35001 91.85V91.95V92.05V92.15V92.25L2.25 92.35V92.45V92.55H2.14999V92.65L1.94998 92.55L1.85001 92.65L1.94998 92.95V93.05V93.15V93.25H1.85001L1.75 93.15H1.64999H1.54999V93.05L1.35001 93.25V93.35H1.25V93.45V93.55H1.14999V93.65H1.04999V93.75V93.85V93.95V94.05V94.15V94.25H0.949982V94.35V94.45V94.55L1.04999 94.65V94.75V94.85H0.949982V94.95H1.04999V95.05V95.15L0.949982 95.25V95.35L0.850006 95.45V95.55V95.65L0.75 95.75L0.649994 95.85L0.549988 95.95V96.05V96.15V96.25V96.35L0.449982 96.45V96.55H0.549988L0.449982 96.65V96.75V96.85V96.95H0.350006V97.05V97.15V97.25L0.25 97.35V97.45V97.55L0.549988 97.65L0.850006 97.75L1.04999 97.85L1.44998 98.05L1.85001 98.25L2.14999 98.45L2.35001 98.55L2.54999 98.65L2.85001 98.85L3.04999 99.05L3.35001 99.25L3.54999 99.45H3.64999L3.75 99.65L4.04999 99.95L4.14999 100.15L4.25 100.35V100.45H4.35001L4.44998 100.55V100.65V100.75L4.54999 100.85L4.64999 100.95V101.05V101.15L4.75 101.25L4.85001 101.45V101.65L4.94998 101.75V101.85V101.95V102.05L5.04999 102.15V102.25V102.35V102.45L5.14999 102.55V102.65L5.25 102.75V102.95L5.35001 103.05V103.15L5.44998 103.35V103.55L5.54999 103.75V103.85V103.95L5.64999 104.05V104.15V104.25V104.45L5.75 104.55V104.75V104.85V104.95V105.05V105.25V105.35V105.55V105.65V105.75V105.85V105.95L5.64999 106.15V106.35V106.45V106.55H5.54999V106.65V106.75V106.85V106.95V107.05H5.64999V107.15L5.75 107.25L5.85001 107.35V107.45L5.94998 107.75L6.04999 107.95L6.14999 108.05V108.25L6.25 108.35L6.35001 108.45V108.55L6.44998 108.75H6.54999V108.85L6.75 108.95L6.85001 109.05L6.94998 109.15L7.14999 109.25V109.35L7.25 109.45L7.35001 109.55H7.44998L7.54999 109.65L7.64999 109.75H7.75H7.85001H8.04999H8.14999H8.25H8.35001H8.44998V109.65H8.54999L8.85001 109.45L9.14999 109.15L9.35001 109.05L9.54999 108.95L9.64999 108.85L9.75 108.75L9.85001 108.65H9.94998L10.15 108.55L10.25 108.45L10.45 108.25H10.55H10.65V108.15H10.75H10.85L10.95 108.05H11.05H11.15H11.25H11.35L11.45 108.15H11.55H11.65V108.25H11.75V108.35L11.85 108.45V108.55V108.65V108.75L11.75 108.85L11.65 108.95V109.05L11.55 109.15V109.25V109.35L11.45 109.45V109.55H11.35V109.65V109.75V109.85H11.25L11.15 110.05V110.15V110.25V110.35V110.45H11.25V110.55H11.35H11.45L11.55 110.65L11.65 110.75H11.75L11.95 110.85L12.05 110.95L12.25 111.05L12.45 111.15L12.55 111.25V111.35H12.65L12.75 111.45H12.85V111.55H12.95H13.05H13.15V111.65H13.25H13.35L13.65 111.85L13.85 111.95H14.05L14.35 112.05H14.55H14.65H14.85H14.95H15.05H15.15H15.35H15.55H15.75H15.85L15.95 111.95H16.05L16.25 111.85L16.35 111.75L16.45 111.65H16.55V111.55H16.75L16.85 111.45L16.95 111.35L17.15 111.25H17.35L17.45 111.15H17.65L17.75 111.05H17.85L18.15 110.95H18.25L18.35 110.85H18.55L18.65 110.75H18.75H18.85H18.95H19.05H19.15H19.25H19.55L19.75 110.85H19.85L19.95 110.95L20.05 111.05L20.15 111.15L20.25 111.25H20.35L20.55 111.35L20.65 111.45H20.85L20.95 111.55H21.05L21.15 111.65H21.25L21.35 111.85L21.45 111.95L21.55 112.15L21.65 112.25L21.85 112.35L21.95 112.45H22.05V112.55L22.15 112.65H22.25L22.45 112.95L22.55 113.05V113.35L22.65 113.45V113.55L22.75 113.65H22.85L22.95 113.75H23.05L23.15 113.85H23.35L23.45 113.95H23.55H23.65H23.75H23.85H24.05L24.15 114.05H24.25L24.35 114.15H24.45L24.65 114.25L24.75 114.35L24.95 114.45L25.15 114.55L25.25 114.65H25.35L25.45 114.75L25.55 114.85V114.95L25.65 115.15V115.25L25.75 115.35V115.45V115.55V115.65V115.75V115.95H25.65V116.05V116.15V116.35V116.55L25.75 116.75L25.85 116.95V117.15L25.95 117.25L26.05 117.35L26.15 117.55L26.25 117.65V117.75H26.35L26.45 117.85V117.95L26.55 118.15L26.75 118.25L26.85 118.45L27.05 118.55L27.15 118.65H27.25V118.75H27.35L27.45 118.85L27.55 118.95L27.65 119.05L27.75 119.15L28.05 119.35H28.15V119.45H28.25L28.35 119.55L28.55 119.65L28.65 119.75L28.85 119.85L28.95 119.95L29.05 120.05L29.25 120.25L29.35 120.35L29.45 120.45L29.55 120.55L29.75 120.65L29.85 120.75H29.95H30.05L30.25 120.85H30.45H30.55H30.75H30.85V120.75H30.95H31.05H31.15H31.25H31.35L31.55 120.85H31.65L31.85 120.75H31.95H32.05H32.15L32.25 120.65H32.35H32.55H32.85H33.05H33.15L33.25 120.75H33.45H33.65H33.85H34.05H34.15L34.45 120.85H34.55L34.75 120.95H34.85L35.05 121.05H35.25L35.35 121.15L35.45 121.25L35.55 121.35L35.65 121.45L35.75 121.55V121.65H35.85V121.75L35.95 121.95L36.05 122.05H36.15V122.15L36.25 122.25L36.35 122.55V122.65V122.75L36.45 122.85L36.55 123.05V123.15V123.35V123.45L36.45 123.55V123.75V123.95L36.35 124.25V124.35V124.45V124.55V124.65V124.75V124.85L36.15 125.15V125.35L36.05 125.65L35.95 125.95V126.05L35.85 126.35V126.45V126.55V126.65V126.75V126.85V126.95L35.95 127.05V127.15V127.25L36.05 127.35V127.45L36.15 127.55L36.25 127.65H36.35H36.45L36.55 127.75H36.65H36.75L36.85 127.85H36.95H37.05H37.15H37.25H37.35V127.75H37.45L37.55 127.65H37.65V127.55H37.75V127.45H37.85H37.95V127.35H38.05H38.15L38.25 127.25L38.35 127.15L38.45 127.05L38.55 126.95L38.65 126.85L38.75 126.75L38.85 126.55V126.45V126.35L38.95 126.25V126.15V125.95V125.75V125.65L39.05 125.55H39.15L39.25 125.45H39.35L39.45 125.55H39.55L39.85 125.65H40.05L40.25 125.75H40.35L40.55 125.85H40.75L40.85 125.95H40.95L41.15 126.15L41.25 126.25V126.35V126.55V126.65L41.15 126.75V126.85L41.05 127.05V127.15V127.35V127.45V127.65V127.75V127.85L41.15 128.05V128.15V128.25V128.35V128.45V128.65L41.25 128.85V128.95V129.05V129.15H41.35V129.25L41.45 129.35L41.55 129.45L41.75 129.55L41.85 129.65L41.95 129.75L42.05 129.85H42.15H42.25H42.35H42.45H42.55H42.65L42.75 129.75H42.85H42.95L43.15 129.65L43.45 129.45H43.55L43.65 129.35L43.95 129.15H44.05L44.15 129.05L44.25 128.95L44.45 128.85H44.55L44.75 128.75V128.65H44.95L45.05 128.55V128.45L45.15 128.35H45.25L45.35 128.25L45.45 128.15H45.55L45.65 128.05H45.75L45.85 127.95H46.05H46.15L46.25 127.85H46.35L46.45 127.75L46.55 127.55L46.65 127.45L46.75 127.35L46.85 127.25L46.95 127.15H47.05L47.15 127.05H47.25H47.35H47.45V127.15L47.55 127.25V127.35H47.65V127.45L47.75 127.55V127.65H47.85H47.95V127.75H48.05L48.15 127.65H48.25L48.35 127.55H48.45V127.45V127.35H48.55V127.15L48.65 127.05L48.75 126.95H48.85V126.85H48.95L49.05 126.75H49.15L49.25 126.65H49.35H49.45H49.55H49.65L49.75 126.75L49.85 126.85V126.95H49.95V127.05L50.05 127.15V127.25L50.15 127.35V127.45L50.25 127.55V127.75L50.35 127.85V127.95H50.45V128.05V128.15V128.25V128.45V128.55V128.65V128.75V128.85L50.55 129.05V129.15L50.45 129.25V129.35V129.45V129.55V129.65V129.75L50.25 130.15V130.25L50.15 130.35V130.45V130.55V130.65V130.75V130.85L50.05 130.95L49.95 131.05L49.65 131.55L49.45 131.75L49.25 131.95L48.95 132.15L48.65 132.25L48.45 132.45L48.35 132.55L48.05 132.65L47.95 132.75H47.85L47.75 132.85H47.65V132.95H47.55L47.45 133.05L47.35 133.15V133.25L47.25 133.35V133.45V133.55V133.65V133.75V133.85V133.95H47.35V134.05V134.15H47.25V134.35V134.45L47.15 134.55V134.65L47.25 134.75L47.35 134.85V134.95H47.45L47.55 135.05H47.65V135.15H47.75L47.85 135.25L47.95 135.35H48.05H48.15H48.35H48.45H48.55H48.65H48.75H48.85V135.25H48.95H49.05H49.15L49.25 135.15H49.45L49.55 135.05H49.65V134.95H49.75V134.85L49.85 134.75H49.95V134.65L50.05 134.55V134.45V134.35L50.15 134.25V134.15L50.25 134.05V133.95L50.35 133.75V133.65V133.55L50.45 133.35V133.15L50.55 133.05L50.65 132.85V132.75L50.75 132.65V132.55H50.85L50.95 132.35L51.05 132.25L51.15 132.15L51.25 132.05H51.35L51.55 131.95H51.65H51.75H51.95H52.25H52.35H52.45H52.55H52.65L52.75 132.05H52.85H52.95L53.15 132.15H53.25L53.35 132.25H53.45V132.35L53.55 132.45L53.65 132.55V132.65H53.75V132.75V132.85L53.85 132.95V133.05V133.15V133.25V133.45L53.75 133.55V133.65L53.85 133.75V133.85V133.95V134.05L53.95 134.15V134.25L54.05 134.35V134.45V134.55L53.95 134.75L53.75 134.85L53.55 134.95L53.45 135.05L53.35 135.25L53.25 135.45H53.15V135.55V135.65L53.05 135.75V135.85V135.95V136.05V136.15H53.15L53.25 136.35L53.35 136.45V136.55L53.45 136.65L53.55 136.75L53.65 136.85V136.95L53.75 137.05V137.15L53.85 137.25V137.35V137.45V137.55V137.65V137.75V137.85V137.95L53.95 138.05V138.15L54.05 138.25L54.15 138.35L54.25 138.45V138.55L54.35 138.65V138.75L54.45 138.85V138.95V139.05L54.55 139.15V139.25L54.65 139.35L54.75 139.45H54.85V139.55L55.05 139.65L55.15 139.75H55.25L55.35 139.85H55.45H55.55H55.65H55.75L55.85 139.95H55.95L56.05 140.05H56.15L56.25 140.15L56.35 140.25L56.45 140.35H56.55H56.65L56.85 140.45H56.95L57.05 140.35V140.25H57.15V140.15H57.05V140.05H56.95L56.85 139.95H56.75V139.85H56.65V139.75V139.65V139.55V139.45V139.35L56.75 139.25V139.15L56.85 139.05V138.95V138.85L56.95 138.75V138.65V138.55V138.45L56.85 138.35V138.25V138.15V138.05V137.95V137.85V137.75V137.65V137.45V137.35V137.05V136.95V136.85L56.95 136.75V136.65H57.05L57.15 136.45V136.35L57.05 136.25V136.15V136.05V135.75L57.25 135.45L57.65 135.25L57.95 134.95H58.15L58.05 134.85L57.95 134.75L57.85 134.65L57.65 134.45L57.45 134.25L57.25 133.95L57.35 133.85H57.45H57.55H57.65H57.75V133.95H57.85V133.85H57.95H58.05H58.15H58.25H58.35L58.45 133.75H58.55V133.65V133.55H58.65V133.45H58.75H58.85V133.35V133.25V133.15H58.95V133.05H59.05V132.95H59.15V132.85H59.25V132.75H59.35V132.65V132.55L59.55 132.45H59.65H59.75H59.85H59.95V132.35L60.15 132.25H60.25V132.15H60.35H60.45L60.55 132.05L60.65 132.15V132.25L60.75 132.35L60.95 132.55V132.65L61.05 132.75L61.25 132.65L61.35 132.55L61.45 132.45L61.55 132.35L61.65 132.25H61.75V132.35H61.85V132.45L61.95 132.65L62.05 132.75L62.15 132.85H62.25V132.95L62.35 133.05L62.45 133.15V133.25L62.55 133.35H62.65V133.45L62.85 133.25V133.35H62.95H63.05L63.15 133.45H63.25L63.35 133.55H63.45V133.65H63.55H63.65V133.75H63.75H63.85V133.65H63.95H64.05V133.75H64.25L64.45 133.85H64.55V133.95V134.05V134.15V134.25V134.35V134.45V134.55H64.65L64.75 134.45H64.85H64.95H65.15L65.35 134.35H65.75H65.85H65.95L66.05 134.25H66.15H66.25L66.15 134.45L66.05 134.55L66.15 134.75V134.85V135.05V135.15L66.25 135.35L66.45 135.75L66.55 135.95H66.65L66.75 135.85H66.85H66.95L67.05 135.75H67.15H67.25V135.65H67.35V135.55H67.45H67.55H67.65L68.05 135.75L68.25 135.85L68.65 135.55L68.75 135.45L68.95 135.25H69.25L69.55 135.15L69.75 135.05H69.95L70.25 135.45L70.45 135.65L70.55 135.75L70.75 135.85L70.85 135.95H70.95L71.25 135.85H71.35H71.75H71.95V135.65V135.55V135.45H72.05H72.25L72.35 135.35L72.45 135.25L72.55 135.15V135.25V135.35H72.65V135.55L72.75 135.65L72.85 135.85L72.95 135.95L73.25 135.85L73.55 135.75L73.85 135.65L73.95 135.75L74.05 135.85V135.95L74.25 135.85L74.35 135.95V136.05L74.45 136.35L74.55 136.45V136.65H74.65V136.75L74.75 136.85L74.85 136.95L74.95 137.05V137.15L75.05 137.45L75.15 137.65L75.05 137.85L74.95 138.15L74.75 138.95V139.05V139.15H74.65V139.25V139.35M2.04999 88.75V88.65M2.04999 88.75H1.94998V88.65V88.55H1.85001V88.65L1.75 88.55V88.45L1.64999 88.35V88.25H1.54999V88.15V88.05H1.44998L1.35001 88.15H1.25V88.05L1.14999 87.95V87.85V87.75V87.65V87.55V87.45V87.35H1.04999V87.25H1.14999V87.15H1.25H1.35001L1.44998 87.05H1.54999H1.64999L1.75 87.15H1.85001H1.94998V87.05H2.04999V86.95V86.85L1.94998 86.75H1.85001V86.65H1.75V86.55H1.85001L1.94998 86.45H2.04999L2.14999 86.35L2.25 86.25L2.35001 86.05V85.95L2.44998 85.85L2.54999 85.55L2.44998 85.35H2.54999H2.64999V85.25V85.15H2.75H2.85001V85.05L2.94998 84.95V84.75H2.85001H2.75V84.65H2.64999L2.54999 84.55V84.45V84.35V84.25H2.44998V84.15V84.05H2.35001V83.95H2.25V83.85H2.14999V83.75V83.65V83.55V83.45V83.35L2.25 83.25H2.35001V83.15L2.44998 83.05V82.95V82.85V82.75V82.65V82.45L2.35001 82.35L2.25 81.95V81.75L2.44998 81.65V81.55V81.45V81.35V81.25L2.35001 81.15V81.05V80.95H2.25V80.85V80.75L2.35001 80.65V80.35L2.44998 80.25V80.15V80.05L2.35001 79.95V78.45V78.35V78.25L2.25 78.15L2.04999 77.95L1.85001 77.75L1.75 77.55H1.64999V77.45L1.54999 77.35L1.35001 76.95L1.25 76.85V76.55L1.35001 76.25V75.95V75.55V75.15L1.44998 74.95H1.35001L1.25 74.85H1.35001V74.75H1.44998V74.65H1.35001H1.25V74.55L1.14999 74.45H1.25V74.35H1.35001V74.25V74.15L1.25 74.05L1.14999 73.95L1.25 73.85V73.75H1.35001V73.65H1.44998L1.54999 73.55L1.64999 73.45V73.35V73.25H1.75V73.15V73.05L1.64999 72.95L1.75 72.85H1.85001H1.94998V72.95H2.04999H2.14999V72.85V72.75V72.65L2.25 72.75L2.35001 72.85L2.44998 72.75L2.35001 72.45L2.14999 72.25L2.35001 71.85V71.75L2.44998 71.35H2.25L2.14999 71.25H2.04999V71.15H1.94998L1.85001 70.95L1.75 70.85V70.75H1.64999V70.65V70.55L1.44998 70.25V70.15V70.05H1.35001V69.85V69.75V69.55V69.45L1.44998 69.35L1.54999 69.15L0.850006 68.75V68.65H0.75V68.55H0.850006L1.44998 67.65L1.54999 67.45L1.85001 66.95V66.85V66.75H1.94998V66.65V66.55V66.45L2.04999 66.35V66.25V66.15V66.05H2.14999V65.95V65.85V65.75H2.25V65.65V65.55V65.45L2.35001 65.25V65.15V65.05H2.44998H2.54999H2.85001L2.94998 65.15V65.05V64.95V64.75V64.65V64.55V64.35V64.25H3.04999H3.14999H3.44998L3.54999 64.15V64.05H3.44998V63.95V63.85H3.54999H3.64999H3.75H3.94998H4.04999H4.25H4.35001H4.44998H4.64999V63.75H4.75H4.85001L4.94998 63.85H5.04999H5.14999L5.35001 63.95L5.44998 63.85H5.54999H5.75L6.14999 63.95L6.35001 64.05H6.44998H6.54999H6.64999V64.15H6.75L6.85001 64.05V63.95V63.85H6.75V63.75L6.64999 63.55V63.45H6.54999V63.35H6.44998L6.25 63.15L6.14999 63.05H6.04999L5.94998 62.95L5.85001 62.85L5.75 62.75V62.65L5.64999 62.55V62.45L5.54999 62.35H5.64999L5.75 62.25L6.04999 62.05H6.14999V61.95H6.25V61.85H6.35001V61.75L6.44998 61.55L6.54999 61.35L6.64999 61.15L6.94998 60.75H6.85001V60.65L6.44998 60.15L6.35001 59.95L6.25 59.85H6.35001L6.44998 59.75L6.54999 59.55H6.64999H6.75V59.45H6.85001H6.94998V59.35V59.25V59.15L7.04999 59.05V59.15H7.14999H7.25L7.35001 59.25V59.45H7.44998H7.64999L7.75 59.55H7.85001V59.65V59.75H7.94998H8.04999V59.85H8.14999H8.25H8.35001L8.54999 59.65V59.35V59.25H8.44998V59.15V59.05V58.95V58.85V58.75L8.35001 58.65V58.55V58.45M8.35001 58.45L8.25 58.35H8.35001V58.45ZM8.35001 58.45H8.44998L8.54999 58.55L8.64999 58.65L8.75 58.75V58.85H8.85001V58.95H8.94998V59.05L9.04999 59.15L9.14999 59.25L9.35001 59.35H9.44998L9.54999 59.45L9.94998 59.65L10.05 59.75H10.15V59.85H10.25H10.35H10.45H10.55L10.65 59.75L10.95 59.45L11.05 59.35L11.25 59.15L11.45 58.95L11.55 58.85V58.75V58.65H11.45V58.55H11.35V58.45L11.25 58.35H11.35V58.25V58.15H11.45V58.05V57.95V57.85V57.75V57.65V57.55V57.45H11.35V57.35V57.25H11.45V57.15L11.55 57.05H11.65V56.95V56.85H11.75V56.75H11.85H11.95H12.05H12.15H12.25H12.35H12.45H12.55H12.65L12.75 56.65H12.85H12.95L13.25 56.55H13.35L13.55 56.45L13.65 56.35H13.75L13.85 56.45H13.95H14.05L14.15 56.55L14.25 56.65V56.75L14.35 56.85H14.45V56.95L14.55 57.05H14.65V57.15H14.75H14.85V57.25H14.95V57.35H15.05L15.15 57.45H15.25V57.55H15.35L15.45 57.65L15.55 57.75L15.65 57.85L15.75 57.95L15.85 58.05V58.15H15.95V58.25L16.05 58.35L16.15 58.25L16.25 58.15H16.35V58.05H16.45V58.25L16.55 58.55H16.65L16.95 58.45L17.05 58.35H17.15V58.25L17.25 58.05L17.35 57.85L17.65 57.95H17.75V58.05H17.85V58.15H17.95L18.05 58.25H18.15H18.25H18.35L18.45 58.35H18.65V58.45H18.75V58.55V58.65L18.85 58.55V58.45V58.35L18.75 58.25H18.85V58.15H18.95L19.05 58.05V57.95H19.15L19.35 57.75L19.65 57.45V57.35V57.25H19.55H19.45V57.15L19.35 57.05L19.45 56.95H19.55V56.85L19.65 56.75H19.75L19.85 56.85L19.95 56.95V56.85L20.45 56.25L20.55 56.15L20.65 56.05V55.95H20.75V55.85V55.75L20.85 55.65L20.75 55.55V55.45L20.65 55.15L20.55 54.75V54.65V54.55H20.65H20.75H20.85V54.65V54.75L20.95 54.85L21.25 55.35L21.35 55.45L21.45 55.55L21.55 55.65L21.75 55.55V55.45H21.85V55.35V55.25M21.85 55.25H21.95M21.85 55.25V55.15V55.05H21.95V54.95V54.85H22.05H22.15H22.25H22.35V54.75H22.45V54.65H22.55H22.65V54.75H22.75V54.85V54.95V55.05L22.85 55.15V55.25V55.35V55.45H22.95V55.35L23.05 55.45H23.15V55.35H23.25H23.35H23.55H23.75L23.95 55.45H24.05H24.15V55.55H24.25V55.65H24.35V55.75V55.85L24.45 56.05H24.55H24.65H24.75V55.95H24.85H24.95V55.85H25.05H25.15V55.75L25.25 55.65H25.35H25.45H25.55H25.65L25.75 55.55H25.85H25.95V55.45V55.35L26.05 55.25V55.15H26.15V55.05H26.25L26.35 54.95H26.45H26.55H26.65L26.75 54.85V54.75L26.65 54.55V54.35V54.05V53.95V53.85L26.55 53.65V53.55V53.35V53.25V53.15L26.45 53.05H26.35V52.95H26.25V52.85L26.15 52.75L25.95 52.55L25.85 52.65L25.75 52.75H25.65H25.55H25.45H25.35H25.25H25.15V52.65L25.05 52.55V52.45H25.15L25.05 52.35V52.25L24.95 51.85L24.85 51.65V51.55V51.45L24.75 51.15L24.65 50.85V50.75H24.75V50.65H24.85H24.95H25.05L25.15 50.55H25.25H25.35L25.45 50.35V50.25V50.15V49.95L25.25 50.05L25.15 49.95L24.85 49.75L24.75 49.65H24.65V49.35V49.25V49.15V49.05L24.25 48.85V48.65L24.35 48.55L24.45 48.05V47.95L24.65 47.65V47.75H24.75H24.85V47.65L24.75 47.55V47.45L24.95 46.65V46.55V46.45L24.85 46.35V46.15V46.05L24.75 45.95L24.65 45.75L24.55 45.55L24.45 45.45V45.35H24.35V45.25V45.15L24.45 45.05V44.95L24.55 44.85V44.75H24.65V44.65V44.55V44.45L24.45 44.35L24.55 44.15L24.65 43.95H24.75L24.65 43.85V43.75L24.55 43.65V43.55H24.45V43.45V43.35H24.35V43.25V43.15H24.25V43.05L24.15 42.85L24.05 42.75L23.95 42.45H23.85V42.35L23.65 42.25V42.15H23.55H23.45H23.25L23.05 42.05L22.95 41.95L22.85 41.85H22.65L22.55 41.75L22.45 41.65V41.55V41.45V41.35V41.25L22.35 41.15V41.05V40.95V40.85H22.45H22.75H23.25L23.15 40.25L22.65 40.35L22.55 39.95H22.35V39.25H22.85V39.05H23.45L23.35 38.35V38.15V38.05V37.95V37.85H23.45V37.75V37.65H23.55L23.65 37.55L23.85 37.35L23.95 37.15L24.25 36.75V36.65L24.35 36.25L24.25 36.15V36.05H24.15V35.95H24.05L23.95 36.05L23.55 36.35H23.45V36.45H23.35L23.15 36.65L22.95 36.35L22.65 36.05V35.95H22.55V35.85H22.45V35.75L22.25 35.55L22.15 35.45V35.25H22.05V35.35H21.95L21.85 35.45L21.65 35.55L21.25 35.65L21.15 35.45L20.95 35.35L20.85 35.05L20.35 35.15L20.15 35.25L20.05 34.95L19.65 35.15H19.45L19.25 35.25L19.05 34.75L18.95 34.45L19.35 33.75L19.55 33.45H19.65V33.35L19.75 32.95V32.85L19.85 32.75V32.65V32.55V32.45L19.95 32.25H20.05L20.25 32.45H20.35L20.55 32.55L20.75 32.25L20.85 31.95L20.95 31.65V31.55H21.05H21.25H21.35V31.45L21.25 31.35V31.25H21.15V31.15H21.05L20.95 31.25H20.75H20.55H20.45L20.35 31.35H20.25H20.15L20.05 31.25L19.95 31.15H19.85H19.75H19.65H19.55H19.45H19.35H19.15H19.05H18.95H18.85H18.75H18.65V31.05H18.55V30.95H18.45V30.85H18.55L18.65 30.75V30.65V30.55H18.55V30.45V30.35V30.25V30.15V30.05V29.95V29.85H18.45V29.75V29.65H18.55V29.55V29.45V29.35V29.25L18.65 29.15V29.05V28.95H18.75V28.85V28.75V28.65V28.55V28.45V28.35L18.85 28.25V28.15H18.95V28.25H19.05H19.15H19.25V28.15H19.35L19.45 28.05H19.55H19.65V28.15H19.75V28.25H19.85H19.95V28.35L20.05 28.45V28.55H20.15V28.65V28.75L20.25 28.85M20.25 28.85V28.75M20.25 28.85H20.35H20.45V28.95H20.55H20.65L20.75 28.85V28.75H20.85V28.65L20.95 28.55H21.05V28.45L21.15 28.35L21.25 28.25H21.35H21.45V28.15V28.05V27.95V27.85V27.75L21.35 27.65V27.55V27.45H21.25H21.15V27.35H21.05V27.25V27.15V27.05V26.95H21.15V26.85V26.75H21.25L21.35 26.65L21.45 26.55V26.45L21.35 26.35V26.25L21.25 26.15V26.05L21.15 25.95V25.85H21.05H20.95V25.75H20.85L20.75 25.65L20.65 25.55H20.55V25.45L20.45 25.35L20.35 25.25H20.25V25.15H20.15H20.05V25.05H19.95V24.95H19.85H19.75H19.65V24.85V24.75V24.65V24.55V24.45H19.75V24.35V24.25V24.15L19.85 24.05L19.95 23.95H20.05L20.15 23.85V23.75H20.25L20.35 23.65V23.55V23.45V23.25L20.45 23.05H20.55H20.65H20.75H20.85H20.95L21.05 22.95L21.15 22.75L21.25 22.65L21.35 22.45V22.35V22.25V22.15V22.05H21.45V21.95V21.85V21.75H21.55V21.65V21.55L21.65 21.45V21.35L21.75 21.15L21.85 21.25L22.35 21.65V21.35V21.15V21.05V20.55V20.35V20.25V20.15V19.85V19.75V19.55V19.45H22.25V19.35H22.35L22.25 19.25H22.15V19.15H22.05L21.95 19.05L21.85 18.95L21.55 18.75L21.45 18.65L21.25 18.45L21.05 18.35L20.95 18.25L20.85 18.15H20.75L20.55 18.05L20.45 17.95L20.35 17.85L20.05 17.65V17.35V17.15V16.95V16.35H19.95V16.25V16.15V15.95L19.85 15.25H19.95L20.15 15.15H20.25H20.35H20.45L20.55 15.05H20.85H20.95H21.05V14.95H21.15L21.25 15.05H21.35L21.45 14.95H21.55H21.75H21.95L22.25 14.85H22.35V14.75L22.25 14.65V14.55L22.15 14.45V14.25L22.35 13.95L22.45 13.85H22.55L22.65 13.75V13.65L22.75 13.55L22.95 13.45V13.35H23.05L23.15 13.15L23.25 13.05L23.55 12.75H23.65V12.65H23.55H23.45H23.35L23.25 12.55H23.15H23.05H22.95L22.85 12.45H22.75V12.35H22.65V12.25V11.95V11.65L23.05 11.55H23.35H23.55V11.45V11.25V11.05V10.85V10.75V10.65H23.65L23.85 10.75L23.95 10.85H24.05H24.15H24.25H24.35H24.45H24.55L24.75 10.75H25.05H25.15H25.25H25.45H25.55H25.65H25.75V10.65H25.85H25.95H26.05H26.15L26.35 10.55H26.45V10.35V10.15V10.05H26.55V9.95L26.65 9.84999H26.75V9.75H26.85H26.95H27.05H27.15H27.25H27.35H27.45H27.65H27.75H27.85H27.95H28.05H28.15L28.25 9.64999H28.35H28.45H28.55V9.55H28.65H28.75H28.85V9.45H28.95L29.15 9.34999L29.25 9.14999L29.45 9.05L29.55 8.95H29.65H29.75L29.85 8.84999H29.95H30.05H30.15H30.25H30.35H30.45L30.65 8.75H30.85H30.95H31.05H31.15V8.84999H31.25H31.35H31.45L31.75 8.95H31.85L31.95 9.05H32.05H32.15H32.25H32.35V9.14999H32.45V9.25H32.55V9.34999H32.65L32.75 9.45H32.85H32.95H33.05H33.15H33.25H33.35H33.45H33.55V9.55H33.65H33.85H34.05H34.15V9.45H34.25H34.55L34.85 9.34999H35.05H35.15H35.45H35.65H35.75V9.45H36.15H36.55V9.34999H36.65H36.75V9.45L36.85 9.34999H37.05H37.15L37.35 9.25H37.45L37.55 9.14999H37.65V9.05H37.75L37.95 8.84999H38.05L38.15 8.75H38.25H38.35L38.45 8.64999H38.55H38.65L38.75 8.55H38.85L39.15 8.45V8.34999L39.25 8.25L39.35 8.14999L39.55 8.05V8.14999L39.65 8.25H39.95L40.25 8.14999H40.55H40.65H40.75H40.85H40.95H41.05H41.15L41.25 8.05H41.35H41.45H41.55H41.65H41.85H41.95L42.05 7.95H42.25H42.45V7.84999H42.55L42.95 7.95L42.75 8.34999H42.85H42.95H43.05H43.15H43.25V8.25V8.14999H43.15V8.05L43.25 7.95V7.84999L43.35 7.64999L43.45 7.55L44.15 7.34999V7.05V6.34999V6.25V6.14999H44.35L44.55 6.05L45.05 6.45V6.55V6.64999V6.95V7.14999V7.25H45.25H45.55L45.65 7.34999H45.75H45.95H46.05H46.15H46.25H46.35H46.45H46.55L46.65 7.25L46.85 7.14999M46.85 7.14999V7.05M46.85 7.14999H47.05L48.25 7.45L48.45 7.55H48.65L48.75 7.64999H48.85H48.95H49.05L49.25 7.75H49.35H49.45V7.84999H49.55L49.85 8.05L50.05 8.14999L50.15 8.25H50.25L50.45 8.45L50.65 8.55L50.85 8.64999H50.95V8.75L51.15 8.64999L51.45 8.45H51.55L51.65 8.34999L51.85 8.25V8.14999H51.95V8.05H52.05H52.15L52.25 7.95L52.35 7.84999L52.45 7.55V7.34999L52.55 7.14999V6.95L52.65 6.75V6.64999V6.55V6.45V6.34999H52.75V6.25L52.85 6.14999V6.05V5.95L52.95 5.84999V5.75V5.64999L53.05 5.55L52.95 5.45L53.05 5.34999V5.25H53.15V5.34999H53.25L53.35 5.45L53.55 5.55H53.65H53.75H53.85H53.95V5.45H54.05L54.25 5.55H54.35H54.45H54.55H54.65H54.75H54.85H54.95L55.05 5.45H55.15H55.25H55.35L55.45 5.34999H55.55V5.45V5.55V5.64999V5.75L55.65 5.84999V5.95V6.05V6.14999V6.25L55.85 6.34999H56.05V6.45L56.15 6.55M56.15 6.55V6.64999M56.15 6.55H56.25H56.35L56.45 6.45L56.65 6.34999L56.75 6.25H56.95L57.15 6.14999H57.25L57.35 6.05H57.45H57.65L57.85 5.95L58.15 5.84999L58.45 5.55L58.55 5.64999H58.45V5.75V5.84999V5.95L58.55 6.05V6.14999L58.75 6.25L58.85 6.34999L59.05 6.64999H59.15V6.75L59.35 7.05V7.14999L59.45 7.25L59.55 7.55L60.05 8.25H60.25L60.35 8.45L60.55 9.05V9.14999V9.25H60.65L60.95 9.14999H61.05L61.35 8.95L61.55 8.84999L61.95 8.75L62.05 8.64999H62.15V8.55V8.45V8.34999V8.25V7.75L62.25 7.45V6.64999V6.55V6.45L62.35 6.34999H62.45H62.55H62.65H62.75H62.85V6.25H62.95L63.05 6.14999H63.15V6.05H63.25L63.35 6.14999H63.45H63.55V6.25H63.65H63.75M63.75 6.25V6.14999M63.75 6.25H63.85L64.15 6.45L64.05 6.34999L63.95 5.95V5.84999L64.05 5.95L64.55 6.14999L65.05 6.34999L65.35 6.45L65.45 6.55H65.55L65.75 6.64999L66.15 6.95L66.25 7.05H66.35L66.45 7.14999H66.55L66.65 7.25L66.55 6.95V6.84999V6.75H66.75L66.95 6.64999L67.25 6.55L67.45 6.45L67.65 6.75L67.95 6.64999H68.05L68.25 6.55L68.35 6.84999V6.95L68.45 7.34999V7.45L68.85 7.34999V7.14999L68.95 7.05L69.05 6.75L69.15 6.45L69.35 6.14999L69.45 5.95V5.84999L69.65 5.75H69.95H70.15V5.34999L69.85 5.45H69.75V4.95V4.84999V4.75V4.64999V4.45V4.05V3.75H70.25H70.65L70.95 3.84999H71.05H71.15H71.25H71.45L71.35 3.25V3.14999H71.65H72.25L72.75 3.05H72.85H72.95V2.95V2.84999V2.64999H73.05H73.25L73.45 2.55H74.25H74.45V2.45L74.55 2.25V2.14999L74.65 1.84999L74.75 1.55V1.25L74.85 1.14999L75.05 0.449997V0.25H75.15H75.45H75.55H75.65H75.85H76.05H76.15H76.25V0.349991L76.35 0.449997V0.550003H76.45H76.55V0.649994H76.65H76.75H76.85L76.95 0.75H77.05L77.15 0.849991L77.05 1.25V1.34999V1.45V1.55H77.15V1.64999H77.25H77.35L77.45 1.75H77.55V1.84999H77.65V1.95H77.75V2.05H77.65V2.14999H77.55L77.45 2.25M77.45 2.25H77.35M77.45 2.25L77.65 2.45L78.05 2.64999L78.45 2.75L79.15 3.05V3.14999L79.25 3.25V3.34999H79.35V3.45L79.45 3.55L79.55 3.64999V3.75H79.65L79.75 3.84999V3.95H79.85V4.05H79.95L79.85 4.34999V4.55L79.65 4.95V5.14999V5.25L79.55 5.55L79.45 5.64999H79.55H79.65H79.75H79.85H79.95V5.55H80.05H80.15H80.35V5.64999V5.75V5.84999V6.05V6.14999V6.34999V6.45L80.45 6.55V6.64999L80.55 6.75L80.65 6.84999L80.75 6.95L80.55 7.25L80.15 7.64999L79.85 8.05L79.45 8.55H79.55L79.95 8.75L80.15 8.84999L80.35 8.95L80.55 9.05V9.75L80.45 10.35V10.75H80.55H80.65L81.65 11.45L82.05 11.65L82.25 11.75L82.35 11.85V12.05V12.15L82.45 12.25V12.35V12.45H82.55V12.55V12.75V12.95L82.25 12.85V12.95H82.15L82.05 13.05V13.15L81.95 13.35L81.85 13.55L82.05 13.75L81.75 14.15L81.55 14.35L81.35 14.75L81.05 15.15H80.95L80.75 15.05H80.65H80.55H80.45V15.15V15.25V15.35V15.45L80.35 15.55V15.65L80.25 15.75V15.95L80.15 16.15V16.25H79.85H79.75L79.65 16.35L79.55 16.45V16.55V16.65V16.75H79.65V16.85V16.95L79.75 17.05H79.85H79.95H80.05H80.15H80.25V17.15H80.35H80.45V17.25L80.55 17.35L80.75 17.55L80.85 17.85L80.95 17.95L81.05 18.15L81.25 18.35L81.35 18.65L81.55 18.85V18.95H81.45H81.35H81.25L81.45 19.35L81.75 19.25L82.05 19.55L82.25 19.75L82.45 19.95L82.75 20.15V20.25L82.65 20.45H82.55V20.55H82.45V20.65V20.75L82.35 20.85V20.95L82.25 21.05V21.25H82.15V21.45L82.05 21.55L81.95 21.65V21.75L81.85 21.85L81.75 21.95V22.05H81.65V22.15V22.25L81.55 22.35V22.45V22.55L81.65 22.65V22.75H81.75V22.85L81.95 22.95V23.05H82.05H82.15L82.25 23.15H82.35H82.45L82.55 23.25H82.65H82.75V23.35H82.85H82.95L83.15 23.45H83.25H83.35H83.45L83.55 23.55H83.65H83.75H83.85V23.45H83.95H84.05H84.15L84.25 23.35H84.35H84.45L84.55 23.25H84.65H84.85H84.95H85.05H85.15L85.25 23.35H85.35H85.55L85.75 23.25L85.95 23.35H86.05H86.15H86.25H86.35L86.45 23.45L86.55 23.35H86.65H86.75L86.85 23.25H86.95H87.05V23.35H87.55L88.15 24.05H88.25V23.95L88.35 23.85H88.45L88.55 23.75L88.75 23.65H88.85L88.95 23.55H89.05H89.15L89.25 23.45H89.35H89.45H89.55L89.65 23.35H89.85H89.95H90.05V23.45H90.15V23.55H90.25L90.35 23.45H90.45H90.55H90.65V23.55H90.75H90.85H90.95L91.05 23.65H91.15H91.25V23.75H91.35H91.45H91.55H91.65H91.75H91.85H91.95H92.05V23.65H92.15V23.55H92.25V23.45H92.35L92.45 23.35V23.25H92.55V23.35H92.65V23.45H92.75L92.85 23.55L92.95 23.65L93.05 23.75L93.35 23.55H93.55V23.45V23.35V23.25H93.65L94.55 22.45L94.65 22.65L94.85 22.95L94.95 23.15L95.05 23.25V23.35V23.55H96.15V23.35V22.75V22.25V21.35V20.75V20.65H96.25H96.35L96.75 20.75H96.85H96.95H97.05H97.45L97.85 20.65H98.35H98.55H98.85V20.75L99.05 21.05L99.35 21.55L99.45 21.65L99.55 21.55L99.65 21.35L100.05 20.85L100.15 20.65H100.25V20.75L100.35 20.65L100.45 20.75H100.55V20.85V20.95H100.65V21.05H100.75V21.15H100.85V21.25H100.95L101.05 21.35V21.25H101.15H101.25H101.35H101.45L101.75 20.45L102.05 19.55L102.15 19.35V19.25L102.25 19.05L102.45 18.85L102.95 18.25V18.15L103.05 18.25H103.15V18.35H103.25V18.45H103.35V18.55H103.45M103.45 18.55V18.45M103.45 18.55H103.55L103.65 18.65L103.75 18.75L103.85 18.65V18.55V18.45L103.95 18.35V18.05L104.05 17.95L104.35 18.05L104.55 18.15L104.75 18.25H104.85H104.95V18.35L105.25 18.45H105.45L105.55 18.55L106.25 18.85L106.65 18.95L106.75 18.55L107.05 18.75L107.65 18.95H107.75L108.15 19.15H108.35L108.45 19.25H108.55V19.35V19.55V19.65H108.65L108.75 19.75H108.95L109.05 19.85L109.25 19.95V20.15L109.15 20.35H108.95L108.85 20.25L108.65 20.65V20.75H108.55V20.85L108.45 20.95L108.25 21.05L107.95 21.25V21.35V21.45L108.05 21.65V21.85L107.95 21.95L107.85 22.15L107.65 22.35L107.55 22.55L107.45 22.65L107.35 22.75L107.55 22.85H107.65L107.75 22.95V23.05L107.65 23.15L107.45 23.25L107.75 23.65L107.85 23.85L107.95 24.05L108.05 24.15L108.15 24.25V24.35L108.25 24.45L108.35 24.65L108.45 24.85H108.55L108.65 25.05V25.15L108.75 25.25L108.85 25.35V25.45L108.95 25.55L109.05 25.65V25.75V25.95H109.15V26.15V26.25V26.45V26.65L109.25 26.85V26.95V27.05L109.35 27.15V27.25V27.35L109.45 27.55V27.65H109.55H109.75V27.75V27.85L109.85 28.05V28.15H109.75L109.65 28.05V28.35L109.55 28.45V28.75L109.45 28.95H109.55L109.65 29.05H109.95L110.05 29.15H110.15L110.25 29.25L110.85 30.05L110.95 30.25H111.05V30.35L111.15 30.15L111.25 30.05H111.35H111.55H111.75L111.85 30.25V30.55H111.75V30.85V30.95V31.05H111.65L111.55 30.95H111.45L111.35 30.85H111.25H111.15V30.75H111.05H110.95H110.85V30.85H110.75M110.75 30.85V30.75M110.75 30.85H110.65V30.75H110.55H110.45V30.85H110.35V30.95H110.25V31.05V31.15M110.25 31.15H110.15M110.25 31.15V31.25L110.15 31.35V31.45L110.05 31.55H109.95M109.95 31.55V31.65M109.95 31.55H109.85H109.75V31.65V31.75H109.65L109.75 31.85V31.95L109.95 32.25L110.15 32.65L110.35 33.05L110.55 33.35H110.65L110.75 33.45V33.55L110.95 33.65L111.05 33.75L111.25 33.85L111.45 33.95L111.95 34.15H112.05V34.25V34.35L112.15 34.45V34.55L112.25 34.85V34.95L111.65 35.35L111.55 35.45L111.45 35.55L111.35 35.65L111.15 35.75L111.25 35.95L111.35 36.05V36.15L111.15 36.35H111.05V36.45L110.75 36.65L110.55 36.95H110.45L110.65 37.25H110.55V37.35L110.15 37.65L109.85 37.85L109.75 38.05L109.65 38.25L109.55 38.15H109.45L109.35 38.25H109.25L108.75 38.35L108.35 38.45L107.75 38.65L107.85 39.15V39.35V39.45H107.75L107.65 39.65V39.75L107.55 40.05V40.25L107.65 40.65L107.75 40.75H107.85H107.95L108.15 40.95L108.25 41.05L108.35 41.15L108.45 41.25L108.55 41.35V41.45V41.55V41.65V41.75V41.85V41.95L108.65 42.05V42.15V42.25V42.35V42.45V42.75L108.75 42.85L108.65 42.95V43.05V43.15V43.25L108.85 43.45V43.55V43.65L108.95 43.75L109.05 43.85L109.15 43.95V44.05H109.25V44.15V44.25H109.55L109.85 44.35H110.05H110.15V44.45L110.25 44.35H110.35H110.45H110.55H110.65V44.45H110.75H110.85V44.55H110.95L111.05 44.45V44.35L111.15 44.25H111.25H111.35L111.45 44.35H111.55H111.65L112.05 44.65H112.25L112.75 45.05L113.15 45.35L113.55 45.65L113.35 45.75V45.85V45.95H113.25H113.15M113.15 45.95V46.05M113.15 45.95H113.05V46.05H112.95V46.15V46.25L113.05 46.35V46.45V46.55V46.65V46.75L113.15 46.85H113.25V46.95H113.35V47.05V47.15H113.45L113.35 47.25H113.45V47.35V47.45H113.55V47.55V47.65L113.45 47.75H113.35V47.85H113.25V47.95L113.35 48.05H113.45H113.55H113.65L113.55 48.15L113.45 48.35L113.35 48.55L113.25 48.75L113.35 48.85V48.95L113.45 49.05L113.55 49.15H113.65L113.75 49.25H113.85V49.35H113.95V49.45V49.55H114.05L114.15 49.65V49.75H114.25L114.35 49.85V49.95L114.45 50.05V50.15H114.55V50.25H114.65H114.75H114.85H114.95H115.05L115.15 50.15H115.35L115.45 50.05H115.55L115.65 49.95H115.75L115.85 50.05L115.95 50.15L116.85 50.75L117.05 50.95L117.15 50.85V50.65L117.25 50.55V50.45V50.35V50.15V50.05V49.95V49.85V49.75L117.35 49.65V49.55V49.45L117.45 49.35V49.25H117.55L117.65 49.15L117.75 49.05L118.05 48.95H118.15L118.55 49.95L118.75 50.35L118.65 50.45H118.55H118.45V50.55V50.65V50.75V50.85V50.95V51.05L118.65 51.25L118.85 51.35H118.95L119.05 51.45H119.15H119.25L119.35 51.55H119.45V51.65L119.35 51.75H119.25L119.15 51.85L119.05 51.95V52.05L118.95 52.15H118.85H118.75H118.65H118.55H118.45L118.35 52.05H118.25H118.15V51.95H118.05H117.95V51.85H117.85H117.75L117.85 52.25L118.15 53.25L118.35 53.35L118.95 53.55V54.15V54.55V54.95V55.15V55.25L118.85 55.15H118.75H118.65V55.05L118.55 55.15L118.45 55.35V55.65V56.05H118.55L118.45 56.45V56.65V56.85V56.95V57.15L118.35 57.25H118.05L118.15 57.45V57.75V58.25H118.25V58.35L118.35 58.55L118.45 58.75L118.55 59.05H119.15L119.25 59.25V59.75L119.05 59.85H118.95H118.85L118.75 59.95H118.65H118.55H118.45H118.35V60.05H118.05L117.65 60.15L116.85 60.25L116.65 60.55H116.55H116.45L116.65 61.35V61.45V61.55L116.75 61.65V61.75V61.85L116.85 61.95V62.05V62.15L116.95 62.35L116.85 62.45L116.65 62.35H116.55L116.45 62.25H116.35H116.25H116.15L116.05 62.15H115.95V62.05H115.85L115.65 61.95H115.55H115.45H115.35L115.25 61.85L115.15 61.75L115.05 61.95L114.95 62.45L114.75 62.95V63.15L114.65 63.45L114.45 64.15L114.25 64.55L114.65 64.85L114.55 64.95V65.05L114.45 65.15H114.35H114.25H114.15L114.05 65.25V65.35L114.15 65.55L114.05 65.65L113.95 65.55L113.85 65.45H113.75V65.35L113.65 65.25H113.55V65.15L113.45 64.95H113.35V64.85H113.25L112.85 64.75V64.85L112.95 64.95L113.05 65.05V65.15H113.15V65.25V65.35V65.45V65.55V65.65H113.25V65.75V65.85L113.35 65.95V66.05H113.45L113.55 66.15L113.65 66.25V66.35L113.75 66.45V66.55L113.95 67.05V67.15V67.25V67.35V67.45H114.05V67.55L114.35 68.05L114.55 68.35L115.05 67.95H115.15L115.25 68.15V68.05H115.35H115.45V67.95H115.55V67.85H115.65V67.75H115.75L115.85 67.65H115.95V67.55H116.05V67.45V67.35H116.15H116.25V67.45H116.35V67.55L116.65 67.25L116.75 67.15V67.35V67.55L116.65 67.75L116.75 67.85V68.05V68.15H116.85L117.05 68.05L117.15 68.25L116.95 68.45L116.85 68.65L116.75 68.75L116.95 68.85L117.35 69.15L116.85 69.85L116.65 70.15L116.25 70.75L116.05 71.15L115.55 71.85L115.35 72.05L115.15 72.35L115.35 72.65L115.55 73.05L115.65 73.15L115.55 73.25L115.35 73.75L115.25 73.95L115.45 74.05L115.35 74.15L115.45 74.25L115.75 74.45L115.95 74.55V74.65L116.05 74.75L115.85 74.85L115.75 74.95V75.05H115.95L116.15 75.25L116.95 75.95L117.65 75.65L117.85 75.75L118.05 75.85V75.95H118.15L118.25 76.05H118.35H118.45L118.95 76.15H119.05L119.35 76.25V76.35H119.25V76.45L119.15 76.55L118.75 76.75L118.65 76.85L118.55 76.95L118.25 77.05H118.15H118.05V77.15V77.25L118.15 77.35V77.45H118.25H118.35V77.55H118.45H118.55H118.65H118.75V77.65L118.85 77.75H118.95V77.85L119.05 77.95L118.95 78.15L119.05 78.25V78.35V78.85V79.15L119.15 79.45V79.95V80.25V80.35L119.45 80.45H119.65H119.75V80.55L120.05 80.65L120.35 80.85H120.45L120.65 80.95H120.75V81.45V82.15V82.25L120.85 82.85V83.25V83.75V84.25V84.65L120.95 85.05V85.35V85.55V85.65L121.25 85.75L121.35 85.85L121.45 85.75H121.55L121.65 85.65H121.75H121.85L121.95 85.75L122.05 85.85L122.15 85.95L122.25 86.05H122.35H122.45H122.55L122.65 86.15H122.85H122.95L122.85 86.35H122.75V86.45L122.65 86.55L123.45 86.75H123.65L125.05 87.15H125.15L125.35 87.25L125.65 87.35H125.95V87.65L125.65 87.75L125.75 87.95L125.95 88.15L126.25 88.65H126.35L126.55 88.75V88.85V88.95H126.65V89.05V89.15H126.75V89.25H126.85V89.35V89.45V89.55L126.75 89.85L126.35 89.65L126.05 89.55L125.95 89.95L125.85 90.05L125.75 90.45L125.65 90.55L125.75 90.65L125.45 91.15L125.85 91.25L125.75 91.55H125.95L125.75 92.25L126.25 91.95L126.35 92.05L126.75 92.45L127.05 92.85L127.45 93.25L127.65 93.45L127.95 93.75L128.25 94.05L128.55 94.35L129.25 94.45L130.05 94.55L129.95 94.75L129.85 94.85V94.95V95.05V95.15L129.95 95.45L130.55 95.35L130.65 96.05L131.05 95.95V96.25V96.45L131.15 96.55L131.25 96.65H131.55V96.95L131.65 97.15L132.25 97.05L132.35 97.35V97.45V97.55L132.25 97.65L132.15 97.75V97.85V98.05V98.15V98.25H132.05V98.45H132.15L132.25 98.55V98.65V98.75V98.85H132.15L132.05 98.95H131.95L131.85 99.05V98.95H131.55H131.25L131.15 99.05H131.05L130.65 99.15H130.45H130.25L130.35 99.35L130.25 99.45V99.75L130.15 100.15H130.05L130.15 100.25V100.35V100.45L130.25 100.55L130.35 100.85L130.55 101.05L130.65 101.15L131.25 101.05L131.55 101.15L131.95 101.35L132.35 101.45L132.85 101.85H133.05V101.95V102.05L132.95 102.25V102.35V102.85V102.95L133.05 103.05V103.15L132.95 103.25V103.55L133.05 103.65L133.15 103.75V104.05H133.25L133.15 104.25H133.25H133.45V104.35L133.55 104.45H133.65H133.75V104.55L133.65 104.75H133.75V104.85V105.25L133.65 105.55V105.75V105.85H133.75V105.95V106.05L133.65 106.15L133.55 106.05L133.45 105.95H133.35H133.25H133.15H133.05V106.05H132.95V105.95H132.85L132.75 105.85H132.65H132.55H132.45L132.35 105.95L132.15 106.15L132.25 106.35L132.55 106.45H132.65H132.75L132.95 106.25V106.45H133.05V106.55V106.65L132.95 106.75V106.95V107.05L132.85 107.45V107.75L132.75 108.05H132.35L132.15 107.95H131.75V108.05L131.55 108.25H131.35L131.25 108.15H131.15H131.05L130.95 108.65L130.85 108.95V109.15L130.75 109.45V109.55H130.95L131.15 109.65L131.05 109.85V110.05L130.95 110.45H130.75L130.55 110.35H130.45H130.35V110.45V110.55V110.65L130.45 110.75V110.85V110.95L130.15 111.05L130.25 111.25L129.85 111.45L129.75 111.55L129.65 111.65L129.45 111.75V111.85L129.25 111.95L129.05 112.05V111.95V111.85V111.75L128.95 111.85L128.35 111.95L128.05 112.15V112.25L127.25 112.75L126.95 112.95L126.85 112.75L125.95 113.05L125.85 113.15L125.95 113.25V113.35V113.45H126.05V113.55H126.15V113.65L126.25 113.75V113.85H126.15V113.95L125.55 114.35L124.55 115.25L123.75 115.95L122.35 117.05L121.95 117.35L122.05 117.45L122.15 117.55L122.25 117.65L122.35 117.75H122.45H122.55H122.65L122.75 117.85V117.95L122.85 118.05H122.95V118.15V118.25V118.35V118.45V118.55V118.65L123.05 118.75H123.15V118.85H123.25V118.95H123.35V119.05L123.25 119.15L122.85 118.95V119.05V119.35V119.65V120.15V120.25H122.65L122.55 120.45H122.35H122.05L121.85 120.35V120.65L121.75 121.25V121.45V121.55H121.55H121.45H121.35L121.25 121.65H121.35V121.75H121.25V121.85V121.95H121.15H121.05V122.05L121.25 122.35L121.15 122.45V122.55L120.95 122.65H120.85V122.75L120.75 122.85V122.95H120.65V122.85L120.55 122.75H120.45H120.35H120.25H120.15V122.95V123.15V123.35L120.05 123.45L120.35 123.55V123.65V123.85V123.95H120.55V124.05V124.15V124.25H120.65L120.55 124.35H120.65L120.75 124.45H120.85L120.95 124.55L121.05 124.65L121.25 124.75L121.15 124.95V125.05L121.25 125.35L121.45 125.75H121.35L121.15 125.95L121.35 126.25L121.55 126.45V126.55L121.65 126.75L121.75 126.95V127.05L121.65 127.35L121.55 127.55V127.65L121.45 127.75V127.95H121.35V128.05L121.25 128.15V128.25H121.15L121.25 128.45V128.55V128.65H121.35V128.75H121.25V128.85H121.35L121.25 128.95H121.35L121.45 129.15L121.55 129.25L121.65 129.45V129.55V129.85H121.55L121.35 130.05H121.25H121.15H121.05L120.75 130.25V130.15H120.65H120.55H120.45H120.25H120.05L119.95 130.05H119.85H119.75H119.65H119.55H119.45H119.35H119.25H119.15H119.05H118.95H118.85H118.75L118.55 130.15H118.45H118.35L118.15 130.25L118.05 130.35H117.95L117.85 130.45H117.75V130.55H117.65H117.55L117.35 130.65L117.15 130.75L116.95 130.95L116.85 131.05L116.75 131.15L116.35 130.85L116.15 130.75L116.05 130.65L115.95 130.55H115.85H115.65H115.55H115.35V130.65L115.45 131.05L115.65 131.45L115.75 131.65L116.05 132.15L116.15 132.35L116.25 132.55V132.65L116.35 132.75V132.95V133.05V133.15V133.25V133.65L116.25 134.05V134.65L116.15 134.85V134.95V135.15V135.25V135.35V135.55L116.25 135.65V135.75H116.15V135.95L116.05 136.15L115.95 136.25L115.75 136.15V136.35L115.45 136.25V136.35L115.65 136.45L115.85 136.55H115.95V136.75L115.85 136.95V137.05V137.15L115.75 137.25L115.65 137.15L115.55 137.05L115.45 136.95H115.35H115.15H115.05V136.85H114.95H114.85L114.65 136.95H114.55H114.45V136.85V136.65V136.55L114.55 136.35V136.05H114.45L114.25 135.95L114.15 135.85L113.85 135.75L112.65 135.35V135.45L112.55 135.75L112.45 135.95V136.05V136.15V136.25V136.35L112.35 136.45H112.25V136.55H112.15H112.05H111.95L111.85 136.65V136.75L111.75 136.85L111.65 136.95L111.75 137.05L111.85 137.25V137.45V137.55L111.95 137.65H111.85H111.75H111.65L111.45 137.55H111.35L111.25 137.45L111.15 137.55V137.65L111.05 137.85H110.95H110.85V137.75H110.75H110.55V137.85L110.35 137.95L110.25 137.85H110.15H110.05L109.95 137.75H109.85H109.75L109.65 137.65H109.55L109.45 137.75H109.35H109.25L109.15 137.85V137.95H109.05H108.95H108.85L108.75 137.85H108.65H108.55H108.45H108.35H108.25L108.15 137.75H108.05H107.95H107.85L107.75 137.65H107.55H107.45H107.25V137.55L107.15 137.45H107.05L106.95 137.35H106.85H106.75L106.45 137.25H106.35V137.15V137.05V136.95V136.75L106.25 136.55V136.45L106.15 136.35V136.15L105.85 136.05H105.45L104.65 136.15L104.35 136.25L103.95 136.35H103.75L103.55 136.45L103.15 136.55H102.85L102.25 136.75H102.15V136.85H102.05L101.95 136.95L101.65 137.55H101.55L101.85 138.15L101.05 138.55L100.85 138.25L100.65 138.35H100.55L100.35 138.45L100.05 138.55H99.95V138.45V138.35L100.05 138.25V138.15V138.05L99.75 138.25L99.55 138.35L99.45 138.25H99.35H99.25H99.15L98.85 138.35L98.15 138.75L98.05 138.85L97.95 138.75L97.85 138.65L97.75 138.55H97.65L97.55 138.45L97.35 138.55H97.05H96.95L96.85 138.45V138.35H96.75L96.65 138.25V138.35H96.55L96.45 138.45H96.35H96.25H96.15L95.85 138.35L95.65 138.25V138.15V138.05L95.75 137.55V137.25H95.25L95.35 137.05V136.95L95.25 136.85V136.95H95.15L95.05 137.15L94.75 137.05V136.95L94.65 137.05V137.15H94.45V137.25L94.25 137.15H94.15V137.25V137.35L94.05 137.55H93.95H93.85H93.75L93.65 137.45H93.55L93.45 137.35V137.45H93.25L93.35 137.15L93.15 137.05L92.95 136.75V136.65H92.85L92.65 136.55L92.55 136.45V136.35L92.65 136.15L92.75 136.05L93.05 135.95H93.15H93.25L93.45 135.85V135.95H93.55L93.65 136.05V136.15H93.75L94.15 136.25L94.25 136.15L94.45 135.75V135.65L94.65 135.55H94.85V135.65H94.95H95.05H95.15L95.25 135.55L95.45 135.45V135.25H95.35V135.35H95.25L95.15 135.25V135.15V135.05H95.05V134.95V134.85V134.75V134.65V134.35L94.95 134.05L94.85 134.15V134.25H94.75L94.45 134.65L94.35 134.75L94.15 134.65H93.95V134.75L93.85 134.65L93.65 134.55H93.55V134.65L93.25 134.55H93.05H92.95V134.65V134.75V134.85H92.85V135.25H92.45L92.05 135.15H91.95L91.85 135.05V134.95L91.65 134.85V134.75L91.45 134.65H91.15H90.95H90.85L90.75 134.75H90.45H90.25H90.05H89.75H89.55H89.45V134.65H89.55H89.65L89.85 134.55V134.45H89.95H90.05V134.35L90.15 134.25L90.25 134.15L90.05 134.05L89.95 133.95L89.85 133.85H89.75L89.65 133.55L89.35 133.65L89.05 133.85V133.75H88.95L88.85 133.65L88.65 133.45L88.45 133.25L88.35 133.15L88.25 133.05L88.05 132.75L87.95 132.65L87.85 132.55L87.45 132.15L87.35 131.95L87.25 131.85H87.15V131.75H87.05V131.65L86.95 131.55V131.45H86.85L86.55 131.05L86.35 131.15L86.25 130.85V130.75H86.15V130.65H86.05V130.75H85.95H85.85L85.65 130.65H85.55L85.45 130.85L85.25 130.75V131.05L85.45 131.25L85.35 131.35H85.25L85.35 131.45L85.25 131.75L85.05 131.65L84.85 131.85L84.65 132.15V132.25L84.55 132.55V132.65V132.75V132.95V133.05V133.15V133.25L84.45 133.45L84.55 133.55L84.75 133.75V133.85V133.95L84.85 134.05L84.75 134.25H84.65L84.55 134.55L84.45 134.65V134.75V134.85H84.35V134.95H84.25V135.05L83.95 135.35L84.05 135.45H84.15V135.55L83.95 135.75V135.85H83.85L83.65 135.75H83.55V135.65L83.35 135.55L83.25 135.45V135.35V135.25V135.15L83.15 135.05V134.95L83.05 134.75L82.95 134.55V134.45L82.85 134.35L82.75 134.15H82.65H82.55V134.05V133.95H82.45V134.05V134.15H82.35L82.25 134.05L82.15 133.95L81.95 133.85L81.85 133.95L81.75 134.05V134.15L81.65 134.25L81.55 134.35L81.35 134.25L81.25 134.05L81.15 133.95V133.85H80.85L80.75 133.75V133.65H80.65H80.55H80.35H80.25H80.15L79.85 133.55H79.55L79.45 133.75V133.95L79.35 134.25L79.25 134.55L79.15 134.95L78.95 135.75L78.85 136.45L78.75 137.05V137.35L78.65 137.75V137.85V137.95H78.55H78.45L78.55 138.05V138.15H78.65V138.25H78.55L78.25 138.35L77.85 138.45L76.75 138.75L76.65 138.85L75.85 139.15L75.75 139.25L75.65 139.45H75.75L75.85 139.55H75.95V139.65V139.75L75.85 139.85V139.95H75.75L75.65 140.05V140.15L75.45 140.05V139.95L75.25 139.85L75.05 139.75V139.55V139.45H74.95H74.85L74.65 139.35M74.65 139.35H74.55" stroke="white" stroke-width="0.5" stroke-linecap="round" stroke-linejoin="round"/>
</svg>
