<svg width="127" height="135" viewBox="0 0 127 135" fill="none" xmlns="http://www.w3.org/2000/svg">
<path d="M100.65 2.75H100.75L100.65 2.95L100.75 3.05H100.85L101.25 3.25L101.55 3.45L101.85 3.75H101.95L102.05 3.85L102.15 3.95L102.25 4.05V4.15H102.35H102.45H102.55H102.95H103.25H103.85H103.95H104.25L104.75 4.05V4.15H104.85H104.95V4.25H105.15L105.25 4.35H105.35L105.85 4.55L106.25 4.65L105.35 5.95H105.25V6.05H105.15H105.05H104.95H104.85L104.75 6.15L104.55 6.35L104.45 6.45L104.25 6.55L103.85 6.75V7.05V7.15V7.25H103.75V7.35H103.65L103.45 7.55L103.35 7.85L103.25 8.05L103.15 8.15L103.05 8.25L102.95 8.45V8.55V8.75L102.85 8.85V8.95H102.95V9.05V9.25L102.85 9.35V9.45H102.95V9.55V9.65V9.75H103.05V9.85V9.95H103.15V10.05V10.15H103.25H103.35V10.25V10.35V10.45H103.45V10.55L103.35 10.65V10.75V10.85H103.45V10.95H103.35V11.05V11.15H103.25V11.05H103.15H103.05V11.15V11.25H102.95H102.85H102.75V11.35H102.65V11.45V11.55V11.65H102.75V11.75V11.85H102.65H102.55H102.45V11.95H102.55V12.05H102.45V12.15L103.25 12.85V12.95L103.35 13.35H103.45H103.65L103.85 13.65V13.85L103.65 13.95L103.55 14.45L103.45 14.75V15.15H103.35H103.55V15.25H103.65V15.35H103.75H103.85H103.95V15.25L104.15 14.95L104.35 14.85V14.75H104.45L104.55 15.05L104.65 15.35L104.75 15.45L104.85 15.65L104.95 15.85L105.05 16.05H104.95L104.75 16.65L104.65 16.95V17.15V17.25V17.35H104.55L104.45 17.45V17.55H104.35V17.65V17.75L104.25 17.85L104.15 17.95V18.05H104.05V18.15V18.25L104.15 18.35V18.55L104.25 18.65V18.85V18.95H104.15L104.05 19.15L103.85 19.35L103.55 19.65L103.45 19.75V19.85L103.35 19.95L103.45 20.05V20.15V20.25V20.35V20.45V20.55V20.65V20.75V20.85H103.35V20.95V21.05V21.15H103.25V21.25H103.15V21.35H103.05H102.95V21.45H102.85H102.75V21.55V21.65V21.75H102.85V21.85V21.95V22.05H102.95V22.15H102.85V22.25L102.75 22.35V22.45V22.55H102.65V22.65V22.75H102.55H102.45H102.35V22.85H102.25H102.15V22.95V23.05H102.25V23.15V23.25V23.35V23.45L102.05 23.75V23.85H101.95V23.95H101.85V24.05V24.15V24.25V24.35L101.75 24.45V24.55H101.65V24.65L101.55 24.85L101.45 24.95V25.05L101.35 25.35L100.75 25.25L100.35 25.15L100.25 25.35L99.95 26.15L99.85 26.35L99.75 26.75L99.25 26.55V26.05L97.55 26.15V27.05L97.45 27.55L98.05 27.35L97.95 27.15L98.65 26.75L98.75 27.35L98.95 27.95L99.05 28.45L99.45 28.35L99.95 28.25L100.05 28.65V29.15L100.15 29.25H100.25L100.55 29.55L100.95 30.15H101.05L100.95 30.35L100.85 30.85L100.75 31.45L100.65 31.75L100.55 31.85H100.45H100.35H100.25H100.15V31.95H100.05L99.85 32.15L99.65 32.35L99.55 32.45L99.15 33.65L99.35 33.75L99.65 33.85L99.95 34.05L100.05 34.15L100.35 34.25L100.55 34.45H100.65L100.75 34.55V34.75V34.85L100.65 34.95V35.05H100.45L100.05 35.25L98.45 35.75L98.65 36.75L99.95 36.55L100.65 36.45L101.45 36.25L101.05 37.35H101.35H101.45H101.85H102.05L101.85 38.25L101.75 38.65H101.95L102.55 38.55H102.75L102.85 38.45H102.95V38.55L103.05 39.25L103.25 41.35L102.75 41.85L102.85 42.25L103.05 42.75L103.15 43.45L103.25 43.55L103.65 43.45L103.85 43.95L104.35 43.75L104.95 44.05L105.35 44.55V45.25L105.45 45.45V45.65L106.05 45.45L106.15 45.65V45.85V45.95L106.05 46.05H105.95L106.15 46.25H106.05H105.95L105.75 46.35L105.95 46.85L106.15 46.75V46.55L106.55 46.35V46.45H106.65H106.75H106.85V46.55H106.95H107.15V46.15L106.85 45.85L107.05 45.55L107.15 45.45L107.25 45.25L107.15 44.95H108.55H108.95L108.85 45.45L108.75 45.95V46.05V46.45L108.95 46.55L110.05 47.05L110.45 46.65L110.95 46.85H111.05L111.35 46.95L111.75 46.65L112.25 46.25L112.55 45.95L112.65 46.05V46.15L112.75 46.25L112.85 46.45L112.95 46.65L113.05 46.75L113.15 46.85V46.95H113.05V47.05V47.15H112.95V47.05H112.85V47.15H112.75V47.25L112.65 47.15L112.55 47.25H112.45V47.35V47.45V47.55V47.65H112.35V47.75H112.45V47.85H112.55H112.65H112.75V47.95V48.05H112.65V48.15L112.55 48.35L112.45 48.45L112.55 48.55L112.35 48.95V49.05H112.25V48.95H112.15V49.05V49.15V49.25H112.05V49.35V49.45H112.15V49.55L112.45 49.65L112.55 50.25H112.65H112.75V50.35H112.85V50.25H112.95V50.35H113.05V50.45H112.95V50.55L113.05 50.65H113.15V50.55H113.25V50.65V50.75V50.85L113.15 51.05V51.15V51.25L113.35 51.35L113.45 51.45L113.55 51.55L113.75 51.45V51.35H113.85H113.95V51.45H113.85V51.55H113.95V51.45H114.05V51.55H114.15H114.25V51.65H114.15V51.75H114.25H114.35V51.65V51.55H114.45V51.65V51.75H114.55H114.65V51.85L114.75 51.75V51.85H114.85V51.95H114.95V52.05V52.15L114.85 52.25L114.75 52.55V52.65H115.15H115.25L115.35 52.55H115.45V52.65H115.35V52.75H115.45V52.85H115.35H115.25V52.95H115.35H115.45L115.35 53.05V53.15H115.45L115.65 52.95H115.85H115.95V53.05V53.25L115.85 53.35V53.45L115.75 53.65H115.85L115.95 53.75L116.05 53.55H116.15V53.65L116.25 53.75L116.35 53.85V53.95H116.45H116.55H116.65H116.75H116.85V54.05V54.15H116.95V54.05H117.05V54.15H116.95V54.25V54.35H117.05V54.45H117.15V54.55V54.65H117.25H117.35V54.75H117.45H117.55V54.85H117.65V54.95H117.75V54.85H117.85V54.75H117.95V54.85L117.85 54.95H117.75V55.05H117.65L117.75 55.15H117.85V55.25V55.35L117.75 55.25H117.65L117.55 55.35V55.45H117.65V55.35H117.75V55.45H117.85V55.55V55.65H117.75H117.65V55.75H117.75V55.85H117.85H117.95V55.95H117.85V56.05H117.75H117.65V55.95H117.55L117.65 56.05V56.15V56.25V56.35H117.75V56.45V56.55H117.85V56.45L117.95 56.35V56.45V56.55L118.05 56.65V56.75L118.15 56.85V56.95H118.25H118.35H118.45V57.05V57.15V57.25H118.35V57.35V57.45V57.55H118.45L118.35 57.65L118.25 57.75H118.35V57.85V57.95H118.25V58.05V58.15H118.35V58.25V58.35V58.45H118.45L118.65 58.55H118.75H119.05L119.65 58.65H119.75L120.25 58.75L120.75 58.85H120.85L121.05 59.05L121.35 59.35L121.55 59.65L121.75 59.85L121.95 60.05L122.25 60.35L122.45 60.55L122.65 60.75L122.95 61.05L123.05 61.15L123.25 61.45L123.55 61.75L123.75 61.95L123.95 62.25H124.05V62.35V62.45L124.15 62.55H124.25V62.65L124.35 62.75L124.45 62.85V62.95L124.35 63.05H124.25H124.15V63.15V63.25H124.05H123.95V63.35H124.05V63.45V63.55V63.65H124.15V63.75V63.85L124.25 63.95L124.35 64.05V64.15V64.25H124.45L124.55 64.35L124.65 64.45V64.65L124.55 64.75V64.85V64.95L124.45 65.15V65.25L124.35 65.35L124.15 65.55L124.05 65.65L123.65 65.75H123.45H123.35L123.25 65.95H123.15L123.05 66.05H122.95L122.85 66.15H122.75H122.65L122.55 66.25L122.45 66.35H122.35L122.25 66.45L121.95 66.55L121.65 66.65L121.55 66.45V66.35V66.25L121.45 65.85L121.05 65.95H120.95H120.75V66.75V67.25H120.55H120.05H119.95L119.65 67.05H119.55H119.35H119.15H119.05L118.45 67.35V67.45L118.25 67.55H118.15L117.95 67.95V68.05V68.15H118.05L118.15 68.25L118.25 68.45L118.35 68.55L118.45 68.65L118.55 68.75V68.85V69.35L118.45 69.45V69.55H118.35H118.25V69.65V69.75H118.35V69.85V69.95V70.05V70.15L118.25 70.35L118.15 70.25V70.35L118.25 70.45H118.35H118.45L118.75 70.55L119.05 70.65H119.25L119.35 70.75H119.45H119.65L119.75 70.85H119.85H119.95L120.05 70.95H120.15L120.25 70.85H120.35H120.45H120.55H120.65H120.75H120.85H120.95L121.15 70.75L121.35 70.65L121.65 70.55L121.95 70.45L122.15 70.65L122.75 71.05L123.25 71.35L123.65 71.65L124.15 71.95L124.75 72.45L125.35 72.85L125.65 73.05L125.75 73.45V73.65L125.85 73.75V73.95V74.05L125.95 74.25L126.05 75.05L126.25 75.55L126.35 76.05V76.35L126.45 76.45V76.75H126.15H125.95H125.55L125.35 76.95V77.15H125.25L125.15 77.45L125.05 77.85V77.95L125.15 78.55V78.65L125.25 78.85V79.25V79.35L125.15 79.45H125.05H124.95H124.85L124.75 79.35H124.55L124.45 79.45H124.35L124.25 79.55H124.15L124.05 79.45H123.95H123.85H123.75V79.35H123.65H123.55H123.45V79.45H123.35H123.25L123.15 79.55H123.05H122.95V79.65H122.85H122.75V79.75H122.65H122.55V79.85H122.45H122.35L122.25 79.95H122.15V80.05H122.05H121.85H121.75H121.55H121.35L121.25 79.95H121.15H121.05L120.95 80.05H120.85H120.75V80.15L120.65 80.25H120.55H120.45H120.35H120.25H120.15L120.05 80.35H119.95L119.45 80.55H119.35L119.65 80.85L120.85 82.05L120.95 82.15L121.15 82.35L121.05 83.45L120.95 84.15L120.85 85.55L120.75 86.35V86.95L120.65 87.45V87.85L121.05 88.15H121.15L121.35 88.05V87.95L121.45 87.85H121.55H121.75L121.85 87.95V88.05L121.95 88.15L122.05 88.25L122.15 88.35L122.35 88.45L122.55 88.75H122.65L122.75 88.85L122.65 88.95L122.95 89.05V89.15V89.25V89.35V89.45V89.55V89.65V89.75H123.05V89.85H122.95H122.85H122.65V89.95L122.55 89.85V89.95V90.05L122.45 90.15V90.25H122.55V90.45L122.45 90.35V90.45L122.35 90.55V90.75V90.85V91.05V91.15V91.25L122.25 91.35L122.15 91.45L122.05 91.35H121.95H121.85L121.75 91.25H121.65V91.35L121.55 91.25H121.45V91.35H121.35V91.45H121.25L121.05 91.55H120.85L120.75 91.45L120.65 91.35H120.75L120.65 91.25H120.55H120.45H120.35H120.25V91.35H120.15H120.05V91.45H119.95H119.85V91.35H119.75V91.25V91.15H119.65V91.05H119.55H119.45H119.35H119.25H119.15V91.15H119.05V91.25H118.95V91.15H118.85V91.05V90.95V90.85L118.75 90.75H118.65V90.85H118.55V90.95H118.45V91.05L118.35 90.95H118.25H118.15V90.85H118.25L118.15 90.75H118.05H117.95H117.85H117.75V90.65H117.65V90.75H117.55H117.45V90.65H117.35H117.25V90.55H117.15V90.65H117.05V90.75H116.95H116.85H116.75H116.65V90.65V90.55H116.55H116.45V90.65H116.35V90.75V91.15L116.45 91.55V91.85L116.15 92.05L115.95 92.25L115.65 92.85V92.95L115.55 93.05V93.15V93.25V93.55V93.65V93.85L115.45 94.15H115.35V94.25V94.45V94.55V94.65V94.85V95.15V95.35V95.65V95.95V96.05L115.25 96.15V96.25V96.35H115.15V96.45L115.05 96.65V96.75H114.95L114.85 96.85L114.65 97.55V97.65V97.75V97.85V97.95V98.05H114.55L114.65 98.15V98.25V98.35V98.45V98.55L114.75 98.75V98.95V99.05L114.85 99.15V99.35V99.45L114.75 99.55V99.75H114.85V99.85L114.95 99.95L114.85 100.05V100.25V100.35H114.95V100.45V100.55H114.85V100.65V100.75H114.75V100.95V101.05H114.65V101.15V101.25H114.55V101.35V101.45V101.55V101.65V101.75V101.85V101.95V102.05H114.45V102.15H114.35V102.25L114.25 102.35L114.15 102.45V102.55H114.05L113.95 102.65L113.85 102.85L113.75 102.95H113.65V103.05V103.15L113.55 103.25V103.35V103.45V103.55L113.45 103.65L113.25 103.95L113.15 104.15L113.05 104.25L112.95 104.35L112.85 104.45L112.75 104.55L112.55 104.75L112.45 104.95L112.35 105.05L112.25 105.15L112.15 105.35L112.25 105.55V105.75H112.35L112.45 105.85L112.55 105.95V106.05H112.65V106.15L112.85 106.25L112.95 106.35L113.05 106.45L113.15 106.55L113.05 106.75L112.95 106.85L112.75 107.15L112.55 107.35L112.45 107.45H112.35H112.25V107.35L112.15 107.25V107.15H112.05V107.05H111.95V106.95V106.85H111.85L111.95 106.55V106.45L111.85 106.35L111.75 106.15V106.05V105.95H111.65V105.85L111.55 105.75V105.55L111.45 105.45L111.35 105.35V105.15L111.25 104.95L111.15 104.85V104.75L111.05 104.65L110.95 104.55V104.45L110.85 104.25L110.75 104.05L110.65 103.85V103.75V103.65L110.75 103.55H110.25L109.95 103.25L109.65 102.95L109.25 103.05V103.15H109.15H109.05V103.25H108.85H108.75H108.65L108.55 103.35H108.45H108.35H108.25L108.15 103.45L108.05 103.55H107.95L107.75 103.45H107.65H107.55H107.45L107.35 103.35H107.25H107.15H107.05H106.95H106.85H106.75H106.55H106.45H106.35V103.25V103.15V103.05V102.95V102.75H106.45H106.55L106.65 102.65H106.75V102.55H106.85H106.95V102.45H107.05L106.95 102.35V102.25H106.85H106.75V102.15L106.65 102.05L106.55 101.95L106.45 101.85V101.75H106.35V101.65H106.25V101.55V101.45V101.35L106.15 101.25V101.15L106.05 101.05H105.95H105.85L105.75 100.95V100.85L105.65 100.75H105.75H105.85V100.65V100.45L105.75 100.15L105.65 99.45V99.15L105.25 99.25L104.95 99.35L104.65 99.45H104.45L104.05 99.55L103.75 99.65L103.35 99.75L102.95 99.85H102.85H102.75L102.35 99.95H102.25H102.15H102.05L101.95 99.85H101.85H101.75H101.65H101.55L101.45 99.75H101.35H101.25H101.15H101.05V99.85H100.95H100.85V99.95H100.75V100.05V100.15L100.85 100.25V100.35V100.45V100.65V100.75V100.85V100.95V101.05L100.95 101.15V101.45H100.85H100.75V101.35H100.65V101.25L100.55 101.15L100.45 101.05H100.35H100.25H100.15H100.05H99.95H99.85V101.15H99.75V101.25H99.65V101.35H99.55V101.45H99.45V101.55H99.35V101.65H99.25H99.15L99.05 101.75L98.95 101.55L98.55 101.75L98.35 101.85L98.05 101.95L97.85 102.05L97.65 102.15L97.45 102.25H97.35H97.25H97.15H97.05V102.35H96.95H96.85H96.65H96.45L96.25 102.45L96.15 102.55L95.95 102.65L96.05 102.75L95.45 102.95L95.25 103.05H95.15L94.75 103.25H94.65H94.55V103.15V103.05V102.95H94.45V102.85L94.35 102.75V102.65H94.25L94.05 102.85L93.95 102.95L93.75 103.15L94.05 103.55L93.75 103.85L93.65 104.05H93.55H93.45H93.35H93.25H93.15L93.05 103.95H92.95L92.85 103.85H92.75H92.65L92.55 103.95V103.85H92.45V103.75H92.35H92.25H92.15H92.05H91.95H91.85H91.75H91.65H91.55V103.65H91.45H91.35V103.55H91.25L91.15 103.65V103.55H91.05V103.45H90.95V103.35H90.85H90.75V103.25H90.65V103.15V103.05H90.55V102.95V102.85H90.45V102.75H90.35L90.45 102.65H90.35V102.55V102.45H90.25V102.35V102.25H90.15V102.15H90.05V102.05V101.95L89.85 102.15L89.75 102.25V102.35L89.65 102.45H89.55V102.55H89.65H89.75H89.85V102.65L89.95 102.75L90.05 102.85V102.95H90.15V103.05V103.15V103.25V103.35V103.45L90.25 103.55V103.65H90.15V103.75H90.25V103.85L90.15 103.95V103.85H90.05V103.95V104.05H90.15V104.15V104.25V104.35V104.45L90.05 104.55V104.65H89.95L89.85 104.75V104.85H89.75V104.95H89.65H89.55H89.45H89.35V104.85H89.45V104.75H89.35H89.25V104.85H89.15H89.05H88.95V104.95H88.85V105.05H88.75V105.15H88.65V105.25V105.35H88.55V105.25V105.15H88.45H88.35V105.25V105.35V105.45H88.45V105.55H88.35V105.65V105.75V105.85H88.45H88.55V105.95H88.65V105.85V105.75H88.75V105.65H88.85H88.95L88.85 105.75V105.85V105.95H88.95V106.05L89.25 106.25L89.35 106.35H89.45H89.55H89.75V106.45L89.65 106.55H89.75H89.85H89.95L90.05 106.65V106.75H89.95V106.85V106.95V107.05V107.15H90.05V107.25H89.95V107.35V107.45L90.05 107.55L90.15 107.65H90.25V107.75V107.85H90.35H90.45V107.75H90.55H90.65H90.75V107.85H90.85V107.95H90.95L91.05 108.05V108.15L90.95 108.25H90.85V108.35H90.75V108.45H90.65H90.55H90.45H90.35V108.35H90.25H90.15H90.05H89.95V108.25V108.15H89.35V108.25H89.25L88.95 108.35L88.85 108.25H88.75H88.45H88.35H88.25V108.15V108.05V107.95H88.05H87.85H87.75L87.65 108.05H87.55H87.45H87.35H87.15L87.05 107.95L86.95 107.65L86.85 107.45L86.75 107.35L86.65 107.25L86.55 107.15V107.05L86.45 106.95V106.85L86.35 106.75L86.25 106.65H86.15H86.05H85.95H85.85H85.75H85.55H85.35V107.15V107.55V107.95V108.05L85.75 108.25H85.85L85.75 108.35V108.45V108.55V108.65V108.75H85.85H85.95V108.85L86.05 109.05V109.25L85.95 109.35V109.55V109.65V109.85L85.75 110.55V110.65L86.05 110.55L86.35 110.45L86.75 110.35V110.55V110.65V110.95L86.85 111.35V111.55L86.75 111.75L86.65 112.15L86.55 112.45H86.45H86.35V113.15V113.25V113.35H86.25H86.15V113.45H86.05V113.55H85.95V113.65H85.85V113.75V113.85L85.75 113.95H85.65H85.55H85.35H85.25H85.15L85.05 114.05H84.95H84.85H84.75L84.65 114.15H84.55H84.45V114.25H84.35V114.35H84.25H84.15H84.05H83.95H83.65L83.55 114.45V114.35H83.25H83.15H83.05H82.95L83.05 114.05H82.95L82.85 113.95H82.75L82.65 113.85H82.55H82.45V113.75H82.25H82.15H82.05H81.95H81.65H81.45H81.15L80.95 113.65H80.85H80.65H80.55H80.45H80.35L80.25 113.55H80.15V113.45V113.35V113.25V113.15L80.25 113.05V112.95H80.15H79.95H79.75H79.65L79.55 113.05H79.45H79.25H79.15H79.05H78.95L78.75 113.15H78.55L78.35 113.25H78.25H78.15L77.95 113.15H77.85H77.65H77.55H77.45H77.35V113.05H77.15V112.95H77.05L76.95 112.85V112.75H76.85V113.15V113.35V113.45L76.75 113.55V113.75V113.85H76.65V113.95L76.55 114.05L76.75 114.35V114.45V114.55V114.65V114.75H76.85V114.85H76.95L77.05 114.95H77.15L77.25 115.05H77.35L77.45 115.15H77.55L77.65 115.25H77.75H77.85V115.35H77.95L78.05 115.55L78.15 115.65L78.25 115.75V115.85H78.35V115.95V116.15L78.45 116.25H78.55V116.35H78.65V116.45V116.55V116.65V116.75H78.75V116.85L78.85 116.95L78.75 117.05V117.15L78.65 117.35V117.65V117.75V118.05V118.15V118.35L78.55 118.45L78.45 118.55V118.65V118.75L78.35 118.95V119.15L78.25 119.25V119.35V119.45V119.55L78.15 119.65L78.05 119.55H77.95V119.45V119.35H77.85H77.75L77.65 119.25L77.55 119.35V119.45V119.55H77.45H77.35L77.25 119.45H77.15H77.05L76.85 119.35H76.75L76.55 119.25H76.45H76.35H76.25H76.05H75.95L75.85 119.35H75.75V119.25H75.65L75.55 119.15H75.45L75.35 119.05H75.25V118.95H75.15H75.05H74.95H74.85L74.95 119.05L75.05 119.15L75.15 119.25L75.25 119.35H75.35V119.45H75.45H75.55V119.55H75.65H75.75H75.85L75.95 119.65L76.25 119.75H76.35L76.45 119.85L76.65 119.95L76.75 120.05H76.85H76.95V120.15H77.05H77.15H77.25H77.35H77.45H77.55L77.65 120.05V120.15V120.25V120.35V120.45V120.55V120.65L77.55 120.75H77.75H78.15L78.25 121.15V121.25V121.35H78.15V121.45L78.05 121.55V121.65H77.95V121.75L77.85 121.65H77.75V121.75V121.85V121.95H77.65H77.55V122.05V122.15V122.25V122.35H77.65V122.45V122.55V122.65V122.75H77.75V122.65H77.85H77.95V122.75H78.05V122.65H78.15V122.75H78.25H78.35V122.65H78.45H78.55H78.65L78.55 122.75H78.65V122.85H78.55V122.95H78.65V123.05H78.55V123.15H78.65V123.25H78.75V123.35L78.85 123.45H78.95H79.05V123.55H79.15L79.05 123.65V123.75H79.15V123.85H79.05V123.95H79.15V124.05V124.15H79.25V124.25V124.35V124.45V124.55V124.65V124.75H79.35V124.85H79.25H79.15V124.95V125.05V125.15V125.25H79.25V125.35H79.35V125.45H79.45V125.35H79.55V125.45V125.55L79.65 125.45V125.35H79.75V125.25H79.85H79.95H80.05H80.15H80.25L80.35 125.35H80.45V125.45H80.55H80.65V125.55H80.75L80.85 125.65V125.75V125.85V125.95H80.95H81.05V126.05H80.95V126.15H81.05V126.25H80.95V126.35V126.45H81.05L81.15 126.35H81.25V126.45H81.15L81.05 126.55H81.15V126.65V126.75V126.85V126.95V127.05H81.05V126.95H80.95V127.05H81.05V127.15H80.95V127.25L80.85 127.35V127.45H80.95V127.55H80.85V127.45H80.75V127.55V127.65H80.65V127.75H80.55H80.45V127.85H80.35V127.75H80.25H80.15V127.85H80.05V127.75H79.95H79.85V127.85V127.95H79.75H79.65V127.85V127.75L79.75 127.65H79.65V127.55H79.55V127.45V127.35H79.45V127.25H79.35V127.15V127.05V126.95V126.85V126.75H79.25H79.15V126.65V126.55H79.05H78.95H78.85H78.75L78.85 126.65V126.75V126.85H78.75H78.65L78.75 126.95V127.05H78.65H78.55V127.15H78.45H78.35V127.25H78.25H78.15L78.05 127.15V127.25H77.95H77.85V127.35H77.75L78.05 127.65L77.95 127.85L77.85 127.95L77.95 128.05L78.05 128.15V128.25L78.15 128.45L78.25 128.65V128.75L78.15 128.95L77.95 129.25V129.35H78.05L78.15 129.45H78.25L78.35 129.55H78.45V129.65L78.55 129.75L78.75 129.95L78.95 130.25L79.05 130.35H78.95L78.85 130.45L78.65 130.55L78.35 130.75L78.05 130.85L77.95 130.95L77.75 131.05L77.15 131.35L77.25 131.55V131.75V131.85L77.15 131.95H77.05H76.75H76.55L76.35 131.85H76.15V132.45L76.05 132.35V132.85L75.65 132.75L75.75 132.95V133.25H76.05H76.25L76.35 133.85L75.85 133.65L75.65 133.55H75.55H75.35L74.95 133.45H74.65L74.55 133.35H74.35L74.25 133.25L74.05 133.05L73.95 132.95H73.85L73.75 132.85H73.65H73.55L73.45 132.75V132.65V132.55H73.35V132.45H73.25V132.35H73.35V132.25V132.15V132.05V131.95H73.45V131.85V131.75H73.35V131.65V131.55V131.45H73.45V131.35V131.25H73.55V131.15H73.45V131.05H73.55V130.95H73.65V130.85L73.55 130.75H73.65V130.65V130.55V130.45V130.35V130.25H73.55V130.15H73.45L73.35 130.05V129.95H73.45V129.85V129.75V129.65H73.55H73.65V129.55H73.55V129.45H73.45H73.35H73.15H72.95H72.85H72.75V129.35H72.65L72.55 129.25H72.45H72.35H72.25H72.15H72.05H71.95H71.85V129.35H71.75L71.65 129.45H71.55L71.45 129.55L71.35 129.45L71.25 129.25L71.15 129.15L71.05 129.05L70.95 128.95L70.85 128.85L70.65 128.65L70.45 128.45L70.35 128.35L70.25 128.25H70.15L70.05 128.15V128.05L69.95 127.95L69.75 127.75L69.55 127.65V127.55H69.45V127.45H69.35V127.35H69.25V127.25L69.05 127.15L68.85 126.95L68.75 126.75L68.65 126.65L68.55 126.55L68.45 126.45L68.35 126.35H68.25V126.25H68.15V126.15L68.05 126.05V125.95H67.95V125.85H67.85L67.75 125.75H67.65L67.55 126.05V126.15L67.45 126.25V126.35H67.35L67.25 126.45L67.05 126.65L67.25 126.95L67.35 127.05L67.45 127.15L67.55 127.55V127.75V127.85V127.95V128.05V128.25V128.45V128.55L67.45 128.85V129.05V129.25L67.25 129.15H66.95H66.85H66.75V129.25H66.65H66.55V129.15H66.45H66.35H66.25H66.15V129.25H66.05H65.95H65.85H65.75H65.55L65.35 129.15H65.15H65.05L64.95 129.25H64.85V128.95L64.95 128.65V128.45V128.15H64.85H64.15H63.95H63.85L63.75 128.35L63.65 128.45V128.55H63.55V128.75V128.95V128.85H63.45L63.35 128.75H63.25H63.15H63.05H62.85L62.75 128.85H62.65H62.35L62.15 128.95H61.95H61.85H61.65H61.45L61.25 129.05H61.15H61.05H60.95V129.15H60.85H60.65H60.55H60.45H60.35V129.25H60.25H60.15L60.05 129.15H59.95L59.85 129.25V129.35V129.45H59.75L59.35 129.85L58.75 129.75H58.35H58.15L57.85 129.65H57.25L57.05 129.55H56.75L56.25 129.45H56.15L56.25 129.35V129.05V128.75V128.45L56.35 128.35L56.25 128.25L56.35 127.95L56.45 127.65V127.55L56.55 127.45V127.35V127.15V127.05V126.95L56.45 126.85L56.35 126.75L56.25 126.55L56.05 126.45L55.95 126.35L55.85 126.25V126.15L55.55 126.05L55.45 125.95L55.25 125.85L55.15 125.75H55.05V125.65L54.75 125.45L54.55 125.35L54.35 125.15L54.25 125.05H54.15H54.05V124.95H53.95H53.85H53.75V124.85H53.65L53.55 124.95V124.85H53.35H53.25L53.15 124.75V124.65H53.05V124.55L53.15 124.35V124.25V124.15H53.05V124.05H52.95H52.85L52.75 124.15H52.65L52.55 124.25H52.45H52.35H52.25H52.15H52.05H51.95H51.85H51.75H51.65H51.55V124.15H51.45H51.35H51.25H51.15H51.05L50.95 124.05H50.85L50.75 123.95H50.65H50.55H50.45L50.35 123.85H50.25V123.65V123.45V123.35L50.35 122.85V122.55V122.35V122.25V122.15V122.05V121.95V121.85V121.75V121.45V121.25V121.15V120.95V120.75V120.65V120.55L50.45 120.45H50.35H50.25H50.15H50.05V120.35H49.95V120.25V120.15H49.85V120.05L50.35 119.65V119.15V118.95V118.75V118.65H50.25L50.15 118.55H50.05V118.45V118.35V118.25H49.95V118.15L50.05 117.95H49.95V117.85L49.85 117.55L49.95 117.45H50.05L50.15 117.35H50.25V117.25V117.15H50.15H50.05V117.05H49.95H49.85L49.75 116.95V117.05V117.15L49.85 117.25V117.35V117.45V117.55H49.75L49.65 117.65H49.55V117.75H49.45H49.35H49.25H49.15H49.05V117.85H48.95H48.85H48.75H48.65H48.55V117.55H48.15V117.45V116.85V116.75V116.55L48.25 116.45V116.35H48.35V116.25V116.15V116.05H48.25V115.95L48.15 115.75V115.65V115.55H48.05V115.45H47.95V115.35V115.25L47.85 115.15V115.05V114.95V114.85V114.75V114.55V114.45V114.35L47.75 114.25V114.15H47.65V114.05L47.55 113.95L47.45 113.85V113.75L47.35 113.65V113.55L47.25 113.45V113.35V113.25H47.15L47.05 113.15L46.95 113.05L46.85 112.95H46.75L46.65 112.85L46.25 112.55H46.15H46.05H45.85H45.75H45.65L45.45 112.65L45.35 112.75V112.85L44.85 112.95H44.75L44.65 113.05L44.55 113.15H44.45V113.25H44.35L44.25 113.35V113.45H44.15L44.05 113.55L43.85 113.65H43.75V113.75H43.65H43.55H43.45L43.35 113.85L43.25 113.75H43.15H43.05L42.95 113.85H42.85V113.75H42.75L42.65 113.65H42.55L42.45 113.55L42.35 113.45H42.25L42.15 113.35H42.05V113.25H41.95V113.15H41.85L41.75 113.05V112.95H41.65V112.85H41.55L41.45 112.75H41.35V112.65H41.25V112.55L41.15 112.45V112.35H41.05H40.95V112.25H40.85H40.75H40.65V112.15V112.05L40.55 111.95V111.85V111.75L40.45 111.55V111.45L40.55 111.35L40.45 111.25L40.35 111.15H40.25V111.05L40.45 110.85H40.55L40.65 110.75L40.85 110.55V110.45V110.35H40.95V110.25L41.05 110.15L40.95 110.05H40.85V109.95H40.65L40.55 109.85H40.45L40.35 109.75L40.25 109.65V109.55L40.15 109.45V109.35V109.25L40.05 109.15L39.95 109.05L39.75 108.85L39.65 108.65V108.55L39.35 108.35V108.45L39.25 108.55L39.15 108.65L39.05 108.75L38.95 108.85V108.95H38.75L38.55 109.15H38.45V109.25V109.35H38.35V109.25H38.25H38.15L38.05 109.15H37.95H37.85H37.75H37.65H37.55H37.25H37.15H37.05H36.95L36.75 109.05H36.55L36.45 109.15H36.55V109.25L36.65 109.65L36.45 110.05V110.15L36.35 110.35L36.25 110.45V110.55V110.65V110.75V110.85V110.95V111.05V111.15H36.15V111.25H36.05H35.95H35.85V111.15H35.75H35.65L35.45 111.05H35.35H35.25H35.15L35.05 111.15H34.95L34.85 111.05H34.75L34.65 110.95H34.55H34.45H34.35L34.25 110.85H34.15H34.05V110.75H33.95H33.85L33.75 110.65H33.65L33.55 110.55H33.45L33.35 110.65H33.25H33.15H33.05V110.55H32.95H32.85H32.75H32.65H32.55H32.45L32.35 110.45H32.25H32.15V110.35H32.05V110.25H31.95V110.35H31.85H31.75V110.25V110.15H31.65V110.05H31.55L31.45 109.95H31.35V109.85V109.75H31.45H31.55V109.65H31.45H31.35V109.55H31.25H31.15V109.65V109.75H31.05H30.95H30.85V109.65V109.55V109.45H30.95V109.35V109.25H30.85H30.75V109.15H30.85V109.05H30.75V108.95V108.85H30.65V108.95H30.55V108.85H30.65V108.75H30.55H30.45V108.65V108.55H30.55V108.45H30.45H30.35H30.25V108.35H30.35H30.45V108.25V108.15V108.05H30.35V107.95H30.25H30.15V108.05H30.05V107.95L29.95 107.85V107.75H29.85V107.65H29.75V107.75V107.85L29.65 107.95V107.85H29.55V107.75V107.65V107.55H29.45V107.65V107.75H29.35V107.65H29.25V107.55H29.15H29.05V107.65V107.75H28.95V107.65V107.55H29.05V107.45V107.35H28.95V107.25H29.05V107.15H28.95L28.75 107.25V107.15L28.85 107.05H28.95L28.85 106.95H28.75V106.85H28.85V106.75H28.75V106.65H28.65H28.55H28.45V106.55H28.55H28.65L28.75 106.65H28.85L28.95 106.55V106.45H28.85V106.35V106.25H28.75V106.35H28.65V106.25V106.15H28.55V106.05H28.45H28.35V105.95H28.25V105.85V105.75V105.65H28.15V105.75V105.85V105.95L28.05 105.85V105.75V105.65H27.95H27.85V105.55H27.95V105.45H28.05V105.35H27.95V105.45H27.85V105.55V105.65H27.75V105.55V105.45V105.35V105.25L27.65 105.35H27.55V105.45V105.55V105.65H27.45H27.35V105.55H27.25V105.45V105.35H27.15V105.45V105.55V105.65H27.05V105.55V105.45H26.95H26.85H26.75V105.35V105.25H26.65V105.15H26.55H26.45V105.25L26.35 105.35H26.25V105.25H26.15H26.05V105.35V105.45H26.15H26.25V105.55H26.35V105.65H26.25H26.15H26.05L25.95 105.75H26.05V105.85H25.95L25.85 105.95V106.05H25.75V106.15H25.65V106.25H25.55V106.35H25.45L24.65 104.35V104.15L24.45 103.85L24.35 103.55V103.35L24.25 103.25V103.05L23.95 101.85L24.25 100.05L23.95 99.95L22.95 99.75L22.85 99.65H22.75L22.65 99.55L21.55 98.85L21.15 98.25V98.15L21.05 98.05L20.85 97.65L20.95 97.35L21.15 97.05V96.95L21.35 96.45L21.45 96.35V96.25V95.75H21.25L20.05 95.55L18.85 95.05L18.45 94.45L18.15 94.05V93.65V93.45L18.05 92.45L18.65 91.15L19.25 90.65L19.85 90.25L21.25 90.05L22.55 90.85L23.55 90.35H24.05H24.15H24.35H25.25L26.75 90.05L27.45 88.65L27.35 88.55L26.85 87.75L26.75 87.65L26.35 87.45V87.35L25.85 87.15L25.75 87.05L25.05 86.65L23.45 85.75L22.85 85.45L22.55 85.25L19.15 82.15L18.35 80.85L18.15 79.85L18.05 79.15L17.95 78.45L17.35 77.55L16.75 77.15L16.15 76.95L15.75 76.55L15.95 75.95V75.45L15.35 72.15L14.95 71.05L13.55 68.95L13.15 68.15V68.05L12.95 67.65L12.85 67.35L13.05 66.75V66.65L13.55 66.35L13.85 66.25L13.55 65.65L13.35 65.25L12.75 64.65L12.55 64.45L12.35 64.25L12.25 64.15L12.15 64.05L10.95 62.75L10.75 62.65L9.75 62.05L9.14999 61.65L8.35 61.15L7.45 60.05L7.25 59.75L7.05 59.45L6.45 58.25L6.35 57.95L4.65 54.15L4.45 53.65L3.55 53.05H2.65H2.55L1.75 52.65L1.45 50.95L1.75 49.85L2.45 48.65L3.25 47.75L3.35 47.65L3.55 47.55L3.95 47.45L4.25 47.35L4.15 47.25V47.15L4.05 46.75V46.65L3.95 46.25V45.65V45.45L4.05 45.25L4.15 45.15L4.25 45.05L4.35 44.85L4.95 44.55L4.55 43.65L2.95 41.35L2.55 40.65L2.45 40.55V40.45L2.35 40.15H2.45H2.55H2.65H2.75V40.05H2.85L2.95 39.95V39.85V39.75H3.05V39.65H3.15L3.25 39.55H3.35V39.45V39.35V39.25V39.15H3.45H3.55V39.25H3.65H3.75H3.85V39.15V39.05L3.75 38.95H3.65V38.85L3.55 38.75V38.65H3.65V38.55L3.55 38.45V38.35V38.25V38.15H3.45H3.35V38.05H3.25L3.15 37.95L3.25 37.85H3.15V37.75L3.05 37.65L2.95 37.55V37.65H2.85H2.75V37.75V37.85V37.95H2.65H2.55H2.45L1.85 37.75V37.65V37.55H1.75H1.65H1.55L1.45 37.45V37.35H1.35V37.25H1.25H1.15V37.15H1.05L0.949997 37.05H1.05V36.95H1.15H1.25V36.85V36.75H1.15H1.05H0.949997V36.65H0.849998V36.55V36.45V36.35V36.25V36.15L0.949997 36.25H1.05V36.35L1.15 36.45L1.25 36.55H1.35H1.45H1.65L1.85 36.65H1.95H2.05H2.15L2.45 36.75H2.55H2.65H2.75L2.85 36.85H2.95H3.05H3.15H3.25V36.95H3.35H3.55L3.65 36.85V36.75H3.75V36.65V36.55L3.85 36.45V36.35V36.25V36.15L3.75 35.95V35.85L3.65 35.65V35.45V35.25L3.55 35.15L3.45 34.95L3.35 34.85L3.15 34.65L3.05 34.45L2.85 34.25V34.15V34.05L2.75 33.95V33.85L2.65 33.75L2.55 33.65L2.35 33.55L2.25 33.35L2.15 33.25L2.05 33.05L1.85 32.95V32.85V32.75V32.55V32.25L2.05 32.15H2.15L2.25 32.05V31.95H2.35L2.45 31.75L2.55 31.65V31.55L2.65 31.45L2.75 31.35H2.85H2.95H3.05L3.15 30.95L3.25 30.65V30.55V30.45V30.35L3.15 30.25V30.05H3.05V29.95H2.95V29.85V29.75H2.85H2.75L2.65 29.65H2.55L2.45 29.55L2.25 29.45L2.15 29.35L1.95 29.25H1.85H1.75V29.35H1.65H1.55V29.25V29.15V29.05H1.45V28.95L1.35 28.85V28.75H1.25V28.65V28.55V28.45H1.35V28.35H1.25V28.15V28.05H1.15H1.05L0.949997 27.95V27.85H0.849998V27.75V27.65H0.75L0.650002 27.55H0.550003L0.25 27.35L0.349998 27.25L0.849998 26.75L1.05 26.55L1.35 26.45L1.45 26.35H1.55L6.35 25.05L7.55 25.15L11.15 26.15L12.35 26.35L14.35 27.15L14.75 27.55L14.65 27.65H14.55L14.15 28.05L13.95 28.95V29.05L14.05 29.15V29.25L14.15 29.35L14.35 29.25H14.45L14.65 29.15L14.85 29.05H14.95L15.15 28.95H15.35H15.55H15.85L17.25 30.15L19.05 29.85L19.15 29.95L19.35 30.05H19.45V30.15L19.55 30.25H19.65H19.75L19.95 30.35H20.05L20.35 30.05L20.75 29.75L20.85 29.65L20.95 29.55L21.05 29.45V29.05L21.15 28.95L21.65 28.55L21.85 28.45L22.05 28.25L22.35 28.15H22.45L22.65 27.95L22.95 27.75L23.25 27.55H23.45L23.55 27.45L23.75 27.35L23.95 27.25L24.05 27.05L24.25 26.85L24.45 26.55L24.65 26.25L24.75 26.15L24.95 25.95L25.15 25.65V25.55L25.25 25.45L25.35 25.25L25.45 25.05V24.95L25.55 24.85V24.65L25.75 24.45L25.85 24.05L26.05 23.75V23.65L26.75 23.05L26.95 22.95L27.15 22.85L27.25 22.75L27.45 22.65H27.55V22.55H27.65L27.75 22.45L27.95 22.35L28.25 22.25L28.55 22.05L28.65 21.95L29.05 21.85L29.25 21.65L29.45 21.55L29.65 21.45L29.85 21.35L30.05 21.25L30.25 21.15L30.35 21.05L30.65 20.95L31.05 20.75L31.25 20.65L31.55 20.45L31.75 20.35L32.05 20.15L32.25 20.05L32.55 19.95L32.75 19.85L33.05 19.65L33.35 19.45L33.65 19.35L33.85 19.25L34.45 18.55L34.85 18.05L35.35 17.45L35.65 17.25L35.85 16.95L36.25 16.45L35.95 15.75V15.65L35.75 15.25L35.65 14.95V14.85V14.35L35.55 14.15L35.35 13.45L35.25 13.25L35.15 12.85L35.05 12.55V12.15L35.15 11.75V11.65L35.35 11.45L35.65 10.75L35.85 10.25L37.25 8.25L37.75 7.45L38.85 6.35L39.85 5.95L42.65 5.75L45.05 5.55L52.45 4.95L55.55 5.65L56.55 5.75L57.45 5.55L59.15 5.35L66.85 4.05L67.05 4.45H67.15V4.55H67.25H67.65H67.95H68.25H68.35L68.75 4.45H68.85H68.95L69.55 4.05L70.05 3.55L70.75 3.45L75.25 1.05L77.55 0.25H79.85L88.35 2.55L94.25 2.65H94.35H98.25L100.65 2.75Z" fill="#220F0F"/>
<path d="M103.35 10.15H103.25H103.15V10.05V9.95H103.05V9.85V9.75H102.95V9.65V9.55V9.45H102.85V9.35L102.95 9.25V9.05V8.95H102.85V8.85L102.95 8.75V8.55V8.45L103.05 8.25L103.15 8.15L103.25 8.05L103.35 7.85L103.45 7.55L103.65 7.35H103.75V7.25H103.85V7.15V7.05V6.75L104.25 6.55L104.45 6.45L104.55 6.35L104.75 6.15L104.85 6.05H104.95H105.05H105.15H105.25V5.95H105.35L106.25 4.65L105.85 4.55L105.35 4.35H105.25L105.15 4.25H104.95V4.15H104.85H104.75V4.05L104.25 4.15H103.95H103.85H103.25H102.95H102.55H102.45H102.35H102.25V4.05L102.15 3.95L102.05 3.85L101.95 3.75H101.85L101.55 3.45L101.25 3.25L100.85 3.05H100.75L100.65 2.95L100.75 2.75H100.65L98.25 2.65H94.35H94.25L88.35 2.55L79.85 0.25H77.55L75.25 1.05L70.75 3.45L70.05 3.55L69.55 4.05L68.95 4.45H68.85H68.75L68.35 4.55H68.25H67.95H67.65H67.25H67.15V4.45H67.05L66.85 4.05L59.15 5.35L57.45 5.55L56.55 5.75L55.55 5.65L52.45 4.95L45.05 5.55L42.65 5.75L39.85 5.95L38.85 6.35L37.75 7.45L37.25 8.25L35.85 10.25L35.65 10.75L35.35 11.45L35.15 11.65V11.75L35.05 12.15V12.55L35.15 12.85L35.25 13.25L35.35 13.45L35.55 14.15L35.65 14.35V14.85V14.95L35.75 15.25L35.95 15.65V15.75L36.25 16.45L35.85 16.95L35.65 17.25L35.35 17.45L34.85 18.05L34.45 18.55L33.85 19.25L33.65 19.35L33.35 19.45L33.05 19.65L32.75 19.85L32.55 19.95L32.25 20.05L32.05 20.15L31.75 20.35L31.55 20.45L31.25 20.65L31.05 20.75L30.65 20.95L30.35 21.05L30.25 21.15L30.05 21.25L29.85 21.35L29.65 21.45L29.45 21.55L29.25 21.65L29.05 21.85L28.65 21.95L28.55 22.05L28.25 22.25L27.95 22.35L27.75 22.45L27.65 22.55H27.55V22.65H27.45L27.25 22.75L27.15 22.85L26.95 22.95L26.75 23.05L26.05 23.65V23.75L25.85 24.05L25.75 24.45L25.55 24.65V24.85L25.45 24.95V25.05L25.35 25.25L25.25 25.45L25.15 25.55V25.65L24.95 25.95L24.75 26.15L24.65 26.25L24.45 26.55L24.25 26.85L24.05 27.05L23.95 27.25L23.75 27.35L23.55 27.45L23.45 27.55H23.25L22.95 27.75L22.65 27.95L22.45 28.15H22.35L22.05 28.25L21.85 28.45L21.65 28.55L21.15 28.95L21.05 29.05V29.45L20.95 29.55L20.85 29.65L20.75 29.75L20.35 30.05L20.05 30.35H19.95L19.75 30.25H19.65H19.55L19.45 30.15V30.05H19.35L19.15 29.95L19.05 29.85L17.25 30.15L15.85 28.95H15.55H15.35H15.15L14.95 29.05H14.85L14.65 29.15L14.45 29.25H14.35L14.15 29.35L14.05 29.25V29.15L13.95 29.05V28.95L14.15 28.05L14.55 27.65H14.65L14.75 27.55L14.35 27.15L12.35 26.35L11.15 26.15L7.55 25.15L6.35 25.05L1.55 26.35H1.45L1.35 26.45L1.05 26.55L0.849998 26.75L0.349998 27.25L0.25 27.35L0.550003 27.55H0.650002L0.75 27.65H0.849998V27.75V27.85H0.949997V27.95L1.05 28.05H1.15H1.25V28.15V28.35H1.35V28.45H1.25V28.55V28.65V28.75H1.35V28.85L1.45 28.95V29.05H1.55V29.15V29.25V29.35H1.65H1.75V29.25H1.85H1.95L2.15 29.35L2.25 29.45L2.45 29.55L2.55 29.65H2.65L2.75 29.75H2.85H2.95V29.85V29.95H3.05V30.05H3.15V30.25L3.25 30.35V30.45V30.55V30.65L3.15 30.95L3.05 31.35H2.95H2.85H2.75L2.65 31.45L2.55 31.55V31.65L2.45 31.75L2.35 31.95H2.25V32.05L2.15 32.15H2.05L1.85 32.25V32.55V32.75V32.85V32.95L2.05 33.05L2.15 33.25L2.25 33.35L2.35 33.55L2.55 33.65L2.65 33.75L2.75 33.85V33.95L2.85 34.05V34.15V34.25L3.05 34.45L3.15 34.65L3.35 34.85L3.45 34.95L3.55 35.15L3.65 35.25V35.45V35.65L3.75 35.85V35.95L3.85 36.15V36.25V36.35V36.45L3.75 36.55V36.65V36.75H3.65V36.85L3.55 36.95H3.35H3.25V36.85H3.15H3.05H2.95H2.85L2.75 36.75H2.65H2.55H2.45L2.15 36.65H2.05H1.95H1.85L1.65 36.55H1.45H1.35H1.25L1.15 36.45L1.05 36.35V36.25H0.949997L0.849998 36.15V36.25V36.35V36.45V36.55V36.65H0.949997V36.75H1.05H1.15H1.25V36.85V36.95H1.15H1.05V37.05H0.949997L1.05 37.15H1.15V37.25H1.25H1.35V37.35H1.45V37.45L1.55 37.55H1.65H1.75H1.85V37.65V37.75L2.45 37.95H2.55H2.65H2.75V37.85V37.75V37.65H2.85H2.95V37.55L3.05 37.65L3.15 37.75V37.85H3.25L3.15 37.95L3.25 38.05H3.35V38.15H3.45H3.55V38.25V38.35V38.45L3.65 38.55V38.65H3.55V38.75L3.65 38.85M103.35 10.15V10.05M103.35 10.15V10.25V10.35V10.45H103.45V10.55L103.35 10.65V10.75V10.85M103.35 10.85H103.25M103.35 10.85H103.45V10.95H103.35V11.05V11.15H103.25V11.05H103.15H103.05V11.15V11.25H102.95H102.85H102.75V11.35H102.65V11.45V11.55V11.65H102.75V11.75V11.85H102.65M102.65 11.85V11.95M102.65 11.85H102.55H102.45V11.95H102.55V12.05H102.45V12.15L103.25 12.85V12.95L103.35 13.35H103.45H103.65L103.85 13.65V13.85L103.65 13.95L103.55 14.45L103.45 14.75V15.15H103.35H103.55V15.25H103.65V15.35H103.75H103.85H103.95V15.25L104.15 14.95L104.35 14.85V14.75H104.45L104.55 15.05L104.65 15.35L104.75 15.45L104.85 15.65L104.95 15.85L105.05 16.05H104.95L104.75 16.65L104.65 16.95V17.15V17.25V17.35H104.55L104.45 17.45V17.55H104.35V17.65V17.75L104.25 17.85L104.15 17.95V18.05H104.05V18.15M104.05 18.15H103.95M104.05 18.15V18.25L104.15 18.35V18.55L104.25 18.65V18.85V18.95H104.15L104.05 19.15L103.85 19.35L103.55 19.65L103.45 19.75V19.85L103.35 19.95L103.45 20.05V20.15V20.25V20.35V20.45V20.55M103.45 20.55H103.35M103.45 20.55V20.65V20.75V20.85H103.35V20.95V21.05V21.15H103.25V21.25H103.15V21.35H103.05H102.95V21.45H102.85H102.75V21.55V21.65V21.75H102.85V21.85V21.95V22.05H102.95V22.15H102.85V22.25L102.75 22.35V22.45V22.55H102.65V22.65V22.75H102.55H102.45H102.35V22.85H102.25H102.15V22.95V23.05H102.25V23.15V23.25V23.35V23.45L102.05 23.75V23.85H101.95V23.95H101.85V24.05V24.15V24.25V24.35L101.75 24.45V24.55H101.65V24.65L101.55 24.85L101.45 24.95V25.05L101.35 25.35L100.75 25.25L100.35 25.15L100.25 25.35L99.95 26.15L99.85 26.35L99.75 26.75L99.25 26.55V26.05L97.55 26.15V27.05L97.45 27.55L98.05 27.35L97.95 27.15L98.65 26.75L98.75 27.35L98.95 27.95L99.05 28.45L99.45 28.35L99.95 28.25L100.05 28.65V29.15L100.15 29.25H100.25L100.55 29.55L100.95 30.15H101.05L100.95 30.35L100.85 30.85L100.75 31.45L100.65 31.75L100.55 31.85H100.45H100.35H100.25H100.15V31.95H100.05L99.85 32.15L99.65 32.35L99.55 32.45L99.15 33.65L99.35 33.75L99.65 33.85L99.95 34.05L100.05 34.15L100.35 34.25L100.55 34.45H100.65L100.75 34.55V34.75V34.85L100.65 34.95V35.05H100.45L100.05 35.25L98.45 35.75L98.65 36.75L99.95 36.55L100.65 36.45L101.45 36.25L101.05 37.35H101.35H101.45H101.85H102.05L101.85 38.25L101.75 38.65H101.95L102.55 38.55H102.75L102.85 38.45H102.95V38.55L103.05 39.25L103.25 41.35L102.75 41.85L102.85 42.25L103.05 42.75L103.15 43.45L103.25 43.55L103.65 43.45L103.85 43.95L104.35 43.75L104.95 44.05L105.35 44.55V45.25L105.45 45.45V45.65L106.05 45.45L106.15 45.65V45.85V45.95L106.05 46.05H105.95L106.15 46.25H106.05H105.95L105.75 46.35L105.95 46.85L106.15 46.75V46.55L106.55 46.35V46.45H106.65H106.75H106.85V46.55H106.95H107.15V46.15L106.85 45.85L107.05 45.55L107.15 45.45L107.25 45.25L107.15 44.95H108.55H108.95L108.85 45.45L108.75 45.95V46.05V46.45L108.95 46.55L110.05 47.05L110.45 46.65L110.95 46.85H111.05L111.35 46.95L111.75 46.65L112.25 46.25L112.55 45.95L112.65 46.05V46.15L112.75 46.25L112.85 46.45L112.95 46.65L113.05 46.75L113.15 46.85V46.95H113.05V47.05V47.15H112.95V47.05H112.85M112.85 47.05V46.95M112.85 47.05H112.75M112.85 47.05V47.15H112.75V47.25L112.65 47.15L112.55 47.25H112.45V47.35V47.45V47.55V47.65H112.35V47.75H112.45V47.85H112.55H112.65H112.75V47.95V48.05H112.65V48.15L112.55 48.35L112.45 48.45L112.55 48.55L112.35 48.95V49.05H112.25V48.95H112.15V49.05V49.15V49.25H112.05V49.35V49.45H112.15V49.55L112.45 49.65L112.55 50.25H112.65H112.75V50.35H112.85V50.25H112.95V50.35H113.05V50.45H112.95V50.55L113.05 50.65H113.15V50.55H113.25V50.65V50.75V50.85L113.15 51.05V51.15V51.25L113.35 51.35L113.45 51.45L113.55 51.55L113.75 51.45V51.35H113.85H113.95V51.45M113.95 51.45H113.85V51.55H113.95V51.45ZM113.95 51.45H114.05V51.55H114.15H114.25V51.65H114.15V51.75H114.25H114.35V51.65V51.55H114.45V51.65V51.75H114.55H114.65V51.85L114.75 51.75V51.85H114.85V51.95H114.95V52.05V52.15L114.85 52.25L114.75 52.55V52.65H115.15H115.25L115.35 52.55H115.45V52.65H115.35V52.75H115.45V52.85H115.35H115.25V52.95H115.35H115.45L115.35 53.05V53.15H115.45L115.65 52.95H115.85H115.95V53.05V53.25L115.85 53.35V53.45L115.75 53.65H115.85L115.95 53.75L116.05 53.55H116.15V53.65L116.25 53.75L116.35 53.85V53.95H116.45M116.45 53.95V53.85M116.45 53.95H116.55H116.65H116.75H116.85V54.05V54.15H116.95M116.95 54.15V54.05H117.05V54.15M116.95 54.15H117.05M116.95 54.15V54.25V54.35H117.05V54.45H117.15V54.55V54.65H117.25H117.35V54.75H117.45M117.05 54.15V54.25M117.45 54.75V54.65M117.45 54.75H117.55V54.85H117.65V54.95H117.75M117.75 54.95V54.85H117.85V54.75H117.95V54.85L117.85 54.95H117.75ZM117.75 54.95V55.05H117.65L117.75 55.15H117.85V55.25M117.85 55.25H117.95M117.85 55.25V55.35L117.75 55.25H117.65L117.55 55.35V55.45H117.65V55.35H117.75V55.45H117.85V55.55V55.65H117.75H117.65V55.75H117.75V55.85H117.85H117.95V55.95H117.85V56.05H117.75H117.65M117.65 56.05V55.95H117.55L117.65 56.05ZM117.65 56.05V56.15V56.25V56.35H117.75V56.45V56.55H117.85V56.45L117.95 56.35V56.45V56.55L118.05 56.65V56.75L118.15 56.85V56.95H118.25H118.35H118.45V57.05V57.15V57.25H118.35V57.35V57.45M118.35 57.45H118.25M118.35 57.45V57.55H118.45L118.35 57.65L118.25 57.75H118.35V57.85V57.95H118.25V58.05V58.15H118.35V58.25V58.35V58.45H118.45L118.65 58.55H118.75H119.05L119.65 58.65H119.75L120.25 58.75L120.75 58.85H120.85L121.05 59.05L121.35 59.35L121.55 59.65L121.75 59.85L121.95 60.05L122.25 60.35L122.45 60.55L122.65 60.75L122.95 61.05L123.05 61.15L123.25 61.45L123.55 61.75L123.75 61.95L123.95 62.25H124.05V62.35V62.45L124.15 62.55H124.25V62.65L124.35 62.75L124.45 62.85V62.95L124.35 63.05H124.25H124.15V63.15V63.25H124.05H123.95V63.35H124.05V63.45V63.55V63.65H124.15V63.75V63.85L124.25 63.95L124.35 64.05V64.15V64.25H124.45L124.55 64.35L124.65 64.45V64.65L124.55 64.75V64.85V64.95L124.45 65.15V65.25L124.35 65.35L124.15 65.55L124.05 65.65L123.65 65.75H123.45H123.35L123.25 65.95H123.15L123.05 66.05H122.95L122.85 66.15H122.75H122.65L122.55 66.25L122.45 66.35H122.35L122.25 66.45L121.95 66.55L121.65 66.65L121.55 66.45V66.35V66.25L121.45 65.85L121.05 65.95H120.95H120.75V66.75V67.25H120.55H120.05H119.95L119.65 67.05H119.55H119.35H119.15H119.05L118.45 67.35V67.45L118.25 67.55H118.15L117.95 67.95V68.05V68.15H118.05L118.15 68.25L118.25 68.45L118.35 68.55L118.45 68.65L118.55 68.75V68.85V69.35L118.45 69.45V69.55H118.35H118.25V69.65V69.75H118.35V69.85V69.95V70.05V70.15L118.25 70.35L118.15 70.25V70.35L118.25 70.45H118.35H118.45L118.75 70.55L119.05 70.65H119.25L119.35 70.75H119.45H119.65L119.75 70.85H119.85H119.95L120.05 70.95H120.15L120.25 70.85H120.35H120.45H120.55H120.65H120.75H120.85H120.95L121.15 70.75L121.35 70.65L121.65 70.55L121.95 70.45L122.15 70.65L122.75 71.05L123.25 71.35L123.65 71.65L124.15 71.95L124.75 72.45L125.35 72.85L125.65 73.05L125.75 73.45V73.65L125.85 73.75V73.95V74.05L125.95 74.25L126.05 75.05L126.25 75.55L126.35 76.05V76.35L126.45 76.45V76.75H126.15H125.95H125.55L125.35 76.95V77.15H125.25L125.15 77.45L125.05 77.85V77.95L125.15 78.55V78.65L125.25 78.85V79.25V79.35L125.15 79.45H125.05H124.95H124.85L124.75 79.35H124.55L124.45 79.45H124.35L124.25 79.55H124.15L124.05 79.45H123.95H123.85H123.75V79.35H123.65H123.55H123.45V79.45H123.35H123.25L123.15 79.55H123.05H122.95V79.65H122.85H122.75V79.75H122.65H122.55V79.85H122.45H122.35L122.25 79.95H122.15V80.05H122.05H121.85H121.75H121.55H121.35L121.25 79.95H121.15H121.05L120.95 80.05H120.85H120.75V80.15L120.65 80.25H120.55H120.45H120.35H120.25H120.15L120.05 80.35H119.95L119.45 80.55H119.35L119.65 80.85L120.85 82.05L120.95 82.15L121.15 82.35L121.05 83.45L120.95 84.15L120.85 85.55L120.75 86.35V86.95L120.65 87.45V87.85L121.05 88.15H121.15L121.35 88.05V87.95L121.45 87.85H121.55H121.75L121.85 87.95V88.05L121.95 88.15L122.05 88.25L122.15 88.35L122.35 88.45L122.55 88.75H122.65L122.75 88.85L122.65 88.95L122.95 89.05V89.15V89.25V89.35V89.45V89.55V89.65V89.75H123.05V89.85H122.95H122.85H122.65V89.95L122.55 89.85V89.95V90.05L122.45 90.15V90.25H122.55V90.45L122.45 90.35V90.45L122.35 90.55V90.75V90.85V91.05V91.15V91.25L122.25 91.35L122.15 91.45L122.05 91.35H121.95H121.85L121.75 91.25H121.65V91.35L121.55 91.25H121.45V91.35H121.35V91.45H121.25L121.05 91.55H120.85L120.75 91.45L120.65 91.35H120.75L120.65 91.25H120.55H120.45H120.35M120.35 91.25V91.35M120.35 91.25H120.25V91.35H120.15H120.05V91.45H119.95H119.85V91.35H119.75V91.25V91.15H119.65V91.05H119.55H119.45H119.35H119.25H119.15V91.15H119.05V91.25H118.95V91.15H118.85V91.05V90.95V90.85L118.75 90.75H118.65V90.85H118.55V90.95H118.45V91.05L118.35 90.95H118.25H118.15V90.85H118.25L118.15 90.75H118.05H117.95H117.85H117.75V90.65H117.65V90.75H117.55H117.45V90.65H117.35H117.25V90.55H117.15V90.65H117.05V90.75H116.95H116.85M116.85 90.75V90.85M116.85 90.75H116.75H116.65V90.65V90.55H116.55H116.45V90.65H116.35V90.75V91.15L116.45 91.55V91.85L116.15 92.05L115.95 92.25L115.65 92.85V92.95L115.55 93.05V93.15V93.25V93.55V93.65V93.85L115.45 94.15H115.35V94.25V94.45V94.55V94.65V94.85V95.15V95.35V95.65V95.95V96.05L115.25 96.15V96.25V96.35H115.15V96.45L115.05 96.65V96.75H114.95L114.85 96.85L114.65 97.55V97.65V97.75V97.85V97.95V98.05H114.55L114.65 98.15V98.25V98.35V98.45V98.55L114.75 98.75V98.95V99.05L114.85 99.15V99.35V99.45L114.75 99.55V99.75H114.85V99.85L114.95 99.95L114.85 100.05V100.25V100.35H114.95V100.45V100.55H114.85V100.65V100.75H114.75V100.95V101.05H114.65V101.15V101.25H114.55V101.35V101.45V101.55V101.65V101.75V101.85V101.95V102.05H114.45V102.15H114.35V102.25L114.25 102.35L114.15 102.45V102.55H114.05L113.95 102.65L113.85 102.85L113.75 102.95H113.65V103.05V103.15L113.55 103.25V103.35V103.45V103.55L113.45 103.65L113.25 103.95L113.15 104.15L113.05 104.25L112.95 104.35L112.85 104.45L112.75 104.55L112.55 104.75L112.45 104.95L112.35 105.05L112.25 105.15L112.15 105.35L112.25 105.55V105.75H112.35L112.45 105.85L112.55 105.95V106.05H112.65V106.15L112.85 106.25L112.95 106.35L113.05 106.45L113.15 106.55L113.05 106.75L112.95 106.85L112.75 107.15L112.55 107.35L112.45 107.45H112.35H112.25V107.35L112.15 107.25V107.15H112.05V107.05H111.95V106.95V106.85H111.85L111.95 106.55V106.45L111.85 106.35L111.75 106.15V106.05V105.95H111.65V105.85L111.55 105.75V105.55L111.45 105.45L111.35 105.35V105.15L111.25 104.95L111.15 104.85V104.75L111.05 104.65L110.95 104.55V104.45L110.85 104.25L110.75 104.05L110.65 103.85V103.75V103.65L110.75 103.55H110.25L109.95 103.25L109.65 102.95L109.25 103.05V103.15H109.15H109.05V103.25H108.85H108.75H108.65L108.55 103.35H108.45H108.35H108.25L108.15 103.45L108.05 103.55H107.95L107.75 103.45H107.65H107.55H107.45L107.35 103.35H107.25H107.15H107.05H106.95H106.85H106.75H106.55H106.45H106.35V103.25V103.15V103.05V102.95V102.75H106.45H106.55L106.65 102.65H106.75V102.55H106.85H106.95V102.45H107.05L106.95 102.35V102.25H106.85H106.75V102.15L106.65 102.05L106.55 101.95L106.45 101.85V101.75H106.35V101.65H106.25V101.55V101.45V101.35L106.15 101.25V101.15L106.05 101.05H105.95H105.85L105.75 100.95V100.85L105.65 100.75H105.75H105.85V100.65V100.45L105.75 100.15L105.65 99.45V99.15L105.25 99.25L104.95 99.35L104.65 99.45H104.45L104.05 99.55L103.75 99.65L103.35 99.75L102.95 99.85H102.85H102.75L102.35 99.95H102.25H102.15H102.05L101.95 99.85H101.85H101.75H101.65H101.55L101.45 99.75H101.35H101.25H101.15H101.05V99.85H100.95H100.85V99.95H100.75V100.05V100.15L100.85 100.25V100.35V100.45V100.65V100.75V100.85V100.95V101.05L100.95 101.15V101.45H100.85H100.75V101.35H100.65V101.25L100.55 101.15L100.45 101.05H100.35H100.25H100.15H100.05H99.95H99.85V101.15H99.75V101.25H99.65V101.35H99.55V101.45H99.45V101.55H99.35V101.65H99.25H99.15L99.05 101.75L98.95 101.55L98.55 101.75L98.35 101.85L98.05 101.95L97.85 102.05L97.65 102.15L97.45 102.25H97.35H97.25H97.15H97.05V102.35H96.95H96.85H96.65H96.45L96.25 102.45L96.15 102.55L95.95 102.65L96.05 102.75L95.45 102.95L95.25 103.05H95.15L94.75 103.25H94.65H94.55V103.15V103.05V102.95H94.45V102.85L94.35 102.75V102.65H94.25L94.05 102.85L93.95 102.95L93.75 103.15L94.05 103.55L93.75 103.85L93.65 104.05H93.55H93.45H93.35H93.25H93.15L93.05 103.95H92.95L92.85 103.85H92.75H92.65L92.55 103.95V103.85H92.45V103.75H92.35H92.25H92.15H92.05H91.95H91.85H91.75H91.65H91.55V103.65H91.45H91.35V103.55H91.25L91.15 103.65V103.55H91.05V103.45H90.95V103.35H90.85H90.75V103.25H90.65V103.15V103.05H90.55V102.95V102.85H90.45V102.75H90.35L90.45 102.65H90.35V102.55V102.45H90.25V102.35V102.25H90.15V102.15H90.05V102.05V101.95L89.85 102.15L89.75 102.25V102.35L89.65 102.45H89.55V102.55H89.65H89.75H89.85V102.65L89.95 102.75L90.05 102.85V102.95H90.15V103.05V103.15V103.25V103.35V103.45L90.25 103.55V103.65H90.15V103.75H90.25V103.85L90.15 103.95V103.85H90.05V103.95V104.05H90.15V104.15V104.25V104.35V104.45L90.05 104.55V104.65H89.95L89.85 104.75V104.85H89.75V104.95H89.65H89.55H89.45H89.35V104.85H89.45V104.75H89.35H89.25V104.85H89.15H89.05H88.95V104.95H88.85V105.05H88.75V105.15H88.65V105.25V105.35M88.65 105.35V105.45M88.65 105.35H88.55V105.25V105.15H88.45H88.35V105.25V105.35V105.45H88.45V105.55H88.35V105.65V105.75V105.85H88.45H88.55V105.95H88.65V105.85V105.75H88.75V105.65H88.85H88.95L88.85 105.75V105.85V105.95H88.95V106.05L89.25 106.25L89.35 106.35H89.45H89.55H89.75V106.45L89.65 106.55H89.75H89.85H89.95L90.05 106.65V106.75M90.05 106.75H90.15M90.05 106.75H89.95V106.85V106.95V107.05V107.15H90.05V107.25H89.95V107.35V107.45L90.05 107.55L90.15 107.65H90.25V107.75V107.85H90.35H90.45V107.75H90.55H90.65H90.75V107.85H90.85V107.95H90.95L91.05 108.05V108.15L90.95 108.25H90.85V108.35H90.75V108.45H90.65H90.55H90.45M90.45 108.45V108.55H90.35V108.65M90.45 108.45H90.35V108.35H90.25H90.15H90.05H89.95V108.25V108.15H89.35V108.25H89.25L88.95 108.35L88.85 108.25H88.75H88.45H88.35H88.25V108.15V108.05V107.95H88.05H87.85H87.75L87.65 108.05H87.55H87.45H87.35H87.15L87.05 107.95L86.95 107.65L86.85 107.45L86.75 107.35L86.65 107.25L86.55 107.15V107.05L86.45 106.95V106.85L86.35 106.75L86.25 106.65H86.15H86.05H85.95H85.85H85.75H85.55H85.35V107.15V107.55V107.95V108.05L85.75 108.25H85.85L85.75 108.35V108.45V108.55V108.65V108.75H85.85H85.95V108.85L86.05 109.05V109.25L85.95 109.35V109.55V109.65V109.85L85.75 110.55V110.65L86.05 110.55L86.35 110.45L86.75 110.35V110.55V110.65V110.95L86.85 111.35V111.55L86.75 111.75L86.65 112.15L86.55 112.45H86.45H86.35V113.15V113.25V113.35H86.25H86.15V113.45H86.05V113.55H85.95V113.65H85.85V113.75V113.85L85.75 113.95H85.65H85.55H85.35H85.25H85.15L85.05 114.05H84.95H84.85H84.75L84.65 114.15H84.55H84.45V114.25H84.35V114.35H84.25H84.15H84.05H83.95H83.65L83.55 114.45V114.35H83.25H83.15H83.05H82.95L83.05 114.05H82.95L82.85 113.95H82.75L82.65 113.85H82.55H82.45V113.75H82.25H82.15H82.05H81.95H81.65H81.45H81.15L80.95 113.65H80.85H80.65H80.55H80.45H80.35L80.25 113.55H80.15V113.45V113.35V113.25V113.15L80.25 113.05V112.95H80.15H79.95H79.75H79.65L79.55 113.05H79.45H79.25H79.15H79.05H78.95L78.75 113.15H78.55L78.35 113.25H78.25H78.15L77.95 113.15H77.85H77.65H77.55H77.45H77.35V113.05H77.15V112.95H77.05L76.95 112.85V112.75H76.85V113.15V113.35V113.45L76.75 113.55V113.75V113.85H76.65V113.95L76.55 114.05L76.75 114.35V114.45V114.55V114.65V114.75H76.85V114.85H76.95L77.05 114.95H77.15L77.25 115.05H77.35L77.45 115.15H77.55L77.65 115.25H77.75H77.85V115.35H77.95L78.05 115.55L78.15 115.65L78.25 115.75V115.85H78.35V115.95V116.15L78.45 116.25H78.55V116.35H78.65V116.45V116.55V116.65V116.75H78.75V116.85L78.85 116.95L78.75 117.05V117.15L78.65 117.35V117.65V117.75V118.05V118.15V118.35L78.55 118.45L78.45 118.55V118.65V118.75L78.35 118.95V119.15L78.25 119.25V119.35V119.45V119.55L78.15 119.65L78.05 119.55H77.95V119.45V119.35H77.85H77.75L77.65 119.25L77.55 119.35V119.45V119.55H77.45H77.35L77.25 119.45H77.15H77.05L76.85 119.35H76.75L76.55 119.25H76.45H76.35H76.25H76.05H75.95L75.85 119.35H75.75V119.25H75.65L75.55 119.15H75.45L75.35 119.05H75.25V118.95H75.15H75.05H74.95H74.85L74.95 119.05L75.05 119.15L75.15 119.25L75.25 119.35H75.35V119.45H75.45H75.55V119.55H75.65H75.75H75.85L75.95 119.65L76.25 119.75H76.35L76.45 119.85L76.65 119.95L76.75 120.05H76.85H76.95V120.15H77.05H77.15H77.25H77.35H77.45H77.55L77.65 120.05V120.15V120.25V120.35V120.45V120.55V120.65L77.55 120.75H77.75H78.15L78.25 121.15V121.25V121.35H78.15V121.45L78.05 121.55V121.65H77.95V121.75M77.95 121.75V121.85M77.95 121.75L77.85 121.65H77.75V121.75V121.85V121.95H77.65H77.55V122.05V122.15V122.25M77.55 122.25H77.45M77.55 122.25V122.35H77.65V122.45V122.55V122.65V122.75H77.75V122.65H77.85M77.85 122.65V122.75M77.85 122.65H77.95V122.75H78.05V122.65H78.15V122.75H78.25H78.35V122.65H78.45H78.55H78.65L78.55 122.75H78.65V122.85H78.55V122.95H78.65V123.05H78.55V123.15H78.65V123.25H78.75V123.35L78.85 123.45H78.95H79.05V123.55H79.15L79.05 123.65V123.75H79.15V123.85H79.05V123.95H79.15V124.05V124.15H79.25V124.25V124.35M79.25 124.35H79.15M79.25 124.35V124.45V124.55V124.65V124.75H79.35V124.85H79.25H79.15V124.95V125.05V125.15V125.25H79.25V125.35H79.35V125.45H79.45V125.35H79.55V125.45V125.55L79.65 125.45V125.35H79.75V125.25H79.85H79.95H80.05H80.15H80.25L80.35 125.35H80.45V125.45H80.55H80.65V125.55H80.75L80.85 125.65V125.75V125.85V125.95M80.85 125.95V126.05M80.85 125.95H80.95M80.95 125.95V126.05M80.95 125.95H81.05V126.05H80.95M80.95 126.05V126.15H81.05V126.25H80.95V126.35V126.45H81.05L81.15 126.35H81.25V126.45H81.15L81.05 126.55H81.15V126.65V126.75V126.85V126.95V127.05H81.05M81.05 127.05V126.95H80.95V127.05H81.05ZM81.05 127.05V127.15H80.95V127.25L80.85 127.35V127.45M80.85 127.45H80.95M80.85 127.45V127.55H80.95V127.45M80.85 127.45H80.75V127.55V127.65H80.65V127.75M80.95 127.45H81.05M80.65 127.75V127.85M80.65 127.75H80.55H80.45V127.85H80.35V127.75H80.25H80.15V127.85H80.05V127.75M80.05 127.75V127.65M80.05 127.75H79.95M79.95 127.75V127.85M79.95 127.75H79.85V127.85V127.95H79.75H79.65V127.85V127.75L79.75 127.65H79.65V127.55H79.55V127.45V127.35H79.45V127.25H79.35V127.15V127.05V126.95V126.85V126.75H79.25H79.15V126.65V126.55H79.05H78.95H78.85H78.75L78.85 126.65V126.75V126.85H78.75H78.65L78.75 126.95V127.05H78.65H78.55V127.15H78.45H78.35V127.25H78.25H78.15L78.05 127.15V127.25H77.95H77.85V127.35H77.75L78.05 127.65L77.95 127.85L77.85 127.95L77.95 128.05L78.05 128.15V128.25L78.15 128.45L78.25 128.65V128.75L78.15 128.95L77.95 129.25V129.35H78.05L78.15 129.45H78.25L78.35 129.55H78.45V129.65L78.55 129.75L78.75 129.95L78.95 130.25L79.05 130.35H78.95L78.85 130.45L78.65 130.55L78.35 130.75L78.05 130.85L77.95 130.95L77.75 131.05L77.15 131.35L77.25 131.55V131.75V131.85L77.15 131.95H77.05H76.75H76.55L76.35 131.85H76.15V132.45L76.05 132.35V132.85L75.65 132.75L75.75 132.95V133.25H76.05H76.25L76.35 133.85L75.85 133.65L75.65 133.55H75.55H75.35L74.95 133.45H74.65L74.55 133.35H74.35L74.25 133.25L74.05 133.05L73.95 132.95H73.85L73.75 132.85H73.65H73.55L73.45 132.75M73.45 132.75H73.35M73.45 132.75V132.65M73.45 132.65H73.35M73.45 132.65V132.55H73.35V132.45H73.25V132.35H73.35V132.25V132.15V132.05M73.35 132.05H73.45M73.35 132.05V131.95H73.45V131.85M73.45 131.85H73.35M73.45 131.85V131.75H73.35M73.35 131.75H73.25M73.35 131.75V131.65V131.55V131.45H73.45V131.35V131.25H73.55V131.15H73.45V131.05H73.55V130.95M73.55 130.95H73.45M73.55 130.95H73.65V130.85L73.55 130.75H73.65V130.65V130.55V130.45V130.35M73.65 130.35H73.55M73.65 130.35V130.25H73.55V130.15H73.45L73.35 130.05V129.95H73.45V129.85V129.75V129.65H73.55H73.65V129.55H73.55V129.45H73.45H73.35H73.15H72.95H72.85H72.75V129.35H72.65L72.55 129.25H72.45H72.35H72.25H72.15H72.05H71.95H71.85V129.35H71.75L71.65 129.45H71.55L71.45 129.55L71.35 129.45L71.25 129.25L71.15 129.15L71.05 129.05L70.95 128.95L70.85 128.85L70.65 128.65L70.45 128.45L70.35 128.35L70.25 128.25H70.15L70.05 128.15V128.05L69.95 127.95L69.75 127.75L69.55 127.65V127.55H69.45V127.45H69.35V127.35H69.25V127.25L69.05 127.15L68.85 126.95L68.75 126.75L68.65 126.65L68.55 126.55L68.45 126.45L68.35 126.35H68.25V126.25H68.15V126.15L68.05 126.05V125.95H67.95V125.85H67.85L67.75 125.75H67.65L67.55 126.05V126.15L67.45 126.25V126.35H67.35L67.25 126.45L67.05 126.65L67.25 126.95L67.35 127.05L67.45 127.15L67.55 127.55V127.75V127.85V127.95V128.05V128.25V128.45V128.55L67.45 128.85V129.05V129.25L67.25 129.15H66.95H66.85H66.75V129.25H66.65H66.55V129.15H66.45H66.35H66.25H66.15V129.25H66.05H65.95H65.85H65.75H65.55L65.35 129.15H65.15H65.05L64.95 129.25H64.85V128.95L64.95 128.65V128.45V128.15H64.85H64.15H63.95H63.85L63.75 128.35L63.65 128.45V128.55H63.55V128.75V128.95V128.85H63.45L63.35 128.75H63.25H63.15H63.05H62.85L62.75 128.85H62.65H62.35L62.15 128.95H61.95H61.85H61.65H61.45L61.25 129.05H61.15H61.05H60.95V129.15H60.85H60.65H60.55H60.45H60.35V129.25H60.25H60.15L60.05 129.15H59.95L59.85 129.25V129.35V129.45H59.75L59.35 129.85L58.75 129.75H58.35H58.15L57.85 129.65H57.25L57.05 129.55H56.75L56.25 129.45H56.15L56.25 129.35V129.05V128.75V128.45L56.35 128.35L56.25 128.25L56.35 127.95L56.45 127.65V127.55L56.55 127.45V127.35V127.15V127.05V126.95L56.45 126.85L56.35 126.75L56.25 126.55L56.05 126.45L55.95 126.35L55.85 126.25V126.15L55.55 126.05L55.45 125.95L55.25 125.85L55.15 125.75H55.05V125.65L54.75 125.45L54.55 125.35L54.35 125.15L54.25 125.05H54.15H54.05V124.95H53.95H53.85H53.75V124.85H53.65L53.55 124.95V124.85H53.35H53.25L53.15 124.75V124.65H53.05V124.55L53.15 124.35V124.25V124.15H53.05V124.05H52.95H52.85L52.75 124.15H52.65L52.55 124.25H52.45H52.35H52.25H52.15H52.05H51.95H51.85H51.75H51.65H51.55V124.15H51.45H51.35H51.25H51.15H51.05L50.95 124.05H50.85L50.75 123.95H50.65H50.55H50.45L50.35 123.85H50.25V123.65V123.45V123.35L50.35 122.85V122.55V122.35V122.25V122.15V122.05V121.95V121.85V121.75V121.45V121.25V121.15V120.95V120.75V120.65V120.55L50.45 120.45H50.35H50.25H50.15H50.05V120.35H49.95V120.25V120.15H49.85V120.05L50.35 119.65V119.15V118.95V118.75V118.65H50.25L50.15 118.55H50.05V118.45V118.35V118.25H49.95V118.15L50.05 117.95H49.95V117.85L49.85 117.55M49.85 117.55L49.95 117.45H50.05L50.15 117.35H50.25V117.25V117.15H50.15H50.05V117.05H49.95H49.85L49.75 116.95V117.05V117.15L49.85 117.25V117.35V117.45V117.55ZM49.85 117.55H49.75L49.65 117.65H49.55V117.75H49.45H49.35H49.25H49.15H49.05V117.85H48.95H48.85H48.75H48.65H48.55V117.55H48.15V117.45V116.85V116.75V116.55L48.25 116.45V116.35H48.35V116.25V116.15V116.05H48.25V115.95L48.15 115.75V115.65V115.55H48.05V115.45H47.95V115.35V115.25L47.85 115.15V115.05V114.95V114.85V114.75V114.55V114.45V114.35L47.75 114.25V114.15H47.65V114.05L47.55 113.95L47.45 113.85V113.75L47.35 113.65V113.55L47.25 113.45V113.35V113.25H47.15L47.05 113.15L46.95 113.05L46.85 112.95H46.75L46.65 112.85L46.25 112.55H46.15H46.05H45.85H45.75H45.65L45.45 112.65L45.35 112.75V112.85L44.85 112.95H44.75L44.65 113.05L44.55 113.15H44.45V113.25H44.35L44.25 113.35V113.45H44.15L44.05 113.55L43.85 113.65H43.75V113.75H43.65H43.55H43.45L43.35 113.85L43.25 113.75H43.15H43.05L42.95 113.85H42.85V113.75H42.75L42.65 113.65H42.55L42.45 113.55L42.35 113.45H42.25L42.15 113.35H42.05V113.25H41.95V113.15H41.85L41.75 113.05V112.95H41.65V112.85H41.55L41.45 112.75H41.35V112.65H41.25V112.55L41.15 112.45V112.35H41.05H40.95V112.25H40.85H40.75H40.65V112.15V112.05L40.55 111.95V111.85V111.75L40.45 111.55V111.45L40.55 111.35L40.45 111.25L40.35 111.15H40.25V111.05L40.45 110.85H40.55L40.65 110.75L40.85 110.55V110.45V110.35H40.95V110.25L41.05 110.15L40.95 110.05H40.85V109.95H40.65L40.55 109.85H40.45L40.35 109.75L40.25 109.65V109.55L40.15 109.45V109.35V109.25L40.05 109.15L39.95 109.05L39.75 108.85L39.65 108.65V108.55L39.35 108.35V108.45L39.25 108.55L39.15 108.65L39.05 108.75L38.95 108.85V108.95H38.75L38.55 109.15H38.45V109.25V109.35H38.35V109.25H38.25H38.15L38.05 109.15H37.95H37.85H37.75H37.65H37.55H37.25H37.15H37.05H36.95L36.75 109.05H36.55L36.45 109.15H36.55V109.25L36.65 109.65L36.45 110.05V110.15L36.35 110.35L36.25 110.45V110.55V110.65V110.75V110.85V110.95V111.05V111.15H36.15V111.25H36.05H35.95M35.95 111.25V111.35M35.95 111.25H35.85V111.15H35.75H35.65L35.45 111.05H35.35H35.25H35.15L35.05 111.15H34.95L34.85 111.05H34.75L34.65 110.95H34.55H34.45H34.35L34.25 110.85H34.15H34.05V110.75H33.95H33.85L33.75 110.65H33.65L33.55 110.55H33.45L33.35 110.65H33.25H33.15H33.05V110.55H32.95H32.85H32.75H32.65H32.55H32.45L32.35 110.45H32.25H32.15V110.35H32.05V110.25H31.95V110.35H31.85H31.75V110.25V110.15H31.65V110.05H31.55L31.45 109.95H31.35V109.85V109.75H31.45H31.55V109.65H31.45H31.35V109.55H31.25H31.15V109.65V109.75H31.05H30.95H30.85V109.65V109.55V109.45H30.95V109.35V109.25H30.85H30.75V109.15H30.85V109.05H30.75V108.95V108.85H30.65M30.65 108.85V108.95H30.55V108.85H30.65ZM30.65 108.85V108.75H30.55H30.45V108.65V108.55H30.55V108.45H30.45H30.35H30.25V108.35H30.35H30.45V108.25V108.15V108.05H30.35V107.95H30.25H30.15V108.05H30.05V107.95L29.95 107.85V107.75H29.85V107.65H29.75V107.75V107.85L29.65 107.95V107.85H29.55V107.75V107.65V107.55H29.45V107.65V107.75H29.35V107.65H29.25V107.55H29.15H29.05M29.05 107.55V107.65V107.75H28.95V107.65V107.55M29.05 107.55H28.95M29.05 107.55V107.45V107.35H28.95V107.25H29.05V107.15H28.95M28.95 107.55V107.45M28.95 107.15L28.75 107.25V107.15L28.85 107.05H28.95M28.95 107.15V107.05M28.95 107.05L28.85 106.95H28.75V106.85H28.85V106.75H28.75V106.65M28.75 106.65H28.65H28.55H28.45V106.55H28.55H28.65L28.75 106.65ZM28.75 106.65H28.85L28.95 106.55V106.45H28.85V106.35V106.25H28.75V106.35H28.65V106.25V106.15H28.55V106.05H28.45H28.35V105.95H28.25V105.85V105.75V105.65H28.15V105.75V105.85V105.95L28.05 105.85V105.75V105.65H27.95H27.85M27.85 105.65V105.55M27.85 105.65H27.75V105.55V105.45V105.35V105.25L27.65 105.35H27.55V105.45V105.55V105.65H27.45H27.35V105.55H27.25V105.45V105.35H27.15V105.45V105.55V105.65H27.05V105.55V105.45H26.95H26.85H26.75V105.35V105.25H26.65V105.15H26.55H26.45V105.25L26.35 105.35H26.25V105.25H26.15H26.05V105.35V105.45H26.15H26.25V105.55H26.35V105.65H26.25H26.15H26.05L25.95 105.75H26.05V105.85H25.95L25.85 105.95V106.05H25.75V106.15H25.65V106.25H25.55V106.35H25.45L24.65 104.35V104.15L24.45 103.85L24.35 103.55V103.35L24.25 103.25V103.05L23.95 101.85L24.25 100.05L23.95 99.95L22.95 99.75L22.85 99.65H22.75L22.65 99.55L21.55 98.85L21.15 98.25V98.15L21.05 98.05L20.85 97.65L20.95 97.35L21.15 97.05V96.95L21.35 96.45L21.45 96.35V96.25V95.75H21.25L20.05 95.55L18.85 95.05L18.45 94.45L18.15 94.05V93.65V93.45L18.05 92.45L18.65 91.15L19.25 90.65L19.85 90.25L21.25 90.05L22.55 90.85L23.55 90.35H24.05H24.15H24.35H25.25L26.75 90.05L27.45 88.65L27.35 88.55L26.85 87.75L26.75 87.65L26.35 87.45V87.35L25.85 87.15L25.75 87.05L25.05 86.65L23.45 85.75L22.85 85.45L22.55 85.25L19.15 82.15L18.35 80.85L18.15 79.85L18.05 79.15L17.95 78.45L17.35 77.55L16.75 77.15L16.15 76.95L15.75 76.55L15.95 75.95V75.45L15.35 72.15L14.95 71.05L13.55 68.95L13.15 68.15V68.05L12.95 67.65L12.85 67.35L13.05 66.75V66.65L13.55 66.35L13.85 66.25L13.55 65.65L13.35 65.25L12.75 64.65L12.55 64.45L12.35 64.25L12.25 64.15L12.15 64.05L10.95 62.75L10.75 62.65L9.75 62.05L9.14999 61.65L8.35 61.15L7.45 60.05L7.25 59.75L7.05 59.45L6.45 58.25L6.35 57.95L4.65 54.15L4.45 53.65L3.55 53.05H2.65H2.55L1.75 52.65L1.45 50.95L1.75 49.85L2.45 48.65L3.25 47.75L3.35 47.65L3.55 47.55L3.95 47.45L4.25 47.35L4.15 47.25V47.15L4.05 46.75V46.65L3.95 46.25V45.65V45.45L4.05 45.25L4.15 45.15L4.25 45.05L4.35 44.85L4.95 44.55L4.55 43.65L2.95 41.35L2.55 40.65L2.45 40.55V40.45L2.35 40.15H2.45H2.55H2.65H2.75V40.05H2.85L2.95 39.95V39.85V39.75H3.05V39.65H3.15L3.25 39.55H3.35V39.45V39.35V39.25V39.15H3.45H3.55V39.25H3.65H3.75H3.85V39.15V39.05L3.75 38.95H3.65V38.85M27.85 105.55H27.95V105.45M27.85 105.55V105.45H27.95M27.95 105.45H28.05V105.35H27.95V105.45ZM3.65 38.85H3.55" stroke="white" stroke-width="0.5" stroke-linecap="round" stroke-linejoin="round"/>
</svg>
