<svg width="118" height="173" viewBox="0 0 118 173" fill="none" xmlns="http://www.w3.org/2000/svg">
<path d="M62.65 168.75V168.65V168.55L62.55 168.35L62.45 168.15L62.35 167.45L62.25 167.05V166.85V166.75V166.65L62.45 166.05L62.55 165.85L62.75 165.55V165.35L62.95 164.95L63.25 163.95L63.45 163.65V163.55V163.45H63.35H63.25H63.15V163.35V163.25H63.05H62.95V163.15V163.05H62.85V162.95H62.95V162.85H62.85H62.75V162.75V162.65L62.65 162.55V162.45H62.55V162.55H62.45V162.65V162.75H62.35L62.25 162.65H62.15V162.75V162.85H62.05H61.95V162.95H61.85H61.75V162.85L61.65 162.75H61.55L61.45 162.65L61.55 162.45H61.65L61.55 162.35H61.45V162.45H61.35H61.25V162.35V162.25H61.15H61.05V162.15H60.95V162.25H60.85V162.15V162.05V161.95V161.85V161.75L60.95 161.65V161.55V161.45V161.35L61.05 161.05V160.65L61.15 159.95L61.05 159.55V159.25V159.15L60.95 159.05V158.95V158.85V158.55V158.45H60.85H60.75H60.65H60.45H60.35L60.15 158.35H59.75H59.55H59.15L58.75 158.25H58.55H58.25H57.95L57.65 158.15H57.45H56.45H56.35H56.25H56.15H56.05V158.05H55.75H55.65H55.45H55.35H55.25H55.05H54.95L54.85 157.95H54.65H54.35H54.25H54.15H54.05H53.85L52.75 157.85H52.05H51.75L51.45 157.75H51.15H50.95H50.85V157.85L50.75 157.95L50.65 157.85L50.45 157.65V157.55H50.35V157.45V157.35V157.25L50.25 157.15L50.05 156.65L49.85 156.25H49.95V156.15L50.05 156.05L49.95 155.75V155.65L49.75 155.75L49.65 155.55L49.55 155.45V155.35H49.45L49.55 155.15H49.65H49.75L49.85 155.05L50.15 154.35L50.25 154.25L50.35 154.15H50.25L50.05 153.95L50.25 153.45V153.35V153.25V153.15V153.05L50.15 153.15V153.25L50.05 153.35V153.45H49.95V153.55V153.65L49.85 153.75V153.85L49.75 153.95V154.05H49.65L49.55 153.95V153.85H49.45H49.35L49.25 153.75H49.15L49.05 153.65H48.95L48.85 153.55L48.75 153.35L48.85 153.25L48.95 153.15L49.05 153.05H49.15H49.25L49.35 152.95L49.45 152.85L49.55 152.75L49.65 152.55L49.55 152.45H49.45V152.35L49.15 152.25L49.25 152.05V151.95V151.85H49.35V151.75V151.65V151.55L49.45 151.35V151.25L49.55 150.85L49.65 150.75V150.65V150.55L49.75 150.35V150.25V150.15H49.65H49.45H49.35V150.05V149.95H49.25H49.15V150.05H49.05V149.95H48.95V150.05H48.85H48.75V149.95L48.65 149.85V149.75H48.55H48.45L48.35 149.65V149.55H48.25H48.15H48.05H47.95H47.85V149.45V149.35V149.25V149.15L47.75 149.05V149.15H47.65V149.25H47.55V149.35H47.45H47.35V149.25V149.15H47.25H47.15V149.05V148.95H47.05H46.95H46.85H46.75V149.05H46.65L46.55 148.95H46.45H46.35V148.85H46.25H46.15V148.75H46.05H45.95H45.85V148.85H45.75V148.75L45.65 148.85V148.75H45.55H45.45V148.65H45.35H45.25V148.55H45.15H45.05H44.95H44.85V148.45H44.75L44.65 148.35L44.35 148.25H44.15L44.05 148.15H43.85L43.75 148.05H43.65H43.55V147.95H43.45H43.25L43.45 146.95H43.35L43.25 146.85H43.15H43.05L42.95 146.95H42.75H42.65H42.55H42.45H42.35H42.25V146.85V146.75V146.65H42.35V146.55H42.25H42.15H41.85H41.45H41.25H41.05H40.85L40.75 146.65L40.65 146.75H40.55L40.45 146.65H40.35L40.05 146.45L39.85 146.35H39.75L39.65 146.25H39.55V146.15H39.45H39.35H39.25L39.15 146.05L39.05 145.95H38.95H38.85V145.85V145.75V145.65H38.75V145.55H38.65V145.45V145.35H38.55V145.25H38.65V145.15H38.75V145.05V144.95L38.85 144.85H38.95V144.75V144.65H39.05H39.15H39.25V144.55V144.45H39.35V144.35H39.25H39.15V144.25V144.15V144.05L39.25 143.95V143.85V143.75H39.35V143.65V143.55V143.45H39.25V143.35H39.15V143.25V143.15H39.05H38.95V143.05V142.95H38.85V142.85H38.75L38.65 142.75V142.65L38.55 142.55H38.45V142.45V142.35V142.25L38.35 142.15V142.05V141.95H38.25V141.85H38.15V141.75V141.65V141.55V141.45V141.35H38.25V141.25H38.15V141.15V141.05V140.95V140.85V140.75H38.05L38.15 140.65V140.55V140.45V140.35V140.25V140.15H38.25L38.15 140.05L38.25 139.95V139.85L38.15 139.75V139.65V139.55V139.45H38.05L37.95 139.35L37.85 139.15L37.75 139.05L37.65 138.95H37.55V138.85L37.45 138.75L37.35 138.65H37.25L37.15 138.55H37.05V138.45H36.95V138.35H36.85L36.75 138.25L36.65 138.15H36.55L36.45 138.25H36.35H36.15L36.05 138.35H35.95H35.85H35.75H35.65H35.55H35.05H34.95H34.85H34.75H34.65L34.35 138.25H34.05H33.95H33.85H33.75H33.65V138.35H33.55H33.45H33.35H33.25V138.25H33.15H33.05H32.95L32.85 138.15H32.75H32.55H32.35H32.25L31.95 138.05H31.65H31.25L31.05 137.95H30.75H30.65H30.55H30.35H30.25H30.15H30.05V137.85V137.75H29.95V137.65L30.05 137.55V137.45V137.35H29.95V137.25H29.85V137.15H29.95V137.05H30.05V136.95H30.15V136.85V136.75V136.65H30.25V136.55H30.35V136.45V136.35V136.25H30.25V136.15H30.15V136.05H30.05V135.95V135.85L29.95 135.75L30.05 135.65L30.15 135.55H30.25V135.45H30.35V135.35V135.25V135.15H30.45V135.05H30.55V134.95V134.75V134.55L30.45 134.35V134.25V134.05L30.35 133.85V133.75V133.55V133.45V133.35V133.25V133.15H30.45L30.65 132.95H30.75L31.05 132.75H31.75L31.95 132.55H31.85L31.75 132.45L31.85 132.35V132.25L32.05 132.15L32.15 132.05H32.25V131.95V131.85L32.15 131.75L32.65 131.65H32.75L32.85 131.55H32.95H33.05L32.95 131.35H32.85V131.25H32.75H32.65L32.55 131.15H32.45H32.35L32.25 130.95V130.85V130.75L32.15 130.65L32.05 130.55V130.45V130.35V130.25H31.95H31.85H31.75H31.45L31.25 130.15L31.15 130.35V130.45H31.05V130.35L30.95 130.25V130.05L30.85 129.65L30.75 129.55L30.65 129.25L30.55 129.05L30.45 128.95L30.55 128.85V128.75V128.65V128.55V128.45V128.35V128.25H30.45L30.55 128.15V128.05V127.95L30.65 127.85V127.75V127.65V127.55V127.45V127.35H30.55V127.25H30.65V127.15L30.55 127.05V126.95H30.45V126.85V126.75V126.65V126.55V126.45L30.35 126.35V126.25V126.15L30.25 126.05V125.95H30.35V125.85V125.75V125.65V125.45V125.35V125.25V125.15V125.05H30.25V125.15H30.15H30.05L29.95 125.25H29.85H29.75V125.35H29.65H29.55H29.45V125.45L29.15 125.55H28.95L28.65 125.65L28.75 125.75V126.05L28.35 126.25H28.25L28.15 126.35H27.95L27.75 126.45L27.65 126.35L27.55 126.05L27.35 125.55V125.45H27.25H27.15H27.05H26.95V125.35H26.85V125.45H26.75V125.35L26.65 125.45H26.55V125.55H26.45H26.35H26.25H26.15H26.05V125.65H25.95V125.75H25.85V125.85H25.75H25.65V125.75V125.65H25.55H25.45L24.15 124.45L24.25 124.25L24.35 124.15L24.45 123.85L24.55 123.75L23.75 123.35L23.35 123.05L23.15 122.95L23.05 122.85H23.15L23.25 122.75L23.45 122.85V122.65L23.55 122.75H23.65V122.85L23.75 123.05L23.85 122.95L23.75 122.75V122.45L23.65 122.35V122.25H23.85L23.75 121.95H23.65V121.85H23.45V121.75V121.55V121.45V121.35H23.55H23.65L23.75 121.45H23.85L24.25 121.15L24.15 120.85H24.25V120.75H24.15V120.65H24.25V120.55L24.35 120.45H24.45H24.55V120.35L24.45 120.25L24.35 120.05L24.15 119.85L23.85 119.55L23.65 119.35L23.45 119.05V118.95L23.35 118.85H23.25V118.75H23.15V118.65L23.05 118.55L22.85 118.35H22.75H22.65V118.25L22.55 118.15V118.05H22.45L22.35 117.85V117.75V117.65H22.25L22.55 117.55V117.45L22.45 117.05V116.85V116.75L22.35 116.35V116.05V115.95L22.25 115.35V115.05V114.95V114.85L22.15 114.55V114.25V114.05V113.85V113.65L22.05 113.35V113.15L21.95 112.65V112.35V112.15V111.95L21.85 111.25L21.75 110.75V110.25H21.35L20.85 110.35H20.45H20.25L20.15 109.35L20.55 109.45L20.45 109.15H20.55L20.95 109.05H21.35L21.55 108.95V108.55L21.45 108.25L21.85 108.15H22.25L22.55 108.05H22.75H22.85L22.75 107.25L22.85 107.15H23.05H23.15H23.45L23.85 107.05V107.15H23.95H24.05V107.05H24.15H24.25V106.85L24.05 106.65V106.55L24.15 106.45L24.35 106.15V105.85V105.65V105.45H24.25L24.05 105.25L23.95 105.15L23.85 105.05V104.95H23.75V104.85H24.15L24.85 104.75V104.15L24.75 103.55L24.65 103.25L24.45 103.15L23.95 103.05H23.75H23.65L23.45 102.95H23.35H23.05H22.95H22.85H22.75V102.85L22.65 102.75L22.45 102.55L21.95 102.05L21.85 101.95H21.75L22.05 101.15L22.15 100.85L22.35 100.25H22.75V99.95V99.85L22.65 99.65V99.15L22.55 98.95V98.55V98.45V98.35L22.45 98.25V98.05L22.55 97.95H22.65H22.75V97.85L22.85 97.75V97.65V97.55L23.05 97.25L24.45 97.05V96.85V96.75L24.35 96.55L24.25 95.95L23.85 96.05H23.45L23.35 96.15H23.05H22.85H22.75H22.65L22.25 96.25L22.15 95.95V95.65L22.05 95.55V95.45L21.65 94.95L21.55 94.85L21.45 94.95H20.75L20.65 95.05H20.55H20.35H20.25L19.65 95.15V95.05V94.95L19.75 94.85V94.75V94.65V94.55H19.85V94.45V94.35V94.25V94.15H19.95V94.05V93.95H19.85V93.85H19.95V93.75L20.05 93.65V93.55V93.45V93.35V93.25V93.15V93.05H19.95V92.95L20.05 92.85V92.65V92.55V92.15V91.25L19.95 89.65V89.55V89.35V89.15V89.05V88.75L19.75 88.05V87.85L19.55 87.95L19.25 88.05L18.65 88.25L18.55 88.35H18.45H18.35H18.25H18.15H18.05H17.95L17.75 88.25H17.65H17.55H17.45L17.35 88.15H17.25H17.15H17.05L16.95 88.05H16.85L16.75 88.15H16.65H16.55H16.45H16.35H16.25H16.15L16.05 88.05H15.95L15.85 87.95H15.75H15.65L15.55 88.05V88.15L15.45 88.25V88.35V88.45L15.35 88.55L15.25 88.65H15.15H15.05V88.55L14.95 88.45H14.85H14.75H14.65H14.55H14.45L14.35 88.35L14.25 88.45L13.75 88.25L13.45 88.15H13.35L13.25 88.05L13.05 87.95L12.75 87.85H12.65H12.45L12.25 87.75H12.05H11.85H11.75L11.65 87.85H11.55L11.45 87.95L10.85 87.85H10.75L10.65 87.75V87.65L10.55 87.55V87.45L10.45 87.25V87.15H10.25H9.94995H9.54999H9.44995H9.34998H9.14996L8.94995 87.05H8.75L8.64996 86.95L8.75 86.75L8.94995 86.55V86.45L9.04999 86.35L9.34998 85.85L9.44995 85.65L9.94995 84.85V84.75L11.05 85.45H11.15V84.95L11.35 84.65L11.25 84.55L11.05 84.45V84.35V84.15V84.05V83.95H11.15L11.35 83.75L11.75 83.65H11.85L11.95 83.55H12.25L12.55 83.45H12.75H12.85H12.95H13.15H13.25L13.45 83.35V83.25V83.15V82.85H13.35V82.75L13.25 82.65V82.45L12.85 81.65L12.75 81.35L12.55 80.95L12.35 80.35L12.25 79.95L12.15 79.75L11.95 79.55L11.75 79.25L11.25 78.45L11.15 78.35V78.25L11.35 78.15L11.45 78.05L11.55 77.95L11.65 77.85V77.35V77.25L11.75 76.75V76.35L11.85 75.85V75.55V75.45V75.35L11.95 75.25L12.05 74.85L12.15 74.65V74.35L12.25 74.25V74.15L12.35 73.95L12.45 73.45L12.65 72.35V71.85L12.55 71.45L11.95 71.55H11.85H11.75L11.55 71.45H11.45L11.35 71.35H11.25H11.15V71.25H11.05H10.95H10.85H10.75H10.65V71.35V71.45L10.55 71.75V71.85V72.15L10.45 72.75V72.85V72.95V73.05H10.35L9.84998 72.95H9.44995L7.44995 72.75V72.65L7.34998 72.55L7.25 72.45L6.75 72.35H6.34998H6.44995V72.25V72.15H6.34998V72.05V71.95L6.25 71.85L5.84998 72.05L5.75 72.15H5.64996L5.54999 72.05L4.64996 71.65H4.54999L4.34998 71.45L4.04999 71.25L3.84998 71.15L3.54999 70.95L3.44995 70.85L3.04999 70.45L3.54999 70.05V69.95L3.44995 69.85L3.04999 69.35L3.25 69.15L3.64996 68.95V68.85H3.75V68.65L4.04999 68.55V68.45L4.34998 68.35L5.14996 68.05V67.95L5.04999 67.85L4.64996 66.95L4.25 67.15L3.84998 66.35H3.75H3.54999L2.94995 66.45V65.95L2.34998 65.75L2.25 65.45L2.34998 65.35L2.25 65.15V64.95L2.14996 64.85V64.75L2.04999 64.55V64.45L1.84998 64.15V64.05L1.75 63.85L2.14996 63.75H2.25L2.34998 63.65H2.54999L2.64996 63.55H2.75V63.45H2.94995L3.04999 63.35H3.14996H3.25V63.25V63.15L3.14996 63.05H3.34998L3.75 62.95L3.84998 62.85L4.04999 62.75L3.34998 61.95H3.44995L3.84998 61.55L4.04999 61.45L4.14996 61.35H4.34998H4.44995L4.64996 61.25H4.84998L5.34998 61.15H5.64996L5.94995 61.05H6.04999L6.14996 60.95L6.34998 60.85L6.14996 60.45L6.04999 60.25L5.94995 59.95L5.84998 59.85V59.75L5.75 59.45V59.35H5.64996H5.54999H5.44995L5.04999 59.25L4.25 59.05L3.84998 58.95L3.54999 58.85H3.44995L2.94995 58.75H2.84998H2.75V58.65H2.64996V58.45V58.35L2.54999 58.05L2.44995 57.85L2.34998 57.65V57.55L2.25 57.45V57.35H2.34998V57.25V57.15L2.54999 56.85V56.75V56.55L2.64996 56.45H2.75V56.25V56.05L2.64996 55.85V55.65V55.55H2.75V55.15V54.95L2.84998 54.85V54.65V54.55L2.94995 54.15V53.75L3.04999 53.35V53.05L3.14996 52.75V52.35V52.05L3.25 51.95V51.75V51.65L2.84998 51.25L2.44995 50.75L2.34998 50.85V50.75L2.44995 50.65L2.34998 50.55H2.25V50.45L2.34998 50.15V49.55V49.15L2.14996 49.05L2.25 48.35H1.54999L0.549988 48.45L0.649963 47.95V47.55L0.75 47.25V46.95L0.849976 46.45V45.65L0.949951 45.45V45.15L0.649963 44.95L0.549988 44.85L0.25 44.75V44.65H0.349976V44.55L0.449951 44.45V44.35L0.549988 44.25V44.15L0.649963 44.05V43.95L0.549988 43.85V43.65V43.55H0.449951V43.45L0.549988 43.25L0.649963 43.15V43.05V42.95L0.75 42.65V42.55H1.04999L1.34998 42.65H1.75H2.04999L2.64996 42.75L2.75 42.65L3.04999 42.35L3.14996 42.25L3.44995 42.05L3.84998 41.75L4.14996 41.65L4.34998 41.55L4.44995 41.25L4.75 40.95V40.85V40.45H3.84998L2.75 40.35V40.25L3.25 39.05L3.44995 38.55V38.45L3.64996 38.65H3.94995L4.14996 38.75L4.34998 38.85L4.54999 38.95L4.64996 38.75H4.84998H5.14996H5.64996L6.04999 38.85L6.14996 38.75V38.65V38.55H6.04999V38.45L5.94995 38.35L5.84998 38.25L5.75 38.15H5.64996L5.44995 37.85L5.34998 37.75V37.65L5.25 37.45L5.14996 37.35V37.25V37.15V36.85H5.54999L5.64996 36.05V35.55H5.84998L6.04999 35.45H6.54999H7.14996H7.25L7.14996 35.25H7.25V35.15L7.34998 35.05L7.25 34.85V34.75L7.34998 34.65L7.44995 34.45V34.35H7.54999L8.14996 34.25H8.25V34.15V34.05H8.14996V33.95L8.04999 33.75L7.94995 33.65L7.84998 33.35V33.15L7.94995 33.05L8.25 32.75V32.65H8.34998H8.44995L10.35 32.05L10.75 31.95L10.45 31.75V31.65L10.25 31.55V31.65V31.75H10.15H10.05V31.65H9.94995L9.84998 31.55V31.45L9.94995 31.35L10.05 31.25V31.15V31.05H9.84998L9.75 30.95L9.64996 30.85L9.54999 30.65H9.44995V30.55V30.35H9.04999L9.25 30.25L9.14996 29.95L9.04999 29.85V29.75H9.14996V29.65V29.55V29.25V28.95H8.75L8.44995 28.55L9.04999 28.35L9.25 28.15H9.34998V27.75V27.65L8.94995 27.55H8.64996H8.34998H8.25L8.14996 27.45L7.94995 27.35L7.14996 27.95L6.94995 27.65H6.84998L6.64996 27.45L6.44995 27.15L6.25 26.65L6.04999 26.25V26.15V26.05V25.95L6.14996 25.85L6.44995 24.95L6.75 24.35L6.84998 24.05L7.04999 23.75L7.25 23.35L7.34998 23.45L7.44995 23.55L7.54999 24.15H7.64996V24.25H7.75H7.84998V24.35H7.94995V24.45H8.34998L8.75 24.25L8.94995 24.15V24.05L9.04999 23.55L9.25 23.35L9.34998 23.15L9.64996 22.95V22.75H9.75L10.25 22.45V22.35L10.35 22.15L10.55 22.05H11.15L11.25 21.45L10.85 21.35L10.55 21.25L10.45 21.15L10.35 21.05L10.15 20.75L10.05 20.65L9.84998 20.55L8.94995 19.75V19.65L9.04999 19.45L9.14996 19.25L9.25 18.75L9.34998 18.45L9.44995 18.35V18.15V18.05L9.34998 17.95V17.85H9.44995H9.54999L10.45 17.75H10.55H10.75H10.85H10.95L11.05 17.85H11.15H11.25L11.45 17.95H11.85H12.05H12.15H12.25H12.35H12.45V17.85L12.65 17.65H12.75L13.15 17.25V17.15L13.05 17.05L12.85 16.85L12.65 16.55L12.45 16.45L12.25 16.15L12.05 15.95L11.85 15.75L11.65 15.45L11.55 15.35L11.35 15.05L11.15 14.65L11.05 14.55L10.55 13.65V13.55L10.25 13.15L10.15 12.95L10.05 12.85L9.75 12.45L9.64996 12.25L11.25 11.15H11.35H11.45L11.65 11.05L11.75 10.95L11.95 10.85L12.45 10.65L13.05 10.75L13.95 11.35L14.45 11.45L14.85 11.15L15.65 10.65L16.45 10.15L16.85 9.75V9.35001L16.95 8.85001L17.05 8.75H17.15L17.35 8.65001L17.55 8.55H17.65V8.45L17.95 8.35001L18.15 8.25L18.25 8.15001H18.45L18.35 7.95V7.85001V7.75V7.55L18.45 7.45L18.55 7.35001L18.85 7.25L18.95 7.15001L19.25 6.95L19.35 6.85001H19.45V6.75V6.65001V6.55V6.45V6.35001H19.35V6.25H19.45V6.15001H19.35V6.05H19.25L19.15 5.95H19.05V5.85001H18.95L18.85 5.65001V5.55V5.45V5.35001H18.75V5.25L18.85 5.15001V5.05H18.75H18.65V4.95V4.85001H18.55V4.75H18.65L18.45 4.55V4.45H18.35L18.15 4.05L18.05 3.75L17.95 3.55L17.85 3.35001L17.95 3.25V3.15001V3.05V2.95V2.75V2.55V2.25V2.15001V2.05V1.95L17.85 1.85001V1.75L17.75 1.65001V1.55V1.45V1.35001V1.15001V0.949997V0.850006H17.85V0.75H17.75V0.650009V0.550003V0.25H18.05L21.25 0.550003L22.65 0.25L23.55 0.350006L24.35 1.25L25.85 5.75L26.45 6.65001L27.45 7.15001L29.65 7.35001L30.55 7.75L31.75 8.55L33.55 9.25L37.25 8.55L39.75 9.05L40.15 8.75L40.65 8.45H40.85L41.35 8.25L41.85 8.05L41.95 7.85001V8.05L42.45 9.65001L42.55 10.85L42.85 11.55L43.15 11.85L46.15 14.15L50.65 15.45L51.45 15.65L53.15 17.25L54.25 19.05L54.35 19.15L55.75 20.55L57.15 20.45L60.55 20.25L61.35 19.95L61.95 19.55H62.05H62.25H62.35V19.45L62.45 19.35V19.25H62.55H62.65V19.15H62.75V19.05H62.85L62.95 18.95H63.05V18.85H63.15V18.75H63.25H63.35V18.65H63.45V18.55H63.55L63.65 18.45L63.75 18.35H63.85L64.05 18.25L64.25 18.05L64.35 17.95H64.45V17.85L64.55 17.75V17.65H64.65V17.55H64.75V17.45L64.85 17.35V17.25L64.95 17.15V17.05L65.05 16.85L65.15 16.65L65.25 16.55L65.35 16.35V16.25L65.45 16.15V16.05L65.55 15.95L65.65 15.85L65.75 15.75L65.95 15.65L66.05 15.45L66.25 15.35L66.45 15.15H66.55L66.75 15.05L68.05 16.15L68.15 16.25L70.95 23.55L72.05 25.15L73.55 26.15L75.45 26.55L77.45 26.15L79.35 25.15L81.25 24.75L83.15 25.95L84.05 26.45L87.05 26.75L87.65 27.55L88.25 29.35L89.05 32.65L90.35 35.35L91.85 36.45L93.65 36.95L95.65 37.85L98.35 40.45L99.35 40.85L100.75 40.95L102.25 40.65L103.75 40.05L105.05 39.25L105.65 38.65L106.25 38.05L107.75 36.55H107.85L107.95 36.45H108.15H108.35H108.45L108.75 36.35H109.25L109.85 36.25L110.15 36.15H110.25H110.35H110.45L110.75 36.05H110.95H111.15L112.55 36.45H112.65L115.15 37.15L115.35 37.25L115.95 37.95L115.75 39.55L115.25 40.25L114.95 40.65L112.95 41.75L112.05 42.65L111.45 44.25L111.15 45.15V45.75L111.45 47.65L111.85 48.45L112.45 49.95L114.45 53.05L116.85 55.85L117.35 57.05L117.25 58.45L116.55 61.05L116.45 63.85L116.25 64.35L116.15 64.45L116.05 64.55L115.95 64.65L115.85 64.75L114.95 65.25L113.95 66.05L112.35 68.65H112.15L112.05 68.75H111.95H111.85H111.75H111.65V68.85H111.45H111.35L111.15 68.95H111.05H110.95L110.85 69.05L110.75 69.15V69.25L110.65 69.35V69.45L110.55 69.55L110.45 69.65V69.75H110.35V69.85L110.25 69.95L110.15 70.05V70.15H110.05V70.25L109.95 70.35V70.45H109.85V70.55L109.65 70.75V70.95H109.55V71.05L108.35 71.85L106.95 73.25L105.85 75.05L105.65 76.15L105.45 78.35V78.45H105.35H105.15H104.95H104.85H104.75V78.35H104.65H104.55L104.45 78.25H104.35L104.15 78.15H104.05H103.95L103.75 78.05L103.55 77.95H103.35V77.85H103.25L103.05 77.95H102.95H102.85H102.75H102.65H102.55L102.45 78.05H102.35H102.15H101.85H101.65L101.55 78.15H101.45H101.35H101.25H101.15L101.05 78.25H100.95H100.75H100.65H100.55H100.45V78.35H100.35H100.25H100.15H100.05V78.25H99.95V78.15H99.85H99.75H99.65H99.55L99.45 78.25H99.35V78.35H99.25L99.15 78.45L99.05 78.55L98.95 78.65L98.85 78.75L98.75 78.85L98.65 78.95L98.55 79.05L98.35 79.25H98.25V79.35L98.05 79.45L97.95 79.55L97.85 79.65H97.75L97.55 79.75H97.45L97.35 79.65H97.25H97.15H96.85H96.75H96.55L96.35 79.55H96.25H96.15L96.05 79.45H95.85H95.75H95.55L95.35 79.35H95.25L95.15 79.25H95.05H94.95L94.85 79.15H94.75H94.65L94.55 79.05H94.45L93.95 78.95H93.85L93.35 79.35H93.25L93.05 79.45V79.55L92.85 79.65H92.75L92.85 79.75H92.95V79.85H93.05V79.95L93.15 80.05L93.35 79.85V79.95L93.45 80.05V80.15V80.25H93.35H93.25V80.35H93.35V80.45V80.55H93.25V80.65H93.15H93.05V80.75V80.85V80.95V81.05V81.15V81.25H92.95V81.35H92.85V81.45V81.55V81.65V81.75H92.95H93.05H93.15V81.85H93.05V81.95L92.95 82.05V82.15L92.85 82.25V82.35V82.45H92.75V82.55H92.65L92.55 82.65L92.45 82.75H92.35L92.45 82.85L92.55 82.95L92.65 83.15L92.75 83.25L92.85 83.35V83.45H92.95V83.55H93.05V83.65L92.95 85.15L93.55 86.05L94.65 86.75L95.55 87.65L96.25 89.05L96.65 90.05L97.15 90.85L98.35 91.35L102.35 92.25L104.15 92.05L104.75 92.15L105.25 92.65L106.25 93.85L106.85 94.15L107.95 93.55L108.45 92.85L108.85 92.35L109.25 91.95L109.75 91.45L111.05 91.55L112.05 92.85V94.35L111.85 94.45L111.75 94.65L111.35 95.05L111.15 95.25L110.85 95.65L110.45 96.05L110.05 96.45L109.65 96.95L109.05 97.65L108.75 98.05L108.35 98.45L108.15 98.65L107.65 98.55L107.45 98.45H107.35H107.25H107.15H107.05H106.95H106.85H106.75H106.65L106.55 98.35L106.25 98.15L106.15 98.05L105.95 97.95L105.65 97.85V97.75L105.35 97.65L105.05 97.45L104.75 97.25L104.55 97.15L104.15 96.85L103.75 96.65H103.65V96.55H103.55L103.35 96.45L102.85 96.25L102.35 96.15L101.95 96.05L101.55 95.85L101.15 95.65H100.85H100.75L100.65 95.75L100.45 95.65L100.35 95.55L100.15 95.45L99.65 95.25V95.15V95.05H99.55V94.95V94.85H99.45H99.35H99.25V94.95H99.15V95.05H99.05V95.15V95.25V95.35H98.95H98.85V95.45V95.55V95.65V95.75V95.85V95.95V96.05H98.95H99.05V96.15H99.15V96.25V96.35H99.05H98.95V96.45H98.85H98.75V96.35V96.25H98.65H98.55V96.35H98.45V96.45H98.55V96.55V96.65H98.65V96.75V96.85H98.55V96.95H98.45V97.05H98.35V97.15H98.25V97.25V97.35V97.45V97.55L97.25 98.75L96.75 99.55L96.45 100.35V100.45L96.35 100.55L96.25 100.75L96.05 101.05V101.15L94.75 101.65L94.35 102.25L91.25 112.55L90.75 114.45L92.75 114.35L93.05 114.15H93.15L93.35 114.05V114.15H93.45V114.25H93.55V114.35V114.45H93.65H93.75H93.85H93.95H94.05H94.15L94.25 114.35H94.35L94.45 114.45H94.55H94.65L94.75 114.55H94.85H94.95H95.05H95.15L95.25 114.65L95.35 114.55H95.45V114.45H95.55H95.65L95.75 114.55H95.85H95.95H96.05L96.15 114.45H96.25V114.35L96.35 114.25L96.75 114.35L97.65 114.45L99.75 114.65L100.25 115.05L100.75 115.35L101.05 115.45L101.95 116.75H102.05L102.45 118.75V119.35L102.55 119.75L102.75 120.05V120.35L102.55 120.95L102.05 121.15L101.65 121.05L101.35 121.15L101.55 122.35V122.45V122.55V122.65V122.75V122.85V122.95V123.05L101.65 123.15V123.25H101.75V123.35L101.85 123.55L101.95 123.65L102.05 123.75L102.15 123.85L102.65 124.15L102.95 124.25L104.15 126.85L104.65 128.75L104.75 129.15L104.95 129.65L105.05 129.85L105.15 129.95V130.05V130.15V130.25H105.25V130.35L105.35 130.45L105.45 130.55L104.35 131.65L103.55 132.75L102.45 133.65L101.35 134.55L100.05 135.65L103.55 137.85L104.55 137.75L104.85 137.65H104.75V137.75V137.95V138.05H104.85V138.15V138.25H104.95V138.35H104.85V138.45H104.95L105.05 138.35V138.45V138.55H105.15H105.25V138.45H105.35H105.45H105.55V138.35H105.65L105.55 138.25H105.65V138.15V138.05H105.75V137.95H105.85H105.95V137.85H106.05V137.75H105.95V137.65H105.85V137.55H105.95H106.05V137.45H106.15V137.35V137.25V137.15L107.15 136.75L108.25 137.05L109.05 138.25L108.85 139.75L108.25 141.15L107.65 141.75H107.25L106.95 141.65H106.65H106.45H106.35V142.25L106.25 142.95L104.95 144.05L103.95 145.15L101.45 149.95L100.85 151.35L100.75 153.15L100.95 153.85L101.05 154.05L101.45 155.45V155.85L101.35 155.75V155.85H101.25H101.15V155.75H101.05H100.95V155.85H100.85H100.75H100.65H100.55H100.45H100.35H100.25H100.15H100.05H99.85L99.65 155.95H99.55L99.45 155.85H99.35L99.25 155.95H99.15H98.95H98.85H98.75H98.65H98.55H98.45H98.35H98.25H98.05V156.05H98.15V156.15V156.25V156.35H98.25V156.45H98.35V156.55V156.65V156.75H98.15L97.65 157.15L97.25 157.85L97.35 158.25L97.75 158.65L98.25 159.45L98.95 161.15L99.05 161.85L98.95 163.05L98.75 163.65L98.25 164.75L98.15 165.45V165.95L98.35 167.05V167.45L98.15 168.75H98.05H97.95H97.85V168.65H97.75H97.65H97.55H97.45H97.35V168.75V168.85V168.95V169.05V169.15V169.25L97.45 169.45V169.65V169.75V169.95V170.05V170.15V170.25V170.45V170.55H97.35H97.25H97.15V170.45H97.05V170.55H96.95V170.65L96.85 170.85L96.75 170.95L96.65 171.05L96.55 171.35L96.35 171.65L96.25 171.85H96.15V171.95H96.05H95.95H95.85V171.85H95.75H95.55H95.45H95.35H95.15H94.85L94.45 171.75H94.15L93.65 171.65H93.35H93.15H92.75L92.15 171.55H91.85L91.45 171.25H91.35H91.25V171.15H91.15L91.05 171.25V171.15H90.95L90.85 171.05H90.75L90.65 171.15V171.05H90.55H90.45H90.35V171.15H90.25L89.75 171.25H89.65H89.45H89.25H89.15H89.05H88.85H88.65H88.35H88.05H87.65H87.55H87.45H87.35V171.35H87.25V171.45L87.15 171.55H87.05V171.65H86.95H86.85V171.75H86.75V171.85H86.65H86.55H86.45V171.95H86.15H86.05V171.85L85.85 171.55L85.75 171.65L85.55 171.75L85.35 171.95L85.15 172.05V172.15L84.85 171.75L84.55 171.35L84.15 170.95L83.65 170.35L83.15 169.65L83.05 169.55V169.45H82.95H82.85V169.55H82.75H82.65H82.55H82.45H82.35H82.25V169.65H82.15V169.75H82.05V169.85H81.95H81.85H81.75V169.95H81.65V170.05H81.55H81.45H81.35V169.95V169.85H81.25H81.15V169.95H81.05V170.05L80.95 170.15V170.25L80.85 170.45L80.75 170.65V170.75V170.85V170.95V171.05V171.15H80.65H80.55H80.45V171.25H80.35L80.25 171.35V171.45L80.15 171.55H80.05V171.65H79.95H79.85H79.75H79.65V171.55V171.45L79.55 171.35L79.45 171.25L79.35 170.95L79.25 170.65L79.15 170.45L79.05 170.25L78.95 169.95L78.75 169.55L78.55 169.05L78.45 168.65H78.35H78.25H77.95L77.65 168.55H77.35H77.05H76.85H76.75H76.65L76.45 168.65H76.55V168.75V168.85V168.95H76.45H76.35H76.25H75.95H75.75H75.45H75.25H75.05H74.85H74.45H74.35H74.05H73.95H73.85H73.55H73.45H73.35H73.25H73.15H72.85H72.65H72.25H71.95H71.65H71.15H71.05V169.05H70.95L70.85 169.15V169.25V169.35V169.45H70.75V169.55V169.65H70.65L70.75 169.75V169.85V169.95H70.65H70.55H70.35H70.05H69.95H69.65H69.35H68.95H68.55H68.35H68.25H68.15H68.05H67.95V170.05L67.85 170.15H67.75V170.25V170.35H67.65V170.45H67.55H67.45H67.35V170.35H67.25V170.25H67.15V170.15H67.05V170.05L66.95 170.15H66.85H66.75H66.55H66.45V170.25V170.35V170.65V170.75H66.25H66.15H65.95H65.65H65.35H65.05H64.85H64.45V170.55V170.15H64.25H64.15H64.05H63.95H63.85H63.65H63.55H63.35H63.25H63.15H63.05V170.05V169.75V169.25V168.75H62.95H62.65Z" fill="#220F0F"/>
<path d="M50.05 156.05L49.95 156.15V156.25H49.85L50.05 156.65L50.25 157.15L50.35 157.25V157.35V157.45V157.55H50.45V157.65L50.65 157.85L50.75 157.95L50.85 157.85V157.75H50.95H51.15H51.45L51.75 157.85H52.05H52.75L53.85 157.95H54.05H54.15H54.25H54.35H54.65H54.85L54.95 158.05H55.05H55.25H55.35H55.45H55.65H55.75H56.05V158.15H56.15H56.25H56.35H56.45H57.45H57.65L57.95 158.25H58.25H58.55H58.75L59.15 158.35H59.55H59.75H60.15L60.35 158.45H60.45H60.65H60.75H60.85H60.95V158.55V158.85V158.95V159.05L61.05 159.15V159.25V159.55L61.15 159.95L61.05 160.65V161.05L60.95 161.35V161.45V161.55V161.65L60.85 161.75V161.85V161.95V162.05V162.15V162.25H60.95V162.15H61.05V162.25H61.15H61.25V162.35V162.45H61.35H61.45V162.35H61.55L61.65 162.45H61.55L61.45 162.65L61.55 162.75H61.65L61.75 162.85V162.95H61.85H61.95V162.85H62.05H62.15V162.75V162.65H62.25L62.35 162.75H62.45V162.65V162.55H62.55V162.45H62.65V162.55L62.75 162.65V162.75V162.85H62.85H62.95V162.95H62.85V163.05H62.95V163.15V163.25H63.05H63.15V163.35V163.45H63.25H63.35H63.45V163.55V163.65L63.25 163.95L62.95 164.95L62.75 165.35V165.55L62.55 165.85L62.45 166.05L62.25 166.65V166.75V166.85V167.05L62.35 167.45L62.45 168.15L62.55 168.35L62.65 168.55V168.65V168.75H62.95H63.05V169.25V169.75V170.05V170.15H63.15H63.25H63.35H63.55H63.65H63.85H63.95H64.05H64.15H64.25H64.45V170.55V170.75H64.85H65.05H65.35H65.65H65.95H66.15H66.25H66.45V170.65V170.35V170.25V170.15H66.55H66.75H66.85H66.95L67.05 170.05V170.15H67.15V170.25H67.25V170.35H67.35V170.45H67.45H67.55M50.05 156.05H50.15M50.05 156.05L49.95 155.75V155.65L49.75 155.75L49.65 155.55L49.55 155.45V155.35H49.45L49.55 155.15H49.65H49.75L49.85 155.05L50.15 154.35L50.25 154.25L50.35 154.15H50.25L50.05 153.95L50.25 153.45V153.35V153.25V153.15V153.05L50.15 153.15V153.25L50.05 153.35V153.45H49.95V153.55V153.65L49.85 153.75V153.85L49.75 153.95V154.05H49.65L49.55 153.95V153.85H49.45H49.35L49.25 153.75H49.15L49.05 153.65H48.95L48.85 153.55L48.75 153.35L48.85 153.25L48.95 153.15L49.05 153.05H49.15H49.25L49.35 152.95L49.45 152.85L49.55 152.75L49.65 152.55L49.55 152.45H49.45V152.35L49.15 152.25L49.25 152.05V151.95V151.85H49.35V151.75V151.65V151.55L49.45 151.35V151.25L49.55 150.85L49.65 150.75V150.65V150.55L49.75 150.35V150.25V150.15H49.65H49.45H49.35V150.05V149.95H49.25H49.15V150.05H49.05V149.95H48.95V150.05H48.85H48.75V149.95L48.65 149.85V149.75H48.55H48.45L48.35 149.65V149.55H48.25H48.15H48.05H47.95H47.85V149.45V149.35V149.25V149.15L47.75 149.05V149.15H47.65V149.25H47.55V149.35H47.45H47.35V149.25V149.15H47.25H47.15V149.05V148.95H47.05H46.95H46.85H46.75V149.05H46.65L46.55 148.95H46.45H46.35V148.85H46.25H46.15V148.75H46.05H45.95H45.85V148.85H45.75V148.75L45.65 148.85V148.75H45.55H45.45V148.65H45.35H45.25V148.55H45.15H45.05H44.95H44.85V148.45H44.75L44.65 148.35L44.35 148.25H44.15L44.05 148.15H43.85L43.75 148.05H43.65H43.55V147.95H43.45H43.25L43.45 146.95H43.35L43.25 146.85H43.15H43.05L42.95 146.95H42.75H42.65H42.55H42.45H42.35H42.25V146.85V146.75V146.65H42.35V146.55H42.25H42.15H41.85H41.45H41.25H41.05H40.85L40.75 146.65L40.65 146.75H40.55L40.45 146.65H40.35L40.05 146.45L39.85 146.35H39.75L39.65 146.25H39.55V146.15H39.45H39.35H39.25L39.15 146.05L39.05 145.95H38.95H38.85V145.85M38.85 145.85H38.75M38.85 145.85V145.75V145.65H38.75V145.55H38.65V145.45V145.35H38.55V145.25H38.65V145.15H38.75V145.05V144.95L38.85 144.85H38.95V144.75V144.65H39.05H39.15H39.25V144.55V144.45H39.35V144.35H39.25H39.15V144.25V144.15V144.05L39.25 143.95V143.85V143.75H39.35V143.65V143.55M39.35 143.55H39.45M39.35 143.55V143.45H39.25V143.35H39.15V143.25V143.15H39.05H38.95V143.05V142.95H38.85V142.85H38.75L38.65 142.75V142.65L38.55 142.55H38.45V142.45V142.35V142.25L38.35 142.15V142.05V141.95H38.25V141.85H38.15V141.75V141.65V141.55V141.45V141.35H38.25V141.25H38.15V141.15V141.05V140.95V140.85V140.75H38.05L38.15 140.65V140.55V140.45V140.35V140.25V140.15H38.25L38.15 140.05L38.25 139.95V139.85L38.15 139.75V139.65V139.55V139.45H38.05L37.95 139.35L37.85 139.15L37.75 139.05L37.65 138.95H37.55V138.85L37.45 138.75L37.35 138.65H37.25L37.15 138.55H37.05V138.45H36.95V138.35H36.85L36.75 138.25L36.65 138.15H36.55L36.45 138.25H36.35H36.15L36.05 138.35H35.95H35.85H35.75H35.65H35.55H35.05H34.95H34.85H34.75H34.65L34.35 138.25H34.05H33.95H33.85H33.75H33.65V138.35H33.55H33.45H33.35H33.25V138.25H33.15H33.05H32.95L32.85 138.15H32.75H32.55H32.35H32.25L31.95 138.05H31.65H31.25L31.05 137.95H30.75H30.65H30.55H30.35H30.25H30.15H30.05V137.85V137.75H29.95V137.65L30.05 137.55V137.45V137.35H29.95V137.25H29.85V137.15H29.95V137.05H30.05V136.95H30.15V136.85V136.75V136.65H30.25V136.55H30.35V136.45V136.35V136.25H30.25V136.15H30.15V136.05H30.05V135.95V135.85L29.95 135.75L30.05 135.65L30.15 135.55H30.25V135.45H30.35V135.35V135.25V135.15H30.45V135.05H30.55V134.95V134.75V134.55L30.45 134.35V134.25V134.05L30.35 133.85V133.75V133.55V133.45V133.35V133.25V133.15H30.45L30.65 132.95H30.75L31.05 132.75H31.75L31.95 132.55H31.85L31.75 132.45L31.85 132.35V132.25L32.05 132.15L32.15 132.05H32.25V131.95V131.85L32.15 131.75L32.65 131.65H32.75L32.85 131.55H32.95M32.95 131.55V131.65M32.95 131.55H33.05L32.95 131.35H32.85V131.25H32.75H32.65L32.55 131.15H32.45H32.35L32.25 130.95V130.85V130.75L32.15 130.65L32.05 130.55V130.45V130.35V130.25H31.95H31.85H31.75H31.45L31.25 130.15L31.15 130.35V130.45H31.05V130.35L30.95 130.25V130.05L30.85 129.65L30.75 129.55L30.65 129.25L30.55 129.05L30.45 128.95L30.55 128.85V128.75V128.65V128.55V128.45V128.35V128.25H30.45L30.55 128.15V128.05V127.95L30.65 127.85V127.75V127.65V127.55V127.45V127.35H30.55V127.25H30.65V127.15L30.55 127.05V126.95H30.45V126.85V126.75V126.65V126.55V126.45L30.35 126.35V126.25V126.15L30.25 126.05V125.95H30.35V125.85V125.75V125.65V125.45V125.35V125.25V125.15V125.05H30.25V125.15H30.15H30.05L29.95 125.25H29.85H29.75V125.35H29.65H29.55H29.45V125.45L29.15 125.55H28.95L28.65 125.65L28.75 125.75V126.05L28.35 126.25H28.25L28.15 126.35H27.95L27.75 126.45L27.65 126.35L27.55 126.05L27.35 125.55V125.45H27.25H27.15H27.05H26.95V125.35H26.85V125.45H26.75V125.35L26.65 125.45H26.55V125.55H26.45H26.35H26.25H26.15H26.05V125.65H25.95V125.75H25.85V125.85H25.75H25.65V125.75V125.65H25.55H25.45L24.15 124.45L24.25 124.25L24.35 124.15L24.45 123.85L24.55 123.75L23.75 123.35L23.35 123.05L23.15 122.95L23.05 122.85H23.15L23.25 122.75L23.45 122.85V122.65L23.55 122.75H23.65V122.85L23.75 123.05L23.85 122.95L23.75 122.75V122.45L23.65 122.35V122.25H23.85L23.75 121.95H23.65V121.85H23.45V121.75V121.55V121.45V121.35H23.55H23.65L23.75 121.45H23.85L24.25 121.15L24.15 120.85H24.25V120.75H24.15V120.65H24.25V120.55L24.35 120.45H24.45H24.55V120.35L24.45 120.25L24.35 120.05L24.15 119.85L23.85 119.55L23.65 119.35L23.45 119.05V118.95L23.35 118.85H23.25V118.75H23.15V118.65L23.05 118.55L22.85 118.35H22.75H22.65V118.25L22.55 118.15V118.05H22.45L22.35 117.85V117.75V117.65H22.25L22.55 117.55V117.45L22.45 117.05V116.85V116.75L22.35 116.35V116.05V115.95L22.25 115.35V115.05V114.95V114.85L22.15 114.55V114.25V114.05V113.85V113.65L22.05 113.35V113.15L21.95 112.65V112.35V112.15V111.95L21.85 111.25L21.75 110.75V110.25H21.35L20.85 110.35H20.45H20.25L20.15 109.35L20.55 109.45L20.45 109.15H20.55L20.95 109.05H21.35L21.55 108.95V108.55L21.45 108.25L21.85 108.15H22.25L22.55 108.05H22.75H22.85L22.75 107.25L22.85 107.15H23.05H23.15H23.45L23.85 107.05V107.15H23.95H24.05V107.05H24.15H24.25V106.85L24.05 106.65V106.55L24.15 106.45L24.35 106.15V105.85V105.65V105.45H24.25L24.05 105.25L23.95 105.15L23.85 105.05V104.95H23.75V104.85H24.15L24.85 104.75V104.15L24.75 103.55L24.65 103.25L24.45 103.15L23.95 103.05H23.75H23.65L23.45 102.95H23.35H23.05H22.95H22.85H22.75V102.85L22.65 102.75L22.45 102.55L21.95 102.05L21.85 101.95H21.75L22.05 101.15L22.15 100.85L22.35 100.25H22.75V99.95V99.85L22.65 99.65V99.15L22.55 98.95V98.55V98.45V98.35L22.45 98.25V98.05L22.55 97.95H22.65H22.75V97.85L22.85 97.75V97.65V97.55L23.05 97.25L24.45 97.05V96.85V96.75L24.35 96.55L24.25 95.95L23.85 96.05H23.45L23.35 96.15H23.05H22.85H22.75H22.65L22.25 96.25L22.15 95.95V95.65L22.05 95.55V95.45L21.65 94.95L21.55 94.85L21.45 94.95H20.75L20.65 95.05H20.55H20.35H20.25L19.65 95.15V95.05V94.95L19.75 94.85V94.75V94.65V94.55H19.85V94.45V94.35V94.25V94.15H19.95V94.05M19.95 94.05H19.85M19.95 94.05V93.95H19.85V93.85H19.95V93.75L20.05 93.65V93.55V93.45V93.35V93.25V93.15V93.05H19.95V92.95L20.05 92.85V92.65V92.55V92.15V91.25L19.95 89.65V89.55V89.35V89.15V89.05V88.75L19.75 88.05V87.85L19.55 87.95L19.25 88.05L18.65 88.25L18.55 88.35H18.45H18.35H18.25H18.15H18.05H17.95L17.75 88.25H17.65H17.55H17.45L17.35 88.15H17.25H17.15H17.05L16.95 88.05H16.85L16.75 88.15H16.65H16.55H16.45H16.35H16.25H16.15L16.05 88.05H15.95L15.85 87.95H15.75H15.65L15.55 88.05V88.15L15.45 88.25V88.35V88.45L15.35 88.55L15.25 88.65H15.15H15.05V88.55L14.95 88.45H14.85H14.75H14.65H14.55H14.45L14.35 88.35L14.25 88.45L13.75 88.25L13.45 88.15H13.35L13.25 88.05L13.05 87.95L12.75 87.85H12.65H12.45L12.25 87.75H12.05H11.85H11.75L11.65 87.85H11.55L11.45 87.95L10.85 87.85H10.75L10.65 87.75V87.65L10.55 87.55V87.45L10.45 87.25V87.15H10.25H9.94995H9.54999H9.44995H9.34998H9.14996L8.94995 87.05H8.75L8.64996 86.95L8.75 86.75L8.94995 86.55V86.45L9.04999 86.35L9.34998 85.85L9.44995 85.65L9.94995 84.85V84.75L11.05 85.45H11.15V84.95L11.35 84.65L11.25 84.55L11.05 84.45V84.35V84.15V84.05V83.95H11.15L11.35 83.75L11.75 83.65H11.85L11.95 83.55H12.25L12.55 83.45H12.75H12.85H12.95H13.15H13.25L13.45 83.35V83.25V83.15V82.85H13.35V82.75L13.25 82.65V82.45L12.85 81.65L12.75 81.35L12.55 80.95L12.35 80.35L12.25 79.95L12.15 79.75L11.95 79.55L11.75 79.25L11.25 78.45L11.15 78.35V78.25L11.35 78.15L11.45 78.05L11.55 77.95L11.65 77.85V77.35V77.25L11.75 76.75V76.35L11.85 75.85V75.55V75.45V75.35L11.95 75.25L12.05 74.85L12.15 74.65V74.35L12.25 74.25V74.15L12.35 73.95L12.45 73.45L12.65 72.35V71.85L12.55 71.45L11.95 71.55H11.85H11.75L11.55 71.45H11.45L11.35 71.35H11.25H11.15V71.25H11.05H10.95H10.85H10.75H10.65V71.35V71.45L10.55 71.75V71.85V72.15L10.45 72.75V72.85V72.95V73.05H10.35L9.84998 72.95H9.44995L7.44995 72.75V72.65L7.34998 72.55L7.25 72.45L6.75 72.35H6.34998H6.44995V72.25V72.15H6.34998V72.05V71.95L6.25 71.85L5.84998 72.05L5.75 72.15H5.64996L5.54999 72.05L4.64996 71.65H4.54999L4.34998 71.45L4.04999 71.25L3.84998 71.15L3.54999 70.95L3.44995 70.85L3.04999 70.45L3.54999 70.05V69.95L3.44995 69.85L3.04999 69.35L3.25 69.15L3.64996 68.95V68.85H3.75V68.65L4.04999 68.55V68.45L4.34998 68.35L5.14996 68.05V67.95L5.04999 67.85L4.64996 66.95L4.25 67.15L3.84998 66.35H3.75H3.54999L2.94995 66.45V65.95L2.34998 65.75L2.25 65.45L2.34998 65.35L2.25 65.15V64.95L2.14996 64.85V64.75L2.04999 64.55V64.45L1.84998 64.15V64.05L1.75 63.85L2.14996 63.75H2.25L2.34998 63.65H2.54999L2.64996 63.55H2.75V63.45H2.94995L3.04999 63.35H3.14996H3.25V63.25V63.15L3.14996 63.05H3.34998L3.75 62.95L3.84998 62.85L4.04999 62.75L3.34998 61.95H3.44995L3.84998 61.55L4.04999 61.45L4.14996 61.35H4.34998H4.44995L4.64996 61.25H4.84998L5.34998 61.15H5.64996L5.94995 61.05H6.04999L6.14996 60.95L6.34998 60.85L6.14996 60.45L6.04999 60.25L5.94995 59.95L5.84998 59.85V59.75L5.75 59.45V59.35H5.64996H5.54999H5.44995L5.04999 59.25L4.25 59.05L3.84998 58.95L3.54999 58.85H3.44995L2.94995 58.75H2.84998H2.75V58.65H2.64996V58.45V58.35L2.54999 58.05L2.44995 57.85L2.34998 57.65V57.55L2.25 57.45V57.35H2.34998V57.25V57.15L2.54999 56.85V56.75V56.55L2.64996 56.45H2.75V56.25V56.05L2.64996 55.85V55.65V55.55H2.75V55.15V54.95L2.84998 54.85V54.65V54.55L2.94995 54.15V53.75L3.04999 53.35V53.05L3.14996 52.75V52.35V52.05L3.25 51.95V51.75V51.65L2.84998 51.25L2.44995 50.75L2.34998 50.85M2.34998 50.85V50.95M2.34998 50.85V50.75L2.44995 50.65L2.34998 50.55H2.25V50.45L2.34998 50.15V49.55V49.15L2.14996 49.05L2.25 48.35H1.54999L0.549988 48.45L0.649963 47.95V47.55L0.75 47.25V46.95L0.849976 46.45V45.65L0.949951 45.45V45.15L0.649963 44.95L0.549988 44.85L0.25 44.75V44.65H0.349976V44.55L0.449951 44.45V44.35L0.549988 44.25V44.15L0.649963 44.05V43.95L0.549988 43.85V43.65V43.55H0.449951V43.45L0.549988 43.25L0.649963 43.15V43.05V42.95L0.75 42.65V42.55H1.04999L1.34998 42.65H1.75H2.04999L2.64996 42.75L2.75 42.65L3.04999 42.35L3.14996 42.25L3.44995 42.05L3.84998 41.75L4.14996 41.65L4.34998 41.55L4.44995 41.25L4.75 40.95V40.85V40.45H3.84998L2.75 40.35V40.25L3.25 39.05L3.44995 38.55V38.45L3.64996 38.65H3.94995L4.14996 38.75L4.34998 38.85L4.54999 38.95L4.64996 38.75H4.84998H5.14996H5.64996L6.04999 38.85L6.14996 38.75V38.65V38.55H6.04999V38.45L5.94995 38.35L5.84998 38.25L5.75 38.15H5.64996L5.44995 37.85L5.34998 37.75V37.65L5.25 37.45L5.14996 37.35V37.25V37.15V36.85H5.54999L5.64996 36.05V35.55H5.84998L6.04999 35.45H6.54999H7.14996H7.25L7.14996 35.25H7.25V35.15L7.34998 35.05L7.25 34.85V34.75L7.34998 34.65L7.44995 34.45V34.35H7.54999L8.14996 34.25H8.25V34.15V34.05H8.14996V33.95L8.04999 33.75L7.94995 33.65L7.84998 33.35V33.15L7.94995 33.05L8.25 32.75V32.65H8.34998H8.44995L10.35 32.05L10.75 31.95L10.45 31.75V31.65L10.25 31.55V31.65V31.75H10.15H10.05V31.65H9.94995L9.84998 31.55V31.45L9.94995 31.35L10.05 31.25M10.05 31.25H9.94995M10.05 31.25V31.15V31.05H9.84998L9.75 30.95L9.64996 30.85L9.54999 30.65H9.44995V30.55V30.35H9.04999L9.25 30.25L9.14996 29.95L9.04999 29.85V29.75H9.14996V29.65V29.55V29.25V28.95H8.75L8.44995 28.55L9.04999 28.35L9.25 28.15H9.34998V27.75V27.65L8.94995 27.55H8.64996H8.34998H8.25L8.14996 27.45L7.94995 27.35L7.14996 27.95L6.94995 27.65H6.84998L6.64996 27.45L6.44995 27.15L6.25 26.65L6.04999 26.25V26.15V26.05V25.95L6.14996 25.85L6.44995 24.95L6.75 24.35L6.84998 24.05L7.04999 23.75L7.25 23.35L7.34998 23.45L7.44995 23.55L7.54999 24.15H7.64996V24.25H7.75H7.84998V24.35H7.94995V24.45H8.34998L8.75 24.25L8.94995 24.15V24.05L9.04999 23.55L9.25 23.35L9.34998 23.15L9.64996 22.95V22.75H9.75L10.25 22.45V22.35L10.35 22.15L10.55 22.05H11.15L11.25 21.45L10.85 21.35L10.55 21.25L10.45 21.15L10.35 21.05L10.15 20.75L10.05 20.65L9.84998 20.55L8.94995 19.75V19.65L9.04999 19.45L9.14996 19.25L9.25 18.75L9.34998 18.45L9.44995 18.35V18.15V18.05L9.34998 17.95V17.85H9.44995H9.54999L10.45 17.75H10.55H10.75H10.85H10.95L11.05 17.85H11.15H11.25L11.45 17.95H11.85H12.05H12.15H12.25H12.35H12.45V17.85L12.65 17.65H12.75L13.15 17.25V17.15L13.05 17.05L12.85 16.85L12.65 16.55L12.45 16.45L12.25 16.15L12.05 15.95L11.85 15.75L11.65 15.45L11.55 15.35L11.35 15.05L11.15 14.65L11.05 14.55L10.55 13.65V13.55L10.25 13.15L10.15 12.95L10.05 12.85L9.75 12.45L9.64996 12.25L11.25 11.15H11.35H11.45L11.65 11.05L11.75 10.95L11.95 10.85L12.45 10.65L13.05 10.75L13.95 11.35L14.45 11.45L14.85 11.15L15.65 10.65L16.45 10.15L16.85 9.75V9.35001L16.95 8.85001L17.05 8.75H17.15L17.35 8.65001L17.55 8.55H17.65V8.45L17.95 8.35001L18.15 8.25L18.25 8.15001H18.45L18.35 7.95V7.85001V7.75V7.55L18.45 7.45L18.55 7.35001L18.85 7.25L18.95 7.15001L19.25 6.95L19.35 6.85001H19.45V6.75V6.65001V6.55V6.45V6.35001H19.35V6.25H19.45V6.15001H19.35V6.05H19.25L19.15 5.95H19.05V5.85001H18.95L18.85 5.65001V5.55V5.45V5.35001H18.75V5.25L18.85 5.15001V5.05H18.75H18.65V4.95V4.85001H18.55V4.75H18.65L18.45 4.55V4.45H18.35L18.15 4.05L18.05 3.75L17.95 3.55L17.85 3.35001L17.95 3.25V3.15001V3.05V2.95V2.75V2.55V2.25V2.15001V2.05V1.95L17.85 1.85001V1.75L17.75 1.65001V1.55V1.45V1.35001V1.15001V0.949997V0.850006H17.85V0.75H17.75V0.650009V0.550003V0.25H18.05L21.25 0.550003L22.65 0.25L23.55 0.350006L24.35 1.25L25.85 5.75L26.45 6.65001L27.45 7.15001L29.65 7.35001L30.55 7.75L31.75 8.55L33.55 9.25L37.25 8.55L39.75 9.05L40.15 8.75L40.65 8.45H40.85L41.35 8.25L41.85 8.05L41.95 7.85001V8.05L42.45 9.65001L42.55 10.85L42.85 11.55L43.15 11.85L46.15 14.15L50.65 15.45L51.45 15.65L53.15 17.25L54.25 19.05L54.35 19.15L55.75 20.55L57.15 20.45L60.55 20.25L61.35 19.95L61.95 19.55H62.05H62.25H62.35V19.45L62.45 19.35V19.25H62.55H62.65V19.15H62.75V19.05H62.85L62.95 18.95H63.05V18.85H63.15V18.75H63.25H63.35V18.65H63.45V18.55H63.55L63.65 18.45L63.75 18.35H63.85L64.05 18.25L64.25 18.05L64.35 17.95H64.45V17.85L64.55 17.75V17.65H64.65V17.55H64.75V17.45L64.85 17.35V17.25L64.95 17.15V17.05L65.05 16.85L65.15 16.65L65.25 16.55L65.35 16.35V16.25L65.45 16.15V16.05L65.55 15.95L65.65 15.85L65.75 15.75L65.95 15.65L66.05 15.45L66.25 15.35L66.45 15.15H66.55L66.75 15.05L68.05 16.15L68.15 16.25L70.95 23.55L72.05 25.15L73.55 26.15L75.45 26.55L77.45 26.15L79.35 25.15L81.25 24.75L83.15 25.95L84.05 26.45L87.05 26.75L87.65 27.55L88.25 29.35L89.05 32.65L90.35 35.35L91.85 36.45L93.65 36.95L95.65 37.85L98.35 40.45L99.35 40.85L100.75 40.95L102.25 40.65L103.75 40.05L105.05 39.25L105.65 38.65L106.25 38.05L107.75 36.55H107.85L107.95 36.45H108.15H108.35H108.45L108.75 36.35H109.25L109.85 36.25L110.15 36.15H110.25H110.35H110.45L110.75 36.05H110.95H111.15L112.55 36.45H112.65L115.15 37.15L115.35 37.25L115.95 37.95L115.75 39.55L115.25 40.25L114.95 40.65L112.95 41.75L112.05 42.65L111.45 44.25L111.15 45.15V45.75L111.45 47.65L111.85 48.45L112.45 49.95L114.45 53.05L116.85 55.85L117.35 57.05L117.25 58.45L116.55 61.05L116.45 63.85L116.25 64.35L116.15 64.45L116.05 64.55L115.95 64.65L115.85 64.75L114.95 65.25L113.95 66.05L112.35 68.65H112.15L112.05 68.75H111.95H111.85H111.75H111.65V68.85H111.45H111.35L111.15 68.95H111.05H110.95L110.85 69.05L110.75 69.15V69.25L110.65 69.35V69.45L110.55 69.55L110.45 69.65V69.75H110.35V69.85L110.25 69.95L110.15 70.05V70.15H110.05V70.25L109.95 70.35V70.45H109.85V70.55L109.65 70.75V70.95H109.55V71.05L108.35 71.85L106.95 73.25L105.85 75.05L105.65 76.15L105.45 78.35V78.45H105.35H105.15H104.95H104.85H104.75V78.35H104.65H104.55L104.45 78.25H104.35L104.15 78.15H104.05H103.95L103.75 78.05L103.55 77.95H103.35V77.85H103.25L103.05 77.95H102.95H102.85H102.75H102.65H102.55L102.45 78.05H102.35H102.15H101.85H101.65L101.55 78.15H101.45H101.35H101.25H101.15L101.05 78.25H100.95H100.75H100.65H100.55H100.45V78.35H100.35H100.25H100.15H100.05V78.25H99.95V78.15H99.85H99.75H99.65H99.55L99.45 78.25H99.35V78.35H99.25L99.15 78.45L99.05 78.55L98.95 78.65L98.85 78.75L98.75 78.85L98.65 78.95L98.55 79.05L98.35 79.25H98.25V79.35L98.05 79.45L97.95 79.55L97.85 79.65H97.75L97.55 79.75H97.45L97.35 79.65H97.25H97.15H96.85H96.75H96.55L96.35 79.55H96.25H96.15L96.05 79.45H95.85H95.75H95.55L95.35 79.35H95.25L95.15 79.25H95.05H94.95L94.85 79.15H94.75H94.65L94.55 79.05H94.45L93.95 78.95H93.85L93.35 79.35H93.25L93.05 79.45V79.55L92.85 79.65H92.75L92.85 79.75H92.95V79.85H93.05V79.95L93.15 80.05L93.35 79.85V79.95L93.45 80.05V80.15V80.25H93.35H93.25V80.35H93.35V80.45V80.55H93.25V80.65H93.15H93.05V80.75V80.85V80.95V81.05V81.15V81.25H92.95V81.35H92.85V81.45V81.55V81.65V81.75H92.95H93.05H93.15V81.85H93.05V81.95L92.95 82.05V82.15L92.85 82.25V82.35V82.45H92.75V82.55H92.65L92.55 82.65L92.45 82.75H92.35L92.45 82.85L92.55 82.95L92.65 83.15L92.75 83.25L92.85 83.35V83.45H92.95V83.55H93.05V83.65L92.95 85.15L93.55 86.05L94.65 86.75L95.55 87.65L96.25 89.05L96.65 90.05L97.15 90.85L98.35 91.35L102.35 92.25L104.15 92.05L104.75 92.15L105.25 92.65L106.25 93.85L106.85 94.15L107.95 93.55L108.45 92.85L108.85 92.35L109.25 91.95L109.75 91.45L111.05 91.55L112.05 92.85V94.35L111.85 94.45L111.75 94.65L111.35 95.05L111.15 95.25L110.85 95.65L110.45 96.05L110.05 96.45L109.65 96.95L109.05 97.65L108.75 98.05L108.35 98.45L108.15 98.65L107.65 98.55L107.45 98.45H107.35H107.25H107.15H107.05H106.95H106.85H106.75H106.65L106.55 98.35L106.25 98.15L106.15 98.05L105.95 97.95L105.65 97.85V97.75L105.35 97.65L105.05 97.45L104.75 97.25L104.55 97.15L104.15 96.85L103.75 96.65H103.65V96.55H103.55L103.35 96.45L102.85 96.25L102.35 96.15L101.95 96.05L101.55 95.85L101.15 95.65H100.85H100.75L100.65 95.75L100.45 95.65L100.35 95.55L100.15 95.45L99.65 95.25V95.15V95.05H99.55V94.95V94.85H99.45H99.35H99.25V94.95H99.15V95.05H99.05V95.15V95.25V95.35H98.95H98.85V95.45V95.55V95.65V95.75V95.85V95.95V96.05H98.95H99.05V96.15H99.15V96.25V96.35H99.05H98.95V96.45H98.85H98.75V96.35V96.25H98.65H98.55V96.35H98.45V96.45H98.55V96.55V96.65H98.65V96.75V96.85H98.55V96.95H98.45V97.05H98.35V97.15H98.25V97.25V97.35V97.45V97.55L97.25 98.75L96.75 99.55L96.45 100.35V100.45L96.35 100.55L96.25 100.75L96.05 101.05V101.15L94.75 101.65L94.35 102.25L91.25 112.55L90.75 114.45L92.75 114.35L93.05 114.15H93.15L93.35 114.05V114.15H93.45V114.25H93.55V114.35V114.45H93.65H93.75H93.85H93.95H94.05H94.15L94.25 114.35H94.35L94.45 114.45H94.55H94.65L94.75 114.55H94.85H94.95H95.05H95.15L95.25 114.65L95.35 114.55H95.45V114.45H95.55H95.65L95.75 114.55H95.85H95.95H96.05L96.15 114.45H96.25V114.35L96.35 114.25L96.75 114.35L97.65 114.45L99.75 114.65L100.25 115.05L100.75 115.35L101.05 115.45L101.95 116.75H102.05L102.45 118.75V119.35L102.55 119.75L102.75 120.05V120.35L102.55 120.95L102.05 121.15L101.65 121.05L101.35 121.15L101.55 122.35V122.45V122.55V122.65V122.75V122.85V122.95V123.05L101.65 123.15V123.25H101.75V123.35L101.85 123.55L101.95 123.65L102.05 123.75L102.15 123.85L102.65 124.15L102.95 124.25L104.15 126.85L104.65 128.75L104.75 129.15L104.95 129.65L105.05 129.85L105.15 129.95V130.05V130.15V130.25H105.25V130.35L105.35 130.45L105.45 130.55L104.35 131.65L103.55 132.75L102.45 133.65L101.35 134.55L100.05 135.65L103.55 137.85L104.55 137.75L104.85 137.65H104.75V137.75V137.95V138.05H104.85V138.15V138.25H104.95V138.35H104.85V138.45H104.95L105.05 138.35V138.45V138.55H105.15H105.25V138.45H105.35H105.45H105.55V138.35H105.65L105.55 138.25H105.65V138.15V138.05H105.75V137.95H105.85H105.95V137.85H106.05V137.75H105.95V137.65H105.85V137.55H105.95M105.95 137.55V137.45M105.95 137.55H106.05V137.45H106.15V137.35V137.25V137.15L107.15 136.75L108.25 137.05L109.05 138.25L108.85 139.75L108.25 141.15L107.65 141.75H107.25L106.95 141.65H106.65H106.45H106.35V142.25L106.25 142.95L104.95 144.05L103.95 145.15L101.45 149.95L100.85 151.35L100.75 153.15L100.95 153.85L101.05 154.05L101.45 155.45V155.85L101.35 155.75V155.85H101.25H101.15V155.75H101.05H100.95V155.85H100.85H100.75H100.65H100.55H100.45H100.35H100.25H100.15H100.05H99.85L99.65 155.95H99.55L99.45 155.85H99.35L99.25 155.95H99.15H98.95H98.85H98.75H98.65H98.55H98.45H98.35H98.25H98.05V156.05H98.15V156.15V156.25V156.35H98.25V156.45H98.35V156.55V156.65V156.75H98.15L97.65 157.15L97.25 157.85L97.35 158.25L97.75 158.65L98.25 159.45L98.95 161.15L99.05 161.85L98.95 163.05L98.75 163.65L98.25 164.75L98.15 165.45V165.95L98.35 167.05V167.45L98.15 168.75H98.05H97.95H97.85V168.65H97.75M97.75 168.65V168.75M97.75 168.65H97.65H97.55H97.45H97.35V168.75V168.85V168.95V169.05V169.15V169.25L97.45 169.45V169.65V169.75V169.95V170.05V170.15V170.25V170.45V170.55H97.35H97.25H97.15V170.45H97.05V170.55H96.95V170.65L96.85 170.85L96.75 170.95L96.65 171.05L96.55 171.35L96.35 171.65L96.25 171.85H96.15V171.95H96.05H95.95H95.85V171.85H95.75H95.55H95.45H95.35H95.15H94.85L94.45 171.75H94.15L93.65 171.65H93.35H93.15H92.75L92.15 171.55H91.85L91.45 171.25H91.35H91.25V171.15H91.15L91.05 171.25V171.15H90.95L90.85 171.05H90.75L90.65 171.15V171.05H90.55H90.45H90.35V171.15H90.25L89.75 171.25H89.65H89.45H89.25H89.15H89.05H88.85H88.65H88.35H88.05H87.65H87.55H87.45H87.35V171.35H87.25V171.45L87.15 171.55H87.05V171.65H86.95H86.85V171.75H86.75V171.85H86.65H86.55H86.45V171.95H86.15H86.05V171.85L85.85 171.55L85.75 171.65L85.55 171.75L85.35 171.95L85.15 172.05V172.15L84.85 171.75L84.55 171.35L84.15 170.95L83.65 170.35L83.15 169.65L83.05 169.55V169.45H82.95H82.85V169.55H82.75H82.65H82.55H82.45H82.35H82.25V169.65H82.15V169.75H82.05V169.85H81.95H81.85H81.75V169.95H81.65V170.05H81.55H81.45H81.35V169.95V169.85H81.25H81.15V169.95H81.05V170.05L80.95 170.15V170.25L80.85 170.45L80.75 170.65V170.75V170.85V170.95V171.05V171.15H80.65H80.55H80.45V171.25H80.35L80.25 171.35V171.45L80.15 171.55H80.05V171.65H79.95H79.85H79.75H79.65V171.55V171.45L79.55 171.35L79.45 171.25L79.35 170.95L79.25 170.65L79.15 170.45L79.05 170.25L78.95 169.95L78.75 169.55L78.55 169.05L78.45 168.65H78.35H78.25H77.95L77.65 168.55H77.35H77.05H76.85H76.75H76.65L76.45 168.65H76.55V168.75V168.85V168.95H76.45H76.35H76.25H75.95H75.75H75.45H75.25H75.05H74.85H74.45H74.35H74.05H73.95H73.85H73.55H73.45H73.35H73.25H73.15H72.85H72.65H72.25H71.95H71.65H71.15H71.05V169.05H70.95L70.85 169.15V169.25V169.35V169.45H70.75V169.55V169.65H70.65L70.75 169.75V169.85V169.95H70.65H70.55H70.35H70.05H69.95H69.65H69.35H68.95H68.55H68.35H68.25H68.15H68.05H67.95V170.05L67.85 170.15H67.75V170.25V170.35H67.65V170.45H67.55M67.55 170.45V170.55" stroke="white" stroke-width="0.5" stroke-linecap="round" stroke-linejoin="round"/>
</svg>
