<svg width="202" height="133" viewBox="0 0 202 133" fill="none" xmlns="http://www.w3.org/2000/svg">
<path d="M104.05 3.45001H104.15H104.25L104.45 3.35001H104.55H104.65H104.75L104.85 3.25H104.95L105.05 3.14999H105.15H105.25H105.35V3.05002L105.45 2.95001V2.85001V2.75V2.64999H105.55V2.55002L105.65 2.45001V2.35001V2.25V2.14999V2.05002V1.95001L105.55 1.85001V1.75V1.64999H105.65V1.55002H105.75V1.45001H105.85V1.55002H105.95V1.64999H106.05V1.55002H106.15H106.25V1.64999V1.75H106.35L106.45 1.85001H106.55L106.65 1.95001H106.75L106.85 2.05002L106.65 2.25L106.75 2.85001L106.95 2.75L107.15 2.64999V2.75V2.85001V2.95001V3.05002V3.14999H107.05V3.25V3.35001H106.95V3.45001V3.55002V3.64999L107.05 3.75V3.85001V3.95001H107.15V4.05002H107.25V4.14999L107.35 4.25H107.45V4.14999V4.05002V3.95001V3.85001V3.75V3.64999H107.55V3.55002H107.65V3.45001V3.35001H107.75V3.25L107.85 3.14999H107.95V3.05002H108.05H108.15L108.25 2.95001H108.35H108.45H108.55V3.05002H108.65V2.95001H108.75L108.85 2.85001H108.95V2.75H109.05H109.15V2.64999V2.55002L109.25 2.45001H109.35V2.55002V2.64999V2.75H109.45L109.55 2.85001H109.65V2.75L109.55 2.64999H109.65L109.75 2.75H109.85V2.85001H109.95H110.05V2.95001V3.05002H109.95H109.85V3.14999H109.75V3.25H109.85V3.35001H109.95H110.05L110.15 3.45001H110.25H110.35V3.55002H110.45H110.55V3.45001H110.65H110.75V3.35001H110.85V3.25V3.14999H110.95V3.05002L111.05 2.95001V2.85001H111.15V2.75L111.25 2.64999H111.45H111.55H111.75H111.85H111.95V2.75H112.05H112.15V2.85001L112.25 2.75H112.35V2.64999H112.45L112.55 2.55002H112.65V2.64999V2.75H112.75H112.85H112.95V2.85001L113.05 2.95001V3.05002L113.15 3.14999H113.25H113.35H113.45L113.55 3.25L113.65 3.35001L113.75 3.45001V3.55002H113.65H113.55H113.35H113.25H113.15H113.05L112.95 3.64999H112.85H112.75V3.75V3.85001H112.65V3.95001L112.75 4.05002H112.65V4.14999V4.25L112.75 4.14999V4.25V4.35001V4.45001H112.85H112.95H113.05H113.15V4.55002H113.25V4.64999H113.35V4.55002H113.45L113.55 4.64999L113.95 4.95001L114.05 5.05002H114.15L114.35 5.14999L114.45 5.25H114.55V5.35001H114.65V5.45001H114.55L114.45 5.55002L114.25 5.45001H114.15H114.05H113.95L113.85 5.55002H113.75V5.64999H113.65V5.75H113.75V5.85001V6.05002L113.55 5.95001H113.45H113.25H113.15L113.05 6.05002L112.95 6.14999V6.25H112.85H112.75V6.35001V6.45001H112.65V6.55002L112.75 6.64999H112.85V6.75H112.95H113.05H113.15H113.25H113.35H113.45H113.55H113.65H113.75L113.85 6.85001H114.15H114.25L114.35 6.95001V7.05002V7.14999V7.25V7.35001H114.45V7.25H114.55V7.35001H114.65H114.75V7.25V7.14999H114.85V7.05002V6.95001L114.95 6.85001V6.75H115.05V6.64999L115.15 6.55002V6.45001V6.35001H115.25H115.35H115.45V6.45001H115.55V6.55002H115.65H115.75L115.85 6.45001H115.95L116.05 6.35001H116.15V6.45001V6.55002V6.64999V6.75V6.85001V6.95001H116.25V7.05002H116.35V6.95001H116.45H116.55L116.65 7.05002V7.14999L116.75 7.25V7.35001V7.45001L116.65 7.55002V7.64999L116.75 7.75V7.85001H116.85L116.95 7.95001L117.05 8.05002V8.14999H117.15H117.25V8.05002V7.95001V7.85001V7.75V7.64999L117.35 7.75H117.45V7.85001H117.35V7.95001V8.05002V8.14999H117.45V8.05002H117.55V7.95001V7.85001H117.65H117.75H117.85V7.75L117.95 7.85001V7.95001H118.05V8.05002H118.15V8.14999H118.25V8.25H118.35H118.45V8.14999V8.05002H118.55H118.65V8.14999V8.25H118.75V8.35001H118.85V8.45001V8.55002V8.64999V8.75V8.85001H118.95V8.95001V9.05002V9.14999H118.85V9.25H118.75H118.65V9.35001V9.45001V9.55002H118.55V9.45001L118.45 9.55002V9.64999H118.35V9.75H118.45H118.55V9.85001H118.65H118.75H118.85V9.95001H118.95H119.05V9.85001H119.15V9.95001L119.25 10.05V10.15H119.35V10.25H119.45V10.35H119.55V10.25H119.65V10.35H119.75H119.85H119.95L120.05 10.45V10.55V10.65H120.15V10.75H120.25H120.35L120.45 10.85V10.95H120.55V11.05H120.45V11.15L120.35 11.25H120.25H120.15V11.35H120.25V11.45H120.35V11.55V11.65H120.45H120.55V11.75H120.65H120.75V11.85H120.85V11.95H120.95H121.05H121.15H121.25H121.35H121.45H121.55V12.05H121.75L121.85 12.15L121.95 12.25V12.35H122.05L122.15 12.45V12.55H122.25L122.35 12.65V12.75H122.45V12.85V12.95H122.55L122.65 13.05H122.75L122.85 12.95H122.95H123.05V12.85H123.15H123.25V12.75H123.35V12.85H123.45V12.95H123.55H123.65V13.05V13.15H123.55H123.45V13.25V13.35H123.55V13.45V13.55V13.65H123.45L123.35 13.55L123.25 13.65H123.35V13.75V13.85H123.45H123.55V13.95L123.65 14.05H123.75V14.15H123.85H123.95H124.05V14.05H124.15V13.95L124.25 14.05L124.35 14.15H124.45V14.05H124.55V14.15L124.65 14.25H124.75V14.15V14.05H124.85H124.95V14.15H125.05H125.15V14.25H125.25V14.35V14.45H125.15V14.55H125.05V14.65V14.75H125.15V14.85H125.25H125.35V14.95L125.45 15.05H125.55L125.65 15.15H125.75V15.25H125.85H125.95H126.05H126.15H126.25V15.35H126.35V15.45V15.55L126.15 15.75V15.85V15.95H126.25L126.35 16.05H126.45H126.55L126.65 15.95L126.75 16.05H126.85V16.15L126.95 16.25L127.05 16.35V16.45V16.55L127.15 16.65V16.75H127.25H127.35V16.65H127.45L127.55 16.55H127.65H127.75V16.65H127.85V16.75H127.75H127.65V16.85V16.95V17.05H127.55V17.15L127.65 17.25L127.75 17.15L127.85 17.05L127.95 16.95H128.05L128.15 16.85V16.75H128.25V16.85H128.35H128.45L128.55 16.75L128.65 16.65L128.75 16.55V16.45H128.95L129.05 16.65V16.75H129.15L129.45 16.85L129.85 16.95H129.95V16.85V16.75L129.85 16.65V16.55V16.45H129.95H130.05H130.15H130.25L130.35 16.55V16.65H130.45V16.75V16.85H130.55H130.65L130.75 16.95H130.85H130.95H131.05H131.15L131.25 16.85H131.35V16.95V17.05L131.45 17.15H131.55V17.05H131.65V16.95V16.85H131.75L131.85 16.75H131.95V16.85H132.05V16.95H131.95V17.05V17.15H132.05H132.15L132.25 17.05H132.35V16.95V16.85V16.75H132.45V16.65V16.55H132.55H132.65V16.45V16.35V16.25L132.55 16.15H132.65V16.05L132.75 16.15V16.25H132.85L132.95 16.35V16.25H133.05V16.15H133.15H133.25V16.25V16.35V16.45H133.35V16.55H133.45H133.55H133.65H133.75V16.45H133.85V16.55H133.95H134.05H134.15V16.45H134.25H134.35H134.45H134.55H134.65H134.75H134.85V16.55V16.65H134.75V16.75V16.85V16.95H134.65V17.05V17.15V17.25V17.35L134.75 17.45V17.55V17.65L134.95 17.95H135.25H135.35H135.45H135.55H135.65V17.65V17.55H135.55V17.45H135.65V17.35H135.75V17.25V17.15H135.85H135.95H136.05H136.15H136.25H136.35V17.05H136.45V17.15H136.55V17.25V17.35V17.45V17.55H136.65V17.45H136.75V17.35H136.85V17.25H136.95H137.05H137.15H137.25V17.35H137.35H137.45V17.25H137.55V17.35H137.65H137.75V17.45H137.85H137.95V17.55H138.05H138.15V17.65H138.25V17.75V17.85V17.95V18.05L138.15 18.15V18.25H138.05V18.35L138.15 18.45V18.55H138.25V18.65V18.75H138.15V18.85H138.05V18.95H137.95V19.05H138.05V19.15V19.25V19.35H138.15V19.45H138.25V19.55L138.35 19.45V19.35V19.25H138.25V19.15L138.35 19.05H138.45V19.15V19.25H138.55H138.65H138.75H138.85L138.95 19.15L139.05 19.05H139.15V18.95V18.85H139.25V18.75V18.65H139.15V18.55V18.45H139.05V18.35L139.15 18.25V18.15H139.25V18.05L139.35 17.95V17.85H139.45V17.75H139.55V17.65H139.65H139.75V17.75V17.85H139.85H139.95H140.05V17.75V17.65H140.15L140.25 17.75L140.35 17.85V17.95H140.45V18.05L140.35 18.15V18.25H140.25V18.35L140.35 18.45H140.45V18.55V18.65V18.75H140.35V18.85V18.95H140.45V19.05H140.55H140.65H140.75H140.85L140.95 19.15H141.05H141.15H141.25H141.35V19.05H141.45V18.95L141.35 18.85V18.75V18.65H141.45V18.55H141.55H141.65L141.75 18.65H141.85V18.75H141.95V18.85H142.05V18.95H142.15V19.05H142.25H142.35L142.45 18.95H142.55V18.85H142.65V18.75V18.65V18.55H142.75H142.85V18.65H142.95H143.05V18.75V18.85V18.95L142.95 19.05V19.15V19.25H143.05V19.35H143.15L143.35 19.45H143.45H143.55V19.55L143.45 19.65V19.75H143.35H143.15H143.05V19.85V19.95V20.05V20.15H143.15V20.25H143.25V20.35V20.45H143.35V20.55L143.45 20.65H143.55V20.75L143.65 20.65H143.75H143.85V20.75H143.95V20.65H144.05H144.15V20.55H144.25V20.45L144.15 20.35V20.25L144.05 20.05V19.95H143.95V19.85V19.75V19.65H144.05V19.55H144.15H144.25V19.65H144.35V19.75H144.45H144.55V19.65V19.55L144.65 19.45L144.75 19.35L144.85 19.25V19.15H144.95V19.05V18.95H145.05L145.15 19.05V19.15H145.25V19.25V19.35H145.35V19.45L145.45 19.15L145.95 19.25H146.05L146.15 19.35H146.25H146.35V19.25L146.25 18.45V18.35L146.95 18.15H147.05V18.05L147.45 17.95L147.75 17.05L148.45 17.25H148.55H148.65V17.15H148.75H148.85V17.25H148.95H149.05V17.35H149.15V17.45V17.55H149.25H149.35H149.45V17.45V17.35H149.55V17.25H149.65V17.15H149.75H149.85H149.95V17.05H150.05H150.15L150.45 17.15V17.05H150.55L150.65 16.95H150.75V16.85H150.65V16.75H150.55V16.65H150.45H150.35V16.75H150.25H150.15V16.65V16.55H150.25V16.45V16.35H150.35V16.25V16.15H150.45V16.05V15.95V15.85V15.75H150.35V15.65H150.25V15.55V15.45H150.35L150.45 15.35V15.25V15.15H150.55L151.15 15.75L151.55 16.15L151.95 16.45L152.05 16.55L152.35 16.75L152.65 17.15L153.05 17.45V17.55L152.45 18.25L153.55 19.05L153.75 19.25L153.35 19.75L153.65 19.95L154.65 20.75L154.85 20.85L155.25 21.25L155.55 21.45H155.65L155.75 21.55V21.65L154.75 23.05L154.55 23.25L154.15 23.75L154.75 24.15L154.95 24.35L155.05 24.45L155.25 24.55L155.65 24.85L155.55 24.95L155.15 25.45L154.55 26.25L154.75 26.45L154.95 26.55L155.35 26.85L155.65 27.15H155.75L155.85 27.05L155.95 27.15H156.05H156.25H156.35H156.45V27.25H156.55H156.65L156.75 27.35L156.85 27.45H156.95L157.05 27.55H157.15H157.25V27.65H157.35V27.75V27.85V27.95V28.05H157.45V28.15H157.35H157.25V28.25L157.15 28.35V28.45V28.55H157.05V28.65V28.75H157.15V28.85V28.95V29.05H157.05V29.15V29.25V29.35H156.95V29.45H156.85V29.55V29.65H156.95V29.75H157.05V29.85H157.15V29.75H157.25V29.85H157.35H157.45H157.55H157.65H157.75V29.75H157.85V29.85H157.95V29.75H158.05V29.85H158.15V29.75H158.25V29.85H158.35H158.45H158.55H158.65L158.75 29.95H158.85L158.95 29.75H159.15L159.85 29.85V29.95V30.05H159.95V29.95H160.05H160.15H160.25V30.05V30.15L160.35 30.25V30.35L160.75 30.75L161.35 31.45L161.65 31.65H161.55L161.35 31.85L161.25 31.95L161.35 32.25L161.45 32.45L161.55 32.75V32.85L161.05 32.95H160.95L160.85 33.05H160.65L161.35 34.05L161.75 34.35L161.25 35.25L160.75 36.25L161.55 36.85L162.35 37.45L163.35 38.15L164.15 38.75L164.95 39.45L165.75 39.95L166.15 40.25L166.35 40.35L166.65 40.65L167.05 40.95L167.15 40.85H167.05V40.75V40.65H167.15L167.35 40.85L167.95 41.25L167.65 41.55H167.55L167.25 41.85H167.15V41.95H167.05V42.05L166.95 42.15H167.05V42.25V42.35V42.45H167.15V42.55V42.65V42.75H167.05V42.65H166.95V42.75H167.05V42.85H167.15V42.95H167.05V43.05V43.15H166.95V43.25H166.85V43.35V43.45V43.55V43.65H166.75V43.75L166.65 43.85V43.95H166.55V43.85H166.45L166.35 43.75H166.25V43.85V43.95V44.05V44.15L166.85 44.65H166.95V44.75L167.05 44.85L167.55 45.15L168.55 45.85L169.65 46.75L169.55 46.85L169.35 47.15L169.05 47.55L168.85 47.85L168.35 48.45L168.15 48.85L168.05 48.95L167.85 49.25L167.35 49.85L167.25 50.05L168.55 50.95L168.65 50.75L168.95 50.35L169.15 50.05L169.45 49.65L169.95 49.15L170.15 49.25L170.35 49.45L171.05 50.05L171.45 50.35L171.25 50.65L171.45 50.95L171.55 50.85L172.05 50.25V50.15L172.25 49.95L172.55 49.45L173.35 48.45L172.85 48.05L173.15 47.55L173.45 47.05L173.65 46.85L173.85 46.55V46.45L174.25 45.95V45.85H174.35V45.75V45.65L174.75 45.15L174.85 45.05L174.95 44.95L175.05 44.75L175.15 44.65L175.25 44.75H175.35H175.45V44.85H175.55H175.65H175.75L175.85 44.75H175.95H176.05V44.65H175.95H175.85H175.75H175.65H175.55H175.45H175.35L175.25 44.55H175.15L175.45 44.25L175.75 43.75L175.85 43.55L175.65 43.45L175.45 43.35H175.25H175.05L174.75 43.15V43.05H174.95H175.15L175.25 43.15L175.75 43.25H175.85H175.95H176.05H176.15L176.35 42.95H176.45L176.65 42.55L177.25 41.75L177.65 41.35L177.95 40.95V40.85L178.05 40.95L178.55 41.35L178.75 41.55L179.05 41.85L179.35 42.05L179.55 42.25L179.75 42.35L180.05 42.65L180.35 42.85L181.05 43.45L181.55 43.85L181.65 43.95H181.75H181.85L181.95 44.05H181.85V44.15V44.25H181.95V44.35V44.45H182.15L182.25 44.55H182.75L182.85 45.15V45.25L183.35 45.15V45.55L184.75 45.35L184.95 45.25H185.05L185.85 45.15L186.65 45.05V44.85L186.55 44.55L187.55 44.35L187.45 43.85H187.55H187.75L188.15 43.75L188.85 43.65H189.05V44.05L189.45 43.95H189.65L190.85 43.75V43.95L191.05 45.45L191.15 45.95V46.05L192.45 45.75H192.85L192.95 46.05H193.45H193.65H193.75H193.95H194.25V46.45V46.65L194.45 48.15L194.75 48.05H195.15V48.25H195.65H196.05L196.35 48.15H196.45H196.65H196.75H196.85H196.95L197.55 49.55L198.05 49.45H198.15L198.25 50.05V50.15L198.95 50.05H199.05L199.15 50.55V50.95V51.05L199.25 51.15V51.25V51.45V51.55V51.65H199.15H198.85L198.05 51.75V51.85H197.85L196.45 52.05L196.55 52.25V52.55L196.65 53.65L196.75 53.85V54.35L196.35 54.45H195.85L195.45 54.55L195.55 55.25V55.45V55.55L195.65 55.95V56.55L195.75 57.15V57.65H195.95H196.25V58.05L196.35 58.45V58.75V58.85L196.45 59.05L196.55 59.15H196.45V59.25V59.35V59.45V59.55H196.55V59.65V59.75H196.45H196.35V59.65H196.25V59.55H196.15V59.45H196.05H195.95H195.85H195.75V59.55V59.65H195.65V59.75H195.55V59.65H195.45V59.75H195.35L195.25 59.85H195.15V59.95L195.25 60.05H195.35H195.45V60.15H195.55H195.65V60.25V60.35H195.55L195.45 60.45H195.35H195.25H194.95L195.05 60.85V60.95V61.15V61.45L195.15 61.75V61.85V62.15L195.25 62.75L195.35 63.05V63.15V63.25H195.25V63.35H195.15V63.45L195.05 63.55H194.95H194.85H194.75V63.45H194.65V63.35H194.55V63.55V63.65V63.75L194.65 63.95V64.25V64.45V64.55L194.75 64.85H194.65L194.35 64.95L194.45 65.35L194.55 66.15V66.25L194.65 66.85L194.75 67.45V67.55V67.65L195.15 67.55H195.25L196.25 67.45L196.95 67.35H197.35V67.25H197.55L197.65 68.15H197.75L199.15 67.95L199.55 67.85L199.75 68.65L199.85 69.35L199.95 70.45L200.05 70.95L200.15 71.45V71.85V71.95L200.25 72.15V72.65L200.35 73.05V73.15V73.35L200.45 73.75L200.55 74.35V74.45L200.75 76.25L200.85 76.55H200.75L200.65 76.45H200.55H200.45H200.35V76.55H200.25H200.15H200.05H199.95H199.85H199.75H199.65V76.65H199.55H199.45V76.75H199.35V76.65H199.25H199.15V76.75V76.85H199.25V76.95V77.05H199.15H199.05V76.95V76.85V76.75L198.95 76.85V76.95V77.05H198.85H198.75V76.95V76.85V76.75H198.65V76.85V76.95V77.05H198.55V77.15V77.25H198.65H198.75V77.35H198.65V77.45H198.55L198.65 77.55V77.65V77.75H198.55H198.45V77.85H198.35H198.25V77.75H198.15V77.65V77.55H198.25V77.45H198.15H198.05L197.95 77.55V77.45H197.85L197.75 77.35H197.65V77.85L197.75 78.15V78.55L197.85 79.35L197.95 79.75L198.05 80.05V80.25V80.35V80.45V80.55V80.65L198.15 80.75V80.85V80.95V81.05V81.35L198.25 81.65V81.85L198.35 82.35V82.75L198.45 82.85V82.95V83.05V83.15L198.55 83.55V83.75L198.65 84.15V84.75L198.75 85.35L198.35 85.95L198.15 86.25L198.05 86.45V86.55H197.85V86.95L197.75 87.35H197.35H197.05H196.85V87.85L196.75 88.15V88.35V88.45V88.55V88.65V88.75H196.65L196.55 88.65H196.35V88.55H196.25V88.45L196.15 88.35H196.05H195.95L195.85 88.45V88.55H195.75H195.65H195.55H195.45H195.35H195.25V88.45H195.15V88.35H195.05L194.95 88.25H194.85V88.15H194.75H194.65H194.55L194.45 88.05V87.95H194.35V87.85V87.75H194.25V87.65H194.15V87.55V87.45V87.35V87.25H194.05H193.95V87.35H193.85V87.45H193.75V87.55H193.65H193.55H193.45V87.45H193.35V87.35H193.25H193.15V87.45V87.55V87.65H193.05H192.95V87.55H192.85H192.75V87.65H192.65H192.55V87.55V87.45H192.45V87.35H192.35L192.25 87.25V87.15H192.15V87.05H192.05H191.95V87.15V87.25V87.35H191.85H191.75V87.45H191.65V87.55H191.55H191.45H191.35V87.45H191.25H191.15H191.05V87.35H191.15V87.25H191.05H190.95V87.15L191.05 87.05V86.95V86.85V86.75H191.15V86.65H191.25H191.35V86.55H191.25V86.45V86.35H191.15H191.05V86.25H190.95V86.35H190.85V86.25V86.15H190.95V86.05H190.85H190.75H190.65H190.55H190.45H190.35V85.95H190.25V85.85V85.75H190.15V85.65V85.55V85.45V85.35V85.25H190.05V85.15H189.95V85.05V84.95H189.85V84.85H189.75H189.65V84.95V85.05H189.55V85.15V85.25H189.45H189.35V85.15H189.25V85.05H189.15H189.05H188.95L188.85 84.95V84.85H188.75V84.75H188.65H188.55H188.45H188.35H188.25H188.15H188.05H187.95V84.65L187.85 84.55H187.75V84.45H187.65V84.35H187.55V84.45L187.45 84.35H187.35H187.25V84.45L187.15 84.55V84.65H187.05L186.95 84.55V84.45V84.35H186.85V84.25H186.75V84.15H186.65V84.05V83.95H186.75V83.85V83.75H186.65H186.55V83.65H186.45V83.75H186.35V83.85V83.95V84.05H186.25H186.15V83.95H186.05V84.05H185.95H185.85H185.75H185.65V84.15H185.75V84.25H185.85V84.35H185.95V84.25H186.05V84.15H186.15H186.25V84.25H186.35L186.45 84.35H186.35V84.45H186.45V84.55H186.35H186.25V84.45H186.15V84.55L186.05 84.65H185.95V84.55H185.85V84.45H185.75V84.55H185.65V84.65H185.55V84.55H185.45H185.35H185.25V84.65V84.75H185.35L185.45 84.65V84.75H185.55L185.45 84.85V84.95H185.35V84.85H185.25V84.75H185.15V84.85L185.05 84.95V85.05H184.95V84.95H184.85V84.85H184.75V84.75H184.65H184.55V84.65H184.45H184.35V84.55V84.45H184.25H184.15H184.05V84.35H183.95V84.45H183.85V84.55L183.95 84.65H184.05V84.75V84.85H183.95H183.85H183.75V84.95H183.65L183.55 85.05H183.45H183.35L183.25 84.95H183.15V85.05V85.15H183.25V85.25L183.15 85.35H183.05V85.25H182.95V85.15L182.85 85.25V85.35L182.95 85.45H183.05H183.15V85.55V85.65L183.05 85.75V85.85V85.95H183.15V86.05V86.15V86.25V86.35V86.45H183.05H182.95H182.85H182.75V86.55V86.65H182.85V86.75H182.95V86.85H183.05V86.95L183.15 87.05V87.15V87.25H183.25L183.15 87.35H183.05V87.45L182.95 87.55L182.85 87.65L182.75 87.75V87.85V87.95H182.65V88.05H182.55V88.15V88.25L182.65 88.35H182.75V88.45H182.85V88.55L182.95 88.65V88.75H183.05V88.85L183.15 88.95V89.05V89.15H183.25V89.25V89.35V89.45V89.55H183.35V89.65V89.75H183.25V89.85H183.15V89.95H183.05H182.95V90.05H182.85H182.75H182.65V90.15H182.55H182.45L182.35 90.25H182.25V90.35V90.45H182.35L182.45 90.55V90.45H182.55H182.65L182.75 90.55L182.85 90.65V90.75H182.95V90.85L183.05 90.95V91.05H183.15V91.15V91.25H183.05H182.95H182.85H182.75V91.35H182.65V91.55V91.65L182.75 92.05L182.85 92.85L182.95 93.35L183.05 93.95L183.15 94.55L183.45 94.45H183.75L184.35 94.25H184.85L184.95 94.15H185.25H185.35L185.45 94.85V95.15L185.55 95.45L185.65 95.75V95.95L185.75 96.35L185.85 97.25H185.75L185.15 97.35L184.75 97.45L184.35 97.35L184.15 97.25L183.75 97.15H183.55H183.45H183.35V97.35L183.45 97.95H183.15L183.05 98.05H182.95H182.85H182.75H182.65H182.55L182.35 98.15H182.25H182.05H181.95L181.15 98.25L180.95 98.35V98.45V98.65L181.05 99.05L181.15 99.45V99.65V99.75V99.85L181.25 100.45L182.65 100.25L182.75 100.95L182.85 101.55L182.95 101.65L183.05 102.45V102.75L182.65 102.85L182.25 102.95L182.05 103.05L181.45 103.15L180.55 103.35L180.45 103.45L179.85 103.55V103.65V103.75L179.95 103.95V104.15H179.55H179.45L178.85 104.25L178.35 104.35L177.75 104.45H177.55H177.45H177.25H177.15H176.75H176.35H176.25H176.15H176.05L175.85 104.35H175.75V104.25H175.65H175.55H175.15V104.15H175.05H174.85H174.75H174.65L174.55 104.25H174.45H174.35L174.25 104.15H174.15L174.05 104.05H173.95H173.85H173.75V103.95H173.65H173.55H173.45L173.25 104.05H173.05H172.85H172.75H172.65H172.55V103.95V103.85L172.45 103.45H172.15L171.55 103.35H170.95H169.95L169.85 103.45V103.55V103.65H169.95L170.05 103.75V103.85H170.15V103.95H170.25V104.05H170.15V104.15V104.25H170.25H170.35V104.35V104.45H170.25V104.55V104.65H170.35V104.75H170.25L170.05 104.85H169.55L168.65 105.05V104.95L167.95 105.05L167.45 105.15V104.95V104.75L167.35 104.55L167.15 104.15L167.05 103.95L166.95 103.75H166.45L165.65 103.85H164.55H163.95H163.85H163.75H163.65H163.55V103.75H163.45V103.65H163.35V103.55V103.45H163.25V103.55H163.15V103.45H163.05V103.35V103.25V103.15L163.15 103.05L163.25 102.95V102.85L163.45 102.55V102.45V102.35V102.15H163.55V102.05V101.95V101.85H163.45H163.35H163.25L162.85 101.95H162.55V102.25L162.65 102.55H162.25H162.15L161.85 102.65H161.35L160.05 102.85L159.25 103.05H158.65V103.15V102.55H158.55H158.45H158.35H158.25H158.15H158.05L157.95 102.65H157.85H157.75H157.65H157.55H157.45H157.35H157.25V102.45L157.15 101.75L157.05 101.25L156.45 101.15L156.35 100.25L157.35 100.05H157.65V100.15L157.75 100.45L157.85 101.25L157.95 101.65L158.85 101.55L159.65 101.45L159.55 101.25V101.15H159.45V101.05V100.95L159.55 100.85V100.75L159.65 100.65V100.55V100.45L159.85 99.95H159.95V99.85L160.05 99.75V99.65L160.15 99.45L159.75 98.75L160.05 98.65L159.45 97.55L159.15 96.95L159.65 96.65L159.25 95.85L159.05 95.65L158.75 95.85L158.65 95.95L157.95 96.35L157.85 96.45V96.25L157.75 95.75L157.55 95.35L157.45 94.85L157.35 94.35L157.25 93.85L156.25 94.35H156.15L155.95 93.85L156.55 93.55L156.95 93.45L157.15 93.35V93.25L156.95 92.55L156.85 91.85L156.75 91.25L156.65 91.15H156.55V91.05H156.25H156.15L156.05 90.95H155.95H155.85H155.75H155.65L155.35 89.95V89.85L156.85 89.35L156.55 88.15L156.35 87.75H156.45L156.25 86.85L154.45 87.35L153.75 87.55L153.15 87.75L152.85 87.85H152.75L152.45 87.95H152.35V87.85V87.75V87.65H152.45V87.55V87.45V87.35L152.55 87.25V87.15H152.65V87.05V86.95H152.75H152.85H152.95L153.05 86.85H152.95V86.75H152.85V86.65L152.75 86.55H152.65V86.45H152.55H152.45V86.55V86.65H152.35V86.75H152.25H152.15V86.65V86.55L152.25 86.45V86.35V86.25V86.15V86.05H152.15V85.95V85.85H152.05V85.75V85.65H152.15V85.55H152.25V85.45H152.35V85.35H152.45H152.55H152.65H152.75V85.25H152.85V85.15H152.75V85.05V84.95H152.85V84.85V84.75H152.75V84.65H152.65V84.75H152.55H152.45H152.35V84.65V84.55V84.45V84.35V84.25H152.25H152.15V84.15H152.05H151.95V84.05L151.85 84.15H151.75L151.55 84.25L151.25 84.35L150.25 84.85L149.85 84.95L149.65 85.05L148.95 85.25L147.45 85.55H147.25L147.05 85.65L146.75 85.75L144.85 86.15L144.35 86.25L144.05 84.65L143.85 84.05V83.75L143.75 83.65H143.65V83.75H143.55L143.45 83.85H143.35V83.95H143.25H143.15L143.05 84.05H142.95H142.85H142.75H142.65V84.15H142.55L142.45 84.05H142.35V83.95H142.25H142.15H142.05H141.95L141.85 83.85H141.65H141.55H141.45H141.35H141.25L141.35 83.95H141.05H140.75L140.65 84.05L140.35 83.55L140.15 83.35V83.25L140.05 83.05L139.95 82.95L138.85 81.15V81.05L138.65 80.65L138.45 80.85L138.25 80.95L138.15 81.05H137.95V81.15H137.85L136.85 81.75L136.15 82.15L135.15 82.65L134.35 83.15L134.05 83.25L133.95 83.35L133.35 83.65L132.65 84.05L132.55 84.15L131.95 84.45L131.15 84.85L130.05 85.45L129.55 85.65V85.45L129.35 84.25V84.15V84.05H129.25H129.15H129.05V83.95H128.95H128.85H128.75H128.65H128.55H128.45V83.85H128.35V83.95H128.25H128.15H128.05H127.95L127.85 84.05H127.75H127.65H127.55H127.45V83.95H127.35L127.25 83.85H127.15H127.05H126.95L126.85 83.75H126.75L126.65 83.65H126.55H126.45V83.55H126.35H126.25H126.15H126.05V83.45H125.95H125.85H125.75L125.65 83.55H125.55L124.55 83.65H124.35L124.15 82.95H124.05V82.85H123.95H123.85H123.75H123.65H123.55V82.75H123.45V82.65V82.55H123.35V82.65H123.25H123.15H123.05V82.55H122.95H122.85V82.45H122.75V82.35H122.65H122.55V82.25H122.45H122.35V82.35H122.25H122.15V82.25H122.05H121.95H121.85H121.75V82.15H121.65H121.55V82.05H121.45H121.35H121.25H121.15V82.15H121.05V82.05H120.95H120.85H120.75V81.95H120.65H120.55H120.45V81.85H120.35V81.95H120.25L120.15 81.85H120.05V81.75L119.95 81.65V81.55L119.85 81.45H119.65L119.55 81.35H119.45L119.25 81.25L119.05 81.05L118.95 80.95L118.75 80.75L118.45 80.55H118.35L118.25 80.45H118.15L117.95 80.35H117.75L117.45 80.45H117.35H117.05H116.85L116.65 80.55L116.45 80.75L116.25 80.85L115.85 80.95L115.45 81.05H115.35H115.25H115.05L114.75 80.85H114.65L114.55 80.75L114.45 80.65L114.35 80.55H114.25H114.15L114.05 80.65H113.85H113.65H113.35H113.15H113.05H112.95L112.55 81.05V81.15H112.45L112.25 81.25L112.05 81.35H111.95L111.75 81.45H111.65L111.45 81.55H111.35H110.95H110.75H110.65H110.35L110.05 81.45H109.75H109.65L109.25 81.35H109.15H108.95H108.55H108.45L108.15 81.45L107.95 81.55H107.85L107.65 81.65L107.55 81.85H107.45L107.25 81.95H107.15L107.05 82.05H106.85H106.75H106.55H106.35H106.25L106.15 82.15L105.95 82.25L105.85 82.45L105.55 82.75L105.35 82.95V83.15L105.25 83.25L105.15 83.35V83.45V83.65V83.75H105.05L104.95 83.85L104.55 83.95H104.45H104.25H104.15V84.05H104.05H103.95V84.15H103.85H103.75H103.65H103.55H103.45H103.35L103.25 84.25H103.15H103.05H102.95V84.35H102.85L102.55 84.45V84.25V84.15L102.45 83.95L101.05 84.15L100.05 84.35L99.65 84.45V84.25L98.85 84.35L98.65 83.45V82.65L99.05 82.55L98.85 81.35L97.15 81.65L96.95 81.15H96.15L95.85 81.25L95.95 81.75L96.05 82.35V82.75L96.15 83.15L96.25 83.75L96.45 84.85L96.65 86.05L96.85 87.15L95.15 87.45L95.05 87.55L95.15 87.95V88.25L95.25 88.75L95.35 89.45V89.55V90.05V90.25L95.95 90.05L96.15 90.55L96.25 91.05V91.15L96.35 91.75L96.45 92.25L96.55 92.55L97.05 92.45L98.35 92.35L98.45 93.05L98.55 93.25V93.75L98.75 94.45H98.55V94.55L98.65 94.75L98.75 95.75L98.95 96.05L99.05 96.25H98.95L98.15 96.45L97.15 96.65L97.05 96.15L96.95 95.85V95.65H96.55L95.95 95.85H95.75L95.55 95.95V96.35L95.65 96.65L95.75 97.15L95.45 97.25H95.35H95.15L94.95 97.35H94.75L94.35 97.45H94.15H93.95L93.15 97.65V97.85L93.25 98.15L93.45 99.05L93.55 99.65L93.65 100.15V100.25L93.75 100.75V100.85V100.95H93.85V101.05V101.15V101.25V101.35V101.45H93.95H94.05V101.35H94.15L94.25 101.25H94.35V101.15H94.45H94.55L94.65 101.05H94.75H94.85H94.95L95.05 100.95H95.15V100.85H95.25V100.75H95.35V100.65H95.45V100.55H95.55V100.45H95.65V100.35H95.75H95.85L95.95 100.25H96.05H96.15H96.25V100.35V100.45L96.35 100.55V100.65V100.85V101.15L96.45 101.35V101.65L96.55 101.75V101.95V102.25L96.65 102.45H96.75H96.85H96.95H97.05H97.15L97.95 102.35L98.05 102.85L98.15 103.25V103.55V103.65L98.25 103.75V104.05L98.15 104.15L97.95 104.25L97.65 104.45L97.45 104.55L97.25 104.65L97.15 104.75L97.05 104.85L97.15 105.85L97.35 106.65L97.45 107.55L97.65 108.55L97.75 109.25L98.45 109.15H98.65L99.75 108.85L100.95 108.55V108.65L101.05 109.35L101.15 109.65L101.35 110.75L100.85 110.85L100.95 111.75H100.75L100.95 112.85H100.35L99.65 112.95H99.55L99.75 113.95L99.85 114.45L99.95 115.45L99.15 115.65L98.35 115.75L98.55 116.55L98.65 117.15L98.75 117.75L98.95 118.75L99.75 118.65L99.85 119.25L100.05 120.35L100.15 121.05V121.15H100.25L100.15 121.25H100.05V121.35L99.95 121.45V121.55H100.05V121.65L99.95 121.75V121.85L99.85 121.95H99.75V121.85V121.75H99.65V121.85L99.55 121.75H99.45V121.85V121.95H99.55V122.05H99.65L99.75 122.15H99.85V122.25V122.35L99.95 122.55L99.75 122.65H99.65H99.45V122.75H99.75H99.95H100.05H100.15V122.85V122.95H100.25V123.05H100.35L100.45 123.25L100.25 123.35L100.05 123.45H99.95V123.55H99.85V123.65H99.95L100.35 123.45V123.35H100.45H100.55H100.65H100.75V123.45L100.95 123.65L101.05 123.85V124.05L101.25 124.35L101.35 124.75V124.85V124.95V125.05V125.15V125.25L101.25 125.45L101.15 125.65L100.95 125.95L100.85 126.15L100.65 126.25L100.45 126.45L100.35 126.55L100.15 126.65L99.95 126.75H99.85L99.55 126.95H99.45H99.35L99.15 127.05L98.65 127.15L98.25 127.35L97.85 127.45L97.45 127.55H97.05L96.95 127.65H96.75H96.45H96.25H96.15L95.85 127.45L95.35 127.25L95.15 127.15L94.85 127.05L94.75 126.95H94.65L94.45 126.75L93.95 126.45L93.65 126.25H93.55L93.25 126.15L92.85 125.95H92.45H92.35H91.95L91.25 125.85H90.45H90.35H90.15H89.95L89.55 125.75L89.05 125.55H88.95L88.45 125.35L87.75 125.05L87.45 124.95L86.95 124.75L86.55 124.55H86.25L85.65 124.35L85.15 124.25L84.65 124.15H84.35H84.15H83.55H83.25L83.05 124.05H82.45H82.05L81.55 124.15H81.45L81.15 124.25L80.45 124.35L80.35 124.45L79.65 124.65L79.35 124.75L79.05 124.85L78.75 125.05L78.55 125.15L78.15 125.35L77.85 125.45V125.55L77.65 125.65L77.45 125.75L77.25 125.95L77.05 126.05L76.85 126.15L76.75 126.25H76.65L76.45 126.35H76.25H76.15L75.85 126.45H75.65H75.55H75.25H75.05H74.95H74.75H74.65H74.25H74.05L73.85 126.55H73.75H73.65H73.45H73.35L73.25 126.65H73.15H72.95H72.85H72.75L72.45 126.75H72.15L71.85 126.85H71.75H71.65H71.55L71.25 126.95H70.85L70.35 127.05L70.15 127.15H69.95H69.75H69.35H69.25L69.05 127.25H68.85H68.55H68.45H68.35H68.25H68.05L67.75 127.35L67.55 127.45H67.45L67.15 127.55L66.95 127.75L66.65 127.85L66.45 127.95L66.25 128.05L66.15 128.15H66.05V128.25L65.75 128.35L65.55 128.55L65.45 128.65L65.25 128.75H65.15L65.05 128.85L64.85 128.95L64.55 129.15H64.45L64.15 129.25L63.85 129.45H63.55L63.25 129.55L63.15 129.65H62.95L62.55 129.75H62.45L62.15 129.85H62.05L61.75 129.95H61.55V130.05H61.45H61.35H61.15L60.85 130.15L60.65 130.25L60.25 130.35H59.95L59.75 130.45H59.55L59.35 130.55H59.05L58.65 130.65H58.15L57.75 130.75L57.35 130.85H56.95L56.55 130.95L56.25 131.05H55.95L55.55 131.15L55.15 131.25L54.65 131.45L53.95 131.55L53.85 131.65L53.55 131.75L53.15 131.95H52.85L52.65 131.75H52.45H52.35V131.85H52.25H52.15H52.05V131.95L51.95 131.85H51.85H51.75L51.65 131.75H51.55L51.35 131.85L50.75 131.95H50.65H50.55H50.45L50.35 131.85L50.25 131.75V131.65V131.55V131.45V131.35V130.85L50.15 130.15V129.85L50.05 128.85V128.75L49.95 128.65V128.55L49.85 128.35V128.25V128.15L49.75 128.05V127.95V127.85V127.75V127.65H49.65V127.55H49.55H49.45H49.35H49.25H49.15L49.05 127.65H48.95H48.85L48.75 127.75H48.65H48.55H48.35L48.15 127.85H47.85L47.35 127.95H47.25L46.15 128.15L45.35 128.25L44.25 128.35L42.55 128.65L41.35 128.85L40.55 128.95L39.75 129.15H39.65H39.55L38.25 129.35L37.65 129.45L37.15 129.55L36.35 129.65H36.05L35.95 129.75L34.75 129.95V129.85L34.65 129.65L34.45 128.65L34.35 127.75H33.85L33.35 127.85L32.75 127.95V128.45L31.95 128.55L31.65 127.05L31.55 126.65V126.35V126.25L31.65 126.15L31.85 125.85L32.15 125.45L31.95 124.55V124.45L32.95 124.25V124.15V124.05L32.75 123.15L32.15 123.25L31.95 122.15H31.65L31.55 121.25L31.05 121.35L30.45 121.45L29.65 121.65L28.85 121.75L28.35 121.85L28.05 121.95H27.65L27.15 122.05L26.75 122.15L26.15 122.25L26.25 122.45V122.55L26.35 123.25L26.55 124.15L26.75 125.45L26.45 125.55L25.85 125.65L25.05 125.75L24.75 125.85L23.85 126.05H23.75L23.25 126.15L22.85 126.25L22.25 126.35L21.75 126.45L21.15 126.55L20.55 126.65H20.35L19.75 126.85H19.45H19.35L19.15 126.95H18.85L18.65 127.05V127.15L18.75 127.45L18.85 128.05L19.05 128.15L19.35 128.55L19.55 128.95L19.85 129.25H19.75L19.55 129.45L19.15 129.65H19.05H18.95L18.85 129.75H18.75L18.45 129.85L18.05 130.05V129.95H17.95L17.75 129.75H17.85L17.95 129.65H18.05V129.55H18.15V129.45V129.35V129.25L18.05 129.15V129.05V128.95H17.95V128.85V128.75V128.65H17.85V128.55H17.75H17.65H17.55H17.45H17.35H17.25V128.45H17.15V128.35H17.05V128.25H16.95V128.15H16.85L16.75 128.05V127.95H16.65V127.85H16.55V127.75H16.45V127.65V127.55H16.35V127.45V127.35V127.25V127.15H16.45V127.05H16.55V126.95H16.65V126.85H16.75V126.75V126.65V126.55V126.45H16.85V126.35V126.25V126.15V126.05V125.95V125.85H16.75V125.75V125.65V125.55V125.45H16.65H16.55V125.35H16.45H16.35H16.25V125.25H16.15L16.05 125.35H15.95V125.45H15.85H15.75V125.55H15.65L15.55 125.65L15.45 125.75H15.35V125.85L15.25 125.95V126.05H15.15L15.05 126.15H14.95V126.25H14.85H14.75V126.35H14.65V126.45H14.55H14.45H14.35H14.25H14.15V126.55H14.05H13.95H13.85V126.45H13.75H13.65H13.55H13.45H13.35V126.35H13.25H13.15V126.25V126.15L13.25 126.05L13.35 125.95V125.85H13.45V125.75V125.65V125.55V125.45V125.35H13.35V125.25H13.25V125.15V125.05H13.35L13.45 124.95H13.55V124.85H13.65L13.75 124.75H13.85V124.65L13.95 124.55V124.45H14.05V124.35V124.25L14.15 124.15V124.05V123.95V123.85H14.25V123.75V123.65V123.55V123.45V123.35L14.15 123.25V123.15L14.05 123.05V122.95H13.95H13.85V123.05L13.75 123.15V123.25H13.65H13.55L13.45 123.35H13.35H13.25L13.15 123.45H13.05L12.95 123.55H12.85H12.75H12.65H12.55H12.45H12.35H12.25H12.15V123.45H12.05H11.95V123.35H11.85L11.75 123.25H11.65H11.55V123.35H11.45L11.35 123.45L11.25 123.55V123.65H11.15L11.05 123.75H10.95H10.85L10.75 123.65H10.65H10.55L8.44995 123.15L6.94995 122.85V122.35L7.04999 121.85V121.45L6.34998 121.55L5.44995 121.65H4.34998L4.04999 121.75H3.94995H3.25L2.14996 121.85L1.54999 121.95H0.75L0.349976 122.05L0.25 121.95V121.85V121.75V121.65V121.55V121.45L0.349976 121.35H0.449951V121.25H0.549988L0.649963 121.15H0.75V121.05V120.95V120.85H0.849976V120.95H0.949951V121.05H1.04999V120.95L1.14996 120.85V120.75H1.25V120.85V120.95H1.34998V121.05H1.44995V120.95H1.54999L1.64996 120.85H1.75V120.75V120.65H1.64996V120.55V120.45V120.35H1.54999V120.25H1.64996V120.15L1.75 120.05H1.84998H1.94995H2.14996L2.04999 119.95V119.85V119.65V119.55H1.94995V119.45V119.35V119.25V118.85L1.84998 118.25L1.75 118.15V117.75L1.64996 117.25L1.54999 116.55L1.44995 115.75L1.34998 115.65L1.25 114.95L1.14996 114.35L0.949951 112.65L0.849976 112.15V112.05H0.949951L1.54999 111.95H1.94995L2.64996 111.85V111.65V111.35L3.94995 111.15H4.34998L4.84998 111.05L5.34998 110.95H5.75L5.84998 110.85L5.75 109.85L5.64996 109.45V109.05L5.04999 109.15L4.94995 108.95L4.84998 108.45V107.95L4.75 107.65L5.34998 107.55H5.64996V107.15L5.54999 106.75L5.44995 105.95L5.34998 105.55L5.25 104.55L5.14996 103.85L5.84998 103.75L6.34998 103.65V103.55L6.25 102.85L6.04999 101.95L5.84998 100.75V100.45L5.75 100.05H5.84998L6.64996 99.85L6.54999 99.35L6.34998 98.05L6.25 97.75V97.55V97.35V97.25H5.94995L5.84998 97.35H5.64996H5.54999L5.25 97.45L4.94995 97.55H4.64996L4.54999 97.65L3.75 97.75L3.25 97.95H2.94995H2.84998H2.75V97.85H2.64996V97.75H2.54999V97.65H2.44995V97.55H2.34998V97.45V97.35V97.25H2.25V97.15V97.05H2.14996V96.95V96.85V96.75V96.65V96.55H2.04999V96.45V96.35H1.94995V96.25V96.15H2.04999L2.44995 96.05H2.54999H2.64996L2.54999 95.45V95.15L2.44995 95.05V94.65L2.34998 93.95V93.75V93.65H2.25H2.04999L1.94995 92.85V92.75L2.04999 92.35V92.25H2.14996H2.25L2.34998 92.15H2.44995V92.05H2.54999H2.64996V92.15H2.75L2.84998 92.25H2.94995L3.04999 92.35H3.14996L3.34998 92.45H3.44995H3.54999V92.35H3.44995V92.25L3.34998 92.15V91.85V91.75L3.44995 91.65V91.15L3.54999 91.05V90.95V90.85V90.75H3.44995V90.65V90.55L3.75 90.45H3.84998V90.35H3.94995H4.04999V90.25V90.15V90.05V89.65H3.94995V89.45V89.35V89.25L3.84998 88.95H3.94995V88.85H4.04999H4.14996V88.75L4.04999 88.65H4.25H4.34998L4.75 88.55H5.04999L5.34998 88.45H5.64996L5.94995 88.35L6.94995 88.15H7.04999H7.44995L7.64996 88.05H7.75H7.84998L7.75 87.95L7.64996 87.85V87.75H7.54999V87.65V87.55V87.45V87.35V87.25V87.15L7.44995 87.05L7.54999 86.95V86.85H7.64996V86.75V86.65V86.55L7.54999 86.45L8.04999 86.35V86.65H8.25L8.44995 86.55H8.64996L9.04999 86.45H9.44995L9.54999 86.55V86.65L9.64996 87.35L9.75 88.15L10.05 88.05L9.84998 87.25V86.95V86.65L9.75 86.45V86.15H9.54999L9.44995 85.45H9.75L9.94995 85.35H10.05V85.25L9.94995 84.95L10.45 84.85H10.85V84.75H10.95L11.35 84.65L11.75 84.55L12.65 84.45H12.75L13.55 84.25L13.45 83.25L14.25 83.15L14.15 82.65L13.55 82.75V82.55H13.35L13.45 83.15H13.25L12.55 83.25L11.75 83.35H11.65H11.55V83.25V82.95L11.45 82.75V82.55V82.35L11.65 82.25L12.35 82.15L13.05 82.05H13.25V81.85L13.75 81.75H13.85H13.95V81.65V81.45L13.85 81.15V81.05V80.85L13.75 80.55V80.25V79.95L13.35 80.05H13.25L13.15 79.35L13.05 79.05L12.95 78.45L13.75 78.35L14.15 78.25H14.55L14.65 79.35L14.75 79.85L15.95 79.65L16.15 80.55V80.75L15.95 80.85L16.05 81.25V81.35L16.25 83.45L16.65 83.55H16.95H17.05V83.45V83.35H17.15V83.25L17.25 83.05V82.85H17.45V82.75V82.65V82.55V82.45V82.35V82.25H17.55H17.65H17.75L17.85 82.35H18.05H18.15V82.15L18.25 82.05V81.95V81.85V81.75L18.15 81.65V81.55H17.75L17.55 81.15L17.25 80.55L17.15 80.25L17.05 80.15L16.95 79.95L17.35 79.85L17.85 79.75H18.25V79.65L18.15 79.35H18.25L19.25 79.25H20.15H20.25V79.15L20.35 79.05V78.95H20.45V78.85L20.55 78.95H20.65H20.75H20.85H20.95H21.05H21.15H21.25H21.35V78.85L21.45 78.75H21.85L22.25 78.65L22.75 78.55H23.35L23.55 78.45L23.95 78.35H24.05L23.85 77.55V77.35V77.25V77.15L23.95 77.05V76.95L24.65 76.85L25.65 76.65L26.45 76.55L26.35 76.15L27.25 75.95V75.85L27.35 75.75V75.55V75.35L27.05 75.55L26.65 75.05H26.75H26.85H26.95L27.35 74.85L27.45 74.25V74.15V74.05L27.55 73.75L28.05 73.85H28.15L28.55 74.55V74.45L28.75 74.35L28.85 74.45L29.25 74.25L29.45 74.05V73.95V73.85V73.75L29.55 73.65L29.85 73.55V73.45L29.75 73.35L29.55 72.45V72.35L29.45 72.15H29.25V71.95L29.15 71.35L29.05 70.75L28.95 70.35L28.15 70.25V70.15H28.25V70.05V69.95H28.35V69.85H28.45V69.75H28.35V69.65V69.55L28.25 69.25V69.15L27.95 69.05L28.05 68.45L28.15 67.45L28.25 67.35V66.85L28.35 66.65V66.55V66.45L28.25 66.35H28.15L28.05 66.25H27.95L27.85 66.15H27.75H27.65H27.55L27.45 66.25H27.35H27.25H27.15H26.95L26.85 66.35H26.75H26.65H26.45H26.35V66.65L26.15 66.55L26.25 65.95L26.35 65.05L26.45 64.85H26.25H25.55L25.45 64.35V64.15L25.95 63.65L26.25 63.25L26.15 63.15H25.95V62.85L26.05 62.25V62.15V62.05H26.15V61.95H26.25H26.65L26.75 61.65V61.45H26.85H26.95H27.35L27.25 60.65H26.75V60.45L26.85 60.25V60.05V59.75V59.35V59.15V58.95V58.85L26.95 58.15V58.05V57.95L26.85 57.85V57.45L26.75 56.85L26.65 56.25V55.85L26.55 55.65V55.05L26.45 54.55L26.35 54.15V53.55L26.15 52.55V52.15L26.05 51.45L25.95 50.85L26.05 50.75L26.25 50.65H26.45V50.55L26.35 50.45L26.25 50.15L26.05 49.95L26.65 49.75V49.65V49.35L26.55 48.95L27.25 48.85L27.65 48.75V48.95L28.05 48.85V48.65L27.95 48.15L28.35 48.05H28.55L29.25 47.95L30.25 47.75L31.15 47.65L31.75 47.55L31.85 47.75L32.05 48.85L33.35 48.45L33.65 48.35V48.25L33.45 47.55V47.35L33.15 46.45V46.35L33.05 46.05V45.95L32.95 45.85V45.75H33.05L33.65 45.65L33.85 45.55V45.95L34.65 45.85L34.85 45.75H35.05L35.15 46.35H35.35L35.45 46.85L35.55 46.75V46.85L36.05 46.55L36.65 46.05L36.85 45.85L37.25 45.55L37.55 45.25L37.85 45.15L37.95 45.05L38.35 44.85H38.45H38.55L38.65 44.75V44.65L39.15 44.55V44.65H39.25V44.55L39.35 44.45H39.45L39.55 44.55H39.65L39.75 44.65V44.55H39.85V44.45H39.75V44.35V44.25H39.85L39.95 44.15H40.05H40.15L40.25 44.05V43.95H40.35H40.45V43.85H40.55H40.65L40.75 43.75V43.65V43.45L40.65 43.15L40.55 42.45H40.75V42.15H40.65H40.55V41.95L40.45 41.75V41.65L40.35 41.35H40.55L41.25 41.25L42.75 40.95L42.85 40.05V39.65V39.15V39.05H42.75L42.25 39.15L42.05 39.25L41.45 39.35H41.35H41.25L40.95 39.45L40.45 39.55H40.15L40.05 39.45L39.95 38.95V38.65H39.85L39.15 38.75L39.05 38.65L38.85 38.45L38.55 38.25V38.15L38.35 38.05L38.25 37.95L38.15 37.85L38.05 37.75L37.85 37.45L37.55 37.15L37.35 36.95H37.25L37.15 36.75L36.75 36.45L36.65 36.35H36.05L35.65 36.45H35.35L35.05 36.55V36.15L34.55 36.25H34.35H34.25L34.05 36.15H33.95H33.85V36.05H33.75H33.55L33.45 35.95L33.35 35.75V35.45L33.25 35.35L33.15 34.95L32.95 34.15L32.15 34.45L32.05 34.25V34.05H31.85L31.75 33.95V33.85V33.75H31.85L31.75 33.55L31.65 33.25V33.15L31.55 33.05L31.45 32.25V32.05H31.65H31.75H31.85V31.85L31.75 31.45V31.25L31.65 30.75L32.35 30.65L32.65 30.55L32.75 31.05L33.35 30.95L33.45 31.45L33.75 31.35H33.95V31.25H34.25H34.45L34.95 31.15L35.05 31.05H35.25H35.35L35.45 30.95V30.85V30.75H35.55V30.65V30.55L35.65 30.45V30.35L35.75 30.25L35.85 30.05V29.95H35.95V29.85L36.05 29.75V29.65V29.55H36.15V29.45H36.25V29.35L36.35 29.25L36.45 29.35H36.55H36.75L36.85 29.45L36.95 29.65L37.05 29.85L37.25 29.75L37.75 29.45H37.85H37.95H38.25V29.55V29.65L38.55 29.75L38.65 30.15V30.25V30.35L38.75 30.55V30.95L38.85 31.45H38.95H39.05L39.45 31.35H39.75V31.25V31.15H39.85L39.95 30.95V30.85H40.05L40.35 30.75H40.65V30.65L41.15 30.55V30.65V30.75V30.85V30.95L41.25 31.05H41.35H41.55L41.75 30.95H41.95H42.15H42.25V30.85V30.75V30.65V30.55V30.45L42.35 30.35H42.45H42.55H42.65H42.75L43.05 30.25H43.15L43.25 30.45V30.55V30.75L43.35 30.85V30.95V31.05V31.15V31.25L43.45 31.55V31.65V31.75V31.85V31.95H43.55V32.25L43.65 32.35H43.75H43.85L43.95 32.45H44.05V32.55V32.65H44.15V32.75V32.85H44.25L44.45 32.75H44.55H44.65H44.85H44.95H45.05L45.15 32.65V32.55L45.25 32.45V32.25V32.05V31.95V31.75V31.65L45.15 31.15V31.05L45.05 30.25H45.15L45.25 29.95L45.35 29.25L45.65 28.25L45.75 27.55H45.85V27.45H45.95H46.05H46.15L46.25 27.35H46.35L46.45 26.75L46.65 26.05L46.75 25.35L46.85 25.15L46.95 24.75L47.05 24.35V24.25L47.15 23.95V23.75V23.65V23.55L47.25 23.05L47.35 22.75V22.65L47.45 22.75L47.55 22.85V22.95L47.75 23.05L47.85 23.15V23.25L48.15 23.45L48.25 23.55L48.35 23.65V23.75L48.55 23.95L48.75 24.05L48.95 24.25L49.25 24.35H49.35H49.45H49.65H49.75H49.85L49.95 24.45H50.05L50.35 24.55L50.75 24.85H50.85L51.35 25.15L51.65 25.35L51.75 25.45H51.95H52.15H52.55H52.85L53.55 25.55L53.85 25.65H53.95L54.15 25.85L54.25 25.95V26.05V26.45V26.65V26.85V26.95L54.35 27.05L54.45 27.25L54.65 27.35L54.95 27.55L55.25 27.65L55.55 27.85L55.75 28.05L56.05 28.35L56.15 28.55L56.35 28.65L56.55 28.75H56.65H56.85H57.15L57.35 28.65H57.55L57.65 28.55H57.85L58.15 28.65H58.35L58.45 28.75L58.65 28.85L58.85 29.05L58.95 29.25L59.05 29.35L59.15 29.55V29.65L59.05 29.75V29.95L58.75 30.15V30.25L58.65 30.45V30.65L58.55 30.85L58.65 31.15V31.45L58.75 31.75L58.95 31.95L59.05 32.05L59.25 32.25L59.65 32.45H59.85L60.35 32.55H60.55H60.65L60.85 32.45L61.05 32.35L61.25 32.25H61.45H61.55L61.75 32.35L61.85 32.45L62.05 32.55L62.15 32.65L62.35 32.85L62.75 33.25L62.95 33.45L63.15 33.55L63.35 33.65L63.65 33.55H63.85L64.05 33.65L64.25 33.75H64.35L64.45 33.95L64.95 34.35L65.25 34.65L65.45 34.75L65.75 34.85H65.85L66.05 34.75L66.35 34.65H66.45H66.85L67.05 34.75H67.25L67.45 34.95L67.65 35.05V35.15L67.75 35.25V35.35L67.65 35.55L67.55 35.85L67.45 36.05V36.25L67.65 36.35H67.75V36.25L67.85 36.15H67.95L68.05 36.05H68.15V35.95V35.85L67.95 35.65V35.55V35.45L68.05 35.35H68.15H68.25V35.25H68.15V35.15H68.25H68.35H68.45V35.05L68.35 34.95V34.85V34.75H68.25V34.65L68.35 34.55H68.45H68.55V34.45V34.35V34.25V34.15L68.65 34.05V33.95V33.85V33.75V33.65H68.55H68.45H68.35V33.55V33.45V33.35H68.25V33.25V33.15V33.05H68.35H68.45L68.55 32.95H68.65H68.75H68.85V32.85H68.95V32.75V32.65V32.55H69.05V32.45L69.15 32.35H69.25L69.35 32.25H69.45V32.15H69.55V32.05H69.65V31.95H69.75V31.85H69.85H69.95V31.75V31.65H69.85L69.65 31.55V31.45H69.55L69.45 31.35L69.15 31.15L69.05 31.05L68.85 31.25L68.65 31.55H68.55V31.65H68.45H68.35H67.75V31.35V30.95V30.15V29.75L67.65 29.65V28.85H68.35H69.15L69.25 28.75H69.35H69.45V28.85H69.55H69.65L69.75 28.75L69.85 28.65V28.55H70.05H69.95H69.85V28.45H69.75L69.65 28.35H69.55H69.45H69.35V28.25H69.25H69.15H69.05H68.95L69.05 28.15V27.85V27.75V27.55V27.15V27.05H69.25H69.35H69.45H69.55V27.15H69.65V27.05H69.75V27.15V27.25V27.35H69.85V27.25H69.95H70.05L70.15 27.15V27.05H70.25V26.95H70.35V26.85V26.75V26.65V26.55V26.45V26.35V26.15H70.15H69.95H69.85H69.75H69.65H69.55L69.65 25.95V25.55V25.25V25.15L69.75 24.95L69.25 24.65L69.05 24.55L68.75 24.35L68.45 24.15L68.35 24.05L68.15 23.95L68.25 23.85L68.45 23.65L68.25 23.55V23.45L68.15 23.35H68.05V23.25L67.85 23.15V23.05V22.85L67.95 22.55V22.45V22.15L68.05 22.05V21.95V21.55L68.15 21.45V21.35V21.25V21.15L68.25 20.85V20.55L68.35 20.25L68.45 19.65L68.85 19.05L69.05 18.65L69.25 18.35L69.45 18.05L69.65 17.75L69.75 17.65V17.55L69.85 17.45V17.35L70.05 17.15L70.35 16.65L70.45 16.35L70.35 16.25L70.05 15.95L70.15 15.65H70.05V15.55H69.95L69.85 15.45H69.75H69.65L69.45 15.35L69.25 15.25H69.15V15.05L69.25 14.95V14.85L69.45 14.55V14.45L69.55 14.35L69.65 14.15L69.95 13.95L70.05 13.85H70.55L70.45 13.55V13.45L70.65 13.25L70.85 13.15L71.05 12.95L70.95 12.65L70.85 12.55L71.05 12.45L71.45 12.25L71.95 12.15L72.35 11.95L72.65 11.75L72.55 11.65L72.45 11.45L72.35 11.25L72.65 11.15L73.05 11.05L73.45 10.95L73.65 10.85L73.55 10.55L73.45 10.15L73.35 9.85001V9.75L73.05 9.35001L73.25 9.05002L73.15 8.95001V8.85001V8.75V8.64999V8.55002L73.05 8.14999V7.95001H72.95V7.85001L73.05 7.95001H73.25L73.35 8.05002H73.45V8.14999H73.55L73.85 8.45001L74.25 8.75L74.85 9.25L75.35 9.55002L75.65 9.75L75.85 9.95001L76.05 10.05L76.15 10.15H76.25L76.15 10.05L76.35 9.85001L76.55 9.64999L76.65 9.45001L77.05 9.75L77.45 10.05L77.65 10.15L77.75 10.25L77.85 10.35L78.05 10.25L78.15 10.05L78.25 9.95001L78.35 9.75L78.45 9.64999L78.75 9.55002L78.85 9.75L78.95 9.85001H79.05V9.95001H79.15L79.25 10.05V10.15H79.35L79.55 10.35L79.65 10.45V10.55H79.75L79.85 10.65L80.15 10.85H80.25H80.35L80.45 10.75H80.65H80.75L80.85 10.85L80.95 10.75L81.15 10.55V10.65L81.65 10.25L81.55 10.15L81.45 9.95001L81.55 9.85001H81.45L81.35 9.64999L81.15 9.45001L81.35 9.05002L81.25 8.85001V8.75H81.35V8.64999H81.45H81.55V8.55002V8.45001H81.45V8.35001V8.25L81.55 8.14999H81.65V8.05002V7.95001V7.85001L81.55 7.75L81.75 7.64999L81.85 7.85001L81.95 7.75L82.05 7.85001H82.15H82.25H82.35L82.45 7.95001H82.55H82.65V7.85001V7.75H82.55V7.64999V7.55002H82.45V7.45001V7.35001V7.25V7.14999V7.05002L82.55 6.95001L82.45 6.85001H82.35V6.75V6.64999L82.45 6.55002V6.45001H82.55H82.65H82.75V6.55002H82.85V6.45001H82.95L82.85 6.55002V6.64999V6.75H82.95L83.05 6.64999V6.55002H83.15H83.25L83.35 6.45001V6.25L83.65 6.05002L83.95 5.85001H84.05V5.75L84.15 5.64999H84.25V5.55002H84.35H84.45V5.45001H84.55H84.65V5.55002H84.75H84.85V5.45001H84.75V5.35001H84.85H84.95V5.25H85.05H85.15H85.25V5.14999H85.15V5.05002H85.25H85.35V4.95001H85.45V5.05002V5.14999H85.55V5.25V5.35001V5.45001V5.55002V5.64999H85.65V5.55002H85.75H85.85V5.64999H85.95V5.75L86.05 5.85001L86.15 5.95001L87.05 5.75V5.35001V5.25V5.14999V5.05002H87.15V4.95001H87.25H87.35V4.85001H87.45H87.55H87.65L87.75 4.75L87.85 4.85001H87.75V4.95001H87.85V5.05002H87.95V5.14999H88.05H88.15H88.25H88.35V5.05002H88.45H88.55V4.95001H88.65L88.75 4.85001H88.85V4.75L88.95 4.64999H89.05V4.55002H89.15V4.64999H89.25H89.35H89.45L89.55 4.55002L89.65 4.45001L89.75 4.35001L89.85 4.25V4.14999H89.95V4.05002V3.95001H90.05H90.15V4.05002H90.25V4.14999L90.35 4.25H90.45H90.55V4.14999V4.05002V3.95001L90.95 4.05002H91.15L91.35 3.95001V3.75L91.25 3.55002V3.45001L91.35 3.35001V3.14999H91.25V3.05002H91.15V2.95001H91.05V2.85001V2.75V2.64999V2.55002H90.95V2.45001V2.35001H90.85V2.25H90.95V2.14999H91.05H91.25V2.05002V1.95001H91.35V2.05002H91.45V1.95001H91.55H91.65V1.85001H91.75V1.75V1.64999H91.85L91.75 1.55002H91.85H91.95H92.05H92.15L92.25 1.45001H92.35L92.25 1.55002V1.64999H92.35V1.55002H92.45H92.55H92.65H92.75V1.45001H92.85H92.95V1.35001H93.05H93.15H93.25V1.45001H93.35V1.55002H93.25H93.15V1.64999V1.75H93.25H93.35V1.64999H93.45V1.75H93.35V1.85001V1.95001V2.05002V2.14999V2.25H93.45V2.35001L93.55 2.25H93.65H93.75V2.14999H93.85V2.05002V1.95001V1.85001L93.95 1.75H94.05H94.15H94.25V1.64999H94.35H94.45V1.55002V1.45001H94.35L94.25 1.55002H94.15V1.45001V1.35001H94.25V1.25H94.35V1.14999H94.25H94.15V1.05002V0.950012H94.05V0.850006H93.95V0.75H94.05V0.649994H94.15V0.550018H94.25H94.35L94.25 0.649994H94.35H94.45H94.55V0.550018H94.65H94.75H94.85H94.95L95.05 0.450012H95.15H95.25H95.35V0.350006H95.45H95.55V0.450012H95.65H95.75H95.85H95.95V0.550018H95.85V0.649994L95.95 0.75H95.85V0.850006H95.95V0.950012H96.05V1.05002H96.15H96.25V1.14999H96.35H96.45H96.55H96.65H96.75H96.85L96.95 1.25H97.05H97.15H97.25H97.35H97.45V1.35001H97.55H97.65H97.75V1.45001H97.85V1.35001H97.95H98.05H98.15L98.25 1.45001H98.15V1.55002V1.64999V1.75H98.05V1.85001L97.95 1.95001V2.05002H97.85V2.14999H97.75H97.65V2.25H97.55V2.14999H97.35L97.15 2.05002H97.05H96.95L96.85 2.14999H96.75H96.65H96.55V2.25H96.45V2.35001H96.35V2.64999V2.75V2.85001H96.45H96.55V2.75L96.65 2.85001L96.95 2.95001L97.55 3.14999V3.35001L98.05 3.55002L98.25 3.35001V3.25H98.35H98.45V3.14999V3.05002H98.55V3.14999H98.65V3.25H98.75L98.85 3.14999H98.95H99.05V3.05002V2.95001H99.15L99.05 2.85001V2.75V2.55002L99.15 2.35001V2.14999V2.05002V1.95001V1.85001V1.75V1.64999V1.55002L99.25 1.45001V1.35001V1.25L99.35 1.14999V1.05002V0.950012H99.45V0.850006H99.55L99.65 0.950012L99.85 1.14999L100.05 0.850006L100.15 0.75L100.45 0.25H100.55V0.350006H100.65V0.25H100.75H100.85H100.95L101.05 0.350006H101.15V0.450012H101.05V0.550018V0.649994H100.95V0.75H101.05V0.850006H101.15V0.75L101.25 0.649994V0.75V0.850006V0.950012H101.35V1.05002H101.45H101.55H101.65H101.75L101.85 1.14999H101.95H102.05V1.25L101.95 1.45001L102.45 2.14999L102.55 2.05002L102.85 2.25V2.35001V2.45001H102.95L103.25 2.64999H103.35L103.45 2.75H103.55L103.45 3.05002H103.55H103.65V3.14999H103.75H103.85V3.25V3.35001V3.45001H103.75V3.55002V3.64999H103.85L103.95 3.55002H104.05V3.45001Z" fill="#220F0F"/>
<path d="M105.75 1.55002H105.65V1.64999H105.55V1.75V1.85001L105.65 1.95001V2.05002V2.14999V2.25V2.35001V2.45001L105.55 2.55002V2.64999H105.45V2.75V2.85001V2.95001L105.35 3.05002V3.14999H105.25H105.15H105.05L104.95 3.25H104.85L104.75 3.35001H104.65H104.55H104.45L104.25 3.45001H104.15H104.05V3.55002H103.95L103.85 3.64999H103.75V3.55002V3.45001H103.85V3.35001V3.25V3.14999H103.75H103.65V3.05002H103.55M105.75 1.55002V1.64999M105.75 1.55002V1.45001H105.85V1.55002H105.95M105.95 1.55002H106.05M105.95 1.55002V1.64999H106.05V1.55002M106.05 1.55002H106.15H106.25V1.64999V1.75H106.35L106.45 1.85001H106.55L106.65 1.95001H106.75L106.85 2.05002L106.65 2.25L106.75 2.85001L106.95 2.75L107.15 2.64999V2.75V2.85001V2.95001V3.05002V3.14999H107.05V3.25M107.05 3.25H106.95M107.05 3.25V3.35001H106.95V3.45001V3.55002V3.64999L107.05 3.75V3.85001V3.95001H107.15V4.05002H107.25V4.14999L107.35 4.25H107.45V4.14999V4.05002V3.95001M107.45 3.95001H107.35M107.45 3.95001V3.85001V3.75V3.64999M107.45 3.64999V3.55002M107.45 3.64999H107.55V3.55002H107.65V3.45001V3.35001H107.75V3.25L107.85 3.14999H107.95V3.05002H108.05H108.15L108.25 2.95001H108.35M108.35 2.95001V3.05002M108.35 2.95001H108.45H108.55V3.05002H108.65V2.95001H108.75L108.85 2.85001H108.95V2.75H109.05H109.15V2.64999V2.55002L109.25 2.45001H109.35V2.55002V2.64999V2.75H109.45L109.55 2.85001H109.65V2.75L109.55 2.64999H109.65L109.75 2.75H109.85V2.85001H109.95H110.05V2.95001V3.05002H109.95H109.85V3.14999H109.75V3.25H109.85V3.35001H109.95H110.05L110.15 3.45001H110.25H110.35V3.55002H110.45H110.55V3.45001H110.65H110.75V3.35001H110.85V3.25V3.14999H110.95V3.05002L111.05 2.95001V2.85001H111.15V2.75L111.25 2.64999H111.45H111.55H111.75H111.85H111.95V2.75M111.95 2.75V2.85001M111.95 2.75H112.05M112.05 2.75V2.85001M112.05 2.75H112.15V2.85001L112.25 2.75H112.35V2.64999H112.45L112.55 2.55002H112.65V2.64999V2.75H112.75H112.85H112.95V2.85001L113.05 2.95001V3.05002L113.15 3.14999H113.25H113.35H113.45L113.55 3.25L113.65 3.35001L113.75 3.45001V3.55002H113.65H113.55H113.35H113.25H113.15H113.05L112.95 3.64999H112.85M112.85 3.64999V3.75H112.75M112.85 3.64999H112.75V3.75M112.75 3.75H112.65M112.75 3.75V3.85001H112.65V3.95001L112.75 4.05002H112.65V4.14999V4.25L112.75 4.14999V4.25V4.35001V4.45001M112.75 4.45001V4.55002M112.75 4.45001H112.85H112.95H113.05H113.15V4.55002H113.25V4.64999H113.35V4.55002H113.45L113.55 4.64999L113.95 4.95001L114.05 5.05002H114.15L114.35 5.14999L114.45 5.25H114.55V5.35001H114.65V5.45001H114.55L114.45 5.55002L114.25 5.45001H114.15M114.15 5.45001V5.55002M114.15 5.45001H114.05H113.95L113.85 5.55002H113.75V5.64999H113.65V5.75H113.75V5.85001V6.05002L113.55 5.95001H113.45H113.25H113.15L113.05 6.05002L112.95 6.14999V6.25H112.85M112.85 6.25V6.35001M112.85 6.25H112.75V6.35001V6.45001H112.65V6.55002L112.75 6.64999H112.85V6.75H112.95H113.05H113.15H113.25H113.35H113.45H113.55H113.65H113.75L113.85 6.85001H114.15H114.25L114.35 6.95001V7.05002V7.14999V7.25V7.35001H114.45V7.25H114.55M114.55 7.25H114.65M114.55 7.25V7.35001H114.65H114.75V7.25V7.14999H114.85V7.05002V6.95001L114.95 6.85001V6.75H115.05V6.64999L115.15 6.55002V6.45001V6.35001H115.25H115.35H115.45V6.45001H115.55V6.55002H115.65H115.75L115.85 6.45001H115.95L116.05 6.35001H116.15V6.45001V6.55002V6.64999V6.75V6.85001V6.95001H116.25V7.05002H116.35V6.95001H116.45H116.55L116.65 7.05002V7.14999L116.75 7.25V7.35001V7.45001L116.65 7.55002V7.64999L116.75 7.75V7.85001H116.85L116.95 7.95001L117.05 8.05002V8.14999H117.15H117.25V8.05002V7.95001V7.85001V7.75V7.64999L117.35 7.75H117.45V7.85001H117.35V7.95001V8.05002V8.14999H117.45V8.05002H117.55V7.95001V7.85001H117.65H117.75H117.85V7.75L117.95 7.85001V7.95001H118.05V8.05002H118.15V8.14999H118.25V8.25H118.35H118.45V8.14999V8.05002H118.55H118.65V8.14999V8.25H118.75V8.35001H118.85V8.45001V8.55002V8.64999V8.75V8.85001H118.95V8.95001V9.05002V9.14999H118.85V9.25H118.75H118.65V9.35001V9.45001V9.55002H118.55V9.45001L118.45 9.55002V9.64999H118.35V9.75H118.45H118.55V9.85001H118.65H118.75H118.85V9.95001H118.95H119.05V9.85001H119.15V9.95001L119.25 10.05V10.15H119.35V10.25H119.45V10.35H119.55V10.25H119.65V10.35H119.75H119.85H119.95L120.05 10.45V10.55V10.65H120.15V10.75H120.25H120.35L120.45 10.85V10.95H120.55V11.05H120.45V11.15L120.35 11.25H120.25H120.15V11.35H120.25V11.45H120.35V11.55V11.65H120.45H120.55V11.75H120.65H120.75V11.85H120.85V11.95H120.95H121.05H121.15H121.25H121.35H121.45H121.55V12.05H121.75L121.85 12.15L121.95 12.25V12.35H122.05L122.15 12.45V12.55H122.25L122.35 12.65V12.75H122.45V12.85V12.95H122.55L122.65 13.05H122.75L122.85 12.95H122.95H123.05V12.85H123.15H123.25V12.75H123.35V12.85H123.45V12.95H123.55H123.65V13.05V13.15H123.55H123.45V13.25V13.35H123.55V13.45V13.55V13.65H123.45L123.35 13.55L123.25 13.65H123.35V13.75M123.35 13.75H123.45M123.35 13.75V13.85H123.45H123.55V13.95L123.65 14.05H123.75V14.15H123.85H123.95M123.95 14.15V14.05M123.95 14.15H124.05V14.05H124.15V13.95L124.25 14.05L124.35 14.15H124.45V14.05H124.55V14.15L124.65 14.25H124.75V14.15V14.05H124.85H124.95V14.15H125.05H125.15V14.25H125.25V14.35V14.45H125.15V14.55H125.05V14.65V14.75H125.15V14.85H125.25H125.35V14.95L125.45 15.05H125.55L125.65 15.15H125.75V15.25H125.85H125.95H126.05H126.15H126.25V15.35H126.35V15.45V15.55L126.15 15.75V15.85V15.95H126.25L126.35 16.05H126.45H126.55L126.65 15.95L126.75 16.05H126.85V16.15L126.95 16.25L127.05 16.35V16.45V16.55L127.15 16.65V16.75H127.25H127.35V16.65H127.45L127.55 16.55H127.65H127.75V16.65H127.85V16.75H127.75H127.65V16.85V16.95V17.05H127.55V17.15L127.65 17.25L127.75 17.15L127.85 17.05L127.95 16.95H128.05L128.15 16.85V16.75H128.25V16.85H128.35H128.45L128.55 16.75L128.65 16.65L128.75 16.55V16.45H128.95L129.05 16.65V16.75H129.15L129.45 16.85L129.85 16.95H129.95V16.85V16.75L129.85 16.65V16.55V16.45H129.95H130.05H130.15H130.25L130.35 16.55V16.65H130.45V16.75V16.85H130.55H130.65L130.75 16.95H130.85H130.95H131.05H131.15L131.25 16.85H131.35V16.95V17.05L131.45 17.15H131.55V17.05H131.65V16.95V16.85H131.75L131.85 16.75H131.95V16.85H132.05V16.95H131.95V17.05V17.15H132.05H132.15L132.25 17.05H132.35V16.95V16.85V16.75H132.45V16.65V16.55H132.55H132.65V16.45V16.35V16.25L132.55 16.15H132.65V16.05L132.75 16.15V16.25H132.85L132.95 16.35V16.25H133.05V16.15H133.15H133.25V16.25V16.35V16.45H133.35V16.55H133.45H133.55H133.65H133.75V16.45H133.85V16.55H133.95H134.05H134.15V16.45H134.25H134.35H134.45H134.55H134.65H134.75H134.85V16.55V16.65H134.75V16.75V16.85V16.95H134.65V17.05V17.15V17.25V17.35L134.75 17.45V17.55V17.65L134.95 17.95H135.25H135.35H135.45H135.55H135.65V17.65V17.55H135.55V17.45H135.65V17.35H135.75V17.25V17.15H135.85H135.95H136.05H136.15H136.25H136.35V17.05H136.45V17.15H136.55V17.25V17.35V17.45V17.55H136.65V17.45H136.75V17.35H136.85V17.25H136.95H137.05H137.15H137.25V17.35H137.35H137.45V17.25H137.55V17.35H137.65M137.65 17.35V17.25M137.65 17.35H137.75V17.45H137.85H137.95V17.55H138.05H138.15V17.65H138.25V17.75V17.85V17.95V18.05L138.15 18.15V18.25H138.05V18.35L138.15 18.45V18.55H138.25V18.65V18.75H138.15V18.85H138.05V18.95H137.95V19.05H138.05V19.15V19.25V19.35H138.15V19.45H138.25V19.55L138.35 19.45V19.35M138.35 19.35H138.25M138.35 19.35V19.25H138.25V19.15L138.35 19.05H138.45V19.15V19.25H138.55H138.65H138.75H138.85L138.95 19.15L139.05 19.05H139.15V18.95V18.85H139.25V18.75V18.65H139.15V18.55V18.45H139.05V18.35L139.15 18.25V18.15H139.25V18.05L139.35 17.95V17.85H139.45V17.75H139.55V17.65H139.65H139.75V17.75V17.85H139.85H139.95H140.05V17.75V17.65H140.15L140.25 17.75L140.35 17.85V17.95H140.45V18.05L140.35 18.15V18.25H140.25V18.35L140.35 18.45H140.45V18.55V18.65V18.75H140.35V18.85V18.95H140.45V19.05H140.55H140.65H140.75H140.85L140.95 19.15H141.05H141.15H141.25H141.35V19.05H141.45V18.95L141.35 18.85V18.75V18.65H141.45V18.55H141.55H141.65L141.75 18.65H141.85V18.75H141.95V18.85H142.05V18.95H142.15V19.05H142.25H142.35L142.45 18.95H142.55V18.85H142.65V18.75V18.65V18.55H142.75H142.85V18.65H142.95H143.05V18.75V18.85V18.95L142.95 19.05V19.15V19.25H143.05V19.35H143.15L143.35 19.45H143.45H143.55V19.55L143.45 19.65V19.75H143.35H143.15H143.05V19.85V19.95V20.05V20.15H143.15V20.25H143.25V20.35V20.45H143.35V20.55L143.45 20.65H143.55V20.75L143.65 20.65H143.75H143.85V20.75H143.95V20.65H144.05H144.15V20.55H144.25V20.45L144.15 20.35V20.25L144.05 20.05V19.95H143.95V19.85V19.75V19.65H144.05V19.55H144.15H144.25V19.65H144.35V19.75H144.45H144.55V19.65V19.55L144.65 19.45L144.75 19.35L144.85 19.25V19.15H144.95V19.05V18.95H145.05L145.15 19.05V19.15H145.25V19.25V19.35H145.35V19.45L145.45 19.15L145.95 19.25H146.05L146.15 19.35H146.25H146.35V19.25L146.25 18.45V18.35L146.95 18.15H147.05V18.05L147.45 17.95L147.75 17.05L148.45 17.25H148.55H148.65V17.15H148.75H148.85V17.25H148.95H149.05V17.35H149.15V17.45V17.55H149.25H149.35H149.45V17.45V17.35H149.55V17.25H149.65V17.15H149.75H149.85H149.95V17.05H150.05H150.15M150.15 17.05V17.15M150.15 17.05L150.45 17.15V17.05H150.55L150.65 16.95H150.75V16.85H150.65V16.75H150.55V16.65H150.45H150.35V16.75H150.25H150.15V16.65M150.15 16.65H150.05M150.15 16.65V16.55H150.25V16.45V16.35H150.35V16.25V16.15H150.45V16.05V15.95V15.85V15.75H150.35V15.65H150.25V15.55V15.45H150.35L150.45 15.35V15.25V15.15H150.55L151.15 15.75L151.55 16.15L151.95 16.45L152.05 16.55L152.35 16.75L152.65 17.15L153.05 17.45V17.55L152.45 18.25L153.55 19.05L153.75 19.25L153.35 19.75L153.65 19.95L154.65 20.75L154.85 20.85L155.25 21.25L155.55 21.45H155.65L155.75 21.55V21.65L154.75 23.05L154.55 23.25L154.15 23.75L154.75 24.15L154.95 24.35L155.05 24.45L155.25 24.55L155.65 24.85L155.55 24.95L155.15 25.45L154.55 26.25L154.75 26.45L154.95 26.55L155.35 26.85L155.65 27.15H155.75L155.85 27.05L155.95 27.15H156.05H156.25H156.35H156.45V27.25H156.55H156.65L156.75 27.35L156.85 27.45H156.95L157.05 27.55H157.15H157.25V27.65H157.35V27.75V27.85V27.95V28.05H157.45V28.15H157.35H157.25V28.25L157.15 28.35V28.45V28.55H157.05V28.65V28.75H157.15V28.85V28.95V29.05H157.05V29.15V29.25V29.35H156.95V29.45H156.85V29.55V29.65H156.95V29.75M156.95 29.75H156.85M156.95 29.75H157.05V29.85H157.15V29.75H157.25V29.85H157.35H157.45H157.55H157.65H157.75V29.75H157.85V29.85H157.95V29.75H158.05V29.85H158.15V29.75H158.25V29.85H158.35H158.45H158.55M158.55 29.85V29.95M158.55 29.85H158.65L158.75 29.95M158.75 29.95V30.05M158.75 29.95H158.85L158.95 29.75H159.15L159.85 29.85V29.95V30.05H159.95V29.95H160.05H160.15H160.25V30.05V30.15L160.35 30.25V30.35L160.75 30.75L161.35 31.45L161.65 31.65H161.55L161.35 31.85L161.25 31.95L161.35 32.25L161.45 32.45L161.55 32.75V32.85L161.05 32.95H160.95L160.85 33.05H160.65L161.35 34.05L161.75 34.35L161.25 35.25L160.75 36.25L161.55 36.85L162.35 37.45L163.35 38.15L164.15 38.75L164.95 39.45L165.75 39.95L166.15 40.25L166.35 40.35L166.65 40.65L167.05 40.95L167.15 40.85H167.05V40.75V40.65H167.15L167.35 40.85L167.95 41.25L167.65 41.55H167.55L167.25 41.85H167.15V41.95H167.05V42.05M167.05 42.05H167.15M167.05 42.05L166.95 42.15H167.05V42.25V42.35V42.45H167.15V42.55V42.65V42.75H167.05M167.05 42.75V42.65H166.95V42.75H167.05ZM167.05 42.75V42.85H167.15V42.95H167.05V43.05V43.15H166.95V43.25H166.85V43.35M166.85 43.35H166.75M166.85 43.35V43.45V43.55V43.65H166.75V43.75L166.65 43.85V43.95H166.55V43.85H166.45L166.35 43.75H166.25V43.85V43.95V44.05V44.15L166.85 44.65H166.95V44.75L167.05 44.85L167.55 45.15L168.55 45.85L169.65 46.75L169.55 46.85L169.35 47.15L169.05 47.55L168.85 47.85L168.35 48.45L168.15 48.85L168.05 48.95L167.85 49.25L167.35 49.85L167.25 50.05L168.55 50.95L168.65 50.75L168.95 50.35L169.15 50.05L169.45 49.65L169.95 49.15L170.15 49.25L170.35 49.45L171.05 50.05L171.45 50.35L171.25 50.65L171.45 50.95L171.55 50.85L172.05 50.25V50.15L172.25 49.95L172.55 49.45L173.35 48.45L172.85 48.05L173.15 47.55L173.45 47.05L173.65 46.85L173.85 46.55V46.45L174.25 45.95V45.85H174.35V45.75V45.65L174.75 45.15L174.85 45.05L174.95 44.95L175.05 44.75L175.15 44.65L175.25 44.75H175.35H175.45V44.85H175.55H175.65H175.75L175.85 44.75H175.95H176.05V44.65H175.95H175.85H175.75H175.65H175.55H175.45H175.35L175.25 44.55H175.15L175.45 44.25L175.75 43.75L175.85 43.55L175.65 43.45L175.45 43.35H175.25H175.05L174.75 43.15V43.05H174.95H175.15L175.25 43.15L175.75 43.25H175.85H175.95H176.05H176.15L176.35 42.95H176.45L176.65 42.55L177.25 41.75L177.65 41.35L177.95 40.95V40.85L178.05 40.95L178.55 41.35L178.75 41.55L179.05 41.85L179.35 42.05L179.55 42.25L179.75 42.35L180.05 42.65L180.35 42.85L181.05 43.45L181.55 43.85L181.65 43.95H181.75H181.85L181.95 44.05H181.85V44.15V44.25H181.95V44.35V44.45H182.15L182.25 44.55H182.75L182.85 45.15V45.25L183.35 45.15V45.55L184.75 45.35L184.95 45.25H185.05L185.85 45.15L186.65 45.05V44.85L186.55 44.55L187.55 44.35L187.45 43.85H187.55H187.75L188.15 43.75L188.85 43.65H189.05V44.05L189.45 43.95H189.65L190.85 43.75V43.95L191.05 45.45L191.15 45.95V46.05L192.45 45.75H192.85L192.95 46.05H193.45H193.65H193.75H193.95H194.25V46.45V46.65L194.45 48.15L194.75 48.05H195.15V48.25H195.65H196.05L196.35 48.15H196.45H196.65H196.75H196.85H196.95L197.55 49.55L198.05 49.45H198.15L198.25 50.05V50.15L198.95 50.05H199.05L199.15 50.55V50.95V51.05L199.25 51.15V51.25V51.45V51.55V51.65H199.15H198.85L198.05 51.75V51.85H197.85L196.45 52.05L196.55 52.25V52.55L196.65 53.65L196.75 53.85V54.35L196.35 54.45H195.85L195.45 54.55L195.55 55.25V55.45V55.55L195.65 55.95V56.55L195.75 57.15V57.65H195.95H196.25V58.05L196.35 58.45V58.75V58.85L196.45 59.05L196.55 59.15H196.45V59.25V59.35V59.45V59.55H196.55V59.65V59.75H196.45H196.35V59.65H196.25V59.55H196.15V59.45H196.05M196.05 59.45V59.35M196.05 59.45H195.95H195.85H195.75V59.55V59.65H195.65V59.75H195.55V59.65H195.45V59.75H195.35L195.25 59.85H195.15V59.95L195.25 60.05H195.35H195.45V60.15H195.55H195.65V60.25V60.35H195.55L195.45 60.45H195.35H195.25H194.95L195.05 60.85V60.95V61.15V61.45L195.15 61.75V61.85V62.15L195.25 62.75L195.35 63.05V63.15V63.25H195.25V63.35H195.15V63.45L195.05 63.55H194.95H194.85H194.75V63.45H194.65V63.35H194.55V63.55V63.65V63.75L194.65 63.95V64.25V64.45V64.55L194.75 64.85H194.65L194.35 64.95L194.45 65.35L194.55 66.15V66.25L194.65 66.85L194.75 67.45V67.55V67.65L195.15 67.55H195.25L196.25 67.45L196.95 67.35H197.35V67.25H197.55L197.65 68.15H197.75L199.15 67.95L199.55 67.85L199.75 68.65L199.85 69.35L199.95 70.45L200.05 70.95L200.15 71.45V71.85V71.95L200.25 72.15V72.65L200.35 73.05V73.15V73.35L200.45 73.75L200.55 74.35V74.45L200.75 76.25L200.85 76.55H200.75L200.65 76.45H200.55H200.45H200.35V76.55H200.25H200.15H200.05H199.95H199.85H199.75H199.65V76.65H199.55H199.45V76.75H199.35V76.65H199.25H199.15V76.75V76.85H199.25V76.95V77.05H199.15H199.05V76.95V76.85V76.75L198.95 76.85V76.95V77.05H198.85H198.75V76.95V76.85V76.75H198.65V76.85V76.95V77.05H198.55V77.15V77.25H198.65H198.75V77.35H198.65V77.45H198.55L198.65 77.55V77.65V77.75H198.55H198.45V77.85H198.35H198.25V77.75H198.15V77.65V77.55H198.25V77.45H198.15H198.05L197.95 77.55V77.45H197.85L197.75 77.35H197.65V77.85L197.75 78.15V78.55L197.85 79.35L197.95 79.75L198.05 80.05V80.25V80.35V80.45V80.55V80.65L198.15 80.75V80.85V80.95V81.05V81.35L198.25 81.65V81.85L198.35 82.35V82.75L198.45 82.85V82.95V83.05V83.15L198.55 83.55V83.75L198.65 84.15V84.75L198.75 85.35L198.35 85.95L198.15 86.25L198.05 86.45V86.55H197.85V86.95L197.75 87.35H197.35H197.05H196.85V87.85L196.75 88.15V88.35V88.45V88.55V88.65V88.75H196.65L196.55 88.65H196.35V88.55H196.25V88.45L196.15 88.35H196.05H195.95L195.85 88.45V88.55H195.75H195.65H195.55H195.45H195.35H195.25V88.45H195.15V88.35H195.05L194.95 88.25H194.85V88.15H194.75H194.65H194.55L194.45 88.05V87.95H194.35V87.85V87.75H194.25V87.65H194.15V87.55V87.45V87.35V87.25H194.05H193.95V87.35H193.85V87.45H193.75V87.55H193.65H193.55M193.55 87.55V87.65M193.55 87.55H193.45V87.45H193.35V87.35H193.25H193.15V87.45M193.15 87.45H193.25M193.15 87.45V87.55V87.65H193.05M193.05 87.65V87.75M193.05 87.65H192.95V87.55H192.85H192.75V87.65H192.65H192.55V87.55V87.45H192.45V87.35H192.35L192.25 87.25V87.15H192.15V87.05H192.05H191.95V87.15V87.25V87.35H191.85H191.75V87.45H191.65V87.55H191.55H191.45H191.35V87.45H191.25H191.15H191.05V87.35H191.15V87.25H191.05H190.95V87.15L191.05 87.05V86.95V86.85V86.75M191.05 86.75V86.65M191.05 86.75H191.15V86.65H191.25H191.35V86.55H191.25V86.45V86.35H191.15M191.15 86.35V86.45M191.15 86.35H191.05V86.25H190.95V86.35H190.85V86.25V86.15H190.95V86.05H190.85H190.75H190.65H190.55H190.45H190.35V85.95H190.25V85.85V85.75H190.15V85.65V85.55V85.45V85.35V85.25H190.05V85.15H189.95V85.05V84.95H189.85V84.85H189.75H189.65V84.95V85.05H189.55V85.15V85.25H189.45H189.35V85.15H189.25V85.05H189.15H189.05H188.95L188.85 84.95V84.85H188.75V84.75H188.65H188.55H188.45H188.35H188.25H188.15H188.05H187.95V84.65L187.85 84.55H187.75V84.45H187.65V84.35H187.55V84.45L187.45 84.35H187.35H187.25V84.45L187.15 84.55V84.65H187.05L186.95 84.55V84.45V84.35H186.85V84.25H186.75V84.15H186.65V84.05V83.95H186.75V83.85V83.75H186.65H186.55V83.65H186.45V83.75H186.35V83.85V83.95V84.05H186.25H186.15V83.95H186.05V84.05H185.95H185.85H185.75H185.65V84.15H185.75V84.25H185.85V84.35H185.95V84.25H186.05V84.15H186.15H186.25V84.25H186.35L186.45 84.35H186.35V84.45H186.45V84.55H186.35M186.35 84.55V84.65M186.35 84.55H186.25V84.45H186.15V84.55L186.05 84.65H185.95V84.55H185.85V84.45H185.75V84.55H185.65V84.65H185.55V84.55H185.45H185.35H185.25V84.65V84.75M185.25 84.75H185.35L185.45 84.65V84.75H185.55L185.45 84.85V84.95H185.35V84.85H185.25V84.75ZM185.25 84.75H185.15V84.85L185.05 84.95V85.05H184.95V84.95H184.85V84.85H184.75V84.75H184.65H184.55V84.65H184.45H184.35V84.55V84.45H184.25H184.15H184.05V84.35H183.95V84.45H183.85V84.55L183.95 84.65H184.05V84.75V84.85H183.95H183.85H183.75V84.95H183.65L183.55 85.05H183.45H183.35L183.25 84.95H183.15V85.05V85.15H183.25V85.25L183.15 85.35H183.05V85.25H182.95V85.15L182.85 85.25V85.35L182.95 85.45H183.05H183.15V85.55V85.65L183.05 85.75V85.85V85.95H183.15V86.05V86.15V86.25V86.35V86.45H183.05H182.95H182.85H182.75V86.55V86.65H182.85V86.75H182.95V86.85H183.05V86.95L183.15 87.05V87.15V87.25H183.25L183.15 87.35H183.05V87.45L182.95 87.55L182.85 87.65L182.75 87.75V87.85V87.95H182.65V88.05H182.55V88.15V88.25L182.65 88.35H182.75V88.45H182.85V88.55L182.95 88.65V88.75H183.05V88.85L183.15 88.95V89.05V89.15H183.25V89.25V89.35V89.45V89.55H183.35V89.65V89.75H183.25V89.85H183.15V89.95H183.05H182.95V90.05H182.85H182.75H182.65V90.15H182.55H182.45L182.35 90.25H182.25V90.35V90.45H182.35L182.45 90.55V90.45H182.55H182.65L182.75 90.55L182.85 90.65V90.75H182.95V90.85L183.05 90.95V91.05H183.15V91.15V91.25H183.05H182.95H182.85H182.75V91.35H182.65V91.55V91.65L182.75 92.05L182.85 92.85L182.95 93.35L183.05 93.95L183.15 94.55L183.45 94.45H183.75L184.35 94.25H184.85L184.95 94.15H185.25H185.35L185.45 94.85V95.15L185.55 95.45L185.65 95.75V95.95L185.75 96.35L185.85 97.25H185.75L185.15 97.35L184.75 97.45L184.35 97.35L184.15 97.25L183.75 97.15H183.55H183.45H183.35V97.35L183.45 97.95H183.15L183.05 98.05H182.95H182.85H182.75H182.65H182.55L182.35 98.15H182.25H182.05H181.95L181.15 98.25L180.95 98.35V98.45V98.65L181.05 99.05L181.15 99.45V99.65V99.75V99.85L181.25 100.45L182.65 100.25L182.75 100.95L182.85 101.55L182.95 101.65L183.05 102.45V102.75L182.65 102.85L182.25 102.95L182.05 103.05L181.45 103.15L180.55 103.35L180.45 103.45L179.85 103.55V103.65V103.75L179.95 103.95V104.15H179.55H179.45L178.85 104.25L178.35 104.35L177.75 104.45H177.55H177.45H177.25H177.15H176.75H176.35H176.25H176.15H176.05L175.85 104.35H175.75V104.25H175.65H175.55H175.15V104.15H175.05H174.85H174.75H174.65L174.55 104.25H174.45H174.35L174.25 104.15H174.15L174.05 104.05H173.95H173.85H173.75V103.95H173.65H173.55H173.45L173.25 104.05H173.05H172.85H172.75H172.65H172.55V103.95V103.85L172.45 103.45H172.15L171.55 103.35H170.95H169.95L169.85 103.45V103.55V103.65H169.95L170.05 103.75V103.85H170.15V103.95H170.25V104.05H170.15V104.15V104.25H170.25H170.35V104.35V104.45H170.25V104.55V104.65H170.35V104.75H170.25L170.05 104.85H169.55L168.65 105.05V104.95L167.95 105.05L167.45 105.15V104.95V104.75L167.35 104.55L167.15 104.15L167.05 103.95L166.95 103.75H166.45L165.65 103.85H164.55H163.95H163.85H163.75H163.65H163.55V103.75H163.45V103.65H163.35V103.55V103.45H163.25V103.55H163.15V103.45H163.05V103.35V103.25V103.15L163.15 103.05L163.25 102.95V102.85L163.45 102.55V102.45V102.35V102.15H163.55V102.05V101.95V101.85H163.45H163.35H163.25L162.85 101.95H162.55V102.25L162.65 102.55H162.25H162.15L161.85 102.65H161.35L160.05 102.85L159.25 103.05H158.65V103.15V102.55H158.55H158.45H158.35H158.25H158.15H158.05L157.95 102.65H157.85H157.75H157.65H157.55H157.45H157.35H157.25V102.45L157.15 101.75L157.05 101.25L156.45 101.15L156.35 100.25L157.35 100.05H157.65V100.15L157.75 100.45L157.85 101.25L157.95 101.65L158.85 101.55L159.65 101.45L159.55 101.25V101.15H159.45V101.05V100.95L159.55 100.85V100.75L159.65 100.65V100.55V100.45L159.85 99.95H159.95V99.85L160.05 99.75V99.65L160.15 99.45L159.75 98.75L160.05 98.65L159.45 97.55L159.15 96.95L159.65 96.65L159.25 95.85L159.05 95.65L158.75 95.85L158.65 95.95L157.95 96.35L157.85 96.45V96.25L157.75 95.75L157.55 95.35L157.45 94.85L157.35 94.35L157.25 93.85L156.25 94.35H156.15L155.95 93.85L156.55 93.55L156.95 93.45L157.15 93.35V93.25L156.95 92.55L156.85 91.85L156.75 91.25L156.65 91.15H156.55V91.05H156.25H156.15L156.05 90.95H155.95H155.85H155.75H155.65L155.35 89.95V89.85L156.85 89.35L156.55 88.15L156.35 87.75H156.45L156.25 86.85L154.45 87.35L153.75 87.55L153.15 87.75L152.85 87.85H152.75L152.45 87.95H152.35V87.85V87.75V87.65H152.45V87.55V87.45V87.35L152.55 87.25V87.15H152.65V87.05V86.95H152.75H152.85H152.95L153.05 86.85H152.95V86.75H152.85V86.65L152.75 86.55H152.65V86.45H152.55H152.45V86.55V86.65H152.35V86.75H152.25H152.15V86.65V86.55L152.25 86.45V86.35V86.25V86.15V86.05H152.15V85.95V85.85H152.05V85.75V85.65H152.15V85.55H152.25V85.45H152.35V85.35H152.45H152.55H152.65H152.75V85.25H152.85V85.15H152.75V85.05V84.95H152.85V84.85V84.75H152.75V84.65H152.65V84.75H152.55H152.45H152.35V84.65V84.55V84.45V84.35V84.25H152.25H152.15V84.15H152.05H151.95V84.05L151.85 84.15H151.75L151.55 84.25L151.25 84.35L150.25 84.85L149.85 84.95L149.65 85.05L148.95 85.25L147.45 85.55H147.25L147.05 85.65L146.75 85.75L144.85 86.15L144.35 86.25L144.05 84.65L143.85 84.05V83.75L143.75 83.65H143.65V83.75H143.55L143.45 83.85H143.35V83.95H143.25H143.15L143.05 84.05H142.95H142.85H142.75H142.65V84.15H142.55L142.45 84.05H142.35V83.95H142.25H142.15H142.05H141.95L141.85 83.85H141.65H141.55H141.45H141.35H141.25L141.35 83.95H141.05H140.75L140.65 84.05L140.35 83.55L140.15 83.35V83.25L140.05 83.05L139.95 82.95L138.85 81.15V81.05L138.65 80.65L138.45 80.85L138.25 80.95L138.15 81.05H137.95V81.15H137.85L136.85 81.75L136.15 82.15L135.15 82.65L134.35 83.15L134.05 83.25L133.95 83.35L133.35 83.65L132.65 84.05L132.55 84.15L131.95 84.45L131.15 84.85L130.05 85.45L129.55 85.65V85.45L129.35 84.25V84.15V84.05H129.25H129.15H129.05V83.95H128.95H128.85H128.75H128.65H128.55H128.45V83.85H128.35V83.95H128.25H128.15H128.05H127.95L127.85 84.05H127.75H127.65H127.55H127.45V83.95H127.35M127.35 83.95V83.85M127.35 83.95L127.25 83.85H127.15H127.05H126.95L126.85 83.75H126.75L126.65 83.65H126.55H126.45V83.55H126.35H126.25H126.15H126.05V83.45H125.95H125.85H125.75L125.65 83.55H125.55L124.55 83.65H124.35L124.15 82.95H124.05V82.85M124.05 82.85H124.15M124.05 82.85H123.95H123.85H123.75H123.65H123.55V82.75H123.45V82.65V82.55H123.35V82.65H123.25H123.15H123.05V82.55H122.95H122.85V82.45H122.75V82.35H122.65H122.55V82.25H122.45M122.45 82.25V82.15M122.45 82.25H122.35V82.35H122.25H122.15V82.25H122.05H121.95H121.85H121.75V82.15H121.65H121.55V82.05H121.45M121.45 82.05V82.15M121.45 82.05H121.35M121.35 82.05V82.15M121.35 82.05H121.25H121.15V82.15H121.05V82.05H120.95M120.95 82.05V82.15M120.95 82.05H120.85H120.75V81.95H120.65M120.65 81.95V82.05M120.65 81.95H120.55H120.45V81.85H120.35V81.95H120.25L120.15 81.85H120.05V81.75L119.95 81.65V81.55L119.85 81.45H119.65L119.55 81.35H119.45L119.25 81.25L119.05 81.05L118.95 80.95L118.75 80.75L118.45 80.55H118.35L118.25 80.45H118.15L117.95 80.35H117.75L117.45 80.45H117.35H117.05H116.85L116.65 80.55L116.45 80.75L116.25 80.85L115.85 80.95L115.45 81.05H115.35H115.25H115.05L114.75 80.85H114.65L114.55 80.75L114.45 80.65L114.35 80.55H114.25H114.15L114.05 80.65H113.85H113.65H113.35H113.15H113.05H112.95L112.55 81.05V81.15H112.45L112.25 81.25L112.05 81.35H111.95L111.75 81.45H111.65L111.45 81.55H111.35H110.95H110.75H110.65H110.35L110.05 81.45H109.75H109.65L109.25 81.35H109.15H108.95H108.55H108.45L108.15 81.45L107.95 81.55H107.85L107.65 81.65L107.55 81.85H107.45L107.25 81.95H107.15L107.05 82.05H106.85H106.75H106.55H106.35H106.25L106.15 82.15L105.95 82.25L105.85 82.45L105.55 82.75L105.35 82.95V83.15L105.25 83.25L105.15 83.35V83.45V83.65V83.75H105.05L104.95 83.85L104.55 83.95H104.45H104.25H104.15V84.05H104.05H103.95V84.15H103.85H103.75H103.65H103.55H103.45H103.35L103.25 84.25H103.15H103.05H102.95V84.35H102.85L102.55 84.45V84.25V84.15L102.45 83.95L101.05 84.15L100.05 84.35L99.65 84.45V84.25L98.85 84.35L98.65 83.45V82.65L99.05 82.55L98.85 81.35L97.15 81.65L96.95 81.15H96.15L95.85 81.25L95.95 81.75L96.05 82.35V82.75L96.15 83.15L96.25 83.75L96.45 84.85L96.65 86.05L96.85 87.15L95.15 87.45L95.05 87.55L95.15 87.95V88.25L95.25 88.75L95.35 89.45V89.55V90.05V90.25L95.95 90.05L96.15 90.55L96.25 91.05V91.15L96.35 91.75L96.45 92.25L96.55 92.55L97.05 92.45L98.35 92.35L98.45 93.05L98.55 93.25V93.75L98.75 94.45H98.55V94.55L98.65 94.75L98.75 95.75L98.95 96.05L99.05 96.25H98.95L98.15 96.45L97.15 96.65L97.05 96.15L96.95 95.85V95.65H96.55L95.95 95.85H95.75L95.55 95.95V96.35L95.65 96.65L95.75 97.15L95.45 97.25H95.35H95.15L94.95 97.35H94.75L94.35 97.45H94.15H93.95L93.15 97.65V97.85L93.25 98.15L93.45 99.05L93.55 99.65L93.65 100.15V100.25L93.75 100.75V100.85V100.95H93.85V101.05V101.15V101.25V101.35V101.45H93.95H94.05V101.35H94.15L94.25 101.25H94.35V101.15H94.45H94.55L94.65 101.05H94.75H94.85H94.95L95.05 100.95H95.15V100.85H95.25V100.75H95.35V100.65H95.45V100.55H95.55V100.45H95.65V100.35H95.75H95.85L95.95 100.25H96.05H96.15H96.25V100.35V100.45L96.35 100.55V100.65V100.85V101.15L96.45 101.35V101.65L96.55 101.75V101.95V102.25L96.65 102.45H96.75H96.85H96.95H97.05H97.15L97.95 102.35L98.05 102.85L98.15 103.25V103.55V103.65L98.25 103.75V104.05L98.15 104.15L97.95 104.25L97.65 104.45L97.45 104.55L97.25 104.65L97.15 104.75L97.05 104.85L97.15 105.85L97.35 106.65L97.45 107.55L97.65 108.55L97.75 109.25L98.45 109.15H98.65L99.75 108.85L100.95 108.55V108.65L101.05 109.35L101.15 109.65L101.35 110.75L100.85 110.85L100.95 111.75H100.75L100.95 112.85H100.35L99.65 112.95H99.55L99.75 113.95L99.85 114.45L99.95 115.45L99.15 115.65L98.35 115.75L98.55 116.55L98.65 117.15L98.75 117.75L98.95 118.75L99.75 118.65L99.85 119.25L100.05 120.35L100.15 121.05V121.15H100.25L100.15 121.25H100.05V121.35L99.95 121.45V121.55H100.05V121.65L99.95 121.75V121.85L99.85 121.95H99.75V121.85M99.75 121.85H99.65M99.75 121.85V121.75H99.65V121.85M99.65 121.85L99.55 121.75H99.45V121.85V121.95H99.55V122.05H99.65L99.75 122.15H99.85V122.25V122.35L99.95 122.55L99.75 122.65H99.65H99.45V122.75H99.75H99.95H100.05H100.15V122.85V122.95H100.25V123.05H100.35L100.45 123.25L100.25 123.35L100.05 123.45H99.95V123.55H99.85V123.65H99.95L100.35 123.45V123.35H100.45H100.55H100.65H100.75V123.45L100.95 123.65L101.05 123.85V124.05L101.25 124.35L101.35 124.75V124.85V124.95V125.05V125.15V125.25L101.25 125.45L101.15 125.65L100.95 125.95L100.85 126.15L100.65 126.25L100.45 126.45L100.35 126.55L100.15 126.65L99.95 126.75H99.85L99.55 126.95H99.45H99.35L99.15 127.05L98.65 127.15L98.25 127.35L97.85 127.45L97.45 127.55H97.05L96.95 127.65H96.75H96.45H96.25H96.15L95.85 127.45L95.35 127.25L95.15 127.15L94.85 127.05L94.75 126.95H94.65L94.45 126.75L93.95 126.45L93.65 126.25H93.55L93.25 126.15L92.85 125.95H92.45H92.35H91.95L91.25 125.85H90.45H90.35H90.15H89.95L89.55 125.75L89.05 125.55H88.95L88.45 125.35L87.75 125.05L87.45 124.95L86.95 124.75L86.55 124.55H86.25L85.65 124.35L85.15 124.25L84.65 124.15H84.35H84.15H83.55H83.25L83.05 124.05H82.45H82.05L81.55 124.15H81.45L81.15 124.25L80.45 124.35L80.35 124.45L79.65 124.65L79.35 124.75L79.05 124.85L78.75 125.05L78.55 125.15L78.15 125.35L77.85 125.45V125.55L77.65 125.65L77.45 125.75L77.25 125.95L77.05 126.05L76.85 126.15L76.75 126.25H76.65L76.45 126.35H76.25H76.15L75.85 126.45H75.65H75.55H75.25H75.05H74.95H74.75H74.65H74.25H74.05L73.85 126.55H73.75H73.65H73.45H73.35L73.25 126.65H73.15H72.95H72.85H72.75L72.45 126.75H72.15L71.85 126.85H71.75H71.65H71.55L71.25 126.95H70.85L70.35 127.05L70.15 127.15H69.95H69.75H69.35H69.25L69.05 127.25H68.85H68.55H68.45H68.35H68.25H68.05L67.75 127.35L67.55 127.45H67.45L67.15 127.55L66.95 127.75L66.65 127.85L66.45 127.95L66.25 128.05L66.15 128.15H66.05V128.25L65.75 128.35L65.55 128.55L65.45 128.65L65.25 128.75H65.15L65.05 128.85L64.85 128.95L64.55 129.15H64.45L64.15 129.25L63.85 129.45H63.55L63.25 129.55L63.15 129.65H62.95L62.55 129.75H62.45L62.15 129.85H62.05L61.75 129.95H61.55V130.05H61.45H61.35H61.15L60.85 130.15L60.65 130.25L60.25 130.35H59.95L59.75 130.45H59.55L59.35 130.55H59.05L58.65 130.65H58.15L57.75 130.75L57.35 130.85H56.95L56.55 130.95L56.25 131.05H55.95L55.55 131.15L55.15 131.25L54.65 131.45L53.95 131.55L53.85 131.65L53.55 131.75L53.15 131.95H52.85L52.65 131.75H52.45H52.35V131.85H52.25H52.15H52.05V131.95L51.95 131.85H51.85H51.75L51.65 131.75H51.55L51.35 131.85L50.75 131.95H50.65H50.55H50.45L50.35 131.85L50.25 131.75V131.65V131.55V131.45V131.35V130.85L50.15 130.15V129.85L50.05 128.85V128.75L49.95 128.65V128.55L49.85 128.35V128.25V128.15L49.75 128.05V127.95V127.85V127.75V127.65H49.65V127.55H49.55H49.45H49.35H49.25H49.15L49.05 127.65H48.95H48.85L48.75 127.75H48.65H48.55H48.35L48.15 127.85H47.85L47.35 127.95H47.25L46.15 128.15L45.35 128.25L44.25 128.35L42.55 128.65L41.35 128.85L40.55 128.95L39.75 129.15H39.65H39.55L38.25 129.35L37.65 129.45L37.15 129.55L36.35 129.65H36.05L35.95 129.75L34.75 129.95V129.85L34.65 129.65L34.45 128.65L34.35 127.75H33.85L33.35 127.85L32.75 127.95V128.45L31.95 128.55L31.65 127.05L31.55 126.65V126.35V126.25L31.65 126.15L31.85 125.85L32.15 125.45L31.95 124.55V124.45L32.95 124.25V124.15V124.05L32.75 123.15L32.15 123.25L31.95 122.15H31.65L31.55 121.25L31.05 121.35L30.45 121.45L29.65 121.65L28.85 121.75L28.35 121.85L28.05 121.95H27.65L27.15 122.05L26.75 122.15L26.15 122.25L26.25 122.45V122.55L26.35 123.25L26.55 124.15L26.75 125.45L26.45 125.55L25.85 125.65L25.05 125.75L24.75 125.85L23.85 126.05H23.75L23.25 126.15L22.85 126.25L22.25 126.35L21.75 126.45L21.15 126.55L20.55 126.65H20.35L19.75 126.85H19.45H19.35L19.15 126.95H18.85L18.65 127.05V127.15L18.75 127.45L18.85 128.05L19.05 128.15L19.35 128.55L19.55 128.95L19.85 129.25H19.75L19.55 129.45L19.15 129.65H19.05H18.95L18.85 129.75H18.75L18.45 129.85L18.05 130.05V129.95H17.95L17.75 129.75H17.85L17.95 129.65H18.05V129.55H18.15V129.45V129.35V129.25L18.05 129.15V129.05V128.95H17.95V128.85V128.75V128.65H17.85V128.55H17.75H17.65H17.55H17.45H17.35H17.25V128.45H17.15V128.35H17.05V128.25H16.95V128.15H16.85L16.75 128.05V127.95H16.65V127.85H16.55V127.75H16.45V127.65V127.55H16.35V127.45V127.35V127.25V127.15H16.45V127.05H16.55V126.95H16.65V126.85H16.75V126.75V126.65V126.55V126.45H16.85V126.35V126.25V126.15V126.05V125.95V125.85H16.75V125.75V125.65V125.55V125.45H16.65H16.55V125.35H16.45H16.35H16.25V125.25H16.15L16.05 125.35H15.95V125.45H15.85H15.75V125.55H15.65L15.55 125.65L15.45 125.75H15.35V125.85L15.25 125.95V126.05H15.15L15.05 126.15H14.95V126.25H14.85H14.75V126.35H14.65V126.45H14.55H14.45H14.35H14.25H14.15V126.55H14.05H13.95H13.85V126.45H13.75H13.65H13.55H13.45H13.35V126.35H13.25H13.15V126.25V126.15L13.25 126.05L13.35 125.95V125.85H13.45V125.75V125.65V125.55V125.45V125.35H13.35V125.25H13.25V125.15V125.05H13.35L13.45 124.95H13.55V124.85H13.65L13.75 124.75H13.85V124.65L13.95 124.55V124.45H14.05V124.35V124.25L14.15 124.15V124.05V123.95V123.85H14.25V123.75V123.65V123.55V123.45V123.35L14.15 123.25V123.15L14.05 123.05V122.95H13.95H13.85V123.05L13.75 123.15V123.25H13.65H13.55L13.45 123.35H13.35H13.25L13.15 123.45H13.05L12.95 123.55H12.85H12.75H12.65H12.55H12.45H12.35H12.25H12.15V123.45H12.05H11.95V123.35H11.85L11.75 123.25H11.65H11.55V123.35H11.45L11.35 123.45L11.25 123.55V123.65H11.15L11.05 123.75H10.95H10.85L10.75 123.65H10.65H10.55L8.44995 123.15L6.94995 122.85V122.35L7.04999 121.85V121.45L6.34998 121.55L5.44995 121.65H4.34998L4.04999 121.75H3.94995H3.25L2.14996 121.85L1.54999 121.95H0.75L0.349976 122.05L0.25 121.95V121.85V121.75V121.65V121.55V121.45L0.349976 121.35H0.449951V121.25H0.549988L0.649963 121.15H0.75V121.05V120.95V120.85H0.849976V120.95H0.949951V121.05H1.04999V120.95L1.14996 120.85V120.75H1.25V120.85V120.95H1.34998V121.05H1.44995V120.95H1.54999L1.64996 120.85H1.75V120.75V120.65H1.64996V120.55V120.45V120.35H1.54999V120.25H1.64996V120.15L1.75 120.05H1.84998H1.94995H2.14996L2.04999 119.95V119.85V119.65V119.55H1.94995V119.45V119.35V119.25V118.85L1.84998 118.25L1.75 118.15V117.75L1.64996 117.25L1.54999 116.55L1.44995 115.75L1.34998 115.65L1.25 114.95L1.14996 114.35L0.949951 112.65L0.849976 112.15V112.05H0.949951L1.54999 111.95H1.94995L2.64996 111.85V111.65V111.35L3.94995 111.15H4.34998L4.84998 111.05L5.34998 110.95H5.75L5.84998 110.85L5.75 109.85L5.64996 109.45V109.05L5.04999 109.15L4.94995 108.95L4.84998 108.45V107.95L4.75 107.65L5.34998 107.55H5.64996V107.15L5.54999 106.75L5.44995 105.95L5.34998 105.55L5.25 104.55L5.14996 103.85L5.84998 103.75L6.34998 103.65V103.55L6.25 102.85L6.04999 101.95L5.84998 100.75V100.45L5.75 100.05H5.84998L6.64996 99.85L6.54999 99.35L6.34998 98.05L6.25 97.75V97.55V97.35V97.25H5.94995L5.84998 97.35H5.64996H5.54999L5.25 97.45L4.94995 97.55H4.64996L4.54999 97.65L3.75 97.75L3.25 97.95H2.94995H2.84998H2.75V97.85H2.64996V97.75H2.54999V97.65H2.44995V97.55H2.34998V97.45V97.35V97.25H2.25V97.15V97.05H2.14996V96.95V96.85V96.75V96.65V96.55H2.04999V96.45V96.35H1.94995V96.25V96.15H2.04999L2.44995 96.05H2.54999H2.64996L2.54999 95.45V95.15L2.44995 95.05V94.65L2.34998 93.95V93.75V93.65H2.25H2.04999L1.94995 92.85V92.75L2.04999 92.35V92.25H2.14996H2.25L2.34998 92.15H2.44995V92.05H2.54999H2.64996V92.15H2.75L2.84998 92.25H2.94995L3.04999 92.35H3.14996L3.34998 92.45H3.44995H3.54999V92.35H3.44995V92.25L3.34998 92.15V91.85V91.75L3.44995 91.65V91.15L3.54999 91.05V90.95V90.85V90.75H3.44995V90.65V90.55L3.75 90.45H3.84998V90.35H3.94995H4.04999V90.25V90.15V90.05V89.65H3.94995V89.45V89.35V89.25L3.84998 88.95H3.94995V88.85H4.04999H4.14996V88.75L4.04999 88.65H4.25H4.34998L4.75 88.55H5.04999L5.34998 88.45H5.64996L5.94995 88.35L6.94995 88.15H7.04999H7.44995L7.64996 88.05H7.75H7.84998L7.75 87.95L7.64996 87.85V87.75H7.54999V87.65V87.55V87.45V87.35V87.25V87.15L7.44995 87.05L7.54999 86.95V86.85H7.64996V86.75V86.65V86.55L7.54999 86.45L8.04999 86.35V86.65H8.25L8.44995 86.55H8.64996L9.04999 86.45H9.44995L9.54999 86.55V86.65L9.64996 87.35L9.75 88.15L10.05 88.05L9.84998 87.25V86.95V86.65L9.75 86.45V86.15H9.54999L9.44995 85.45H9.75L9.94995 85.35H10.05V85.25L9.94995 84.95L10.45 84.85H10.85V84.75H10.95L11.35 84.65L11.75 84.55L12.65 84.45H12.75L13.55 84.25L13.45 83.25L14.25 83.15L14.15 82.65L13.55 82.75V82.55H13.35L13.45 83.15H13.25L12.55 83.25L11.75 83.35H11.65H11.55V83.25V82.95L11.45 82.75V82.55V82.35L11.65 82.25L12.35 82.15L13.05 82.05H13.25V81.85L13.75 81.75H13.85H13.95V81.65V81.45L13.85 81.15V81.05V80.85L13.75 80.55V80.25V79.95L13.35 80.05H13.25L13.15 79.35L13.05 79.05L12.95 78.45L13.75 78.35L14.15 78.25H14.55L14.65 79.35L14.75 79.85L15.95 79.65L16.15 80.55V80.75L15.95 80.85L16.05 81.25V81.35L16.25 83.45L16.65 83.55H16.95H17.05V83.45V83.35H17.15V83.25L17.25 83.05V82.85H17.45V82.75V82.65V82.55V82.45V82.35V82.25H17.55H17.65H17.75L17.85 82.35H18.05H18.15V82.15L18.25 82.05V81.95V81.85V81.75L18.15 81.65V81.55H17.75L17.55 81.15L17.25 80.55L17.15 80.25L17.05 80.15L16.95 79.95L17.35 79.85L17.85 79.75H18.25V79.65L18.15 79.35H18.25L19.25 79.25H20.15H20.25V79.15L20.35 79.05V78.95H20.45V78.85L20.55 78.95H20.65H20.75H20.85H20.95H21.05H21.15H21.25H21.35V78.85L21.45 78.75H21.85L22.25 78.65L22.75 78.55H23.35L23.55 78.45L23.95 78.35H24.05L23.85 77.55V77.35V77.25V77.15L23.95 77.05V76.95L24.65 76.85L25.65 76.65L26.45 76.55L26.35 76.15L27.25 75.95V75.85L27.35 75.75V75.55V75.35L27.05 75.55L26.65 75.05H26.75H26.85H26.95L27.35 74.85L27.45 74.25V74.15V74.05L27.55 73.75L28.05 73.85H28.15L28.55 74.55V74.45L28.75 74.35L28.85 74.45L29.25 74.25L29.45 74.05V73.95V73.85V73.75L29.55 73.65L29.85 73.55V73.45L29.75 73.35L29.55 72.45V72.35L29.45 72.15H29.25V71.95L29.15 71.35L29.05 70.75L28.95 70.35L28.15 70.25V70.15H28.25V70.05V69.95H28.35V69.85H28.45V69.75H28.35V69.65V69.55L28.25 69.25V69.15L27.95 69.05L28.05 68.45L28.15 67.45L28.25 67.35V66.85L28.35 66.65V66.55V66.45L28.25 66.35H28.15L28.05 66.25H27.95L27.85 66.15H27.75M27.75 66.15V66.05M27.75 66.15H27.65H27.55L27.45 66.25H27.35H27.25H27.15H26.95L26.85 66.35H26.75H26.65H26.45H26.35V66.65L26.15 66.55L26.25 65.95L26.35 65.05L26.45 64.85H26.25H25.55L25.45 64.35V64.15L25.95 63.65L26.25 63.25L26.15 63.15H25.95V62.85L26.05 62.25V62.15V62.05H26.15V61.95H26.25H26.65L26.75 61.65V61.45H26.85H26.95H27.35L27.25 60.65H26.75V60.45L26.85 60.25V60.05V59.75V59.35V59.15V58.95V58.85L26.95 58.15V58.05V57.95L26.85 57.85V57.45L26.75 56.85L26.65 56.25V55.85L26.55 55.65V55.05L26.45 54.55L26.35 54.15V53.55L26.15 52.55V52.15L26.05 51.45L25.95 50.85L26.05 50.75L26.25 50.65H26.45V50.55L26.35 50.45L26.25 50.15L26.05 49.95L26.65 49.75V49.65V49.35L26.55 48.95L27.25 48.85L27.65 48.75V48.95L28.05 48.85V48.65L27.95 48.15L28.35 48.05H28.55L29.25 47.95L30.25 47.75L31.15 47.65L31.75 47.55L31.85 47.75L32.05 48.85L33.35 48.45L33.65 48.35V48.25L33.45 47.55V47.35L33.15 46.45V46.35L33.05 46.05V45.95L32.95 45.85V45.75H33.05L33.65 45.65L33.85 45.55V45.95L34.65 45.85L34.85 45.75H35.05L35.15 46.35H35.35L35.45 46.85L35.55 46.75V46.85L36.05 46.55L36.65 46.05L36.85 45.85L37.25 45.55L37.55 45.25L37.85 45.15L37.95 45.05L38.35 44.85H38.45H38.55L38.65 44.75V44.65L39.15 44.55V44.65H39.25V44.55L39.35 44.45H39.45L39.55 44.55H39.65L39.75 44.65V44.55H39.85V44.45H39.75V44.35V44.25H39.85L39.95 44.15H40.05H40.15L40.25 44.05V43.95H40.35H40.45V43.85H40.55H40.65L40.75 43.75V43.65V43.45L40.65 43.15L40.55 42.45H40.75V42.15H40.65H40.55V41.95L40.45 41.75V41.65L40.35 41.35H40.55L41.25 41.25L42.75 40.95L42.85 40.05V39.65V39.15V39.05H42.75L42.25 39.15L42.05 39.25L41.45 39.35H41.35H41.25L40.95 39.45L40.45 39.55H40.15L40.05 39.45L39.95 38.95V38.65H39.85L39.15 38.75L39.05 38.65L38.85 38.45L38.55 38.25V38.15L38.35 38.05L38.25 37.95L38.15 37.85L38.05 37.75L37.85 37.45L37.55 37.15L37.35 36.95H37.25L37.15 36.75L36.75 36.45L36.65 36.35H36.05L35.65 36.45H35.35L35.05 36.55V36.15L34.55 36.25H34.35H34.25L34.05 36.15H33.95H33.85V36.05H33.75H33.55L33.45 35.95L33.35 35.75V35.45L33.25 35.35L33.15 34.95L32.95 34.15L32.15 34.45L32.05 34.25V34.05H31.85L31.75 33.95V33.85V33.75H31.85L31.75 33.55L31.65 33.25V33.15L31.55 33.05L31.45 32.25V32.05H31.65H31.75H31.85V31.85L31.75 31.45V31.25L31.65 30.75L32.35 30.65L32.65 30.55L32.75 31.05L33.35 30.95L33.45 31.45L33.75 31.35H33.95V31.25H34.25H34.45L34.95 31.15L35.05 31.05H35.25H35.35L35.45 30.95V30.85V30.75H35.55V30.65V30.55L35.65 30.45V30.35L35.75 30.25L35.85 30.05V29.95H35.95V29.85L36.05 29.75V29.65V29.55H36.15V29.45H36.25V29.35L36.35 29.25L36.45 29.35H36.55H36.75L36.85 29.45L36.95 29.65L37.05 29.85L37.25 29.75L37.75 29.45H37.85H37.95H38.25V29.55V29.65L38.55 29.75L38.65 30.15V30.25V30.35L38.75 30.55V30.95L38.85 31.45H38.95H39.05L39.45 31.35H39.75V31.25V31.15H39.85L39.95 30.95V30.85H40.05L40.35 30.75H40.65V30.65L41.15 30.55V30.65V30.75V30.85V30.95L41.25 31.05H41.35H41.55L41.75 30.95H41.95H42.15H42.25V30.85V30.75V30.65V30.55V30.45L42.35 30.35H42.45H42.55H42.65H42.75L43.05 30.25H43.15L43.25 30.45V30.55V30.75L43.35 30.85V30.95V31.05V31.15V31.25L43.45 31.55V31.65V31.75V31.85V31.95H43.55V32.25L43.65 32.35H43.75H43.85L43.95 32.45H44.05V32.55V32.65H44.15V32.75V32.85H44.25L44.45 32.75H44.55H44.65H44.85H44.95H45.05L45.15 32.65V32.55L45.25 32.45V32.25V32.05V31.95V31.75V31.65L45.15 31.15V31.05L45.05 30.25H45.15L45.25 29.95L45.35 29.25L45.65 28.25L45.75 27.55H45.85V27.45H45.95H46.05H46.15L46.25 27.35H46.35L46.45 26.75L46.65 26.05L46.75 25.35L46.85 25.15L46.95 24.75L47.05 24.35V24.25L47.15 23.95V23.75V23.65V23.55L47.25 23.05L47.35 22.75V22.65L47.45 22.75L47.55 22.85V22.95L47.75 23.05L47.85 23.15V23.25L48.15 23.45L48.25 23.55L48.35 23.65V23.75L48.55 23.95L48.75 24.05L48.95 24.25L49.25 24.35H49.35H49.45H49.65H49.75H49.85L49.95 24.45H50.05L50.35 24.55L50.75 24.85H50.85L51.35 25.15L51.65 25.35L51.75 25.45H51.95H52.15H52.55H52.85L53.55 25.55L53.85 25.65H53.95L54.15 25.85L54.25 25.95V26.05V26.45V26.65V26.85V26.95L54.35 27.05L54.45 27.25L54.65 27.35L54.95 27.55L55.25 27.65L55.55 27.85L55.75 28.05L56.05 28.35L56.15 28.55L56.35 28.65L56.55 28.75H56.65H56.85H57.15L57.35 28.65H57.55L57.65 28.55H57.85L58.15 28.65H58.35L58.45 28.75L58.65 28.85L58.85 29.05L58.95 29.25L59.05 29.35L59.15 29.55V29.65L59.05 29.75V29.95L58.75 30.15V30.25L58.65 30.45V30.65L58.55 30.85L58.65 31.15V31.45L58.75 31.75L58.95 31.95L59.05 32.05L59.25 32.25L59.65 32.45H59.85L60.35 32.55H60.55H60.65L60.85 32.45L61.05 32.35L61.25 32.25H61.45H61.55L61.75 32.35L61.85 32.45L62.05 32.55L62.15 32.65L62.35 32.85L62.75 33.25L62.95 33.45L63.15 33.55L63.35 33.65L63.65 33.55H63.85L64.05 33.65L64.25 33.75H64.35L64.45 33.95L64.95 34.35L65.25 34.65L65.45 34.75L65.75 34.85H65.85L66.05 34.75L66.35 34.65H66.45H66.85L67.05 34.75H67.25L67.45 34.95L67.65 35.05V35.15L67.75 35.25V35.35L67.65 35.55L67.55 35.85L67.45 36.05V36.25L67.65 36.35H67.75V36.25L67.85 36.15H67.95L68.05 36.05H68.15V35.95V35.85L67.95 35.65V35.55V35.45L68.05 35.35H68.15H68.25V35.25H68.15V35.15H68.25H68.35H68.45V35.05L68.35 34.95V34.85V34.75H68.25V34.65L68.35 34.55H68.45H68.55V34.45V34.35V34.25V34.15L68.65 34.05V33.95V33.85V33.75V33.65H68.55H68.45H68.35V33.55V33.45V33.35H68.25V33.25V33.15V33.05H68.35H68.45L68.55 32.95H68.65H68.75H68.85V32.85H68.95V32.75V32.65V32.55H69.05V32.45L69.15 32.35H69.25L69.35 32.25H69.45V32.15H69.55V32.05H69.65V31.95H69.75V31.85H69.85H69.95V31.75V31.65H69.85L69.65 31.55V31.45H69.55L69.45 31.35L69.15 31.15L69.05 31.05L68.85 31.25L68.65 31.55H68.55V31.65H68.45H68.35H67.75V31.35V30.95V30.15V29.75L67.65 29.65V28.85H68.35H69.15L69.25 28.75H69.35H69.45V28.85H69.55H69.65L69.75 28.75L69.85 28.65V28.55M69.85 28.55H70.05H69.95H69.85ZM69.85 28.55V28.45H69.75L69.65 28.35H69.55H69.45H69.35V28.25H69.25H69.15H69.05H68.95L69.05 28.15V27.85V27.75V27.55V27.15V27.05H69.25H69.35H69.45H69.55V27.15H69.65V27.05H69.75V27.15V27.25V27.35H69.85V27.25H69.95H70.05L70.15 27.15V27.05H70.25V26.95H70.35V26.85V26.75V26.65V26.55V26.45V26.35V26.15H70.15H69.95H69.85H69.75H69.65H69.55L69.65 25.95V25.55V25.25V25.15L69.75 24.95L69.25 24.65L69.05 24.55L68.75 24.35L68.45 24.15L68.35 24.05L68.15 23.95L68.25 23.85L68.45 23.65L68.25 23.55V23.45L68.15 23.35H68.05V23.25L67.85 23.15V23.05V22.85L67.95 22.55V22.45V22.15L68.05 22.05V21.95V21.55L68.15 21.45V21.35V21.25V21.15L68.25 20.85V20.55L68.35 20.25L68.45 19.65L68.85 19.05L69.05 18.65L69.25 18.35L69.45 18.05L69.65 17.75L69.75 17.65V17.55L69.85 17.45V17.35L70.05 17.15L70.35 16.65L70.45 16.35L70.35 16.25L70.05 15.95L70.15 15.65H70.05V15.55H69.95L69.85 15.45H69.75H69.65L69.45 15.35L69.25 15.25H69.15V15.05L69.25 14.95V14.85L69.45 14.55V14.45L69.55 14.35L69.65 14.15L69.95 13.95L70.05 13.85H70.55L70.45 13.55V13.45L70.65 13.25L70.85 13.15L71.05 12.95L70.95 12.65L70.85 12.55L71.05 12.45L71.45 12.25L71.95 12.15L72.35 11.95L72.65 11.75L72.55 11.65L72.45 11.45L72.35 11.25L72.65 11.15L73.05 11.05L73.45 10.95L73.65 10.85L73.55 10.55L73.45 10.15L73.35 9.85001V9.75L73.05 9.35001L73.25 9.05002L73.15 8.95001V8.85001V8.75V8.64999V8.55002L73.05 8.14999V7.95001M73.05 7.95001H72.95V7.85001L73.05 7.95001ZM73.05 7.95001H73.25L73.35 8.05002H73.45V8.14999H73.55L73.85 8.45001L74.25 8.75L74.85 9.25L75.35 9.55002L75.65 9.75L75.85 9.95001L76.05 10.05L76.15 10.15H76.25L76.15 10.05L76.35 9.85001L76.55 9.64999L76.65 9.45001L77.05 9.75L77.45 10.05L77.65 10.15L77.75 10.25L77.85 10.35L78.05 10.25L78.15 10.05L78.25 9.95001L78.35 9.75L78.45 9.64999L78.75 9.55002L78.85 9.75L78.95 9.85001H79.05V9.95001H79.15L79.25 10.05V10.15H79.35L79.55 10.35L79.65 10.45V10.55H79.75L79.85 10.65L80.15 10.85H80.25H80.35L80.45 10.75H80.65H80.75L80.85 10.85L80.95 10.75L81.15 10.55V10.65L81.65 10.25L81.55 10.15L81.45 9.95001L81.55 9.85001H81.45L81.35 9.64999L81.15 9.45001L81.35 9.05002L81.25 8.85001V8.75H81.35V8.64999H81.45H81.55V8.55002V8.45001H81.45V8.35001M81.45 8.35001H81.35M81.45 8.35001V8.25L81.55 8.14999H81.65V8.05002V7.95001V7.85001L81.55 7.75L81.75 7.64999L81.85 7.85001L81.95 7.75L82.05 7.85001H82.15H82.25H82.35L82.45 7.95001H82.55H82.65V7.85001V7.75H82.55V7.64999V7.55002H82.45V7.45001V7.35001V7.25V7.14999V7.05002L82.55 6.95001L82.45 6.85001H82.35V6.75V6.64999L82.45 6.55002V6.45001H82.55H82.65H82.75V6.55002H82.85M82.85 6.55002V6.45001H82.95L82.85 6.55002ZM82.85 6.55002V6.64999V6.75H82.95L83.05 6.64999V6.55002H83.15H83.25L83.35 6.45001V6.25L83.65 6.05002L83.95 5.85001H84.05V5.75L84.15 5.64999H84.25V5.55002H84.35H84.45V5.45001H84.55M84.55 5.45001V5.35001H84.65M84.55 5.45001H84.65V5.55002H84.75H84.85V5.45001H84.75V5.35001H84.85H84.95V5.25H85.05H85.15H85.25V5.14999H85.15V5.05002H85.25H85.35V4.95001H85.45V5.05002V5.14999H85.55V5.25V5.35001M84.55 5.45001V5.55002M85.55 5.35001H85.45M85.55 5.35001V5.45001V5.55002V5.64999H85.65V5.55002H85.75H85.85V5.64999H85.95V5.75L86.05 5.85001L86.15 5.95001L87.05 5.75V5.35001V5.25V5.14999V5.05002H87.15V4.95001H87.25H87.35V4.85001H87.45H87.55H87.65L87.75 4.75L87.85 4.85001H87.75V4.95001H87.85V5.05002H87.95V5.14999H88.05H88.15H88.25H88.35V5.05002H88.45H88.55V4.95001H88.65L88.75 4.85001H88.85V4.75L88.95 4.64999H89.05V4.55002H89.15V4.64999H89.25H89.35H89.45L89.55 4.55002L89.65 4.45001L89.75 4.35001L89.85 4.25V4.14999H89.95V4.05002V3.95001H90.05H90.15V4.05002H90.25V4.14999L90.35 4.25H90.45H90.55V4.14999V4.05002V3.95001L90.95 4.05002H91.15L91.35 3.95001V3.75L91.25 3.55002V3.45001L91.35 3.35001V3.14999H91.25V3.05002H91.15V2.95001H91.05V2.85001V2.75V2.64999V2.55002H90.95V2.45001V2.35001H90.85V2.25H90.95V2.14999H91.05H91.25V2.05002V1.95001H91.35V2.05002H91.45V1.95001H91.55M91.55 1.95001V2.05002M91.55 1.95001H91.65M91.65 1.95001H91.75M91.65 1.95001V1.85001H91.75V1.75V1.64999H91.85L91.75 1.55002H91.85H91.95H92.05H92.15L92.25 1.45001M92.25 1.45001V1.35001M92.25 1.45001H92.35L92.25 1.55002V1.64999H92.35V1.55002H92.45H92.55H92.65H92.75V1.45001H92.85M92.85 1.45001V1.35001M92.85 1.45001H92.95V1.35001H93.05H93.15H93.25V1.45001H93.35V1.55002H93.25H93.15V1.64999V1.75H93.25H93.35M93.35 1.75V1.64999H93.45M93.35 1.75H93.45V1.64999M93.35 1.75V1.85001V1.95001V2.05002V2.14999V2.25H93.45V2.35001L93.55 2.25H93.65H93.75V2.14999H93.85V2.05002V1.95001M93.45 1.64999V1.55002M93.45 1.64999H93.55M93.85 1.95001H93.75M93.85 1.95001V1.85001L93.95 1.75H94.05H94.15H94.25V1.64999H94.35H94.45V1.55002V1.45001H94.35L94.25 1.55002H94.15V1.45001V1.35001H94.25V1.25H94.35V1.14999H94.25H94.15V1.05002V0.950012H94.05V0.850006H93.95V0.75H94.05V0.649994H94.15V0.550018H94.25H94.35L94.25 0.649994H94.35H94.45H94.55V0.550018H94.65H94.75H94.85H94.95L95.05 0.450012H95.15H95.25H95.35V0.350006H95.45M95.45 0.350006V0.450012M95.45 0.350006H95.55V0.450012H95.65H95.75H95.85H95.95V0.550018H95.85V0.649994L95.95 0.75H95.85V0.850006H95.95V0.950012H96.05V1.05002H96.15M96.15 1.05002V0.950012M96.15 1.05002H96.25V1.14999H96.35H96.45H96.55H96.65H96.75H96.85L96.95 1.25H97.05H97.15H97.25H97.35H97.45V1.35001H97.55M97.55 1.35001V1.45001M97.55 1.35001H97.65H97.75V1.45001H97.85V1.35001H97.95H98.05H98.15L98.25 1.45001H98.15V1.55002V1.64999V1.75H98.05V1.85001L97.95 1.95001V2.05002H97.85V2.14999H97.75H97.65V2.25H97.55V2.14999H97.35L97.15 2.05002H97.05H96.95L96.85 2.14999H96.75H96.65H96.55V2.25H96.45V2.35001H96.35V2.64999V2.75V2.85001H96.45H96.55V2.75L96.65 2.85001L96.95 2.95001L97.55 3.14999V3.35001L98.05 3.55002L98.25 3.35001V3.25H98.35H98.45V3.14999V3.05002H98.55V3.14999H98.65V3.25H98.75L98.85 3.14999H98.95H99.05V3.05002V2.95001H99.15L99.05 2.85001V2.75V2.55002L99.15 2.35001V2.14999V2.05002V1.95001V1.85001V1.75V1.64999V1.55002L99.25 1.45001V1.35001V1.25L99.35 1.14999V1.05002V0.950012H99.45V0.850006H99.55L99.65 0.950012L99.85 1.14999L100.05 0.850006L100.15 0.75L100.45 0.25H100.55V0.350006H100.65V0.25H100.75M100.75 0.25V0.350006M100.75 0.25H100.85H100.95L101.05 0.350006H101.15V0.450012H101.05V0.550018V0.649994H100.95V0.75H101.05V0.850006H101.15V0.75L101.25 0.649994M101.25 0.649994V0.550018V0.450012M101.25 0.649994V0.75V0.850006V0.950012H101.35V1.05002H101.45H101.55H101.65H101.75L101.85 1.14999H101.95H102.05V1.25L101.95 1.45001L102.45 2.14999L102.55 2.05002L102.85 2.25V2.35001V2.45001H102.95L103.25 2.64999H103.35L103.45 2.75H103.55L103.45 3.05002H103.55M103.55 3.05002V3.14999" stroke="white" stroke-width="0.5" stroke-linecap="round" stroke-linejoin="round"/>
</svg>
