<svg width="129" height="180" viewBox="0 0 129 180" fill="none" xmlns="http://www.w3.org/2000/svg">
<path d="M26.45 177.95V177.85L26.05 177.25L25.85 176.85L25.55 176.35L25.35 176.05L25.25 175.95V175.85L25.15 175.65L25.05 175.55L24.95 175.35H24.85V175.25L24.45 174.75L24.55 174.65L24.95 174.25H25.05L25.25 173.95L25.65 173.65L25.75 173.55H25.85L26.35 173.15L26.55 172.95L27.15 172.45L27.45 172.15L27.95 171.75H28.05L28.45 172.35L29.05 171.85L29.45 171.55L29.65 171.45L29.95 171.15L30.15 171.05L30.35 170.85L30.45 170.75L30.35 170.65L30.25 170.55H30.15L29.65 170.15L29.15 169.85L28.85 169.55L28.65 169.45L28.55 169.35L28.05 169.05L27.85 168.85L27.95 168.75L28.25 168.25L28.45 167.95L29.05 167.25L29.35 166.85L29.65 166.55L29.55 166.45L29.25 166.05L28.95 165.75L28.55 165.25L28.25 165.05L27.75 165.45L27.65 165.55L27.55 165.65V165.75L27.45 165.85L27.05 165.75L26.85 165.65L26.65 165.45L26.05 165.15L25.65 164.95L25.15 164.75L24.45 164.45L24.15 164.25L23.85 164.15L23.75 164.05L23.55 163.95H23.45H23.35L23.25 163.85L23.05 163.75H22.95V163.65H22.85L22.75 163.55H22.65V163.45H22.75H22.85H22.95V163.35H23.05V163.25H23.15H23.25H23.35H23.45V163.15H23.55H23.65H23.75V163.05H23.85V162.95V162.85H23.95V162.75V162.65H23.85H23.75V162.55V162.45V162.35H23.85V162.25H23.95V162.15H23.85V162.05H23.75V162.15H23.65H23.55V162.05H23.45V161.95V161.85V161.75H23.55H23.65V161.65H23.75V161.55V161.45H23.85V161.35V161.25V161.15V161.05V160.95H23.75L23.65 161.05H23.55H23.45V160.95H23.35V160.85V160.75V160.65V160.55H23.45V160.45V160.35H23.35V160.25H23.45V160.15V160.05V159.95H23.35V159.85H23.25H23.15V159.95H23.05V160.05V160.15H22.95V160.25H22.85V160.15H22.75H22.65H22.55H22.45L22.35 160.05H22.25V159.95L22.35 159.85V159.75H22.25V159.65H22.15V159.55L22.05 159.45H21.95H21.85V159.35V159.25H21.95V159.15V159.05V158.95H21.85V158.85H21.75V158.75H21.65H21.55V158.65H21.45V158.55V158.45V158.35H21.35H21.25H21.15H21.05V158.25V158.15V158.05V157.95H20.95H20.85V157.85V157.75V157.65H20.75V157.55H20.65H20.55H20.45V157.65L20.35 157.75H20.25V157.65L20.15 157.55V157.45V157.35V157.25V157.15H20.05H19.95V157.25H19.85V157.35H19.75V157.45H19.65H19.55V157.55H19.45V157.45V157.35V157.25V157.15V157.05H19.55V156.95V156.85L19.45 156.75V156.85H19.35V156.75V156.65H19.25V156.75H19.15V156.85H19.05V156.95V157.05V157.15H18.95H18.85V157.25H18.75H18.65V157.15H18.55V157.05H18.65V156.95H18.55V156.85H18.45H18.35V156.75H18.45L18.35 156.65V156.55H18.25H18.15L18.05 156.65H17.95V156.75H17.85H17.75H17.65V156.65H17.55V156.55H17.65V156.45V156.35H17.55V156.25H17.45V156.35V156.45H17.35H17.25V156.35H17.15V156.25V156.15V156.05H17.05V155.95H16.95L16.85 155.85V155.75H16.75H16.65H16.55V155.65H16.45V155.55V155.45H16.35L16.25 155.35V155.25V155.15H16.15V155.05H16.05V154.95V154.85H16.15V154.75H16.05L15.95 154.65H16.25H16.45H16.65H16.75H17.25H17.45V154.55H17.55H17.65H17.75L17.45 154.35L17.35 154.15H17.45H18.35H18.65L19.85 154.05V154.55H20.05L21.25 154.45H21.45V154.35L21.35 154.05V153.75L21.25 153.45V153.25L21.15 152.85V152.65L21.05 152.45H20.85H20.75V152.35V152.25L20.55 151.55L20.45 150.55L20.35 150.35V150.25V150.05V149.65L20.25 149.25L20.15 148.85V148.15V148.05L20.05 147.85V147.65L19.95 147.35L19.75 146.65V146.55L19.55 145.75H19.65L19.75 145.65H20.55L20.65 146.35H20.75H20.95L21.35 146.25H21.75H22.45L23.05 146.15H23.15H23.25H23.75L24.65 146.05V146.15H24.75V146.25V146.35H24.85V146.45H24.95H25.05V146.55V146.65V146.75H25.15V146.85V146.95V147.05H25.05V147.15H25.15L26.05 146.75L26.55 146.45L27.45 146.05V145.85H27.35L27.45 145.65L27.35 145.55V145.45H27.65L28.15 145.25L27.95 144.95L28.65 144.55L28.85 144.45L29.45 144.15L29.35 143.55L29.15 142.95L28.95 142.25L28.65 141.55H28.75L29.55 141.35L29.85 141.25H29.95L30.25 141.15H30.35H30.45V141.25L30.55 141.35H30.65L30.75 141.65V141.75L30.85 141.85V141.95L31.05 142.35V142.45L31.25 143.35L31.45 144.05L31.95 143.85L32.65 143.45L33.55 142.95L33.45 142.75L33.35 142.35L33.15 141.75L33.55 140.75L33.65 140.45L33.85 139.95L33.95 139.55L34.25 138.95L34.35 138.75L34.45 138.45L34.75 137.75V137.65L34.85 137.35L35.05 136.95H35.25L35.35 136.65L35.45 136.55V136.35L35.65 136.05V135.65L35.55 135.55L35.45 135.45H35.35V135.35L35.45 135.25L35.65 134.65V134.55H34.35H33.95V134.75H33.85L33.75 134.55H33.65H33.55H32.95H32.85L32.95 134.35V134.25L33.25 133.85L33.05 133.75L32.85 133.65L32.35 133.45L32.05 134.05V134.15L31.45 135.25L31.35 135.35V135.45L31.25 135.65L31.15 135.55L30.95 135.45L30.65 135.15L29.85 134.65V134.55H29.75L29.35 134.15L28.15 133.05L27.55 132.55L27.25 132.85L27.15 132.75H27.05V132.65L26.85 132.35L26.15 131.15L25.95 130.85L25.55 130.05L25.35 129.75L25.25 129.55L25.05 129.35L24.85 128.95V128.85L24.65 128.65L24.55 128.55L24.45 128.35H24.35L24.15 128.55L23.45 129.35H23.35L22.85 128.45H22.75V128.35L22.35 127.75L21.65 128.25L20.55 126.55L19.55 127.45L19.05 127.95H18.95L18.45 128.45L18.05 128.85H17.95L17.65 128.35L17.35 127.65L17.15 127.35L16.85 126.85L16.65 126.45L16.45 126.05L16.25 125.75L16.05 125.45L15.95 125.15L15.65 124.65L15.45 124.25L15.35 124.15L15.15 123.65L14.85 123.15L14.75 122.95L14.65 123.05H14.55L14.35 123.15L14.15 123.25L13.85 123.45L13.45 123.65L12.95 123.95L12.55 124.15L11.95 124.45L11.65 124.65H11.55L11.45 124.75H11.35V124.65V124.55V124.45V124.35V124.25H11.45H11.05H10.65L10.55 123.85L10.45 123.15H10.65H10.85L11.45 123.05V122.95V122.85V122.75V122.55V122.45V122.35L11.55 122.25H11.45H11.15L10.15 122.35L9.45001 122.45L9.35004 122.05V121.85L9.25 121.45V121.35L9.15002 120.65L9.05005 120.35L9.95001 120.25L10.95 120.15V119.95H10.85V119.75H11.05H11.15H11.25H11.45L11.65 119.65V119.75L11.85 119.85V119.95H11.95H12.05V119.85V119.75V119.65H11.95V119.55H12.05V119.65L12.15 119.75H12.25V119.65H12.15V119.55H12.25H12.35V119.45V119.35H12.45V119.25L12.35 119.15H12.25V119.05L12.35 118.95V118.85V118.75H12.45H12.55V118.85H12.65V118.75H12.75H12.85V118.65H12.75V118.55V118.45H12.55H12.35L12.15 118.55H11.75L11.25 118.65L10.45 118.75H10.05H9.85004L9.45001 118.85L8.85004 118.95V118.65L8.75 118.25V118.05L8.65002 117.85V117.75V117.35L8.55005 116.85L8.45001 116.25L8.35004 115.75L8.15002 114.85L7.85004 114.95H7.45001L7.35004 114.45L7.25 113.95V113.65V113.55L7.15002 113.25V113.05V112.95V112.85V112.65L7.05005 111.85L6.95001 111.75V111.45V111.15L6.75 110.45V110.25L6.35004 110.35L5.95001 110.45L4.95001 110.65H4.85004H4.75L4.35004 110.75L3.35004 110.85L3.15002 110.95H2.95001H2.85004H2.75L2.55005 110.85V110.55V110.05V109.55V108.85V108.65V108.55H2.85004H3.05005V108.45H3.15002V108.25L3.25 107.85L3.45001 107.25L3.55005 106.75L3.45001 106.45L3.35004 106.05V105.95L3.05005 106.05H2.95001V106.15H2.85004H2.75L2.35004 106.25V105.95L2.25 105.15L2.15002 105.05L2.05005 104.45L1.95001 103.75L0.550049 103.95L0.450012 103.35V103.25V103.15V102.95L0.350037 102.55L0.25 102.15V101.95V101.85L0.450012 101.75L1.25 101.65H1.35004H1.55005H1.65002L1.85004 101.55H1.95001H2.05005H2.15002H2.25H2.35004L2.45001 101.45H2.75L2.65002 100.85V100.65H2.75H2.85004H3.05005L3.45001 100.75L3.65002 100.85L4.05005 100.95L4.45001 100.85L5.05005 100.75H5.15002L5.05005 99.85L4.95001 99.45V99.25L4.85004 98.95L4.75 98.65V98.35L4.65002 97.65H4.55005H4.25L4.15002 97.75H3.65002L3.05005 97.95H2.75L2.45001 98.05L2.35004 97.45L2.25 96.85L2.15002 96.35L2.05005 95.55L1.95001 95.15V95.05V94.85H2.05005V94.75H2.15002H2.25H2.35004H2.45001V94.65V94.55H2.35004V94.45L2.25 94.35V94.25H2.15002V94.15L2.05005 94.05L1.95001 93.95H1.85004H1.75V94.05L1.65002 93.95H1.55005V93.85V93.75H1.65002L1.75 93.65H1.85004H1.95001V93.55H2.05005H2.15002H2.25V93.45H2.35004H2.45001V93.35H2.55005V93.25H2.65002V93.15V93.05H2.55005V92.95V92.85V92.75V92.65H2.45001V92.55V92.45L2.35004 92.35V92.25H2.25V92.15L2.15002 92.05V91.95H2.05005V91.85H1.95001L1.85004 91.75V91.65V91.55H1.95001V91.45H2.05005V91.35V91.25L2.15002 91.15L2.25 91.05L2.35004 90.95V90.85H2.45001L2.55005 90.75H2.45001V90.65V90.55L2.35004 90.45V90.35H2.25V90.25H2.15002V90.15H2.05005V90.05V89.95H2.15002H2.25H2.35004H2.45001V89.85V89.75V89.65V89.55V89.45H2.35004V89.35V89.25L2.45001 89.15V89.05V88.95H2.35004H2.25L2.15002 88.85V88.75L2.25 88.65V88.75H2.35004V88.85H2.45001L2.55005 88.75V88.65H2.45001V88.55V88.45H2.55005L2.65002 88.55H2.75H2.85004L2.95001 88.45H3.05005V88.35H3.15002H3.25H3.35004V88.25V88.15H3.25L3.15002 88.05V87.95H3.25V87.85H3.35004V87.95H3.45001H3.55005H3.65002V88.05V88.15H3.75H3.85004V88.25H3.95001H4.05005V88.35H4.15002V88.45H4.25V88.55H4.35004V88.45L4.45001 88.35V88.25H4.55005V88.35H4.65002V88.45H4.75V88.35L4.85004 88.25H4.75V88.15L4.65002 88.25H4.55005V88.15V88.05H4.65002H4.75H4.85004V88.15H4.95001V88.05H5.05005V87.95H5.15002V88.05H5.25V88.15H5.35004L5.45001 88.05V87.95H5.55005V88.05H5.65002H5.75V87.95H5.65002V87.85H5.75L5.65002 87.75H5.55005V87.65H5.45001H5.35004V87.75H5.25V87.85H5.15002V87.75H5.05005V87.65H4.95001V87.55H5.05005H5.15002H5.25H5.35004V87.45H5.45001V87.55H5.55005H5.65002V87.45V87.35V87.25H5.75V87.15H5.85004V87.25H5.95001H6.05005V87.35V87.45H5.95001V87.55V87.65H6.05005V87.75H6.15002V87.85H6.25V87.95V88.05L6.35004 88.15H6.45001V88.05L6.55005 87.95V87.85H6.65002H6.75L6.85004 87.95V87.85H6.95001V87.95H7.05005V88.05H7.15002L7.25 88.15V88.25H7.35004H7.45001H7.55005H7.65002H7.75H7.85004H7.95001H8.05005V88.35H8.15002V88.45L8.25 88.55H8.35004H8.45001H8.55005V88.65H8.65002V88.75H8.75H8.85004V88.65V88.55H8.95001V88.45V88.35H9.05005H9.15002V88.45H9.25V88.55V88.65H9.35004V88.75H9.45001V88.85V88.95V89.05V89.15V89.25H9.55005V89.35V89.45H9.65002V89.55H9.75H9.85004H9.95001H10.05H10.15H10.25V89.65H10.15V89.75V89.85H10.25V89.75H10.35V89.85H10.45H10.55V89.95V90.05H10.65V90.15H10.55H10.45V90.25H10.35V90.35V90.45V90.55L10.25 90.65V90.75H10.35H10.45V90.85H10.35V90.95H10.45H10.55H10.65V91.05H10.75H10.85H10.95V90.95H11.05V90.85H11.15H11.25V90.75V90.65V90.55H11.35H11.45V90.65H11.55V90.75L11.65 90.85H11.75V90.95H11.85V91.05V91.15H11.95H12.05V91.05H12.15H12.25V91.15H12.35H12.45V91.05V90.95V90.85H12.55H12.65V90.95H12.75V91.05H12.85H12.95H13.05V90.95H13.15V90.85H13.25V90.75H13.35H13.45V90.85V90.95V91.05V91.15H13.55V91.25H13.65V91.35V91.45H13.75V91.55L13.85 91.65H13.95H14.05H14.15V91.75H14.25L14.35 91.85H14.45V91.95H14.55V92.05H14.65H14.75H14.85H14.95H15.05H15.15V91.95L15.25 91.85H15.35H15.45L15.55 91.95V92.05H15.65V92.15H15.85L15.95 92.25H16.05V92.15V92.05V91.95V91.85V91.65L16.15 91.35V90.85H16.35H16.65H17.05L17.15 90.45V90.05H17.35V89.95L17.45 89.75L17.65 89.45L18.05 88.85L17.95 88.25V87.65L17.85 87.25V87.05L17.75 86.65V86.55V86.45V86.35L17.65 86.25V85.85L17.55 85.35V85.15L17.45 84.85V84.55V84.45V84.35V84.25L17.35 84.15V84.05V83.95V83.85V83.75V83.55L17.25 83.25L17.15 82.85L17.05 82.05V81.65L16.95 81.35V80.85H17.05L17.15 80.95H17.25V81.05L17.35 80.95H17.45H17.55V81.05H17.45V81.15V81.25H17.55V81.35H17.65H17.75V81.25H17.85H17.95V81.15V81.05L17.85 80.95H17.95V80.85H18.05V80.75H17.95H17.85V80.65V80.55H17.95V80.45V80.35V80.25H18.05V80.35V80.45V80.55H18.15H18.25V80.45V80.35L18.35 80.25V80.35V80.45V80.55H18.45H18.55V80.45V80.35H18.45V80.25V80.15H18.55H18.65V80.25H18.75V80.15H18.85H18.95V80.05H19.05H19.15H19.25H19.35H19.45H19.55H19.65V79.95H19.75H19.85H19.95L20.05 80.05H20.15L20.05 79.75L19.85 77.95V77.85L19.75 77.25L19.65 76.85V76.65V76.55L19.55 76.15V75.65L19.45 75.45V75.35V74.95L19.35 74.45L19.25 73.95L19.15 72.85L19.05 72.15L18.85 71.35L18.45 71.45L17.05 71.65H16.95L16.85 70.75H16.65V70.85H16.25L15.55 70.95L14.55 71.05H14.45L14.05 71.15V71.05V70.95L13.95 70.35L13.85 69.75V69.65L13.75 68.85L13.65 68.45L13.95 68.35H14.05L13.95 68.05V67.95V67.75V67.45L13.85 67.25V67.15V67.05V66.85H13.95V66.95H14.05V67.05H14.15H14.25H14.35L14.45 66.95V66.85H14.55V66.75H14.65V66.65V66.55L14.55 66.25L14.45 65.65V65.35V65.25L14.35 64.95V64.65V64.45V64.35L14.25 63.95H14.55H14.65H14.75L14.85 63.85H14.95V63.75V63.65H14.85H14.75V63.55H14.65H14.55L14.45 63.45V63.35H14.55L14.65 63.25H14.75V63.15H14.85V63.25H14.95V63.15H15.05V63.05V62.95H15.15H15.25H15.35H15.45V63.05H15.55V63.15H15.65V63.25H15.75H15.85V63.15V63.05H15.75V62.95V62.85V62.75V62.65H15.85L15.75 62.55L15.65 62.35V62.25V61.95L15.55 61.55V61.15H15.25H15.05V60.65L14.95 60.05V59.45L14.85 59.05V58.95V58.75L14.75 58.05L15.15 57.95H15.65L16.05 57.85V57.35L15.95 57.15L15.85 56.05V55.75L15.75 55.55L17.15 55.35H17.35V55.25L18.15 55.15H18.45H18.55V55.05V54.95V54.75V54.65L18.45 54.55V54.45V54.05L18.35 53.55H18.25L17.55 53.65V53.55L17.45 52.95H17.35L16.85 53.05L16.25 51.65H16.15H16.05H15.95H15.75H15.65L15.35 51.75H14.95H14.45V51.55H14.05L13.75 51.65L13.55 50.15V49.95V49.55H13.25H13.05H12.95H12.75H12.25L12.15 49.25H11.75L10.45 49.55V49.45L10.35 48.95L10.15 47.45V47.25V46.95L10.05 46.75V46.65V46.55V46.45V46.35L9.95001 46.05V45.95V45.85V45.75H9.85004V45.65H9.75H9.65002V45.55V45.45V45.35V45.25H9.55005H9.45001V45.15H9.35004V45.05V44.95H9.45001H9.55005H9.65002H9.75V44.85V44.75H9.65002V44.65H9.55005H9.45001V44.55V44.45H9.35004H9.25V44.35L9.35004 44.25V44.15H9.45001H9.55005V44.05H9.45001V43.95L9.35004 43.85V43.75V43.65H9.25H9.15002H9.05005V43.55V43.45H9.15002V43.35H9.05005V43.25H8.95001V43.15V43.05H9.05005H9.15002L9.05005 42.95V42.85H9.15002V42.95H9.25V42.85V42.75H9.15002V42.65V42.55V42.45L9.05005 42.35H8.95001H8.85004V42.25H8.75V42.15H8.85004H8.95001H9.05005V42.05H9.15002V42.15L9.25 42.05H9.35004H9.45001H9.55005H9.65002V41.95H9.75V41.85V41.75L9.85004 41.65L9.95001 41.45V41.25V41.15H9.85004V41.05V40.95H9.75V40.85L9.65002 40.75L9.55005 40.65V40.55L9.45001 40.45L9.25 39.75L9.05005 39.05L8.85004 38.35V38.25H8.95001H9.05005V38.15V37.95L8.95001 37.85L8.85004 37.75V37.65V37.55H8.75L8.85004 37.45V37.35L8.75 36.95L8.65002 36.55V36.45V36.35H8.55005H8.45001H8.35004H8.25H8.15002H8.05005V36.25H7.95001H7.85004V36.35H7.75V36.25L7.65002 35.95V35.75L7.85004 35.65L7.95001 35.45L8.05005 35.35H8.15002L8.25 35.25H8.35004V35.15L8.45001 35.05V34.95L8.55005 34.75L8.65002 34.65L8.75 34.45L8.95001 34.15L9.05005 33.85L9.25 33.55H9.35004H9.45001H9.65002L9.75 33.65H9.85004H9.95001H10.05L10.15 33.75H10.25L10.45 33.85H10.55L10.85 34.05H11.05L11.25 34.15H11.35H11.45H11.55H11.65H11.75H11.85L12.15 34.05L12.25 33.95H12.45L12.55 33.85H12.65H12.75L12.55 34.45L12.45 34.75L12.85 35.05L12.75 35.15L12.65 35.45H12.75L12.95 35.55H13.15H13.25H13.55L13.75 35.65H13.85H14.05L14.15 35.95H14.25L14.35 36.15H14.55L15.05 36.05H15.25V35.95V35.85V35.75L15.35 35.65L15.45 35.35L15.55 34.95L15.75 34.45L15.95 33.95H16.75L17.15 34.05H17.35H18.05L19.15 34.15H19.35V34.25V34.35H19.45V34.45H19.65L19.95 34.55H20.45H20.55L20.65 34.25H20.75L20.85 34.35L21.55 34.45H21.65H21.75V34.55H21.85V34.65H21.95H22.05V34.75V34.85H22.15V34.95H22.25V35.05H22.35V35.15H22.45V35.25V35.35H22.55V35.45V35.55H22.65V35.65V35.75H22.75V35.85V35.95H22.85H22.95V36.05H23.05V36.15H23.15V36.25H23.25V36.35H23.35V36.45V36.55H23.45L23.55 36.65H23.65H23.75H23.85V36.75L23.95 36.85L24.05 36.95H24.15V37.05H24.25V37.15V37.25H24.35V37.35H24.45V37.45V37.55H24.55H24.65V37.65H24.75L24.85 37.75V37.85H24.95L25.15 37.65H25.25L25.35 37.35L25.45 36.85V36.55H25.55L25.05 36.45H24.55H24.45L24.55 36.15V35.95V35.85H24.45L24.25 35.75L24.05 35.65L23.95 35.55L23.65 35.35L23.35 35.15L23.05 34.95L23.35 34.55V34.45L23.55 34.15L23.65 33.95V33.75H23.95H24.05L24.15 33.85H24.25L24.35 33.45V33.15L24.55 32.55L24.75 32.65H24.85L24.95 32.75H25.05H25.15H25.25H25.35L25.45 32.85H25.55H25.75H26.35H26.65L26.75 32.65H27.15H27.25L27.65 31.65L28.35 30.05L28.85 30.25L28.95 30.35L29.35 30.45L29.85 30.65H29.95H30.05H30.15H30.25H30.35L30.75 30.75L30.65 30.95L30.55 31.05L30.45 31.35V31.45H30.95L31.05 31.65V31.75L31.15 31.85V31.95L31.25 32.05L31.35 32.15H31.45H31.55L31.65 32.25H31.75L31.95 32.35L32.05 32.45L32.25 32.55L33.05 32.85V32.55L33.15 30.25V30.15V29.95L33.05 29.55L32.95 29.15V28.85V28.75V28.55H32.85V28.45L32.95 28.35V28.25V28.15V28.05H33.05V27.95V27.75V27.65H33.15H33.25V27.75H33.35V27.65H33.45V27.55V27.45H33.55H33.65H33.75V27.35H33.85V27.25H33.95V27.15H34.05V27.05H34.15V26.95V26.85L34.25 26.75V26.65L34.35 26.55L34.45 26.45V26.35H34.55V26.25V26.15V26.05H34.65V25.95L34.55 25.85H34.65V25.75V25.65H34.85H34.95L35.65 25.75V25.65L36.75 25.75L36.85 25.35V24.55H37.65H37.85H38.25H38.45V24.65V24.75V24.85H38.55V24.75H38.75L39.15 24.55H39.45L39.75 24.65H39.85L39.95 24.35V24.25L40.05 23.95V23.65H39.95H39.85V23.55V23.45L40.05 23.25V23.15L39.85 23.05V23.35H39.75V23.45H39.65V23.35H39.55H39.45H39.35L39.25 23.25H39.15V23.15V23.05H39.05H38.95V22.95H38.85V22.85V22.75V22.65V22.35H38.95H39.25L39.45 22.25V22.15V22.05L39.55 21.95H39.45H39.35H39.25H39.15H39.05V21.85H38.95V21.75V21.65H38.85H38.75V21.55H38.65V21.45V21.35H38.75V21.25H38.85H38.95H39.05L38.95 21.15L38.85 21.05L38.65 21.15H38.55H38.45H38.35H38.25V21.05L38.15 20.95V20.85H38.25V20.75H38.35H38.45V20.65H38.35V20.55V20.45H38.45L38.55 20.55V20.45V20.35H38.65V20.25L38.75 20.15L38.85 20.05V20.15H38.95H39.05H39.15V20.25V20.35H39.25V20.15V20.05V19.95H39.35H39.45H39.55H39.65V19.85V19.75H39.55H39.45H39.25H39.15H39.05V19.65L39.15 19.45H39.45H39.55L39.65 19.35L39.95 19.15V19.25L40.35 19.05V18.95H40.45V18.85V18.75L40.55 18.55L40.65 18.35H40.75L40.95 18.45L41.05 18.55H41.15L41.35 18.65L41.45 18.75V18.95V19.15L41.55 19.25H41.65H41.75V19.15H41.95V19.05H42.05H42.15V18.95V18.65L42.05 18.35V18.25V17.75V17.35L42.15 17.05L42.25 16.55L42.75 16.65L42.85 16.75L42.95 16.65V16.75H43.05V16.65V16.55V16.45L42.95 16.35H42.85V16.25L42.75 16.15V16.05V15.95V15.85V15.75H42.85V15.65H42.95L42.85 15.45L42.75 15.25V15.15L42.65 15.05V14.95L42.75 14.85H42.85L42.95 14.75H43.05H43.15H43.25L43.35 14.65H43.45H43.55H43.65H43.75H43.85L43.95 14.55L44.05 14.45L44.15 14.35V14.25L44.25 14.15V14.05L44.35 13.95V13.85H44.45L44.55 13.95H44.65H44.85H44.95V14.05H45.05H45.15V13.95H45.25L45.45 13.85V13.95L45.55 14.05L45.65 14.15H45.75L45.85 14.05L45.95 13.95V13.85H46.05V13.95V14.05V14.15V14.25V14.35H45.95L46.05 14.45V14.55H46.15V14.45H46.25V14.35H46.35V14.25H46.45H46.55V14.15H46.65V14.05L46.75 13.95V13.85H46.85V13.95V14.05V14.15V14.25V14.35L46.95 14.45L47.05 14.35V14.25L47.25 14.15L47.35 13.95V13.85V13.75H47.45H47.55H47.65H47.75H48.05H48.25H48.35V13.65V13.55L48.45 13.45V13.35H48.55L48.65 13.25H48.75L48.85 13.15V13.05V12.95V12.85V12.75H48.95V12.65V12.55H48.85V12.45V12.35L48.75 12.25V12.15L48.65 12.05L48.55 11.95L48.45 11.85L48.55 11.55H48.45L48.25 11.45V11.35H48.15V11.25L48.05 11.15L47.85 10.95L48.05 10.85L48.25 10.55L48.35 10.65H48.45L48.75 10.55L50.25 10.15L50.85 9.95002L52.25 9.25001L52.85 8.95002V8.85001L52.65 8.65H52.55L52.45 8.55003L52.35 8.35001L52.25 8.25001L52.15 8.15H52.05H51.95L51.75 8.35001H51.65L51.45 8.05003V7.95002H51.35V7.85001L51.25 7.75001H51.15L50.95 7.65L50.85 7.55003H50.75V7.45002H50.65L50.85 7.35001L51.05 7.25001H51.15H51.25L51.45 7.45002H51.55H51.65H51.75V7.35001V7.25001V7.15L51.65 7.05003V6.85001L51.55 6.75001V6.65V6.55003V6.45002H51.45V6.25001V6.15V6.05003H51.35V5.95002H51.25V5.85001H51.15L51.05 5.75001L50.85 5.65L50.55 5.45002L50.35 5.35001L50.15 5.25001L50.05 5.15L49.85 5.05003H49.75L49.55 4.95002L49.35 4.85001H49.25H49.15L49.05 4.75001H48.95H48.85H48.75H48.65L48.55 4.65H48.45V4.55003H48.55L48.65 4.15L48.75 4.05003V3.85001L48.85 3.75001L48.95 3.55003L49.05 3.45002L49.15 3.35001L50.25 2.65L50.65 2.35001L50.85 2.15L50.95 2.05003L51.15 1.75001L51.25 1.65V1.55003H51.35L51.65 1.05003L51.75 0.95002L51.95 0.850014L52.05 0.750008H52.25H52.35H52.55L52.65 0.850014H52.75H53.15H53.25H53.45H53.55H53.65L53.85 0.750008H53.95L54.15 0.650002H54.25H54.35H54.45L54.65 0.750008L55.35 0.850014L56.05 0.95002L56.75 1.15L57.35 1.25001L58.15 1.45002L58.85 1.55003L59.05 1.65H59.25H59.35L59.75 1.85001L60.95 2.25001L61.85 2.45002L62.55 2.75001L63.05 2.85001L63.55 3.05003V2.95002V2.75001V2.65H63.65H63.75H63.85H63.95H64.05H64.15V2.75001H64.25V2.65H64.35H64.45L64.75 2.75001H64.95V2.95002L65.45 3.05003H65.55H65.85L65.95 2.85001H66.05V2.75001L66.15 1.85001L66.25 1.55003L66.35 1.45002L66.45 1.15L66.55 0.95002L66.75 0.750008V0.650002L66.85 0.550026V0.45002L66.95 0.350014H67.05H67.15H67.25L67.35 0.250008V0.350014L67.45 0.550026V0.650002L67.55 0.750008V0.95002L67.65 1.15L67.55 1.25001L67.65 1.55003L68.25 1.75001V2.25001L68.85 2.15H69.05H69.15L69.55 2.95002L69.95 2.75001L70.35 3.65L70.45 3.75001V3.85001L69.65 4.15L69.35 4.25001V4.35001L69.05 4.45002V4.65H68.95V4.75001L68.55 4.95002L68.35 5.15L68.75 5.65L68.85 5.75001V5.85001L68.35 6.25001L68.75 6.65L68.85 6.75001L69.15 6.95002L69.35 7.05003L69.65 7.25001L69.85 7.45002H69.95L70.85 7.85001L70.95 7.95002H71.05L71.15 7.85001L71.55 7.65L71.65 7.75001V7.85001V7.95002H71.75V8.05003V8.15H71.65H72.05L72.55 8.25001L72.65 8.35001L72.75 8.45002V8.55003L74.75 8.75001H75.15L75.65 8.85001H75.75V8.75001V8.65V8.55003L75.85 7.95002V7.65V7.55003L75.95 7.25001V7.15V7.05003H76.05H76.15H76.25H76.35H76.45V7.15H76.55H76.65L76.75 7.25001H76.85L77.05 7.35001H77.15H77.25L77.85 7.25001L77.95 7.65V8.15L77.75 9.25001L77.65 9.75001L77.55 9.95002V10.05L77.45 10.15V10.45L77.35 10.65L77.25 11.05L77.15 11.15V11.25V11.35V11.65L77.05 12.15V12.55L76.95 13.05V13.15V13.65L76.85 13.75L76.75 13.85L76.65 13.95L76.45 14.05V14.15L76.55 14.25L77.05 15.05L77.25 15.35L77.45 15.55L77.55 15.75L77.65 16.15L77.85 16.75L78.05 17.15L78.15 17.45L78.55 18.25V18.45L78.65 18.55V18.65H78.75V18.95V19.05V19.15L78.55 19.25H78.45H78.25H78.15H78.05H77.85L77.55 19.35H77.25L77.15 19.45H77.05L76.65 19.55L76.45 19.75H76.35V19.85V19.95V20.15V20.25L76.55 20.35L76.65 20.45L76.45 20.75V21.25H76.35L75.25 20.55V20.65L74.75 21.45L74.65 21.65L74.35 22.15L74.25 22.25V22.35L74.05 22.55L73.95 22.75L74.05 22.85H74.25L74.45 22.95H74.65H74.75H74.85H75.25H75.55H75.75V23.05L75.85 23.25V23.35L75.95 23.45V23.55L76.05 23.65H76.15L76.75 23.75L76.85 23.65H76.95L77.05 23.55H77.15H77.35H77.55L77.75 23.65H77.95H78.05L78.35 23.75L78.55 23.85L78.65 23.95H78.75L79.05 24.05L79.55 24.25L79.65 24.15L79.75 24.25H79.85H79.95H80.05H80.15H80.25L80.35 24.35V24.45H80.45H80.55L80.65 24.35L80.75 24.25V24.15V24.05L80.85 23.95V23.85L80.95 23.75H81.05H81.15L81.25 23.85H81.35L81.45 23.95H81.55H81.65H81.75H81.85H81.95H82.05L82.15 23.85H82.25L82.35 23.95H82.45H82.55H82.65L82.75 24.05H82.85H82.95H83.05L83.25 24.15H83.35H83.45H83.55H83.65H83.75H83.85L83.95 24.05L84.55 23.85L84.85 23.75L85.05 23.65V23.85L85.25 24.55V24.85V24.95V25.15V25.35V25.45L85.35 27.05V27.95V28.35V28.45V28.65L85.25 28.75V28.85H85.35V28.95V29.05V29.15V29.25V29.35V29.45L85.25 29.55V29.65H85.15V29.75H85.25V29.85V29.95H85.15V30.05V30.15V30.25V30.35H85.05V30.45V30.55V30.65L84.95 30.75V30.85V30.95L85.55 30.85H85.65H85.85H85.95L86.05 30.75H86.75L86.85 30.65L86.95 30.75L87.35 31.25V31.35L87.45 31.45V31.75L87.55 32.05L87.95 31.95H88.05H88.15H88.35H88.65L88.75 31.85H89.15L89.55 31.75L89.65 32.35L89.75 32.55V32.65V32.85L88.35 33.05L88.15 33.35V33.45V33.55L88.05 33.65V33.75H87.95H87.85L87.75 33.85V34.05L87.85 34.15V34.25V34.35V34.75L87.95 34.95V35.45L88.05 35.65V35.75V36.05H87.65L87.45 36.65L87.35 36.95L87.05 37.75H87.15L87.25 37.85L87.75 38.35L87.95 38.55L88.05 38.65V38.75H88.15H88.25H88.35H88.65H88.75L88.95 38.85H89.05H89.25L89.75 38.95L89.95 39.05L90.05 39.35L90.15 39.95V40.55L89.45 40.65H89.05V40.75H89.15V40.85L89.25 40.95L89.35 41.05L89.55 41.25H89.65V41.45V41.65V41.95L89.45 42.25L89.35 42.35V42.45L89.55 42.65V42.85H89.45H89.35V42.95H89.25H89.15V42.85L88.75 42.95H88.45H88.35H88.15L88.05 43.05L88.15 43.85H88.05H87.85L87.55 43.95H87.15L86.75 44.05L86.85 44.35V44.75L86.65 44.85H86.25L85.85 44.95H85.75L85.85 45.25L85.45 45.15L85.55 46.15H85.75H86.15L86.65 46.05H87.05V46.55L87.15 47.05L87.25 47.75V47.95V48.15V48.45L87.35 48.95V49.15L87.45 49.45V49.65V49.85V50.05V50.35L87.55 50.65V50.75V50.85V51.15L87.65 51.75V51.85V52.15L87.75 52.55V52.65V52.85L87.85 53.25V53.35L87.55 53.45H87.65V53.55V53.65L87.75 53.85H87.85V53.95L87.95 54.05V54.15H88.05H88.15L88.35 54.35L88.45 54.45V54.55H88.55V54.65H88.65L88.75 54.75V54.85L88.95 55.15L89.15 55.35L89.45 55.65L89.65 55.85L89.75 56.05L89.85 56.15V56.25H89.75H89.65L89.55 56.35V56.45H89.45V56.55H89.55V56.65H89.45L89.55 56.95L89.15 57.25H89.05L88.95 57.15H88.85H88.75V57.25V57.35V57.55V57.65H88.95V57.75H89.05L89.15 58.05H88.95V58.15L89.05 58.25V58.55L89.15 58.75L89.05 58.85L88.95 58.65V58.55H88.85L88.75 58.45V58.65L88.55 58.55L88.45 58.65H88.35L88.45 58.75L88.65 58.85L89.05 59.15L89.85 59.55L89.75 59.65L89.65 59.95L89.55 60.05L89.45 60.25L90.75 61.45H90.85H90.95V61.55V61.65H91.05H91.15V61.55H91.25V61.45H91.35V61.35H91.45H91.55H91.65H91.75H91.85V61.25H91.95L92.05 61.15V61.25H92.15V61.15H92.25V61.25H92.35H92.45H92.55H92.65V61.35L92.85 61.85L92.95 62.15L93.05 62.25L93.25 62.15H93.45L93.55 62.05H93.65L94.05 61.85V61.55L93.95 61.45L94.25 61.35H94.45L94.75 61.25V61.15H94.85H94.95H95.05V61.05H95.15H95.25L95.35 60.95H95.45H95.55V60.85H95.65V60.95V61.05V61.15V61.25V61.45V61.55V61.65V61.75H95.55V61.85L95.65 61.95V62.05V62.15L95.75 62.25V62.35V62.45V62.55V62.65V62.75H95.85V62.85L95.95 62.95V63.05H95.85V63.15H95.95V63.25V63.35V63.45V63.55V63.65L95.85 63.75V63.85V63.95L95.75 64.05H95.85V64.15V64.25V64.35V64.45V64.55V64.65L95.75 64.75L95.85 64.85L95.95 65.05L96.05 65.35L96.15 65.45L96.25 65.85V66.05L96.35 66.15V66.25H96.45V66.15L96.55 65.95L96.75 66.05H97.05H97.15H97.25H97.35V66.15V66.25V66.35L97.45 66.45L97.55 66.55V66.65V66.75L97.65 66.95H97.75H97.85L97.95 67.05H98.05H98.15V67.15H98.25L98.35 67.35H98.25H98.15L98.05 67.45H97.95L97.45 67.55L97.55 67.65V67.75V67.85H97.45L97.35 67.95L97.15 68.05V68.15L97.05 68.25L97.15 68.35H97.25L97.05 68.55H96.35L96.05 68.75H95.95L95.75 68.95H95.65V69.05V69.15V69.25V69.35V69.55V69.65L95.75 69.85V70.05V70.15L95.85 70.35V70.55V70.75V70.85H95.75V70.95H95.65V71.05V71.15V71.25H95.55V71.35H95.45L95.35 71.45L95.25 71.55L95.35 71.65V71.75V71.85H95.45V71.95H95.55V72.05H95.65V72.15V72.25V72.35H95.55V72.45H95.45V72.55V72.65V72.75H95.35V72.85H95.25V72.95H95.15V73.05H95.25V73.15H95.35V73.25V73.35L95.25 73.45V73.55H95.35V73.65V73.75H95.45H95.55H95.65H95.85H95.95H96.05H96.35L96.55 73.85H96.95H97.25L97.55 73.95H97.65H97.85H98.05H98.15L98.25 74.05H98.35H98.45H98.55V74.15H98.65H98.75H98.85H98.95V74.05H99.05H99.15H99.25H99.35H99.65L99.95 74.15H100.05H100.15H100.25H100.35H100.85H100.95H101.05H101.15H101.25H101.35L101.45 74.05H101.65H101.75L101.85 73.95H101.95L102.05 74.05L102.15 74.15H102.25V74.25H102.35V74.35H102.45L102.55 74.45H102.65L102.75 74.55L102.85 74.65V74.75H102.95L103.05 74.85L103.15 74.95L103.25 75.15L103.35 75.25H103.45V75.35V75.45V75.55L103.55 75.65V75.75L103.45 75.85L103.55 75.95H103.45V76.05V76.15V76.25V76.35V76.45L103.35 76.55H103.45V76.65V76.75V76.85V76.95V77.05H103.55V77.15H103.45V77.25V77.35V77.45V77.55V77.65H103.55V77.75H103.65V77.85V77.95L103.75 78.05V78.15V78.25V78.35H103.85L103.95 78.45V78.55L104.05 78.65H104.15V78.75H104.25V78.85V78.95H104.35H104.45V79.05V79.15H104.55V79.25H104.65V79.35V79.45V79.55H104.55V79.65V79.75L104.45 79.85V79.95V80.05V80.15H104.55H104.65V80.25H104.55V80.35V80.45H104.45H104.35H104.25V80.55V80.65H104.15L104.05 80.75V80.85V80.95H103.95V81.05H103.85V81.15H103.95V81.25V81.35H104.05V81.45H104.15V81.55V81.65V81.75H104.25H104.35L104.45 81.85L104.55 81.95H104.65H104.75H104.85V82.05H104.95L105.05 82.15H105.15L105.35 82.25L105.65 82.45H105.75L105.85 82.55H105.95L106.05 82.45L106.15 82.35H106.35H106.55H106.75H107.15H107.45H107.55H107.65V82.45H107.55V82.55V82.65V82.75H107.65H107.75H107.85H107.95H108.05H108.25L108.35 82.65H108.45H108.55L108.65 82.75H108.75L108.55 83.75H108.75H108.85V83.85H108.95H109.05L109.15 83.95H109.35L109.45 84.05H109.65L109.95 84.15L110.05 84.25H110.15V84.35H110.25H110.35H110.45H110.55V84.45H110.65H110.75V84.55H110.85H110.95V84.65L111.05 84.55V84.65H111.15V84.55H111.25H111.35H111.45V84.65H111.55H111.65V84.75H111.75H111.85L111.95 84.85H112.05V84.75H112.15H112.25H112.35H112.45V84.85V84.95H112.55H112.65V85.05V85.15H112.75H112.85V85.05H112.95V84.95H113.05V84.85L113.15 84.95V85.05V85.15V85.25V85.35H113.25H113.35H113.45H113.55H113.65V85.45L113.75 85.55H113.85H113.95V85.65L114.05 85.75V85.85H114.15H114.25V85.75H114.35V85.85H114.45V85.75H114.55H114.65V85.85V85.95H114.75H114.95H115.05V86.05V86.15L114.95 86.35V86.45V86.55L114.85 86.65L114.75 87.05V87.15L114.65 87.35V87.45V87.55V87.65H114.55V87.75V87.85L114.45 88.05L114.75 88.15V88.25H114.85L114.95 88.35L114.85 88.55L114.75 88.65L114.65 88.75L114.55 88.85H114.45H114.35L114.25 88.95L114.15 89.05L114.05 89.15L114.15 89.35L114.25 89.45H114.35L114.45 89.55H114.55L114.65 89.65H114.75H114.85V89.75L114.95 89.85H115.05V89.75L115.15 89.65V89.55L115.25 89.45V89.35V89.25H115.35V89.15L115.45 89.05V88.95L115.55 88.85V88.95V89.05V89.15V89.25L115.35 89.75L115.55 89.95H115.65L115.55 90.05L115.45 90.15L115.15 90.85L115.05 90.95H114.95H114.85L114.75 91.15H114.85V91.25L114.95 91.35L115.05 91.55L115.25 91.45V91.55L115.35 91.85L115.25 91.95V92.05H115.15L115.35 92.45L115.55 92.95L115.65 93.05V93.15V93.25V93.35H115.75V93.45L115.95 93.65L116.05 93.75L116.15 93.65V93.55H116.25H116.45H116.75L117.05 93.65H117.35H118.05L119.15 93.75H119.35H119.45H119.55H119.65H119.95H120.15L120.25 93.85H120.35H120.55H120.65H120.75H120.95H121.05H121.35V93.95H121.45H121.55H121.65H121.75H122.75H122.95L123.25 94.05H123.55H123.85H124.05L124.45 94.15H124.85H125.05H125.45L125.65 94.25H125.75H125.95H126.05H126.15H126.25V94.35V94.65V94.75V94.85L126.35 94.95V95.05V95.35L126.45 95.75L126.35 96.45V96.85L126.25 97.15V97.25V97.35V97.45L126.15 97.55V97.65V97.75V97.85V97.95V98.05H126.25V97.95H126.35V98.05H126.45H126.55V98.15V98.25H126.65H126.75V98.15H126.85L126.95 98.25H126.85L126.75 98.45L126.85 98.55H126.95L127.05 98.65V98.75H127.15H127.25V98.65H127.35H127.45V98.55V98.45H127.55L127.65 98.55H127.75V98.45V98.35H127.85V98.25H127.95V98.35L128.05 98.45V98.55V98.65H128.15H128.25V98.75H128.15V98.85H128.25V98.95V99.05H128.35H128.45V99.15V99.25H128.55H128.65H128.75V99.35V99.45L128.55 99.75L128.25 100.75L128.05 101.15V101.35L127.85 101.65L127.75 101.85L127.55 102.45V102.55V102.65V102.85L127.65 103.25L127.75 103.95L127.85 104.15L127.95 104.35V104.45V104.55H127.85H124.05H123.95H123.85H123.75H123.65H123.45H123.15H123.05H122.85H122.65H121.95H121.85H121.75L121.65 104.45H121.55L121.45 104.35H121.35H121.25L121.15 104.25H120.75H120.45L120.15 104.15H120.05H119.85H119.75H119.65V104.25V104.35H119.55H119.45H119.35H119.25H119.15V104.25H119.05L118.95 104.15V104.25L118.85 104.15V104.25H118.75H118.65H118.55H118.45V104.15H118.35H118.25V104.05H118.15H118.05V104.15V104.25H118.15V104.35H118.05V104.45L117.95 104.75L117.55 104.85H117.15H116.75H116.35V104.75H116.25L116.15 104.85L116.05 104.95V105.05H115.95V105.15V105.25V105.35L116.05 105.45V105.55H115.95V105.65V105.75V105.85L115.85 105.95V106.05H115.75H115.65V106.15H115.55H115.45V106.25V106.35V106.45L113.95 108.25L113.75 108.65L113.55 109.15L112.65 111.25L111.75 114.65L111.35 117.85L111.05 118.45V118.35V118.25H110.95H110.85H110.75V118.15H110.65V118.05H110.55V117.95V117.85H110.65H110.75V117.75H110.85V117.65V117.55V117.45V117.35V117.25H110.75H110.65H110.55V117.35H110.45H110.35H110.25H110.15H110.05H109.95H109.65H109.55H109.45H109.35H109.25H109.15L108.95 117.45H108.75H108.65L108.55 117.35V117.45L108.45 117.35H108.35H108.15H108.05H107.95H107.85H107.65H107.55H107.45L107.35 117.25H107.25V117.35H107.15H107.05V117.45H107.15H107.25H107.35V117.55V118.55H107.15L106.25 119.25L105.95 119.55L105.55 120.05L104.35 121.45H104.25H104.15H103.95H103.85H103.75H103.65H103.55H103.45H103.35H103.25H103.15H103.05H102.95H102.75H102.65H102.35H102.25H102.15H102.05H101.75H101.45H101.35H101.25H101.05H100.85H100.55H100.45H100.35H100.15H99.85H99.35H99.25H99.15H98.95H98.75H98.55H98.25H97.95H97.75H97.45H96.95H96.75V121.55V121.95V122.55V123.15V123.55H96.65H96.45H96.25L96.05 123.45L95.95 123.55H95.75H95.45H95.35H95.15H94.95H94.85H94.45H94.25H94.05H93.85H93.45H93.35H93.25H93.15H93.05H92.95H92.85H92.75H92.55H92.35H92.25H92.15H91.95H91.85H91.75H91.65H91.55H91.45V123.65V123.75V123.85V123.95V124.05V124.15V124.35L89.85 125.45L88.55 127.55L87.65 130.15L86.85 132.75L87.05 138.05L86.75 140.25L85.55 142.55L84.05 144.55L83.35 145.85L83.25 147.05L83.95 147.85L84.85 147.95L86.75 147.65L87.65 147.75L88.45 148.15L88.95 148.95L88.85 150.35V150.45L88.25 151.25L88.15 151.55L87.85 151.75H87.75H87.35H87.15H87.05H86.95L86.85 151.85L86.75 151.95L86.65 152.05H86.55H86.45H86.35H86.25H86.15L86.05 152.15H85.95H85.85H85.75V152.25H85.65H85.55V152.35V152.45V152.55V152.65H85.65V152.75H85.75V152.85V152.95L84.95 153.45L84.05 155.15L83.75 157.35L83.95 159.75L84.55 161.35H84.45V161.45H84.35L84.25 161.55H84.15V161.65H84.05L83.95 161.75H83.85V161.85H83.75L83.65 161.95V162.05H83.55H83.45V162.15V162.25H83.35H83.25V162.35H83.15V162.45H83.05V162.55V162.65H82.95V162.75H82.85V162.85V162.95H82.75V163.05V163.15H82.65V163.25V163.35H82.55V163.45V163.55H82.45V163.65V163.75H82.35V163.85L82.25 163.95L82.15 164.05V164.15L82.05 164.25V164.35H81.95V164.45H81.85V164.55H81.75V164.65H81.65V164.75H81.55L81.45 164.85V164.95H81.35V165.05H81.25V165.15H81.15V165.25H81.05V165.35H80.95V165.45H80.85V165.55H80.75V165.65H80.65V165.75H80.55H80.45V165.85H80.35V165.95H80.25H80.15H80.05V166.05H79.95H79.85V166.15H79.75V166.25H79.65H79.55V166.35H79.45H79.35V166.45V166.55H79.25V166.65H79.15V166.75H79.05V166.85L78.95 166.95V167.05H78.85V167.15H78.75V167.25H78.65V167.35H78.55V167.45H78.45V167.55H78.35H78.25V167.65H78.15V167.55V167.45H78.25H78.35V167.35H78.45H78.55V167.25L78.65 167.15V167.05H78.75H78.85V166.95H78.95V166.85H79.05V166.75V166.65V166.55H79.15V166.45V166.35V166.25H79.25V166.35H79.35H79.45V166.25H79.55V166.15H79.65V166.05H79.75V165.95L79.85 165.85V165.75H79.95H80.05H80.15V165.65H80.25V165.55H80.35V165.45H80.45H80.55H80.65V165.35V165.25V165.15V165.05V164.95H80.55V164.85V164.75V164.65V164.55L80.45 164.45V164.35V164.25L80.35 164.15V164.05L80.25 163.95V163.85V163.75H80.15V163.65V163.55L80.05 163.45V163.35H79.95V163.25L79.85 163.15V163.05H79.75V162.95L79.65 162.85L79.55 162.75V162.65H79.45V162.55L79.25 162.35L79.15 162.25L79.05 162.15L78.95 162.05L78.85 161.95V161.85H78.75L78.65 161.75L78.55 161.65H78.45L78.35 161.55L78.25 161.45H78.15H78.05L77.95 161.35H77.85H77.75H77.65L77.55 161.25H77.45H77.35H77.25H77.15V161.15H77.05H76.95H76.85H76.75V161.25H76.65H76.55V161.35H76.45L76.35 161.45V161.55H76.25V161.65H76.15V161.75V161.85H76.05V161.95H75.95V162.05L75.85 162.15V162.25H75.75V162.35V162.45V162.55H75.65V162.65H75.55V162.75H75.45H75.35H75.25V162.65H75.15H75.05H74.95L74.85 162.55H74.75H74.65V162.45H74.55H74.45V162.35H74.35H74.25V162.25H74.15H74.05V162.15H73.95H73.85H73.75V162.05H73.65H73.55H73.45H73.35H73.25H73.15H73.05H72.95H72.85H72.75V162.15H72.65V162.25H72.55L72.45 162.35H72.35V162.45H72.45V162.55H72.55H72.65V162.65H72.75H72.85V162.75H72.95H73.05V162.85L72.95 162.95H72.85H72.75H72.65L72.55 162.85H72.45L72.35 162.75H72.25H72.15L72.05 162.65L71.85 162.55H71.75L71.65 162.45H71.55V162.35H71.45H71.35H71.25V162.25H71.15H71.05V162.15H70.95H70.85V162.05H70.75H70.65L70.55 161.95H70.45L70.35 161.85H70.25V161.75H70.15H70.05L69.95 161.65H69.85V161.55H69.75H69.65L69.55 161.45H69.45H69.35V161.35H69.25H69.15L69.05 161.25H68.85L68.75 161.15H68.65H68.55H68.45H68.35H68.25H68.15V161.25H68.05H67.95H67.85V161.35H67.75L67.85 161.45H67.75H67.65H67.55H67.45H67.35H67.25H67.15H67.05H66.95H66.85L66.75 161.55H66.65H66.55V161.65H66.45H66.35V161.75H66.25H66.15H66.05V161.85H65.95H65.85H65.75V161.95H65.65L65.55 162.05H65.45L65.35 162.15H65.25V162.25H65.15L65.05 162.35V162.45H64.95H64.85V162.55H64.75V162.65H64.65H64.55V162.75H64.45H64.35H64.25H64.15V162.85H64.05H63.95H63.85V162.95H63.75V163.05H63.65H63.55H63.45H63.35V163.15H63.25V163.05H63.15H63.05L62.95 162.95H62.85H62.75V162.85H62.65H62.55H62.45H62.35H62.25H62.15H62.05H61.95H61.85H61.75V162.95H61.65H61.55H61.45H61.35V163.05H61.25H61.15L61.05 163.15H60.95H60.85H60.75H60.65V163.25H60.55H60.45H60.35H60.25V163.35H60.15H60.05H59.95H59.85H59.75H59.65H59.55V163.45H59.45H59.35H59.25H59.15H59.05H58.95H58.85H58.75H58.65H58.55H58.45H58.35H58.25H58.15V163.35H58.05H57.95H57.85H57.75H57.65H57.55V163.25H57.45H57.35V163.15H57.25L57.15 163.05H57.05H56.95V162.95H56.85H56.75H56.65V162.85H56.55H56.45V162.75H56.35H56.25H56.15L56.05 162.65H55.95H55.85L55.75 162.55H55.65H55.55V162.45H55.45H55.35V162.55L55.25 162.45V162.35H55.15H55.05L54.95 162.45V162.55H54.85V162.65H54.75V162.75L54.65 162.85V162.95H54.55H54.45L54.35 163.05H54.25V163.15H54.15H54.05H53.95V163.05V162.95V162.85V162.75H53.85V162.85V162.95H53.75V163.05H53.65H53.55H53.45H53.35H53.25V163.15L53.35 163.25V163.35V163.45H53.25H53.15V163.55H53.05H52.95H52.85V163.45H52.75V163.35H52.65V163.25H52.75V163.15V163.05V162.95V162.85H52.65V162.75V162.65V162.55H52.55V162.45V162.35H52.45V162.25L52.35 162.15V162.05H52.25V162.15V162.25V162.35H52.35V162.45V162.55H52.45V162.65V162.75H52.55V162.85H52.45V162.95H52.35V162.85V162.75H52.25V162.65V162.55H52.15V162.45V162.35V162.25H52.05V162.35H52.15V162.45V162.55V162.65V162.75L52.25 162.85V162.95V163.05H52.15H52.05H51.95V163.15H51.85H51.75H51.65H51.55H51.45V163.25H51.35H51.25H51.15H51.05H50.95L50.85 163.35H50.75H50.65H50.55H50.45V163.45H50.35H50.25V163.55H50.15V163.65H50.05H49.95V163.75H49.85V163.85H49.75V163.95H49.65L49.55 164.05V164.15L49.45 164.25V164.45V164.55V164.65V164.75V164.85H49.35H49.25L49.15 164.75V164.85L49.05 164.95L48.95 165.05L48.85 165.25L48.95 165.35H48.85H48.75L48.65 165.45L48.55 165.65V165.75H48.45L48.65 165.85L48.55 165.95L48.35 166.25H48.45V166.35H48.35V166.25H48.25H48.15H48.05L47.95 166.35V166.45H47.85V166.55V166.65H47.75V166.75H47.65V166.85H47.55V166.95L47.45 167.05V167.15H47.35V167.25H47.25V167.35H47.15V167.45V167.55H47.05V167.65L46.95 167.75V167.85L46.85 167.95V168.05L46.75 168.15V168.25H46.65V168.35V168.45H46.55V168.55V168.65H46.45V168.75L46.35 168.85L46.25 168.95V169.05L46.15 169.25L46.05 169.35V169.45L45.85 169.75L45.75 169.95L45.55 170.15L45.45 170.35L45.35 170.45V170.55L45.25 170.65L45.15 170.75V170.85H45.05V170.95H44.95V171.05L44.85 171.15L44.75 171.25L44.65 171.35V171.45H44.55V171.55H44.45V171.65L44.35 171.75L44.25 171.85V171.95H44.15V172.05H44.05V172.15H43.95V172.25H43.85V172.35H43.75V172.45H43.65L43.55 172.55V172.65H43.45V172.75L43.35 172.85L43.25 172.95L43.15 173.05V173.15L43.05 173.25V173.35H42.95V173.45H42.85V173.55V173.65H42.75V173.75H42.65V173.85V173.95H42.55V174.05H42.45V174.15V174.25H42.35V174.35H42.25V174.45V174.55H42.15V174.65L42.05 174.75V174.85H41.95V174.95L41.85 175.05V175.15H41.75V175.25L41.65 175.35V175.45H41.55V175.55V175.65H41.45V175.75L41.35 175.85V175.95H41.25V176.05V176.15H41.15V176.25L41.05 176.35V176.45H40.95V176.55H40.85V176.65V176.75H40.75V176.85H40.65V176.95V177.05H40.55V177.15H40.45V177.25V177.35H40.35V177.45H40.25V177.55H40.15V177.65V177.75H40.05V177.85H39.95V177.95H39.85V178.05H39.75V178.15L39.65 178.25L39.55 178.35V178.45H39.45V178.55H39.35V178.65H39.25V178.75H39.15H39.05V178.85H38.95V178.95H38.85H38.75V179.05H38.65H38.55V179.15H38.45H38.35H38.25H38.15H38.05H37.95H37.85H37.75H37.65V179.05V178.95V178.85H37.75V178.95V179.05H37.85V179.15H37.95H38.05V179.05H38.15H38.25L38.35 178.95H38.45V178.85H38.55V178.75H38.65V178.65H38.75H38.85V178.55V178.45H38.95V178.35L39.05 178.25V178.15H39.15V178.05H39.25V178.15H39.15V178.25L39.05 178.35H39.15V178.45H39.25V178.35H39.35V178.25H39.45V178.15V178.05H39.55V177.95H39.65V178.05L39.75 177.95V177.85H39.85V177.75H39.75V177.85H39.65V177.75V177.65H39.75V177.55V177.45V177.35V177.25V177.15V177.05H39.65V176.95V176.85V176.75L39.55 176.65V176.55V176.45V176.35H39.65V176.25H39.55V176.15V176.05V175.95H39.45V175.85H39.35V175.75L39.25 175.65V175.55H39.15V175.45H39.05L38.95 175.35V175.25H38.85V175.15H38.75V175.05L38.65 174.95L38.55 174.85L38.45 174.75L38.35 174.65H38.25V174.55H38.15V174.45H38.05V174.35H37.95V174.25H37.85L37.75 174.15H37.65V174.05H37.55L37.45 173.95H37.35L37.25 173.85L37.15 173.75H37.05L36.95 173.65H36.85V173.55H36.75L36.65 173.45H36.55H36.45V173.35H36.35H36.25L36.15 173.25H36.05L35.95 173.15H35.85H35.75L35.65 173.05H35.55H35.45H35.35H35.25H35.15H35.05L34.95 173.15H34.85V173.25H34.75V173.35H34.65V173.45H34.55V173.55H34.45V173.65H34.35V173.75V173.85H34.25V173.95H34.15V174.05H34.05V174.15H33.95V174.25H33.85H33.75H33.65H33.55H33.45H33.35H33.25H33.15H33.05V174.35H32.95H32.85V174.45H32.75V174.55H32.65V174.65V174.75H32.55V174.85H32.45V174.95H32.35V175.05H32.25V175.15H32.15L32.05 175.25V175.35H31.95V175.45H31.85V175.55H31.75V175.65H31.65L31.55 175.75H31.45V175.85H31.35H31.25H31.15H31.05V175.95H30.95H30.85H30.75H30.65H30.55H30.45L30.35 176.05H30.25H30.15H30.05L29.85 176.15L29.65 176.25H29.55H29.45L29.35 176.35H29.25V176.45H29.15L29.05 176.55H28.95V176.65H28.85V176.75H28.75V176.85H28.65H28.55V176.95H28.45H28.35V177.05H28.25V177.15H28.15H28.05V177.25H27.95H27.85V177.35H27.75H27.65V177.45H27.55V177.55H27.45H27.35H27.25V177.65H27.15H27.05V177.75H26.95H26.85V177.85H26.75H26.65L26.55 177.95H26.45ZM111.05 118.55L110.95 118.75H110.85V118.65V118.55H110.95H111.05Z" fill="#220F0F"/>
<path d="M22.75 160.15H22.85V160.25H22.95V160.15H23.05V160.05V159.95H23.15V159.85H23.25H23.35V159.95H23.45V160.05V160.15V160.25H23.35V160.35H23.45V160.45V160.55H23.35V160.65V160.75V160.85V160.95H23.45V161.05H23.55H23.65L23.75 160.95H23.85V161.05V161.15V161.25V161.35V161.45H23.75V161.55V161.65H23.65V161.75H23.55H23.45V161.85V161.95V162.05H23.55V162.15H23.65H23.75V162.05H23.85V162.15H23.95V162.25H23.85V162.35H23.75V162.45V162.55V162.65H23.85H23.95V162.75V162.85H23.85V162.95V163.05H23.75V163.15H23.65H23.55H23.45V163.25H23.35H23.25H23.15H23.05V163.35H22.95V163.45H22.85H22.75H22.65V163.55H22.75L22.85 163.65H22.95V163.75H23.05L23.25 163.85L23.35 163.95H23.45H23.55L23.75 164.05L23.85 164.15L24.15 164.25L24.45 164.45L25.15 164.75L25.65 164.95L26.05 165.15L26.65 165.45L26.85 165.65L27.05 165.75L27.45 165.85L27.55 165.75V165.65L27.65 165.55L27.75 165.45L28.25 165.05L28.55 165.25L28.95 165.75L29.25 166.05L29.55 166.45L29.65 166.55L29.35 166.85L29.05 167.25L28.45 167.95L28.25 168.25L27.95 168.75L27.85 168.85L28.05 169.05L28.55 169.35L28.65 169.45L28.85 169.55L29.15 169.85L29.65 170.15L30.15 170.55H30.25L30.35 170.65L30.45 170.75L30.35 170.85L30.15 171.05L29.95 171.15L29.65 171.45L29.45 171.55L29.05 171.85L28.45 172.35L28.05 171.75H27.95L27.45 172.15L27.15 172.45L26.55 172.95L26.35 173.15L25.85 173.55H25.75L25.65 173.65L25.25 173.95L25.05 174.25H24.95L24.55 174.65L24.45 174.75L24.85 175.25V175.35H24.95L25.05 175.55L25.15 175.65L25.25 175.85V175.95L25.35 176.05L25.55 176.35L25.85 176.85L26.05 177.25L26.45 177.85V177.95H26.55L26.65 177.85H26.75H26.85V177.75H26.95H27.05V177.65H27.15H27.25V177.55H27.35H27.45H27.55V177.45H27.65V177.35H27.75H27.85V177.25H27.95H28.05V177.15H28.15H28.25V177.05H28.35V176.95H28.45H28.55V176.85H28.65H28.75V176.75H28.85V176.65H28.95V176.55H29.05L29.15 176.45H29.25V176.35H29.35L29.45 176.25H29.55H29.65L29.85 176.15L30.05 176.05H30.15H30.25H30.35L30.45 175.95H30.55H30.65H30.75H30.85H30.95H31.05V175.85H31.15H31.25H31.35H31.45V175.75H31.55L31.65 175.65H31.75V175.55H31.85V175.45H31.95V175.35H32.05V175.25L32.15 175.15H32.25V175.05H32.35V174.95H32.45V174.85H32.55V174.75H32.65V174.65V174.55H32.75V174.45H32.85V174.35H32.95H33.05V174.25H33.15H33.25H33.35H33.45H33.55H33.65H33.75H33.85H33.95V174.15H34.05V174.05H34.15V173.95H34.25V173.85H34.35V173.75V173.65H34.45V173.55H34.55V173.45H34.65V173.35H34.75V173.25H34.85V173.15H34.95L35.05 173.05H35.15H35.25H35.35H35.45H35.55H35.65L35.75 173.15H35.85H35.95L36.05 173.25H36.15L36.25 173.35H36.35H36.45V173.45H36.55H36.65L36.75 173.55H36.85V173.65H36.95L37.05 173.75H37.15L37.25 173.85L37.35 173.95H37.45L37.55 174.05H37.65V174.15H37.75L37.85 174.25H37.95V174.35H38.05V174.45H38.15V174.55H38.25V174.65H38.35L38.45 174.75L38.55 174.85L38.65 174.95L38.75 175.05V175.15H38.85V175.25H38.95V175.35L39.05 175.45H39.15V175.55H39.25V175.65L39.35 175.75V175.85H39.45V175.95H39.55V176.05V176.15V176.25M22.75 160.15V160.05M22.75 160.15H22.65H22.55H22.45L22.35 160.05H22.25V159.95L22.35 159.85V159.75H22.25V159.65H22.15V159.55L22.05 159.45H21.95H21.85V159.35V159.25H21.95V159.15V159.05M21.95 159.05H22.05M21.95 159.05V158.95H21.85V158.85H21.75V158.75H21.65H21.55V158.65H21.45V158.55V158.45V158.35H21.35H21.25H21.15H21.05V158.25V158.15V158.05V157.95H20.95H20.85V157.85V157.75V157.65H20.75V157.55H20.65H20.55H20.45V157.65L20.35 157.75H20.25V157.65L20.15 157.55V157.45V157.35V157.25V157.15H20.05H19.95V157.25H19.85V157.35H19.75V157.45H19.65H19.55V157.55H19.45V157.45V157.35V157.25V157.15V157.05H19.55V156.95V156.85M19.55 156.85H19.45M19.55 156.85L19.45 156.75V156.85M19.45 156.85H19.35V156.75V156.65H19.25V156.75H19.15V156.85H19.05V156.95V157.05V157.15H18.95H18.85V157.25H18.75H18.65V157.15H18.55V157.05H18.65V156.95H18.55V156.85H18.45H18.35V156.75H18.45L18.35 156.65V156.55H18.25H18.15L18.05 156.65H17.95V156.75H17.85H17.75H17.65V156.65H17.55V156.55H17.65V156.45V156.35H17.55V156.25H17.45V156.35V156.45H17.35H17.25V156.35H17.15V156.25V156.15V156.05H17.05V155.95H16.95L16.85 155.85V155.75H16.75H16.65H16.55V155.65H16.45V155.55V155.45H16.35L16.25 155.35V155.25V155.15H16.15V155.05H16.05V154.95V154.85H16.15V154.75H16.05L15.95 154.65H16.25H16.45H16.65H16.75H17.25H17.45V154.55H17.55H17.65H17.75L17.45 154.35L17.35 154.15H17.45H18.35H18.65L19.85 154.05V154.55H20.05L21.25 154.45H21.45V154.35L21.35 154.05V153.75L21.25 153.45V153.25L21.15 152.85V152.65L21.05 152.45H20.85H20.75V152.35V152.25L20.55 151.55L20.45 150.55L20.35 150.35V150.25V150.05V149.65L20.25 149.25L20.15 148.85V148.15V148.05L20.05 147.85V147.65L19.95 147.35L19.75 146.65V146.55L19.55 145.75H19.65L19.75 145.65H20.55L20.65 146.35H20.75H20.95L21.35 146.25H21.75H22.45L23.05 146.15H23.15H23.25H23.75L24.65 146.05V146.15H24.75V146.25V146.35H24.85V146.45H24.95M24.95 146.45V146.55M24.95 146.45H25.05V146.55V146.65V146.75H25.15V146.85V146.95V147.05H25.05V147.15H25.15L26.05 146.75L26.55 146.45L27.45 146.05V145.85H27.35L27.45 145.65L27.35 145.55V145.45H27.65L28.15 145.25L27.95 144.95L28.65 144.55L28.85 144.45L29.45 144.15L29.35 143.55L29.15 142.95L28.95 142.25L28.65 141.55H28.75L29.55 141.35L29.85 141.25H29.95L30.25 141.15H30.35H30.45V141.25L30.55 141.35H30.65L30.75 141.65V141.75L30.85 141.85V141.95L31.05 142.35V142.45L31.25 143.35L31.45 144.05L31.95 143.85L32.65 143.45L33.55 142.95L33.45 142.75L33.35 142.35L33.15 141.75L33.55 140.75L33.65 140.45L33.85 139.95L33.95 139.55L34.25 138.95L34.35 138.75L34.45 138.45L34.75 137.75V137.65L34.85 137.35L35.05 136.95H35.25L35.35 136.65L35.45 136.55V136.35L35.65 136.05V135.65L35.55 135.55L35.45 135.45H35.35V135.35L35.45 135.25L35.65 134.65V134.55H34.35H33.95V134.75H33.85L33.75 134.55H33.65H33.55H32.95H32.85L32.95 134.35V134.25L33.25 133.85L33.05 133.75L32.85 133.65L32.35 133.45L32.05 134.05V134.15L31.45 135.25L31.35 135.35V135.45L31.25 135.65L31.15 135.55L30.95 135.45L30.65 135.15L29.85 134.65V134.55H29.75L29.35 134.15L28.15 133.05L27.55 132.55L27.25 132.85L27.15 132.75H27.05V132.65L26.85 132.35L26.15 131.15L25.95 130.85L25.55 130.05L25.35 129.75L25.25 129.55L25.05 129.35L24.85 128.95V128.85L24.65 128.65L24.55 128.55L24.45 128.35H24.35L24.15 128.55L23.45 129.35H23.35L22.85 128.45H22.75V128.35L22.35 127.75L21.65 128.25L20.55 126.55L19.55 127.45L19.05 127.95H18.95L18.45 128.45L18.05 128.85H17.95L17.65 128.35L17.35 127.65L17.15 127.35L16.85 126.85L16.65 126.45L16.45 126.05L16.25 125.75L16.05 125.45L15.95 125.15L15.65 124.65L15.45 124.25L15.35 124.15L15.15 123.65L14.85 123.15L14.75 122.95L14.65 123.05H14.55L14.35 123.15L14.15 123.25L13.85 123.45L13.45 123.65L12.95 123.95L12.55 124.15L11.95 124.45L11.65 124.65H11.55L11.45 124.75H11.35V124.65V124.55V124.45V124.35V124.25H11.45H11.05H10.65L10.55 123.85L10.45 123.15H10.65H10.85L11.45 123.05V122.95V122.85V122.75V122.55V122.45V122.35L11.55 122.25H11.45H11.15L10.15 122.35L9.45001 122.45L9.35004 122.05V121.85L9.25 121.45V121.35L9.15002 120.65L9.05005 120.35L9.95001 120.25L10.95 120.15V119.95H10.85V119.75H11.05H11.15H11.25H11.45L11.65 119.65V119.75L11.85 119.85V119.95H11.95H12.05V119.85V119.75V119.65M12.05 119.65H11.95V119.55H12.05V119.65ZM12.05 119.65L12.15 119.75H12.25V119.65H12.15V119.55H12.25M12.25 119.55V119.45M12.25 119.55H12.35V119.45V119.35H12.45V119.25L12.35 119.15H12.25V119.05L12.35 118.95V118.85V118.75H12.45H12.55V118.85H12.65V118.75H12.75H12.85V118.65H12.75V118.55V118.45H12.55H12.35L12.15 118.55H11.75L11.25 118.65L10.45 118.75H10.05H9.85004L9.45001 118.85L8.85004 118.95V118.65L8.75 118.25V118.05L8.65002 117.85V117.75V117.35L8.55005 116.85L8.45001 116.25L8.35004 115.75L8.15002 114.85L7.85004 114.95H7.45001L7.35004 114.45L7.25 113.95V113.65V113.55L7.15002 113.25V113.05V112.95V112.85V112.65L7.05005 111.85L6.95001 111.75V111.45V111.15L6.75 110.45V110.25L6.35004 110.35L5.95001 110.45L4.95001 110.65H4.85004H4.75L4.35004 110.75L3.35004 110.85L3.15002 110.95H2.95001H2.85004H2.75L2.55005 110.85V110.55V110.05V109.55V108.85V108.65V108.55H2.85004H3.05005V108.45H3.15002V108.25L3.25 107.85L3.45001 107.25L3.55005 106.75L3.45001 106.45L3.35004 106.05V105.95L3.05005 106.05H2.95001V106.15H2.85004H2.75L2.35004 106.25V105.95L2.25 105.15L2.15002 105.05L2.05005 104.45L1.95001 103.75L0.550049 103.95L0.450012 103.35V103.25V103.15V102.95L0.350037 102.55L0.25 102.15V101.95V101.85L0.450012 101.75L1.25 101.65H1.35004H1.55005H1.65002L1.85004 101.55H1.95001H2.05005H2.15002H2.25H2.35004L2.45001 101.45H2.75L2.65002 100.85V100.65H2.75H2.85004H3.05005L3.45001 100.75L3.65002 100.85L4.05005 100.95L4.45001 100.85L5.05005 100.75H5.15002L5.05005 99.85L4.95001 99.45V99.25L4.85004 98.95L4.75 98.65V98.35L4.65002 97.65H4.55005H4.25L4.15002 97.75H3.65002L3.05005 97.95H2.75L2.45001 98.05L2.35004 97.45L2.25 96.85L2.15002 96.35L2.05005 95.55L1.95001 95.15V95.05V94.85H2.05005V94.75H2.15002H2.25H2.35004H2.45001V94.65V94.55H2.35004V94.45L2.25 94.35V94.25H2.15002V94.15L2.05005 94.05L1.95001 93.95H1.85004H1.75V94.05L1.65002 93.95H1.55005V93.85V93.75H1.65002L1.75 93.65H1.85004H1.95001V93.55H2.05005H2.15002H2.25V93.45H2.35004H2.45001V93.35H2.55005V93.25H2.65002V93.15V93.05H2.55005V92.95V92.85V92.75V92.65H2.45001V92.55V92.45L2.35004 92.35V92.25H2.25V92.15L2.15002 92.05V91.95H2.05005V91.85H1.95001L1.85004 91.75V91.65V91.55H1.95001V91.45H2.05005V91.35V91.25L2.15002 91.15L2.25 91.05L2.35004 90.95V90.85H2.45001L2.55005 90.75H2.45001V90.65V90.55L2.35004 90.45V90.35H2.25V90.25H2.15002V90.15H2.05005V90.05V89.95H2.15002H2.25H2.35004H2.45001V89.85V89.75V89.65V89.55V89.45H2.35004V89.35V89.25L2.45001 89.15V89.05V88.95H2.35004H2.25L2.15002 88.85V88.75L2.25 88.65V88.75H2.35004V88.85H2.45001L2.55005 88.75V88.65H2.45001V88.55V88.45H2.55005L2.65002 88.55H2.75H2.85004L2.95001 88.45H3.05005V88.35H3.15002H3.25H3.35004V88.25V88.15H3.25L3.15002 88.05V87.95H3.25V87.85H3.35004V87.95H3.45001H3.55005H3.65002V88.05V88.15H3.75H3.85004V88.25H3.95001H4.05005V88.35H4.15002V88.45H4.25V88.55H4.35004V88.45L4.45001 88.35V88.25H4.55005M4.55005 88.25V88.35H4.65002V88.45H4.75V88.35L4.85004 88.25H4.75V88.15L4.65002 88.25H4.55005ZM4.55005 88.25V88.15V88.05H4.65002H4.75H4.85004V88.15H4.95001V88.05H5.05005V87.95H5.15002V88.05H5.25V88.15H5.35004L5.45001 88.05V87.95H5.55005V88.05H5.65002M5.65002 88.05V88.15M5.65002 88.05H5.75V87.95H5.65002V87.85H5.75L5.65002 87.75H5.55005V87.65H5.45001H5.35004V87.75H5.25V87.85H5.15002V87.75H5.05005V87.65H4.95001V87.55H5.05005H5.15002H5.25H5.35004V87.45H5.45001V87.55H5.55005H5.65002V87.45V87.35V87.25H5.75V87.15H5.85004V87.25H5.95001H6.05005V87.35V87.45H5.95001V87.55V87.65H6.05005V87.75H6.15002V87.85H6.25V87.95V88.05L6.35004 88.15H6.45001V88.05L6.55005 87.95V87.85H6.65002H6.75L6.85004 87.95V87.85H6.95001V87.95H7.05005V88.05H7.15002L7.25 88.15V88.25H7.35004H7.45001H7.55005H7.65002H7.75H7.85004H7.95001H8.05005V88.35H8.15002V88.45L8.25 88.55H8.35004H8.45001H8.55005V88.65H8.65002V88.75H8.75H8.85004V88.65V88.55H8.95001V88.45V88.35H9.05005H9.15002V88.45H9.25V88.55V88.65H9.35004V88.75H9.45001V88.85V88.95V89.05V89.15V89.25H9.55005V89.35V89.45H9.65002V89.55H9.75H9.85004H9.95001H10.05H10.15H10.25V89.65H10.15V89.75V89.85H10.25V89.75H10.35V89.85H10.45M10.45 89.85V89.95M10.45 89.85H10.55V89.95V90.05H10.65V90.15H10.55H10.45V90.25H10.35M10.35 90.25V90.15M10.35 90.25V90.35V90.45V90.55L10.25 90.65V90.75H10.35H10.45V90.85H10.35V90.95H10.45H10.55H10.65V91.05H10.75H10.85H10.95V90.95H11.05V90.85H11.15H11.25V90.75V90.65V90.55H11.35H11.45V90.65H11.55V90.75L11.65 90.85H11.75V90.95H11.85V91.05V91.15H11.95H12.05V91.05H12.15H12.25V91.15H12.35M12.35 91.15V91.25M12.35 91.15H12.45V91.05V90.95M12.45 90.95H12.55M12.45 90.95V90.85H12.55H12.65V90.95H12.75V91.05H12.85M12.85 91.05V91.15M12.85 91.05H12.95H13.05V90.95H13.15V90.85H13.25V90.75H13.35H13.45V90.85V90.95V91.05V91.15H13.55V91.25H13.65V91.35V91.45H13.75V91.55L13.85 91.65H13.95H14.05H14.15V91.75H14.25L14.35 91.85H14.45V91.95H14.55V92.05H14.65H14.75H14.85H14.95H15.05H15.15V91.95L15.25 91.85H15.35H15.45L15.55 91.95V92.05H15.65V92.15H15.85L15.95 92.25H16.05V92.15V92.05V91.95V91.85V91.65L16.15 91.35V90.85H16.35H16.65H17.05L17.15 90.45V90.05H17.35V89.95L17.45 89.75L17.65 89.45L18.05 88.85L17.95 88.25V87.65L17.85 87.25V87.05L17.75 86.65V86.55V86.45V86.35L17.65 86.25V85.85L17.55 85.35V85.15L17.45 84.85V84.55V84.45V84.35V84.25L17.35 84.15V84.05V83.95V83.85V83.75V83.55L17.25 83.25L17.15 82.85L17.05 82.05V81.65L16.95 81.35V80.85H17.05L17.15 80.95H17.25V81.05L17.35 80.95H17.45H17.55V81.05H17.45V81.15V81.25H17.55V81.35H17.65H17.75V81.25H17.85H17.95V81.15V81.05L17.85 80.95H17.95V80.85H18.05V80.75H17.95H17.85V80.65V80.55H17.95V80.45V80.35V80.25H18.05V80.35V80.45V80.55H18.15H18.25V80.45V80.35L18.35 80.25V80.35V80.45V80.55H18.45H18.55V80.45V80.35H18.45V80.25V80.15H18.55H18.65V80.25H18.75V80.15H18.85H18.95V80.05H19.05H19.15H19.25H19.35H19.45H19.55H19.65V79.95H19.75H19.85H19.95L20.05 80.05H20.15L20.05 79.75L19.85 77.95V77.85L19.75 77.25L19.65 76.85V76.65V76.55L19.55 76.15V75.65L19.45 75.45V75.35V74.95L19.35 74.45L19.25 73.95L19.15 72.85L19.05 72.15L18.85 71.35L18.45 71.45L17.05 71.65H16.95L16.85 70.75H16.65V70.85H16.25L15.55 70.95L14.55 71.05H14.45L14.05 71.15V71.05V70.95L13.95 70.35L13.85 69.75V69.65L13.75 68.85L13.65 68.45L13.95 68.35H14.05L13.95 68.05V67.95V67.75V67.45L13.85 67.25V67.15V67.05V66.85H13.95V66.95H14.05V67.05H14.15H14.25H14.35L14.45 66.95V66.85H14.55V66.75H14.65V66.65V66.55L14.55 66.25L14.45 65.65V65.35V65.25L14.35 64.95V64.65V64.45V64.35L14.25 63.95H14.55H14.65H14.75L14.85 63.85H14.95V63.75V63.65H14.85H14.75V63.55H14.65H14.55L14.45 63.45V63.35H14.55L14.65 63.25H14.75V63.15H14.85V63.25H14.95V63.15H15.05V63.05V62.95H15.15H15.25H15.35M15.35 62.95V62.85M15.35 62.95H15.45V63.05H15.55V63.15H15.65V63.25H15.75H15.85V63.15V63.05H15.75V62.95V62.85V62.75V62.65H15.85L15.75 62.55L15.65 62.35V62.25V61.95L15.55 61.55V61.15H15.25H15.05V60.65L14.95 60.05V59.45L14.85 59.05V58.95V58.75L14.75 58.05L15.15 57.95H15.65L16.05 57.85V57.35L15.95 57.15L15.85 56.05V55.75L15.75 55.55L17.15 55.35H17.35V55.25L18.15 55.15H18.45H18.55V55.05V54.95V54.75V54.65L18.45 54.55V54.45V54.05L18.35 53.55H18.25L17.55 53.65V53.55L17.45 52.95H17.35L16.85 53.05L16.25 51.65H16.15H16.05H15.95H15.75H15.65L15.35 51.75H14.95H14.45V51.55H14.05L13.75 51.65L13.55 50.15V49.95V49.55H13.25H13.05H12.95H12.75H12.25L12.15 49.25H11.75L10.45 49.55V49.45L10.35 48.95L10.15 47.45V47.25V46.95L10.05 46.75V46.65V46.55V46.45V46.35L9.95001 46.05V45.95V45.85V45.75H9.85004V45.65H9.75H9.65002V45.55M9.65002 45.55H9.55005M9.65002 45.55V45.45V45.35V45.25H9.55005M9.55005 45.25V45.15M9.55005 45.25H9.45001V45.15H9.35004V45.05V44.95H9.45001H9.55005H9.65002H9.75V44.85V44.75H9.65002V44.65H9.55005H9.45001V44.55V44.45H9.35004H9.25V44.35L9.35004 44.25M9.35004 44.25H9.45001M9.35004 44.25V44.15H9.45001H9.55005V44.05H9.45001V43.95L9.35004 43.85V43.75V43.65H9.25H9.15002H9.05005V43.55V43.45H9.15002V43.35H9.05005V43.25H8.95001V43.15V43.05H9.05005H9.15002L9.05005 42.95V42.85H9.15002V42.95H9.25V42.85V42.75H9.15002V42.65V42.55V42.45L9.05005 42.35M9.05005 42.35V42.25M9.05005 42.35H8.95001H8.85004V42.25H8.75V42.15H8.85004H8.95001H9.05005V42.05H9.15002V42.15L9.25 42.05H9.35004H9.45001H9.55005H9.65002V41.95H9.75V41.85V41.75L9.85004 41.65L9.95001 41.45V41.25V41.15H9.85004V41.05V40.95H9.75V40.85L9.65002 40.75L9.55005 40.65V40.55L9.45001 40.45L9.25 39.75L9.05005 39.05L8.85004 38.35V38.25H8.95001H9.05005V38.15V37.95L8.95001 37.85L8.85004 37.75V37.65V37.55H8.75L8.85004 37.45V37.35L8.75 36.95L8.65002 36.55V36.45V36.35H8.55005H8.45001H8.35004H8.25H8.15002H8.05005V36.25H7.95001H7.85004V36.35H7.75V36.25L7.65002 35.95V35.75L7.85004 35.65L7.95001 35.45L8.05005 35.35H8.15002L8.25 35.25H8.35004V35.15L8.45001 35.05V34.95L8.55005 34.75L8.65002 34.65L8.75 34.45L8.95001 34.15L9.05005 33.85L9.25 33.55H9.35004H9.45001H9.65002L9.75 33.65H9.85004H9.95001H10.05L10.15 33.75H10.25L10.45 33.85H10.55L10.85 34.05H11.05L11.25 34.15H11.35H11.45H11.55H11.65H11.75H11.85L12.15 34.05L12.25 33.95H12.45L12.55 33.85H12.65H12.75L12.55 34.45L12.45 34.75L12.85 35.05L12.75 35.15L12.65 35.45H12.75L12.95 35.55H13.15H13.25H13.55L13.75 35.65H13.85H14.05L14.15 35.95H14.25L14.35 36.15H14.55L15.05 36.05H15.25V35.95V35.85V35.75L15.35 35.65L15.45 35.35L15.55 34.95L15.75 34.45L15.95 33.95H16.75L17.15 34.05H17.35H18.05L19.15 34.15H19.35V34.25V34.35H19.45V34.45H19.65L19.95 34.55H20.45H20.55L20.65 34.25H20.75L20.85 34.35L21.55 34.45H21.65H21.75V34.55H21.85V34.65H21.95H22.05V34.75V34.85H22.15V34.95H22.25V35.05H22.35V35.15H22.45V35.25V35.35H22.55V35.45V35.55H22.65V35.65V35.75H22.75V35.85V35.95H22.85H22.95V36.05H23.05V36.15H23.15V36.25H23.25V36.35H23.35V36.45V36.55H23.45M23.45 36.55V36.65M23.45 36.55L23.55 36.65H23.65H23.75H23.85V36.75L23.95 36.85L24.05 36.95H24.15V37.05H24.25V37.15V37.25H24.35V37.35H24.45V37.45V37.55H24.55H24.65V37.65H24.75L24.85 37.75V37.85H24.95L25.15 37.65H25.25L25.35 37.35L25.45 36.85V36.55H25.55L25.05 36.45H24.55H24.45L24.55 36.15V35.95V35.85H24.45L24.25 35.75L24.05 35.65L23.95 35.55L23.65 35.35L23.35 35.15L23.05 34.95L23.35 34.55V34.45L23.55 34.15L23.65 33.95V33.75H23.95H24.05L24.15 33.85H24.25L24.35 33.45V33.15L24.55 32.55L24.75 32.65H24.85L24.95 32.75H25.05H25.15H25.25H25.35L25.45 32.85H25.55H25.75H26.35H26.65L26.75 32.65H27.15H27.25L27.65 31.65L28.35 30.05L28.85 30.25L28.95 30.35L29.35 30.45L29.85 30.65H29.95H30.05H30.15H30.25H30.35L30.75 30.75L30.65 30.95L30.55 31.05L30.45 31.35V31.45H30.95L31.05 31.65V31.75L31.15 31.85V31.95L31.25 32.05L31.35 32.15H31.45H31.55L31.65 32.25H31.75L31.95 32.35L32.05 32.45L32.25 32.55L33.05 32.85V32.55L33.15 30.25V30.15V29.95L33.05 29.55L32.95 29.15V28.85V28.75V28.55H32.85V28.45L32.95 28.35V28.25V28.15V28.05H33.05V27.95V27.75V27.65H33.15H33.25V27.75H33.35V27.65H33.45V27.55V27.45H33.55H33.65H33.75V27.35H33.85V27.25H33.95V27.15H34.05V27.05H34.15V26.95V26.85L34.25 26.75V26.65L34.35 26.55L34.45 26.45V26.35H34.55V26.25V26.15V26.05H34.65V25.95L34.55 25.85H34.65V25.75V25.65H34.85H34.95L35.65 25.75V25.65L36.75 25.75L36.85 25.35V24.55H37.65H37.85H38.25H38.45V24.65V24.75V24.85H38.55V24.75H38.75L39.15 24.55H39.45L39.75 24.65H39.85L39.95 24.35V24.25L40.05 23.95V23.65H39.95H39.85V23.55V23.45L40.05 23.25V23.15L39.85 23.05V23.35H39.75V23.45H39.65V23.35H39.55H39.45H39.35L39.25 23.25H39.15V23.15V23.05H39.05H38.95V22.95H38.85V22.85V22.75V22.65V22.35H38.95H39.25L39.45 22.25V22.15V22.05L39.55 21.95H39.45H39.35H39.25H39.15H39.05V21.85H38.95V21.75V21.65H38.85H38.75V21.55H38.65V21.45V21.35H38.75V21.25H38.85H38.95H39.05L38.95 21.15L38.85 21.05L38.65 21.15H38.55H38.45H38.35H38.25V21.05L38.15 20.95V20.85H38.25V20.75H38.35H38.45V20.65H38.35V20.55V20.45H38.45L38.55 20.55V20.45V20.35H38.65V20.25L38.75 20.15L38.85 20.05V20.15H38.95H39.05H39.15V20.25V20.35H39.25V20.15V20.05V19.95H39.35H39.45H39.55H39.65M39.65 19.95H39.75M39.65 19.95V19.85V19.75H39.55H39.45H39.25H39.15M39.15 19.75V19.65M39.15 19.75H39.05V19.65L39.15 19.45H39.45H39.55L39.65 19.35L39.95 19.15V19.25L40.35 19.05V18.95H40.45V18.85V18.75L40.55 18.55L40.65 18.35H40.75L40.95 18.45L41.05 18.55H41.15L41.35 18.65L41.45 18.75V18.95V19.15L41.55 19.25H41.65H41.75V19.15H41.95V19.05H42.05H42.15V18.95V18.65L42.05 18.35V18.25V17.75V17.35L42.15 17.05L42.25 16.55L42.75 16.65L42.85 16.75L42.95 16.65V16.75H43.05V16.65V16.55V16.45L42.95 16.35H42.85V16.25L42.75 16.15V16.05V15.95V15.85V15.75H42.85V15.65H42.95L42.85 15.45L42.75 15.25V15.15L42.65 15.05V14.95L42.75 14.85H42.85L42.95 14.75H43.05H43.15H43.25L43.35 14.65H43.45H43.55H43.65H43.75H43.85L43.95 14.55L44.05 14.45L44.15 14.35V14.25L44.25 14.15V14.05L44.35 13.95V13.85H44.45L44.55 13.95H44.65H44.85H44.95V14.05H45.05H45.15V13.95H45.25L45.45 13.85V13.95L45.55 14.05L45.65 14.15H45.75L45.85 14.05L45.95 13.95V13.85H46.05V13.95V14.05V14.15V14.25V14.35H45.95L46.05 14.45V14.55H46.15V14.45H46.25V14.35H46.35V14.25H46.45M46.45 14.25V14.35M46.45 14.25H46.55V14.15H46.65V14.05L46.75 13.95V13.85H46.85V13.95V14.05V14.15V14.25V14.35L46.95 14.45L47.05 14.35V14.25L47.25 14.15L47.35 13.95V13.85V13.75H47.45H47.55M47.55 13.75V13.85M47.55 13.75H47.65H47.75H48.05H48.25H48.35V13.65V13.55L48.45 13.45V13.35H48.55L48.65 13.25H48.75L48.85 13.15V13.05V12.95V12.85V12.75H48.95V12.65V12.55H48.85V12.45V12.35L48.75 12.25V12.15L48.65 12.05L48.55 11.95L48.45 11.85L48.55 11.55H48.45L48.25 11.45V11.35H48.15V11.25L48.05 11.15L47.85 10.95L48.05 10.85L48.25 10.55L48.35 10.65H48.45L48.75 10.55L50.25 10.15L50.85 9.95002L52.25 9.25001L52.85 8.95002V8.85001L52.65 8.65H52.55L52.45 8.55003L52.35 8.35001L52.25 8.25001L52.15 8.15H52.05H51.95L51.75 8.35001H51.65L51.45 8.05003V7.95002H51.35V7.85001L51.25 7.75001H51.15L50.95 7.65L50.85 7.55003H50.75V7.45002H50.65L50.85 7.35001L51.05 7.25001H51.15H51.25L51.45 7.45002H51.55H51.65H51.75V7.35001V7.25001V7.15L51.65 7.05003V6.85001L51.55 6.75001V6.65V6.55003V6.45002H51.45V6.25001V6.15V6.05003H51.35V5.95002H51.25V5.85001H51.15L51.05 5.75001L50.85 5.65L50.55 5.45002L50.35 5.35001L50.15 5.25001L50.05 5.15L49.85 5.05003H49.75L49.55 4.95002L49.35 4.85001H49.25H49.15L49.05 4.75001H48.95H48.85H48.75H48.65L48.55 4.65H48.45V4.55003H48.55L48.65 4.15L48.75 4.05003V3.85001L48.85 3.75001L48.95 3.55003L49.05 3.45002L49.15 3.35001L50.25 2.65L50.65 2.35001L50.85 2.15L50.95 2.05003L51.15 1.75001L51.25 1.65V1.55003H51.35L51.65 1.05003L51.75 0.95002L51.95 0.850014L52.05 0.750008H52.25H52.35H52.55L52.65 0.850014H52.75H53.15H53.25H53.45H53.55H53.65L53.85 0.750008H53.95L54.15 0.650002H54.25H54.35H54.45L54.65 0.750008L55.35 0.850014L56.05 0.95002L56.75 1.15L57.35 1.25001L58.15 1.45002L58.85 1.55003L59.05 1.65H59.25H59.35L59.75 1.85001L60.95 2.25001L61.85 2.45002L62.55 2.75001L63.05 2.85001L63.55 3.05003V2.95002V2.75001V2.65H63.65H63.75H63.85H63.95H64.05H64.15V2.75001H64.25V2.65H64.35H64.45L64.75 2.75001H64.95V2.95002L65.45 3.05003H65.55H65.85L65.95 2.85001H66.05V2.75001L66.15 1.85001L66.25 1.55003L66.35 1.45002L66.45 1.15L66.55 0.95002L66.75 0.750008V0.650002L66.85 0.550026V0.45002L66.95 0.350014H67.05H67.15H67.25L67.35 0.250008V0.350014L67.45 0.550026V0.650002L67.55 0.750008V0.95002L67.65 1.15L67.55 1.25001L67.65 1.55003L68.25 1.75001V2.25001L68.85 2.15H69.05H69.15L69.55 2.95002L69.95 2.75001L70.35 3.65L70.45 3.75001V3.85001L69.65 4.15L69.35 4.25001V4.35001L69.05 4.45002V4.65H68.95V4.75001L68.55 4.95002L68.35 5.15L68.75 5.65L68.85 5.75001V5.85001L68.35 6.25001L68.75 6.65L68.85 6.75001L69.15 6.95002L69.35 7.05003L69.65 7.25001L69.85 7.45002H69.95L70.85 7.85001L70.95 7.95002H71.05L71.15 7.85001L71.55 7.65L71.65 7.75001V7.85001V7.95002H71.75V8.05003V8.15H71.65H72.05L72.55 8.25001L72.65 8.35001L72.75 8.45002V8.55003L74.75 8.75001H75.15L75.65 8.85001H75.75V8.75001V8.65V8.55003L75.85 7.95002V7.65V7.55003L75.95 7.25001V7.15V7.05003H76.05H76.15H76.25H76.35H76.45V7.15H76.55H76.65L76.75 7.25001H76.85L77.05 7.35001H77.15H77.25L77.85 7.25001L77.95 7.65V8.15L77.75 9.25001L77.65 9.75001L77.55 9.95002V10.05L77.45 10.15V10.45L77.35 10.65L77.25 11.05L77.15 11.15V11.25V11.35V11.65L77.05 12.15V12.55L76.95 13.05V13.15V13.65L76.85 13.75L76.75 13.85L76.65 13.95L76.45 14.05V14.15L76.55 14.25L77.05 15.05L77.25 15.35L77.45 15.55L77.55 15.75L77.65 16.15L77.85 16.75L78.05 17.15L78.15 17.45L78.55 18.25V18.45L78.65 18.55V18.65H78.75V18.95V19.05V19.15L78.55 19.25H78.45H78.25H78.15H78.05H77.85L77.55 19.35H77.25L77.15 19.45H77.05L76.65 19.55L76.45 19.75H76.35V19.85V19.95V20.15V20.25L76.55 20.35L76.65 20.45L76.45 20.75V21.25H76.35L75.25 20.55V20.65L74.75 21.45L74.65 21.65L74.35 22.15L74.25 22.25V22.35L74.05 22.55L73.95 22.75L74.05 22.85H74.25L74.45 22.95H74.65H74.75H74.85H75.25H75.55H75.75V23.05L75.85 23.25V23.35L75.95 23.45V23.55L76.05 23.65H76.15L76.75 23.75L76.85 23.65H76.95L77.05 23.55H77.15H77.35H77.55L77.75 23.65H77.95H78.05L78.35 23.75L78.55 23.85L78.65 23.95H78.75L79.05 24.05L79.55 24.25L79.65 24.15L79.75 24.25H79.85H79.95H80.05H80.15H80.25L80.35 24.35V24.45H80.45H80.55L80.65 24.35L80.75 24.25V24.15V24.05L80.85 23.95V23.85L80.95 23.75H81.05H81.15L81.25 23.85H81.35L81.45 23.95H81.55H81.65H81.75H81.85H81.95H82.05L82.15 23.85H82.25L82.35 23.95H82.45H82.55H82.65L82.75 24.05H82.85H82.95H83.05L83.25 24.15H83.35H83.45H83.55H83.65H83.75H83.85L83.95 24.05L84.55 23.85L84.85 23.75L85.05 23.65V23.85L85.25 24.55V24.85V24.95V25.15V25.35V25.45L85.35 27.05V27.95V28.35V28.45V28.65L85.25 28.75V28.85H85.35V28.95V29.05V29.15V29.25V29.35V29.45L85.25 29.55V29.65H85.15V29.75H85.25V29.85M85.25 29.85H85.15M85.25 29.85V29.95H85.15V30.05V30.15V30.25V30.35H85.05V30.45V30.55V30.65L84.95 30.75V30.85V30.95L85.55 30.85H85.65H85.85H85.95L86.05 30.75H86.75L86.85 30.65L86.95 30.75L87.35 31.25V31.35L87.45 31.45V31.75L87.55 32.05L87.95 31.95H88.05H88.15H88.35H88.65L88.75 31.85H89.15L89.55 31.75L89.65 32.35L89.75 32.55V32.65V32.85L88.35 33.05L88.15 33.35V33.45V33.55L88.05 33.65V33.75H87.95H87.85L87.75 33.85V34.05L87.85 34.15V34.25V34.35V34.75L87.95 34.95V35.45L88.05 35.65V35.75V36.05H87.65L87.45 36.65L87.35 36.95L87.05 37.75H87.15L87.25 37.85L87.75 38.35L87.95 38.55L88.05 38.65V38.75H88.15H88.25H88.35H88.65H88.75L88.95 38.85H89.05H89.25L89.75 38.95L89.95 39.05L90.05 39.35L90.15 39.95V40.55L89.45 40.65H89.05V40.75H89.15V40.85L89.25 40.95L89.35 41.05L89.55 41.25H89.65V41.45V41.65V41.95L89.45 42.25L89.35 42.35V42.45L89.55 42.65V42.85H89.45H89.35V42.95H89.25H89.15V42.85L88.75 42.95H88.45H88.35H88.15L88.05 43.05L88.15 43.85H88.05H87.85L87.55 43.95H87.15L86.75 44.05L86.85 44.35V44.75L86.65 44.85H86.25L85.85 44.95H85.75L85.85 45.25L85.45 45.15L85.55 46.15H85.75H86.15L86.65 46.05H87.05V46.55L87.15 47.05L87.25 47.75V47.95V48.15V48.45L87.35 48.95V49.15L87.45 49.45V49.65V49.85V50.05V50.35L87.55 50.65V50.75V50.85V51.15L87.65 51.75V51.85V52.15L87.75 52.55V52.65V52.85L87.85 53.25V53.35L87.55 53.45H87.65V53.55V53.65L87.75 53.85H87.85V53.95L87.95 54.05V54.15H88.05H88.15L88.35 54.35L88.45 54.45V54.55H88.55V54.65H88.65L88.75 54.75V54.85L88.95 55.15L89.15 55.35L89.45 55.65L89.65 55.85L89.75 56.05L89.85 56.15V56.25H89.75H89.65L89.55 56.35V56.45H89.45V56.55H89.55V56.65H89.45L89.55 56.95L89.15 57.25H89.05L88.95 57.15H88.85H88.75V57.25V57.35V57.55V57.65H88.95V57.75H89.05L89.15 58.05H88.95V58.15L89.05 58.25V58.55L89.15 58.75L89.05 58.85L88.95 58.65V58.55H88.85L88.75 58.45V58.65L88.55 58.55L88.45 58.65H88.35L88.45 58.75L88.65 58.85L89.05 59.15L89.85 59.55L89.75 59.65L89.65 59.95L89.55 60.05L89.45 60.25L90.75 61.45H90.85H90.95V61.55V61.65H91.05H91.15V61.55H91.25V61.45H91.35V61.35H91.45H91.55H91.65H91.75H91.85V61.25H91.95L92.05 61.15V61.25H92.15V61.15H92.25V61.25H92.35H92.45H92.55H92.65V61.35L92.85 61.85L92.95 62.15L93.05 62.25L93.25 62.15H93.45L93.55 62.05H93.65L94.05 61.85V61.55L93.95 61.45L94.25 61.35H94.45L94.75 61.25V61.15H94.85H94.95H95.05V61.05H95.15H95.25L95.35 60.95H95.45H95.55V60.85H95.65V60.95V61.05V61.15V61.25V61.45V61.55V61.65V61.75H95.55V61.85L95.65 61.95V62.05V62.15L95.75 62.25V62.35V62.45V62.55V62.65V62.75H95.85V62.85L95.95 62.95V63.05H95.85V63.15H95.95V63.25V63.35V63.45V63.55V63.65L95.85 63.75V63.85V63.95L95.75 64.05H95.85V64.15V64.25V64.35V64.45V64.55V64.65L95.75 64.75L95.85 64.85L95.95 65.05L96.05 65.35L96.15 65.45L96.25 65.85V66.05L96.35 66.15V66.25H96.45V66.15L96.55 65.95L96.75 66.05H97.05H97.15H97.25H97.35V66.15V66.25V66.35L97.45 66.45L97.55 66.55V66.65V66.75L97.65 66.95H97.75H97.85L97.95 67.05H98.05H98.15V67.15H98.25L98.35 67.35H98.25M98.25 67.35V67.45M98.25 67.35H98.15L98.05 67.45H97.95L97.45 67.55L97.55 67.65V67.75V67.85H97.45L97.35 67.95L97.15 68.05V68.15L97.05 68.25L97.15 68.35H97.25L97.05 68.55H96.35L96.05 68.75H95.95L95.75 68.95H95.65V69.05V69.15V69.25V69.35V69.55V69.65L95.75 69.85V70.05V70.15L95.85 70.35V70.55V70.75V70.85H95.75V70.95H95.65V71.05V71.15V71.25H95.55V71.35H95.45L95.35 71.45L95.25 71.55L95.35 71.65V71.75V71.85H95.45V71.95H95.55V72.05H95.65V72.15V72.25V72.35H95.55V72.45H95.45V72.55V72.65V72.75H95.35V72.85H95.25V72.95H95.15V73.05H95.25V73.15H95.35V73.25V73.35L95.25 73.45V73.55H95.35V73.65V73.75H95.45H95.55H95.65H95.85H95.95H96.05H96.35L96.55 73.85H96.95H97.25L97.55 73.95H97.65H97.85H98.05H98.15L98.25 74.05H98.35H98.45H98.55V74.15H98.65H98.75H98.85H98.95V74.05H99.05H99.15H99.25H99.35H99.65L99.95 74.15H100.05H100.15H100.25H100.35H100.85H100.95H101.05H101.15H101.25H101.35L101.45 74.05H101.65H101.75L101.85 73.95H101.95L102.05 74.05L102.15 74.15H102.25V74.25H102.35V74.35H102.45L102.55 74.45H102.65L102.75 74.55L102.85 74.65V74.75H102.95L103.05 74.85L103.15 74.95L103.25 75.15L103.35 75.25H103.45V75.35V75.45V75.55L103.55 75.65V75.75L103.45 75.85L103.55 75.95H103.45V76.05V76.15V76.25V76.35V76.45L103.35 76.55H103.45V76.65V76.75V76.85V76.95V77.05H103.55V77.15H103.45V77.25V77.35V77.45V77.55V77.65H103.55V77.75H103.65V77.85V77.95L103.75 78.05V78.15V78.25V78.35H103.85L103.95 78.45V78.55L104.05 78.65H104.15V78.75H104.25V78.85V78.95H104.35H104.45V79.05V79.15H104.55V79.25H104.65V79.35M104.65 79.35H104.75M104.65 79.35V79.45V79.55H104.55V79.65V79.75L104.45 79.85V79.95V80.05V80.15H104.55H104.65V80.25H104.55V80.35V80.45H104.45H104.35H104.25V80.55V80.65H104.15L104.05 80.75V80.85V80.95H103.95V81.05H103.85V81.15H103.95V81.25V81.35H104.05V81.45H104.15V81.55V81.65M104.15 81.65H104.05M104.15 81.65V81.75H104.25H104.35L104.45 81.85L104.55 81.95H104.65H104.75H104.85V82.05H104.95L105.05 82.15H105.15L105.35 82.25L105.65 82.45H105.75L105.85 82.55H105.95L106.05 82.45L106.15 82.35H106.35H106.55H106.75H107.15H107.45H107.55H107.65V82.45H107.55V82.55V82.65V82.75H107.65H107.75H107.85H107.95H108.05H108.25L108.35 82.65H108.45H108.55L108.65 82.75H108.75L108.55 83.75H108.75H108.85V83.85H108.95H109.05L109.15 83.95H109.35L109.45 84.05H109.65L109.95 84.15L110.05 84.25H110.15V84.35H110.25H110.35H110.45H110.55V84.45H110.65H110.75V84.55H110.85H110.95V84.65L111.05 84.55V84.65H111.15V84.55H111.25H111.35H111.45V84.65H111.55H111.65V84.75H111.75H111.85L111.95 84.85H112.05V84.75H112.15H112.25H112.35H112.45V84.85V84.95H112.55H112.65V85.05V85.15H112.75H112.85V85.05H112.95V84.95H113.05V84.85L113.15 84.95V85.05V85.15V85.25V85.35H113.25H113.35H113.45H113.55H113.65V85.45L113.75 85.55H113.85H113.95V85.65L114.05 85.75V85.85H114.15H114.25V85.75H114.35V85.85H114.45V85.75H114.55H114.65V85.85V85.95H114.75H114.95H115.05V86.05V86.15L114.95 86.35V86.45V86.55L114.85 86.65L114.75 87.05V87.15L114.65 87.35V87.45V87.55V87.65H114.55V87.75V87.85L114.45 88.05L114.75 88.15V88.25H114.85L114.95 88.35L114.85 88.55L114.75 88.65L114.65 88.75L114.55 88.85H114.45H114.35L114.25 88.95L114.15 89.05L114.05 89.15L114.15 89.35L114.25 89.45H114.35L114.45 89.55H114.55L114.65 89.65H114.75H114.85V89.75L114.95 89.85H115.05V89.75L115.15 89.65V89.55L115.25 89.45V89.35V89.25H115.35V89.15L115.45 89.05V88.95L115.55 88.85V88.95V89.05V89.15V89.25L115.35 89.75L115.55 89.95H115.65L115.55 90.05L115.45 90.15L115.15 90.85L115.05 90.95H114.95H114.85L114.75 91.15H114.85V91.25L114.95 91.35L115.05 91.55L115.25 91.45V91.55L115.35 91.85M115.35 91.85H115.45M115.35 91.85L115.25 91.95V92.05H115.15L115.35 92.45L115.55 92.95L115.65 93.05V93.15V93.25V93.35H115.75V93.45L115.95 93.65L116.05 93.75L116.15 93.65V93.55H116.25H116.45H116.75L117.05 93.65H117.35H118.05L119.15 93.75H119.35H119.45H119.55H119.65H119.95H120.15L120.25 93.85H120.35H120.55H120.65H120.75H120.95H121.05H121.35V93.95H121.45H121.55H121.65H121.75H122.75H122.95L123.25 94.05H123.55H123.85H124.05L124.45 94.15H124.85H125.05H125.45L125.65 94.25H125.75H125.95H126.05H126.15H126.25V94.35V94.65V94.75V94.85L126.35 94.95V95.05V95.35L126.45 95.75L126.35 96.45V96.85L126.25 97.15V97.25V97.35V97.45L126.15 97.55V97.65V97.75V97.85V97.95V98.05H126.25V97.95H126.35V98.05H126.45H126.55V98.15V98.25H126.65H126.75V98.15H126.85L126.95 98.25H126.85L126.75 98.45L126.85 98.55H126.95L127.05 98.65V98.75H127.15H127.25V98.65H127.35H127.45V98.55V98.45H127.55L127.65 98.55H127.75V98.45V98.35H127.85V98.25H127.95V98.35L128.05 98.45V98.55V98.65H128.15H128.25V98.75H128.15V98.85H128.25V98.95V99.05H128.35H128.45V99.15V99.25H128.55H128.65H128.75V99.35V99.45L128.55 99.75L128.25 100.75L128.05 101.15V101.35L127.85 101.65L127.75 101.85L127.55 102.45V102.55V102.65V102.85L127.65 103.25L127.75 103.95L127.85 104.15L127.95 104.35V104.45V104.55H127.85H124.05H123.95H123.85H123.75H123.65H123.45H123.15H123.05H122.85H122.65H121.95H121.85H121.75L121.65 104.45H121.55L121.45 104.35H121.35H121.25L121.15 104.25H120.75H120.45L120.15 104.15H120.05H119.85H119.75H119.65V104.25V104.35H119.55H119.45H119.35H119.25H119.15V104.25H119.05L118.95 104.15V104.25L118.85 104.15V104.25H118.75M118.75 104.25V104.35M118.75 104.25H118.65H118.55H118.45V104.15H118.35H118.25V104.05H118.15H118.05V104.15V104.25H118.15V104.35H118.05V104.45L117.95 104.75L117.55 104.85H117.15H116.75H116.35V104.75H116.25L116.15 104.85L116.05 104.95V105.05H115.95V105.15V105.25V105.35L116.05 105.45V105.55H115.95V105.65V105.75V105.85L115.85 105.95V106.05H115.75H115.65V106.15H115.55H115.45V106.25M115.45 106.25H115.55M115.45 106.25V106.35V106.45L113.95 108.25L113.75 108.65L113.55 109.15L112.65 111.25L111.75 114.65L111.35 117.85L111.05 118.45V118.35V118.25H110.95M110.95 118.25V118.15M110.95 118.25H110.85H110.75V118.15H110.65V118.05H110.55V117.95V117.85H110.65H110.75V117.75H110.85V117.65V117.55V117.45V117.35V117.25H110.75H110.65H110.55V117.35H110.45H110.35H110.25H110.15H110.05H109.95H109.65H109.55H109.45H109.35H109.25H109.15L108.95 117.45H108.75H108.65L108.55 117.35V117.45L108.45 117.35H108.35H108.15H108.05H107.95H107.85H107.65H107.55H107.45L107.35 117.25H107.25V117.35H107.15H107.05V117.45H107.15H107.25H107.35V117.55V118.55H107.15L106.25 119.25L105.95 119.55L105.55 120.05L104.35 121.45H104.25H104.15H103.95H103.85H103.75H103.65H103.55H103.45H103.35H103.25H103.15H103.05H102.95H102.75H102.65H102.35H102.25H102.15H102.05H101.75H101.45H101.35H101.25H101.05H100.85H100.55H100.45H100.35H100.15H99.85H99.35H99.25H99.15H98.95H98.75H98.55H98.25H97.95H97.75H97.45H96.95H96.75V121.55V121.95V122.55V123.15V123.55H96.65H96.45H96.25L96.05 123.45L95.95 123.55H95.75H95.45H95.35H95.15H94.95H94.85H94.45H94.25H94.05H93.85H93.45H93.35H93.25H93.15H93.05H92.95H92.85H92.75H92.55H92.35H92.25H92.15H91.95H91.85H91.75H91.65H91.55H91.45V123.65V123.75V123.85V123.95V124.05V124.15V124.35L89.85 125.45L88.55 127.55L87.65 130.15L86.85 132.75L87.05 138.05L86.75 140.25L85.55 142.55L84.05 144.55L83.35 145.85L83.25 147.05L83.95 147.85L84.85 147.95L86.75 147.65L87.65 147.75L88.45 148.15L88.95 148.95L88.85 150.35V150.45L88.25 151.25L88.15 151.55L87.85 151.75H87.75H87.35H87.15H87.05H86.95L86.85 151.85L86.75 151.95L86.65 152.05H86.55H86.45H86.35M86.35 152.05V152.15M86.35 152.05H86.25H86.15L86.05 152.15H85.95H85.85H85.75V152.25H85.65H85.55V152.35V152.45V152.55V152.65H85.65V152.75H85.75V152.85M85.75 152.85H85.85M85.75 152.85V152.95L84.95 153.45L84.05 155.15L83.75 157.35L83.95 159.75L84.55 161.35H84.45V161.45H84.35L84.25 161.55H84.15V161.65H84.05L83.95 161.75H83.85V161.85H83.75L83.65 161.95V162.05H83.55H83.45V162.15V162.25H83.35H83.25V162.35H83.15V162.45H83.05V162.55M83.05 162.55H82.95M83.05 162.55V162.65H82.95V162.75H82.85V162.85V162.95H82.75V163.05V163.15H82.65V163.25V163.35H82.55V163.45V163.55H82.45V163.65M82.45 163.65H82.35M82.45 163.65V163.75H82.35V163.85L82.25 163.95L82.15 164.05V164.15L82.05 164.25V164.35H81.95V164.45H81.85V164.55H81.75V164.65H81.65V164.75H81.55L81.45 164.85V164.95H81.35V165.05H81.25V165.15H81.15V165.25H81.05V165.35H80.95V165.45H80.85V165.55H80.75V165.65H80.65V165.75H80.55H80.45V165.85H80.35V165.95H80.25H80.15H80.05V166.05H79.95H79.85V166.15H79.75V166.25H79.65H79.55M79.55 166.25V166.35H79.45M79.55 166.25H79.45V166.35M79.55 166.25V166.15H79.65V166.05H79.75V165.95L79.85 165.85V165.75H79.95H80.05M79.45 166.35H79.35M79.35 166.35V166.45V166.55H79.25V166.65H79.15V166.75H79.05M79.35 166.35H79.25V166.25M79.05 166.75V166.85M79.05 166.75V166.65V166.55H79.15V166.45V166.35V166.25H79.25M79.05 166.85L78.95 166.95M79.05 166.85H78.95V166.95M78.95 166.95V167.05H78.85M78.95 166.95H78.85V167.05M78.85 167.05V167.15H78.75V167.25H78.65V167.35H78.55M78.85 167.05H78.75H78.65V167.15L78.55 167.25V167.35M78.55 167.35V167.45H78.45V167.55H78.35H78.25V167.65H78.15V167.55M78.55 167.35H78.45H78.35V167.45H78.25H78.15V167.55M78.15 167.55H78.05M79.25 166.25H79.35M80.05 165.75V165.65M80.05 165.75H80.15V165.65H80.25V165.55H80.35V165.45H80.45H80.55H80.65V165.35V165.25V165.15V165.05V164.95H80.55V164.85V164.75V164.65V164.55L80.45 164.45V164.35V164.25L80.35 164.15V164.05L80.25 163.95V163.85V163.75H80.15V163.65V163.55L80.05 163.45V163.35H79.95V163.25L79.85 163.15V163.05H79.75V162.95L79.65 162.85L79.55 162.75V162.65H79.45V162.55L79.25 162.35L79.15 162.25L79.05 162.15L78.95 162.05L78.85 161.95V161.85H78.75L78.65 161.75L78.55 161.65H78.45L78.35 161.55L78.25 161.45H78.15H78.05L77.95 161.35H77.85H77.75H77.65L77.55 161.25H77.45H77.35H77.25H77.15V161.15H77.05H76.95H76.85H76.75V161.25H76.65H76.55V161.35H76.45L76.35 161.45V161.55H76.25V161.65H76.15V161.75V161.85H76.05V161.95H75.95V162.05L75.85 162.15V162.25H75.75V162.35M75.75 162.35H75.65M75.75 162.35V162.45V162.55H75.65V162.65H75.55V162.75H75.45H75.35H75.25V162.65H75.15H75.05H74.95L74.85 162.55H74.75H74.65V162.45H74.55H74.45V162.35H74.35H74.25V162.25H74.15H74.05V162.15H73.95H73.85H73.75V162.05H73.65H73.55H73.45H73.35H73.25H73.15H73.05H72.95H72.85H72.75V162.15H72.65V162.25H72.55L72.45 162.35H72.35V162.45M72.35 162.45H72.25M72.35 162.45H72.45V162.55H72.55H72.65V162.65H72.75H72.85V162.75H72.95H73.05V162.85L72.95 162.95H72.85H72.75H72.65L72.55 162.85H72.45L72.35 162.75H72.25H72.15L72.05 162.65L71.85 162.55H71.75L71.65 162.45H71.55V162.35H71.45H71.35H71.25V162.25H71.15H71.05V162.15H70.95H70.85V162.05H70.75H70.65L70.55 161.95H70.45L70.35 161.85H70.25V161.75H70.15H70.05L69.95 161.65H69.85V161.55H69.75H69.65L69.55 161.45H69.45H69.35V161.35H69.25H69.15L69.05 161.25H68.85L68.75 161.15H68.65H68.55H68.45H68.35H68.25H68.15V161.25H68.05H67.95H67.85V161.35H67.75L67.85 161.45H67.75H67.65H67.55H67.45H67.35H67.25H67.15H67.05H66.95H66.85L66.75 161.55H66.65H66.55V161.65H66.45H66.35V161.75H66.25H66.15H66.05V161.85H65.95H65.85H65.75V161.95H65.65L65.55 162.05H65.45L65.35 162.15H65.25V162.25H65.15L65.05 162.35V162.45H64.95H64.85V162.55H64.75V162.65H64.65H64.55V162.75H64.45H64.35H64.25H64.15V162.85H64.05H63.95H63.85V162.95H63.75V163.05H63.65H63.55H63.45H63.35V163.15H63.25V163.05H63.15H63.05L62.95 162.95H62.85H62.75V162.85H62.65H62.55H62.45H62.35H62.25H62.15H62.05H61.95H61.85H61.75V162.95H61.65H61.55H61.45H61.35V163.05H61.25H61.15L61.05 163.15H60.95H60.85H60.75H60.65V163.25H60.55H60.45H60.35H60.25V163.35H60.15H60.05H59.95H59.85H59.75H59.65H59.55V163.45H59.45H59.35H59.25H59.15H59.05H58.95H58.85H58.75H58.65H58.55H58.45H58.35H58.25H58.15V163.35H58.05H57.95H57.85M57.85 163.35V163.45M57.85 163.35H57.75H57.65H57.55V163.25H57.45H57.35V163.15H57.25L57.15 163.05H57.05H56.95V162.95H56.85H56.75H56.65V162.85H56.55H56.45V162.75H56.35H56.25H56.15L56.05 162.65H55.95H55.85L55.75 162.55H55.65H55.55V162.45H55.45H55.35V162.55L55.25 162.45V162.35H55.15H55.05L54.95 162.45V162.55H54.85V162.65H54.75V162.75L54.65 162.85V162.95H54.55H54.45L54.35 163.05H54.25V163.15H54.15H54.05H53.95V163.05V162.95V162.85V162.75H53.85V162.85V162.95H53.75V163.05H53.65H53.55H53.45H53.35H53.25M53.25 163.05V162.95H53.15M53.25 163.05V163.15L53.35 163.25V163.35V163.45H53.25H53.15V163.55H53.05H52.95H52.85V163.45H52.75V163.35H52.65V163.25H52.75V163.15V163.05V162.95V162.85H52.65V162.75V162.65V162.55H52.55V162.45V162.35H52.45V162.25L52.35 162.15V162.05H52.25V162.15V162.25V162.35H52.35V162.45V162.55H52.45V162.65V162.75H52.55V162.85H52.45V162.95H52.35V162.85V162.75H52.25V162.65V162.55H52.15M52.15 162.55V162.45V162.35M52.15 162.55V162.65V162.75L52.25 162.85V162.95V163.05H52.15H52.05H51.95V163.15H51.85H51.75H51.65H51.55H51.45V163.25H51.35H51.25H51.15H51.05H50.95L50.85 163.35M52.15 162.35V162.25H52.05V162.35H52.15ZM50.85 163.35V163.25M50.85 163.35H50.75H50.65H50.55H50.45V163.45H50.35H50.25V163.55H50.15V163.65H50.05H49.95V163.75H49.85V163.85H49.75V163.95H49.65L49.55 164.05V164.15L49.45 164.25V164.45V164.55V164.65V164.75V164.85M49.45 164.85V164.95M49.45 164.85H49.35H49.25L49.15 164.75V164.85L49.05 164.95L48.95 165.05M48.95 165.05L49.05 165.15M48.95 165.05L48.85 165.25L48.95 165.35H48.85H48.75L48.65 165.45L48.55 165.65V165.75H48.45L48.65 165.85L48.55 165.95L48.35 166.25M48.35 166.25H48.45V166.35M48.35 166.25V166.35H48.45M48.35 166.25H48.25H48.15H48.05L47.95 166.35V166.45H47.85V166.55V166.65H47.75V166.75H47.65V166.85H47.55V166.95L47.45 167.05V167.15H47.35V167.25H47.25V167.35H47.15V167.45V167.55H47.05V167.65L46.95 167.75V167.85L46.85 167.95V168.05L46.75 168.15V168.25H46.65V168.35V168.45H46.55V168.55V168.65H46.45V168.75L46.35 168.85L46.25 168.95V169.05L46.15 169.25L46.05 169.35V169.45L45.85 169.75L45.75 169.95L45.55 170.15L45.45 170.35L45.35 170.45V170.55L45.25 170.65L45.15 170.75V170.85H45.05V170.95H44.95V171.05L44.85 171.15L44.75 171.25L44.65 171.35V171.45H44.55V171.55H44.45V171.65L44.35 171.75L44.25 171.85V171.95H44.15V172.05H44.05V172.15H43.95V172.25H43.85V172.35H43.75V172.45H43.65L43.55 172.55V172.65H43.45V172.75L43.35 172.85L43.25 172.95L43.15 173.05V173.15L43.05 173.25V173.35H42.95V173.45H42.85V173.55V173.65H42.75V173.75H42.65V173.85V173.95H42.55V174.05H42.45V174.15V174.25H42.35V174.35H42.25V174.45V174.55H42.15V174.65L42.05 174.75V174.85H41.95V174.95L41.85 175.05V175.15H41.75V175.25L41.65 175.35V175.45H41.55V175.55V175.65H41.45V175.75L41.35 175.85V175.95H41.25V176.05V176.15H41.15V176.25L41.05 176.35V176.45H40.95V176.55H40.85V176.65V176.75H40.75V176.85H40.65V176.95V177.05H40.55V177.15H40.45V177.25V177.35H40.35V177.45H40.25V177.55H40.15V177.65V177.75H40.05V177.85H39.95V177.95H39.85V178.05H39.75V178.15L39.65 178.25L39.55 178.35V178.45H39.45V178.55H39.35V178.65H39.25V178.75H39.15H39.05V178.85H38.95V178.95H38.85H38.75V179.05H38.65H38.55V179.15H38.45H38.35H38.25H38.15H38.05M48.45 166.35V166.45M38.05 179.15H37.95H37.85M38.05 179.15V179.05H38.15H38.25L38.35 178.95H38.45V178.85H38.55V178.75H38.65V178.65H38.75H38.85V178.55V178.45H38.95V178.35L39.05 178.25V178.15H39.15M37.85 179.15H37.75H37.65V179.05V178.95V178.85H37.75V178.95M37.85 179.15V179.05H37.75V178.95M37.75 178.95H37.85M39.15 178.15V178.05H39.25V178.15H39.15ZM39.15 178.15V178.25L39.05 178.35H39.15V178.45H39.25V178.35H39.35V178.25H39.45V178.15V178.05H39.55V177.95H39.65M39.65 177.95V178.05L39.75 177.95V177.85M39.65 177.95V177.85M39.75 177.85H39.85V177.75M39.75 177.85V177.75H39.85M39.75 177.85H39.65M39.85 177.75H39.95V177.65M39.65 177.85V177.75V177.65H39.75V177.55V177.45V177.35V177.25V177.15V177.05H39.65V176.95V176.85V176.75L39.55 176.65V176.55V176.45V176.35M39.55 176.35V176.25M39.55 176.35H39.65M39.55 176.25H39.45V176.15M39.55 176.25H39.65V176.35M39.65 176.35V176.45M111.05 118.55L110.95 118.75H110.85V118.65V118.55H110.95H111.05Z" stroke="white" stroke-width="0.5" stroke-linecap="round" stroke-linejoin="round"/>
</svg>
