<svg width="129" height="165" viewBox="0 0 129 165" fill="none" xmlns="http://www.w3.org/2000/svg">
<path d="M109.85 22.25V22.35V22.55H110.05L110.95 22.35L111.55 22.25V22.65V23.55V24.45L111.45 25.05V25.25V25.35L111.55 25.45V25.55V25.95L111.65 26.45L111.75 26.85V26.95L111.25 27.95L110.75 28.85L110.35 29.45L110.05 29.85L109.95 30.25L109.75 30.55L109.55 30.75L109.45 30.85L109.15 30.95H109.05L108.95 31.05H108.75L108.65 31.15H108.55V31.05H108.45H108.35H108.25V30.95L108.35 30.85L108.45 30.65V30.45L108.35 30.55V30.65H108.25H108.15H108.05L107.95 30.75H107.85H107.75L107.45 30.65H107.35L107.25 30.75V30.85V31.05H107.15H107.05V30.95H106.95V30.85H106.85H106.75L106.45 31.05L106.25 31.15L105.35 31.45L105.15 31.55L105.25 31.95L105.35 32.25V32.55L105.45 32.85L105.65 33.45V33.75V33.95L105.85 34.35V34.45V34.55V34.75L105.95 34.85V34.95V35.05L106.05 35.55L106.25 36.55L106.35 36.85L106.45 37.05L106.65 38.05V38.25V38.35L106.75 38.45L106.85 39.05L106.95 39.45L107.05 39.85V39.95V40.05V40.15H107.15V40.35V40.45L107.25 40.55L107.35 41.25L107.45 41.65L107.65 42.25L107.85 42.55V42.65H107.95H108.05L108.25 42.75L108.35 42.15V41.25V41.15V41.05V40.25V40.15H108.55L109.25 39.95L109.45 40.15L109.75 40.25L109.95 40.45L110.05 40.55L110.15 40.65L110.45 40.85L110.65 40.95L110.85 41.15L111.75 41.75L111.85 41.85L112.15 42.05L112.45 42.35H112.55H112.65V42.45L113.05 42.65L113.15 42.75L113.25 42.85L113.35 43.05L113.55 43.35L113.75 43.75L114.05 44.25L114.15 44.55L114.55 45.15L114.75 45.55L114.85 45.65L114.95 45.75H115.05V45.85H115.15L115.25 45.95H115.35V46.05H115.45V46.15L115.55 46.25H115.65V46.35L115.75 46.45L115.85 46.55H115.95L116.05 46.65L116.15 46.75H116.25L116.35 46.85H116.45L116.55 46.95H116.65L116.75 47.15L116.95 47.25V47.35L117.25 47.65L117.35 47.75V47.85L117.45 47.95H117.55L116.25 49.65L116.15 49.75H116.05V49.85L115.85 50.15L115.65 50.35L115.75 50.45L115.45 50.95L115.25 51.25V51.35H115.15V51.55V51.65L115.25 51.75V51.85L115.35 52.05V52.15H115.25V52.25V52.35L115.15 52.45V52.55V52.65V52.95V53.05V53.35L115.25 53.75V53.85V53.95L115.35 54.05V54.15L115.65 54.45V54.55L115.25 54.35L114.95 54.25L114.85 54.15H114.75L114.35 53.95L114.15 53.85L114.05 53.75H113.95L113.65 53.85H113.25L113.15 53.95H113.05L112.55 54.05V54.35V54.75V55.35V55.55L112.45 56.95L112.95 57.05L113.45 57.25H113.55L113.65 57.15V57.25L113.85 57.45L113.95 57.55L114.05 57.65L114.25 57.85L114.45 57.95L114.75 58.35L114.95 58.55L115.05 58.65L115.25 58.85L115.35 58.95L115.45 59.25V59.35H115.55V59.45L115.65 59.65L115.45 60.55H115.55V60.65L115.75 60.95H115.85L115.95 61.05V61.15L116.15 61.45L116.25 61.55L116.35 61.65L116.95 61.85L117.05 61.95L117.15 62.05L117.25 62.25L117.45 62.35V62.45H117.55V62.55L117.75 62.75L117.85 62.95L117.95 63.35V63.55L117.85 63.65L117.65 64.05L117.45 64.55L117.35 64.65L117.25 64.95L117.05 65.25V65.35L116.95 65.45L116.85 65.75L116.75 65.85L117.15 66.15L117.95 66.65L118.35 66.95L118.45 66.85L118.65 66.45L119.05 66.55L119.15 67.15L119.25 67.45L119.35 67.75V67.85H118.85L118.65 67.75L118.45 67.65L118.05 67.55L117.75 67.45L117.25 67.35H117.15H117.05H116.95L116.35 67.85L116.45 67.95L116.65 68.05L116.45 68.25L116.75 68.65L116.85 68.75H116.95V68.85H117.05L117.25 69.05L117.35 69.15L117.45 69.25L117.65 69.35H117.75L117.85 69.25L117.95 69.45H118.05V69.55H117.95V69.65H117.85V69.75H117.75V69.85H117.65H117.55V69.95H117.45H117.35H117.25V70.05V70.15V70.25H117.35H117.45V70.35V70.45V70.55V70.65V70.75L117.35 70.85H117.25H117.15H117.05H116.95L116.85 70.75L116.75 70.85H116.55L116.35 70.95H116.15L115.75 70.85H115.65V71.05H115.85H115.95H116.05H116.15L116.25 71.15H116.35H116.45V71.25H116.35L116.45 71.35H116.55V71.25H116.65V71.35H116.75H116.85L116.95 71.45H117.05V71.55H117.15L117.25 71.45H117.35V71.35L117.45 71.25H117.55V71.15H117.65V71.05H117.75H117.85H117.95H118.05H118.15H118.25H118.35V70.95H118.45L118.55 70.85V70.75H118.65H118.75H118.85H118.95H119.05H119.15V70.85H119.05L119.15 70.95H119.25L119.35 71.05H119.45H119.55H119.65H119.75H119.85H119.95V71.15H120.05V71.25H120.15H120.25V71.15H120.35V71.05H120.45V71.15H120.35V71.25V71.35H120.45V71.25H120.55V71.35V71.45H120.45H120.35V71.55H120.45L120.35 71.65V71.75H120.25V71.85H120.35H120.45H120.55V71.95V72.05H120.65V72.15V72.25V72.35L120.75 72.45H120.65V72.55H120.75V72.65V72.75L120.85 72.85H120.95L121.05 72.95V73.05H120.95V73.15V73.25H120.85V73.35V73.45V73.55V73.65H120.95H121.05V73.75H121.15H121.25V73.85V73.95L121.35 74.05V74.15H121.45V74.25V74.35V74.45V74.55H121.55H121.65V74.45H121.55V74.35L121.65 74.25H121.75V74.35L121.85 74.45V74.55H121.75V74.65V74.75H121.65V74.85V74.95H121.55V75.05V75.15H121.45V75.25V75.35V75.45L121.35 75.55V75.65V75.75V75.85L121.25 75.95V76.05L121.15 76.15V76.25L121.05 76.35V76.45H120.95L120.85 76.55V76.65V76.75H120.75V76.85H120.65V76.95H120.55H120.45H120.35V77.05V77.15V77.25H120.25V77.35H120.15H120.05H119.95H119.85H119.75H119.65V77.45H119.55V77.35H119.45H119.35V77.45V77.55H119.25V77.65V77.75H119.15V77.65H119.05V77.75V77.85V77.95V78.05H118.95V78.15V78.25V78.35L118.85 78.25H118.75V78.35H118.65V78.45H118.55H118.45L118.35 78.55L118.25 78.65H118.35V78.75V78.85H118.45V78.95H118.35V79.05H118.45V79.15V79.25H118.35V79.35V79.45H118.25V79.55H118.35V79.45H118.45V79.35L118.55 79.45H118.45V79.55V79.65H118.35V79.75H118.25H118.15V79.85H118.05H117.95L117.85 79.95H117.75H117.65H117.55V80.05H117.45H117.35V80.15H117.25H117.15H117.05V80.05L116.95 79.95V79.85H116.85V79.95H116.75H116.65V80.05H116.55V79.95V79.85H116.65V79.75H116.55V79.85H116.45H116.35V79.75H116.25V79.85H116.15V79.95H116.25V80.05H116.15H116.05V80.15V80.25H115.95H115.85V80.35H115.75V80.45V80.55L115.95 80.85L116.05 80.95L116.15 81.05L116.05 81.15L115.95 81.25L115.85 81.45H115.75L115.65 81.55L115.55 81.65L115.05 82.15L115.45 82.45L115.55 82.55L114.95 82.75L114.15 83.05V83.15H114.25L114.35 83.25L114.65 83.45L114.75 83.55V83.65L114.85 83.75H114.95V83.85H115.05H115.15L115.25 83.95H115.35L115.55 84.05H115.65V84.15L115.75 84.25H115.85V84.45V84.55H115.95V84.65H116.05L116.15 84.75V84.85L116.25 84.95L116.55 85.05V85.15L116.65 85.25V85.35H116.75V85.45L116.85 85.55V85.65V85.75V85.95V86.25V86.45V86.55V86.65H116.95L117.05 86.75L117.15 86.85V86.95L117.05 87.05V87.15L116.95 87.35H116.85V87.45V87.55V87.65V87.85V87.95V88.05L116.95 88.25L117.05 88.45V88.55V88.65V88.75V88.85L116.95 88.95H116.85L116.75 89.05H116.65L116.55 89.15V89.25L116.45 89.35L116.35 89.55V89.65L116.25 89.75L116.15 89.65H116.05V89.55H115.95H115.85H115.75H115.35H115.25H115.15H114.95H114.85V89.65V89.75V89.85V89.95L114.95 90.05V90.15V90.25L115.05 90.35H115.15V90.45H115.25V90.55V90.65H115.15V90.75L115.25 90.65V90.75H115.15V90.85V90.95V91.05H115.05V91.15H114.95V91.25V91.35V91.45H115.05V91.55H115.15L115.25 91.65H115.35L115.45 91.75H115.55V91.85H115.65H115.75L115.85 91.95H115.95H116.05L116.15 92.05V92.15H116.25V92.25H116.35L116.45 92.35H116.55L116.65 92.45H116.75V92.55H116.85H116.95H117.05H117.15V92.65H117.25V92.75H117.05V93.05L117.15 93.15L117.25 93.35L117.35 93.65L117.05 93.95L117.15 94.15L117.25 94.35L117.35 94.75L117.45 94.95V95.05L117.35 95.15L117.25 95.25L117.15 95.35H117.05L116.95 95.25L116.85 95.35L116.65 95.55L116.45 95.65L116.25 95.75L116.15 95.85L116.05 95.95V95.85H115.95H115.85V95.75H115.75V95.65H115.65H115.55L115.35 95.55L115.25 95.45L115.05 95.35L114.85 95.15V95.05H114.75V95.15H114.65V95.25L114.45 95.75L114.35 96.15L114.25 96.25V96.45L114.45 96.55H114.55H114.65H114.75H114.95H115.05H115.75V96.65V96.75H115.85V96.65H115.95H116.05H116.15H116.25H116.35H116.45H116.55H116.65H116.75L116.85 96.75V96.85V97.05V97.25V97.35V97.45V97.55L116.75 97.85L116.65 97.95L116.55 98.05V98.15H116.45L116.35 98.25V98.35L116.25 98.45V98.55V98.65L116.15 98.75V98.85H116.05L115.95 99.05H115.75L115.65 98.95H115.45V99.05V99.25L115.35 99.35H115.25H115.15L114.85 99.15L114.65 99.05H114.55L114.45 98.95L114.35 99.05H114.15L114.05 99.15V99.25V99.35L114.15 99.65L114.35 100.05L114.65 100.55V100.45H114.95L115.45 100.35H115.75H115.95V100.25V100.15V99.95V99.65V99.55L116.85 99.45L116.95 99.35H117.15L117.95 99.15H118.05H118.35L118.75 99.05H118.85L119.35 98.95L119.65 98.85H119.75H119.95L120.25 99.15L120.65 99.55L120.95 99.95V100.05V100.15H121.05L121.15 100.25L121.45 100.55L121.35 100.95V101.05L121.25 101.25V101.35V101.45V101.55L121.35 101.65V101.75V101.95L121.45 102.15V102.45L121.35 102.65H121.75H121.85H121.95H122.05H122.15L122.35 102.75H122.45V102.85L122.55 102.95L122.65 103.05L122.75 103.15L122.85 103.35L122.95 103.25L123.05 103.35L123.55 102.75L123.75 102.85V102.95L123.65 103.05H123.75V103.15V103.25V103.35V103.45V103.55V103.75V103.85V103.95L123.65 104.05V104.15H123.55H123.45V104.25H123.35V104.35H123.25V104.45V104.55H123.15V104.65H123.05V104.75H123.15V104.85H123.05H122.95V104.95H122.85V105.05H122.75L122.65 105.15L122.55 105.25L122.65 105.35L122.75 105.45H122.85L122.95 105.55L123.05 105.85L123.15 105.95L123.25 106.15L123.35 106.25L123.65 106.35L123.95 106.45L124.25 106.55L124.35 106.65L124.45 106.55H124.55H124.65H124.75H124.85H124.95L125.15 106.65L125.35 106.75H125.45H125.55V106.85H125.65H125.75H125.85H126.05L126.45 106.65L126.65 106.55V106.65V106.75V106.85V106.95L126.55 107.05V107.35V107.75H126.45L126.35 107.65H126.05V107.75V107.95H125.95V108.15L125.85 108.55L125.75 108.75V108.85L125.85 109.05V109.15V109.45V109.55V109.65L126.05 109.75H126.45V109.95V110.05V110.15L126.25 110.25V110.35H126.15V110.45L126.05 110.55L125.95 110.65V110.55L125.85 110.45V110.35H125.75V110.25H125.65L125.45 110.45H125.35V110.55H125.25L125.45 110.75L125.65 111.05V111.15H125.55L125.25 111.25L125.45 111.45L125.55 111.55L125.85 111.75H125.75L125.85 112.15L126.05 112.05V112.15L126.15 112.25V112.35V112.45V112.55V112.65L126.25 112.75V112.85V112.95L126.35 113.05L126.45 113.15V113.25L126.55 113.35L126.65 113.45V113.55H126.75V113.65H126.85L126.95 113.75H127.05V113.85V113.95V114.05H126.95H126.85V114.15H126.75H126.65H126.55H126.45V114.25H126.35V114.35H126.25V114.45V114.55H126.15V114.65V114.95V115.05V115.15L126.05 115.25L125.95 115.45V115.55V115.65L125.85 115.75V115.85H125.75V115.95L125.65 116.05V116.15L125.55 116.25L125.45 116.35L125.25 116.55V116.65H125.15V116.75H125.05V116.85V116.95H124.95V117.15L124.75 117.35V117.45H124.65H124.55H124.45V117.55V117.65H124.35V117.75V117.85H124.25L124.15 117.95V118.05L124.25 118.15L124.35 118.25V118.35L124.45 118.45V118.55L124.55 118.65H124.65H124.75H124.85L124.95 118.75L125.05 118.85H125.15L125.25 118.95L125.35 119.05V119.15L125.45 119.25L125.55 119.35L125.65 119.45L125.75 119.55L125.85 119.65H125.95V119.75H126.05H126.15L126.25 119.85H126.35H126.45V119.95H126.55H126.65V120.05V120.15L126.55 120.45L126.45 120.55L126.35 120.85L125.35 121.75H125.25V121.85H125.15V121.95H125.05V122.05H124.95V122.15V122.25H124.85V122.45V122.55V122.65L124.75 122.85H124.85V122.95H124.95H125.05H125.15H125.25H125.45H125.55V123.05L125.45 123.15V123.25H125.35V123.35H125.25H125.15V123.45H125.05H124.95H124.85H124.75V123.55H124.65V123.45H124.55V123.55H124.45V123.65H124.35V123.75H124.25L124.35 123.85L124.45 123.95H124.55V124.05L124.65 124.15L124.75 124.25L124.85 124.35L124.95 124.55L125.15 124.65L125.35 124.95L125.95 125.65L126.05 125.75L126.45 126.25L126.85 126.75V126.85V126.95V127.05V127.25V127.35V127.45V127.55V127.65V127.75L126.75 128.05V128.35V128.65V128.75H126.65V128.85H126.55L126.45 129.05H126.35L126.15 129.25L125.95 129.35L125.65 129.55H125.55V129.65L125.85 129.85L125.95 129.95V130.05V130.15V130.25V130.35H126.05V130.45V130.55H125.95L126.05 130.65V130.75V130.85V130.95H126.15V131.05V131.15H126.25V131.25V131.35H126.35V131.45H126.45H126.55V131.55V131.65V131.75H126.65V131.85H126.75V131.75H126.85V131.65H126.95V131.75V131.85H126.85H126.75V131.95H126.65V132.05H126.55V132.15V132.25V132.35H126.65L126.75 132.45V132.55V132.65L126.85 132.75V132.85L126.95 132.95L127.05 133.05L127.15 133.15L127.25 133.25L127.35 133.35V133.45H127.45L127.55 133.55H127.65V133.65H127.75V133.75H127.85L127.75 133.95V134.05L127.55 134.35L127.65 134.45L127.75 134.65L128.45 134.45L128.55 134.85L128.65 135.05H128.55H128.45V135.15H128.35H128.25V135.25H128.15V135.35V135.45H128.25V135.55H128.35V135.65L128.45 135.75V135.85V135.95H128.55V136.05H128.65V136.15L128.75 136.25V136.45L128.25 136.75L128.45 137.45H128.35L127.35 137.95L126.65 138.35L125.85 138.75L125.35 139.05H125.25L124.75 139.75L124.65 139.85H124.55V139.95H124.45H124.35V140.05H124.25H124.15V140.15L124.05 140.25L123.95 140.45V140.55H123.85V140.65L123.75 140.75V140.85L123.65 140.95V141.15L123.55 141.05H123.45H123.35V141.15V141.25H123.45V141.35V141.45H123.55V141.55V141.65H123.65V141.75H123.75H123.85H123.95H124.05H124.15H124.25H124.35L124.45 141.65V141.75L124.95 141.85L125.25 141.95V142.05L125.05 142.25L124.85 142.55H124.75L124.65 142.65V142.75H124.55V142.65H124.45V142.55H124.35H124.25V142.45H124.15V142.35H124.05L123.85 142.55V142.65L123.75 142.75L123.65 142.85H123.55H123.45L123.35 143.05L123.25 143.15V143.25V143.35V143.45H123.15V143.55L123.05 143.65V143.75H122.95L122.65 143.65L122.15 143.45L122.05 143.65L121.85 143.75V143.85L121.95 144.05L121.85 144.25V144.35L121.65 144.55H121.55H121.45H121.35H121.25H121.15H121.05H120.95L120.85 144.65H120.75H120.65V144.75V144.85L120.45 144.95H120.35H120.25H120.05H119.95H119.85H119.75H119.65H119.55L119.35 145.05H119.25V145.25L119.35 145.55L119.45 145.65L119.25 145.85L119.15 146.05V146.15L119.05 146.35L118.95 146.25L118.85 146.15L118.75 146.05H118.65H118.55V145.95H118.45L118.35 145.85H118.25V145.75L118.15 145.65L118.05 145.55H117.95L117.85 145.45H117.75V145.35H117.65H117.55V145.25H117.45V145.15L117.35 145.05L117.25 145.15L117.15 145.25L116.95 145.45H116.85V145.55L116.65 145.65L116.45 145.85L116.65 146.15V146.25L116.75 146.45V146.55L116.65 146.65L116.75 146.75L116.85 146.95L116.45 147.15L116.25 147.35L116.35 147.45L116.05 147.65H115.95V147.55L115.75 147.35V147.25L115.65 147.05L115.55 146.95L115.35 146.65L115.25 146.85H115.15L115.05 146.95L114.95 147.05L114.35 147.65L113.95 147.35H113.85V147.45V147.55L113.95 147.85V147.95L114.05 148.05V148.15L114.15 148.25V148.35V148.45L114.25 148.65L114.35 148.75V148.85L114.45 148.95V149.05L114.55 149.15V149.35L114.65 149.45V149.55V149.65L114.75 149.75V149.85V149.95V150.05L114.85 150.15L114.95 150.75L114.65 151.75L114.15 153.15L113.65 153.35L114.05 154.25L114.15 154.55L115.55 154.65H115.75H115.85H116.05H116.15H116.25L116.35 154.55H116.45H116.55H116.65H116.75V154.65V154.75V154.85H116.65H116.55V154.95H116.45V155.05V155.15V155.45V156.55V156.65V156.85V156.95V157.05V157.15V157.25H116.35V158.05L117.55 158.45L117.45 158.85L117.35 159.05L117.25 159.25L117.15 159.55H117.05L116.45 159.35L116.15 159.15L116.05 159.55L115.65 159.45L114.95 159.15L114.85 159.05H114.65L114.35 158.95V158.85H114.25H114.15L113.95 158.75L113.75 158.65L113.45 158.55L113.35 158.65V158.95L113.25 159.05V159.15V159.25L113.15 159.35L113.05 159.25L112.95 159.15H112.85H112.75V159.05H112.65V158.95H112.55V158.85H112.45L112.35 158.75V158.85L111.85 159.45L111.65 159.65L111.55 159.85V159.95L111.45 160.15L111.15 161.05L110.85 161.85H110.75H110.65H110.55H110.45V161.95L110.35 161.85H110.25V161.75H110.15V161.65H110.05V161.55H109.95V161.45V161.35H109.85L109.75 161.25L109.65 161.35V161.25H109.55L109.45 161.45L109.05 161.95L108.95 162.15L108.85 162.25L108.75 162.15L108.45 161.65L108.25 161.35V161.25H107.95H107.75H107.25L106.85 161.35H106.45H106.35H106.25H106.15L105.75 161.25H105.65H105.55V161.35V161.95V162.85V163.35V163.95V164.15H104.45V163.95V163.85L104.35 163.75L104.25 163.55L104.05 163.25L103.95 163.05L103.05 163.85H102.95V163.95V164.05V164.15H102.75L102.45 164.35L102.35 164.25L102.25 164.15L102.15 164.05H102.05V163.95H101.95V163.85H101.85V163.95L101.75 164.05H101.65V164.15H101.55V164.25H101.45V164.35H101.35H101.25H101.15H101.05H100.95H100.85H100.75H100.65V164.25H100.55H100.45L100.35 164.15H100.25H100.15H100.05V164.05H99.95H99.85H99.75L99.65 164.15H99.55V164.05H99.45V163.95H99.35H99.25H99.05L98.95 164.05H98.85H98.75H98.65L98.55 164.15H98.45H98.35L98.25 164.25H98.15L97.95 164.35L97.85 164.45H97.75L97.65 164.55V164.65H97.55L96.95 163.95H96.45V163.85H96.35H96.25L96.15 163.95H96.05H95.95L95.85 164.05L95.75 163.95H95.65H95.55H95.45H95.35L95.15 163.85L94.95 163.95H94.75H94.65L94.55 163.85H94.45H94.35H94.25H94.05H93.95L93.85 163.95H93.75H93.65L93.55 164.05H93.45H93.35H93.25V164.15H93.15H93.05H92.95L92.85 164.05H92.75H92.65H92.55L92.35 163.95H92.25H92.15V163.85H92.05H91.95L91.85 163.75H91.75H91.65L91.55 163.65H91.45H91.35V163.55L91.15 163.45V163.35H91.05V163.25L90.95 163.15V163.05V162.95L91.05 162.85V162.75V162.65H91.15V162.55L91.25 162.45L91.35 162.35V162.25L91.45 162.15L91.55 162.05V161.85H91.65V161.65L91.75 161.55V161.45L91.85 161.35V161.25V161.15H91.95V161.05H92.05L92.15 160.85V160.75L91.85 160.55L91.65 160.35L91.45 160.15L91.15 159.85L90.85 159.95L90.65 159.55H90.75H90.85H90.95V159.45L90.75 159.25L90.65 158.95L90.45 158.75L90.35 158.55L90.25 158.45L90.15 158.15L89.95 157.95L89.85 157.85V157.75H89.75H89.65V157.65H89.55H89.45H89.35H89.25H89.15L89.05 157.55V157.45V157.35H88.95V157.25V157.15V157.05L89.05 156.95L89.15 156.85H89.25H89.55V156.75L89.65 156.55V156.35L89.75 156.25V156.15L89.85 156.05V155.95V155.85V155.75V155.65H89.95H90.05H90.15L90.35 155.75H90.45L90.75 155.35L90.95 154.95L91.15 154.75L91.45 154.35L91.25 154.15L91.35 153.95L91.45 153.75V153.65L91.55 153.55H91.65V153.45L91.95 153.55V153.35V153.15V153.05H91.85V152.95V152.85L91.75 152.75V152.65V152.45L91.65 152.35L91.45 152.25L91.05 152.05L90.05 151.35H89.95H89.85V150.95L89.95 150.35V149.65L89.75 149.55L89.55 149.45L89.35 149.35L88.95 149.15H88.85L89.25 148.65L89.55 148.25L89.95 147.85L90.15 147.55L90.05 147.45L89.95 147.35L89.85 147.25V147.15L89.75 147.05V146.95V146.75V146.65V146.45V146.35V146.25V146.15H89.55H89.45H89.35V146.25H89.25H89.15H89.05H88.95H88.85L88.95 146.15L89.05 145.85V145.75V145.55L89.25 145.15V144.95L89.35 144.65H89.25V144.55H89.15V144.45L89.05 144.35H88.95V144.25L88.85 144.15L88.75 144.05V143.95H88.65V143.85L88.55 143.75V143.65L87.85 143.35L87.45 143.25L87.05 143.05L86.85 142.85L86.95 142.75H87.05V142.65H87.15V142.55H87.05V142.45H86.95V142.35H86.85L86.75 142.25H86.65H86.55V142.15H86.45V142.05V141.95V141.85L86.55 141.45L86.45 141.35H86.35L86.25 141.25H86.15H86.05H85.95V141.15H85.85H85.75V141.05L85.65 140.95V140.85H85.55H85.45H85.25H85.05H84.95H84.85H84.55H84.45V141.05L84.25 141.75L84.15 141.85V142.15L84.05 142.45L83.95 142.75V142.85L83.85 143.05V143.15H83.65H82.85L82.65 143.25H82.45H82.35V143.45V143.55V143.65H82.25H82.15L81.65 143.75H81.05H80.75V143.85L80.85 144.45H80.65H80.55H80.45H80.35L80.05 144.35H79.65H79.15V144.65V145.05V145.25V145.35V145.45V145.55V146.05H79.25L79.55 145.95V146.35H79.35H79.05L78.85 146.45V146.55L78.75 146.75L78.55 147.05L78.45 147.35L78.35 147.65L78.25 147.75V147.95L77.85 148.05V147.95L77.75 147.55V147.45L77.65 147.15L77.45 147.25H77.35L77.05 147.35L76.85 147.05L76.65 147.15L76.35 147.25L76.15 147.35H75.95V147.45V147.55L76.05 147.85L75.95 147.75H75.85L75.75 147.65H75.65L75.55 147.55L75.15 147.25L74.95 147.15H74.85L74.75 147.05L74.45 146.95L73.95 146.75L73.45 146.55L73.35 146.45V146.55L73.45 146.95L73.55 147.05L73.25 146.85H73.15H73.05H72.95V146.75H72.85H72.75L72.65 146.65H72.55V146.75H72.45L72.35 146.85H72.25V146.95H72.15H72.05H71.95H71.85H71.75L71.65 147.05V147.15V147.25V148.05L71.55 148.35V148.85V148.95V149.05V149.15V149.25H71.45L71.35 149.35L70.95 149.45L70.75 149.55L70.45 149.75H70.35L70.05 149.85H69.95V149.75V149.65L69.75 149.05L69.65 148.85H69.45L68.95 148.15L68.85 147.85L68.75 147.75V147.65L68.55 147.35V147.25H68.45L68.25 146.95L68.15 146.85L67.95 146.75V146.65L67.85 146.55V146.45V146.35V146.25H67.95L67.85 146.15L67.55 146.45L67.25 146.55L67.05 146.65H66.85H66.75L66.65 146.75H66.55L66.35 146.85H66.15L66.05 146.95L65.85 147.05L65.75 147.15H65.65H65.55L65.45 147.05V146.95H65.25L65.05 146.85V146.75V146.65V146.55V146.45L64.95 146.35V146.25V146.15V146.05V145.95H64.85L64.75 146.05H64.65H64.55H64.45L64.35 146.15H64.25H64.15H64.05H63.95H63.85H63.75H63.65L63.45 146.05H63.35V146.15H63.25H63.15H63.05H62.95L62.75 146.05L62.65 145.95H62.55V145.85H62.45V145.95L62.35 146.05L62.45 146.15L62.35 146.25V146.35V146.45L62.25 146.55V146.65V146.75L62.15 146.85V146.95H62.05V147.05V147.15V147.25V147.35L61.95 147.55V147.75L61.85 147.95V148.15L61.75 148.45L61.65 148.55L61.55 148.65H61.45H61.35V148.75H61.25V148.85L61.05 148.95L60.95 149.05H60.85L60.55 149.25L60.35 149.35V149.25H60.25L60.05 149.15L59.85 149.05L59.65 148.85H59.55L59.45 148.75L59.25 148.65L58.95 148.45H58.85V148.35H58.75H58.65L58.45 148.25H58.35H58.25H58.15L58.05 148.15H57.85L57.65 148.05L56.45 147.75H56.25L56.05 147.85L55.95 147.95H55.85H55.75H55.65H55.55H55.45H55.35H55.15H55.05L54.95 147.85H54.65H54.45V147.75V147.55V147.25V147.15V147.05L53.95 146.65L53.75 146.75H53.55V146.85V146.95V147.65V147.95L52.85 148.15L52.75 148.25L52.65 148.45V148.55L52.55 148.65V148.75H52.65V148.85V148.95H52.55H52.45H52.35H52.25H52.15L52.35 148.55L51.95 148.45H51.85V148.55H51.65H51.45L51.35 148.65H51.25H51.05H50.95H50.85H50.75H50.65L50.55 148.75H50.45H50.35H50.25H50.15H50.05H49.95H49.65L49.35 148.85H49.05L48.95 148.75V148.65L48.75 148.75L48.65 148.85L48.55 148.95V149.05L48.25 149.15H48.15L48.05 149.25H47.95H47.85L47.75 149.35H47.65H47.55L47.45 149.45H47.35L47.15 149.65H47.05V149.75H46.95L46.85 149.85H46.75L46.55 149.95H46.45H46.25L46.15 150.05V149.95H46.05H45.95V150.05H45.55H45.15V149.95H45.05H44.85H44.55H44.45H44.25L43.95 150.05H43.65H43.55V150.15H43.45H43.25H43.05H42.95V150.05H42.85H42.75H42.65H42.55H42.45H42.35H42.25H42.15L42.05 149.95H41.95V149.85H41.85V149.75H41.75V149.65H41.65H41.55H41.45H41.35L41.25 149.55H41.15L40.85 149.45H40.75H40.65H40.55V149.35H40.45H40.35H40.25H40.05L39.85 149.45H39.75H39.65H39.55H39.45H39.35H39.25L39.15 149.55H39.05H38.95L38.85 149.65L38.65 149.75L38.55 149.95L38.35 150.05H38.25V150.15H38.15H38.05H37.95V150.25H37.85H37.75H37.65L37.55 150.35H37.45H37.35H37.25H37.15H37.05H36.85H36.75H36.65H36.55H36.45H36.35H36.25H36.15V150.45H36.05L35.95 150.55V150.65H35.85V150.75V150.95V151.15H35.75L35.55 151.25H35.45H35.35H35.25H35.15V151.35H35.05H34.95H34.85H34.65H34.55H34.45H34.15L33.95 151.45H33.85H33.75H33.65H33.55H33.45H33.35L33.25 151.35L33.05 151.25H32.95V151.35V151.45V151.65V151.85V152.05V152.15H32.75H32.45L32.05 152.25V152.55V152.85V152.95H31.95V153.05L31.85 153.15L31.75 153.25L31.55 153.35V153.45H31.45H31.35V153.35H31.25H31.15H31.05L30.95 153.45H30.85H30.75H30.65V153.55L30.55 153.45H30.45V153.35H30.35H30.25H30.15V153.25L30.05 153.15V153.05H29.95V152.95H29.85L29.75 152.85V152.75H29.65V152.65L29.55 152.55V152.45H29.45V152.35H29.35V152.25L29.25 152.15H29.15V152.05H29.05V151.95H28.95V151.85V151.75H29.05V151.65H28.95V151.55H28.85V151.45H28.75V151.35L28.65 151.25V151.15H28.55H28.45H28.35V151.05H28.25H28.15V150.95H28.05L27.95 150.85H27.85V150.75H27.75V150.65H27.65H27.55L27.35 150.55H27.25H27.15V150.45H27.05H26.95H26.85L26.75 150.35H26.65L26.45 150.25H26.35V150.15V149.85L26.45 149.65V149.55V149.45V149.35H26.55L26.65 149.25V149.15H26.75H26.85L26.95 149.05V148.95H27.05V148.85H27.15V148.75H27.25L27.35 148.55L27.25 148.45V148.35H27.35V148.25V148.15L27.45 148.05V147.95V147.85V147.75H27.35L27.25 147.65L27.15 147.55L27.05 147.35H26.95L26.85 147.25H26.75H26.65H26.55H26.45L26.35 147.15H26.25H26.15H26.05L25.95 147.05V147.15L25.85 147.25V147.35L25.75 147.55V147.65H25.65L25.55 147.55H25.45V147.45H25.35H25.25L25.15 147.35H25.05H24.95H24.85V147.25H24.75H24.65H24.55L24.45 147.35V147.55L24.35 147.75V147.85L24.25 148.15V148.25H24.15V148.15H24.05V148.05H23.95V147.95H24.05H24.15V147.85H24.05V147.75H23.95H23.85V147.65V147.55V147.45H23.75H23.65V147.35H23.55V147.25H23.45H23.35V147.15V147.05V146.95H23.25V146.85H23.15V146.75V146.65H23.25V146.55V146.45H23.15V146.35V146.25H23.05H22.95V146.15V146.05H23.05V145.95V145.85H22.95H22.85V145.95H22.75V145.85V145.75H22.85V145.65V145.55H22.75V145.45H22.65V145.35H22.55V145.25V145.15V145.05H22.45H22.35V144.95V144.85H22.25H22.15V144.75H22.25L22.15 144.65V144.55H22.25V144.45L22.15 144.35V144.25H22.25L22.35 144.15H22.45L22.35 144.05H22.45V143.95V143.85H22.35V143.75H22.25H22.15V143.65L22.05 143.55V143.45V143.35H22.15V143.25V143.15L22.25 143.05H22.15V142.95H22.05V142.85H21.95H21.85V142.75V142.65V142.55V142.45V142.35V142.25V142.15V142.05H21.75V141.95H21.65L21.55 141.85L21.65 141.75L21.75 141.65V141.55L21.85 141.45V141.35H21.95V141.25L22.05 141.15V141.05V140.95H22.15L22.25 140.85V140.75L22.35 140.65V140.55H22.25H22.15L22.05 140.45H21.95L21.85 140.55L21.75 140.65H21.55L21.45 140.75V140.65H21.35H21.25H21.15H21.05V140.75H20.95H20.85V140.65V140.55V140.35H20.75V140.25H20.65H20.55V140.15H20.45V140.05H20.35V139.95L20.25 139.85H20.15V139.75H20.05L19.95 139.65H19.85V139.55V139.45H19.75V139.35L19.65 139.25H19.55H19.45H19.35H19.25H19.15V139.35V139.45V139.55V139.65V139.75H19.25V139.85H19.15H19.05H18.95H18.85V139.95H18.75H18.65H18.55L18.45 139.85V139.75H18.35V139.65H18.45V139.55V139.45V139.35H18.55V139.25V139.15V138.95V138.75H18.45V138.65V138.55V138.45V138.35V138.15V138.05V137.95V137.85V137.75V137.65V137.55V137.45V137.35V137.25H18.65H18.85V137.15H18.95V137.05V136.95V136.85V136.75H18.85V136.65V136.55V136.45H18.95H19.05V136.35H19.15H19.25V136.25H19.35L19.45 136.35H19.55V136.25H19.65H19.75L19.85 136.15V136.05H19.75V135.95V135.85L19.65 135.75V135.65L19.55 135.55H19.45V135.45H19.35V135.35V135.25V135.15V135.05L19.25 134.95V134.85V134.75V134.65V134.55V134.45V134.35V134.25V134.15H19.15V134.05V133.95V133.85V133.75V133.65V133.55V133.45V133.35H19.05H18.95V133.25H18.85V133.15H18.75V133.05V132.95H18.65V132.85V132.75V132.65H18.55V132.55V132.45H18.45V132.35V132.25V132.15V132.05V131.95H18.35V131.85V131.75V131.65V131.55V131.45V131.35V131.25H18.45H18.55H18.65H18.75H18.85L18.95 131.15H19.05V131.05H19.15V130.95V130.85V130.75H19.25V130.65H19.35H19.45H19.55L19.65 130.55V130.65H19.75L19.85 130.75H19.95H20.05H20.15H20.25V130.85H20.35L20.45 130.95H20.55L20.65 131.05H20.75V131.15H20.85L20.95 131.25H21.05V131.35H21.15L21.25 131.45H21.35V131.55H21.45L21.55 131.65H21.65L21.75 131.55V131.45L21.85 131.35L21.95 131.25V131.15V131.05H22.05V130.95L22.15 130.85L22.25 130.75V130.65L22.35 130.55L22.45 130.35L22.55 130.25L22.65 130.15V130.05L22.75 129.95V129.85L22.85 129.75L22.95 129.65L23.05 129.45L23.15 129.35V129.25H23.25H23.35V129.35H23.45H23.55V129.45H23.65H23.75V129.55H23.85H23.95H24.05V129.65V129.75V130.05L23.95 130.15H24.55H24.65V130.05V129.95H24.75V129.85H24.85V129.75V129.65V129.55H24.95H25.05V129.45H25.15V129.35V129.25H25.05V129.15H24.95V129.05H25.05V128.95H24.95V128.85H25.05V128.75V128.65V128.55H25.15V128.45H25.25L25.15 128.35V128.25V128.15H25.05V128.05V127.95V127.85H24.95V127.75H24.85V127.65V127.55H24.95V127.45H25.05V127.35L24.95 127.25H25.05V127.15V127.05H24.95V126.95V126.85H24.85V126.75V126.65H24.75L24.65 126.55V126.45V126.35H24.55V126.25V126.15V126.05H24.45L24.25 125.95H24.05H23.95V125.85H23.65H23.55L23.45 125.75H23.25L23.05 125.65H22.95H22.85L22.65 125.55H22.45H22.35L22.15 125.45L21.85 125.35L22.15 124.85L22.35 124.45L22.45 124.35V124.25L22.55 124.15V124.05L22.45 123.95H22.35H22.25V123.75V123.65L22.35 123.35H22.45H22.55H22.65V123.15V123.05H22.75H22.85H22.95H23.05V122.95L22.35 122.45L22.45 122.15V121.65H22.55H22.65V121.55L22.75 121.45L22.65 121.35L22.75 121.05L22.65 120.95V120.85V120.75V120.65H22.75H22.85V120.75H22.95V120.85H23.15H23.55V120.65H23.65V120.15H24.15L24.65 120.05H24.75L24.85 119.85V119.75H24.95V119.65V119.55L25.05 119.45H24.95L24.85 119.35V119.25H24.75V119.15H24.65V119.05L24.45 118.95V118.85H24.35L24.25 118.75V118.65V118.55L24.35 118.45V118.35H24.25V118.25V118.15V118.05H24.35L24.25 117.95V117.85V117.75V117.65V117.55V117.45V117.35V117.25V117.15V117.05L24.35 116.95H24.25V116.85L24.05 116.95H23.95L23.75 117.05L23.15 117.25H23.05L22.95 117.35L23.05 117.75L23.15 118.25V118.55L22.55 118.75L22.25 118.85H22.15V118.55V118.45V118.35V117.75V117.65V117.25H22.25V117.05V116.95V116.85V116.75V116.65V116.55V116.45H22.15V116.55H22.05H21.95V116.65H21.85V116.75H21.75V116.85H21.65V116.75V116.65H21.55H21.45V116.55H21.55H21.65V116.45V116.35H21.55V116.25V116.15V116.05V115.95V115.85V115.75V115.65V115.55H21.45V115.45V115.35V115.25H21.35H21.25V115.15H21.15H21.05H20.95H20.85H20.75V115.05V114.95V114.85V114.75V114.55V114.45V114.25V114.15V114.05L20.85 113.95L20.95 114.05H21.05V113.85V113.75V113.65V113.55L21.15 113.45V113.35V113.25V113.15V113.05V112.95V112.85L21.05 112.75V112.65V112.55L20.95 112.25V112.15V112.05V111.85V111.75H20.85H20.75H20.65H20.55H20.45H20.25H20.15H20.05H19.95L19.85 111.85V111.95L19.75 112.05V112.15H19.65V112.25H19.55H19.45H19.35V112.35V112.45V112.55V112.65H19.25H19.15V112.75L19.05 112.85H18.95V112.75H18.85H18.75H18.65H18.55H18.25H18.15V112.85V112.95L18.05 113.05V113.15L17.95 113.25V113.35L17.85 113.45V113.55L17.75 113.65V113.75L17.65 113.85V113.95L17.55 114.05V114.15H17.45V114.25V114.35L17.35 114.45H17.25H17.15L17.05 114.35H16.95V114.25H16.85L16.75 114.15H16.65L16.55 114.05L16.45 113.95L16.35 113.85H16.25L16.15 113.75H16.05V113.65H15.95L15.85 113.55L15.75 113.45H15.65L15.55 113.35H15.45V113.25V113.15L15.35 113.05V112.95V112.85L15.25 112.75L15.15 112.55L15.05 112.35V112.25V112.15V112.05V111.95V111.85H14.05V111.75L13.15 111.55V111.15L13.25 110.85V110.45H13.05H12.75H12.65H12.45L12.15 110.35V110.45V110.55V110.75H12.05V110.65H11.95V110.55H11.85H11.75V110.45L11.65 110.35L11.55 110.25V110.15H11.45V110.05H11.35V109.95H11.25L11.15 109.85V109.75H11.05V109.65H10.95V109.55V109.45H10.85V109.55H10.75V109.45H10.65L10.55 109.35L10.75 109.15L10.95 109.25L11.05 109.35H11.15H11.25H11.35L11.45 109.15H11.35L11.25 109.05H11.15V108.95H11.25H11.35H11.45H11.55H11.65V108.85H11.75V108.95H11.85V108.85H11.95V108.65V108.55H11.85V108.45V108.25V108.05V107.95L11.75 107.85L11.55 107.75L11.15 107.55L10.65 107.05L10.45 106.95H10.35L10.25 106.85L9.54999 106.35V106.25H9.44998L9.34998 106.15H9.25V106.05H9.14999V105.95H9.04999H8.94998V106.05H8.64999H8.54999L8.25 105.95L8.14999 105.85L7.94998 105.95H7.75H7.64999H7.54999H7.44998V105.85L7.14999 105.95H7.04999H6.94998V106.05H6.75V105.95L6.64999 105.85V105.75V105.55L6.54999 105.45V105.35L6.64999 105.25V105.15L6.75 105.05L6.84998 104.85H6.94998V104.75V104.65L7.04999 104.25V104.15V103.95V103.75V103.65V103.55V103.45H6.94998V103.35V103.25H7.04999V103.15L6.54999 102.85L6.25 102.65L6.14999 102.55H5.94998H5.84998L5.25 102.15L4.94998 102.05L4.75 101.95V101.85H4.64999H4.54999L4.44998 101.75L4.25 101.65H4.14999L3.94998 101.55L3.75 101.35H3.54999L3.34998 101.15L3.54999 100.35L3.64999 99.65V99.55L3.75 99.35V99.25V99.05L3.84998 98.85V98.75V98.65L3.94998 98.45L4.14999 98.35V98.25L4.25 98.15V98.05L4.34998 97.95V97.85L4.44998 97.75L4.54999 97.55L4.64999 97.45V97.35H4.75V97.25H4.84998L4.94998 97.05V96.95L5.04999 96.85V96.75L5.25 96.45L5.34998 96.35L5.44998 96.25V96.15V96.05H5.54999V95.95V95.85V95.75H5.44998V95.45V95.35V95.25V95.15V95.05V94.95V94.85V94.75V94.65V94.55L5.54999 94.45V94.35L5.64999 94.25V94.15L5.75 94.05V93.95H5.84998V93.85V93.75L5.94998 93.65V93.55V93.45V93.35V93.25L5.84998 93.15H5.75H5.64999L5.54999 93.25V93.15H5.44998H5.34998L5.25 93.25H5.14999H5.04999L4.94998 93.35L4.84998 93.45H4.75H4.64999L4.54999 93.35H4.34998H4.25V93.25V93.15H4.14999L4.04999 93.05V92.95V92.85L3.94998 92.75L4.04999 92.05V91.95L3.84998 91.65L3.64999 91.55H3.54999L3.25 91.35L2.94998 91.15L2.75 91.05L2.44998 90.85H2.34998H2.25L2.14999 90.75V90.65V90.55L2.04999 90.45H1.94998L1.84998 90.35H1.64999L1.44998 90.25L1.34998 90.15H1.25V90.05V89.95L1.14999 89.75V89.55V89.45V89.35L1.04999 89.25V89.15V89.05H0.949982V88.95L0.849976 88.85V88.75L0.75 88.55V88.45V88.35V88.25V88.15V87.95V87.85V87.75H0.849976L0.949982 87.65H1.04999H1.25H1.44998V87.55L1.84998 87.45H2.14999H2.25H2.34998H2.44998V87.25L2.25 86.95L2.04999 86.65L1.94998 86.25L1.75 85.95L1.64999 85.75V85.65V85.55H1.75V85.45V85.35V85.25H1.84998L1.94998 85.05L2.04999 84.85V84.75V84.65V84.55V84.45H2.14999V84.25H2.04999L1.84998 84.15L1.75 84.05H1.54999V83.95H1.44998L1.34998 83.85V83.75H1.25H1.14999H1.04999L0.949982 83.55L0.849976 83.35L0.75 83.25V83.15H0.649994H0.549988H0.449982H0.349976V83.05V82.95V82.85L0.25 82.75V82.65H0.349976V82.55H0.449982H0.549988V82.65H0.649994H0.75H0.849976H0.949982V82.55H1.04999H1.14999V82.45V82.35H1.04999H0.949982V82.25V82.15V82.05H1.04999H1.14999V81.95L1.25 81.85V81.75H1.34998H1.44998V81.65H1.54999V81.55H1.44998H1.34998V81.45V81.35H1.25V81.25H1.34998V81.15H1.44998V81.05H1.54999V80.95V80.85V80.75V80.65H1.44998V80.55H1.54999V80.45V80.35V80.25V80.15H1.44998L1.34998 80.05H1.25H1.14999H1.04999V79.95V79.85H0.949982V79.75H1.04999V79.65V79.55V79.45H1.14999H1.25V79.35H1.34998V79.25H1.44998H1.54999V79.15H1.64999V79.25H1.75V79.15H1.94998L2.04999 78.95L2.25 79.15L2.44998 78.95H2.84998L2.94998 78.85L3.14999 78.95V78.85L3.25 78.75V78.55L3.34998 78.35V78.25V78.15V78.05L3.44998 77.95V77.85V77.75H3.54999V77.65L3.64999 77.55H3.54999V77.45V77.35H3.44998V77.25H3.54999H3.64999V77.15V77.05H3.75H3.84998V76.95H3.94998V76.85V76.75H3.84998V76.65V76.55V76.45H3.94998V76.35H4.04999V76.25V76.15L4.14999 76.05H4.25V75.95H4.34998V75.85H4.44998H4.54999V75.75V75.65V75.55V75.45V75.35V75.25H4.64999V75.15L4.75 75.05V74.95H4.64999V74.85V74.75V74.65H4.54999V74.55H4.44998V74.45V74.35V74.25H4.54999V74.15V74.05H4.44998V73.95H4.34998H4.25V73.85H4.34998V73.75H4.25V73.65V73.55H4.14999V73.45V73.35V73.25H4.04999V73.15H4.14999V73.05V72.95V72.85H4.25V72.75H4.34998V72.65V72.55H4.44998V72.45V72.35V72.25V72.15V72.05V71.95V71.85V71.75H4.34998H4.25H4.14999H4.04999V71.85H3.94998V71.75H3.84998V71.65V71.55V71.45H3.75H3.64999V71.35H3.54999H3.44998H3.34998V71.25H3.25H3.14999H3.04999L2.94998 71.15H3.04999V71.05V70.95H2.94998V70.85V70.75V70.65V70.55V70.45V70.15L3.04999 69.45L2.75 69.25L2.64999 69.15V69.05V68.65V68.55V68.45H2.75V68.35V68.25V68.15H2.64999V68.05V67.95V67.85H2.75L2.84998 67.75V67.65V67.55V67.45V67.35V67.25V67.15V67.05V66.95V66.85L2.94998 66.75V66.65L3.04999 66.55H2.94998V66.45H2.84998V66.35V66.25V66.15H2.75V66.05V65.95H2.64999H2.54999V65.85V65.75V65.65H2.64999V65.55V65.45V65.35V65.25H2.75V65.15V65.05H2.84998V64.95V64.85H2.94998V64.75H3.04999V64.65V64.55H3.14999V64.45H3.25V64.35H3.34998V64.25V64.15L3.25 63.95L3.14999 63.25L3.34998 62.85L3.54999 62.35L3.25 62.15L3.34998 61.95L3.44998 61.75L3.54999 61.65V61.55L3.64999 61.35H3.75V61.15H3.64999L3.54999 61.05V60.95H3.44998L3.34998 60.85L3.25 60.75H3.14999L3.04999 60.65H2.94998L2.84998 60.55L2.64999 60.35V60.25V60.15V60.05L2.54999 59.95V59.85H2.44998H2.34998L2.25 59.95V59.85H2.14999V59.95H2.04999V59.85H1.94998V59.75V59.65V59.55L1.84998 59.45H1.75V59.35V59.25V59.15V59.05L1.64999 58.85V58.75H1.75L1.84998 58.55L1.94998 58.35L2.14999 58.45L2.34998 58.25L2.54999 58.15L2.75 58.05L2.84998 57.85H2.75H2.64999V57.75V57.55L2.75 57.45V57.35L2.84998 57.25L2.75 57.15L2.54999 57.05V56.95H2.64999L2.44998 56.85L2.04999 56.65V56.35H2.14999V56.25V56.15V56.05V55.85L2.04999 55.75V55.65H2.14999V55.55L1.94998 55.25L1.84998 54.95H1.75V54.85L1.64999 54.75V54.65L1.54999 54.45L1.44998 54.35V54.25L1.25 53.95L1.14999 53.85V53.75H1.04999V53.65V53.55V53.45V53.35V53.25L0.849976 52.85L1.25 52.65L1.44998 52.45L1.64999 52.15L2.25 52.25V52.15V51.45L2.34998 51.35V51.15V51.05L2.14999 50.95V50.85L2.04999 50.75L1.94998 50.65V50.45H1.84998L2.25 50.35H3.04999H3.25H3.44998L3.94998 50.25H4.34998H4.75V50.15L4.84998 49.65L5.14999 49.55H6.44998L7.25 49.45L7.14999 49.25L6.84998 48.75V48.65V48.45V48.15L6.94998 47.95V47.85V47.75L7.14999 47.45V47.35V47.25V47.05L7.04999 46.75L7.14999 46.25L7.25 46.35L7.64999 46.15V46.05L7.75 45.75H7.84998H7.94998H8.14999L8.44998 45.85H8.75L8.64999 45.15H8.94998L9.34998 45.05L9.25 44.45L9.14999 44.05L9.44998 43.85L9.34998 43.35L9.25 42.55V41.95L9.14999 41.55V41.35H9.25H9.54999V41.25H9.64999L9.94998 41.05V40.95L9.64999 40.45L10.05 40.05L10.25 39.75L10.85 39.25V39.15L10.75 39.05L11.05 38.35L11.15 38.25L11.25 37.75L11.15 37.65L11.05 37.45V36.85V36.75L11.75 36.65L12.65 35.55L12.75 35.45L12.85 35.25L13.15 34.95H13.25L13.95 34.85V34.75V34.65V34.55L14.05 34.45V34.35V34.25L14.15 34.15V34.05V33.85L14.65 33.75V33.55L14.55 33.35L14.45 33.25H14.35L14.25 33.15V33.05L14.15 32.95H14.05H13.75V32.85V32.65V32.55L13.45 32.45L13.35 32.05H13.75L13.55 31.85L13.65 31.75H13.75H13.85L14.05 31.65L13.95 31.45V31.35L13.75 30.85L13.45 30.15L13.25 28.95L13.15 28.65L13.05 27.85H13.15H13.25L13.55 27.75H13.65L14.05 27.65H14.55L15.05 27.55H15.15H15.25V27.45H15.35H15.45H15.55L15.75 27.25L15.85 27.15L15.95 26.95H16.05V26.85L16.25 26.55L16.45 26.15L16.55 25.85H16.65L17.15 25.35V25.25V25.05V24.95L17.45 24.35L17.35 24.05L17.25 23.85L17.35 23.35L16.25 22.85H16.15L15.95 22.75H15.75V22.65V22.55V22.25V22.05V21.95L15.65 19.95L15.85 19.55L15.95 19.15V18.85V18.75L16.05 18.55L16.25 17.75V17.65V16.95V16.45H16.35H16.45H16.55L16.85 16.35H16.95H17.05H17.15H17.35H17.55H17.75V16.45L17.65 16.55L17.55 16.75L17.35 17.15L17.45 17.35L17.55 17.45V17.55V17.65H17.65V17.85V17.95V18.05V18.15V18.25V18.35L17.95 18.55L18.75 19.05H18.85L19.35 19.25L19.45 19.35V19.45L19.55 19.55L19.65 19.65H19.75V19.75H19.85L19.95 19.85L20.15 19.95L20.25 20.05V20.15V20.55L21.05 20.45H21.35L21.75 20.35V19.85L21.25 19.45L21.35 19.05L21.05 18.85V18.15L20.15 18.25V18.05V17.55V17.25L20.05 15.95V15.85V15.75V15.65V15.55V15.15V14.25H20.55L22.25 13.95L23.45 12.75L23.55 12.35L23.85 12.55H23.95H24.05L24.15 12.65L24.45 12.75L24.35 13.15L24.45 13.35L24.65 13.75L25.25 14.55L26.15 15.15L26.85 15.45L27.65 15.35L28.15 14.85L28.35 14.65L30.25 11.95L30.55 11.65L30.75 11.15L30.95 10.55L31.05 10.25L31.15 9.95V9.85001H31.25H31.35H31.45H31.55H31.75H31.95H32.05L32.15 9.75H32.25H32.35H32.45H32.55H32.85V9.65H32.95L33.05 9.55L33.25 9.45L33.35 9.35001H33.45V9.25L33.55 9.15H33.65V9.05V8.95V8.85001V8.75H33.55V8.65H33.45V8.55V8.45H33.35H33.25V8.55H33.15V8.45V8.35001H33.25V8.25H33.15V8.15V8.05H33.05H32.95V7.95H33.05V7.85001H33.15V7.75H33.05V7.65V7.55L32.95 7.45H32.85V7.35001V7.25V7.15H32.75V7.05V6.95V6.85001H32.65V6.75H32.55V6.65L32.65 6.55L32.55 6.45L32.45 6.35001V6.25V6.15L32.55 5.95V5.85001H32.65V5.55V5.05V4.75V4.65L32.75 4.55V4.45L32.85 4.35001L32.95 4.25V4.15L33.05 4.05L33.15 3.85001V3.75L33.05 3.65H32.95H32.85V3.55H32.75L32.65 3.45L32.75 3.35001L33.85 3.15L34.95 3.75L37.25 6.25L38.05 7.15L38.45 7.35001L38.95 7.65L39.45 7.75L39.85 7.85001H44.85L45.75 7.55L47.05 6.45L48.35 3.95H48.45H48.55L48.65 4.05H48.75L48.85 3.85001V3.75L49.05 3.55V3.45H49.15V3.35001V3.25L49.25 3.15L49.35 3.05L49.45 2.95V2.85001L49.55 2.75L49.65 2.65V2.45H49.75V2.35001L49.85 2.25V2.15V2.05V1.95L49.75 1.85001V1.75V1.65L50.75 0.75L51.85 0.25H52.85L53.65 1.15L53.85 1.95L53.75 2.65L53.85 3.35001L54.25 4.25L54.85 4.85001L56.35 5.85001L56.95 6.55L57.25 7.35001L57.85 9.55L58.05 10.25L58.75 10.55L59.35 10.15L60.65 8.85001L63.25 7.15L64.55 6.75L65.85 6.65L70.45 7.65L71.75 8.15L72.15 9.35001L72.25 10.95L73.05 15.45L73.35 16.65L73.85 17.45L74.75 17.85L75.45 17.55L76.05 17.15H76.15H76.55H76.75L77.15 18.15L77.45 19.65L78.05 20.55L78.95 19.55L79.05 18.95V19.05V19.15V19.25V19.35H79.15V19.45H79.25L79.45 19.05L79.65 18.85L79.75 18.65L79.85 18.45V18.15L79.95 17.95V17.75V17.65L80.05 17.35L80.15 17.05V16.95V16.85V16.75L80.25 16.55H80.55V16.25L80.45 16.05L80.35 15.95V15.75V15.35L80.25 15.05V14.95V14.85V14.75H80.35V14.65H80.25V14.55H80.15V14.45V14.35H80.05L79.95 14.25L79.85 14.15L79.65 13.95V13.75V13.65V13.55L79.75 13.45L79.85 13.25V13.15L79.95 13.05L80.05 12.85L80.25 12.55V12.35L80.45 12.15L80.55 11.85L80.65 11.65V11.55L80.75 11.25L80.95 10.95V10.75L81.05 10.65V10.55L81.55 9.85001L83.25 8.65L84.85 7.75L86.25 7.45H89.35L90.75 6.95L90.85 6.75H90.95L91.05 6.65H91.15H91.35H91.45L91.55 6.55H91.65H91.75L91.85 6.35001L92.05 6.25L92.15 6.15L92.45 5.85001L92.55 5.75H92.65L92.75 5.65L92.85 5.55V5.45H92.95L93.15 5.25H93.25V5.15V5.05V4.95H93.35V4.75L93.45 4.65V4.55L93.55 4.45L93.65 4.35001V4.25L93.75 4.15L93.85 4.05L93.95 3.95L94.05 3.85001H94.15V3.75L94.25 3.65L94.35 3.45L94.45 3.35001V3.25V3.15V3.05L94.55 2.95V2.85001H94.65L94.75 2.75V2.65V2.55H94.85V2.45H94.95H95.05V2.35001H95.15V2.25H95.25H95.35V2.15H95.45H95.55H95.65H95.75H95.85H95.95H96.05H96.15H96.25L96.35 2.05L97.95 2.35001L99.15 3.15L99.75 4.15L100.85 7.15L102.55 9.65L103.15 10.95L103.35 13.15L102.85 15.25L103.15 16.15L104.05 16.75L105.05 17.95L105.65 19.55L106.05 21.35L106.65 22.75L107.85 23.45L108.85 23.05L109.55 22.45L109.85 22.25ZM24.55 12.55L24.45 11.95L24.35 11.75V11.65L24.25 11.15L24.35 11.25L24.45 11.35L24.65 11.65L24.85 11.75L24.55 12.55Z" fill="#220F0F"/>
<path d="M120.35 71.15H120.25V71.25H120.15H120.05V71.15H119.95V71.05H119.85H119.75H119.65H119.55H119.45H119.35L119.25 70.95H119.15L119.05 70.85H119.15V70.75H119.05H118.95H118.85H118.75H118.65H118.55V70.85L118.45 70.95H118.35V71.05H118.25H118.15H118.05H117.95H117.85H117.75H117.65V71.15H117.55V71.25H117.45L117.35 71.35V71.45H117.25L117.15 71.55H117.05V71.45H116.95L116.85 71.35H116.75H116.65V71.25H116.55V71.35H116.45L116.35 71.25H116.45V71.15H116.35H116.25L116.15 71.05H116.05H115.95H115.85H115.65V70.85H115.75L116.15 70.95H116.35L116.55 70.85H116.75L116.85 70.75L116.95 70.85H117.05H117.15H117.25H117.35L117.45 70.75V70.65V70.55V70.45V70.35V70.25H117.35H117.25V70.15V70.05V69.95H117.35H117.45H117.55V69.85H117.65H117.75V69.75H117.85V69.65H117.95V69.55H118.05V69.45H117.95L117.85 69.25L117.75 69.35H117.65L117.45 69.25L117.35 69.15L117.25 69.05L117.05 68.85H116.95V68.75H116.85L116.75 68.65L116.45 68.25L116.65 68.05L116.45 67.95L116.35 67.85L116.95 67.35H117.05H117.15H117.25L117.75 67.45L118.05 67.55L118.45 67.65L118.65 67.75L118.85 67.85H119.35V67.75L119.25 67.45L119.15 67.15L119.05 66.55L118.65 66.45L118.45 66.85L118.35 66.95L117.95 66.65L117.15 66.15L116.75 65.85L116.85 65.75L116.95 65.45L117.05 65.35V65.25L117.25 64.95L117.35 64.65L117.45 64.55L117.65 64.05L117.85 63.65L117.95 63.55V63.35L117.85 62.95L117.75 62.75L117.55 62.55V62.45H117.45V62.35L117.25 62.25L117.15 62.05L117.05 61.95L116.95 61.85L116.35 61.65L116.25 61.55L116.15 61.45L115.95 61.15V61.05L115.85 60.95H115.75L115.55 60.65V60.55H115.45L115.65 59.65L115.55 59.45V59.35H115.45V59.25L115.35 58.95L115.25 58.85L115.05 58.65L114.95 58.55L114.75 58.35L114.45 57.95L114.25 57.85L114.05 57.65L113.95 57.55L113.85 57.45L113.65 57.25V57.15L113.55 57.25H113.45L112.95 57.05L112.45 56.95L112.55 55.55V55.35V54.75V54.35V54.05L113.05 53.95H113.15L113.25 53.85H113.65L113.95 53.75H114.05L114.15 53.85L114.35 53.95L114.75 54.15H114.85L114.95 54.25L115.25 54.35L115.65 54.55V54.45L115.35 54.15V54.05L115.25 53.95V53.85V53.75L115.15 53.35V53.05V52.95V52.65V52.55V52.45L115.25 52.35V52.25V52.15H115.35V52.05L115.25 51.85V51.75L115.15 51.65V51.55V51.35H115.25V51.25L115.45 50.95L115.75 50.45L115.65 50.35L115.85 50.15L116.05 49.85V49.75H116.15L116.25 49.65L117.55 47.95H117.45L117.35 47.85V47.75L117.25 47.65L116.95 47.35V47.25L116.75 47.15L116.65 46.95H116.55L116.45 46.85H116.35L116.25 46.75H116.15L116.05 46.65L115.95 46.55H115.85L115.75 46.45L115.65 46.35V46.25H115.55L115.45 46.15V46.05H115.35V45.95H115.25L115.15 45.85H115.05V45.75H114.95L114.85 45.65L114.75 45.55L114.55 45.15L114.15 44.55L114.05 44.25L113.75 43.75L113.55 43.35L113.35 43.05L113.25 42.85L113.15 42.75L113.05 42.65L112.65 42.45V42.35H112.55H112.45L112.15 42.05L111.85 41.85L111.75 41.75L110.85 41.15L110.65 40.95L110.45 40.85L110.15 40.65L110.05 40.55L109.95 40.45L109.75 40.25L109.45 40.15L109.25 39.95L108.55 40.15H108.35V40.25V41.05V41.15V41.25V42.15L108.25 42.75L108.05 42.65H107.95H107.85V42.55L107.65 42.25L107.45 41.65L107.35 41.25L107.25 40.55L107.15 40.45V40.35V40.15H107.05V40.05V39.95V39.85L106.95 39.45L106.85 39.05L106.75 38.45L106.65 38.35V38.25V38.05L106.45 37.05L106.35 36.85L106.25 36.55L106.05 35.55L105.95 35.05V34.95V34.85L105.85 34.75V34.55V34.45V34.35L105.65 33.95V33.75V33.45L105.45 32.85L105.35 32.55V32.25L105.25 31.95L105.15 31.55L105.35 31.45L106.25 31.15L106.45 31.05L106.75 30.85H106.85H106.95V30.95H107.05V31.05H107.15H107.25V30.85V30.75L107.35 30.65H107.45L107.75 30.75H107.85H107.95L108.05 30.65H108.15H108.25H108.35V30.55L108.45 30.45V30.65L108.35 30.85L108.25 30.95V31.05H108.35H108.45H108.55V31.15H108.65L108.75 31.05H108.95L109.05 30.95H109.15L109.45 30.85L109.55 30.75L109.75 30.55L109.95 30.25L110.05 29.85L110.35 29.45L110.75 28.85L111.25 27.95L111.75 26.95V26.85L111.65 26.45L111.55 25.95V25.55V25.45L111.45 25.35V25.25V25.05L111.55 24.45V23.55V22.65V22.25L110.95 22.35L110.05 22.55H109.85V22.35V22.25L109.55 22.45L108.85 23.05L107.85 23.45L106.65 22.75L106.05 21.35L105.65 19.55L105.05 17.95L104.05 16.75L103.15 16.15L102.85 15.25L103.35 13.15L103.15 10.95L102.55 9.65L100.85 7.15L99.75 4.15L99.15 3.15L97.95 2.35001L96.35 2.05L96.25 2.15H96.15H96.05H95.95H95.85H95.75H95.65H95.55H95.45H95.35V2.25H95.25H95.15V2.35001H95.05V2.45H94.95H94.85V2.55H94.75V2.65V2.75L94.65 2.85001H94.55V2.95L94.45 3.05V3.15V3.25V3.35001L94.35 3.45L94.25 3.65L94.15 3.75V3.85001H94.05L93.95 3.95L93.85 4.05L93.75 4.15L93.65 4.25V4.35001L93.55 4.45L93.45 4.55V4.65L93.35 4.75V4.95H93.25V5.05V5.15V5.25H93.15L92.95 5.45H92.85V5.55L92.75 5.65L92.65 5.75H92.55L92.45 5.85001L92.15 6.15L92.05 6.25L91.85 6.35001L91.75 6.55H91.65H91.55L91.45 6.65H91.35H91.15H91.05L90.95 6.75H90.85L90.75 6.95L89.35 7.45H86.25L84.85 7.75L83.25 8.65L81.55 9.85001L81.05 10.55V10.65L80.95 10.75V10.95L80.75 11.25L80.65 11.55V11.65L80.55 11.85L80.45 12.15L80.25 12.35V12.55L80.05 12.85L79.95 13.05L79.85 13.15V13.25L79.75 13.45L79.65 13.55V13.65V13.75V13.95L79.85 14.15L79.95 14.25L80.05 14.35H80.15V14.45V14.55H80.25V14.65H80.35V14.75H80.25V14.85V14.95V15.05L80.35 15.35V15.75V15.95L80.45 16.05L80.55 16.25V16.55H80.25L80.15 16.75V16.85V16.95V17.05L80.05 17.35L79.95 17.65V17.75V17.95L79.85 18.15V18.45L79.75 18.65L79.65 18.85L79.45 19.05L79.25 19.45H79.15V19.35H79.05V19.25V19.15V19.05V18.95L78.95 19.55L78.05 20.55L77.45 19.65L77.15 18.15L76.75 17.15H76.55H76.15H76.05L75.45 17.55L74.75 17.85L73.85 17.45L73.35 16.65L73.05 15.45L72.25 10.95L72.15 9.35001L71.75 8.15L70.45 7.65L65.85 6.65L64.55 6.75L63.25 7.15L60.65 8.85001L59.35 10.15L58.75 10.55L58.05 10.25L57.85 9.55L57.25 7.35001L56.95 6.55L56.35 5.85001L54.85 4.85001L54.25 4.25L53.85 3.35001L53.75 2.65L53.85 1.95L53.65 1.15L52.85 0.25H51.85L50.75 0.75L49.75 1.65V1.75V1.85001L49.85 1.95V2.05V2.15V2.25L49.75 2.35001V2.45H49.65V2.65L49.55 2.75L49.45 2.85001V2.95L49.35 3.05L49.25 3.15L49.15 3.25V3.35001V3.45H49.05V3.55L48.85 3.75V3.85001L48.75 4.05H48.65L48.55 3.95H48.45H48.35L47.05 6.45L45.75 7.55L44.85 7.85001H39.85L39.45 7.75L38.95 7.65L38.45 7.35001L38.05 7.15L37.25 6.25L34.95 3.75L33.85 3.15L32.75 3.35001L32.65 3.45L32.75 3.55H32.85V3.65H32.95H33.05L33.15 3.75V3.85001L33.05 4.05L32.95 4.15V4.25L32.85 4.35001L32.75 4.45V4.55L32.65 4.65V4.75V5.05V5.55V5.85001H32.55V5.95L32.45 6.15V6.25V6.35001L32.55 6.45L32.65 6.55L32.55 6.65V6.75H32.65V6.85001H32.75V6.95V7.05V7.15H32.85V7.25V7.35001V7.45H32.95L33.05 7.55V7.65V7.75H33.15V7.85001H33.05V7.95H32.95V8.05H33.05H33.15V8.15V8.25H33.25V8.35001H33.15V8.45V8.55H33.25V8.45H33.35H33.45V8.55V8.65H33.55V8.75H33.65V8.85001V8.95V9.05V9.15H33.55L33.45 9.25V9.35001H33.35L33.25 9.45L33.05 9.55L32.95 9.65H32.85V9.75H32.55H32.45H32.35H32.25H32.15L32.05 9.85001H31.95H31.75H31.55H31.45H31.35H31.25H31.15V9.95L31.05 10.25L30.95 10.55L30.75 11.15L30.55 11.65L30.25 11.95L28.35 14.65L28.15 14.85L27.65 15.35L26.85 15.45L26.15 15.15L25.25 14.55L24.65 13.75L24.45 13.35L24.35 13.15L24.45 12.75L24.15 12.65L24.05 12.55H23.95H23.85L23.55 12.35L23.45 12.75L22.25 13.95L20.55 14.25H20.05V15.15V15.55V15.65V15.75V15.85V15.95L20.15 17.25V17.55V18.05V18.25L21.05 18.15V18.85L21.35 19.05L21.25 19.45L21.75 19.85V20.35L21.35 20.45H21.05L20.25 20.55V20.15V20.05L20.15 19.95L19.95 19.85L19.85 19.75H19.75V19.65H19.65L19.55 19.55L19.45 19.45V19.35L19.35 19.25L18.85 19.05H18.75L17.95 18.55L17.65 18.35V18.25V18.15V18.05V17.95V17.85V17.65H17.55V17.55V17.45L17.45 17.35L17.35 17.15L17.55 16.75L17.65 16.55L17.75 16.45V16.35H17.55H17.35H17.15H17.05H16.95H16.85L16.55 16.45H16.45H16.35H16.25V16.95V17.65V17.75L16.05 18.55L15.95 18.75V18.85V19.15L15.85 19.55L15.65 19.95L15.75 21.95V22.05V22.25V22.55V22.65V22.75H15.95L16.15 22.85H16.25L17.35 23.35L17.25 23.85L17.35 24.05L17.45 24.35L17.15 24.95V25.05V25.25V25.35L16.65 25.85H16.55L16.45 26.15L16.25 26.55L16.05 26.85V26.95H15.95L15.85 27.15L15.75 27.25L15.55 27.45H15.45H15.35H15.25V27.55H15.15H15.05L14.55 27.65H14.05L13.65 27.75H13.55L13.25 27.85H13.15H13.05L13.15 28.65L13.25 28.95L13.45 30.15L13.75 30.85L13.95 31.35V31.45L14.05 31.65L13.85 31.75H13.75H13.65L13.55 31.85L13.75 32.05H13.35L13.45 32.45L13.75 32.55V32.65V32.85V32.95H14.05H14.15L14.25 33.05V33.15L14.35 33.25H14.45L14.55 33.35L14.65 33.55V33.75L14.15 33.85V34.05V34.15L14.05 34.25V34.35V34.45L13.95 34.55V34.65V34.75V34.85L13.25 34.95H13.15L12.85 35.25L12.75 35.45L12.65 35.55L11.75 36.65L11.05 36.75V36.85V37.45L11.15 37.65L11.25 37.75L11.15 38.25L11.05 38.35L10.75 39.05L10.85 39.15V39.25L10.25 39.75L10.05 40.05L9.64999 40.45L9.94998 40.95V41.05L9.64999 41.25H9.54999V41.35H9.25H9.14999V41.55L9.25 41.95V42.55L9.34998 43.35L9.44998 43.85L9.14999 44.05L9.25 44.45L9.34998 45.05L8.94998 45.15H8.64999L8.75 45.85H8.44998L8.14999 45.75H7.94998H7.84998H7.75L7.64999 46.05V46.15L7.25 46.35L7.14999 46.25L7.04999 46.75L7.14999 47.05V47.25V47.35V47.45L6.94998 47.75V47.85V47.95L6.84998 48.15V48.45V48.65V48.75L7.14999 49.25L7.25 49.45L6.44998 49.55H5.14999L4.84998 49.65L4.75 50.15V50.25H4.34998H3.94998L3.44998 50.35H3.25H3.04999H2.25L1.84998 50.45H1.94998V50.65L2.04999 50.75L2.14999 50.85V50.95L2.34998 51.05V51.15V51.35L2.25 51.45V52.15V52.25L1.64999 52.15L1.44998 52.45L1.25 52.65L0.849976 52.85L1.04999 53.25V53.35V53.45V53.55V53.65V53.75H1.14999V53.85L1.25 53.95L1.44998 54.25V54.35L1.54999 54.45L1.64999 54.65V54.75L1.75 54.85V54.95H1.84998L1.94998 55.25L2.14999 55.55V55.65H2.04999V55.75L2.14999 55.85V56.05V56.15V56.25V56.35H2.04999V56.65L2.44998 56.85L2.64999 56.95H2.54999V57.05L2.75 57.15L2.84998 57.25L2.75 57.35V57.45L2.64999 57.55V57.75V57.85H2.75H2.84998L2.75 58.05L2.54999 58.15L2.34998 58.25L2.14999 58.45L1.94998 58.35L1.84998 58.55L1.75 58.75H1.64999V58.85L1.75 59.05V59.15V59.25V59.35V59.45H1.84998L1.94998 59.55V59.65V59.75V59.85H2.04999V59.95H2.14999V59.85H2.25V59.95L2.34998 59.85H2.44998H2.54999V59.95L2.64999 60.05V60.15V60.25V60.35L2.84998 60.55L2.94998 60.65H3.04999L3.14999 60.75H3.25L3.34998 60.85L3.44998 60.95H3.54999V61.05L3.64999 61.15H3.75V61.35H3.64999L3.54999 61.55V61.65L3.44998 61.75L3.34998 61.95L3.25 62.15L3.54999 62.35L3.34998 62.85L3.14999 63.25L3.25 63.95L3.34998 64.15V64.25V64.35H3.25V64.45H3.14999V64.55H3.04999V64.65V64.75H2.94998V64.85H2.84998V64.95V65.05H2.75V65.15V65.25H2.64999V65.35V65.45V65.55V65.65H2.54999V65.75M120.35 71.15V71.05H120.45V71.15H120.35ZM120.35 71.15V71.25V71.35H120.45V71.25H120.55V71.35V71.45H120.45H120.35V71.55H120.45L120.35 71.65V71.75H120.25V71.85H120.35H120.45H120.55V71.95V72.05M120.55 72.05V72.15M120.55 72.05H120.65V72.15V72.25V72.35L120.75 72.45H120.65V72.55H120.75V72.65V72.75L120.85 72.85M120.85 72.85V72.95M120.85 72.85H120.95L121.05 72.95V73.05H120.95V73.15V73.25H120.85V73.35V73.45V73.55V73.65H120.95H121.05V73.75H121.15H121.25V73.85V73.95L121.35 74.05V74.15H121.45V74.25V74.35V74.45V74.55H121.55H121.65V74.45H121.55V74.35L121.65 74.25H121.75V74.35L121.85 74.45V74.55H121.75V74.65V74.75H121.65V74.85V74.95H121.55V75.05V75.15H121.45V75.25V75.35V75.45L121.35 75.55V75.65V75.75V75.85L121.25 75.95V76.05L121.15 76.15V76.25L121.05 76.35V76.45H120.95L120.85 76.55V76.65V76.75H120.75V76.85H120.65V76.95H120.55H120.45M120.45 76.95V76.85M120.45 76.95H120.35V77.05V77.15V77.25H120.25V77.35H120.15M120.15 77.35V77.25M120.15 77.35H120.05H119.95H119.85H119.75H119.65V77.45H119.55V77.35H119.45H119.35V77.45V77.55H119.25V77.65V77.75H119.15V77.65H119.05M119.05 77.65V77.55M119.05 77.65V77.75V77.85V77.95M119.05 77.95H118.95M119.05 77.95V78.05H118.95M118.95 77.95V77.85M118.95 77.95V78.05M118.95 78.05V78.15V78.25V78.35L118.85 78.25H118.75V78.35H118.65V78.45H118.55H118.45L118.35 78.55L118.25 78.65H118.35V78.75V78.85H118.45V78.95H118.35V79.05H118.45V79.15V79.25H118.35V79.35V79.45M118.35 79.45H118.25V79.55H118.35V79.45ZM118.35 79.45H118.45M118.45 79.45V79.35L118.55 79.45H118.45ZM118.45 79.45V79.55V79.65H118.35V79.75H118.25H118.15V79.85H118.05H117.95L117.85 79.95H117.75H117.65H117.55V80.05H117.45H117.35V80.15H117.25H117.15H117.05V80.05L116.95 79.95V79.85H116.85V79.95H116.75H116.65M116.65 79.95V79.85M116.65 79.95H116.55M116.65 79.95V80.05H116.55V79.95M116.65 79.85H116.55M116.65 79.85V79.75H116.55V79.85M116.55 79.95V79.85M116.55 79.85H116.45M116.45 79.85V79.75M116.45 79.85H116.35V79.75H116.25M116.25 79.75H116.15M116.25 79.75V79.85H116.15V79.95H116.25V80.05H116.15M116.15 80.05V80.15M116.15 80.05H116.05V80.15V80.25H115.95M115.95 80.25V80.15M115.95 80.25H115.85M115.85 80.25H115.75M115.85 80.25V80.35H115.75V80.45M115.75 80.45H115.85M115.75 80.45V80.55L115.95 80.85L116.05 80.95L116.15 81.05L116.05 81.15L115.95 81.25L115.85 81.45H115.75L115.65 81.55L115.55 81.65L115.05 82.15L115.45 82.45L115.55 82.55L114.95 82.75L114.15 83.05V83.15H114.25L114.35 83.25L114.65 83.45L114.75 83.55V83.65L114.85 83.75H114.95V83.85H115.05H115.15L115.25 83.95H115.35L115.55 84.05H115.65V84.15L115.75 84.25H115.85V84.45V84.55H115.95V84.65H116.05L116.15 84.75V84.85L116.25 84.95L116.55 85.05V85.15L116.65 85.25V85.35H116.75V85.45L116.85 85.55V85.65V85.75V85.95V86.25V86.45V86.55V86.65H116.95L117.05 86.75L117.15 86.85V86.95L117.05 87.05V87.15L116.95 87.35H116.85V87.45V87.55V87.65V87.85V87.95V88.05L116.95 88.25L117.05 88.45V88.55V88.65V88.75V88.85L116.95 88.95H116.85L116.75 89.05H116.65L116.55 89.15V89.25L116.45 89.35L116.35 89.55V89.65L116.25 89.75L116.15 89.65H116.05V89.55H115.95H115.85H115.75H115.35H115.25H115.15H114.95H114.85V89.65V89.75V89.85V89.95L114.95 90.05V90.15V90.25L115.05 90.35H115.15V90.45H115.25V90.55M115.25 90.55H115.15M115.25 90.55V90.65M115.25 90.65H115.15V90.75M115.25 90.65L115.15 90.75M115.25 90.65V90.75H115.15M115.15 90.75V90.85V90.95V91.05H115.05V91.15H114.95V91.25V91.35V91.45H115.05V91.55H115.15L115.25 91.65H115.35L115.45 91.75H115.55V91.85H115.65H115.75L115.85 91.95H115.95H116.05L116.15 92.05V92.15H116.25V92.25H116.35L116.45 92.35H116.55L116.65 92.45H116.75V92.55H116.85H116.95H117.05H117.15V92.65H117.25V92.75H117.05V93.05L117.15 93.15L117.25 93.35L117.35 93.65L117.05 93.95L117.15 94.15L117.25 94.35L117.35 94.75L117.45 94.95V95.05L117.35 95.15L117.25 95.25L117.15 95.35H117.05L116.95 95.25L116.85 95.35L116.65 95.55L116.45 95.65L116.25 95.75L116.15 95.85L116.05 95.95V95.85H115.95H115.85V95.75H115.75V95.65H115.65H115.55L115.35 95.55L115.25 95.45L115.05 95.35L114.85 95.15V95.05H114.75M114.75 95.05V94.95M114.75 95.05V95.15H114.65V95.25L114.45 95.75L114.35 96.15L114.25 96.25V96.45L114.45 96.55H114.55H114.65H114.75H114.95H115.05H115.75V96.65V96.75H115.85V96.65H115.95H116.05H116.15H116.25H116.35H116.45H116.55H116.65H116.75L116.85 96.75V96.85V97.05V97.25V97.35V97.45V97.55L116.75 97.85L116.65 97.95L116.55 98.05V98.15H116.45L116.35 98.25V98.35L116.25 98.45V98.55V98.65L116.15 98.75V98.85H116.05L115.95 99.05H115.75L115.65 98.95H115.45V99.05V99.25L115.35 99.35H115.25H115.15L114.85 99.15L114.65 99.05H114.55L114.45 98.95L114.35 99.05H114.15L114.05 99.15V99.25V99.35L114.15 99.65L114.35 100.05L114.65 100.55V100.45H114.95L115.45 100.35H115.75H115.95V100.25V100.15V99.95V99.65V99.55L116.85 99.45L116.95 99.35H117.15L117.95 99.15H118.05H118.35L118.75 99.05H118.85L119.35 98.95L119.65 98.85H119.75H119.95L120.25 99.15L120.65 99.55L120.95 99.95V100.05V100.15H121.05L121.15 100.25L121.45 100.55L121.35 100.95V101.05L121.25 101.25V101.35V101.45V101.55L121.35 101.65V101.75V101.95L121.45 102.15V102.45L121.35 102.65H121.75H121.85H121.95H122.05H122.15L122.35 102.75H122.45V102.85L122.55 102.95L122.65 103.05L122.75 103.15L122.85 103.35L122.95 103.25L123.05 103.35L123.55 102.75L123.75 102.85V102.95L123.65 103.05H123.75V103.15V103.25V103.35V103.45V103.55V103.75V103.85V103.95L123.65 104.05V104.15H123.55H123.45V104.25H123.35V104.35H123.25V104.45V104.55H123.15V104.65H123.05V104.75H123.15V104.85H123.05H122.95V104.95H122.85V105.05H122.75L122.65 105.15L122.55 105.25L122.65 105.35L122.75 105.45H122.85L122.95 105.55L123.05 105.85L123.15 105.95L123.25 106.15L123.35 106.25L123.65 106.35L123.95 106.45L124.25 106.55L124.35 106.65L124.45 106.55H124.55H124.65H124.75H124.85H124.95L125.15 106.65L125.35 106.75H125.45H125.55V106.85H125.65H125.75H125.85H126.05L126.45 106.65L126.65 106.55V106.65V106.75V106.85V106.95L126.55 107.05V107.35V107.75H126.45L126.35 107.65H126.05V107.75V107.95H125.95V108.15L125.85 108.55L125.75 108.75V108.85L125.85 109.05V109.15V109.45V109.55V109.65L126.05 109.75H126.45V109.95V110.05V110.15L126.25 110.25V110.35H126.15V110.45L126.05 110.55L125.95 110.65V110.55L125.85 110.45V110.35H125.75V110.25H125.65L125.45 110.45H125.35V110.55H125.25L125.45 110.75L125.65 111.05V111.15H125.55L125.25 111.25L125.45 111.45L125.55 111.55L125.85 111.75H125.75L125.85 112.15L126.05 112.05V112.15L126.15 112.25V112.35V112.45V112.55V112.65L126.25 112.75V112.85V112.95L126.35 113.05L126.45 113.15V113.25L126.55 113.35L126.65 113.45V113.55H126.75V113.65H126.85L126.95 113.75H127.05V113.85V113.95V114.05H126.95H126.85V114.15H126.75H126.65H126.55H126.45V114.25H126.35V114.35H126.25V114.45V114.55H126.15V114.65V114.95V115.05V115.15L126.05 115.25L125.95 115.45V115.55V115.65L125.85 115.75V115.85H125.75V115.95L125.65 116.05V116.15L125.55 116.25L125.45 116.35L125.25 116.55V116.65H125.15V116.75H125.05V116.85V116.95H124.95V117.15L124.75 117.35V117.45H124.65H124.55H124.45V117.55V117.65H124.35V117.75V117.85H124.25L124.15 117.95V118.05L124.25 118.15L124.35 118.25V118.35L124.45 118.45V118.55L124.55 118.65H124.65H124.75H124.85L124.95 118.75L125.05 118.85H125.15L125.25 118.95L125.35 119.05V119.15L125.45 119.25L125.55 119.35L125.65 119.45L125.75 119.55L125.85 119.65H125.95V119.75H126.05H126.15L126.25 119.85H126.35H126.45V119.95H126.55H126.65V120.05V120.15L126.55 120.45L126.45 120.55L126.35 120.85L125.35 121.75H125.25V121.85H125.15V121.95H125.05V122.05H124.95V122.15V122.25H124.85V122.45V122.55V122.65L124.75 122.85H124.85V122.95H124.95H125.05H125.15H125.25H125.45H125.55V123.05L125.45 123.15V123.25H125.35V123.35H125.25H125.15V123.45H125.05H124.95H124.85H124.75V123.55H124.65V123.45H124.55V123.55H124.45V123.65H124.35V123.75H124.25L124.35 123.85L124.45 123.95H124.55V124.05L124.65 124.15L124.75 124.25L124.85 124.35L124.95 124.55L125.15 124.65L125.35 124.95L125.95 125.65L126.05 125.75L126.45 126.25L126.85 126.75V126.85V126.95V127.05V127.25V127.35V127.45V127.55V127.65V127.75L126.75 128.05V128.35V128.65V128.75H126.65V128.85H126.55L126.45 129.05H126.35L126.15 129.25L125.95 129.35L125.65 129.55H125.55V129.65L125.85 129.85L125.95 129.95V130.05V130.15V130.25V130.35H126.05V130.45V130.55H125.95L126.05 130.65V130.75V130.85V130.95H126.15V131.05V131.15H126.25V131.25V131.35H126.35V131.45H126.45H126.55V131.55V131.65V131.75H126.65V131.85H126.75M126.75 131.85V131.75H126.85V131.65H126.95V131.75V131.85H126.85H126.75ZM126.75 131.85V131.95H126.65V132.05H126.55V132.15V132.25V132.35H126.65L126.75 132.45V132.55V132.65L126.85 132.75V132.85L126.95 132.95L127.05 133.05L127.15 133.15L127.25 133.25L127.35 133.35V133.45H127.45L127.55 133.55H127.65V133.65H127.75V133.75H127.85L127.75 133.95V134.05L127.55 134.35L127.65 134.45L127.75 134.65L128.45 134.45L128.55 134.85L128.65 135.05H128.55H128.45V135.15H128.35H128.25V135.25H128.15V135.35M128.15 135.35H128.05M128.15 135.35V135.45H128.25V135.55H128.35V135.65L128.45 135.75V135.85V135.95H128.55V136.05H128.65V136.15L128.75 136.25V136.45L128.25 136.75L128.45 137.45H128.35L127.35 137.95L126.65 138.35L125.85 138.75L125.35 139.05H125.25L124.75 139.75L124.65 139.85H124.55V139.95H124.45H124.35V140.05H124.25H124.15V140.15L124.05 140.25L123.95 140.45V140.55H123.85V140.65L123.75 140.75V140.85L123.65 140.95V141.15L123.55 141.05H123.45H123.35V141.15V141.25H123.45V141.35V141.45H123.55V141.55V141.65H123.65V141.75H123.75H123.85H123.95H124.05H124.15H124.25H124.35L124.45 141.65V141.75L124.95 141.85L125.25 141.95V142.05M125.25 142.05H125.35M125.25 142.05L125.05 142.25L124.85 142.55H124.75L124.65 142.65V142.75H124.55V142.65H124.45V142.55H124.35H124.25V142.45H124.15V142.35H124.05L123.85 142.55V142.65L123.75 142.75L123.65 142.85H123.55M123.55 142.85V142.75M123.55 142.85H123.45L123.35 143.05L123.25 143.15V143.25V143.35M123.25 143.35H123.35M123.25 143.35V143.45H123.15V143.55L123.05 143.65V143.75H122.95L122.65 143.65L122.15 143.45L122.05 143.65L121.85 143.75V143.85L121.95 144.05L121.85 144.25V144.35L121.65 144.55H121.55H121.45H121.35H121.25H121.15H121.05H120.95L120.85 144.65H120.75H120.65V144.75V144.85L120.45 144.95H120.35H120.25H120.05H119.95H119.85H119.75H119.65H119.55L119.35 145.05H119.25V145.25L119.35 145.55L119.45 145.65L119.25 145.85L119.15 146.05V146.15L119.05 146.35L118.95 146.25L118.85 146.15L118.75 146.05H118.65H118.55V145.95H118.45L118.35 145.85H118.25V145.75L118.15 145.65L118.05 145.55H117.95L117.85 145.45H117.75V145.35H117.65H117.55V145.25H117.45V145.15M117.45 145.15H117.35M117.45 145.15L117.35 145.05L117.25 145.15L117.15 145.25L116.95 145.45H116.85V145.55L116.65 145.65L116.45 145.85L116.65 146.15V146.25L116.75 146.45V146.55L116.65 146.65L116.75 146.75L116.85 146.95L116.45 147.15L116.25 147.35L116.35 147.45L116.05 147.65H115.95V147.55L115.75 147.35V147.25L115.65 147.05L115.55 146.95L115.35 146.65L115.25 146.85H115.15L115.05 146.95L114.95 147.05L114.35 147.65L113.95 147.35H113.85V147.45V147.55L113.95 147.85V147.95L114.05 148.05V148.15L114.15 148.25V148.35V148.45L114.25 148.65L114.35 148.75V148.85L114.45 148.95V149.05L114.55 149.15V149.35L114.65 149.45V149.55V149.65L114.75 149.75V149.85V149.95V150.05L114.85 150.15L114.95 150.75L114.65 151.75L114.15 153.15L113.65 153.35L114.05 154.25L114.15 154.55L115.55 154.65H115.75H115.85H116.05H116.15H116.25L116.35 154.55H116.45H116.55H116.65H116.75V154.65V154.75V154.85H116.65H116.55V154.95H116.45V155.05V155.15V155.45V156.55V156.65V156.85V156.95V157.05V157.15V157.25H116.35V158.05L117.55 158.45L117.45 158.85L117.35 159.05L117.25 159.25L117.15 159.55H117.05L116.45 159.35L116.15 159.15L116.05 159.55L115.65 159.45L114.95 159.15L114.85 159.05H114.65L114.35 158.95V158.85H114.25H114.15L113.95 158.75L113.75 158.65L113.45 158.55L113.35 158.65V158.95L113.25 159.05V159.15V159.25L113.15 159.35L113.05 159.25L112.95 159.15H112.85M112.85 159.15V159.05M112.85 159.15H112.75V159.05H112.65V158.95H112.55V158.85H112.45L112.35 158.75V158.85L111.85 159.45L111.65 159.65L111.55 159.85V159.95L111.45 160.15L111.15 161.05L110.85 161.85H110.75H110.65H110.55H110.45V161.95L110.35 161.85H110.25V161.75H110.15V161.65H110.05V161.55H109.95V161.45V161.35H109.85L109.75 161.25L109.65 161.35V161.25H109.55L109.45 161.45L109.05 161.95L108.95 162.15L108.85 162.25L108.75 162.15L108.45 161.65L108.25 161.35V161.25H107.95H107.75H107.25L106.85 161.35H106.45H106.35H106.25H106.15L105.75 161.25H105.65H105.55V161.35V161.95V162.85V163.35V163.95V164.15H104.45V163.95V163.85L104.35 163.75L104.25 163.55L104.05 163.25L103.95 163.05L103.05 163.85H102.95V163.95V164.05V164.15H102.75L102.45 164.35L102.35 164.25L102.25 164.15L102.15 164.05H102.05V163.95H101.95V163.85H101.85V163.95L101.75 164.05H101.65V164.15H101.55V164.25H101.45V164.35H101.35H101.25H101.15H101.05H100.95H100.85H100.75H100.65V164.25H100.55H100.45L100.35 164.15H100.25H100.15H100.05V164.05H99.95H99.85H99.75L99.65 164.15H99.55V164.05H99.45V163.95H99.35H99.25H99.05L98.95 164.05H98.85H98.75H98.65L98.55 164.15H98.45H98.35L98.25 164.25H98.15L97.95 164.35L97.85 164.45H97.75L97.65 164.55V164.65H97.55L96.95 163.95H96.45V163.85H96.35H96.25L96.15 163.95H96.05H95.95L95.85 164.05L95.75 163.95H95.65H95.55H95.45H95.35L95.15 163.85L94.95 163.95H94.75H94.65L94.55 163.85H94.45H94.35H94.25H94.05H93.95L93.85 163.95H93.75H93.65L93.55 164.05H93.45H93.35H93.25V164.15H93.15H93.05H92.95L92.85 164.05H92.75H92.65H92.55L92.35 163.95H92.25H92.15V163.85H92.05H91.95L91.85 163.75H91.75H91.65L91.55 163.65H91.45H91.35V163.55L91.15 163.45V163.35H91.05V163.25L90.95 163.15V163.05V162.95L91.05 162.85V162.75V162.65H91.15V162.55L91.25 162.45L91.35 162.35V162.25L91.45 162.15L91.55 162.05V161.85H91.65V161.65L91.75 161.55V161.45L91.85 161.35V161.25V161.15H91.95V161.05H92.05L92.15 160.85V160.75L91.85 160.55L91.65 160.35L91.45 160.15L91.15 159.85L90.85 159.95L90.65 159.55H90.75H90.85H90.95V159.45L90.75 159.25L90.65 158.95L90.45 158.75L90.35 158.55L90.25 158.45L90.15 158.15L89.95 157.95L89.85 157.85V157.75H89.75H89.65V157.65H89.55H89.45H89.35H89.25H89.15L89.05 157.55V157.45V157.35H88.95V157.25V157.15V157.05L89.05 156.95L89.15 156.85H89.25H89.55V156.75L89.65 156.55V156.35L89.75 156.25V156.15L89.85 156.05V155.95V155.85V155.75V155.65H89.95H90.05H90.15L90.35 155.75H90.45L90.75 155.35L90.95 154.95L91.15 154.75L91.45 154.35L91.25 154.15L91.35 153.95L91.45 153.75V153.65L91.55 153.55H91.65V153.45L91.95 153.55V153.35V153.15V153.05H91.85V152.95V152.85L91.75 152.75V152.65V152.45L91.65 152.35L91.45 152.25L91.05 152.05L90.05 151.35H89.95H89.85V150.95L89.95 150.35V149.65L89.75 149.55L89.55 149.45L89.35 149.35L88.95 149.15H88.85L89.25 148.65L89.55 148.25L89.95 147.85L90.15 147.55L90.05 147.45L89.95 147.35L89.85 147.25V147.15L89.75 147.05V146.95V146.75V146.65V146.45V146.35V146.25V146.15H89.55H89.45H89.35V146.25H89.25H89.15H89.05H88.95H88.85L88.95 146.15L89.05 145.85V145.75V145.55L89.25 145.15V144.95L89.35 144.65H89.25V144.55H89.15V144.45L89.05 144.35H88.95V144.25L88.85 144.15L88.75 144.05V143.95H88.65V143.85L88.55 143.75V143.65L87.85 143.35L87.45 143.25L87.05 143.05L86.85 142.85M86.85 142.85H86.75M86.85 142.85L86.95 142.75H87.05V142.65H87.15V142.55H87.05V142.45H86.95V142.35H86.85L86.75 142.25H86.65H86.55V142.15H86.45V142.05V141.95V141.85L86.55 141.45L86.45 141.35H86.35L86.25 141.25H86.15H86.05H85.95V141.15H85.85H85.75V141.05L85.65 140.95V140.85H85.55H85.45H85.25H85.05H84.95H84.85H84.55H84.45V141.05L84.25 141.75L84.15 141.85V142.15L84.05 142.45L83.95 142.75V142.85L83.85 143.05V143.15H83.65H82.85L82.65 143.25H82.45H82.35V143.45V143.55V143.65H82.25H82.15L81.65 143.75H81.05H80.75V143.85L80.85 144.45H80.65H80.55H80.45H80.35L80.05 144.35H79.65H79.15V144.65V145.05V145.25V145.35V145.45V145.55V146.05H79.25L79.55 145.95V146.35H79.35H79.05L78.85 146.45V146.55L78.75 146.75L78.55 147.05L78.45 147.35L78.35 147.65L78.25 147.75V147.95L77.85 148.05V147.95L77.75 147.55V147.45L77.65 147.15L77.45 147.25H77.35L77.05 147.35L76.85 147.05L76.65 147.15L76.35 147.25L76.15 147.35H75.95V147.45V147.55L76.05 147.85L75.95 147.75H75.85L75.75 147.65H75.65L75.55 147.55L75.15 147.25L74.95 147.15H74.85L74.75 147.05L74.45 146.95L73.95 146.75L73.45 146.55L73.35 146.45V146.55L73.45 146.95L73.55 147.05L73.25 146.85H73.15M73.15 146.85V146.75M73.15 146.85H73.05H72.95V146.75H72.85H72.75L72.65 146.65H72.55V146.75H72.45L72.35 146.85H72.25V146.95H72.15H72.05H71.95H71.85H71.75L71.65 147.05V147.15V147.25V148.05L71.55 148.35V148.85V148.95V149.05V149.15V149.25H71.45L71.35 149.35L70.95 149.45L70.75 149.55L70.45 149.75H70.35L70.05 149.85H69.95V149.75V149.65L69.75 149.05L69.65 148.85H69.45L68.95 148.15L68.85 147.85L68.75 147.75V147.65L68.55 147.35V147.25H68.45L68.25 146.95L68.15 146.85L67.95 146.75V146.65L67.85 146.55V146.45V146.35V146.25H67.95L67.85 146.15L67.55 146.45L67.25 146.55L67.05 146.65H66.85H66.75L66.65 146.75H66.55L66.35 146.85H66.15L66.05 146.95L65.85 147.05L65.75 147.15H65.65H65.55M65.55 147.15V147.25M65.55 147.15L65.45 147.05V146.95H65.25L65.05 146.85V146.75V146.65V146.55V146.45L64.95 146.35V146.25V146.15V146.05V145.95H64.85L64.75 146.05H64.65H64.55H64.45L64.35 146.15H64.25H64.15H64.05H63.95H63.85H63.75H63.65L63.45 146.05H63.35V146.15H63.25H63.15H63.05H62.95L62.75 146.05L62.65 145.95H62.55V145.85H62.45V145.95L62.35 146.05L62.45 146.15L62.35 146.25V146.35V146.45L62.25 146.55V146.65V146.75L62.15 146.85V146.95H62.05V147.05V147.15V147.25V147.35L61.95 147.55V147.75L61.85 147.95V148.15L61.75 148.45L61.65 148.55L61.55 148.65H61.45H61.35V148.75H61.25V148.85L61.05 148.95L60.95 149.05H60.85L60.55 149.25L60.35 149.35V149.25H60.25L60.05 149.15L59.85 149.05L59.65 148.85H59.55L59.45 148.75L59.25 148.65L58.95 148.45H58.85V148.35H58.75H58.65L58.45 148.25H58.35H58.25H58.15L58.05 148.15H57.85L57.65 148.05L56.45 147.75H56.25M56.25 147.75V147.65M56.25 147.75L56.05 147.85L55.95 147.95H55.85H55.75H55.65H55.55H55.45H55.35H55.15H55.05L54.95 147.85H54.65H54.45V147.75V147.55V147.25V147.15V147.05L53.95 146.65L53.75 146.75H53.55V146.85V146.95V147.65V147.95L52.85 148.15L52.75 148.25L52.65 148.45V148.55L52.55 148.65V148.75H52.65V148.85V148.95H52.55H52.45H52.35H52.25H52.15L52.35 148.55L51.95 148.45H51.85V148.55H51.65H51.45L51.35 148.65H51.25H51.05H50.95H50.85H50.75H50.65L50.55 148.75H50.45H50.35H50.25H50.15H50.05H49.95H49.65L49.35 148.85H49.05L48.95 148.75V148.65L48.75 148.75L48.65 148.85L48.55 148.95V149.05L48.25 149.15H48.15L48.05 149.25H47.95H47.85L47.75 149.35H47.65H47.55L47.45 149.45H47.35L47.15 149.65H47.05V149.75H46.95L46.85 149.85H46.75L46.55 149.95H46.45H46.25L46.15 150.05V149.95H46.05H45.95V150.05H45.55H45.15V149.95H45.05H44.85H44.55H44.45H44.25L43.95 150.05H43.65H43.55V150.15H43.45H43.25H43.05H42.95V150.05H42.85H42.75H42.65H42.55H42.45H42.35H42.25H42.15L42.05 149.95H41.95V149.85H41.85V149.75H41.75V149.65H41.65H41.55H41.45H41.35L41.25 149.55H41.15L40.85 149.45H40.75H40.65H40.55V149.35H40.45H40.35H40.25H40.05L39.85 149.45H39.75H39.65H39.55H39.45H39.35H39.25L39.15 149.55H39.05H38.95L38.85 149.65L38.65 149.75L38.55 149.95L38.35 150.05H38.25V150.15H38.15H38.05H37.95V150.25H37.85H37.75H37.65L37.55 150.35H37.45H37.35H37.25H37.15H37.05H36.85H36.75H36.65H36.55H36.45H36.35H36.25H36.15V150.45H36.05L35.95 150.55V150.65H35.85V150.75V150.95V151.15H35.75L35.55 151.25H35.45H35.35H35.25H35.15V151.35H35.05H34.95H34.85H34.65H34.55H34.45H34.15L33.95 151.45H33.85H33.75H33.65H33.55H33.45H33.35L33.25 151.35L33.05 151.25H32.95V151.35V151.45V151.65V151.85V152.05V152.15H32.75H32.45L32.05 152.25V152.55V152.85V152.95H31.95V153.05L31.85 153.15L31.75 153.25L31.55 153.35V153.45H31.45H31.35V153.35H31.25H31.15H31.05L30.95 153.45H30.85H30.75H30.65V153.55L30.55 153.45H30.45V153.35H30.35H30.25H30.15V153.25L30.05 153.15V153.05H29.95V152.95H29.85L29.75 152.85V152.75H29.65V152.65L29.55 152.55V152.45H29.45V152.35H29.35V152.25L29.25 152.15H29.15V152.05H29.05V151.95H28.95V151.85V151.75H29.05V151.65H28.95V151.55H28.85V151.45H28.75V151.35L28.65 151.25V151.15H28.55H28.45H28.35V151.05H28.25H28.15V150.95H28.05L27.95 150.85H27.85V150.75H27.75V150.65H27.65H27.55L27.35 150.55H27.25H27.15V150.45H27.05H26.95H26.85L26.75 150.35H26.65L26.45 150.25H26.35M26.35 150.25H26.25M26.35 150.25V150.15V149.85L26.45 149.65V149.55V149.45V149.35H26.55L26.65 149.25V149.15H26.75H26.85L26.95 149.05V148.95H27.05V148.85H27.15V148.75H27.25L27.35 148.55L27.25 148.45V148.35H27.35V148.25V148.15L27.45 148.05V147.95V147.85V147.75H27.35L27.25 147.65L27.15 147.55L27.05 147.35H26.95L26.85 147.25H26.75H26.65H26.55H26.45L26.35 147.15H26.25H26.15H26.05L25.95 147.05V147.15L25.85 147.25V147.35L25.75 147.55V147.65H25.65L25.55 147.55H25.45V147.45H25.35H25.25L25.15 147.35H25.05H24.95H24.85V147.25H24.75H24.65H24.55M24.55 147.25V147.15M24.55 147.25L24.45 147.35V147.55L24.35 147.75V147.85L24.25 148.15V148.25H24.15V148.15H24.05V148.05H23.95V147.95H24.05H24.15V147.85H24.05V147.75H23.95M23.95 147.75V147.65M23.95 147.75H23.85V147.65M23.85 147.65H23.75M23.85 147.65V147.55V147.45H23.75H23.65V147.35M23.65 147.35V147.25M23.65 147.35H23.55V147.25H23.45H23.35V147.15V147.05V146.95H23.25V146.85H23.15V146.75V146.65H23.25V146.55V146.45H23.15V146.35V146.25H23.05H22.95V146.15M22.95 146.15H23.05M22.95 146.15V146.05H23.05V145.95V145.85H22.95H22.85V145.95M22.85 145.95H22.95M22.85 145.95H22.75V145.85V145.75H22.85V145.65V145.55H22.75V145.45H22.65V145.35H22.55V145.25V145.15V145.05H22.45H22.35V144.95V144.85H22.25H22.15V144.75H22.25L22.15 144.65V144.55H22.25V144.45L22.15 144.35V144.25H22.25L22.35 144.15H22.45L22.35 144.05H22.45V143.95V143.85H22.35V143.75H22.25H22.15V143.65L22.05 143.55V143.45V143.35H22.15V143.25V143.15L22.25 143.05H22.15V142.95H22.05V142.85H21.95H21.85V142.75V142.65V142.55V142.45V142.35V142.25V142.15V142.05H21.75V141.95H21.65L21.55 141.85L21.65 141.75L21.75 141.65V141.55L21.85 141.45V141.35H21.95V141.25L22.05 141.15V141.05V140.95H22.15L22.25 140.85V140.75L22.35 140.65V140.55H22.25H22.15L22.05 140.45H21.95L21.85 140.55L21.75 140.65H21.55L21.45 140.75V140.65H21.35H21.25H21.15H21.05V140.75H20.95H20.85V140.65V140.55V140.35H20.75V140.25H20.65H20.55V140.15H20.45V140.05H20.35V139.95L20.25 139.85H20.15V139.75H20.05L19.95 139.65H19.85V139.55V139.45H19.75V139.35L19.65 139.25H19.55H19.45H19.35H19.25H19.15V139.35V139.45V139.55V139.65V139.75H19.25V139.85H19.15H19.05H18.95H18.85V139.95H18.75H18.65H18.55L18.45 139.85V139.75H18.35V139.65H18.45V139.55V139.45V139.35H18.55V139.25V139.15V138.95V138.75H18.45V138.65V138.55V138.45V138.35V138.15V138.05V137.95V137.85V137.75V137.65V137.55V137.45V137.35V137.25H18.65H18.85V137.15H18.95V137.05V136.95V136.85V136.75H18.85V136.65V136.55V136.45H18.95H19.05V136.35H19.15H19.25V136.25H19.35L19.45 136.35H19.55V136.25H19.65H19.75L19.85 136.15V136.05H19.75V135.95V135.85L19.65 135.75V135.65L19.55 135.55H19.45V135.45H19.35V135.35V135.25V135.15V135.05L19.25 134.95V134.85V134.75V134.65V134.55V134.45V134.35V134.25V134.15H19.15V134.05V133.95V133.85V133.75V133.65V133.55V133.45V133.35H19.05H18.95V133.25H18.85V133.15H18.75V133.05V132.95H18.65V132.85V132.75V132.65H18.55V132.55V132.45H18.45V132.35V132.25V132.15V132.05V131.95H18.35V131.85V131.75V131.65V131.55V131.45V131.35V131.25H18.45H18.55H18.65H18.75H18.85L18.95 131.15H19.05V131.05H19.15V130.95V130.85V130.75H19.25V130.65H19.35H19.45M19.45 130.65V130.75M19.45 130.65H19.55L19.65 130.55V130.65H19.75L19.85 130.75H19.95H20.05H20.15H20.25V130.85H20.35L20.45 130.95H20.55L20.65 131.05H20.75V131.15H20.85L20.95 131.25H21.05V131.35H21.15L21.25 131.45H21.35V131.55H21.45L21.55 131.65H21.65L21.75 131.55V131.45L21.85 131.35L21.95 131.25V131.15V131.05H22.05V130.95L22.15 130.85L22.25 130.75V130.65L22.35 130.55L22.45 130.35L22.55 130.25L22.65 130.15V130.05L22.75 129.95V129.85L22.85 129.75L22.95 129.65L23.05 129.45L23.15 129.35V129.25H23.25H23.35V129.35H23.45M23.45 129.35V129.25M23.45 129.35H23.55V129.45H23.65H23.75V129.55H23.85M23.85 129.55V129.45M23.85 129.55H23.95H24.05V129.65V129.75V130.05L23.95 130.15H24.55H24.65V130.05V129.95H24.75V129.85H24.85V129.75V129.65V129.55H24.95H25.05V129.45H25.15V129.35V129.25H25.05V129.15H24.95V129.05H25.05M25.05 129.05H25.15M25.05 129.05V128.95H24.95V128.85H25.05V128.75V128.65V128.55H25.15V128.45H25.25L25.15 128.35V128.25V128.15H25.05V128.05V127.95V127.85H24.95V127.75H24.85V127.65V127.55H24.95V127.45H25.05V127.35L24.95 127.25H25.05V127.15V127.05H24.95V126.95V126.85H24.85V126.75V126.65H24.75L24.65 126.55V126.45V126.35H24.55V126.25V126.15V126.05H24.45L24.25 125.95H24.05H23.95V125.85H23.65H23.55L23.45 125.75H23.25L23.05 125.65H22.95H22.85L22.65 125.55H22.45H22.35L22.15 125.45L21.85 125.35L22.15 124.85L22.35 124.45L22.45 124.35V124.25L22.55 124.15V124.05M22.55 124.05H22.65M22.55 124.05L22.45 123.95H22.35M22.35 123.95V124.05M22.35 123.95H22.25V123.75V123.65L22.35 123.35H22.45H22.55H22.65V123.15V123.05H22.75H22.85H22.95H23.05V122.95L22.35 122.45L22.45 122.15V121.65H22.55H22.65V121.55L22.75 121.45L22.65 121.35L22.75 121.05L22.65 120.95V120.85V120.75V120.65H22.75H22.85V120.75H22.95V120.85H23.15H23.55V120.65H23.65V120.15H24.15L24.65 120.05H24.75L24.85 119.85V119.75H24.95V119.65V119.55L25.05 119.45H24.95L24.85 119.35V119.25H24.75V119.15H24.65V119.05L24.45 118.95V118.85H24.35L24.25 118.75V118.65V118.55L24.35 118.45V118.35H24.25V118.25V118.15V118.05H24.35L24.25 117.95V117.85V117.75V117.65V117.55V117.45V117.35V117.25V117.15V117.05L24.35 116.95H24.25V116.85L24.05 116.95H23.95L23.75 117.05L23.15 117.25H23.05L22.95 117.35L23.05 117.75L23.15 118.25V118.55L22.55 118.75L22.25 118.85H22.15V118.55V118.45V118.35V117.75V117.65V117.25H22.25V117.05V116.95V116.85V116.75V116.65V116.55V116.45H22.15V116.55H22.05H21.95V116.65H21.85V116.75H21.75V116.85H21.65V116.75V116.65H21.55M21.55 116.65V116.55M21.55 116.65H21.45V116.55H21.55M21.55 116.55H21.65V116.45V116.35H21.55V116.25V116.15V116.05V115.95V115.85V115.75V115.65V115.55H21.45V115.45V115.35V115.25H21.35H21.25V115.15H21.15H21.05H20.95H20.85H20.75V115.05V114.95V114.85V114.75V114.55V114.45V114.25V114.15V114.05L20.85 113.95L20.95 114.05H21.05V113.85V113.75V113.65V113.55L21.15 113.45V113.35V113.25V113.15V113.05V112.95V112.85L21.05 112.75V112.65V112.55L20.95 112.25V112.15V112.05V111.85V111.75H20.85H20.75H20.65H20.55H20.45H20.25H20.15H20.05H19.95L19.85 111.85V111.95L19.75 112.05V112.15H19.65V112.25H19.55H19.45H19.35V112.35V112.45V112.55V112.65H19.25H19.15V112.75L19.05 112.85H18.95V112.75H18.85H18.75H18.65H18.55H18.25H18.15V112.85V112.95L18.05 113.05V113.15L17.95 113.25V113.35L17.85 113.45V113.55L17.75 113.65V113.75L17.65 113.85V113.95L17.55 114.05V114.15H17.45V114.25V114.35L17.35 114.45H17.25H17.15L17.05 114.35H16.95V114.25H16.85L16.75 114.15H16.65L16.55 114.05L16.45 113.95L16.35 113.85H16.25L16.15 113.75H16.05V113.65H15.95L15.85 113.55L15.75 113.45H15.65L15.55 113.35H15.45V113.25V113.15L15.35 113.05V112.95V112.85L15.25 112.75L15.15 112.55L15.05 112.35V112.25V112.15V112.05V111.95V111.85H14.05V111.75L13.15 111.55V111.15L13.25 110.85V110.45H13.05H12.75H12.65H12.45L12.15 110.35V110.45V110.55V110.75H12.05V110.65H11.95V110.55H11.85H11.75V110.45L11.65 110.35L11.55 110.25V110.15H11.45V110.05H11.35V109.95H11.25L11.15 109.85V109.75H11.05V109.65H10.95V109.55V109.45H10.85V109.55H10.75V109.45H10.65L10.55 109.35L10.75 109.15L10.95 109.25L11.05 109.35H11.15H11.25H11.35L11.45 109.15H11.35L11.25 109.05H11.15V108.95H11.25H11.35H11.45H11.55H11.65V108.85H11.75V108.95H11.85V108.85H11.95V108.65V108.55H11.85V108.45V108.25V108.05V107.95L11.75 107.85L11.55 107.75L11.15 107.55L10.65 107.05L10.45 106.95H10.35L10.25 106.85L9.54999 106.35V106.25H9.44998L9.34998 106.15H9.25V106.05H9.14999V105.95H9.04999H8.94998V106.05H8.64999H8.54999L8.25 105.95L8.14999 105.85L7.94998 105.95H7.75H7.64999H7.54999H7.44998V105.85L7.14999 105.95H7.04999H6.94998V106.05H6.75V105.95L6.64999 105.85V105.75V105.55L6.54999 105.45V105.35L6.64999 105.25V105.15L6.75 105.05L6.84998 104.85H6.94998V104.75V104.65L7.04999 104.25M7.04999 104.25H7.14999M7.04999 104.25V104.15V103.95V103.75V103.65V103.55V103.45H6.94998V103.35V103.25H7.04999V103.15L6.54999 102.85L6.25 102.65L6.14999 102.55H5.94998M5.94998 102.55V102.45M5.94998 102.55H5.84998L5.25 102.15L4.94998 102.05L4.75 101.95V101.85H4.64999H4.54999L4.44998 101.75L4.25 101.65H4.14999L3.94998 101.55L3.75 101.35H3.54999L3.34998 101.15L3.54999 100.35L3.64999 99.65V99.55L3.75 99.35V99.25V99.05L3.84998 98.85V98.75V98.65L3.94998 98.45L4.14999 98.35V98.25L4.25 98.15V98.05L4.34998 97.95V97.85L4.44998 97.75L4.54999 97.55L4.64999 97.45V97.35H4.75V97.25H4.84998L4.94998 97.05V96.95L5.04999 96.85V96.75L5.25 96.45L5.34998 96.35L5.44998 96.25V96.15V96.05H5.54999V95.95V95.85V95.75H5.44998V95.45V95.35V95.25V95.15V95.05V94.95V94.85V94.75V94.65V94.55L5.54999 94.45V94.35L5.64999 94.25V94.15L5.75 94.05V93.95H5.84998V93.85V93.75L5.94998 93.65V93.55V93.45V93.35V93.25M5.94998 93.25H6.04999M5.94998 93.25L5.84998 93.15H5.75H5.64999L5.54999 93.25V93.15H5.44998H5.34998L5.25 93.25H5.14999H5.04999L4.94998 93.35L4.84998 93.45H4.75H4.64999L4.54999 93.35H4.34998H4.25V93.25V93.15H4.14999L4.04999 93.05V92.95V92.85L3.94998 92.75L4.04999 92.05V91.95L3.84998 91.65L3.64999 91.55H3.54999L3.25 91.35L2.94998 91.15L2.75 91.05L2.44998 90.85H2.34998H2.25L2.14999 90.75V90.65V90.55M2.14999 90.55H2.25M2.14999 90.55L2.04999 90.45H1.94998L1.84998 90.35H1.64999L1.44998 90.25L1.34998 90.15H1.25V90.05V89.95L1.14999 89.75V89.55V89.45V89.35L1.04999 89.25V89.15V89.05H0.949982V88.95L0.849976 88.85V88.75L0.75 88.55V88.45V88.35V88.25V88.15V87.95V87.85V87.75H0.849976L0.949982 87.65H1.04999H1.25H1.44998V87.55L1.84998 87.45H2.14999H2.25H2.34998H2.44998V87.25L2.25 86.95L2.04999 86.65L1.94998 86.25L1.75 85.95L1.64999 85.75V85.65V85.55H1.75V85.45V85.35V85.25H1.84998L1.94998 85.05L2.04999 84.85V84.75V84.65V84.55V84.45H2.14999V84.25H2.04999L1.84998 84.15L1.75 84.05H1.54999V83.95H1.44998L1.34998 83.85V83.75H1.25H1.14999H1.04999L0.949982 83.55L0.849976 83.35L0.75 83.25V83.15H0.649994H0.549988H0.449982H0.349976V83.05V82.95V82.85L0.25 82.75M0.25 82.75H0.349976M0.25 82.75V82.65H0.349976V82.55H0.449982H0.549988V82.65H0.649994H0.75H0.849976H0.949982V82.55H1.04999H1.14999V82.45V82.35H1.04999H0.949982V82.25V82.15V82.05H1.04999H1.14999V81.95L1.25 81.85V81.75H1.34998H1.44998V81.65H1.54999V81.55H1.44998M1.44998 81.55V81.45H1.34998M1.44998 81.55H1.34998V81.45M1.34998 81.45V81.35H1.25V81.25H1.34998V81.15H1.44998V81.05H1.54999V80.95V80.85M1.54999 80.85H1.44998M1.54999 80.85V80.75V80.65H1.44998V80.55H1.54999V80.45V80.35V80.25V80.15H1.44998L1.34998 80.05H1.25H1.14999H1.04999V79.95V79.85H0.949982V79.75H1.04999V79.65V79.55M1.04999 79.55H1.14999M1.04999 79.55V79.45H1.14999M1.14999 79.45V79.35M1.14999 79.45H1.25V79.35H1.34998M1.34998 79.35H1.44998V79.25M1.34998 79.35V79.25H1.44998M1.44998 79.25H1.54999V79.15H1.64999V79.25H1.75V79.15H1.94998L2.04999 78.95L2.25 79.15L2.44998 78.95H2.84998L2.94998 78.85L3.14999 78.95V78.85L3.25 78.75V78.55L3.34998 78.35V78.25V78.15V78.05L3.44998 77.95V77.85V77.75H3.54999V77.65M3.54999 77.65H3.44998M3.54999 77.65H3.64999M3.54999 77.65L3.64999 77.55H3.54999V77.45M3.54999 77.45H3.44998V77.35M3.54999 77.45V77.35H3.44998M3.44998 77.35V77.25H3.54999H3.64999V77.15V77.05H3.75H3.84998V76.95H3.94998V76.85V76.75H3.84998V76.65V76.55V76.45H3.94998V76.35H4.04999V76.25V76.15L4.14999 76.05H4.25V75.95H4.34998V75.85H4.44998H4.54999V75.75V75.65V75.55V75.45V75.35V75.25H4.64999V75.15L4.75 75.05V74.95H4.64999V74.85V74.75V74.65H4.54999V74.55H4.44998V74.45V74.35V74.25H4.54999V74.15V74.05H4.44998V73.95H4.34998H4.25V73.85H4.34998V73.75H4.25V73.65V73.55H4.14999V73.45V73.35V73.25H4.04999V73.15H4.14999V73.05V72.95V72.85H4.25V72.75H4.34998V72.65V72.55H4.44998V72.45M4.44998 72.45H4.34998M4.44998 72.45V72.35M4.44998 72.35H4.34998M4.44998 72.35V72.25V72.15V72.05V71.95V71.85V71.75H4.34998H4.25H4.14999H4.04999V71.85H3.94998V71.75H3.84998V71.65V71.55V71.45H3.75H3.64999V71.35H3.54999H3.44998H3.34998V71.25H3.25H3.14999H3.04999L2.94998 71.15H3.04999V71.05V70.95H2.94998V70.85V70.75V70.65V70.55V70.45V70.15L3.04999 69.45L2.75 69.25L2.64999 69.15V69.05V68.65V68.55V68.45H2.75V68.35V68.25V68.15H2.64999V68.05V67.95V67.85H2.75L2.84998 67.75V67.65V67.55V67.45V67.35V67.25V67.15V67.05M2.84998 67.05H2.75M2.84998 67.05V66.95V66.85L2.94998 66.75V66.65M2.94998 66.65V66.55M2.94998 66.65L3.04999 66.55H2.94998M2.94998 66.55V66.45H2.84998V66.35V66.25M2.84998 66.25H2.75M2.84998 66.25V66.15H2.75V66.05M2.75 66.05H2.64999M2.75 66.05V65.95H2.64999H2.54999V65.85V65.75M2.54999 65.75H2.44998M24.55 12.55L24.45 11.95L24.35 11.75V11.65L24.25 11.15L24.35 11.25L24.45 11.35L24.65 11.65L24.85 11.75L24.55 12.55Z" stroke="white" stroke-width="0.5" stroke-linecap="round" stroke-linejoin="round"/>
</svg>
