<svg width="127" height="91" viewBox="0 0 127 91" fill="none" xmlns="http://www.w3.org/2000/svg">
<path d="M37.15 6.45001L37.25 6.55002L37.35 6.65002H37.45H37.55V6.75H37.65H37.75V6.65002H37.85L37.95 6.55002H38.05V6.45001H38.15H38.25H38.35L38.45 6.35001H38.55H38.65V6.45001V6.55002H38.75V6.65002L38.85 6.85001H38.95V6.95001L39.05 7.05002V7.15002H39.15V7.25H39.25V7.35001L39.35 7.45001V7.55002H39.45V7.65002V7.75V7.85001L39.55 7.95001V8.05002H39.65V8.15002L39.55 8.25V8.35001V8.45001H39.45V8.55002L39.55 8.65002V8.75V8.85001H39.65V8.95001V9.05002L39.55 9.15002V9.25H39.45H39.35V9.35001H39.25H39.15H39.05H38.95V9.25H38.85L38.75 9.05002H38.65V9.15002H38.55V9.25L38.45 9.35001H38.35V9.45001H38.25H38.15V9.55002H38.05H37.95V9.65002H37.85V9.75H37.75H37.65L37.55 9.85001L37.45 9.95001H37.35V10.05V10.15V10.25V10.35V10.45V10.55V10.65V10.75V10.85H37.25V10.95V11.05L37.35 11.15V11.25V11.35H37.45V11.45V11.55H37.55V11.65V11.75V11.85V11.95H37.65V12.05H37.75V12.15V12.25H37.85V12.35H37.95V12.45L38.05 12.55V12.65V12.75L38.15 12.85V12.95V13.15H38.25V13.25V13.35V13.45V13.55L38.35 13.65V13.75L38.45 13.85V13.95H38.55V14.05H38.65V14.15H38.75L38.85 14.25H38.95V14.35H39.05H39.15V14.45H39.25V14.55H39.35V14.65H39.45V14.75H39.55H39.65V14.85H39.75V14.95H39.85L39.95 15.05H40.05V15.15H40.15V15.25V15.35H40.25H40.35V15.45H40.45H40.55V15.55H40.65V15.65H40.75L40.85 15.75H40.95H41.05L41.15 15.85H41.25V15.95H41.35L41.45 16.05H41.55H41.65V16.15L41.85 16.05V16.15H41.95L42.05 16.25H42.15V16.35H42.25V16.45V16.55H42.15V16.65H42.25V16.75V16.85V16.95V17.05V17.15V17.25V17.35V17.45H42.35V17.55V17.65V17.75V17.85V17.95V18.05V18.15V18.25V18.35V18.45H42.45V18.55V18.65H42.55V18.75H42.65V18.85L42.75 18.95V19.05H42.85L42.95 19.15L43.05 19.25L43.15 19.35H43.25H43.35L43.45 19.45L43.55 19.55L43.65 19.65H43.75V19.75H43.85V19.65L43.95 19.55H44.05V19.45L44.25 19.25L44.35 19.15V18.95V18.85L44.45 18.75L44.55 18.65L44.65 18.55L44.75 18.45H44.85H44.95H45.05L45.15 18.55L45.25 18.45H45.35L45.45 18.35H45.55L45.65 18.25H45.75V18.15H45.85H45.95H46.05H46.15H46.25H46.35V18.25H46.45V18.35H46.55V18.45H46.65L46.75 18.35V18.25H46.85V18.15H46.95V18.05H47.05V17.95H47.15L47.25 17.85H47.35H47.45V17.95H47.55H47.65L47.75 17.85H47.85H47.95H48.05V17.75V17.65V17.55V17.45H48.15V17.35H48.25H48.35H48.45V17.25H48.55H48.65H48.75L48.85 17.35L48.95 17.55H49.05V17.65H49.15H49.35H49.45V17.75H49.55V17.85H49.65H49.75H49.85L49.95 17.95V18.05V18.15H50.05H50.15L50.25 18.05H50.35L50.45 18.25L50.55 18.45V18.55L50.65 18.65H50.55L50.45 18.75V18.85L50.35 18.95V19.05L50.45 19.45H50.85H50.95H51.05H51.15L51.25 19.55H51.35L51.45 19.65V19.75V19.85H51.55L51.65 19.95L51.75 20.05V20.15H51.85V20.25V20.35H51.95V20.45L52.05 20.55V20.65L52.15 20.75H52.25V20.85V20.95L52.35 21.05V21.15V21.25V21.35V21.45H52.45H52.55L52.65 21.55H52.75V21.65H52.65V21.75L52.75 21.85V21.95V22.05V22.15V22.25V22.35V22.45V22.55V22.65V22.75H52.85V22.85L52.95 22.95V23.05L53.05 23.15L53.15 23.25L53.25 23.35V23.45H53.35V23.55V23.65L53.45 23.75V23.85V23.95V24.05V24.15L53.55 24.25V24.35V24.45H53.65V24.55L53.75 24.65V24.75V24.85V24.95H53.85V25.05H53.95V25.15L54.05 25.05H54.15H54.25H54.35H54.55H54.65L54.85 24.95H54.95V24.85H55.05H55.15L55.25 24.95L55.35 25.05H55.45H55.55V25.15H55.65H55.75L55.85 25.25H55.95V25.15H56.05H56.15H56.25V25.05H56.35V24.95H56.45H56.55H56.65V25.05H56.75H56.85H56.95H57.05L57.15 24.95H57.25H57.35V24.85V24.75H57.45V24.65H57.55H57.65H57.75L57.85 24.55V24.45V24.35V24.25V24.05L57.95 23.95H58.05H58.15L58.25 24.05H58.35L58.45 24.15V24.25H58.55V24.35L58.65 24.55V24.65H58.75H58.85H58.95L59.05 24.75V24.85L59.25 24.95V25.05H59.35H59.45L59.55 25.15L59.65 25.25V25.35H59.75V25.45V25.55V25.65H59.85H59.95H60.05H60.15L60.25 25.55H60.35H60.45H60.55V25.45H60.65H60.75L60.85 25.35H60.95V25.25H61.05V25.15H61.15V25.05H61.25L61.35 24.95H61.45L61.55 24.85H61.65V24.75V24.65V24.55H61.75V24.45H61.85V24.35V24.25V24.15H61.95V24.25L62.05 24.35L62.15 24.45V24.55H62.25L62.35 24.65V24.75L62.45 24.85V24.95H62.55V25.05V25.15H62.65V25.35V25.45V25.55V25.65H62.75V25.75L62.65 25.85V25.95V26.05L62.75 26.15V26.25V26.35H62.85V26.45H62.95V26.55H63.05H63.15H63.25L63.35 26.65H63.45V26.75H63.55V26.85V26.95H63.65V27.05V27.15H63.75H63.85H63.95H64.05H64.15L64.25 27.05H64.35V26.95H64.45V27.05H64.55V27.15H64.65V27.25H64.75H64.85V27.35H64.95L65.05 27.45H65.15H65.25V27.55H65.35V27.65H65.45H65.55H65.65V27.75H65.75H65.85H65.95H66.05H66.15H66.25H66.35H66.45H66.55H66.65H66.75V27.85H66.85H66.95H67.05H67.15H67.25L67.35 27.95V28.05V28.15V28.25H67.45L67.55 28.35V28.25H67.65V28.15H67.75L67.85 28.05H67.95H68.05H68.15H68.25H68.35L68.45 27.95H68.55L68.65 27.85L68.75 27.75V27.65H68.85H68.95V27.55H69.05V27.45V27.35H69.15L69.25 27.25H69.35V27.15H69.45V27.05H69.55H69.65V27.15H69.75V27.25L69.85 27.35H69.95V27.45H70.05H70.15V27.55H70.25V27.65H70.35H70.45V27.75H70.55H70.65H70.75L70.85 27.85H70.95V27.95H71.05V27.85H71.15H71.25V27.75H71.35L71.45 27.85H71.55H71.65H71.75H71.85L71.95 27.75L72.05 27.85H72.15H72.25H72.35H72.45H72.55H72.65L72.75 27.95H72.85V28.05H72.95L73.05 28.15H73.15V28.25H73.25V28.35H73.35V28.25H73.45L73.55 28.35H73.65V28.45V28.55V28.65V28.75L73.75 28.85L73.85 28.95V29.05V29.15V29.25H73.95V29.35H74.05H74.15V29.25H74.25H74.35H74.45L74.55 29.35H74.65V29.45H74.75V29.35V29.25H74.85H74.95H75.05H75.15H75.25H75.35L75.45 29.35H75.55L75.65 29.45V29.55H75.75V29.65H75.85V29.75H75.95V29.85V29.95L75.85 30.05V30.15V30.25H75.95V30.35V30.45H76.05V30.55H75.95V30.65V30.75L75.85 30.85V30.95H75.95H76.05V31.05H76.15H76.25V31.15H76.35V31.25H76.45H76.55V31.35H76.65V31.45H76.75V31.55V31.65H76.85V31.75H76.95H77.05L77.15 31.85V31.95V32.05V32.15H77.25V32.25H77.35H77.45H77.55H77.65V32.35H77.75V32.45L77.85 32.55V32.65V32.75L77.95 32.85V32.95H78.05V33.05H78.15V33.15V33.25V33.35H78.25V33.45V33.55H78.35V33.65V33.75H78.45V33.85H78.65L78.75 33.95H78.85L78.95 34.05H79.05V34.15H79.15V34.25H79.25V34.35H79.35L79.45 34.45H79.55H79.65H79.75H79.85H79.95H80.05H80.15H80.25H80.35H80.45H80.55H80.65H80.75V34.35H80.85V34.25H80.95V34.15H81.05V34.05H81.15V33.95V33.85H81.25V33.75H81.35V33.85H81.45H81.55H81.65H81.75V33.95H81.85H81.95H82.05H82.15L82.25 33.85H82.35L82.45 33.95L82.55 34.05V34.15H82.65V34.25H82.75V34.15H82.85L82.95 34.05H83.05H83.15V34.15H83.25V34.25H83.35H83.45H83.55V34.35H83.65V34.45H83.75V34.55L83.85 34.65V34.75L83.95 34.85V34.95V35.05H83.85H83.75L83.85 35.15V35.25V35.35V35.45V35.55V35.65V35.75H83.95L83.85 35.85V35.95H83.75V36.05V36.15V36.25H83.65H83.55L83.45 36.35V36.45V36.55V36.65V36.75V36.85V36.95V37.05H83.55V37.15H83.65V37.25H83.75H83.85H83.95V37.35H83.85V37.45V37.55L83.75 37.65H83.65V37.75V37.85V37.95L83.75 38.05L83.85 38.15V38.25H83.95H84.05V38.35H84.15V38.45H84.25V38.55V38.65V38.75V38.85H84.35L84.45 38.75H84.55V38.85H84.65H84.85H84.95L85.05 38.95H85.15H85.25H85.55L85.65 38.85H85.75L85.85 38.95V39.05V39.15H85.75V39.25H85.85V39.35V39.45V39.55L85.75 39.65V39.75V39.85H85.85V39.95H85.95H86.05V40.05H86.15V40.15H86.25L86.55 40.55L86.85 40.85L86.95 40.95H87.05H87.15H87.25V40.85H87.35H87.45V40.75L87.55 40.65H87.65L87.75 40.75H87.85H87.95H88.05V40.85H88.15V40.95H88.25V40.85H88.35H88.45V40.75H88.55V40.85H88.65H88.75V40.75H88.85L88.95 40.65V40.55H89.05H89.15V40.45H89.25L89.35 40.35L89.45 40.25H89.55V40.35L89.65 40.45L89.75 40.55V40.65V40.75H89.85L89.95 40.85H90.05H90.15H90.25L90.35 40.95H90.45H90.55V41.05V41.25V41.35H90.45V41.45H90.35L90.25 41.55H90.15V41.65L90.05 41.75V41.85V41.95V42.05V42.15V42.25H89.95H89.85V42.35V42.45V42.55H89.95L90.05 42.65L90.15 42.75V42.85L90.05 42.95V43.05H90.15V43.15L90.25 43.25L90.15 43.35V43.45V43.55H90.25V43.65H90.35V43.75V43.85V43.95V44.05L90.25 44.15H90.15V44.25H90.05V44.35H89.95V44.45V44.55L90.05 44.65V44.75V44.85V44.95V45.05V45.15V45.25V45.35L90.15 45.45L90.05 45.55L89.95 45.65V45.75H89.85V45.85V45.95H89.75V46.05H89.65L89.55 46.15V46.25V46.35V46.45V46.55L89.65 46.65V46.75V46.85L89.75 46.95V47.05L89.85 47.15L89.95 47.25H90.05L90.15 47.35V47.45H90.25V47.55H90.35V47.65H90.45H90.55H90.75H90.85V47.75H90.95H91.05L91.15 47.85H91.25H91.35L91.45 47.75V47.85H91.55V47.95H91.65L91.75 48.05H91.85H91.95H92.05H92.15V48.15H92.25H92.35H92.45L92.55 48.05H92.65V47.95L92.75 47.85H92.85V47.75H92.95H93.05L93.15 47.65V47.55H93.25L93.15 47.45V47.35V47.25H93.05V47.15H92.95V47.05V46.95H92.85V46.85V46.75V46.65H92.95V46.55H93.05H93.15V46.45H93.25V46.35V46.25H93.35V46.15L93.45 45.95V45.85H93.55V45.75H93.65V45.65V45.55V45.45V45.35V45.25H93.75V45.15H93.85V45.05V44.95V44.85H93.95V44.75H94.05V44.65H94.15V44.55H94.25L94.35 44.45L94.45 44.55V44.65H94.55V44.75H94.65V44.65H94.75H94.85L94.95 44.55H95.05V44.65L95.15 44.55H95.25L95.35 44.65H95.45V44.75H95.55V44.85H95.65H95.75V44.95H95.85V44.85H95.95V44.75H96.05V44.65H96.15V44.55H96.25V44.45V44.35H96.35V44.25H96.45V44.15V44.05H96.55H96.65H96.75L96.85 43.95H96.95H97.05V43.85H97.15H97.25H97.35V43.75L97.45 43.65H97.55H97.65H97.75V43.75L97.85 43.85L97.95 43.95H98.05H98.15V43.85V43.75L98.25 43.65H98.35H98.45V43.55H98.55V43.45H98.65V43.35V43.25V43.15V43.05V42.95V42.85L98.75 42.95H98.85L98.95 43.05H99.05H99.15H99.25H99.35V42.95V42.85H99.45L99.55 42.75V42.65L99.65 42.55L99.75 42.45L99.85 42.35H99.95H100.05H100.15H100.25H100.35H100.45L100.55 42.45L100.65 42.65H100.75L100.85 42.75V42.85V42.95H100.95L100.85 43.05V43.15V43.25V43.35H100.75V43.45V43.55H100.65V43.65V43.75H100.55V43.85H100.45V43.95H100.35V44.05V44.15V44.25V44.35V44.45V44.55H100.25V44.65H100.15V44.75V44.85H100.05V44.95H99.95V45.05V45.15V45.25H100.05L100.25 45.45L100.45 45.55H100.55V45.65V45.75H100.65V45.85H100.75V45.95L100.85 46.05H100.95L101.05 46.15V46.25H101.15V46.35H101.25V46.45L101.05 46.65L100.95 46.85L100.75 46.95V47.05V47.15H100.65H100.55V47.25V47.35L100.45 47.55V47.65V47.85L100.55 47.95L100.65 48.15L100.55 48.35V48.45H100.45V48.55H100.55L100.65 48.65V48.75V48.85V48.95H100.55L100.65 49.05V49.15H100.75V49.25V49.35V49.45L100.85 49.55V49.65H100.95V49.75H101.05H101.15H101.25V49.85H101.35L101.45 49.95V50.05V50.15L101.35 50.25V50.35L101.45 50.65L101.55 50.95V51.05V51.15H101.45V51.25V51.35V51.45H101.35V51.65V51.75L101.25 51.85V51.95H101.35V52.05H101.45L101.55 52.15L101.65 52.25L101.75 52.35L101.85 52.45V52.55V52.65V52.75H101.75V52.85V52.95V53.05L101.65 53.15V53.25V53.35V53.45H101.75V53.55H101.85V53.65H101.95H102.05L102.25 53.75H102.35V53.85H102.45H102.55V53.95V54.05V54.15V54.25L102.65 54.35H102.75V54.45H102.85H102.95H103.05H103.15H103.25V54.55V54.65V54.75L103.15 54.95V55.05V55.15L103.25 55.25H103.35L103.45 55.35L103.55 55.25H103.65V55.15H103.75H103.85H103.95L104.05 55.25H104.15L104.25 55.35H104.35H104.45H104.55V55.25H104.65H104.75H104.85L104.95 55.45L105.15 55.65L105.35 55.75L105.65 55.95L105.75 55.85H105.95L106.05 55.75H106.15H106.25H106.35H106.65V55.85H106.75L106.85 56.05V56.15L106.95 56.25L107.15 56.35H107.25L107.35 56.25V56.15L107.45 56.05H107.55L107.65 55.85L107.75 55.75V55.65H107.65V55.55V55.45H107.75V55.35H107.85V55.25H107.95L108.05 55.15L107.95 54.95V54.85L108.05 54.75L108.15 54.65L108.35 54.55H108.45V54.45V54.35V54.25L108.55 54.15H108.65L108.75 54.05V53.95H108.65V53.85V53.75V53.65H108.55V53.55H108.45V53.45V53.35H108.35V53.25V53.15H108.45V53.05L108.55 52.95V52.85V52.75V52.65L108.45 52.55V52.45H108.55L108.75 52.55H108.85L108.95 52.65L109.05 52.75H109.15H109.25H109.35H109.45L109.55 52.85H109.65V52.95H109.75H109.85L109.95 53.05H110.05H110.15V53.15V53.25H110.25V53.35H110.35H110.45V53.45H110.55H110.65H110.75L110.85 53.35L110.95 53.45H111.05V53.55H111.15V53.65H111.25H111.35H111.45H111.55V53.75V53.85V53.95H111.65H111.75H111.85V54.05H111.95V54.15H112.05V54.25L112.15 54.35V54.45H112.25V54.55V54.65L112.15 54.75H112.05V54.85V54.95L111.95 55.05V55.15V55.25V55.35V55.45V55.55V55.65H112.05V55.75V55.85L112.15 55.95V56.05V56.15H112.25V56.25H112.35V56.35H112.45L112.55 56.45H112.65H112.75H112.85V56.35H112.95L113.05 56.45L113.15 56.55H113.25V56.65H113.35L113.45 56.75H113.55H113.65V56.85V56.95H113.75H113.85V57.05V57.15H113.95V57.25V57.35V57.45L114.05 57.55H114.15H114.25H114.35L114.45 57.45H114.55V57.55L114.65 57.65H114.75L114.85 57.75H114.95H115.05H115.15H115.25V57.85L115.15 57.95V58.05V58.15L115.25 58.25L115.35 58.35H115.45L115.55 58.45V58.55H115.65V58.65V58.75H115.75V58.85H115.85L115.75 58.95L115.85 59.05L115.95 59.15H116.05H116.15V59.05L116.25 59.15V59.25H116.35V59.35V59.45V59.55V59.65H116.45L116.55 59.75V59.85H116.65V59.95V60.05H116.75H116.85V60.15H116.95V60.25H117.05H117.15H117.25V60.35H117.35V60.45V60.55V60.65V60.75H117.45H117.55V60.85H117.65H117.75H117.85V60.95V61.05H117.95V61.15H118.05V61.25H118.15V61.35V61.45H118.25H118.35L118.45 61.35L118.55 61.45V61.55H118.65V61.65H118.75H118.85V61.75V61.85V61.95V62.05V62.15L118.95 62.25H118.85V62.35L118.75 62.45V62.55V62.65V62.75H118.85V62.85V62.95V63.05V63.15H118.75V63.25V63.35V63.45V63.55V63.65V63.75L118.65 63.85L118.55 64.05V64.15V64.25L118.65 64.35V64.45H118.75H118.85H118.95H119.05L119.15 64.55H119.25H119.35H119.45L119.55 64.65L119.65 64.75H119.75L119.85 64.85H120.05H120.25V64.95H120.35H120.45L120.55 65.05V65.15L120.75 65.25L120.95 65.45L121.05 65.55L121.15 65.65H121.25V65.75H121.35V65.85V65.95L121.45 66.15L121.55 66.35H121.65V66.45V66.55L121.55 66.65H121.45H121.35V66.75H121.25H121.15H121.05H120.95V66.85H120.85V66.95L120.75 67.15V67.35V67.45H120.65V67.55V67.65H120.55H120.45V67.75H120.55V67.85H120.65V67.95V68.05V68.15H120.55V68.25L120.45 68.35L120.35 68.45V68.55H120.25V68.65L120.05 68.75H119.95V68.85L120.05 69.05H120.15V69.15L120.25 69.25L120.35 69.45H120.45L120.25 69.75V69.85H120.15L119.75 70.15H119.65V70.45L119.55 70.55H119.45V70.65V70.75V70.85L119.55 70.95V71.05V71.15V71.25H119.65V71.35L119.85 71.45H119.95H120.05V71.55L120.15 71.65L120.25 71.75H120.35V71.85L120.55 71.95V72.05H120.65V72.15V72.25V72.35H120.75V72.45V72.55H120.85L120.95 72.65V72.75L121.05 72.85V72.95V73.05V73.15L120.95 73.25V73.35V73.45V73.55H121.05H121.15H121.25V73.65H121.35L121.45 73.75H121.55H121.65L121.75 73.85V73.75H121.85V73.85H121.95H122.05V73.95H122.15V74.05H122.25V74.15V74.25H122.35V74.35V74.45V74.55V74.65H122.25V74.75L122.35 74.85L122.45 74.95L122.55 74.85H122.65V74.95H122.75H122.85L122.95 75.05H123.05V75.15H123.15V75.25L123.25 75.35H123.35V75.45H123.45L123.55 75.55V75.65V75.75H123.65V75.85H123.75V75.95H123.85H123.95L124.15 76.05H124.25V76.15L124.35 76.25L124.45 76.45V76.55L124.55 76.65L124.65 76.85V76.95V77.05L124.75 77.15H124.85V77.25L124.95 77.35V77.45V77.55H125.05V77.65H125.15V77.75H125.25V77.85H125.35V77.95H125.45V78.15H125.55V78.25V78.35V78.45V78.55H125.65V78.65V78.75H125.75V78.85V78.95V79.05V79.15H125.85V79.25V79.35H125.75H125.65L125.55 79.45L125.35 79.65L125.25 79.75H125.15V79.85V79.95L125.05 80.05H124.95V80.15H124.85L124.75 80.05H124.65H124.55H124.45V80.15H124.35L124.25 80.25L124.15 80.35V80.45H124.05V80.55L123.95 80.65V80.75V80.85H123.85V80.95L123.75 81.05H123.65V81.15H123.55V81.25H123.45V81.35H123.35V81.45V81.55H123.25V81.65V81.75H123.15V81.85V81.95V82.05V82.15H123.05V82.25V82.35V82.45H122.95V82.55V82.65L123.05 82.75V82.85H123.15V82.95H123.05H122.95V83.05H122.85V83.15V83.25L122.75 83.35H122.85V83.45V83.55H122.75V83.65V83.75V83.85V83.95V84.05V84.15V84.25V84.35L122.65 84.45V84.55H122.55V84.65V84.75V84.85L122.65 84.95V85.05L122.55 85.15V85.25L122.45 85.35L122.35 85.45L122.25 85.55V85.75L122.05 85.95H121.95V85.85L121.25 85.75L120.95 85.85V85.75H120.85H120.75L120.65 85.85L120.55 85.95L120.45 86.05L120.35 86.15L120.15 86.25V86.35H120.05V86.45H119.55L119.35 86.35L119.15 86.15H118.75L118.65 86.05L118.45 85.85L118.15 85.75V85.65H118.05H117.95H117.75L117.65 85.75H117.55L117.45 85.65H117.05H116.95L116.75 85.55L116.15 85.05V85.15H115.95V85.25H115.85L115.65 85.45L115.15 85.85H115.05H114.85L114.75 85.95H114.65L114.55 86.05L114.45 86.15H114.35H114.25H114.15V86.25H114.05L113.95 86.35V86.75V86.85H113.85L113.75 87.05L113.65 87.25V87.35H113.55L113.45 87.55V87.65L113.35 87.85V87.95L113.45 88.05V88.15V88.35L113.25 88.45L112.95 88.55L112.75 88.65L112.65 88.75L112.55 88.85H112.45H112.35V88.95H112.15L112.05 89.15H111.95H111.85V89.25H111.55L111.45 89.15L111.25 88.95L111.05 89.05L110.85 88.85H109.85V88.95L109.75 89.05H109.65H109.55L109.45 89.25H109.35L109.25 89.45V89.55H109.15H109.05H108.95L108.65 89.65V89.75L108.45 89.85H108.35L108.25 89.95H108.15L108.05 89.85H107.95H107.75H107.65H107.55H107.45H107.35L106.65 90.15L106.55 90.25H106.45L106.35 90.35L106.25 90.45H106.15H106.05L105.85 90.55H105.75L105.65 90.65H105.55L105.45 90.55H105.35H105.25H105.15V90.45V90.35V90.25V90.15L105.05 90.05L104.95 89.95V89.85H104.85L104.75 89.75V89.65H104.65H104.55L104.45 89.55H104.35L104.25 89.45V89.35L104.15 89.25L104.05 89.15H103.95H103.85V89.25H103.75H103.65H103.55H103.45H103.35H103.25V89.15H103.15H103.05V89.05H102.95H102.85H102.75L102.65 88.95V88.85H102.55H102.45V88.95V89.05V89.15H102.35V89.25H102.25H102.15V89.15H102.05V89.05H101.95H101.85L101.75 89.15H101.65V89.25H101.55V89.35L101.45 89.45H101.35H101.25H101.15H101.05V89.35H100.95L100.85 89.25L100.75 89.15H100.65V89.25L100.55 89.15H100.45L100.35 89.25H100.25H100.05H99.95H99.85L99.75 89.15L99.65 89.05V88.95L99.55 88.85V88.75L99.45 88.65V88.55L99.35 88.45L99.25 88.35V88.25V88.15L99.15 88.05V87.95V87.85V87.75L99.05 87.55H98.95H98.85L98.75 87.45L97.95 87.05L96.15 86.55L96.05 86.65H95.95H95.85H95.75V86.55L95.65 86.45L95.45 86.35L94.65 85.75H93.95H93.85H93.75H93.65L93.55 85.85H93.45H93.35V85.95H93.25H93.15V85.85V85.75V85.65V85.55V85.45L93.05 85.35L92.95 85.25H92.85L92.75 85.35H92.65V85.45H92.55V85.55V85.65H92.45H92.35H92.25H92.15V85.55V85.45H92.05H91.95V85.55H91.85H91.75L91.65 85.65L91.55 85.75V85.85V85.95V86.05V86.25L91.45 86.35V86.45L91.35 86.55L91.25 86.65V86.75H91.15V86.85H91.05H90.95V86.75H90.85H90.75H90.65H90.55L90.45 86.85L90.35 86.95H90.25H90.15H90.05H89.95L87.95 87.75H87.65V87.85H87.55V87.95H87.45H87.35H87.25L87.15 87.85H87.05V87.75H86.95H86.85H86.75L86.65 87.55V87.45H86.55L86.45 87.35L86.35 87.25H86.25V87.15V87.05V86.85H86.35V86.75H86.25V86.65L86.05 86.55V86.45L85.95 86.35L86.05 86.25L85.95 86.15H85.85H85.75V86.05V85.95V85.85V85.75V85.65V85.55V85.45V85.35V85.25H85.65V85.15H85.55L85.45 85.05L85.35 84.95L85.25 84.85H85.15L85.05 84.75V84.65H84.95V84.55H85.05L85.15 84.45V84.35V84.25L85.05 84.15H84.95H84.85H84.75L84.65 84.05H84.55H84.45L84.25 83.95H84.15H84.05H83.95H83.85H83.75H83.65L83.55 83.85H83.45V83.75L83.35 83.65H83.25V83.55H83.15V83.45H83.05L82.95 83.35V83.25H82.85H82.75L82.65 83.15H82.55L82.35 83.25L82.25 83.35H82.15H82.05H81.95H81.85V83.25V83.15H81.75V83.05L81.65 83.15H81.55H81.45H81.35H81.25H81.15L81.05 83.25H80.95H80.85H80.75H80.65L80.55 83.35H80.45V83.25H80.35H80.25H80.15V83.35H80.05V83.45V83.55V83.65H79.95V83.75H79.85L79.75 83.65V83.55V83.45V83.35H79.65V83.25H79.55L79.45 83.35H79.25L79.15 83.45L79.05 83.55H78.95H78.85H78.75V83.65H78.65L78.55 83.75H78.45V83.85H78.15H77.85H77.75L77.65 83.95V84.05H77.55H77.45H77.35H77.25V83.95L77.15 83.85H77.05L76.95 83.75L76.75 83.65H76.65H76.55L76.45 83.55H76.35V83.45H76.25V83.35V83.25V83.15V83.05L76.15 82.95L76.05 82.85L75.95 82.75L75.85 82.65H75.75H75.65L75.55 82.55L75.45 82.65H75.35H75.25H75.15V82.55H75.05V82.45H74.95V82.35V82.25H74.85H74.75H74.55H74.45L74.35 82.35H74.25H74.15H74.05L73.85 82.25H73.75H73.65H73.55L73.45 82.35V82.45L73.35 82.55H73.25H73.15L72.95 82.45H72.85L72.75 82.55H72.65H72.55V82.65H72.45H72.35L72.25 82.55L72.05 82.45L71.95 82.35L71.75 82.25H71.65L71.55 82.15H71.45H71.35H71.25H71.15H71.05L70.95 82.05L70.85 81.85L70.75 81.65V81.55L70.65 81.45H70.55V81.35H70.45V81.45H70.35V81.55V81.65V81.75L70.25 81.85V81.95V82.05V82.35V82.45L70.15 82.55L70.05 82.85V83.05V83.25H69.95V83.35H69.85L69.75 83.45V83.55V83.65H69.65V83.75V83.85H69.55V83.95V84.05H69.45V84.15H69.35V84.25H69.25V84.35L69.15 84.45V84.55V84.65V84.75H69.05V84.85H69.15V84.95V85.05L69.05 85.15V85.25H68.95H68.85H68.75H68.65H68.55L68.45 85.15L68.35 85.05H68.25V84.95H68.15H68.05L67.95 84.85H67.85L67.65 84.75V84.85H67.55H67.45L67.35 84.75L67.05 84.85H66.95V84.75H66.85H66.75V84.65H66.65H66.55H66.45V84.55H66.35V84.45L66.25 84.35V84.25H66.15H66.05L65.95 84.15H65.85H65.75V84.05V83.95L65.65 83.75V83.65V83.55H65.55V83.65H65.45H65.35L65.25 83.75V83.65L65.15 83.75V83.65H65.05V83.75H64.95H64.85V83.85H64.75V83.75H64.65L64.55 83.65H64.45H64.35V83.55H64.25V83.45H64.15V83.35H64.05L63.95 83.25L64.05 83.15V83.05V82.95L63.95 82.85L63.85 82.75H63.75H63.65H63.55V82.65L63.45 82.55H63.35H63.25H63.15H63.05H62.95L62.85 82.65H62.75V82.55V82.45V82.35V82.25H62.65V82.15H62.55H62.45V82.05H62.35H62.25L62.15 81.95H62.05V81.85V81.75H61.95H61.85H61.75L61.65 81.65V81.55H61.55V81.45V81.35H61.45H61.35V81.25L61.25 81.35H61.15V81.45H61.05H60.95H60.85H60.75V81.35L60.65 81.25H60.55H60.45V81.15L60.35 81.05V80.85L60.45 80.75H60.35V80.65L60.45 80.55V80.45L60.55 80.35L60.65 80.25H60.85V80.15H60.75L60.65 80.05L60.55 79.95H60.45V80.05H60.35L60.25 80.15H60.15V80.05L60.05 79.95V79.85H59.95V79.75H59.85L59.75 79.65V79.55H59.65V79.45H59.55H59.45V79.55H59.35H59.25L59.15 79.65H59.05H58.95V79.55H58.85L58.65 79.45H58.55H58.45V79.35H58.35H58.25V79.25V79.15V79.05H58.15H58.05V78.95L57.95 78.85V78.75H57.85V78.65V78.55H57.75H57.65L57.75 78.35H57.65L57.75 78.25H57.85V78.15H57.95V78.05H58.05V77.95L57.95 77.85H58.05V77.75V77.65H58.15V77.55H58.35V77.45H58.45V77.35V77.25H58.35L58.25 77.15L58.15 76.95H58.05V76.85H57.95V76.75V76.65H57.85H57.75L57.55 76.55L57.45 76.45H57.35L57.25 76.25L57.35 75.95H57.25V75.85V75.65V75.45V75.25H57.15H57.05H56.95H56.85H56.75H56.65H56.45V75.35L56.35 75.45V75.55L56.25 75.75L56.15 75.85H56.05V75.75H55.95H55.85H55.75V75.85L55.65 75.95L55.55 75.85H55.35H55.25H55.15H55.05V75.75H54.85H54.75H54.65H54.55V75.65H54.45H54.35H54.25H54.15H54.05V75.55H53.95H53.85H53.75H53.65V75.45H53.55H53.45H53.25V75.35L53.15 75.15L53.05 75.05H53.15V74.95H53.25L53.15 74.65H53.25L53.15 74.45L52.95 74.35V74.15L52.85 73.95L52.65 73.85L52.55 73.75L52.45 73.95L52.25 73.85V73.75H52.15L52.05 74.15H51.65V74.35L51.45 74.25L51.35 74.35V74.45L51.25 74.85L51.15 75.35L50.95 75.45L50.85 75.55L50.75 75.75H50.65V75.55L50.35 75.65H50.25L50.15 75.85L49.95 75.95L49.75 76.05V76.15H49.65L49.75 76.25H49.65H49.55L49.45 76.35L49.75 76.55L49.95 76.65V76.85L49.85 76.95H49.95L49.85 77.15L49.65 77.05L49.55 77.45L49.45 77.55V77.65L49.35 77.55V77.65H49.25V77.75H49.15L49.05 77.85V77.95H49.15V78.05H49.25L49.35 78.15H49.45L49.25 78.35V78.55H49.35V78.65L49.45 78.75H49.35L49.25 78.95L49.05 79.25L48.85 79.35L48.65 79.55H48.75L48.85 79.75H48.95L49.05 79.85H49.15L49.25 79.95V80.15L49.15 80.45L49.05 80.55L48.95 80.65L48.85 80.85L48.75 80.95V81.05H48.65L48.55 81.15H48.45V81.25L48.25 81.35V81.55L48.65 81.65L48.55 81.75L48.45 81.95V82.05H48.35V82.15V82.25V82.35H48.25V82.45H48.15H48.05H47.95L47.65 82.25L47.55 82.15L47.25 82.25H47.05L46.65 82.55L46.55 82.65H46.15L45.65 82.75L45.35 82.85H45.25V82.95L45.15 83.05V83.15H45.05V83.25L44.95 83.45H44.85H44.75H44.65V83.55H44.55V83.45H44.45V83.55L44.25 83.35L44.15 83.25L44.05 83.15H43.95H43.85H43.65H43.55V83.05V82.85V82.75L43.35 82.45V82.55V82.65L43.05 82.55V82.45H42.95L42.55 82.35V82.25L42.65 82.15V82.05H42.35L42.05 81.95H41.95H41.85V82.05V82.15V82.25H41.75L41.35 81.95L41.25 81.85V81.95L41.15 81.85H41.05L40.95 81.75V81.65L40.45 81.45H40.25H40.05V81.55H39.95L39.85 81.75H39.75V81.95L39.85 82.05L39.75 82.15V82.25V82.35V82.45L39.85 82.55V82.65H39.95V82.75H40.05V82.85H40.15H40.25H40.35H40.45V82.95L40.55 83.05V83.15L40.65 83.25V83.35V83.45V83.55L40.75 83.65V83.75V83.85V83.95L40.65 84.05H40.75V84.15V84.25V84.35V84.45H40.85V84.55V84.65V84.75V84.85V84.95V85.05V85.15H40.95V85.25H41.05V85.35H40.95L40.85 85.45V85.55H40.75H40.65H40.55V85.65H40.45V85.75L40.35 85.85H40.25L40.15 85.95H40.05H39.95V85.85H39.85V85.95H39.75H39.65V86.05V86.15H39.55V86.05V85.95V85.85L39.45 85.95V86.05H39.35V85.95V85.85H39.25V85.95V86.05H39.15V85.95V85.85H39.05L38.95 85.95V86.05V86.15H38.85V86.05H38.75V86.15V86.25H38.65H38.55V86.35H38.45V86.25V86.15H38.55V86.05H38.45V86.15H38.35H38.25V86.05V85.95L38.35 85.85V85.75H38.25V85.65H38.35V85.55V85.45V85.35H38.25H38.15L38.05 85.45L37.95 85.35L37.85 85.45V85.55H37.75H37.65V85.45V85.35H37.55V85.25H37.45V85.35L37.35 85.45V85.35V85.25H37.25V85.15H37.35V85.05H37.25V84.95V84.85H37.35V84.75H37.25V84.65H37.15V84.55H37.05H36.95V84.65H37.05V84.75V84.85L36.95 84.75H36.85V84.85H36.75V84.75V84.65L36.85 84.55V84.45H36.75V84.55L36.65 84.65H36.55V84.55H36.65V84.45H36.55H36.45V84.35V84.25L36.35 84.35H36.25V84.25H36.15H36.05V84.15H35.95H35.85V84.25H35.75H35.65V84.15L35.75 84.05H35.85V83.95H35.75V83.85V83.75H35.65V83.65H35.55H35.45V83.55H35.55V83.45L35.65 83.35V83.25H35.75V83.15L35.85 83.05V82.95H35.95L36.05 83.05L36.15 82.95H36.05V82.85V82.75V82.65H36.15H36.25V82.55L36.55 82.25V82.15H36.65L36.95 81.95V81.75V81.55V81.35V81.25V81.15H37.05H37.15V81.05H37.25H37.35V80.95V80.85V80.75H37.45L37.55 80.25L37.75 80.05V79.75V79.45V79.15V78.85V78.75H37.65H37.55H37.45V78.65H37.35H37.25V78.75H37.35V78.85V78.95H37.25H37.15H37.05V78.85L36.95 78.75V78.65H36.85V78.55H36.75V78.45H36.85L36.95 78.35H36.85H36.75V78.25H36.85V78.15H36.75V78.05V77.95H36.65V77.85V77.75V77.65V77.55H36.75V77.45H36.65V77.35H36.75V77.25H36.65L36.55 77.15V77.05V76.95H36.45H36.35V76.85H36.25L36.15 76.75V76.65L36.05 76.55H35.95H35.85V76.65H35.75V76.75V76.85H35.65H35.55H35.45V76.75V76.65V76.55H35.55H35.65V76.45V76.35H35.55H35.45V76.25H35.35V76.15V76.05V75.95V75.85H35.25H35.15V75.75V75.65H35.05V75.55V75.45V75.35V75.25V75.15L35.15 75.05V74.95H35.25V74.85V74.75V74.65V74.55L35.15 74.45V74.35V74.25H35.05V74.15H34.95V74.05L34.75 73.95H34.65H34.55H34.45L34.35 74.05L34.25 74.15V74.25V74.35V74.45H34.15V74.55V74.65V74.75L34.05 74.85H33.95H33.85V74.75H33.75V74.65V74.55V74.45V74.35H33.85V74.25V74.15H33.95V74.05V73.95H34.05V73.85H33.95V73.75L33.85 73.65H33.75H33.65H33.55V73.75H33.45V73.85V73.95H33.35V74.05H33.25H33.15L33.05 73.95L32.85 73.85L32.75 73.75H32.65V73.65H32.55H32.45H32.35H32.25V73.75H32.15V73.85V73.95L32.25 74.05H32.35V74.15L32.45 74.25H32.55V74.35V74.45H32.45V74.55H32.35L32.25 74.65H32.15L32.05 74.55H31.95H31.85V74.45H31.75V74.35H31.65V74.25V74.15V74.05V73.95L31.55 73.85L31.45 73.75H31.35H31.25H31.15V73.85L31.05 73.95H30.95H30.85H30.75L30.65 73.85H30.55H30.45H30.35H30.25V73.95V74.05L30.15 74.15L30.05 74.25H29.95V74.15H29.85H29.75H29.65L29.55 74.25L29.45 74.35L29.35 74.45L29.25 74.55H29.15H29.05H28.95H28.85L28.75 74.65V74.75L28.65 74.85L28.55 74.95H28.45L28.35 75.05V75.15H28.25L27.95 75.35L27.85 75.45L27.75 75.55L27.65 75.65V75.75H27.55L27.45 75.85H27.35V75.95H27.25H27.15H26.95L26.85 75.85H26.75L26.65 75.75L26.55 75.65H26.45H26.35H26.25H26.15H26.05H25.95H25.85H25.75H25.65H25.45H25.35H25.25V75.55L25.05 75.45L24.95 75.35L24.85 75.15V75.05H24.75H24.65H24.55V74.95V74.85H24.45L24.35 74.95H24.25V75.05H24.15H24.05H23.95H23.85V74.95H23.75H23.65H23.55V74.85V74.75H23.45H23.35L23.25 74.65H23.15V74.75H23.05L23.15 74.35V74.25L23.35 74.15L23.55 74.05L23.45 73.95L23.35 73.85V73.75H23.25V73.55H23.15V73.45V73.35V73.25V73.15V73.05V72.95V72.85H23.25V72.75H23.35V72.65V72.55H23.25H23.15V72.45L23.05 72.35H22.95V72.25V72.15L23.05 72.05H23.15V71.95H23.25H23.35H23.45V71.85L23.15 71.35L23.05 71.45L22.85 71.25V71.15L22.75 70.95L22.65 70.75L22.45 70.95L22.35 70.85H22.25V70.75V70.65V70.55V70.35L22.05 69.85L21.95 69.75L21.85 69.55L21.75 69.45L21.85 69.35L21.65 69.15V68.85H21.95L22.15 68.45V68.35V68.15L22.05 68.05H21.95L21.75 67.95H21.65L21.45 67.85H21.35L21.25 67.65L21.05 67.45L20.95 67.35L20.75 67.15L20.35 66.95H20.25L20.15 67.05L20.05 66.85L19.95 66.75V66.65H19.85L19.75 66.55V66.45H19.65V66.35V66.25L19.55 66.15L19.45 66.05H19.35L19.25 65.85L19.15 65.75V65.65V65.55V65.45L19.25 65.35V65.25H19.35L19.25 65.15V65.05V64.95L19.35 64.85H19.25L18.65 64.75H18.35L18.45 64.65L18.55 64.55L18.65 64.45V64.35V64.25H18.55V64.15L18.65 64.05L18.45 63.95L18.35 63.85H18.15L18.05 63.75H17.95V63.65H17.85V63.75H17.75H17.65V63.85V63.95H17.55V64.05H17.45V63.95H17.35V64.05H17.25H17.15V64.15H17.05H16.95V64.25H17.05V64.35H16.95V64.45H16.85H16.75H16.65H16.55V64.55H16.45H16.35L16.25 64.45H16.15H16.05H15.95H15.85V64.35L15.75 64.25V64.15H15.65V64.05H15.55V63.95H15.45H15.35L15.25 63.85L15.15 63.75L15.05 63.85V63.95V64.15H14.85L14.75 64.05H14.65H14.45V63.95V63.85L14.35 63.95H14.15H14.05H13.85H13.75L13.65 64.05H13.55H13.45V64.15H13.35V64.25L13.25 64.35V64.45V64.55H13.15V64.65H13.05H12.95V64.75H12.85V64.85H12.75V64.95V65.05V65.15H12.65L12.55 64.95L12.35 64.75L12.25 64.65L12.05 64.45L11.95 64.35V64.25L11.85 63.95L11.75 63.75V63.65V63.55V63.45L11.65 63.25L11.55 62.95L11.45 62.75L11.25 62.55L11.15 62.45L11.05 62.35L10.95 62.25V62.35H10.85V62.25L10.65 62.05L10.45 61.85L10.35 61.75L10.45 61.55V61.45V61.25L10.35 60.95V60.85V60.75V60.65L10.45 60.55V60.45V60.35L10.35 60.25V60.15V60.05V59.95V59.85L10.25 59.75V59.65V59.55H10.15V59.45H10.05H9.95V59.35H9.85V59.25H9.75H9.65V59.15L9.55 59.05H9.45V58.95H9.35V58.85V58.75V58.65V58.55H9.45V58.45H9.35H9.25V58.35H9.15V58.25H9.05V58.15V58.05H9.15L9.25 57.85L9.35 57.75V57.45L9.45 57.25V57.15L9.35 57.05L9.25 56.85V56.75L9.35 56.65L9.45 56.45V56.35H9.35V56.25V56.15V56.05H8.95L8.45 56.15L8.35 56.05H8.25L8.15 55.95L8.05 55.85L7.55 55.75L6.95 55.55H6.85H6.75L6.55 55.15L6.35 54.75L6.25 54.65V54.55V54.45H6.15V54.35V54.25H6.05V54.15V54.05H5.95L5.85 53.95V53.85H5.75H5.65V53.75H5.55L5.45 53.65L5.35 53.55V53.45H5.45L5.55 53.35H5.75H5.85L5.95 53.25H6.05H6.15V53.15H6.25V53.05V52.95L6.35 52.85L6.45 52.75V52.65L6.55 52.55V52.45V52.35L6.65 52.25V52.15L5.95 51.75H5.85H5.75L5.65 51.85H5.55H5.45H5.35H5.25L5.15 51.75H5.05L4.95 51.65L4.85 51.55H4.75V51.45H4.65V51.35L3.45 51.15L1.85 51.85L1.35 52.35H1.25L1.15 52.45L0.650002 52.35H0.549999V52.25H0.450001V52.15V52.05V51.95V51.85V51.75V51.65L0.349998 51.55L0.25 51.45V51.35V51.25V51.15V51.05V50.95V50.85V50.75V50.65V50.55L0.349998 50.45V50.35V50.25L0.25 50.15V50.05V49.85L0.349998 49.55V49.05V48.95L0.450001 48.75V48.65V48.55V48.25V48.15L0.549999 47.95V47.55L0.650002 47.45V47.15V46.95L0.75 46.65L0.849998 46.15V45.75L0.950001 45.25V44.95L1.05 44.75V44.45V44.25V44.15V43.95L1.15 43.85L1.25 43.35V42.95V42.55V42.45L1.35 42.05V41.85V41.75V41.65V41.55V41.45V41.15V41.05V40.85V40.65V40.55V40.35V40.25V40.15L1.45 40.05V39.95V39.85V39.65L1.55 39.45V39.35L1.65 39.15L1.75 38.95V38.85V38.75L1.85 38.65L1.95 38.25L2.15 38.05V37.85L2.25 37.75L2.45 37.45L2.55 37.25V37.15L2.75 37.05V36.95H2.85V36.85V36.75V36.65V36.55H2.95L3.05 36.65H3.15H3.25L3.65 36.35L3.85 36.05V35.95L4.15 35.75H4.35H4.55H4.75H4.85H4.95V35.65L5.05 35.55H5.15V35.45L5.45 35.25V35.15L5.55 35.05L5.65 34.75L5.75 34.65V34.55L5.85 34.45V34.35V34.25V34.15V34.05V33.85L5.95 33.75L6.05 33.65H6.15L6.35 33.45H6.45H6.55V33.35H6.65V33.25V33.15H6.75H6.85L7.15 32.95L7.35 32.75L7.55 32.65L7.75 32.45L7.85 32.25V32.15H7.95V32.05H8.05L8.25 31.95L8.35 31.85H8.45L8.55 31.65V31.55H8.65L8.75 31.45H8.85L8.95 31.35H9.05H9.15V31.25H9.25V31.15H9.35L9.45 31.05H9.55H9.65H9.75H9.85H10.05H10.15V30.95H10.25H10.35H10.45L10.55 30.65V30.35L10.65 30.15L10.75 29.85V29.75V29.65V29.55V29.45V29.35V29.25V29.05H10.85V28.85L10.95 28.75L11.05 28.65L11.15 28.35L10.95 28.15L11.05 28.05L11.15 27.95V27.85H11.25L11.35 27.75H11.45L11.55 27.45V27.15L11.45 27.05V26.75L11.55 26.65L11.45 26.55L11.25 26.45H11.15V26.35H11.05V26.25V26.15H10.95V26.05V25.95H10.85H10.75H10.65H10.55V25.85V25.75L10.65 25.55L10.75 25.35V25.25V25.15V24.95V24.85V24.75V24.65L10.85 24.55V24.45L10.95 24.35V24.25H11.05V24.15H11.15H11.25H11.35L11.45 23.95L11.55 23.85V23.75L11.65 23.65L11.75 23.55H11.85L12.05 23.45H12.15V23.35V23.25V23.15H12.25V23.05L12.35 22.95L12.25 22.85L12.35 22.75V22.65V22.55L12.45 22.45V22.35H12.55L12.65 22.25L12.85 22.15V22.05V21.95H12.75V21.85V21.65V21.55V21.45V21.25V21.15V21.05L12.65 20.75V20.55V20.35V20.15L12.55 20.05H12.45V19.95V19.85L12.35 19.65L12.25 19.55V19.45V19.35V19.25H12.35L12.45 19.05V18.95V18.55L12.55 18.35V18.25V18.05V17.85V17.75V17.65V17.55V17.45V17.35H12.65V17.25V17.05V16.95L12.75 16.75L13.05 16.65L13.15 16.45V16.35V16.15H13.25L13.65 15.95H13.75L14.05 15.85L14.15 15.75L14.35 15.65H14.45H14.55V15.55V15.35V15.15V14.95V14.85V14.65L14.65 14.35L14.55 14.25V14.15V14.05H14.65V13.95V13.85V13.75L14.75 13.65V13.55V13.45V13.35V13.25L14.85 13.15L14.95 13.05H15.05V12.95V12.75L14.95 12.65L14.85 12.55H14.75V12.45V12.35V12.15H14.85V12.05V11.95H14.95L15.05 11.75L15.25 11.35L15.35 11.25L15.45 11.15V11.05L15.55 10.85L15.65 10.75V10.65L15.85 10.45L15.95 10.25L16.15 9.95001L16.25 9.75L16.35 9.55002L16.55 9.25L16.75 8.85001L16.85 8.75H16.95V8.65002H17.05H17.25V8.55002V8.45001V8.35001V8.25L17.35 8.15002V8.05002V7.95001V7.85001V7.65002V7.45001V7.35001H17.45V7.25H17.65H17.85L18.05 7.15002L18.15 7.05002L18.25 6.85001H18.35L18.55 6.75H18.75H18.85L18.95 6.85001H19.05L19.15 6.95001H19.25H19.45H19.55H19.65V6.85001L19.75 6.75L19.85 6.65002L20.05 6.55002V6.45001H20.15H20.35L20.45 6.35001H20.65L20.75 6.25L20.85 6.15002L20.75 6.05002V5.85001L20.65 5.65002L20.45 5.35001V5.15002V5.05002L20.75 4.95001L20.95 4.75L21.05 4.55002L21.15 4.35001L21.05 3.95001V3.75V3.55002V3.15002V2.95001V2.85001L21.15 2.65002L21.05 2.35001L21.15 1.95001V1.65002V1.35001V0.950012V0.75V0.550018L21.25 0.650024L21.35 0.550018H21.45L21.65 0.450012L21.75 0.350006H21.85V0.25L22.55 0.450012L24.45 2.55002L25.75 3.35001L26.85 3.55002L27.25 3.45001H27.85H28.05L29.75 3.55002L30.85 3.25H31.05H31.35L31.45 3.35001L31.95 3.75L32.85 5.05002L33.45 5.25L34.35 5.75L35.45 6.75L36.45 7.15002L36.75 6.55002H36.85L37.05 6.45001H37.15Z" fill="#220F0F"/>
<path d="M74.55 29.35L74.45 29.25H74.35H74.25H74.15V29.35H74.05H73.95V29.25H73.85V29.15V29.05V28.95L73.75 28.85L73.65 28.75V28.65V28.55V28.45V28.35H73.55L73.45 28.25H73.35V28.35H73.25V28.25H73.15V28.15H73.05L72.95 28.05H72.85V27.95H72.75L72.65 27.85H72.55H72.45H72.35H72.25H72.15H72.05L71.95 27.75L71.85 27.85H71.75H71.65H71.55H71.45L71.35 27.75H71.25V27.85H71.15H71.05V27.95H70.95V27.85H70.85L70.75 27.75H70.65H70.55H70.45V27.65H70.35H70.25V27.55H70.15V27.45H70.05H69.95V27.35H69.85L69.75 27.25V27.15H69.65V27.05H69.55H69.45V27.15H69.35V27.25H69.25L69.15 27.35H69.05V27.45V27.55H68.95V27.65H68.85H68.75V27.75L68.65 27.85L68.55 27.95H68.45L68.35 28.05H68.25H68.15H68.05H67.95H67.85L67.75 28.15H67.65V28.25H67.55V28.35L67.45 28.25H67.35V28.15V28.05V27.95L67.25 27.85H67.15H67.05H66.95H66.85H66.75V27.75H66.65H66.55H66.45H66.35H66.25H66.15H66.05H65.95H65.85H65.75H65.65V27.65H65.55H65.45H65.35V27.55H65.25V27.45H65.15H65.05L64.95 27.35H64.85V27.25H64.75H64.65V27.15H64.55V27.05H64.45V26.95H64.35V27.05H64.25L64.15 27.15H64.05H63.95H63.85H63.75H63.65V27.05V26.95H63.55V26.85V26.75H63.45V26.65H63.35L63.25 26.55H63.15H63.05H62.95V26.45H62.85V26.35H62.75V26.25V26.15L62.65 26.05V25.95V25.85L62.75 25.75V25.65H62.65V25.55V25.45V25.35V25.15H62.55V25.05V24.95H62.45V24.85L62.35 24.75V24.65L62.25 24.55H62.15V24.45L62.05 24.35L61.95 24.25V24.15H61.85V24.25V24.35V24.45H61.75V24.55H61.65V24.65V24.75V24.85H61.55L61.45 24.95H61.35L61.25 25.05H61.15V25.15H61.05V25.25H60.95V25.35H60.85L60.75 25.45H60.65H60.55V25.55H60.45H60.35H60.25L60.15 25.65H60.05H59.95H59.85H59.75V25.55V25.45V25.35H59.65V25.25L59.55 25.15L59.45 25.05H59.35H59.25V24.95L59.05 24.85V24.75L58.95 24.65H58.85H58.75H58.65V24.55L58.55 24.35V24.25H58.45V24.15L58.35 24.05H58.25L58.15 23.95H58.05H57.95L57.85 24.05V24.25V24.35V24.45V24.55L57.75 24.65H57.65H57.55H57.45V24.75H57.35V24.85V24.95H57.25H57.15L57.05 25.05H56.95H56.85H56.75H56.65V24.95H56.55H56.45H56.35V25.05H56.25V25.15H56.15H56.05H55.95V25.25H55.85L55.75 25.15H55.65H55.55V25.05H55.45H55.35L55.25 24.95L55.15 24.85H55.05H54.95V24.95H54.85L54.65 25.05H54.55H54.35H54.25H54.15H54.05L53.95 25.15V25.05H53.85V24.95H53.75V24.85V24.75V24.65L53.65 24.55V24.45H53.55V24.35V24.25L53.45 24.15V24.05V23.95V23.85V23.75L53.35 23.65V23.55V23.45H53.25V23.35L53.15 23.25L53.05 23.15L52.95 23.05V22.95L52.85 22.85V22.75H52.75V22.65V22.55V22.45V22.35V22.25V22.15V22.05V21.95V21.85L52.65 21.75V21.65H52.75V21.55H52.65L52.55 21.45H52.45H52.35V21.35V21.25V21.15V21.05L52.25 20.95V20.85V20.75H52.15L52.05 20.65V20.55L51.95 20.45V20.35H51.85V20.25V20.15H51.75V20.05L51.65 19.95L51.55 19.85H51.45V19.75V19.65L51.35 19.55H51.25L51.15 19.45H51.05H50.95H50.85H50.45L50.35 19.05V18.95L50.45 18.85V18.75L50.55 18.65H50.65L50.55 18.55V18.45L50.45 18.25L50.35 18.05H50.25L50.15 18.15H50.05H49.95V18.05V17.95L49.85 17.85H49.75H49.65H49.55V17.75H49.45V17.65H49.35H49.15H49.05V17.55H48.95L48.85 17.35L48.75 17.25H48.65H48.55H48.45V17.35H48.35H48.25H48.15V17.45H48.05V17.55V17.65V17.75V17.85H47.95H47.85H47.75L47.65 17.95H47.55H47.45V17.85H47.35H47.25L47.15 17.95H47.05V18.05H46.95V18.15H46.85V18.25H46.75V18.35L46.65 18.45H46.55V18.35H46.45V18.25H46.35V18.15H46.25H46.15H46.05H45.95H45.85H45.75V18.25H45.65L45.55 18.35H45.45L45.35 18.45H45.25L45.15 18.55L45.05 18.45H44.95H44.85H44.75L44.65 18.55L44.55 18.65L44.45 18.75L44.35 18.85V18.95V19.15L44.25 19.25L44.05 19.45V19.55H43.95L43.85 19.65V19.75H43.75V19.65H43.65L43.55 19.55L43.45 19.45L43.35 19.35H43.25H43.15L43.05 19.25L42.95 19.15L42.85 19.05H42.75V18.95L42.65 18.85V18.75H42.55V18.65H42.45V18.55V18.45H42.35V18.35V18.25V18.15V18.05V17.95V17.85V17.75V17.65V17.55V17.45H42.25V17.35V17.25V17.15V17.05V16.95V16.85V16.75V16.65H42.15V16.55H42.25V16.45V16.35H42.15V16.25H42.05L41.95 16.15H41.85V16.05L41.65 16.15V16.05H41.55H41.45L41.35 15.95H41.25V15.85H41.15L41.05 15.75H40.95H40.85L40.75 15.65H40.65V15.55H40.55V15.45H40.45H40.35V15.35H40.25H40.15V15.25V15.15H40.05V15.05H39.95L39.85 14.95H39.75V14.85H39.65V14.75H39.55H39.45V14.65H39.35V14.55H39.25V14.45H39.15V14.35H39.05H38.95V14.25H38.85L38.75 14.15H38.65V14.05H38.55V13.95H38.45V13.85L38.35 13.75V13.65L38.25 13.55V13.45V13.35V13.25V13.15H38.15V12.95V12.85L38.05 12.75V12.65V12.55L37.95 12.45V12.35H37.85V12.25H37.75V12.15V12.05H37.65V11.95H37.55V11.85V11.75V11.65V11.55H37.45V11.45V11.35H37.35V11.25V11.15L37.25 11.05V10.95V10.85H37.35V10.75V10.65V10.55V10.45V10.35V10.25V10.15V10.05V9.95001H37.45L37.55 9.85001L37.65 9.75H37.75H37.85V9.65002H37.95V9.55002H38.05H38.15V9.45001H38.25H38.35V9.35001H38.45L38.55 9.25V9.15002H38.65V9.05002H38.75L38.85 9.25H38.95V9.35001H39.05H39.15H39.25H39.35V9.25H39.45H39.55V9.15002L39.65 9.05002V8.95001V8.85001H39.55V8.75V8.65002L39.45 8.55002V8.45001H39.55V8.35001V8.25L39.65 8.15002V8.05002H39.55V7.95001L39.45 7.85001V7.75V7.65002V7.55002H39.35V7.45001L39.25 7.35001V7.25H39.15V7.15002H39.05V7.05002L38.95 6.95001V6.85001H38.85L38.75 6.65002V6.55002H38.65V6.45001V6.35001H38.55H38.45L38.35 6.45001H38.25H38.15H38.05V6.55002H37.95L37.85 6.65002H37.75V6.75H37.65H37.55V6.65002H37.45H37.35L37.25 6.55002L37.15 6.45001H37.05L36.85 6.55002H36.75L36.45 7.15002L35.45 6.75L34.35 5.75L33.45 5.25L32.85 5.05002L31.95 3.75L31.45 3.35001L31.35 3.25H31.05H30.85L29.75 3.55002L28.05 3.45001H27.85H27.25L26.85 3.55002L25.75 3.35001L24.45 2.55002L22.55 0.450012L21.85 0.25V0.350006H21.75L21.65 0.450012L21.45 0.550018H21.35L21.25 0.650024L21.15 0.550018V0.75V0.950012V1.35001V1.65002V1.95001L21.05 2.35001L21.15 2.65002L21.05 2.85001V2.95001V3.15002V3.55002V3.75V3.95001L21.15 4.35001L21.05 4.55002L20.95 4.75L20.75 4.95001L20.45 5.05002V5.15002V5.35001L20.65 5.65002L20.75 5.85001V6.05002L20.85 6.15002L20.75 6.25L20.65 6.35001H20.45L20.35 6.45001H20.15H20.05V6.55002L19.85 6.65002L19.75 6.75L19.65 6.85001V6.95001H19.55H19.45H19.25H19.15L19.05 6.85001H18.95L18.85 6.75H18.75H18.55L18.35 6.85001H18.25L18.15 7.05002L18.05 7.15002L17.85 7.25H17.65H17.45V7.35001H17.35V7.45001V7.65002V7.85001V7.95001V8.05002V8.15002L17.25 8.25V8.35001V8.45001V8.55002V8.65002H17.05H16.95V8.75H16.85L16.75 8.85001L16.55 9.25L16.35 9.55002L16.25 9.75L16.15 9.95001L15.95 10.25L15.85 10.45L15.65 10.65V10.75L15.55 10.85L15.45 11.05V11.15L15.35 11.25L15.25 11.35L15.05 11.75L14.95 11.95H14.85V12.05V12.15H14.75V12.35V12.45V12.55H14.85L14.95 12.65L15.05 12.75V12.95V13.05H14.95L14.85 13.15L14.75 13.25V13.35V13.45V13.55V13.65L14.65 13.75V13.85V13.95V14.05H14.55V14.15V14.25L14.65 14.35L14.55 14.65V14.85V14.95V15.15V15.35V15.55V15.65H14.45H14.35L14.15 15.75L14.05 15.85L13.75 15.95H13.65L13.25 16.15H13.15V16.35V16.45L13.05 16.65L12.75 16.75L12.65 16.95V17.05V17.25V17.35H12.55V17.45V17.55V17.65V17.75V17.85V18.05V18.25V18.35L12.45 18.55V18.95V19.05L12.35 19.25H12.25V19.35V19.45V19.55L12.35 19.65L12.45 19.85V19.95V20.05H12.55L12.65 20.15V20.35V20.55V20.75L12.75 21.05V21.15V21.25V21.45V21.55V21.65V21.85V21.95H12.85V22.05V22.15L12.65 22.25L12.55 22.35H12.45V22.45L12.35 22.55V22.65V22.75L12.25 22.85L12.35 22.95L12.25 23.05V23.15H12.15V23.25V23.35V23.45H12.05L11.85 23.55H11.75L11.65 23.65L11.55 23.75V23.85L11.45 23.95L11.35 24.15H11.25H11.15H11.05V24.25H10.95V24.35L10.85 24.45V24.55L10.75 24.65V24.75V24.85V24.95V25.15V25.25V25.35L10.65 25.55L10.55 25.75V25.85V25.95H10.65H10.75H10.85H10.95V26.05V26.15H11.05V26.25V26.35H11.15V26.45H11.25L11.45 26.55L11.55 26.65L11.45 26.75V27.05L11.55 27.15V27.45L11.45 27.75H11.35L11.25 27.85H11.15V27.95L11.05 28.05L10.95 28.15L11.15 28.35L11.05 28.65L10.95 28.75L10.85 28.85V29.05H10.75V29.25V29.35V29.45V29.55V29.65V29.75V29.85L10.65 30.15L10.55 30.35V30.65L10.45 30.95H10.35H10.25H10.15V31.05H10.05H9.85H9.75H9.65H9.55H9.45L9.35 31.15H9.25V31.25H9.15V31.35H9.05H8.95L8.85 31.45H8.75L8.65 31.55H8.55V31.65L8.45 31.85H8.35L8.25 31.95L8.05 32.05H7.95V32.15H7.85V32.25L7.75 32.45L7.55 32.65L7.35 32.75L7.15 32.95L6.85 33.15H6.75H6.65V33.25V33.35H6.55V33.45H6.45H6.35L6.15 33.65H6.05L5.95 33.75L5.85 33.85V34.05V34.15V34.25V34.35V34.45L5.75 34.55V34.65L5.65 34.75L5.55 35.05L5.45 35.15V35.25L5.15 35.45V35.55H5.05L4.95 35.65V35.75H4.85H4.75H4.55H4.35H4.15L3.85 35.95V36.05L3.65 36.35L3.25 36.65H3.15H3.05L2.95 36.55H2.85V36.65M74.55 29.35V29.45M74.55 29.35H74.65V29.45H74.75V29.35V29.25H74.85H74.95H75.05H75.15H75.25H75.35L75.45 29.35H75.55L75.65 29.45V29.55H75.75V29.65H75.85V29.75H75.95V29.85V29.95L75.85 30.05V30.15V30.25H75.95V30.35V30.45H76.05V30.55H75.95V30.65V30.75L75.85 30.85V30.95H75.95H76.05V31.05H76.15H76.25V31.15H76.35V31.25H76.45H76.55V31.35H76.65V31.45H76.75V31.55V31.65H76.85V31.75H76.95H77.05L77.15 31.85V31.95V32.05V32.15H77.25V32.25H77.35H77.45H77.55H77.65V32.35H77.75V32.45L77.85 32.55V32.65V32.75L77.95 32.85V32.95H78.05V33.05H78.15V33.15V33.25V33.35H78.25V33.45V33.55H78.35V33.65V33.75H78.45V33.85H78.65L78.75 33.95H78.85L78.95 34.05H79.05V34.15H79.15V34.25H79.25V34.35H79.35L79.45 34.45H79.55H79.65H79.75H79.85H79.95H80.05M80.05 34.45V34.35M80.05 34.45H80.15H80.25H80.35H80.45H80.55H80.65H80.75V34.35H80.85V34.25H80.95V34.15H81.05V34.05H81.15V33.95V33.85H81.25V33.75H81.35V33.85H81.45H81.55H81.65H81.75V33.95H81.85H81.95H82.05H82.15L82.25 33.85H82.35L82.45 33.95L82.55 34.05V34.15H82.65V34.25H82.75V34.15H82.85L82.95 34.05H83.05H83.15V34.15H83.25V34.25H83.35H83.45H83.55V34.35H83.65V34.45H83.75V34.55L83.85 34.65V34.75L83.95 34.85V34.95V35.05H83.85H83.75L83.85 35.15V35.25V35.35V35.45V35.55V35.65V35.75H83.95L83.85 35.85V35.95H83.75V36.05V36.15V36.25H83.65H83.55L83.45 36.35V36.45V36.55V36.65V36.75V36.85V36.95V37.05H83.55V37.15H83.65V37.25H83.75H83.85H83.95V37.35H83.85V37.45V37.55L83.75 37.65H83.65V37.75V37.85V37.95L83.75 38.05L83.85 38.15V38.25H83.95H84.05V38.35H84.15V38.45H84.25V38.55V38.65V38.75V38.85H84.35L84.45 38.75H84.55V38.85H84.65H84.85H84.95L85.05 38.95H85.15H85.25H85.55L85.65 38.85H85.75L85.85 38.95V39.05V39.15H85.75V39.25H85.85V39.35V39.45V39.55L85.75 39.65V39.75V39.85H85.85V39.95H85.95H86.05V40.05H86.15V40.15H86.25L86.55 40.55L86.85 40.85L86.95 40.95H87.05H87.15H87.25V40.85H87.35H87.45V40.75L87.55 40.65H87.65L87.75 40.75H87.85H87.95H88.05V40.85H88.15V40.95H88.25V40.85H88.35H88.45V40.75H88.55V40.85H88.65H88.75V40.75H88.85L88.95 40.65V40.55H89.05H89.15V40.45H89.25L89.35 40.35L89.45 40.25M89.45 40.25V40.15M89.45 40.25H89.55V40.35L89.65 40.45L89.75 40.55V40.65V40.75H89.85L89.95 40.85H90.05H90.15H90.25L90.35 40.95H90.45H90.55V41.05V41.25V41.35H90.45V41.45H90.35L90.25 41.55H90.15V41.65L90.05 41.75V41.85V41.95V42.05V42.15V42.25H89.95H89.85V42.35V42.45V42.55H89.95L90.05 42.65L90.15 42.75V42.85L90.05 42.95V43.05H90.15V43.15L90.25 43.25L90.15 43.35V43.45V43.55H90.25V43.65H90.35V43.75V43.85V43.95V44.05L90.25 44.15H90.15V44.25H90.05V44.35H89.95V44.45V44.55L90.05 44.65V44.75V44.85V44.95V45.05V45.15V45.25V45.35L90.15 45.45L90.05 45.55L89.95 45.65V45.75H89.85V45.85V45.95H89.75V46.05H89.65L89.55 46.15V46.25V46.35V46.45V46.55L89.65 46.65V46.75V46.85L89.75 46.95V47.05L89.85 47.15L89.95 47.25H90.05L90.15 47.35V47.45H90.25V47.55H90.35V47.65H90.45H90.55H90.75H90.85V47.75H90.95H91.05L91.15 47.85H91.25H91.35L91.45 47.75V47.85H91.55V47.95H91.65L91.75 48.05H91.85H91.95H92.05H92.15V48.15H92.25H92.35H92.45L92.55 48.05H92.65V47.95L92.75 47.85H92.85V47.75H92.95H93.05L93.15 47.65V47.55H93.25L93.15 47.45V47.35V47.25H93.05V47.15H92.95V47.05V46.95H92.85V46.85V46.75V46.65H92.95V46.55H93.05H93.15V46.45H93.25V46.35V46.25H93.35V46.15L93.45 45.95V45.85H93.55V45.75H93.65V45.65V45.55V45.45V45.35V45.25H93.75V45.15H93.85V45.05V44.95V44.85H93.95V44.75H94.05V44.65H94.15V44.55H94.25L94.35 44.45L94.45 44.55V44.65H94.55V44.75H94.65V44.65H94.75H94.85L94.95 44.55H95.05V44.65L95.15 44.55H95.25L95.35 44.65H95.45V44.75H95.55V44.85H95.65H95.75V44.95H95.85V44.85H95.95V44.75H96.05V44.65H96.15V44.55H96.25V44.45V44.35H96.35V44.25H96.45V44.15V44.05H96.55H96.65H96.75L96.85 43.95H96.95M96.95 43.95V43.85M96.95 43.95H97.05V43.85H97.15H97.25H97.35V43.75L97.45 43.65H97.55H97.65H97.75V43.75L97.85 43.85L97.95 43.95H98.05M98.05 43.95V44.05M98.05 43.95H98.15V43.85V43.75L98.25 43.65H98.35H98.45V43.55H98.55V43.45H98.65V43.35V43.25V43.15V43.05V42.95V42.85L98.75 42.95H98.85L98.95 43.05H99.05H99.15H99.25H99.35V42.95V42.85H99.45L99.55 42.75V42.65L99.65 42.55L99.75 42.45L99.85 42.35H99.95H100.05H100.15H100.25H100.35H100.45L100.55 42.45L100.65 42.65H100.75L100.85 42.75V42.85V42.95H100.95L100.85 43.05V43.15V43.25V43.35H100.75V43.45V43.55H100.65V43.65V43.75H100.55V43.85H100.45V43.95H100.35V44.05V44.15V44.25V44.35V44.45V44.55H100.25V44.65H100.15V44.75V44.85H100.05V44.95H99.95V45.05V45.15V45.25H100.05L100.25 45.45L100.45 45.55H100.55V45.65V45.75H100.65V45.85H100.75V45.95L100.85 46.05H100.95L101.05 46.15V46.25H101.15V46.35H101.25V46.45L101.05 46.65L100.95 46.85L100.75 46.95V47.05V47.15H100.65H100.55V47.25V47.35L100.45 47.55V47.65V47.85L100.55 47.95L100.65 48.15L100.55 48.35V48.45H100.45V48.55H100.55L100.65 48.65V48.75M100.65 48.75H100.75M100.65 48.75V48.85V48.95H100.55L100.65 49.05V49.15H100.75V49.25V49.35V49.45L100.85 49.55V49.65H100.95V49.75H101.05H101.15H101.25V49.85H101.35L101.45 49.95M101.45 49.95H101.55M101.45 49.95V50.05V50.15L101.35 50.25V50.35L101.45 50.65L101.55 50.95V51.05V51.15H101.45V51.25V51.35V51.45H101.35V51.65V51.75L101.25 51.85V51.95H101.35V52.05H101.45L101.55 52.15L101.65 52.25L101.75 52.35L101.85 52.45V52.55V52.65V52.75H101.75V52.85V52.95V53.05L101.65 53.15V53.25V53.35V53.45H101.75V53.55H101.85V53.65H101.95H102.05L102.25 53.75H102.35V53.85H102.45H102.55V53.95V54.05V54.15V54.25L102.65 54.35H102.75V54.45H102.85H102.95H103.05H103.15H103.25V54.55V54.65V54.75L103.15 54.95V55.05V55.15L103.25 55.25H103.35L103.45 55.35L103.55 55.25H103.65V55.15H103.75H103.85H103.95L104.05 55.25H104.15L104.25 55.35H104.35H104.45H104.55V55.25H104.65H104.75H104.85L104.95 55.45L105.15 55.65L105.35 55.75L105.65 55.95L105.75 55.85H105.95L106.05 55.75H106.15H106.25H106.35H106.65V55.85H106.75L106.85 56.05V56.15L106.95 56.25L107.15 56.35H107.25L107.35 56.25V56.15L107.45 56.05H107.55L107.65 55.85L107.75 55.75V55.65H107.65V55.55V55.45H107.75V55.35H107.85V55.25H107.95L108.05 55.15L107.95 54.95V54.85L108.05 54.75L108.15 54.65L108.35 54.55H108.45V54.45V54.35V54.25L108.55 54.15H108.65L108.75 54.05V53.95H108.65V53.85V53.75V53.65H108.55V53.55H108.45V53.45V53.35H108.35V53.25V53.15H108.45V53.05L108.55 52.95V52.85V52.75V52.65L108.45 52.55V52.45H108.55L108.75 52.55H108.85L108.95 52.65L109.05 52.75H109.15H109.25H109.35H109.45L109.55 52.85H109.65V52.95H109.75H109.85L109.95 53.05H110.05H110.15V53.15V53.25H110.25V53.35H110.35H110.45V53.45H110.55H110.65H110.75L110.85 53.35L110.95 53.45H111.05V53.55H111.15V53.65H111.25H111.35H111.45H111.55V53.75V53.85V53.95H111.65H111.75H111.85V54.05H111.95V54.15H112.05V54.25L112.15 54.35V54.45H112.25V54.55V54.65L112.15 54.75H112.05V54.85V54.95L111.95 55.05V55.15V55.25V55.35V55.45V55.55V55.65H112.05V55.75V55.85L112.15 55.95V56.05V56.15H112.25V56.25H112.35V56.35H112.45L112.55 56.45H112.65H112.75H112.85V56.35H112.95L113.05 56.45L113.15 56.55H113.25V56.65H113.35L113.45 56.75H113.55H113.65V56.85V56.95H113.75H113.85V57.05V57.15H113.95V57.25V57.35V57.45L114.05 57.55H114.15H114.25H114.35L114.45 57.45H114.55V57.55L114.65 57.65H114.75L114.85 57.75H114.95H115.05H115.15H115.25V57.85L115.15 57.95V58.05V58.15L115.25 58.25L115.35 58.35H115.45L115.55 58.45V58.55H115.65V58.65V58.75H115.75V58.85H115.85L115.75 58.95L115.85 59.05L115.95 59.15H116.05H116.15V59.05L116.25 59.15V59.25H116.35V59.35V59.45V59.55V59.65H116.45L116.55 59.75V59.85H116.65V59.95V60.05H116.75H116.85V60.15H116.95V60.25H117.05H117.15H117.25V60.35H117.35V60.45V60.55V60.65V60.75H117.45H117.55V60.85H117.65H117.75H117.85V60.95V61.05H117.95V61.15H118.05V61.25H118.15V61.35V61.45H118.25H118.35L118.45 61.35L118.55 61.45V61.55H118.65V61.65H118.75H118.85V61.75V61.85V61.95V62.05M118.85 62.05H118.95M118.85 62.05V62.15L118.95 62.25H118.85V62.35L118.75 62.45V62.55V62.65V62.75H118.85V62.85V62.95V63.05V63.15H118.75V63.25V63.35V63.45V63.55V63.65V63.75L118.65 63.85L118.55 64.05V64.15V64.25L118.65 64.35V64.45H118.75H118.85H118.95H119.05L119.15 64.55H119.25H119.35H119.45L119.55 64.65L119.65 64.75H119.75L119.85 64.85H120.05H120.25V64.95H120.35H120.45L120.55 65.05V65.15L120.75 65.25L120.95 65.45L121.05 65.55L121.15 65.65H121.25V65.75H121.35V65.85V65.95L121.45 66.15L121.55 66.35H121.65V66.45V66.55L121.55 66.65H121.45H121.35V66.75H121.25H121.15H121.05H120.95V66.85H120.85V66.95L120.75 67.15V67.35V67.45H120.65V67.55V67.65H120.55H120.45V67.75H120.55V67.85H120.65V67.95V68.05V68.15H120.55V68.25L120.45 68.35L120.35 68.45V68.55H120.25V68.65L120.05 68.75H119.95V68.85L120.05 69.05H120.15V69.15L120.25 69.25L120.35 69.45H120.45L120.25 69.75V69.85H120.15L119.75 70.15H119.65V70.45L119.55 70.55H119.45V70.65V70.75V70.85L119.55 70.95V71.05V71.15V71.25H119.65V71.35L119.85 71.45H119.95H120.05V71.55L120.15 71.65L120.25 71.75H120.35V71.85L120.55 71.95V72.05H120.65V72.15V72.25V72.35H120.75V72.45V72.55H120.85L120.95 72.65V72.75L121.05 72.85V72.95V73.05V73.15L120.95 73.25V73.35V73.45V73.55H121.05H121.15H121.25V73.65H121.35L121.45 73.75H121.55H121.65L121.75 73.85V73.75H121.85V73.85H121.95H122.05V73.95H122.15V74.05H122.25V74.15V74.25H122.35V74.35V74.45V74.55V74.65H122.25V74.75L122.35 74.85L122.45 74.95L122.55 74.85H122.65V74.95H122.75H122.85L122.95 75.05H123.05V75.15H123.15V75.25L123.25 75.35H123.35V75.45H123.45L123.55 75.55V75.65V75.75H123.65V75.85H123.75V75.95H123.85H123.95L124.15 76.05H124.25V76.15L124.35 76.25L124.45 76.45V76.55L124.55 76.65L124.65 76.85V76.95V77.05L124.75 77.15H124.85V77.25L124.95 77.35V77.45V77.55H125.05V77.65H125.15V77.75H125.25V77.85H125.35V77.95H125.45V78.15H125.55V78.25V78.35V78.45V78.55H125.65V78.65V78.75H125.75V78.85V78.95V79.05V79.15H125.85V79.25V79.35H125.75H125.65L125.55 79.45L125.35 79.65L125.25 79.75H125.15V79.85V79.95L125.05 80.05H124.95V80.15H124.85L124.75 80.05H124.65H124.55H124.45V80.15H124.35L124.25 80.25L124.15 80.35V80.45H124.05V80.55L123.95 80.65V80.75V80.85H123.85V80.95L123.75 81.05H123.65V81.15H123.55V81.25H123.45V81.35H123.35V81.45V81.55H123.25V81.65V81.75H123.15V81.85V81.95M123.15 81.95H123.05M123.15 81.95V82.05V82.15H123.05V82.25V82.35V82.45H122.95V82.55V82.65L123.05 82.75V82.85H123.15V82.95H123.05H122.95V83.05H122.85V83.15V83.25L122.75 83.35H122.85V83.45V83.55H122.75V83.65V83.75V83.85V83.95V84.05V84.15V84.25V84.35L122.65 84.45V84.55H122.55V84.65V84.75V84.85L122.65 84.95V85.05L122.55 85.15V85.25L122.45 85.35L122.35 85.45L122.25 85.55V85.75L122.05 85.95H121.95V85.85L121.25 85.75L120.95 85.85V85.75H120.85H120.75L120.65 85.85L120.55 85.95L120.45 86.05L120.35 86.15L120.15 86.25V86.35H120.05V86.45H119.55L119.35 86.35L119.15 86.15H118.75L118.65 86.05L118.45 85.85L118.15 85.75V85.65H118.05H117.95H117.75L117.65 85.75H117.55L117.45 85.65H117.05H116.95L116.75 85.55L116.15 85.05V85.15H115.95V85.25H115.85L115.65 85.45L115.15 85.85H115.05H114.85L114.75 85.95H114.65L114.55 86.05L114.45 86.15H114.35H114.25H114.15V86.25H114.05L113.95 86.35V86.75V86.85H113.85L113.75 87.05L113.65 87.25V87.35H113.55L113.45 87.55V87.65L113.35 87.85V87.95L113.45 88.05V88.15V88.35L113.25 88.45L112.95 88.55L112.75 88.65L112.65 88.75L112.55 88.85H112.45H112.35V88.95H112.15L112.05 89.15H111.95H111.85V89.25H111.55L111.45 89.15L111.25 88.95L111.05 89.05L110.85 88.85H109.85V88.95L109.75 89.05H109.65H109.55L109.45 89.25H109.35L109.25 89.45V89.55H109.15H109.05H108.95L108.65 89.65V89.75L108.45 89.85H108.35L108.25 89.95H108.15L108.05 89.85H107.95H107.75H107.65H107.55H107.45H107.35L106.65 90.15L106.55 90.25H106.45L106.35 90.35L106.25 90.45H106.15H106.05L105.85 90.55H105.75L105.65 90.65H105.55L105.45 90.55H105.35H105.25H105.15V90.45V90.35V90.25V90.15L105.05 90.05L104.95 89.95V89.85H104.85L104.75 89.75V89.65H104.65H104.55L104.45 89.55H104.35L104.25 89.45V89.35L104.15 89.25L104.05 89.15H103.95H103.85V89.25H103.75H103.65H103.55H103.45H103.35H103.25V89.15H103.15H103.05V89.05H102.95H102.85H102.75L102.65 88.95V88.85H102.55H102.45V88.95V89.05V89.15H102.35V89.25H102.25H102.15V89.15H102.05V89.05H101.95H101.85L101.75 89.15H101.65V89.25H101.55V89.35L101.45 89.45H101.35H101.25H101.15H101.05V89.35H100.95L100.85 89.25L100.75 89.15H100.65V89.25L100.55 89.15H100.45L100.35 89.25H100.25H100.05H99.95H99.85L99.75 89.15L99.65 89.05V88.95L99.55 88.85V88.75L99.45 88.65V88.55L99.35 88.45L99.25 88.35V88.25V88.15L99.15 88.05V87.95V87.85V87.75L99.05 87.55H98.95H98.85L98.75 87.45L97.95 87.05L96.15 86.55L96.05 86.65H95.95H95.85H95.75V86.55L95.65 86.45L95.45 86.35L94.65 85.75H93.95H93.85H93.75H93.65L93.55 85.85H93.45H93.35V85.95H93.25H93.15V85.85V85.75V85.65V85.55V85.45L93.05 85.35L92.95 85.25H92.85L92.75 85.35H92.65V85.45H92.55V85.55V85.65H92.45H92.35H92.25H92.15V85.55V85.45H92.05H91.95V85.55H91.85H91.75L91.65 85.65L91.55 85.75V85.85V85.95V86.05V86.25L91.45 86.35V86.45L91.35 86.55L91.25 86.65V86.75H91.15V86.85H91.05H90.95V86.75H90.85H90.75H90.65H90.55L90.45 86.85L90.35 86.95H90.25H90.15H90.05H89.95L87.95 87.75H87.65V87.85H87.55V87.95H87.45H87.35H87.25L87.15 87.85H87.05V87.75H86.95H86.85H86.75L86.65 87.55V87.45H86.55L86.45 87.35L86.35 87.25H86.25V87.15V87.05V86.85H86.35V86.75H86.25V86.65L86.05 86.55V86.45L85.95 86.35L86.05 86.25L85.95 86.15H85.85H85.75V86.05V85.95V85.85V85.75V85.65V85.55V85.45V85.35V85.25H85.65V85.15H85.55L85.45 85.05L85.35 84.95L85.25 84.85H85.15L85.05 84.75V84.65H84.95V84.55H85.05L85.15 84.45V84.35V84.25L85.05 84.15H84.95H84.85H84.75L84.65 84.05H84.55H84.45L84.25 83.95H84.15H84.05H83.95H83.85H83.75H83.65L83.55 83.85H83.45V83.75L83.35 83.65H83.25V83.55H83.15V83.45H83.05L82.95 83.35V83.25H82.85H82.75L82.65 83.15H82.55L82.35 83.25L82.25 83.35H82.15H82.05H81.95H81.85V83.25V83.15H81.75V83.05L81.65 83.15H81.55H81.45H81.35H81.25H81.15L81.05 83.25H80.95H80.85H80.75H80.65L80.55 83.35H80.45V83.25H80.35H80.25H80.15V83.35H80.05V83.45V83.55V83.65H79.95V83.75H79.85L79.75 83.65V83.55V83.45V83.35H79.65V83.25H79.55L79.45 83.35H79.25L79.15 83.45L79.05 83.55H78.95H78.85H78.75V83.65H78.65L78.55 83.75H78.45V83.85H78.15H77.85H77.75L77.65 83.95V84.05H77.55H77.45H77.35H77.25V83.95L77.15 83.85H77.05L76.95 83.75L76.75 83.65H76.65H76.55L76.45 83.55H76.35V83.45H76.25V83.35V83.25V83.15V83.05L76.15 82.95L76.05 82.85L75.95 82.75L75.85 82.65H75.75H75.65L75.55 82.55L75.45 82.65H75.35H75.25H75.15V82.55H75.05V82.45H74.95V82.35V82.25H74.85H74.75H74.55H74.45L74.35 82.35H74.25H74.15H74.05L73.85 82.25H73.75H73.65H73.55L73.45 82.35V82.45L73.35 82.55H73.25H73.15L72.95 82.45H72.85L72.75 82.55H72.65H72.55V82.65H72.45H72.35L72.25 82.55L72.05 82.45L71.95 82.35L71.75 82.25H71.65L71.55 82.15H71.45H71.35H71.25H71.15H71.05L70.95 82.05L70.85 81.85L70.75 81.65V81.55L70.65 81.45H70.55V81.35H70.45V81.45H70.35V81.55V81.65V81.75L70.25 81.85V81.95V82.05V82.35V82.45L70.15 82.55L70.05 82.85V83.05V83.25H69.95V83.35H69.85L69.75 83.45V83.55V83.65H69.65V83.75V83.85H69.55V83.95V84.05H69.45V84.15H69.35V84.25H69.25V84.35L69.15 84.45V84.55V84.65V84.75H69.05V84.85H69.15V84.95M69.15 84.95H69.25M69.15 84.95V85.05L69.05 85.15V85.25H68.95H68.85H68.75H68.65H68.55L68.45 85.15L68.35 85.05H68.25V84.95H68.15H68.05L67.95 84.85H67.85L67.65 84.75V84.85H67.55H67.45L67.35 84.75L67.05 84.85H66.95V84.75H66.85H66.75V84.65H66.65H66.55H66.45V84.55H66.35V84.45L66.25 84.35V84.25H66.15H66.05L65.95 84.15H65.85H65.75V84.05V83.95L65.65 83.75V83.65V83.55H65.55V83.65H65.45H65.35L65.25 83.75V83.65L65.15 83.75V83.65H65.05V83.75H64.95H64.85V83.85H64.75V83.75H64.65L64.55 83.65H64.45H64.35V83.55H64.25V83.45H64.15V83.35H64.05L63.95 83.25L64.05 83.15V83.05V82.95L63.95 82.85L63.85 82.75H63.75H63.65H63.55V82.65L63.45 82.55H63.35H63.25H63.15H63.05H62.95L62.85 82.65H62.75V82.55V82.45V82.35V82.25H62.65V82.15H62.55H62.45V82.05H62.35H62.25L62.15 81.95H62.05V81.85M62.05 81.85H62.15M62.05 81.85V81.75H61.95H61.85H61.75L61.65 81.65V81.55H61.55V81.45V81.35H61.45H61.35V81.25L61.25 81.35H61.15V81.45H61.05H60.95H60.85H60.75V81.35L60.65 81.25H60.55H60.45V81.15L60.35 81.05V80.85L60.45 80.75H60.35V80.65L60.45 80.55V80.45L60.55 80.35L60.65 80.25H60.85V80.15H60.75L60.65 80.05L60.55 79.95H60.45V80.05H60.35L60.25 80.15H60.15V80.05L60.05 79.95V79.85H59.95V79.75H59.85L59.75 79.65V79.55H59.65V79.45H59.55H59.45V79.55H59.35H59.25L59.15 79.65H59.05H58.95V79.55H58.85L58.65 79.45H58.55H58.45V79.35H58.35H58.25V79.25V79.15V79.05H58.15H58.05V78.95L57.95 78.85V78.75H57.85V78.65V78.55H57.75H57.65L57.75 78.35H57.65L57.75 78.25H57.85V78.15H57.95V78.05H58.05V77.95L57.95 77.85H58.05V77.75V77.65H58.15V77.55H58.35V77.45H58.45V77.35V77.25H58.35L58.25 77.15L58.15 76.95H58.05V76.85H57.95V76.75V76.65H57.85H57.75L57.55 76.55L57.45 76.45H57.35L57.25 76.25L57.35 75.95H57.25V75.85V75.65V75.45V75.25H57.15H57.05H56.95H56.85H56.75H56.65H56.45V75.35L56.35 75.45V75.55L56.25 75.75L56.15 75.85H56.05V75.75H55.95H55.85H55.75V75.85L55.65 75.95L55.55 75.85H55.35H55.25H55.15H55.05V75.75H54.85H54.75H54.65H54.55V75.65H54.45H54.35H54.25H54.15H54.05V75.55H53.95H53.85H53.75H53.65V75.45H53.55H53.45H53.25V75.35L53.15 75.15L53.05 75.05H53.15V74.95H53.25L53.15 74.65H53.25L53.15 74.45L52.95 74.35V74.15L52.85 73.95L52.65 73.85L52.55 73.75L52.45 73.95L52.25 73.85V73.75H52.15L52.05 74.15H51.65V74.35L51.45 74.25L51.35 74.35V74.45L51.25 74.85L51.15 75.35L50.95 75.45L50.85 75.55L50.75 75.75H50.65V75.55L50.35 75.65H50.25L50.15 75.85L49.95 75.95L49.75 76.05V76.15H49.65L49.75 76.25H49.65H49.55L49.45 76.35L49.75 76.55L49.95 76.65V76.85L49.85 76.95H49.95L49.85 77.15L49.65 77.05L49.55 77.45L49.45 77.55V77.65L49.35 77.55V77.65H49.25V77.75H49.15L49.05 77.85V77.95H49.15V78.05H49.25L49.35 78.15H49.45L49.25 78.35V78.55H49.35V78.65L49.45 78.75H49.35L49.25 78.95L49.05 79.25L48.85 79.35L48.65 79.55H48.75L48.85 79.75H48.95L49.05 79.85H49.15L49.25 79.95V80.15L49.15 80.45L49.05 80.55L48.95 80.65L48.85 80.85L48.75 80.95V81.05H48.65L48.55 81.15H48.45V81.25M48.45 81.25H48.35M48.45 81.25L48.25 81.35V81.55L48.65 81.65L48.55 81.75L48.45 81.95V82.05H48.35V82.15V82.25V82.35H48.25V82.45H48.15H48.05H47.95L47.65 82.25L47.55 82.15L47.25 82.25H47.05L46.65 82.55L46.55 82.65H46.15L45.65 82.75L45.35 82.85H45.25V82.95L45.15 83.05V83.15H45.05V83.25L44.95 83.45H44.85H44.75H44.65V83.55H44.55V83.45H44.45V83.55L44.25 83.35L44.15 83.25L44.05 83.15H43.95H43.85H43.65H43.55V83.05V82.85V82.75L43.35 82.45V82.55V82.65L43.05 82.55V82.45H42.95L42.55 82.35V82.25L42.65 82.15V82.05H42.35L42.05 81.95H41.95H41.85V82.05V82.15V82.25H41.75L41.35 81.95L41.25 81.85V81.95L41.15 81.85H41.05L40.95 81.75V81.65L40.45 81.45H40.25H40.05V81.55H39.95L39.85 81.75H39.75V81.95L39.85 82.05L39.75 82.15V82.25V82.35V82.45L39.85 82.55V82.65H39.95V82.75H40.05V82.85H40.15H40.25H40.35H40.45V82.95L40.55 83.05V83.15L40.65 83.25V83.35V83.45V83.55L40.75 83.65V83.75V83.85V83.95L40.65 84.05H40.75V84.15V84.25V84.35V84.45H40.85V84.55V84.65V84.75V84.85V84.95V85.05V85.15H40.95V85.25H41.05V85.35H40.95L40.85 85.45V85.55H40.75H40.65H40.55V85.65H40.45V85.75L40.35 85.85H40.25L40.15 85.95H40.05H39.95V85.85H39.85V85.95H39.75H39.65V86.05V86.15H39.55V86.05V85.95V85.85L39.45 85.95V86.05H39.35V85.95V85.85H39.25V85.95V86.05H39.15V85.95V85.85H39.05L38.95 85.95V86.05V86.15H38.85V86.05H38.75V86.15V86.25H38.65H38.55V86.35H38.45V86.25V86.15M38.45 86.15H38.55V86.05H38.45V86.15ZM38.45 86.15H38.35H38.25V86.05V85.95L38.35 85.85V85.75H38.25M38.25 85.75H38.15M38.25 85.75V85.65H38.35V85.55V85.45M38.35 85.45H38.25M38.35 85.45V85.35H38.25H38.15L38.05 85.45L37.95 85.35L37.85 85.45V85.55H37.75H37.65M37.65 85.55V85.65M37.65 85.55V85.45V85.35H37.55V85.25H37.45V85.35L37.35 85.45V85.35V85.25H37.25V85.15H37.35V85.05H37.25V84.95V84.85H37.35V84.75H37.25V84.65H37.15V84.55H37.05H36.95V84.65H37.05V84.75V84.85L36.95 84.75H36.85V84.85H36.75V84.75V84.65L36.85 84.55V84.45H36.75V84.55L36.65 84.65H36.55V84.55H36.65V84.45M36.65 84.45V84.35M36.65 84.45H36.55H36.45V84.35V84.25L36.35 84.35H36.25V84.25H36.15H36.05V84.15H35.95H35.85V84.25H35.75H35.65V84.15L35.75 84.05H35.85V83.95H35.75V83.85V83.75H35.65V83.65H35.55H35.45V83.55H35.55V83.45L35.65 83.35V83.25H35.75V83.15L35.85 83.05V82.95H35.95L36.05 83.05L36.15 82.95H36.05V82.85V82.75V82.65H36.15H36.25V82.55L36.55 82.25V82.15H36.65L36.95 81.95V81.75V81.55V81.35V81.25V81.15H37.05H37.15V81.05H37.25H37.35V80.95V80.85V80.75H37.45L37.55 80.25L37.75 80.05V79.75V79.45V79.15V78.85V78.75H37.65H37.55H37.45V78.65H37.35H37.25V78.75H37.35V78.85M37.35 78.85H37.25M37.35 78.85V78.95H37.25H37.15H37.05V78.85L36.95 78.75V78.65H36.85V78.55H36.75V78.45H36.85L36.95 78.35H36.85H36.75V78.25H36.85V78.15H36.75V78.05M36.75 78.05H36.85M36.75 78.05V77.95H36.65V77.85V77.75M36.65 77.75H36.75M36.65 77.75V77.65M36.65 77.65H36.55M36.65 77.65V77.55H36.75V77.45H36.65V77.35H36.75V77.25H36.65L36.55 77.15V77.05V76.95H36.45H36.35V76.85H36.25L36.15 76.75V76.65L36.05 76.55H35.95H35.85V76.65H35.75V76.75V76.85H35.65H35.55H35.45V76.75V76.65V76.55H35.55H35.65V76.45V76.35H35.55H35.45V76.25H35.35V76.15V76.05V75.95V75.85M35.35 75.85H35.45M35.35 75.85H35.25H35.15V75.75V75.65H35.05V75.55V75.45V75.35V75.25V75.15L35.15 75.05V74.95H35.25V74.85V74.75V74.65V74.55L35.15 74.45V74.35V74.25H35.05V74.15H34.95V74.05L34.75 73.95H34.65H34.55H34.45L34.35 74.05L34.25 74.15V74.25V74.35V74.45H34.15V74.55V74.65V74.75L34.05 74.85H33.95H33.85V74.75H33.75V74.65V74.55V74.45V74.35H33.85V74.25V74.15H33.95V74.05V73.95H34.05V73.85H33.95V73.75L33.85 73.65H33.75H33.65H33.55V73.75H33.45V73.85V73.95H33.35V74.05H33.25H33.15L33.05 73.95L32.85 73.85L32.75 73.75H32.65V73.65H32.55H32.45H32.35H32.25V73.75H32.15V73.85V73.95L32.25 74.05H32.35V74.15L32.45 74.25H32.55V74.35V74.45H32.45V74.55H32.35L32.25 74.65H32.15L32.05 74.55H31.95H31.85V74.45H31.75V74.35H31.65V74.25V74.15V74.05V73.95L31.55 73.85L31.45 73.75H31.35H31.25H31.15V73.85L31.05 73.95H30.95H30.85H30.75L30.65 73.85H30.55H30.45H30.35H30.25V73.95V74.05L30.15 74.15L30.05 74.25H29.95V74.15H29.85H29.75H29.65L29.55 74.25L29.45 74.35L29.35 74.45L29.25 74.55H29.15H29.05H28.95H28.85L28.75 74.65V74.75L28.65 74.85L28.55 74.95H28.45L28.35 75.05V75.15H28.25L27.95 75.35L27.85 75.45L27.75 75.55L27.65 75.65V75.75H27.55L27.45 75.85H27.35V75.95H27.25H27.15H26.95L26.85 75.85H26.75L26.65 75.75L26.55 75.65H26.45H26.35H26.25H26.15H26.05H25.95H25.85H25.75H25.65H25.45H25.35H25.25V75.55L25.05 75.45L24.95 75.35L24.85 75.15V75.05H24.75H24.65H24.55V74.95V74.85H24.45L24.35 74.95H24.25V75.05H24.15H24.05H23.95H23.85V74.95H23.75H23.65H23.55V74.85V74.75H23.45H23.35L23.25 74.65H23.15V74.75H23.05L23.15 74.35V74.25L23.35 74.15L23.55 74.05L23.45 73.95L23.35 73.85V73.75H23.25V73.55H23.15V73.45V73.35V73.25V73.15V73.05V72.95V72.85H23.25V72.75H23.35V72.65V72.55H23.25H23.15V72.45L23.05 72.35H22.95V72.25V72.15L23.05 72.05H23.15V71.95H23.25H23.35H23.45V71.85L23.15 71.35L23.05 71.45L22.85 71.25V71.15L22.75 70.95L22.65 70.75L22.45 70.95L22.35 70.85H22.25V70.75V70.65V70.55V70.35L22.05 69.85L21.95 69.75L21.85 69.55L21.75 69.45L21.85 69.35L21.65 69.15V68.85H21.95L22.15 68.45V68.35V68.15L22.05 68.05H21.95L21.75 67.95H21.65L21.45 67.85H21.35L21.25 67.65L21.05 67.45L20.95 67.35L20.75 67.15L20.35 66.95H20.25L20.15 67.05L20.05 66.85L19.95 66.75V66.65H19.85L19.75 66.55V66.45H19.65V66.35V66.25L19.55 66.15L19.45 66.05H19.35L19.25 65.85L19.15 65.75V65.65V65.55V65.45L19.25 65.35V65.25H19.35L19.25 65.15V65.05V64.95L19.35 64.85H19.25L18.65 64.75H18.35L18.45 64.65L18.55 64.55L18.65 64.45V64.35V64.25H18.55V64.15L18.65 64.05L18.45 63.95L18.35 63.85H18.15L18.05 63.75H17.95V63.65H17.85V63.75H17.75H17.65V63.85V63.95H17.55V64.05H17.45V63.95H17.35V64.05H17.25H17.15V64.15H17.05H16.95V64.25H17.05V64.35H16.95V64.45H16.85M16.85 64.45V64.55M16.85 64.45H16.75H16.65H16.55V64.55H16.45H16.35M16.35 64.55V64.65M16.35 64.55L16.25 64.45H16.15H16.05H15.95H15.85V64.35L15.75 64.25V64.15H15.65V64.05H15.55V63.95H15.45H15.35L15.25 63.85L15.15 63.75L15.05 63.85V63.95V64.15M15.05 64.15H15.15M15.05 64.15H14.85L14.75 64.05H14.65H14.45V63.95V63.85L14.35 63.95H14.15H14.05H13.85H13.75L13.65 64.05H13.55H13.45V64.15H13.35V64.25L13.25 64.35V64.45V64.55H13.15V64.65H13.05H12.95V64.75H12.85V64.85H12.75V64.95V65.05V65.15H12.65L12.55 64.95L12.35 64.75L12.25 64.65L12.05 64.45L11.95 64.35V64.25L11.85 63.95L11.75 63.75V63.65V63.55V63.45L11.65 63.25L11.55 62.95L11.45 62.75L11.25 62.55L11.15 62.45L11.05 62.35L10.95 62.25V62.35H10.85V62.25L10.65 62.05L10.45 61.85L10.35 61.75L10.45 61.55V61.45V61.25L10.35 60.95V60.85V60.75V60.65L10.45 60.55V60.45V60.35L10.35 60.25V60.15V60.05V59.95V59.85L10.25 59.75V59.65V59.55H10.15V59.45H10.05H9.95V59.35H9.85V59.25H9.75H9.65V59.15L9.55 59.05H9.45V58.95H9.35V58.85V58.75M9.35 58.75H9.45M9.35 58.75V58.65V58.55H9.45V58.45H9.35H9.25V58.35H9.15V58.25H9.05V58.15V58.05H9.15L9.25 57.85L9.35 57.75V57.45L9.45 57.25V57.15L9.35 57.05L9.25 56.85V56.75L9.35 56.65L9.45 56.45V56.35H9.35V56.25V56.15V56.05H8.95L8.45 56.15L8.35 56.05H8.25L8.15 55.95L8.05 55.85L7.55 55.75L6.95 55.55H6.85H6.75L6.55 55.15L6.35 54.75L6.25 54.65V54.55V54.45H6.15V54.35V54.25H6.05V54.15V54.05H5.95L5.85 53.95V53.85H5.75H5.65V53.75H5.55L5.45 53.65L5.35 53.55V53.45H5.45L5.55 53.35H5.75H5.85L5.95 53.25H6.05H6.15V53.15H6.25V53.05V52.95L6.35 52.85L6.45 52.75V52.65L6.55 52.55V52.45V52.35L6.65 52.25V52.15L5.95 51.75H5.85H5.75L5.65 51.85H5.55H5.45H5.35H5.25L5.15 51.75H5.05L4.95 51.65L4.85 51.55H4.75V51.45H4.65V51.35L3.45 51.15L1.85 51.85L1.35 52.35H1.25L1.15 52.45L0.650002 52.35H0.549999V52.25H0.450001V52.15V52.05V51.95V51.85V51.75V51.65L0.349998 51.55L0.25 51.45V51.35V51.25V51.15V51.05V50.95V50.85V50.75V50.65V50.55L0.349998 50.45V50.35V50.25L0.25 50.15V50.05V49.85L0.349998 49.55V49.05V48.95L0.450001 48.75V48.65V48.55V48.25V48.15L0.549999 47.95V47.55L0.650002 47.45V47.15V46.95L0.75 46.65L0.849998 46.15V45.75L0.950001 45.25V44.95L1.05 44.75V44.45V44.25V44.15V43.95L1.15 43.85L1.25 43.35V42.95V42.55V42.45L1.35 42.05V41.85V41.75V41.65V41.55V41.45V41.15V41.05V40.85V40.65V40.55V40.35V40.25V40.15L1.45 40.05V39.95V39.85V39.65L1.55 39.45V39.35L1.65 39.15L1.75 38.95V38.85V38.75L1.85 38.65L1.95 38.25L2.15 38.05V37.85L2.25 37.75L2.45 37.45L2.55 37.25V37.15L2.75 37.05V36.95H2.85V36.85V36.75V36.65M2.85 36.65H2.75" stroke="white" stroke-width="0.5" stroke-linecap="round" stroke-linejoin="round"/>
</svg>
