<svg width="158" height="141" viewBox="0 0 158 141" fill="none" xmlns="http://www.w3.org/2000/svg">
<path d="M105.35 117.95V118.05H105.25H105.15V118.15V118.25V118.35H105.05V118.25V118.15H105.15V118.05V117.95H105.25V117.85H105.35V117.95ZM133.15 111.75V111.85H133.05V111.75H133.15ZM132.95 111.75V111.85V111.95H132.85V112.05V112.15H132.75V112.05V111.95H132.85V111.85H132.75H132.65V111.75H132.75H132.85V111.65H132.95V111.75ZM133.05 111.75H132.95V111.65V111.55H133.05V111.65V111.75ZM133.05 111.35V111.45H132.95V111.55V111.65H132.85H132.75V111.55H132.85H132.95V111.45H133.05V111.35ZM132.85 110.65H132.75V110.55H132.85V110.65ZM134.75 109.75H134.65V109.65V109.55H134.75V109.65V109.75ZM134.75 109.55V109.45H134.85V109.35H134.95V109.45H134.85V109.55H134.75ZM134.65 109.35V109.45H134.75V109.55H134.65V109.45H134.55V109.55V109.65L134.45 109.75H134.55V109.85L134.45 109.75V109.65V109.55V109.45H134.55V109.35V109.25V109.15V109.05V108.95V108.85V108.75V108.65V108.55V108.45V108.35V108.25V108.15V108.05H134.65V107.95V107.85V107.75H134.75V107.65H134.85L134.75 107.75V107.85L134.65 107.95V108.05V108.15V108.25L134.55 108.45H134.65V108.55L134.55 108.75V108.85V109.05V109.15V109.25V109.35H134.65ZM134.65 107.65V107.55H134.75V107.65H134.65ZM0.25 50.35L0.449951 50.25H0.75L1.14996 50.15L1.34998 50.05L1.64996 49.95H1.84998H1.94995H2.04999V49.85H2.25L2.54999 49.75H2.64996L2.94995 49.65H3.04999L3.44995 49.55H3.64996L3.75 49.45L4.04999 49.35H4.34998L4.64996 49.15L4.94995 49.05H5.04999L5.34998 48.85L5.54999 48.75L5.64996 48.65H5.75L5.94995 48.55L6.04999 48.45L6.25 48.25L6.54999 48.15V48.05H6.64996L6.75 47.95L6.94995 47.85L7.14996 47.75L7.44995 47.65L7.64996 47.45L7.94995 47.35H8.04999L8.25 47.25L8.54999 47.15H8.75H8.84998H8.94995H9.04999H9.34998H9.54999L9.75 47.05H9.84998H10.25H10.45H10.65L10.85 46.95L11.35 46.85H11.75L12.05 46.75H12.15H12.25H12.35L12.65 46.65H12.95L13.25 46.55H13.35H13.45H13.65H13.75L13.85 46.45H13.95H14.15H14.25H14.35L14.55 46.35H14.75H15.15H15.25H15.45H15.55H15.75H16.05H16.15H16.35L16.65 46.25H16.75H16.95L17.15 46.15H17.25L17.35 46.05L17.55 45.95L17.75 45.85L17.95 45.65L18.15 45.55L18.35 45.45V45.35L18.65 45.25L19.05 45.05L19.25 44.95L19.55 44.75L19.85 44.65L20.15 44.55L20.85 44.35L20.95 44.25L21.65 44.15L21.95 44.05H22.05L22.55 43.95H22.95H23.55L23.75 44.05H24.05H24.65H24.85H25.15L25.65 44.15L26.15 44.25L26.75 44.45H27.05L27.45 44.65L27.95 44.85L28.25 44.95L28.95 45.25L29.45 45.45H29.55L30.05 45.65L30.45 45.75H30.65H30.85H30.95H31.75L32.45 45.85H32.85H32.95H33.35L33.75 46.05L34.05 46.15H34.15L34.45 46.35L34.95 46.65L35.15 46.85H35.25L35.35 46.95L35.65 47.05L35.85 47.15L36.35 47.35L36.65 47.55H36.75H36.95H37.25H37.45L37.55 47.45H37.95L38.35 47.35L38.75 47.25L39.15 47.05L39.65 46.95L39.85 46.85H39.95H40.05L40.35 46.65H40.45L40.65 46.55L40.85 46.45L40.95 46.35L41.15 46.15L41.35 46.05L41.45 45.85L41.65 45.55L41.75 45.35L41.85 45.15V45.05V44.95V44.85V44.75V44.65L41.75 44.25L41.55 43.95V43.75L41.45 43.55L41.25 43.35V43.25H41.15H41.05H40.95H40.85V43.35L40.45 43.55H40.35V43.45H40.45V43.35H40.55L40.75 43.25L40.95 43.15L40.85 42.95H40.75V42.85H40.65V42.75V42.65H40.55H40.45H40.25H39.95V42.55H40.15H40.25L40.45 42.45L40.35 42.25V42.15V42.05H40.25L40.15 41.95H40.05V41.85H39.95V41.75V41.65H40.05L40.15 41.75V41.65H40.25V41.75V41.85H40.35L40.45 41.75V41.65L40.55 41.55V41.45H40.45V41.35L40.55 41.25V41.15H40.65L40.75 41.05H40.65V40.95L40.55 40.25L40.35 39.15L40.25 38.55L39.45 38.65L39.25 37.65L39.15 37.05L39.05 36.45L38.85 35.65L39.65 35.55L40.45 35.35L40.35 34.35L40.25 33.85L40.05 32.85H40.15L40.85 32.75H41.45L41.25 31.65H41.45L41.35 30.75L41.85 30.65L41.65 29.55L41.55 29.25L41.45 28.55V28.45L40.25 28.75L39.15 29.05H38.95L38.25 29.15L38.15 28.45L37.95 27.45L37.85 26.55L37.65 25.75L37.55 24.75L37.65 24.65L37.75 24.55L37.95 24.45L38.15 24.35L38.45 24.15L38.65 24.05L38.75 23.95V23.65L38.65 23.55V23.45V23.15L38.55 22.75L38.45 22.25L37.65 22.35H37.55H37.45H37.35H37.25H37.15L37.05 22.15V21.85V21.65L36.95 21.55V21.25L36.85 21.05V20.75V20.55V20.45L36.75 20.35V20.25V20.15H36.65H36.55H36.45L36.35 20.25H36.25H36.15V20.35H36.05V20.45H35.95V20.55H35.85V20.65H35.75V20.75H35.65V20.85H35.55L35.45 20.95H35.35H35.25H35.15L35.05 21.05H34.95H34.85V21.15H34.75L34.65 21.25H34.55V21.35H34.45H34.35V21.25V21.15V21.05V20.95V20.85H34.25V20.75V20.65L34.15 20.15V20.05L34.05 19.55L33.95 18.95L33.75 18.05L33.65 17.75V17.55L34.45 17.35H34.65H34.85L35.25 17.25H35.45L35.65 17.15H35.85H35.95L36.25 17.05L36.15 16.55L36.05 16.25V15.85L36.25 15.75H36.45L37.05 15.55H37.45V15.75L37.55 16.05L37.65 16.55L38.65 16.35L39.45 16.15H39.55L39.45 15.95L39.25 15.65L39.15 14.65L39.05 14.45V14.35H39.25L39.05 13.65V13.15L38.95 12.95L38.85 12.25L37.55 12.35L37.05 12.45L36.95 12.15L36.85 11.65L36.75 11.05V10.95L36.65 10.45L36.45 9.95001L35.85 10.15V9.95001V9.45001V9.35001L35.75 8.64999L35.65 8.14999V7.85001L35.55 7.45001L35.65 7.35001L37.35 7.04999L37.15 5.95001L36.95 4.75L36.75 3.64999L36.65 3.04999L36.55 2.64999V2.25L36.45 1.64999L36.35 1.14999L36.65 1.04999H37.45L37.65 1.54999L39.35 1.25L39.55 2.45001L39.15 2.54999V3.35001L39.35 4.25L40.15 4.14999V4.35001L40.55 4.25L41.55 4.04999L42.95 3.85001L43.05 4.04999V4.14999V4.35001L43.35 4.25H43.45V4.14999H43.55H43.65H43.75L43.85 4.04999H43.95H44.05H44.15H44.25H44.35H44.45V3.95001H44.55H44.65V3.85001H44.75H44.95H45.05L45.45 3.75L45.55 3.64999H45.65V3.54999V3.35001V3.25L45.75 3.14999L45.85 3.04999V2.85001L46.05 2.64999L46.35 2.35001L46.45 2.14999L46.65 2.04999L46.75 1.95001H46.85H47.05H47.25H47.35H47.55L47.65 1.85001H47.75L47.95 1.75H48.05L48.15 1.54999L48.35 1.45001H48.45L48.65 1.35001L48.95 1.25H49.05H49.45H49.65H49.75L50.15 1.35001H50.25H50.55L50.85 1.45001H51.15H51.25H51.45H51.85H51.95L52.15 1.35001H52.25L52.45 1.25H52.55L52.75 1.14999L52.95 1.04999H53.05V0.950012L53.45 0.549988H53.55H53.65H53.85H54.15H54.35H54.55L54.65 0.450012H54.75H54.85L54.95 0.549988L55.05 0.649994L55.15 0.75H55.25L55.55 0.950012H55.75H55.85H55.95L56.35 0.850006L56.75 0.75L56.95 0.649994L57.15 0.450012L57.35 0.350006H57.55H57.85H57.95L58.25 0.25H58.45L58.65 0.350006H58.75L58.85 0.450012H58.95L59.25 0.649994L59.45 0.850006L59.55 0.950012L59.75 1.14999L59.95 1.25H60.05L60.15 1.35001H60.35L60.45 1.45001V1.54999L60.55 1.64999V1.75H60.65L60.75 1.85001H60.85V1.75H60.95V1.85001H61.05H61.15H61.25V1.95001H61.35H61.45H61.55V2.04999H61.65V1.95001H61.75H61.85H61.95H62.05V2.04999H62.15H62.25V2.14999H62.35H62.45H62.55H62.65V2.25H62.75H62.85V2.14999H62.95H63.05V2.25H63.15H63.25V2.35001H63.35V2.45001H63.45H63.55V2.54999H63.65H63.75H63.85V2.45001H63.95V2.54999V2.64999H64.05V2.75H64.15H64.25H64.35H64.45H64.55V2.85001H64.65L64.85 3.54999H65.05L66.05 3.45001H66.15L66.25 3.35001H66.35H66.45H66.55V3.45001H66.65H66.75H66.85H66.95V3.54999H67.05H67.15L67.25 3.64999H67.35L67.45 3.75H67.55H67.65H67.75L67.85 3.85001H67.95V3.95001H68.05H68.15H68.25H68.35L68.45 3.85001H68.55H68.65H68.75H68.85V3.75H68.95V3.85001H69.05H69.15H69.25H69.35H69.45H69.55V3.95001H69.65H69.75H69.85V4.04999V4.14999L70.05 5.35001V5.54999L70.55 5.35001L71.65 4.75L72.45 4.35001L73.05 4.04999L73.15 3.95001L73.85 3.54999L74.45 3.25L74.55 3.14999L74.85 3.04999L75.65 2.54999L76.65 2.04999L77.35 1.64999L78.35 1.04999H78.45V0.950012H78.65L78.75 0.850006L78.95 0.75L79.15 0.549988L79.35 0.950012V1.04999L80.45 2.85001L80.55 2.95001L80.65 3.14999V3.25L80.85 3.45001L81.15 3.95001L81.25 3.85001H81.55H81.85L81.75 3.75H81.85H81.95H82.05H82.15H82.35L82.45 3.85001H82.55H82.65H82.75H82.85V3.95001H82.95L83.05 4.04999H83.15V3.95001H83.25H83.35H83.45H83.55L83.65 3.85001H83.75H83.85V3.75H83.95L84.05 3.64999H84.15V3.54999H84.25L84.35 3.64999V3.95001L84.55 4.54999L84.85 6.14999L85.35 6.04999L87.25 5.64999L87.55 5.54999L87.75 5.45001H87.95L89.45 5.14999L90.15 4.95001L90.35 4.85001L90.75 4.75L91.75 4.25L92.05 4.14999L92.25 4.04999H92.35L92.45 3.95001V4.04999H92.55H92.65V4.14999H92.75H92.85V4.25V4.35001V4.45001V4.54999V4.64999H92.95H93.05H93.15V4.54999H93.25V4.64999H93.35V4.75V4.85001H93.25V4.95001V5.04999H93.35V5.14999H93.25V5.25H93.15H93.05H92.95H92.85V5.35001H92.75V5.45001H92.65V5.54999H92.55V5.64999V5.75H92.65V5.85001V5.95001H92.75V6.04999V6.14999V6.25V6.35001L92.65 6.45001V6.54999V6.64999H92.75H92.85V6.54999H92.95V6.45001V6.35001H93.05H93.15V6.45001H93.25L93.35 6.54999V6.64999H93.45V6.75H93.55L93.45 6.85001H93.35H93.25H93.15V6.95001V7.04999H93.05V7.14999L92.95 7.25V7.35001V7.45001V7.54999H92.85V7.64999V7.75V7.85001H92.95L93.25 7.75H93.35L93.65 7.64999L94.25 7.45001L94.95 7.25L96.75 6.75L96.95 7.64999H96.85L97.05 8.04999L97.35 9.25L95.85 9.75V9.85001L96.15 10.85H96.25H96.35H96.45H96.55L96.65 10.95H96.75H97.05V11.05H97.15L97.25 11.15L97.35 11.75L97.45 12.45L97.65 13.15V13.25L97.45 13.35L97.05 13.45L96.45 13.75L96.65 14.25H96.75L97.75 13.75L97.85 14.25L97.95 14.75L98.05 15.25L98.25 15.65L98.35 16.15V16.35L98.45 16.25L99.15 15.85L99.25 15.75L99.55 15.55L99.75 15.75L100.15 16.55L99.65 16.85L99.95 17.45L100.55 18.55L100.25 18.65L100.65 19.35L100.55 19.55V19.65L100.45 19.75V19.85H100.35L100.15 20.35V20.45V20.55L100.05 20.65V20.75L99.95 20.85V20.95V21.05H100.05V21.15L100.15 21.35L99.35 21.45L98.45 21.55L98.35 21.15L98.25 20.35L98.15 20.05V19.95H97.85L96.85 20.15L96.95 21.05L97.55 21.15L97.65 21.65L97.75 22.35V22.55H97.85H97.95H98.05H98.15H98.25H98.35H98.45L98.55 22.45H98.65H98.75H98.85H98.95H99.05H99.15V23.05V22.95H99.75L100.55 22.75L101.85 22.55H102.35L102.65 22.45H102.75H103.15L103.05 22.15V21.85H103.35L103.75 21.75H103.85H103.95H104.05V21.85V21.95V22.05H103.95V22.25V22.35V22.45L103.75 22.75V22.85L103.65 22.95L103.55 23.05V23.15V23.25V23.35H103.65V23.45H103.75V23.35H103.85V23.45V23.55H103.95V23.65H104.05V23.75H104.15H104.25H104.35H104.45H105.05H106.15L106.95 23.65H107.45L107.55 23.85L107.65 24.05L107.85 24.45L107.95 24.65V24.85V25.05L108.45 24.95L109.15 24.85V24.95L110.05 24.75H110.55L110.75 24.65H110.85V24.55H110.75V24.45V24.35H110.85V24.25V24.15H110.75H110.65V24.05V23.95H110.75V23.85H110.65V23.75H110.55V23.65L110.45 23.55H110.35V23.45V23.35L110.45 23.25H111.45H112.05L112.65 23.35H112.95L113.05 23.75V23.85V23.95H113.15H113.25H113.35H113.55H113.75L113.95 23.85H114.05H114.15H114.25V23.95H114.35H114.45H114.55L114.65 24.05H114.75L114.85 24.15H114.95H115.05L115.15 24.05H115.25H115.35H115.55H115.65V24.15H116.05H116.15H116.25V24.25H116.35L116.55 24.35H116.65H116.75H116.85H117.25H117.65H117.75H117.95H118.05H118.25L118.85 24.25L119.35 24.15L119.95 24.05H120.05H120.45V23.85L120.35 23.65V23.55V23.45L120.95 23.35L121.05 23.25L121.95 23.05L122.55 22.95L122.75 22.85L123.15 22.75L123.55 22.65L123.95 22.55H124.05H124.15V22.45H124.25L124.55 22.35V22.45L124.65 22.85L124.75 23.15L124.65 23.65L124.45 24.25L124.35 24.65V24.85H124.25V24.95H124.05H123.75V25.05V25.25V25.95V26.45V26.95V27.25L123.95 27.35H124.05H124.15H124.35L124.55 27.25L125.55 27.15L125.95 27.05H126.05H126.15L127.15 26.85L127.55 26.75L127.95 26.65V26.85L128.15 27.55V27.85V28.15L128.25 28.25L128.35 29.05V29.25V29.35V29.45V29.65L128.45 29.95V30.05V30.35L128.55 30.85L128.65 31.35H129.05L129.35 31.25L129.55 32.15L129.65 32.65L129.75 33.25L129.85 33.75V34.15V34.25L129.95 34.45V34.65L130.05 35.05V35.35L130.65 35.25L131.05 35.15H131.25H131.65L132.45 35.05L132.95 34.95H133.35L133.55 34.85H133.75H133.95V34.95V35.05H134.05V35.15H133.95H133.85V35.25H133.75V35.15H133.65H133.55V35.25V35.35L133.45 35.45V35.55H133.55L133.65 35.65V35.75H133.55V35.85V35.95H133.45H133.35V36.05H133.45V36.15H133.35L133.25 36.05V35.95H133.15V36.05H133.25V36.15V36.25V36.35H133.15H133.05V36.25L132.85 36.15V36.05L132.65 36.15H132.45H132.35H132.25H132.05V36.35H132.15V36.55L131.15 36.65L130.25 36.75L130.35 37.05L130.45 37.75V37.85L130.55 38.25V38.45L130.65 38.85L131.35 38.75L132.35 38.65H132.65H132.75L132.65 38.75V38.85V38.95V39.15V39.25V39.35V39.45L132.05 39.55H131.85H131.65L131.75 40.25L131.85 40.65H132.25H132.65H132.55V40.75V40.85V40.95V41.05V41.15H132.65L132.75 41.05H132.85L133.15 40.85L133.75 40.55L134.15 40.35L134.65 40.05L135.05 39.85L135.35 39.65L135.55 39.55L135.75 39.45H135.85L135.95 39.35L136.05 39.55L136.35 40.05L136.55 40.55L136.65 40.65L136.85 41.05L137.15 41.55L137.25 41.85L137.45 42.15L137.65 42.45L137.85 42.85L138.05 43.25L138.35 43.75L138.55 44.05L138.85 44.75L139.15 45.25H139.25L139.65 44.85L140.15 44.35H140.25L140.75 43.85L141.75 42.95L142.85 44.65L143.55 44.15L143.95 44.75V44.85H144.05L144.55 45.75H144.65L145.35 44.95L145.55 44.75H145.65L145.75 44.95L145.85 45.05L146.05 45.25V45.35L146.25 45.75L146.45 45.95L146.55 46.15L146.75 46.45L147.15 47.25L147.35 47.55L148.05 48.75L148.25 49.05V49.15H148.35L148.45 49.25L148.75 48.95L149.35 49.45L150.55 50.55L150.95 50.95H151.05V51.05L151.85 51.55L152.15 51.85L152.35 51.95L152.45 52.05L152.55 51.85V51.75L152.65 51.65L153.25 50.55V50.45L153.55 49.85L154.05 50.05L154.25 50.15L154.45 50.25L154.15 50.65V50.75L154.05 50.95H154.15H154.75H154.85H154.95L155.05 51.15H155.15V50.95H155.55H156.85V51.05L156.65 51.65L156.55 51.75V51.85H156.65L156.75 51.95L156.85 52.05V52.45L156.65 52.75V52.95L156.55 53.05L156.45 53.35H156.25L156.05 53.75L155.95 54.05V54.15L155.65 54.85L155.55 55.15L155.45 55.35L155.15 55.95L155.05 56.35L154.85 56.85L154.75 57.15L154.35 58.15L154.55 58.75L154.65 59.15L154.75 59.35L153.85 59.85L153.15 60.25L152.65 60.45L152.45 59.75L152.25 58.85V58.75L152.05 58.35V58.25L151.95 58.15V58.05L151.85 57.75H151.75L151.65 57.65V57.55H151.55H151.45L151.15 57.65H151.05L150.75 57.75L149.95 57.95H149.85L150.15 58.65L150.35 59.35L150.55 59.95L150.65 60.55L150.05 60.85L149.85 60.95L149.15 61.35L149.35 61.65L148.85 61.85H148.55V61.95L148.65 62.05L148.55 62.25H148.65V62.45L147.75 62.85L147.25 63.15L146.35 63.55H146.25V63.45H146.35V63.35V63.25V63.15H146.25V63.05V62.95V62.85H146.15H146.05V62.75H145.95V62.65V62.55H145.85V62.45L144.95 62.55H144.45H144.35H144.25L143.65 62.65H142.95H142.55L142.15 62.75H141.95H141.85L141.75 62.05H140.95L140.85 62.15H140.75L140.95 62.95V63.05L141.15 63.75L141.25 64.05V64.25L141.35 64.45V64.55V65.25L141.45 65.65L141.55 66.05V66.45V66.65V66.75L141.65 66.95L141.75 67.95L141.95 68.65V68.75V68.85H142.05H142.25L142.35 69.05V69.25L142.45 69.65V69.85L142.55 70.15V70.45L142.65 70.75V70.85H142.45L141.25 70.95H141.05V70.45L139.85 70.55H139.55H138.65H138.55L138.65 70.75L138.95 70.95H138.85H138.75H138.65V71.05H138.45H137.95H137.85H137.65H137.45H137.15L137.25 71.15H137.35V71.25H137.25V71.35V71.45H137.35V71.55H137.45V71.65V71.75L137.55 71.85H137.65V71.95V72.05H137.75V72.15H137.85H137.95H138.05V72.25L138.15 72.35H138.25V72.45H138.35V72.55V72.65V72.75H138.45V72.85H138.55H138.65V72.75V72.65H138.75V72.75H138.85V72.85V72.95H138.75V73.05H138.85V73.15H138.95H139.05H139.15V73.05H139.25L139.35 72.95H139.45H139.55V73.05L139.65 73.15H139.55V73.25H139.65H139.75V73.35H139.85V73.45H139.75V73.55H139.85V73.65H139.95H140.05V73.55H140.15H140.25V73.45V73.35V73.25H140.35V73.15H140.45V73.05H140.55V73.15V73.25H140.65V73.15L140.75 73.25V73.35V73.45H140.65V73.55V73.65V73.75V73.85V73.95H140.75V73.85H140.85H140.95V73.75H141.05V73.65H141.15V73.55H141.25H141.35V73.65V73.75V73.85V73.95L141.45 74.05V74.15H141.55L141.65 74.05V73.95H141.75H141.85H141.95V74.05H142.05V74.15V74.25V74.35H142.15H142.25V74.45V74.55V74.65V74.75H142.35H142.45H142.55H142.65V74.85V74.95V75.05H142.75V75.15H142.85H142.95V75.25H143.05V75.35H143.15V75.45V75.55V75.65H143.05V75.75V75.85H143.15H143.25L143.35 75.95V76.05H143.45V76.15H143.55V76.25L143.45 76.35V76.45H143.55L143.65 76.55H143.75H143.85H143.95H144.05V76.65H144.15V76.55H144.25V76.45V76.35H144.35V76.25H144.45H144.55V76.35H144.65V76.45V76.55V76.65H144.55V76.75H144.65V76.85V76.95H144.55V77.05V77.15V77.25V77.35H144.65V77.45H144.75H144.85L144.95 77.35H145.05V77.45V77.55V77.65V77.75V77.85H144.95V77.95V78.05H144.85V78.15H144.75H144.65V78.25V78.35V78.45H144.75V78.55H144.85H144.95V78.45H145.05V78.55H145.15V78.65H145.05V78.75H144.95V78.85V78.95V79.05H145.05H145.15V79.15V79.25H145.05V79.35V79.45H144.95V79.55H144.85H144.75H144.65V79.65H144.55H144.45H144.35H144.25V79.75H144.15V79.85H144.05H143.95H143.85V79.95H143.95L144.05 80.05H144.15V80.15H144.25L144.45 80.25L144.55 80.35H144.65H144.75L144.95 80.45L145.05 80.55L145.35 80.65L145.65 80.85L146.35 81.15L146.85 81.35L147.25 81.55L147.85 81.85L148.05 82.05L148.25 82.15L148.65 82.25L148.75 82.15V82.05L148.85 81.95L148.95 81.85L149.45 81.45L149.75 81.65L150.15 82.15L150.45 82.45L150.75 82.85L150.85 82.95L150.55 83.25L150.25 83.65L149.65 84.35L149.45 84.65L149.15 85.15L149.05 85.25L149.25 85.45L149.75 85.75L149.85 85.85L150.05 85.95L150.35 86.25L150.85 86.55L151.35 86.95H151.45L151.55 87.05L151.65 87.15L151.55 87.25L151.35 87.45L151.15 87.55L150.85 87.85L150.65 87.95L150.25 88.25L149.65 88.75L149.25 88.15H149.15L148.65 88.55L148.35 88.85L147.75 89.35L147.55 89.55L147.05 89.95H146.95L146.85 90.05L146.45 90.35L146.25 90.65H146.15L145.75 91.05L145.65 91.15L146.05 91.65V91.75H146.15L146.25 91.95L146.35 92.05L146.45 92.25V92.35L146.55 92.45L146.75 92.75L147.05 93.25L147.25 93.65L147.65 94.25V94.35V94.45H147.55H147.45L147.35 94.55H147.25V94.65H147.15L147.05 94.75H146.95V94.85H146.85V94.95H146.75L146.65 95.05H146.55V95.15H146.45V95.25H146.35V95.35H146.25H146.15H146.05H145.95H145.85H145.75H145.65H145.55H145.45L145.35 95.45H145.25H145.15H145.05H144.95H144.85H144.75V95.55H144.65H144.55H144.45V95.65H144.35H144.25L144.15 95.75H144.05L143.95 95.85H143.85V95.95H143.75V96.05H143.65L143.55 96.15H143.45V96.25H143.35L143.25 96.35L143.15 96.45H143.05L142.95 96.55V96.65H142.85V96.75H142.75L142.65 96.85L142.55 96.95L142.45 97.05H142.35V97.15H142.25V97.25H142.15V97.35H142.05L141.95 97.45H141.85V97.55H141.75V97.65L141.65 97.75H141.55V97.85H141.45V97.95L141.35 98.05L141.25 98.15H141.15L141.05 98.25H140.95V98.35H140.85V98.45H140.75V98.55H140.65H140.55V98.65H140.45V98.75H140.35V98.85H140.25V98.95H140.15V99.05H140.05V99.15H139.95V99.25H139.85V99.35H139.75V99.45L139.65 99.55V99.65H139.55V99.75H139.45V99.85H139.35V99.95V100.05H139.25V100.15L139.15 100.25V100.35H139.05V100.45V100.55H138.95V100.65V100.75H138.85V100.85V100.95H138.75V101.05L138.65 101.15V101.25H138.55V101.35V101.45H138.45V101.55V101.65V101.75H138.35V101.85V101.95H138.25V102.05V102.15H138.15V102.25V102.35H138.05V102.45V102.55H137.95V102.65H137.85V102.75V102.85L137.75 102.95V103.05V103.15H137.65V103.25V103.35V103.45H137.55V103.55V103.65H137.45V103.75V103.85V103.95H137.35V104.05V104.15H137.25V104.25V104.35V104.45H137.15V104.55V104.65L137.05 104.75V104.85V104.95H136.95V105.05V105.15V105.25H136.85V105.35V105.45V105.55H136.75V105.65V105.75V105.85H136.65V105.95V106.05V106.15H136.55V106.25V106.35V106.45H136.45V106.55V106.65H136.35V106.75V106.85V106.95V107.05H136.25V107.15V107.25V107.35H136.15V107.45V107.55H136.05V107.65V107.75V107.85H135.95V107.95V108.05H135.85V108.15V108.25V108.35H135.75V108.45V108.55H135.65V108.65V108.75L135.55 108.85V108.95H135.45V109.05V109.15H135.35V109.25V109.35H135.25V109.45V109.55H135.15V109.65L135.05 109.75V109.85H134.95V109.95V110.05V110.15H134.85V110.25V110.35H134.75V110.45H134.65V110.55V110.65H134.55V110.75H134.45V110.85V110.95H134.35V111.05H134.25V111.15V111.25H134.15V111.35H134.05V111.45L133.95 111.55V111.65H133.85V111.75L133.75 111.85V111.95H133.65V112.05H133.55V112.15L133.45 112.25V112.35H133.35V112.45H133.25V112.55H133.15V112.65H133.05V112.75H132.95L132.75 112.95H132.65H132.55L132.45 113.05H132.35H132.25L132.05 112.95H131.95V112.85V112.75V112.65V112.55L131.85 112.45V112.35V112.25L131.95 112.15V112.05H132.05H132.15V112.15H132.05V112.25H132.15L132.25 112.15L132.35 112.05H132.45V111.95V111.85L132.35 111.65V111.55V111.45V111.35V111.25H132.45V111.35V111.45V111.55H132.55V111.65L132.45 111.75V111.85V111.95V112.05V112.15L132.55 112.05H132.65V111.95H132.75V112.05V112.15H132.85V112.25H132.95V112.15V112.05H133.05V111.95V111.85H133.15H133.25V111.95H133.35V111.85H133.25V111.75V111.65H133.35V111.55V111.45L133.45 111.35V111.25V111.15V111.05H133.55V111.15V111.25V111.35H133.65V111.25V111.15V111.05V110.95V110.85V110.75H133.75V110.65H133.85V110.75H133.75V110.85V110.95V111.05H133.85V110.95V110.85H133.95V110.75H134.05V110.65V110.55H134.15H134.25H134.35H134.45V110.45H134.35H134.25V110.35H134.15H134.05V110.25V110.15V110.05H134.15V109.95H134.25V110.05V110.15H134.35V110.25H134.45V110.35L134.55 110.25V110.15V110.05L134.65 109.95V109.85H134.75V109.95H134.85V109.85H134.95V109.75H135.05V109.65H135.15V109.55V109.45H135.05V109.35V109.25L135.15 109.15H135.25V109.05H135.35V108.95H135.45V108.85H135.55V108.75L135.65 108.55V108.45V108.35H135.75V108.25L135.85 108.15V108.05V107.95L135.95 107.85V107.75V107.65V107.55V107.45H135.85V107.35V107.25L135.75 107.15V107.05H135.65V106.85L135.55 106.75L135.45 106.45L135.35 106.25V106.15L135.25 106.05L135.15 105.85L135.05 105.75V105.65L134.95 105.55H134.85V105.45L134.75 105.35V105.25L134.55 105.05L134.45 104.85H134.35V104.75L134.25 104.65L134.15 104.55H134.05V104.45L133.95 104.35H133.85V104.25H133.75L133.65 104.15H133.55H133.45L133.35 104.05L133.25 104.15V104.35H133.15V104.25V104.05H133.25L133.15 103.95H133.05V103.85H133.15V103.75H133.05V103.65L132.95 103.55H132.85L132.75 103.45L132.65 103.35H132.55V103.25H132.45V103.15H132.35L132.25 103.05L132.05 102.95L131.95 102.85L131.85 102.75H131.75H131.65H131.55V102.65H131.45H131.35V102.55H131.25V102.45H131.15H131.05V102.35H130.95L130.75 102.25L130.55 102.15L130.45 102.05H130.35H130.25H130.05H129.95L129.75 101.95H129.55H129.35H129.05L128.75 102.05H128.65H128.55H128.45V102.15H128.35H128.25H128.15V102.05H128.05H127.95H127.85H127.65L127.55 101.95H127.35H127.15H126.85H126.65H126.35H126.15H126.05L125.85 102.05H125.75H125.65H125.55H125.45H125.35L125.15 102.15H125.05L124.95 102.25H124.85H124.75L124.65 102.35H124.55V102.45H124.45H124.35V102.55V102.65H124.25L124.15 102.75H124.05L123.95 102.85L123.85 102.95H123.75L123.55 103.05H123.45V103.15H123.35H123.25L123.15 103.25H123.05H122.95L122.75 103.35H122.65L122.45 103.45H122.35H122.25H122.15H121.95H121.85L121.75 103.55H121.65L121.45 103.65H121.35H121.25H121.15H121.05H120.95L120.85 103.75H120.75L120.55 103.85H120.45H120.35V103.95H120.05V104.05L119.85 104.15H119.65L119.45 104.25L119.35 104.35H119.25H119.15H119.05L118.95 104.45L118.65 104.55L118.35 104.65L118.05 104.75L117.05 105.05L116.95 105.15L116.75 105.25L116.45 105.35L115.75 105.65L115.45 105.85H115.35L115.05 105.95L114.65 106.15L114.45 106.25L114.25 106.45L114.15 106.55H114.05L113.95 106.65L113.85 106.75L113.65 106.85H113.55V106.95H113.45L113.35 107.05L113.25 107.15L113.15 107.25H113.05V107.35H112.95H112.85V107.45L112.65 107.55L112.55 107.75H112.45L112.35 107.85L112.25 107.95L112.05 108.15L111.95 108.35L111.75 108.55L111.55 108.65L111.45 108.85L111.25 109.05L111.15 109.25L110.95 109.35L110.85 109.65L110.75 109.75L110.55 110.05L110.45 110.15L110.25 110.45L110.15 110.75L109.85 111.05L109.75 111.25L109.55 111.55L109.45 111.75L109.35 111.95L109.15 112.25L109.05 112.55L108.85 112.75L108.75 113.05L108.65 113.25L108.55 113.45L108.45 113.55L108.35 113.75L108.25 113.95L108.15 114.05V114.15L108.05 114.35L107.95 114.65L107.85 114.75L107.75 114.85V114.95L107.65 115.25L107.45 115.45L107.35 115.65L107.25 115.85L107.15 115.95V116.05L107.05 116.15V116.25H106.95V116.45L106.85 116.55V116.65L106.75 116.75L106.65 116.85V116.95L106.55 117.05V117.15H106.45V117.25L106.35 117.35L106.25 117.55L106.15 117.75L106.05 117.85V117.95L105.95 118.05L105.85 118.15V118.25L105.75 118.35L105.65 118.55V118.65L105.45 118.85V118.95L105.35 119.15L105.25 119.25L105.15 119.35L105.05 119.55L104.85 119.75L104.75 119.85L104.65 120.05L104.55 120.25L104.35 120.45L104.25 120.55L104.15 120.85L104.05 120.95L103.85 121.15L103.75 121.35L103.65 121.45L103.45 121.65L103.35 121.85L103.25 122.05L103.15 122.15L102.95 122.35V122.45H102.85L102.75 122.55V122.65L102.65 122.75H102.55H102.45V122.65H102.35V122.55L102.15 122.45L102.05 122.35H101.95H101.85H101.75H101.65H101.55H101.45L101.35 122.45H101.25L101.15 122.55L101.05 122.65H100.95V122.75H100.85L100.75 122.85L100.65 122.95H100.55L100.45 123.05H100.35V123.15H100.25V123.25H100.15V123.35H100.05H99.95H99.85V123.45H99.75L99.65 123.35H99.55H99.45L99.35 123.25H99.25H99.15V123.15H99.25H99.35L99.45 123.05L99.55 122.95V122.85H99.65V122.75H99.75V122.85H99.85V122.95H99.95H100.05H100.15H100.25H100.35H100.45H100.55L100.65 122.85L100.75 122.75H100.85L101.05 122.65L101.15 122.45L101.25 122.35H101.35L101.45 122.25V122.15H101.55V122.05L101.65 121.85V121.75V121.65L101.75 121.55V121.45L101.85 121.25V121.15V120.95V120.75V120.65V120.45V120.25V120.15V119.95V119.85V119.75V119.65H101.75V119.55H101.85V119.65L101.95 119.75L102.05 119.95L102.15 120.05V120.15V120.25V120.35V120.45L102.05 120.35V120.25V120.15H101.95L102.05 120.05H101.95V119.95H102.05L101.95 119.85V119.95V120.05H101.85V120.15V120.25V120.35V120.45H101.95V120.55V120.65H102.05V120.75H102.15L102.25 120.85H102.35H102.45H102.55H102.65V120.95H102.75V120.85H102.85V120.75H102.95H103.05V120.65H103.15L103.25 120.55H103.35H103.45L103.55 120.45H103.65V120.35H103.75V120.25H103.85V120.15H103.95V120.05H104.05V119.95H104.15V119.85V119.75H104.25V119.65V119.55H104.35V119.65V119.75H104.25V119.85H104.35H104.45V119.75H104.55V119.65H104.65H104.75V119.55V119.45H104.85V119.35V119.25H104.95V119.15V119.05H105.05V119.15H105.15V119.05H105.25H105.35V118.95V118.85H105.45V118.75H105.55V118.65L105.65 118.55V118.45L105.75 118.35V118.25H105.85V118.15V118.05V117.95H105.95V117.85H106.05V117.75V117.65H106.15V117.55H106.25V117.45V117.35H106.35V117.25V117.15H106.45V117.05H106.55V116.95H106.65V116.85V116.75H106.55V116.65V116.55V116.45H106.65V116.55V116.65H106.75V116.55H106.85V116.45V116.35H106.95V116.25V116.15H107.05V116.05V115.95H107.15V115.85V115.75H107.25V115.65V115.55H107.35V115.45V115.35H107.45V115.25H107.55V115.15V115.05H107.65V114.95V114.85H107.75V114.75H107.85V114.65V114.55V114.45V114.35H107.95V114.25H108.05V114.15V114.05H108.15V113.95V113.85H108.25V113.75H108.35V113.65V113.55V113.45H108.45V113.35V113.25H108.55V113.15V113.05H108.65V112.95H108.75V112.85H108.65V112.75H108.75V112.65H108.85V112.55H108.95V112.45V112.35H109.05V112.25V112.15H108.95V112.05H108.85V111.95H108.75V111.85H108.65V111.75H108.55V111.65H108.45H108.35V111.55H108.25H108.15V111.45H108.05H107.95H107.85H107.75V111.55V111.65H107.85H107.95L108.05 111.75V111.85H108.15V111.95H108.25H108.35H108.45V112.05H108.55V112.15H108.65V112.25H108.75H108.85V112.35H108.95V112.45H108.85H108.75V112.35H108.65L108.55 112.25H108.45V112.15H108.35H108.25V112.25V112.35H108.35V112.45V112.55V112.65H108.25H108.15V112.55H108.05V112.45H107.95V112.55H107.85V112.65V112.75H107.75V112.85V112.95H107.85V113.05V113.15H107.95V113.25V113.35L108.05 113.45V113.55H107.95V113.65V113.75V113.85V113.95V114.05L107.85 114.15V114.05V113.95H107.75V113.85V113.75V113.65H107.65V113.55H107.75V113.45H107.65V113.35H107.55V113.45H107.45V113.55V113.65V113.75V113.85V113.95H107.35V114.05V114.15V114.25H107.45V114.35V114.45V114.55H107.35V114.65V114.75V114.85H107.45V114.95V115.05H107.35H107.25V115.15V115.25V115.35H107.15V115.45V115.55H107.05L107.15 115.45V115.35V115.25V115.15H107.25V115.05V114.95V114.85L107.35 114.75V114.65V114.55V114.45V114.35V114.25V114.15L107.25 114.05V113.95V113.85L107.15 113.75V113.65V113.55L107.05 113.45V113.35V113.25H106.95V113.15V113.05L106.85 112.95V112.85H106.75V112.75L106.65 112.55V112.45H106.55V112.35L106.45 112.25V112.15H106.35V112.05L106.25 111.95L106.15 111.85V111.75H106.05L105.95 111.65V111.55H105.85V111.45H105.75V111.35H105.65V111.25H105.55V111.15H105.45V111.05L105.35 110.95H105.25V110.85H105.15L105.05 110.75L104.95 110.65L104.85 110.55H104.75H104.65V110.45H104.55H104.45V110.35H104.35L104.25 110.25H104.15V110.15H104.05H103.95V110.05H103.85H103.75H103.65H103.55H103.45H103.35H103.25H103.15H103.05H102.95H102.85H102.75H102.65H102.55H102.45H102.35H102.25H102.15H102.05H101.95H101.85L101.75 110.15H101.65H101.55H101.45V110.25H101.35H101.25H101.15V110.35H101.05H100.95V110.45H100.85H100.75V110.55H100.65H100.55L100.45 110.65H100.35H100.25V110.75H100.15H100.05H99.95V110.85H99.85H99.75V110.95H99.65H99.55H99.45H99.35H99.25H99.15H99.05L98.95 110.85H98.85H98.75H98.65V110.75H98.55H98.45L98.35 110.65H98.25H98.15L98.05 110.55H97.95H97.85L97.75 110.45H97.65H97.55L97.45 110.35H97.35H97.25H97.15H97.05V110.25H96.95H96.85H96.75H96.65H96.55H96.45L96.35 110.15H96.25H96.15H96.05H95.95H95.85H95.75H95.65H95.55H95.45V110.25H95.35H95.25H95.15H95.05H94.95H94.85H94.75V110.35H94.65H94.55H94.45H94.35L94.25 110.45H94.15H94.05H93.95H93.85H93.75H93.65H93.55V110.55H93.45H93.35H93.25H93.15H93.05H92.95H92.85H92.75H92.65H92.55V110.65H92.45V110.55H92.35V110.65H92.25H92.15H92.05H91.95H91.85H91.75H91.65H91.55H91.45H91.35H91.25H91.15H91.05V110.75H90.95H90.85H90.75H90.65H90.55H90.45V110.85H90.35H90.25H90.15H90.05V110.95H89.95V111.05H89.85H89.75H89.65L89.55 111.15H89.45V111.05H89.35V111.15H89.25H89.15V111.25H89.05H88.95L88.85 111.35H88.75V111.45H88.65H88.55H88.45H88.35V111.55H88.25V111.65H88.15H88.05V111.75H87.95V111.85H87.85H87.75V111.95H87.65H87.55H87.45H87.35H87.25V112.05H87.15V112.15H87.05V112.25H86.95H86.85V112.35H86.75V112.45H86.65V112.55H86.55V112.65H86.45V112.75H86.35V112.85L86.15 112.95V113.05H86.05V113.15H85.95L85.85 113.25H85.75V113.35H85.65V113.45H85.55H85.45V113.55H85.35H85.25V113.65H85.15H85.05V113.75H84.95H84.85V113.85H84.75L84.65 113.95H84.55L84.45 114.05H84.35V114.15H84.25H84.15V114.25H84.05H83.95V114.35H83.85H83.75V114.45H83.65H83.55H83.45V114.55H83.35H83.25L83.15 114.65H83.05V114.75H82.95H82.85L82.75 114.85H82.65H82.55V114.95H82.45H82.35V115.05H82.25H82.15V115.15H82.05H81.95V115.25H81.85H81.75V115.35H81.65H81.55V115.45H81.45H81.35V115.55H81.25V115.65H81.15H81.05V115.75H80.95V115.85H80.85L80.75 115.95H80.65V116.05H80.55H80.45V116.15H80.35H80.25V116.25H80.15V116.35H80.05V116.45H79.95V116.55V116.65H79.85V116.75L79.75 116.85V116.95H79.65L79.55 117.15H79.45L79.35 117.35H79.25H79.15V117.45L79.05 117.55V117.65H78.95V117.75H78.85L78.75 117.85V117.95L78.65 118.05L78.55 118.15V118.25H78.45V118.35H78.35V118.45V118.55H78.25V118.65H78.15V118.75L78.05 118.85V118.95H77.95V119.05H77.85V119.15L77.75 119.25V119.35H77.65V119.45H77.55V119.55H77.45V119.65L77.35 119.75L77.25 119.85L77.15 119.95L77.05 120.15L76.95 120.25L76.85 120.35V120.45H76.75V120.55H76.65V120.65H76.55V120.75H76.45V120.85L76.35 120.95L76.25 121.05H76.15V121.15H76.05V121.25L75.95 121.35H75.85V121.45H75.75V121.55H75.65V121.65H75.55V121.75H75.45V121.85H75.35V121.95H75.25V122.05H75.15V122.15H75.05V122.25H74.95V122.35H74.85V122.45H74.75V122.55H74.65H74.55V122.65L74.45 122.75H74.35V122.85H74.25V122.95H74.15V123.05H74.05V123.15H73.95V123.25H73.85H73.75V123.35H73.65V123.45H73.55V123.55H73.45V123.65H73.35H73.25V123.75H73.15V123.85H73.05H72.95V123.95H72.85V124.05H72.75H72.65V124.15H72.55H72.45V124.25H72.35V124.35H72.25H72.15L72.05 124.45H71.95L71.85 124.55H71.75H71.65L71.55 124.65H71.45H71.35H71.25H71.15V124.75H71.05H70.95V124.85H70.85H70.75V124.95H70.65H70.55V125.05H70.45H70.35V125.15H70.25V125.25H70.15V125.35H70.05H69.95V125.45H69.85V125.55H69.75H69.65V125.65H69.55H69.45V125.75H69.35H69.25H69.15V125.85H69.05H68.95V125.95H68.85H68.75L68.65 126.05H68.55H68.45H68.35H68.25V126.15H68.15H68.05H67.95V126.25H67.85H67.75H67.65H67.55V126.35H67.45H67.35H67.25V126.45H67.15L67.05 126.55H66.95V126.65H66.85H66.75V126.75H66.65V126.85H66.55V126.95H66.45V127.05H66.35V127.15H66.25V127.25H66.15V127.35H66.05V127.45H65.95V127.55H65.85V127.65H65.75V127.75V127.85H65.65V127.95H65.55V128.05H65.45V128.15V128.25H65.35L65.25 128.45L65.15 128.55L65.05 128.65H64.95V128.75L64.85 128.85V128.95H64.75V129.05H64.65V129.15L64.55 129.25V129.35H64.45V129.45H64.35V129.55H64.25V129.65H64.15V129.75V129.85H64.05V129.95H63.95V130.05V130.15H63.85V130.25L63.75 130.35V130.45H63.65V130.55H63.55V130.65H63.45V130.75V130.85H63.35V130.95H63.25V131.05V131.15H63.15V131.25H63.05V131.35H62.95V131.45V131.55H62.85V131.65H62.75V131.75V131.85H62.65V131.95H62.55V132.05L62.45 132.15L62.35 132.25V132.35H62.25V132.45L62.15 132.55V132.65H62.05V132.75L61.95 132.85V132.95H61.85V133.05H61.75V133.15V133.25H61.65V133.35H61.55V133.45V133.55H61.45V133.65H61.35V133.75V133.85H61.25V133.95L61.15 134.05V134.15L61.05 134.25V134.35L60.95 134.45V134.55L60.85 134.65V134.75L60.75 134.85V134.95H60.65V135.05H60.55V135.15V135.25H60.45V135.35L60.35 135.45V135.55H60.25V135.65H60.15V135.75V135.85H60.05V135.95V136.05H59.95V136.15V136.25H59.85V136.35L59.75 136.45V136.55H59.65V136.65V136.75H59.55V136.85L59.45 136.95V137.05H59.35V137.15H59.25V137.25H59.15V137.35H59.05V137.45H58.95V137.55H58.85V137.65L58.75 137.75V137.85L58.65 137.95V138.05H58.55V138.15L58.45 138.25V138.45H58.35V138.55V138.65H58.25V138.75V138.85H58.15V138.95L58.05 139.05V139.15L57.95 139.25L57.85 139.45L57.75 139.65L57.65 139.85L57.55 139.75H57.25L56.95 139.55L56.45 139.35L56.15 139.15L55.75 138.95L54.45 138.35L53.95 138.25L53.25 138.05L52.65 137.85L52.15 137.65L50.85 137.35L50.35 137.25L49.15 137.05L48.85 137.15H48.65H48.55H48.15H47.95L47.35 137.25L47.25 136.85V136.65V136.35V136.25L47.15 135.85V135.45H47.05V135.25V135.15L47.15 135.05L47.05 134.85V134.75L46.95 134.65V134.55V134.35V134.15L46.85 133.85V133.55V133.45V133.15L46.65 131.95L46.55 131.75L47.05 131.65H47.15L47.25 131.45L47.15 131.25V130.85L47.05 130.15V130.05L46.95 129.35V128.95V128.55L46.85 128.15V128.05H46.75V127.75L46.65 127.35L46.55 126.55V126.35V126.25L46.45 125.55V125.25V125.05L46.35 124.65V123.95H46.25L45.65 124.05H45.45L44.85 124.15H44.75L44.65 124.05H44.45L44.05 123.85V123.75H43.85L42.95 123.25L42.35 122.95L41.75 122.65L41.65 122.55H41.55V122.45L41.25 122.35H41.15H41.05V122.25V122.15V122.05V121.95L40.95 121.65V121.75H40.75L40.15 121.85L39.35 121.95L38.25 122.05L38.15 122.15V122.05L37.95 121.05V120.75L37.85 119.95L37.95 119.85H38.25H38.35V119.55L38.25 118.55L38.15 118.05V117.95H37.95H37.65L37.35 118.05L35.25 118.35L33.35 118.65H33.25L31.35 118.95V118.85V118.55L31.25 118.05H31.15L31.05 117.35L30.95 116.45L30.35 116.55L29.65 116.65L29.55 116.15L29.15 113.75L30.55 113.45L31.35 113.25L31.25 112.75V112.35V112.15L31.15 111.85V111.75V111.55L31.05 111.05V110.75V110.55V110.45L30.95 110.35V110.15V109.85L30.85 109.75V109.35V109.15L30.35 109.25H30.25L29.55 109.35L28.45 109.45V109.55H28.05L27.75 109.65H27.65V109.45V109.25L27.55 108.55L26.95 108.65H26.85L25.55 108.85H25.35H25.05V108.75L24.95 107.65L24.85 107.25V107.15L24.75 106.15L25.85 106.05L26.15 105.95H26.55L26.45 105.25V104.95L27.35 104.85L28.35 104.65H28.75L29.95 104.45H30.25V103.75L30.75 103.65H30.95H31.05V102.75V101.95H31.95L31.85 101.45L31.75 101.25L31.65 100.35V100.25V100.15L31.55 99.85V99.65V99.55L31.45 99.35V99.25V99.15V99.05V98.95V98.85L32.05 98.75L33.85 98.55L34.35 98.45H34.45L34.25 98.15H34.15V97.65L34.05 97.05V96.65L33.95 95.85L33.85 95.35L33.75 94.55V94.45L33.25 94.55L31.85 94.65H31.15V94.55V94.45L31.05 94.05V93.55L30.95 92.75L30.85 92.35V91.95L30.65 90.65L30.45 89.45L30.35 88.65H30.15L29.95 88.75H29.55L28.95 88.85L28.55 88.95L27.95 89.05H27.85V88.95L27.75 88.15L27.55 87.35L26.95 87.45L26.15 87.55L25.55 87.65L25.45 87.75H25.15H24.65L24.55 86.95L24.45 86.45V86.25H24.15L23.95 86.35H23.85L23.45 86.45V86.35L23.35 85.85L23.25 84.85L23.15 84.55L23.05 83.95V83.85H22.95L21.85 83.95L21.75 83.75V83.25L21.65 82.65L21.55 81.95V81.85L21.25 79.45L21.05 78.35V78.25H21.15V77.95H21.05H20.95H20.65H20.45L20.25 78.05H20.15H19.35V77.25L19.25 77.05L19.15 76.35L18.95 74.95L18.75 73.35V73.15V73.05L18.65 72.75V72.65L18.55 71.85L18.35 70.75L18.25 70.15L18.15 69.55V69.45L18.05 68.55L17.95 67.55L18.15 67.45H18.45H18.55L18.65 67.35H18.75H18.95H19.05L19.15 67.25H19.25H19.35H19.45V67.15L19.65 67.25H19.75L19.95 67.15V66.95L19.85 66.75V66.35L19.75 66.15V65.95H19.55L19.45 65.55V65.35L19.35 64.95V64.75L19.15 64.85L18.35 64.95L17.85 65.05L17.65 64.35L17.55 63.35L17.35 62.45H17.55L18.15 62.35H18.25L18.55 62.25H18.85H18.95H19.05L19.15 62.15H19.25L19.15 62.05V61.95V61.85V61.75H19.05L18.95 61.65H18.85H18.75L18.85 61.55V61.45V61.35H18.95V61.25V61.15H19.05L19.15 61.05H19.25V60.95L19.15 60.85H19.05H18.95H18.85H18.75H18.65H18.55V60.75V60.65H18.45V60.75H18.35V60.85L18.25 60.95V61.05H18.15L18.05 61.15H17.95H17.85L17.75 61.25H17.65H17.45L16.65 61.35L16.15 61.45L15.35 61.65L14.05 61.85L14.25 62.75L14.35 63.55H14.15L13.35 63.65L13.45 64.55H13.25L12.55 64.65L12.25 64.75H12.15H12.05H11.95H11.85L11.75 64.65L11.45 64.35L11.25 64.05H11.05H10.95L10.75 64.15H10.35L10.05 64.25H9.84998L9.75 64.35L9.54999 64.55L9.44995 64.75L9.14996 65.15L8.64996 65.75V65.85L8.44995 65.75L8.34998 65.65H8.25V65.55H8.14996V65.45H8.04999V65.55L7.94995 65.45V65.35V65.25V65.15V65.05V64.95L7.84998 64.75L7.75 64.25V63.75L7.64996 63.35L7.54999 62.75L7.44995 62.45V62.05L7.34998 61.75L7.44995 61.65V61.55L7.25 60.75L7.14996 59.95L6.94995 59.05L6.34998 59.15V59.05L6.14996 58.05L5.94995 57.05L5.84998 56.75L6.14996 56.45L5.84998 55.05L5.75 54.85V54.75V54.65V54.55L5.64996 54.15L5.54999 53.95L5.44995 53.55L5.14996 53.15L4.84998 52.75L4.54999 52.45L4.14996 52.15L3.64996 51.85L2.54999 51.35L2.34998 51.25L2.14996 51.15H2.04999V51.05H1.84998L1.44995 50.85L0.25 50.35Z" fill="#220F0F"/>
<path d="M105.25 118.05H105.35V117.95V117.85H105.25V117.95M105.25 118.05V117.95M105.25 118.05H105.15M105.25 117.95H105.15V118.05M105.15 118.05V118.15M105.15 118.15V118.25V118.35H105.05V118.25V118.15H105.15ZM133.15 111.75H133.25M133.15 111.75V111.85M133.15 111.75H133.05M133.25 111.75V111.85M133.25 111.75H133.35M133.25 111.75V111.65H133.35V111.55V111.45L133.45 111.35V111.25V111.15V111.05H133.55M133.15 111.85H133.05M133.15 111.85H133.25M133.05 111.85V111.75M133.05 111.85V111.95V112.05H132.95M133.05 111.75H132.95M133.05 111.75V111.65V111.55H132.95M132.95 111.75V111.85V111.95H132.85M132.95 111.75V111.65M132.85 111.95V112.05M132.85 111.95H132.75M132.85 111.95V111.85H132.75H132.65V111.75H132.75H132.85V111.65M132.85 112.05H132.95M132.85 112.05V112.15M132.95 112.05V112.15V112.25H132.85V112.15M132.85 112.15H132.75V112.05V111.95M132.75 111.95H132.65V112.05H132.55L132.45 112.15V112.05M132.85 111.65H132.95M132.85 111.65H132.75V111.55H132.85H132.95M132.95 111.65V111.55M132.95 111.55V111.45H133.05V111.35H133.15V111.25M132.75 110.65H132.85V110.55H132.75V110.65ZM132.75 110.65V110.75V110.85M134.65 109.55V109.65V109.75H134.75V109.65V109.55M134.65 109.55H134.75M134.65 109.55V109.45M134.75 109.55V109.45M134.75 109.55H134.85V109.45M134.75 109.45H134.85M134.75 109.45H134.65M134.85 109.45V109.35H134.95M134.85 109.45H134.95V109.35M134.95 109.35H135.05M134.65 109.45V109.35H134.55M134.65 109.45H134.55M134.55 109.45V109.35M134.55 109.45V109.55V109.65L134.45 109.75M134.55 109.45H134.45V109.55V109.65V109.75M134.55 109.35V109.25V109.15V109.05M134.45 109.75H134.55V109.85L134.45 109.75ZM134.55 109.05V108.95V108.85M134.55 109.05V108.85M134.55 108.85V108.75M134.55 108.75V108.65V108.55V108.45M134.55 108.75L134.65 108.55V108.45H134.55M134.55 108.45V108.35V108.25V108.15V108.05H134.65M134.55 108.45L134.65 108.25V108.15V108.05M134.65 108.05V107.95M134.65 107.95V107.85V107.75M134.65 107.95L134.75 107.85V107.75M134.65 107.75H134.75M134.65 107.75V107.65M134.75 107.75V107.65M134.75 107.75L134.85 107.65H134.75M134.75 107.65V107.55H134.65V107.65M134.75 107.65H134.65M40.15 41.75L40.05 41.65H39.95V41.75V41.85H40.05V41.95H40.15L40.25 42.05H40.35V42.15V42.25L40.45 42.45L40.25 42.55H40.15H39.95V42.65H40.25H40.45H40.55H40.65V42.75V42.85H40.75V42.95H40.85L40.95 43.15L40.75 43.25L40.55 43.35H40.45V43.45H40.35V43.55H40.45L40.85 43.35V43.25H40.95H41.05H41.15H41.25V43.35L41.45 43.55L41.55 43.75V43.95L41.75 44.25L41.85 44.65V44.75V44.85V44.95V45.05V45.15L41.75 45.35L41.65 45.55L41.45 45.85L41.35 46.05L41.15 46.15L40.95 46.35L40.85 46.45L40.65 46.55L40.45 46.65H40.35L40.05 46.85H39.95H39.85L39.65 46.95L39.15 47.05L38.75 47.25L38.35 47.35L37.95 47.45H37.55L37.45 47.55H37.25H36.95H36.75H36.65L36.35 47.35L35.85 47.15L35.65 47.05L35.35 46.95L35.25 46.85H35.15L34.95 46.65L34.45 46.35L34.15 46.15H34.05L33.75 46.05L33.35 45.85H32.95H32.85H32.45L31.75 45.75H30.95H30.85H30.65H30.45L30.05 45.65L29.55 45.45H29.45L28.95 45.25L28.25 44.95L27.95 44.85L27.45 44.65L27.05 44.45H26.75L26.15 44.25L25.65 44.15L25.15 44.05H24.85H24.65H24.05H23.75L23.55 43.95H22.95H22.55L22.05 44.05H21.95L21.65 44.15L20.95 44.25L20.85 44.35L20.15 44.55L19.85 44.65L19.55 44.75L19.25 44.95L19.05 45.05L18.65 45.25L18.35 45.35V45.45L18.15 45.55L17.95 45.65L17.75 45.85L17.55 45.95L17.35 46.05L17.25 46.15H17.15L16.95 46.25H16.75H16.65L16.35 46.35H16.15H16.05H15.75H15.55H15.45H15.25H15.15H14.75H14.55L14.35 46.45H14.25H14.15H13.95H13.85L13.75 46.55H13.65H13.45H13.35H13.25L12.95 46.65H12.65L12.35 46.75H12.25H12.15H12.05L11.75 46.85H11.35L10.85 46.95L10.65 47.05H10.45H10.25H9.84998H9.75L9.54999 47.15H9.34998H9.04999H8.94995H8.84998H8.75H8.54999L8.25 47.25L8.04999 47.35H7.94995L7.64996 47.45L7.44995 47.65L7.14996 47.75L6.94995 47.85L6.75 47.95L6.64996 48.05H6.54999V48.15L6.25 48.25L6.04999 48.45L5.94995 48.55L5.75 48.65H5.64996L5.54999 48.75L5.34998 48.85L5.04999 49.05H4.94995L4.64996 49.15L4.34998 49.35H4.04999L3.75 49.45L3.64996 49.55H3.44995L3.04999 49.65H2.94995L2.64996 49.75H2.54999L2.25 49.85H2.04999V49.95H1.94995H1.84998H1.64996L1.34998 50.05L1.14996 50.15L0.75 50.25H0.449951L0.25 50.35L1.44995 50.85L1.84998 51.05H2.04999V51.15H2.14996L2.34998 51.25L2.54999 51.35L3.64996 51.85L4.14996 52.15L4.54999 52.45L4.84998 52.75L5.14996 53.15L5.44995 53.55L5.54999 53.95L5.64996 54.15L5.75 54.55V54.65V54.75V54.85L5.84998 55.05L6.14996 56.45L5.84998 56.75L5.94995 57.05L6.14996 58.05L6.34998 59.05V59.15L6.94995 59.05L7.14996 59.95L7.25 60.75L7.44995 61.55V61.65L7.34998 61.75L7.44995 62.05V62.45L7.54999 62.75L7.64996 63.35L7.75 63.75V64.25L7.84998 64.75L7.94995 64.95V65.05V65.15V65.25V65.35V65.45L8.04999 65.55V65.45H8.14996V65.55H8.25V65.65H8.34998L8.44995 65.75L8.64996 65.85V65.75L9.14996 65.15L9.44995 64.75L9.54999 64.55L9.75 64.35L9.84998 64.25H10.05L10.35 64.15H10.75L10.95 64.05H11.05H11.25L11.45 64.35L11.75 64.65L11.85 64.75H11.95H12.05H12.15H12.25L12.55 64.65L13.25 64.55H13.45L13.35 63.65L14.15 63.55H14.35L14.25 62.75L14.05 61.85L15.35 61.65L16.15 61.45L16.65 61.35L17.45 61.25H17.65H17.75L17.85 61.15H17.95H18.05L18.15 61.05H18.25V60.95L18.35 60.85V60.75H18.45V60.65H18.55V60.75V60.85H18.65H18.75H18.85H18.95H19.05H19.15L19.25 60.95V61.05H19.15L19.05 61.15H18.95V61.25V61.35H18.85V61.45M40.15 41.75V41.65H40.25V41.75M40.15 41.75H40.25M40.25 41.75V41.85H40.35L40.45 41.75V41.65L40.55 41.55V41.45H40.45V41.35L40.55 41.25V41.15H40.65L40.75 41.05H40.65V40.95L40.55 40.25L40.35 39.15L40.25 38.55L39.45 38.65L39.25 37.65L39.15 37.05L39.05 36.45L38.85 35.65L39.65 35.55L40.45 35.35L40.35 34.35L40.25 33.85L40.05 32.85H40.15L40.85 32.75H41.45L41.25 31.65H41.45L41.35 30.75L41.85 30.65L41.65 29.55L41.55 29.25L41.45 28.55V28.45L40.25 28.75L39.15 29.05H38.95L38.25 29.15L38.15 28.45L37.95 27.45L37.85 26.55L37.65 25.75L37.55 24.75L37.65 24.65L37.75 24.55L37.95 24.45L38.15 24.35L38.45 24.15L38.65 24.05L38.75 23.95V23.65L38.65 23.55V23.45V23.15L38.55 22.75L38.45 22.25L37.65 22.35H37.55H37.45H37.35H37.25H37.15L37.05 22.15V21.85V21.65L36.95 21.55V21.25L36.85 21.05V20.75V20.55V20.45L36.75 20.35V20.25V20.15H36.65H36.55H36.45L36.35 20.25H36.25H36.15V20.35H36.05V20.45H35.95V20.55H35.85V20.65H35.75V20.75H35.65V20.85H35.55L35.45 20.95H35.35H35.25H35.15L35.05 21.05H34.95H34.85V21.15H34.75L34.65 21.25H34.55V21.35H34.45H34.35V21.25V21.15V21.05V20.95V20.85H34.25V20.75V20.65L34.15 20.15V20.05L34.05 19.55L33.95 18.95L33.75 18.05L33.65 17.75V17.55L34.45 17.35H34.65H34.85L35.25 17.25H35.45L35.65 17.15H35.85H35.95L36.25 17.05L36.15 16.55L36.05 16.25V15.85L36.25 15.75H36.45L37.05 15.55H37.45V15.75L37.55 16.05L37.65 16.55L38.65 16.35L39.45 16.15H39.55L39.45 15.95L39.25 15.65L39.15 14.65L39.05 14.45V14.35H39.25L39.05 13.65V13.15L38.95 12.95L38.85 12.25L37.55 12.35L37.05 12.45L36.95 12.15L36.85 11.65L36.75 11.05V10.95L36.65 10.45L36.45 9.95001L35.85 10.15V9.95001V9.45001V9.35001L35.75 8.64999L35.65 8.14999V7.85001L35.55 7.45001L35.65 7.35001L37.35 7.04999L37.15 5.95001L36.95 4.75L36.75 3.64999L36.65 3.04999L36.55 2.64999V2.25L36.45 1.64999L36.35 1.14999L36.65 1.04999H37.45L37.65 1.54999L39.35 1.25L39.55 2.45001L39.15 2.54999V3.35001L39.35 4.25L40.15 4.14999V4.35001L40.55 4.25L41.55 4.04999L42.95 3.85001L43.05 4.04999V4.14999V4.35001L43.35 4.25H43.45V4.14999H43.55H43.65H43.75L43.85 4.04999H43.95H44.05H44.15H44.25H44.35H44.45V3.95001H44.55H44.65V3.85001H44.75H44.95H45.05L45.45 3.75L45.55 3.64999H45.65V3.54999V3.35001V3.25L45.75 3.14999L45.85 3.04999V2.85001L46.05 2.64999L46.35 2.35001L46.45 2.14999L46.65 2.04999L46.75 1.95001H46.85H47.05H47.25H47.35H47.55L47.65 1.85001H47.75L47.95 1.75H48.05L48.15 1.54999L48.35 1.45001H48.45L48.65 1.35001L48.95 1.25H49.05H49.45H49.65H49.75L50.15 1.35001H50.25H50.55L50.85 1.45001H51.15H51.25H51.45H51.85H51.95L52.15 1.35001H52.25L52.45 1.25H52.55L52.75 1.14999L52.95 1.04999H53.05V0.950012L53.45 0.549988H53.55H53.65H53.85H54.15H54.35H54.55L54.65 0.450012H54.75H54.85L54.95 0.549988L55.05 0.649994L55.15 0.75H55.25L55.55 0.950012H55.75H55.85H55.95L56.35 0.850006L56.75 0.75L56.95 0.649994L57.15 0.450012L57.35 0.350006H57.55H57.85H57.95L58.25 0.25H58.45L58.65 0.350006H58.75L58.85 0.450012H58.95L59.25 0.649994L59.45 0.850006L59.55 0.950012L59.75 1.14999L59.95 1.25H60.05L60.15 1.35001H60.35L60.45 1.45001V1.54999L60.55 1.64999V1.75H60.65L60.75 1.85001H60.85V1.75H60.95V1.85001H61.05H61.15M61.15 1.85001V1.95001M61.15 1.85001H61.25V1.95001H61.35H61.45M61.45 1.95001V2.04999M61.45 1.95001H61.55V2.04999H61.65V1.95001H61.75H61.85M61.85 1.95001V2.04999M61.85 1.95001H61.95M61.95 1.95001V2.04999M61.95 1.95001H62.05V2.04999H62.15H62.25V2.14999H62.35H62.45H62.55H62.65V2.25H62.75H62.85V2.14999H62.95M62.95 2.14999V2.04999M62.95 2.14999H63.05V2.25H63.15H63.25V2.35001H63.35V2.45001H63.45H63.55V2.54999H63.65H63.75H63.85V2.45001H63.95V2.54999V2.64999H64.05V2.75H64.15H64.25H64.35H64.45H64.55M64.55 2.75H64.65M64.55 2.75V2.85001H64.65L64.85 3.54999H65.05L66.05 3.45001H66.15L66.25 3.35001H66.35H66.45H66.55V3.45001H66.65H66.75H66.85H66.95V3.54999H67.05H67.15L67.25 3.64999H67.35L67.45 3.75H67.55H67.65H67.75L67.85 3.85001M67.85 3.85001V3.75M67.85 3.85001H67.95V3.95001H68.05H68.15H68.25H68.35L68.45 3.85001H68.55H68.65H68.75H68.85V3.75H68.95V3.85001H69.05H69.15H69.25H69.35H69.45H69.55V3.95001H69.65H69.75H69.85V4.04999V4.14999L70.05 5.35001V5.54999L70.55 5.35001L71.65 4.75L72.45 4.35001L73.05 4.04999L73.15 3.95001L73.85 3.54999L74.45 3.25L74.55 3.14999L74.85 3.04999L75.65 2.54999L76.65 2.04999L77.35 1.64999L78.35 1.04999H78.45V0.950012H78.65L78.75 0.850006L78.95 0.75L79.15 0.549988L79.35 0.950012V1.04999L80.45 2.85001L80.55 2.95001L80.65 3.14999V3.25L80.85 3.45001L81.15 3.95001L81.25 3.85001H81.55H81.85L81.75 3.75H81.85H81.95H82.05H82.15H82.35L82.45 3.85001H82.55H82.65H82.75H82.85V3.95001H82.95L83.05 4.04999H83.15V3.95001H83.25H83.35H83.45H83.55L83.65 3.85001H83.75H83.85V3.75H83.95L84.05 3.64999H84.15V3.54999H84.25L84.35 3.64999V3.95001L84.55 4.54999L84.85 6.14999L85.35 6.04999L87.25 5.64999L87.55 5.54999L87.75 5.45001H87.95L89.45 5.14999L90.15 4.95001L90.35 4.85001L90.75 4.75L91.75 4.25L92.05 4.14999L92.25 4.04999H92.35L92.45 3.95001V4.04999H92.55H92.65V4.14999H92.75H92.85V4.25V4.35001V4.45001V4.54999V4.64999H92.95H93.05H93.15V4.54999H93.25V4.64999H93.35V4.75V4.85001H93.25V4.95001V5.04999H93.35V5.14999H93.25V5.25H93.15H93.05H92.95H92.85V5.35001H92.75V5.45001H92.65V5.54999H92.55V5.64999V5.75H92.65V5.85001V5.95001H92.75V6.04999V6.14999V6.25V6.35001L92.65 6.45001V6.54999V6.64999H92.75H92.85V6.54999H92.95V6.45001V6.35001H93.05H93.15V6.45001H93.25L93.35 6.54999V6.64999H93.45V6.75H93.55L93.45 6.85001H93.35H93.25H93.15V6.95001V7.04999H93.05V7.14999L92.95 7.25V7.35001V7.45001V7.54999H92.85V7.64999V7.75V7.85001H92.95L93.25 7.75H93.35L93.65 7.64999L94.25 7.45001L94.95 7.25L96.75 6.75L96.95 7.64999H96.85L97.05 8.04999L97.35 9.25L95.85 9.75V9.85001L96.15 10.85H96.25H96.35H96.45H96.55L96.65 10.95H96.75H97.05V11.05H97.15L97.25 11.15L97.35 11.75L97.45 12.45L97.65 13.15V13.25L97.45 13.35L97.05 13.45L96.45 13.75L96.65 14.25H96.75L97.75 13.75L97.85 14.25L97.95 14.75L98.05 15.25L98.25 15.65L98.35 16.15V16.35L98.45 16.25L99.15 15.85L99.25 15.75L99.55 15.55L99.75 15.75L100.15 16.55L99.65 16.85L99.95 17.45L100.55 18.55L100.25 18.65L100.65 19.35L100.55 19.55V19.65L100.45 19.75V19.85H100.35L100.15 20.35V20.45V20.55L100.05 20.65V20.75L99.95 20.85V20.95V21.05H100.05V21.15L100.15 21.35L99.35 21.45L98.45 21.55L98.35 21.15L98.25 20.35L98.15 20.05V19.95H97.85L96.85 20.15L96.95 21.05L97.55 21.15L97.65 21.65L97.75 22.35V22.55H97.85H97.95H98.05H98.15H98.25H98.35H98.45L98.55 22.45H98.65H98.75H98.85H98.95H99.05H99.15V23.05V22.95H99.75L100.55 22.75L101.85 22.55H102.35L102.65 22.45H102.75H103.15L103.05 22.15V21.85H103.35L103.75 21.75H103.85H103.95H104.05V21.85V21.95V22.05H103.95V22.25V22.35V22.45L103.75 22.75V22.85L103.65 22.95L103.55 23.05V23.15V23.25V23.35H103.65V23.45H103.75V23.35H103.85V23.45V23.55H103.95V23.65H104.05V23.75H104.15H104.25H104.35H104.45H105.05H106.15L106.95 23.65H107.45L107.55 23.85L107.65 24.05L107.85 24.45L107.95 24.65V24.85V25.05L108.45 24.95L109.15 24.85V24.95L110.05 24.75H110.55L110.75 24.65H110.85V24.55H110.75V24.45V24.35H110.85V24.25V24.15H110.75H110.65V24.05V23.95H110.75V23.85H110.65V23.75H110.55V23.65L110.45 23.55H110.35V23.45V23.35L110.45 23.25H111.45H112.05L112.65 23.35H112.95L113.05 23.75V23.85V23.95H113.15H113.25H113.35H113.55H113.75L113.95 23.85H114.05H114.15H114.25V23.95H114.35H114.45H114.55L114.65 24.05H114.75L114.85 24.15H114.95H115.05L115.15 24.05H115.25H115.35H115.55H115.65V24.15H116.05H116.15H116.25V24.25H116.35L116.55 24.35H116.65H116.75H116.85H117.25H117.65H117.75H117.95H118.05H118.25L118.85 24.25L119.35 24.15L119.95 24.05H120.05H120.45V23.85L120.35 23.65V23.55V23.45L120.95 23.35L121.05 23.25L121.95 23.05L122.55 22.95L122.75 22.85L123.15 22.75L123.55 22.65L123.95 22.55H124.05H124.15V22.45H124.25L124.55 22.35V22.45L124.65 22.85L124.75 23.15L124.65 23.65L124.45 24.25L124.35 24.65V24.85H124.25V24.95H124.05H123.75V25.05V25.25V25.95V26.45V26.95V27.25L123.95 27.35H124.05H124.15H124.35L124.55 27.25L125.55 27.15L125.95 27.05H126.05H126.15L127.15 26.85L127.55 26.75L127.95 26.65V26.85L128.15 27.55V27.85V28.15L128.25 28.25L128.35 29.05V29.25V29.35V29.45V29.65L128.45 29.95V30.05V30.35L128.55 30.85L128.65 31.35H129.05L129.35 31.25L129.55 32.15L129.65 32.65L129.75 33.25L129.85 33.75V34.15V34.25L129.95 34.45V34.65L130.05 35.05V35.35L130.65 35.25L131.05 35.15H131.25H131.65L132.45 35.05L132.95 34.95H133.35L133.55 34.85H133.75H133.95V34.95V35.05H134.05V35.15H133.95H133.85V35.25H133.75V35.15H133.65H133.55V35.25V35.35L133.45 35.45V35.55H133.55L133.65 35.65V35.75H133.55V35.85V35.95H133.45M133.45 35.95V35.85M133.45 35.95H133.35V36.05H133.45V36.15H133.35L133.25 36.05M133.25 36.05V35.95H133.15V36.05H133.25ZM133.25 36.05V36.15V36.25V36.35H133.15H133.05V36.25L132.85 36.15V36.05L132.65 36.15H132.45H132.35H132.25H132.05V36.35H132.15V36.55L131.15 36.65L130.25 36.75L130.35 37.05L130.45 37.75V37.85L130.55 38.25V38.45L130.65 38.85L131.35 38.75L132.35 38.65H132.65H132.75L132.65 38.75V38.85V38.95V39.15V39.25V39.35V39.45L132.05 39.55H131.85H131.65L131.75 40.25L131.85 40.65H132.25H132.65H132.55V40.75V40.85V40.95V41.05V41.15H132.65L132.75 41.05H132.85L133.15 40.85L133.75 40.55L134.15 40.35L134.65 40.05L135.05 39.85L135.35 39.65L135.55 39.55L135.75 39.45H135.85L135.95 39.35L136.05 39.55L136.35 40.05L136.55 40.55L136.65 40.65L136.85 41.05L137.15 41.55L137.25 41.85L137.45 42.15L137.65 42.45L137.85 42.85L138.05 43.25L138.35 43.75L138.55 44.05L138.85 44.75L139.15 45.25H139.25L139.65 44.85L140.15 44.35H140.25L140.75 43.85L141.75 42.95L142.85 44.65L143.55 44.15L143.95 44.75V44.85H144.05L144.55 45.75H144.65L145.35 44.95L145.55 44.75H145.65L145.75 44.95L145.85 45.05L146.05 45.25V45.35L146.25 45.75L146.45 45.95L146.55 46.15L146.75 46.45L147.15 47.25L147.35 47.55L148.05 48.75L148.25 49.05V49.15H148.35L148.45 49.25L148.75 48.95L149.35 49.45L150.55 50.55L150.95 50.95H151.05V51.05L151.85 51.55L152.15 51.85L152.35 51.95L152.45 52.05L152.55 51.85V51.75L152.65 51.65L153.25 50.55V50.45L153.55 49.85L154.05 50.05L154.25 50.15L154.45 50.25L154.15 50.65V50.75L154.05 50.95H154.15H154.75H154.85H154.95L155.05 51.15H155.15V50.95H155.55H156.85V51.05L156.65 51.65L156.55 51.75V51.85H156.65L156.75 51.95L156.85 52.05V52.45L156.65 52.75V52.95L156.55 53.05L156.45 53.35H156.25L156.05 53.75L155.95 54.05V54.15L155.65 54.85L155.55 55.15L155.45 55.35L155.15 55.95L155.05 56.35L154.85 56.85L154.75 57.15L154.35 58.15L154.55 58.75L154.65 59.15L154.75 59.35L153.85 59.85L153.15 60.25L152.65 60.45L152.45 59.75L152.25 58.85V58.75L152.05 58.35V58.25L151.95 58.15V58.05L151.85 57.75H151.75L151.65 57.65V57.55H151.55H151.45L151.15 57.65H151.05L150.75 57.75L149.95 57.95H149.85L150.15 58.65L150.35 59.35L150.55 59.95L150.65 60.55L150.05 60.85L149.85 60.95L149.15 61.35L149.35 61.65L148.85 61.85H148.55V61.95L148.65 62.05L148.55 62.25H148.65V62.45L147.75 62.85L147.25 63.15L146.35 63.55H146.25V63.45H146.35V63.35V63.25V63.15H146.25V63.05V62.95V62.85H146.15M146.15 62.85V62.95M146.15 62.85H146.05V62.75H145.95V62.65V62.55H145.85V62.45L144.95 62.55H144.45H144.35H144.25L143.65 62.65H142.95H142.55L142.15 62.75H141.95H141.85L141.75 62.05H140.95L140.85 62.15H140.75L140.95 62.95V63.05L141.15 63.75L141.25 64.05V64.25L141.35 64.45V64.55V65.25L141.45 65.65L141.55 66.05V66.45V66.65V66.75L141.65 66.95L141.75 67.95L141.95 68.65V68.75V68.85H142.05H142.25L142.35 69.05V69.25L142.45 69.65V69.85L142.55 70.15V70.45L142.65 70.75V70.85H142.45L141.25 70.95H141.05V70.45L139.85 70.55H139.55H138.65H138.55L138.65 70.75L138.95 70.95H138.85H138.75H138.65V71.05H138.45H137.95H137.85H137.65H137.45H137.15L137.25 71.15H137.35V71.25H137.25V71.35V71.45H137.35V71.55H137.45V71.65V71.75L137.55 71.85H137.65V71.95V72.05H137.75V72.15H137.85H137.95H138.05V72.25L138.15 72.35H138.25V72.45H138.35V72.55V72.65V72.75H138.45V72.85H138.55H138.65V72.75V72.65H138.75V72.75H138.85V72.85V72.95H138.75V73.05H138.85V73.15H138.95H139.05H139.15V73.05H139.25L139.35 72.95H139.45H139.55V73.05L139.65 73.15H139.55V73.25H139.65H139.75V73.35H139.85V73.45H139.75V73.55H139.85V73.65H139.95H140.05V73.55H140.15H140.25V73.45V73.35V73.25H140.35V73.15H140.45V73.05H140.55V73.15V73.25H140.65M140.65 73.25V73.15L140.75 73.25M140.65 73.25H140.75M140.75 73.25V73.35V73.45H140.65V73.55V73.65V73.75V73.85V73.95H140.75V73.85H140.85H140.95V73.75H141.05V73.65H141.15V73.55H141.25H141.35V73.65V73.75V73.85V73.95L141.45 74.05V74.15H141.55L141.65 74.05V73.95H141.75H141.85H141.95V74.05H142.05V74.15V74.25V74.35H142.15H142.25V74.45V74.55V74.65V74.75H142.35H142.45H142.55H142.65V74.85V74.95V75.05H142.75V75.15H142.85H142.95V75.25H143.05V75.35H143.15V75.45M143.15 75.45H143.25M143.15 75.45V75.55V75.65H143.05V75.75V75.85H143.15H143.25L143.35 75.95V76.05H143.45V76.15H143.55V76.25L143.45 76.35V76.45H143.55L143.65 76.55H143.75H143.85H143.95M143.95 76.55V76.45M143.95 76.55H144.05V76.65H144.15V76.55H144.25V76.45V76.35H144.35V76.25H144.45H144.55V76.35H144.65V76.45V76.55V76.65H144.55V76.75H144.65V76.85V76.95H144.55V77.05V77.15V77.25V77.35H144.65V77.45H144.75H144.85L144.95 77.35H145.05V77.45V77.55V77.65V77.75V77.85H144.95V77.95V78.05H144.85V78.15H144.75H144.65V78.25V78.35V78.45H144.75V78.55H144.85H144.95V78.45H145.05V78.55H145.15V78.65H145.05V78.75H144.95V78.85V78.95V79.05H145.05H145.15V79.15V79.25H145.05V79.35V79.45H144.95V79.55H144.85H144.75H144.65V79.65H144.55H144.45H144.35H144.25V79.75H144.15V79.85H144.05H143.95H143.85V79.95H143.95L144.05 80.05H144.15V80.15H144.25L144.45 80.25L144.55 80.35H144.65H144.75L144.95 80.45L145.05 80.55L145.35 80.65L145.65 80.85L146.35 81.15L146.85 81.35L147.25 81.55L147.85 81.85L148.05 82.05L148.25 82.15L148.65 82.25L148.75 82.15V82.05L148.85 81.95L148.95 81.85L149.45 81.45L149.75 81.65L150.15 82.15L150.45 82.45L150.75 82.85L150.85 82.95L150.55 83.25L150.25 83.65L149.65 84.35L149.45 84.65L149.15 85.15L149.05 85.25L149.25 85.45L149.75 85.75L149.85 85.85L150.05 85.95L150.35 86.25L150.85 86.55L151.35 86.95H151.45L151.55 87.05L151.65 87.15L151.55 87.25L151.35 87.45L151.15 87.55L150.85 87.85L150.65 87.95L150.25 88.25L149.65 88.75L149.25 88.15H149.15L148.65 88.55L148.35 88.85L147.75 89.35L147.55 89.55L147.05 89.95H146.95L146.85 90.05L146.45 90.35L146.25 90.65H146.15L145.75 91.05L145.65 91.15L146.05 91.65V91.75H146.15L146.25 91.95L146.35 92.05L146.45 92.25V92.35L146.55 92.45L146.75 92.75L147.05 93.25L147.25 93.65L147.65 94.25V94.35V94.45H147.55H147.45L147.35 94.55H147.25V94.65H147.15L147.05 94.75H146.95V94.85H146.85V94.95H146.75L146.65 95.05H146.55V95.15H146.45V95.25H146.35V95.35H146.25H146.15H146.05H145.95H145.85H145.75H145.65H145.55H145.45M145.45 95.35V95.45M145.45 95.35L145.35 95.45H145.25H145.15H145.05H144.95H144.85H144.75V95.55H144.65H144.55H144.45V95.65H144.35H144.25L144.15 95.75H144.05L143.95 95.85H143.85V95.95H143.75V96.05H143.65L143.55 96.15H143.45V96.25H143.35L143.25 96.35L143.15 96.45H143.05L142.95 96.55V96.65H142.85V96.75H142.75L142.65 96.85L142.55 96.95L142.45 97.05H142.35V97.15H142.25V97.25H142.15V97.35H142.05L141.95 97.45H141.85V97.55H141.75V97.65L141.65 97.75H141.55V97.85H141.45V97.95L141.35 98.05L141.25 98.15H141.15L141.05 98.25H140.95V98.35H140.85V98.45H140.75V98.55H140.65H140.55V98.65H140.45V98.75H140.35V98.85H140.25V98.95H140.15V99.05H140.05V99.15H139.95V99.25H139.85V99.35H139.75V99.45L139.65 99.55V99.65H139.55V99.75H139.45V99.85H139.35V99.95V100.05H139.25V100.15L139.15 100.25V100.35H139.05V100.45V100.55H138.95V100.65V100.75H138.85V100.85V100.95H138.75V101.05L138.65 101.15V101.25H138.55V101.35V101.45H138.45V101.55V101.65V101.75H138.35V101.85V101.95H138.25V102.05V102.15H138.15V102.25V102.35H138.05V102.45V102.55H137.95V102.65H137.85V102.75V102.85L137.75 102.95V103.05V103.15H137.65V103.25V103.35V103.45H137.55V103.55V103.65H137.45V103.75V103.85V103.95H137.35V104.05V104.15H137.25V104.25V104.35V104.45H137.15V104.55V104.65L137.05 104.75V104.85V104.95H136.95V105.05V105.15V105.25H136.85V105.35V105.45V105.55H136.75V105.65V105.75V105.85H136.65V105.95V106.05V106.15H136.55V106.25V106.35V106.45H136.45V106.55V106.65H136.35V106.75V106.85V106.95V107.05H136.25V107.15V107.25V107.35H136.15V107.45V107.55H136.05V107.65V107.75V107.85H135.95M135.95 107.85V107.95V108.05H135.85M135.95 107.85L135.85 107.95V108.05M135.95 107.85V107.75V107.65V107.55V107.45H135.85V107.35V107.25L135.75 107.15V107.05H135.65V106.85L135.55 106.75L135.45 106.45L135.35 106.25V106.15L135.25 106.05L135.15 105.85L135.05 105.75V105.65L134.95 105.55H134.85V105.45L134.75 105.35V105.25L134.55 105.05L134.45 104.85H134.35V104.75L134.25 104.65L134.15 104.55H134.05V104.45L133.95 104.35H133.85V104.25H133.75L133.65 104.15H133.55H133.45L133.35 104.05L133.25 104.15V104.35H133.15V104.25V104.05H133.25L133.15 103.95H133.05V103.85H133.15V103.75H133.05V103.65L132.95 103.55H132.85L132.75 103.45L132.65 103.35H132.55V103.25H132.45V103.15H132.35L132.25 103.05L132.05 102.95L131.95 102.85L131.85 102.75H131.75H131.65M135.85 108.05V108.15M135.85 108.15V108.25V108.35H135.75M135.85 108.15L135.75 108.25V108.35M135.75 108.35V108.45V108.55H135.65M135.75 108.35H135.65V108.45V108.55M135.65 108.55V108.65V108.75L135.55 108.85M135.65 108.55L135.55 108.75V108.85M135.55 108.85V108.95H135.45M135.55 108.85H135.45V108.95M135.45 108.95V109.05V109.15H135.35V109.25V109.35H135.25V109.45V109.55H135.15M135.45 108.95H135.35V109.05H135.25V109.15H135.15L135.05 109.25V109.35M135.15 109.55V109.65M135.15 109.55V109.45H135.05V109.35M135.15 109.65L135.05 109.75M135.15 109.65H135.05V109.75M135.05 109.75H135.15M135.05 109.75V109.85H134.95M135.05 109.75H134.95V109.85M134.95 109.85V109.95V110.05V110.15H134.85V110.25V110.35H134.75V110.45H134.65V110.55V110.65H134.55V110.75H134.45V110.85V110.95H134.35V111.05H134.25V111.15V111.25H134.15V111.35H134.05V111.45L133.95 111.55V111.65H133.85V111.75L133.75 111.85V111.95H133.65V112.05H133.55V112.15L133.45 112.25V112.35H133.35V112.45H133.25V112.55H133.15V112.65H133.05V112.75H132.95L132.75 112.95H132.65H132.55L132.45 113.05H132.35H132.25L132.05 112.95H131.95V112.85V112.75V112.65V112.55L131.85 112.45V112.35V112.25L131.95 112.15V112.05H132.05H132.15V112.15H132.05V112.25H132.15L132.25 112.15L132.35 112.05H132.45M134.95 109.85H134.85V109.95H134.75V109.85H134.65V109.95L134.55 110.05V110.15V110.25L134.45 110.35V110.25H134.35V110.15H134.25V110.05V109.95H134.15V110.05H134.05V110.15V110.25V110.35H134.15H134.25V110.45H134.35H134.45V110.55H134.35H134.25H134.15M132.45 112.05V111.95V111.85M132.45 111.85L132.35 111.65V111.55V111.45V111.35V111.25M132.45 111.85V111.75L132.55 111.65V111.55H132.45V111.45V111.35V111.25H132.35M132.35 111.25V111.15H132.45V111.05H132.55M133.25 111.85V111.95H133.35V111.85H133.25ZM133.55 111.05V110.95M133.55 111.05V111.15V111.25V111.35H133.65V111.25V111.15V111.05M133.55 111.05H133.65M133.65 111.05V110.95V110.85V110.75H133.75M133.75 110.75V110.65H133.85V110.75M133.75 110.75H133.85M133.75 110.75V110.85V110.95V111.05H133.85V110.95V110.85M133.85 110.75V110.85M133.85 110.85H133.95V110.75H134.05V110.65V110.55H134.15M134.15 110.55V110.45M131.65 102.75L131.55 102.85M131.65 102.75H131.55V102.65H131.45H131.35M131.35 102.65V102.75M131.35 102.65V102.55H131.25V102.45H131.15H131.05M131.05 102.45V102.55M131.05 102.45V102.35H130.95L130.75 102.25L130.55 102.15L130.45 102.05H130.35H130.25H130.05H129.95L129.75 101.95H129.55H129.35H129.05L128.75 102.05H128.65H128.55H128.45V102.15H128.35H128.25H128.15V102.05H128.05H127.95H127.85H127.65L127.55 101.95H127.35H127.15H126.85H126.65H126.35H126.15H126.05L125.85 102.05H125.75H125.65H125.55H125.45H125.35L125.15 102.15H125.05L124.95 102.25H124.85H124.75L124.65 102.35H124.55V102.45H124.45H124.35V102.55M124.35 102.55H124.45M124.35 102.55V102.65H124.25L124.15 102.75H124.05L123.95 102.85L123.85 102.95H123.75L123.55 103.05H123.45V103.15H123.35H123.25L123.15 103.25H123.05H122.95L122.75 103.35H122.65L122.45 103.45H122.35H122.25H122.15H121.95H121.85L121.75 103.55H121.65L121.45 103.65H121.35H121.25H121.15H121.05H120.95L120.85 103.75H120.75L120.55 103.85H120.45H120.35V103.95H120.05V104.05L119.85 104.15H119.65L119.45 104.25L119.35 104.35H119.25H119.15H119.05L118.95 104.45L118.65 104.55L118.35 104.65L118.05 104.75L117.05 105.05L116.95 105.15L116.75 105.25L116.45 105.35L115.75 105.65L115.45 105.85H115.35L115.05 105.95L114.65 106.15L114.45 106.25L114.25 106.45L114.15 106.55H114.05L113.95 106.65L113.85 106.75L113.65 106.85H113.55V106.95H113.45L113.35 107.05L113.25 107.15L113.15 107.25H113.05V107.35H112.95H112.85V107.45L112.65 107.55L112.55 107.75H112.45L112.35 107.85L112.25 107.95L112.05 108.15L111.95 108.35L111.75 108.55L111.55 108.65L111.45 108.85L111.25 109.05L111.15 109.25L110.95 109.35L110.85 109.65L110.75 109.75L110.55 110.05L110.45 110.15L110.25 110.45L110.15 110.75L109.85 111.05L109.75 111.25L109.55 111.55L109.45 111.75L109.35 111.95L109.15 112.25L109.05 112.55L108.85 112.75L108.75 113.05L108.65 113.25L108.55 113.45L108.45 113.55L108.35 113.75M108.35 113.75L108.25 113.95L108.15 114.05M108.35 113.75H108.25V113.85H108.15M108.35 113.75V113.65V113.55V113.45H108.45V113.35V113.25H108.55V113.15M108.15 114.05V114.15L108.05 114.35L107.95 114.65L107.85 114.75M108.15 114.05H108.05V114.15V114.25H107.95V114.35H107.85M108.15 114.05V113.95V113.85M107.85 114.75L107.75 114.85M107.85 114.75H107.75V114.85M107.85 114.75V114.65V114.55V114.45V114.35M107.75 114.85V114.95L107.65 115.25L107.45 115.45M107.75 114.85H107.65V114.95V115.05H107.55V115.15V115.25H107.45V115.35H107.35V115.45M107.45 115.45L107.35 115.65L107.25 115.85L107.15 115.95M107.45 115.45H107.35M107.15 115.95V116.05L107.05 116.15M107.15 115.95H107.05V116.05V116.15M107.15 115.95V115.85M107.05 116.15V116.25H106.95M107.05 116.15H106.95V116.25M106.95 116.25V116.45L106.85 116.55M106.95 116.25V116.35H106.85M106.85 116.55V116.65L106.75 116.75L106.65 116.85M106.85 116.55H106.75V116.65H106.65V116.55V116.45M106.85 116.55V116.45M106.65 116.85V116.95M106.65 116.85V116.75H106.55V116.65V116.55V116.45H106.65M106.65 116.95L106.55 117.05M106.65 116.95H106.55M106.55 117.05V117.15H106.45M106.55 117.05H106.45V117.15M106.55 117.05V116.95M106.45 117.15V117.25L106.35 117.35M106.45 117.15H106.35V117.25V117.35M106.35 117.35L106.25 117.55M106.35 117.35H106.25V117.45V117.55M106.25 117.55L106.15 117.75L106.05 117.85M106.25 117.55H106.15V117.65H106.05V117.75V117.85M106.05 117.85V117.95L105.95 118.05L105.85 118.15M106.05 117.85H105.95V117.95H105.85V118.05V118.15M105.85 118.15V118.25M105.85 118.25L105.75 118.35M105.85 118.25H105.75V118.35M105.75 118.35L105.65 118.55M105.75 118.35L105.65 118.45V118.55M105.65 118.55V118.65L105.45 118.85M105.65 118.55L105.55 118.65V118.75H105.45V118.85M105.45 118.85V118.95L105.35 119.15L105.25 119.25L105.15 119.35L105.05 119.55L104.85 119.75L104.75 119.85L104.65 120.05L104.55 120.25L104.35 120.45L104.25 120.55L104.15 120.85L104.05 120.95L103.85 121.15L103.75 121.35L103.65 121.45L103.45 121.65L103.35 121.85L103.25 122.05L103.15 122.15L102.95 122.35V122.45H102.85L102.75 122.55V122.65L102.65 122.75H102.55H102.45V122.65H102.35V122.55L102.15 122.45L102.05 122.35H101.95H101.85H101.75H101.65H101.55H101.45L101.35 122.45H101.25L101.15 122.55L101.05 122.65M105.45 118.85H105.35V118.95V119.05H105.25H105.15V119.15H105.05V119.05H104.95M101.05 122.65H100.95V122.75H100.85M101.05 122.65L100.85 122.75M101.05 122.65L101.15 122.45L101.25 122.35H101.35L101.45 122.25V122.15H101.55V122.05L101.65 121.85V121.75V121.65L101.75 121.55V121.45L101.85 121.25V121.15V120.95V120.75V120.65V120.45M100.85 122.75L100.75 122.85L100.65 122.95H100.55M100.85 122.75H100.75L100.65 122.85L100.55 122.95M100.55 122.95L100.45 123.05H100.35V123.15H100.25V123.25H100.15V123.35H100.05H99.95H99.85V123.45H99.75L99.65 123.35H99.55H99.45L99.35 123.25H99.25H99.15V123.15H99.25H99.35L99.45 123.05L99.55 122.95V122.85H99.65V122.75H99.75V122.85H99.85V122.95H99.95H100.05H100.15H100.25H100.35H100.45H100.55ZM101.85 120.45V120.25M101.85 120.45V120.35V120.25M101.85 120.45H101.95V120.55V120.65H102.05V120.75H102.15L102.25 120.85H102.35H102.45H102.55H102.65V120.95H102.75V120.85H102.85V120.75H102.95H103.05V120.65H103.15L103.25 120.55H103.35H103.45L103.55 120.45H103.65V120.35H103.75V120.25H103.85V120.15H103.95V120.05H104.05V119.95H104.15V119.85V119.75H104.25M101.85 120.25V120.15M101.85 120.15V119.95V119.85V119.75V119.65M101.85 120.15V120.05H101.95M101.85 119.65H101.75V119.55H101.85V119.65ZM101.85 119.65L101.95 119.75L102.05 119.95M102.05 119.95L102.15 120.05V120.15V120.25V120.35M102.05 119.95H101.95M102.05 119.95L101.95 119.85V119.95M102.15 120.35V120.45L102.05 120.35M102.15 120.35H102.05M102.05 120.35V120.25V120.15H101.95L102.05 120.05H101.95M101.95 120.05V119.95M104.25 119.75V119.65V119.55H104.35M104.25 119.75H104.35V119.65V119.55M104.25 119.75V119.85H104.35H104.45V119.75H104.55V119.65H104.65H104.75V119.55V119.45H104.85V119.35V119.25H104.95V119.15V119.05M104.35 119.55V119.45H104.45V119.35H104.55V119.25H104.65V119.15H104.75M104.95 119.05H104.85M106.55 116.95V116.85M106.65 116.45V116.35M106.85 116.45H106.75M106.85 116.45V116.35M106.85 116.35H106.75M107.15 115.85H107.05M107.15 115.85V115.75H107.25V115.65V115.55H107.35V115.45M107.85 114.35V114.25V114.15M108.15 113.85V113.75M108.55 113.15H108.65M108.55 113.15V113.05H108.65V112.95H108.75V112.85H108.65V112.75H108.75V112.65H108.85V112.55H108.95V112.45M108.95 112.45V112.35M108.95 112.45H108.85H108.75V112.35H108.65L108.55 112.25H108.45V112.15H108.35H108.25V112.25V112.35H108.35V112.45V112.55M108.95 112.35H109.05V112.25V112.15H108.95V112.05H108.85V111.95H108.75V111.85H108.65V111.75H108.55V111.65H108.45H108.35V111.55H108.25H108.15V111.45H108.05H107.95H107.85H107.75V111.55V111.65H107.85H107.95L108.05 111.75V111.85H108.15V111.95H108.25H108.35H108.45M108.95 112.35H108.85V112.25H108.75H108.65V112.15H108.55V112.05H108.45V111.95M108.45 111.95V111.85M108.35 112.55H108.45M108.35 112.55V112.65H108.25H108.15V112.55H108.05V112.45H107.95V112.55H107.85V112.65V112.75M108.45 112.55H108.55M108.45 112.55V112.65M108.55 112.55V112.45M108.55 112.55V112.65M107.85 112.75H107.95V112.85H108.05V112.75M107.85 112.75H107.75V112.85V112.95H107.85V113.05V113.15H107.95V113.25V113.35L108.05 113.45M108.05 113.45H107.95M108.05 113.45V113.55M108.05 113.55V113.65M108.05 113.55H107.95V113.65V113.75V113.85V113.95M107.95 113.95H107.85M107.95 113.95V114.05L107.85 114.15M107.85 113.95V114.05V114.15M107.85 113.95H107.75V113.85V113.75V113.65H107.65V113.55H107.75V113.45H107.65V113.35H107.55M107.55 113.35V113.25M107.55 113.35V113.45H107.45V113.55V113.65V113.75V113.85V113.95M107.45 113.95V114.05M107.45 113.95H107.35V114.05M107.45 114.05V114.15V114.25M107.45 114.05H107.35M107.45 114.25H107.35M107.45 114.25V114.35V114.45M107.35 114.25V114.15M107.35 114.25V114.35V114.45V114.55M107.35 114.05V114.15M107.35 114.15L107.25 114.05V113.95V113.85L107.15 113.75V113.65V113.55L107.05 113.45V113.35V113.25H106.95V113.15V113.05L106.85 112.95V112.85H106.75V112.75L106.65 112.55V112.45H106.55V112.35L106.45 112.25V112.15H106.35V112.05L106.25 111.95L106.15 111.85V111.75H106.05L105.95 111.65V111.55H105.85V111.45H105.75V111.35H105.65V111.25H105.55V111.15H105.45V111.05L105.35 110.95H105.25V110.85H105.15L105.05 110.75L104.95 110.65L104.85 110.55H104.75H104.65V110.45H104.55H104.45V110.35H104.35L104.25 110.25H104.15V110.15H104.05H103.95V110.05H103.85H103.75H103.65H103.55H103.45H103.35H103.25H103.15H103.05H102.95H102.85H102.75H102.65H102.55H102.45H102.35H102.25H102.15H102.05H101.95H101.85L101.75 110.15H101.65H101.55H101.45V110.25H101.35H101.25H101.15V110.35H101.05H100.95V110.45H100.85H100.75V110.55H100.65H100.55L100.45 110.65H100.35H100.25V110.75H100.15H100.05H99.95V110.85H99.85H99.75V110.95H99.65H99.55H99.45H99.35H99.25H99.15H99.05L98.95 110.85H98.85H98.75H98.65V110.75H98.55H98.45L98.35 110.65H98.25H98.15L98.05 110.55H97.95H97.85L97.75 110.45H97.65H97.55L97.45 110.35H97.35H97.25H97.15H97.05V110.25H96.95H96.85H96.75H96.65H96.55H96.45L96.35 110.15H96.25H96.15H96.05H95.95H95.85H95.75H95.65H95.55H95.45V110.25H95.35H95.25H95.15H95.05H94.95H94.85H94.75V110.35H94.65H94.55H94.45H94.35L94.25 110.45H94.15H94.05H93.95H93.85H93.75H93.65H93.55V110.55H93.45H93.35H93.25H93.15H93.05H92.95H92.85H92.75H92.65H92.55V110.65H92.45V110.55H92.35V110.65H92.25H92.15H92.05H91.95H91.85H91.75H91.65H91.55H91.45H91.35H91.25H91.15H91.05V110.75H90.95H90.85H90.75H90.65H90.55H90.45V110.85H90.35H90.25H90.15H90.05V110.95H89.95V111.05H89.85H89.75H89.65L89.55 111.15H89.45V111.05H89.35V111.15H89.25H89.15V111.25H89.05H88.95L88.85 111.35H88.75V111.45H88.65H88.55H88.45H88.35V111.55H88.25V111.65H88.15H88.05V111.75H87.95V111.85H87.85H87.75V111.95H87.65H87.55H87.45H87.35H87.25V112.05H87.15V112.15H87.05V112.25H86.95H86.85V112.35H86.75V112.45H86.65V112.55H86.55V112.65H86.45V112.75H86.35V112.85L86.15 112.95V113.05H86.05V113.15H85.95L85.85 113.25H85.75V113.35H85.65V113.45H85.55H85.45V113.55H85.35H85.25V113.65H85.15H85.05V113.75H84.95H84.85V113.85H84.75L84.65 113.95H84.55L84.45 114.05H84.35V114.15H84.25H84.15V114.25H84.05H83.95V114.35H83.85H83.75V114.45H83.65H83.55H83.45V114.55H83.35H83.25L83.15 114.65H83.05V114.75H82.95H82.85L82.75 114.85H82.65H82.55V114.95H82.45H82.35V115.05H82.25H82.15V115.15H82.05H81.95V115.25H81.85H81.75V115.35H81.65H81.55V115.45H81.45H81.35V115.55H81.25V115.65H81.15H81.05V115.75H80.95V115.85H80.85L80.75 115.95H80.65V116.05H80.55H80.45V116.15H80.35H80.25V116.25H80.15V116.35H80.05V116.45H79.95V116.55V116.65H79.85V116.75L79.75 116.85V116.95H79.65L79.55 117.15H79.45L79.35 117.35H79.25H79.15V117.45L79.05 117.55V117.65H78.95V117.75H78.85L78.75 117.85V117.95L78.65 118.05L78.55 118.15V118.25H78.45V118.35H78.35V118.45V118.55H78.25V118.65H78.15V118.75L78.05 118.85V118.95H77.95V119.05H77.85V119.15L77.75 119.25V119.35H77.65V119.45H77.55V119.55H77.45V119.65L77.35 119.75L77.25 119.85L77.15 119.95L77.05 120.15L76.95 120.25L76.85 120.35V120.45H76.75V120.55H76.65V120.65H76.55V120.75H76.45V120.85L76.35 120.95L76.25 121.05H76.15V121.15H76.05V121.25L75.95 121.35H75.85V121.45H75.75V121.55H75.65V121.65H75.55V121.75H75.45V121.85H75.35V121.95H75.25V122.05H75.15V122.15H75.05V122.25H74.95V122.35H74.85V122.45H74.75V122.55H74.65H74.55V122.65L74.45 122.75H74.35V122.85H74.25V122.95H74.15V123.05H74.05V123.15H73.95V123.25H73.85H73.75V123.35H73.65V123.45H73.55V123.55H73.45V123.65H73.35H73.25V123.75H73.15V123.85H73.05H72.95V123.95H72.85V124.05H72.75H72.65V124.15H72.55H72.45V124.25H72.35V124.35H72.25H72.15L72.05 124.45H71.95L71.85 124.55H71.75H71.65L71.55 124.65H71.45H71.35H71.25H71.15V124.75H71.05H70.95V124.85H70.85H70.75V124.95H70.65H70.55V125.05H70.45H70.35V125.15H70.25V125.25H70.15V125.35H70.05H69.95V125.45H69.85V125.55H69.75H69.65V125.65H69.55H69.45V125.75H69.35H69.25H69.15V125.85H69.05H68.95V125.95H68.85H68.75L68.65 126.05H68.55H68.45H68.35H68.25V126.15H68.15H68.05H67.95V126.25H67.85H67.75H67.65H67.55V126.35H67.45H67.35H67.25V126.45H67.15L67.05 126.55H66.95V126.65H66.85H66.75V126.75H66.65V126.85H66.55V126.95H66.45V127.05H66.35V127.15H66.25V127.25H66.15V127.35H66.05V127.45H65.95V127.55H65.85V127.65H65.75V127.75V127.85H65.65V127.95H65.55V128.05H65.45V128.15V128.25H65.35L65.25 128.45L65.15 128.55L65.05 128.65H64.95V128.75L64.85 128.85V128.95H64.75V129.05H64.65V129.15L64.55 129.25V129.35H64.45V129.45H64.35V129.55H64.25V129.65H64.15V129.75V129.85H64.05V129.95H63.95V130.05V130.15H63.85V130.25L63.75 130.35V130.45H63.65V130.55H63.55V130.65H63.45V130.75V130.85H63.35V130.95H63.25V131.05V131.15H63.15V131.25H63.05V131.35H62.95V131.45V131.55H62.85V131.65H62.75V131.75V131.85H62.65V131.95H62.55V132.05L62.45 132.15L62.35 132.25V132.35H62.25V132.45L62.15 132.55V132.65H62.05V132.75L61.95 132.85V132.95H61.85V133.05H61.75V133.15V133.25H61.65V133.35H61.55V133.45V133.55H61.45V133.65H61.35V133.75V133.85H61.25V133.95L61.15 134.05V134.15L61.05 134.25V134.35L60.95 134.45V134.55L60.85 134.65V134.75L60.75 134.85V134.95H60.65V135.05H60.55V135.15V135.25H60.45V135.35L60.35 135.45V135.55H60.25V135.65H60.15V135.75V135.85H60.05V135.95V136.05H59.95V136.15V136.25H59.85V136.35L59.75 136.45V136.55H59.65V136.65V136.75H59.55V136.85L59.45 136.95V137.05H59.35V137.15H59.25V137.25H59.15V137.35H59.05V137.45H58.95V137.55H58.85V137.65L58.75 137.75V137.85L58.65 137.95V138.05H58.55V138.15L58.45 138.25V138.45H58.35V138.55V138.65H58.25V138.75V138.85H58.15V138.95L58.05 139.05V139.15L57.95 139.25L57.85 139.45L57.75 139.65L57.65 139.85L57.55 139.75H57.25L56.95 139.55L56.45 139.35L56.15 139.15L55.75 138.95L54.45 138.35L53.95 138.25L53.25 138.05L52.65 137.85L52.15 137.65L50.85 137.35L50.35 137.25L49.15 137.05L48.85 137.15H48.65H48.55H48.15H47.95L47.35 137.25L47.25 136.85V136.65V136.35V136.25L47.15 135.85V135.45H47.05V135.25V135.15L47.15 135.05L47.05 134.85V134.75L46.95 134.65V134.55V134.35V134.15L46.85 133.85V133.55V133.45V133.15L46.65 131.95L46.55 131.75L47.05 131.65H47.15L47.25 131.45L47.15 131.25V130.85L47.05 130.15V130.05L46.95 129.35V128.95V128.55L46.85 128.15V128.05H46.75V127.75L46.65 127.35L46.55 126.55V126.35V126.25L46.45 125.55V125.25V125.05L46.35 124.65V123.95H46.25L45.65 124.05H45.45L44.85 124.15H44.75L44.65 124.05H44.45L44.05 123.85V123.75H43.85L42.95 123.25L42.35 122.95L41.75 122.65L41.65 122.55H41.55V122.45L41.25 122.35H41.15H41.05V122.25V122.15V122.05V121.95L40.95 121.65V121.75H40.75L40.15 121.85L39.35 121.95L38.25 122.05L38.15 122.15V122.05L37.95 121.05V120.75L37.85 119.95L37.95 119.85H38.25H38.35V119.55L38.25 118.55L38.15 118.05V117.95H37.95H37.65L37.35 118.05L35.25 118.35L33.35 118.65H33.25L31.35 118.95V118.85V118.55L31.25 118.05H31.15L31.05 117.35L30.95 116.45L30.35 116.55L29.65 116.65L29.55 116.15L29.15 113.75L30.55 113.45L31.35 113.25L31.25 112.75V112.35V112.15L31.15 111.85V111.75V111.55L31.05 111.05V110.75V110.55V110.45L30.95 110.35V110.15V109.85L30.85 109.75V109.35V109.15L30.35 109.25H30.25L29.55 109.35L28.45 109.45V109.55H28.05L27.75 109.65H27.65V109.45V109.25L27.55 108.55L26.95 108.65H26.85L25.55 108.85H25.35H25.05V108.75L24.95 107.65L24.85 107.25V107.15L24.75 106.15L25.85 106.05L26.15 105.95H26.55L26.45 105.25V104.95L27.35 104.85L28.35 104.65H28.75L29.95 104.45H30.25V103.75L30.75 103.65H30.95H31.05V102.75V101.95H31.95L31.85 101.45L31.75 101.25L31.65 100.35V100.25V100.15L31.55 99.85V99.65V99.55L31.45 99.35V99.25V99.15V99.05V98.95V98.85L32.05 98.75L33.85 98.55L34.35 98.45H34.45L34.25 98.15H34.15V97.65L34.05 97.05V96.65L33.95 95.85L33.85 95.35L33.75 94.55V94.45L33.25 94.55L31.85 94.65H31.15V94.55V94.45L31.05 94.05V93.55L30.95 92.75L30.85 92.35V91.95L30.65 90.65L30.45 89.45L30.35 88.65H30.15L29.95 88.75H29.55L28.95 88.85L28.55 88.95L27.95 89.05H27.85V88.95L27.75 88.15L27.55 87.35L26.95 87.45L26.15 87.55L25.55 87.65L25.45 87.75H25.15H24.65L24.55 86.95L24.45 86.45V86.25H24.15L23.95 86.35H23.85L23.45 86.45V86.35L23.35 85.85L23.25 84.85L23.15 84.55L23.05 83.95V83.85H22.95L21.85 83.95L21.75 83.75V83.25L21.65 82.65L21.55 81.95V81.85L21.25 79.45L21.05 78.35V78.25H21.15V77.95H21.05H20.95H20.65H20.45L20.25 78.05H20.15H19.35V77.25L19.25 77.05L19.15 76.35L18.95 74.95L18.75 73.35V73.15V73.05L18.65 72.75V72.65L18.55 71.85L18.35 70.75L18.25 70.15L18.15 69.55V69.45L18.05 68.55L17.95 67.55L18.15 67.45H18.45H18.55L18.65 67.35H18.75H18.95H19.05L19.15 67.25H19.25H19.35H19.45V67.15L19.65 67.25H19.75L19.95 67.15V66.95L19.85 66.75V66.35L19.75 66.15V65.95H19.55L19.45 65.55V65.35L19.35 64.95V64.75L19.15 64.85L18.35 64.95L17.85 65.05L17.65 64.35L17.55 63.35L17.35 62.45H17.55L18.15 62.35H18.25L18.55 62.25H18.85H18.95H19.05L19.15 62.15H19.25L19.15 62.05V61.95V61.85V61.75H19.05L18.95 61.65H18.85H18.75L18.85 61.55V61.45M107.45 114.45H107.55M107.45 114.45V114.55H107.35M107.35 114.55V114.65V114.75M107.35 114.75V114.85H107.45V114.95V115.05H107.35M107.35 114.75L107.25 114.85V114.95V115.05M107.35 115.05V115.15M107.35 115.05V114.95M107.35 115.05H107.25M107.25 115.05V115.15M107.25 115.15V115.25V115.35H107.15M107.25 115.15H107.15V115.25V115.35M107.15 115.35V115.45M107.15 115.45V115.55H107.05L107.15 115.45ZM18.85 61.45H18.75" stroke="white" stroke-width="0.5" stroke-linecap="round" stroke-linejoin="round"/>
</svg>
