<svg width="107" height="141" viewBox="0 0 107 141" fill="none" xmlns="http://www.w3.org/2000/svg">
<path d="M51.55 122.05V121.95L51.65 121.85V121.75L51.55 121.65V121.55V121.45V121.35H51.65V121.25L51.75 121.15V121.05V120.95V120.85V120.75V120.65V120.55V120.45V120.35H51.85V120.25V120.15H51.75L51.85 120.05V119.95V119.85H51.95V119.75H52.05H52.15V119.65H52.05V119.55L51.95 119.45V119.35V119.25H52.05V119.15V119.05V118.95H52.15V118.85V118.75V118.65V118.55H52.25V118.45V118.35H52.35V118.25V118.15H52.45V118.05H52.55V117.95H52.65V117.85H52.75L52.85 117.75V117.65H52.95V117.55V117.45L53.05 117.35V117.25H53.15V117.15L53.25 117.05L53.35 116.95H53.45V116.85H53.55H53.65H53.75L53.85 116.95H53.95V116.85H54.05L54.15 116.75V116.65V116.55H54.25L54.35 116.45L54.55 116.25L54.65 116.15H54.75H54.85V116.05V115.95H54.75V115.85V115.75V115.65V115.55H54.65V115.45V115.35H54.55V115.25V115.15V115.05V114.95H54.45V114.75H54.35V114.65H54.25V114.55H54.15V114.45H54.05V114.35H53.95V114.25V114.15L53.85 114.05V113.95H53.75L53.65 113.85V113.75V113.65L53.55 113.45L53.45 113.35V113.25L53.35 113.05L53.25 112.95V112.85H53.15L52.95 112.75H52.85H52.75V112.65H52.65V112.55H52.55V112.45V112.35L52.45 112.25H52.35V112.15H52.25L52.15 112.05V111.95H52.05V111.85H51.95L51.85 111.75H51.75H51.65V111.65H51.55L51.45 111.75L51.35 111.65L51.25 111.55V111.45H51.35V111.35V111.25V111.15V111.05H51.25V110.95V110.85H51.15V110.75H51.05V110.65H50.95H50.85V110.55H50.75V110.65L50.65 110.55H50.55H50.45L50.35 110.45H50.25V110.35H50.15H50.05H49.95V110.25V110.15V110.05L50.05 109.95V109.85V109.75V109.65L49.95 109.55V109.45L49.85 109.35H49.75V109.25V109.15H49.65V109.05V108.95V108.85H49.55V108.75L49.35 108.65V108.55H49.25L49.15 108.45L49.05 108.35V108.25H48.95H48.85L48.65 108.15V108.05H48.55V107.95V107.85V107.75L48.45 107.65V107.55V107.45V107.35H48.55L48.65 107.25V106.95H48.75L49.15 106.65H49.25V106.55L49.45 106.25H49.35L49.25 106.05L49.15 105.95V105.85H49.05L48.95 105.65V105.55H49.05L49.25 105.45V105.35H49.35V105.25L49.45 105.15L49.55 105.05V104.95H49.65V104.85V104.75V104.65H49.55V104.55H49.45V104.45H49.55H49.65V104.35V104.25H49.75V104.15V103.95L49.85 103.75V103.65H49.95V103.55H50.05H50.15H50.25H50.35V103.45H50.45H50.55L50.65 103.35V103.25V103.15H50.55L50.45 102.95L50.35 102.75V102.65V102.55H50.25V102.45H50.15L50.05 102.35L49.95 102.25L49.75 102.05L49.55 101.95V101.85L49.45 101.75H49.35H49.25V101.65H49.05H48.85L48.75 101.55H48.65L48.55 101.45L48.45 101.35H48.35H48.25H48.15L48.05 101.25H47.95H47.85H47.75H47.65V101.15L47.55 101.05V100.95V100.85L47.65 100.65L47.75 100.55V100.45V100.35V100.25V100.15V100.05V99.95H47.85V99.85V99.75V99.65V99.55H47.75V99.45V99.35V99.25L47.85 99.15V99.05H47.95L47.85 98.95V98.85V98.75V98.65V98.55V98.45H47.75H47.65V98.35H47.55V98.25L47.45 98.15L47.35 98.25H47.25H47.15V98.15V98.05H47.05V97.95H46.95V97.85H46.85V97.75V97.65H46.75H46.65H46.55V97.55H46.45H46.35V97.45V97.35V97.25V97.15H46.25V97.05H46.15H46.05H45.95V96.95H45.85V96.85H45.75H45.65V96.75V96.65H45.55V96.55L45.45 96.45H45.35V96.35V96.25V96.15V96.05H45.25V95.95L45.15 95.85V95.95H45.05H44.95L44.85 95.85L44.75 95.75L44.85 95.65H44.75V95.55H44.65V95.45V95.35H44.55V95.25L44.45 95.15H44.35L44.25 95.05L44.15 94.95V94.85V94.75L44.25 94.65V94.55H44.15H44.05H43.95H43.85L43.75 94.45H43.65L43.55 94.35V94.25H43.45L43.35 94.35H43.25H43.15H43.05L42.95 94.25V94.15V94.05V93.95H42.85V93.85V93.75H42.75H42.65V93.65V93.55H42.55H42.45L42.35 93.45H42.25V93.35H42.15L42.05 93.25L41.95 93.15H41.85V93.25H41.75H41.65H41.55L41.45 93.15H41.35V93.05H41.25V92.95H41.15V92.85V92.75L41.05 92.65V92.55V92.45H40.95V92.35V92.25V92.15V92.05V91.95V91.85L41.05 91.75V91.65V91.55H41.15L41.25 91.45V91.35V91.25H41.15V91.15L41.05 91.05V90.95H40.95V90.85H40.85V90.75H40.75H40.65H40.55V90.65V90.55V90.45H40.45H40.35H40.25H40.15V90.35H40.05V90.25H39.95L39.85 90.15L39.75 90.25H39.65H39.55H39.45V90.15H39.35H39.25V90.05H39.15V89.95V89.85H39.05H38.95L38.85 89.75H38.75H38.65V89.65H38.55L38.45 89.55H38.35H38.25H38.15H38.05L37.95 89.45L37.85 89.35H37.75L37.55 89.25H37.45V89.35L37.55 89.45V89.55V89.65V89.75L37.45 89.85V89.95H37.35V90.05V90.15H37.45V90.25V90.35H37.55V90.45H37.65V90.55V90.65V90.75H37.75V90.85L37.65 90.95H37.55L37.45 91.05V91.15V91.25V91.35H37.35L37.15 91.45L37.05 91.55L36.95 91.65V91.75L37.05 91.95L36.95 92.05H36.85V92.15H36.75V92.25H36.65V92.35V92.45H36.75V92.55L36.65 92.65L36.55 92.85H36.45L36.35 92.95V93.05L36.25 93.15H36.15L35.95 93.05L35.85 92.95V92.85L35.75 92.65H35.65V92.55H35.35H35.25H35.15H35.05L34.95 92.65H34.75L34.65 92.75L34.35 92.55L34.15 92.45L33.95 92.25L33.85 92.05H33.75H33.65H33.55V92.15H33.45H33.35H33.25L33.15 92.05H33.05L32.95 91.95H32.85H32.75H32.65V92.05H32.55L32.45 92.15L32.35 92.05H32.25L32.15 91.95V91.85V91.75L32.25 91.55V91.45V91.35V91.25H32.15H32.05H31.95H31.85H31.75V91.15H31.65L31.55 91.05V90.95V90.85V90.75V90.65H31.45H31.35V90.55H31.25L31.05 90.45H30.95H30.85V90.35H30.75V90.25H30.65V90.15V90.05V89.95L30.75 89.85V89.75V89.65V89.55H30.85V89.45V89.35V89.25L30.75 89.15L30.65 89.05L30.55 88.95L30.45 88.85H30.35V88.75H30.25V88.65L30.35 88.55V88.45V88.25H30.45V88.15V88.05V87.95H30.55V87.85V87.75L30.45 87.45L30.35 87.15V87.05L30.45 86.95V86.85V86.75L30.35 86.65H30.25V86.55H30.15H30.05H29.95V86.45H29.85V86.35L29.75 86.25V86.15V86.05V85.95H29.65V85.85L29.55 85.75H29.65V85.65V85.55V85.45L29.55 85.35H29.45V85.25H29.55V85.15L29.65 84.95L29.55 84.75L29.45 84.65V84.45V84.35L29.55 84.15V84.05V83.95H29.65H29.75V83.85V83.75L29.95 83.65L30.05 83.45L30.25 83.25V83.15H30.15V83.05H30.05V82.95L29.95 82.85H29.85L29.75 82.75V82.65H29.65V82.55H29.55V82.45V82.35H29.45L29.25 82.25L29.05 82.05H28.95V81.95V81.85V81.75H29.05V81.65H29.15V81.55V81.45H29.25V81.35H29.35V81.25V81.15V81.05V80.95V80.85V80.75H29.45V80.65H29.55V80.55H29.65V80.45V80.35H29.75V80.25V80.15H29.85V80.05V79.95V79.85L29.95 79.75H29.85V79.65V79.55L29.75 79.45H29.65L29.55 79.25L29.45 79.15H29.35H29.25H29.15H29.05H28.95H28.85L28.75 79.25L28.65 79.35L28.55 79.45V79.55L28.45 79.65H28.35V79.75V79.85H28.25H28.15H28.05H27.95L27.85 79.75H27.75L27.65 79.65V79.75V79.85V79.95V80.05V80.15V80.25H27.55V80.35H27.45V80.45H27.35H27.25L27.15 80.55V80.65V80.75H27.05H26.95L26.85 80.65L26.75 80.55V80.45H26.65H26.55H26.45L26.35 80.55V80.65H26.25H26.15H26.05V80.75H25.95H25.85L25.75 80.85H25.65H25.55H25.45V80.95V81.05H25.35V81.15H25.25V81.25V81.35H25.15V81.45H25.05V81.55H24.95V81.65H24.85V81.75H24.75V81.65H24.65H24.55V81.55H24.45V81.45H24.35L24.25 81.35H24.15L24.05 81.45V81.35H23.95L23.85 81.45H23.75H23.65V81.55H23.55V81.45H23.45V81.35L23.35 81.25L23.25 81.35H23.15V81.45H23.05V81.55H22.95V81.65H22.85V81.75V81.85V81.95H22.75V82.05H22.65V82.15V82.25V82.35V82.45V82.55H22.55V82.65H22.45V82.75L22.35 82.95V83.05H22.25V83.15V83.25H22.15V83.35H22.05H21.95V83.45H21.85V83.55V83.65V83.75H21.95V83.85V83.95H22.05V84.05H22.15V84.15V84.25L22.25 84.35H22.15V84.45L22.05 84.55H21.95H21.85V84.65H21.75L21.65 84.75V84.85H21.55L21.45 84.95H21.35H21.25H21.15V84.85H21.05H20.95H20.85H20.75L20.65 84.75H20.55V84.65H20.45V84.55L20.35 84.65H20.25H20.15L20.05 84.55H19.95H19.85V84.45H19.75H19.55H19.45H19.35V84.35H19.25V84.25H19.15V84.15L19.05 84.05H18.95L18.85 83.95L18.75 83.85V83.75L18.65 83.65V83.55V83.45L18.55 83.35V83.25V83.15V83.05V82.95L18.65 82.85H18.75V82.75H18.85V82.65V82.55H18.95V82.45L19.05 82.35L19.15 82.25L19.05 82.15V82.05V81.95V81.85V81.75V81.65V81.55V81.45L18.95 81.35V81.25V81.15H19.05V81.05H19.15V80.95H19.25L19.35 80.85V80.75V80.65V80.55V80.45H19.25V80.35H19.15V80.25V80.15L19.25 80.05L19.15 79.95V79.85H19.05V79.75L19.15 79.65V79.55L19.05 79.45L18.95 79.35H18.85V79.25V79.15V79.05H18.95H19.05V78.95V78.85V78.75V78.65V78.55L19.15 78.45V78.35H19.25L19.35 78.25H19.45V78.15H19.55V78.05V77.85V77.75H19.45H19.35L19.25 77.65H19.15H19.05H18.95L18.85 77.55H18.75V77.45V77.35L18.65 77.25L18.55 77.15V77.05H18.45L18.35 77.15L18.25 77.25H18.15V77.35H18.05H17.95V77.45L17.85 77.55H17.75V77.65H17.65H17.55V77.55H17.45V77.65H17.35H17.25V77.75H17.15V77.65H17.05V77.55H16.95H16.85H16.75L16.65 77.45H16.55L16.45 77.55V77.65H16.35H16.25V77.75H16.15H16.05H15.95L15.85 77.65L15.55 77.35L15.25 76.95H15.15V76.85H15.05V76.75H14.95H14.85V76.65H14.75V76.55V76.45L14.85 76.35V76.25V76.15V76.05H14.75V75.95H14.85V75.85V75.75L14.75 75.65H14.65L14.55 75.75H14.25H14.15H14.05L13.95 75.65H13.85H13.65H13.55V75.55H13.45L13.35 75.65H13.25V75.55V75.45V75.35V75.25H13.15V75.15H13.05V75.05H12.95H12.85V74.95L12.75 74.85L12.65 74.75V74.65V74.55V74.45H12.75L12.85 74.35V74.25V74.15H12.95V74.05H12.85H12.75H12.65V73.95H12.55V73.85H12.45V73.75V73.65V73.55V73.45V73.35V73.25V73.15L12.55 73.05H12.65H12.75V72.95V72.85V72.75H12.85V72.65L12.95 72.55H12.85V72.45V72.35V72.25V72.15V72.05V71.95L12.75 71.85H12.85H12.95V71.75V71.65L12.85 71.55V71.45L12.75 71.35V71.25H12.65V71.15H12.55V71.05H12.45H12.35H12.25V70.95H12.15V70.85H12.05H11.95L11.85 70.95H11.75V71.05H11.65V70.95H11.55V70.85L11.45 70.75L11.35 70.65H11.25L11.15 70.75H11.05H10.95H10.85H10.75V70.65H10.65H10.55H10.45H10.35V70.55H10.25V70.65H10.15V70.75V70.85H10.05V70.95H9.95V71.05H9.85V71.15H9.75V71.25H9.65H9.55H9.45H9.35H9.25H9.15H9.05H8.95H8.85H8.75H8.65H8.55H8.45L8.35 71.15H8.25V71.05H8.15V70.95H8.05V70.85H7.95L7.85 70.75H7.75L7.65 70.65H7.45V70.55H7.35V70.45V70.35H7.25V70.25V70.15H7.15V70.05V69.95V69.85H7.05V69.75H6.95V69.65L6.85 69.55V69.45V69.35L6.75 69.25V69.15H6.65V69.05H6.55H6.45H6.35H6.25V68.95H6.15V68.85V68.75V68.65L6.05 68.55H5.95H5.85V68.45H5.75V68.35V68.25H5.65V68.15H5.55V68.05H5.45H5.35V67.95H5.25V67.85H5.15H5.05V67.75H4.95H4.85V67.65L4.95 67.55V67.45V67.35H5.05V67.25H4.95V67.15V67.05H4.85V66.95V66.85L4.95 66.75V66.65V66.55H4.85V66.45H4.75V66.35H4.65V66.25L4.55 66.15H4.45L4.35 66.05H4.25H4.15H4.05H3.95H3.85H3.75V66.15V66.25H3.65V66.15H3.55L3.45 66.05H3.35H3.25H3.15V66.15H3.05H2.95V66.05H2.85V65.95V65.85V65.75L2.75 65.65L2.65 65.55V65.45V65.35V65.25V65.15H2.55L2.45 65.05H2.35V65.15H2.25V65.05H2.15V64.95H2.05L1.95 64.85H1.85V64.75H1.75L1.65 64.65H1.55H1.45H1.35H1.25H1.15H1.05L0.949997 64.55L0.849998 64.65H0.75H0.650002H0.550003H0.449997L0.349998 64.55V64.45V64.35V64.25H0.449997V64.15V64.05V63.95V63.85V63.75V63.65V63.55H0.349998H0.25V63.45V63.35H0.349998V63.45H0.449997H0.550003V63.35L0.650002 63.25V63.15L0.75 63.05V62.95V62.85V62.75V62.65V62.55V62.45H0.849998V62.35V62.25V62.15H0.949997V62.05L1.05 61.95V61.85V61.75V61.65V61.55H1.15V61.45H1.25V61.35L1.35 61.25V61.15V61.05H1.45V60.95V60.85H1.55V60.75H1.65V60.65H1.75V60.55H1.85V60.45V60.35H1.75L1.85 60.25V60.15L1.95 60.05V59.95L1.85 59.85H1.75V59.75H1.65V59.65V59.55V59.45H1.55V59.35L1.45 59.15V59.05V58.95V58.85V58.75V58.65L1.55 58.55H1.45V58.45L1.35 58.35L1.25 58.25H1.15V58.15V58.05H1.05V57.95L0.949997 57.85L0.849998 57.75V57.55V57.45L0.75 57.35V57.25L0.550003 57.15L0.75 56.95L0.949997 56.85L1.15 56.65H1.25V56.55V56.35V56.25H1.35L1.45 55.95V55.85V55.75L1.35 55.65V55.55H1.45V55.45H1.55L1.65 55.35H1.75V55.25H1.65L1.55 54.95L1.45 54.75V54.65H1.55V54.55V54.35L1.65 54.15L1.75 53.95V53.85V53.75H1.85V53.65L1.95 53.55H2.05V53.45V53.35H2.15H2.25H2.35L2.55 53.45H2.65L2.75 53.35H2.85L2.95 53.25H3.35V53.15V52.95V52.85V52.75V52.65V52.55H3.25L3.05 52.45H2.85H2.75L2.65 52.55H2.55H2.45H2.35V52.45L2.05 52.35V52.25H1.95H1.85V52.15L1.75 52.05L1.65 51.85V51.75V51.65H1.55L1.65 51.55V51.45V51.35L1.55 51.25V51.15L1.45 51.05L1.35 50.85L1.25 50.65V50.55H1.15V50.45V50.35V50.15V50.05L1.25 49.95V49.85L1.35 49.75V49.65L1.45 49.15L1.65 48.85V48.75L1.75 48.55L1.85 48.35L1.95 48.15V48.05L2.05 47.85L2.15 47.75V47.65V47.55L2.25 47.35V47.15V46.95V46.85L2.15 46.75H2.05L1.95 46.65V46.55V46.45V46.35V46.25H1.85V46.15H1.75L1.55 46.05L1.45 45.95H1.35V45.85V45.75L1.25 45.65V45.55V45.45H1.35V45.35H1.45L1.55 45.25L1.65 45.15L1.75 45.05H1.85V44.95L1.95 44.85L2.05 44.75V44.65H2.15V44.55H2.25L2.35 44.45V44.35H2.45V44.25L2.55 44.15L2.65 43.95V43.85L2.75 43.75L2.85 43.65L2.95 43.55V43.45H3.05H3.15H3.25V43.35H3.35L3.55 43.15H3.65V43.05L3.75 42.95L3.85 42.85L4.05 42.65L4.15 42.55L4.25 42.45H4.15V42.35V42.25V42.15V42.05V41.95H4.05V41.85V41.75V41.65V41.55H4.15H4.25L4.35 41.45H4.45L4.55 41.35H4.65V41.25L4.75 41.15V41.05H4.85L5.05 41.15V41.25V41.35V41.45H5.15V41.55L5.25 41.65L5.35 41.75H5.45H5.55H5.65V41.65L5.75 41.55V41.45H5.85L5.95 41.55H6.05L6.15 41.45L6.25 41.35V41.25H6.35V41.15L6.45 40.95L6.55 40.85H6.65V40.75V40.65V40.55V40.45V40.35H6.75H6.85V40.25L6.95 40.15V40.05V39.95V39.85V39.75V39.65H6.85V39.55H6.95V39.45V39.35V39.25V39.15L7.05 38.85L7.15 38.75V38.65L7.25 38.55L7.35 38.45H7.45V38.35V38.25H7.35V38.15H7.25V38.05H7.15L7.05 37.95H6.95V37.85L6.85 37.75H6.95V37.65L7.15 37.45V37.35V37.25H7.25V37.15L7.35 37.05V36.95H7.25V36.85V36.75L7.35 36.65V36.55L7.45 36.45L7.55 36.35V36.25V36.15L7.65 36.05H7.75H7.85V35.95L7.95 35.85V35.75H8.05L8.35 35.95L8.45 35.85V35.75H8.55V35.65L9.05 36.25L9.15 36.15H9.25H9.35V36.05L9.55 35.95L9.75 35.75L9.95 35.55V35.15V35.05L10.15 34.95L10.35 34.85V34.75H10.45L10.55 34.65H10.65L10.75 34.55V34.45V34.35V34.25V34.15V33.95H10.95H11.15L11.45 34.25L11.65 34.45L11.75 34.55L11.95 34.45L12.05 34.35H12.15V34.25H12.25V34.35H12.35L12.45 34.45L12.55 34.55L12.65 34.65L12.75 34.75L12.85 34.95V35.05L12.95 35.15V35.25H13.05L13.15 35.35V35.25H13.25H13.35L13.45 35.15L13.55 35.05H13.75H13.85H14.05H14.15H14.25V34.95H14.35V34.85H14.45V34.75H14.55H14.65L14.85 34.85H15.15H15.55L15.85 34.95L16.55 35.05H16.65L17.05 35.15L17.25 35.25H17.35L17.45 35.35H17.55L18.05 35.65L18.15 35.75L18.45 35.85L18.55 35.65L18.65 35.55V35.45L18.75 35.15L18.85 35.05H18.95V34.95L19.25 34.75L19.35 34.65L19.45 34.55H19.55V34.45H19.65V34.35L19.75 34.25V34.15H19.85L20.05 34.05L20.25 33.95L20.35 33.75H20.45L20.95 33.55H21.05V33.45L21.15 33.35L21.25 33.25V33.15H21.35L21.45 33.05V32.95H21.55V32.85L21.65 32.75H21.75H21.85L21.95 32.85H22.05H22.15L22.25 32.95L22.35 33.05V33.15H22.45L22.55 33.25H22.65L22.85 33.35H23.05L23.15 33.45H23.35L23.45 33.55V33.45L23.55 33.55H23.65V33.65H23.75V33.75V33.85H23.85V33.95V34.05V34.15H23.75V34.25L23.85 34.35V34.45H23.95L24.15 34.55H24.25L24.35 34.45L24.45 34.35L24.55 34.15L24.65 34.05L24.85 33.85H24.95L25.15 33.75V33.65L25.25 33.55L25.35 33.45V33.35H25.45V33.25L25.55 33.15L25.65 32.95L25.75 32.75L25.85 32.65L25.95 32.35L26.15 32.15L26.35 32.25H26.45H26.55H26.65H26.75H26.85H26.95H27.05H27.15V32.35H27.25L27.35 32.25V32.15H27.45V32.05L27.65 32.15L27.75 32.25H27.85L28.15 32.35H28.25V32.45L28.45 32.55L28.55 32.65H28.65L28.85 32.75H29.05L29.15 32.85H29.25H29.35H29.45H29.55L29.75 32.75H29.85H30.05L30.15 32.65L30.25 32.75H30.35V32.85V32.95H30.45V33.05L30.55 33.15L30.65 33.25V33.35V33.45L30.75 33.55L30.85 33.65H30.95H31.05V33.75H31.15H31.25H31.35L31.55 33.65V33.45L31.45 33.05L31.55 32.95V32.85L31.65 32.75V32.65H31.75L31.85 32.45H31.95H32.15H32.35V32.55H32.45L32.55 32.65H32.65H32.75V32.75L32.85 32.85H32.95L33.05 32.95V32.85L33.15 32.75L33.35 32.55L33.65 32.25L33.55 32.15L33.65 32.05H33.75L33.85 32.15H33.95L34.25 32.35H34.35H34.45L34.75 32.45L34.95 32.35H35.05L35.45 32.05V31.95L35.55 31.85L35.65 32.05L35.75 31.95V31.85H35.85V31.75L36.05 31.65L36.15 31.45H36.35V31.35L36.45 31.25L36.65 31.05L37.15 30.75L37.35 30.55H37.45H37.55H38.05L38.15 30.45H38.25H38.35H38.45L38.65 30.35H38.75L38.85 30.25H38.95V30.15H39.05H39.15H39.25V30.05L39.45 29.95H39.55L39.75 29.85V29.75H39.85H39.95V29.65H40.05H40.15H40.25H40.35L40.45 29.55H40.55H40.65L40.75 29.65H40.85V29.55H40.95H41.05V29.45L41.15 29.15H41.45H41.55V29.05H41.85H41.95L42.15 28.95H42.55L42.65 29.25H42.75L42.85 29.45L42.95 29.55L43.05 29.65L43.25 29.75V29.85L43.35 29.95L43.45 30.05L43.65 30.15L43.85 30.25L44.05 30.35V30.45L44.15 30.55H44.25V30.45H44.35H44.55V30.35H44.65H44.75V30.25H44.95L45.05 30.15H45.15V30.05L45.25 29.95V29.85H45.05V29.75L45.15 29.55V29.45V29.35V29.25H45.05V29.15V29.05L44.95 28.95V28.85V28.75L45.05 28.65V28.55L45.15 28.45L45.25 28.35V28.15H45.35V28.05L45.25 27.95V27.85L45.15 27.65V27.55H45.25L45.35 27.35L45.55 27.15H45.45V27.05H45.35V26.95V26.85H45.55H45.65L45.55 26.55V26.45V26.35L45.65 26.05L45.75 25.95L45.85 25.75V25.65L45.65 25.75H45.55H45.45H45.35L45.25 25.65L45.15 25.55H45.05H44.95H44.85H44.75L44.55 25.65L44.35 25.75H44.05L43.85 25.85H43.65L43.45 25.95H43.25H43.05H42.85H42.75H42.65L42.55 25.85L42.45 25.75H42.35H42.25L42.15 25.65H41.95H41.85H41.75H41.65H41.55H41.45L41.35 25.55H41.25H41.15V25.45H41.05H40.95V25.55H40.85H40.75H40.65V25.45H40.55V25.25V25.15L40.45 24.95L40.35 24.85L40.45 24.75H40.55L40.65 24.15L40.75 23.95H40.85H40.95V23.85V23.75V23.65V23.25L41.05 23.15L40.95 22.95V22.85L41.05 22.55H41.35L41.45 22.35V22.25L41.55 22.05V21.85H41.45H41.25V21.65V21.45L40.65 21.15H40.55H40.45L40.35 21.05L40.25 20.95L40.15 21.05L40.05 21.15V21.25L39.95 21.35H39.85L39.65 21.45H39.55L39.35 21.65L39.25 21.75L39.15 21.85L38.95 21.95V22.05L38.75 22.15H38.65H38.55L38.45 21.75L38.35 21.55V21.45V21.35H38.25V21.15V21.05V20.95V20.75V20.65V20.55V20.45V20.35L38.35 19.95V19.55V19.45L38.45 19.15L39.65 19.35L39.85 19.45L40.45 19.55V19.45H40.65L40.75 19.25L41.15 18.85L41.25 18.65L41.45 18.85L41.75 19.15L42.25 19.55L42.35 19.75V19.65V19.55H42.45V19.45V19.25L42.65 18.85V18.75L42.75 18.65L42.85 18.55L42.95 18.35L43.05 18.05V17.85L43.15 17.75H43.25V17.65H43.35V17.55L43.45 17.45V17.35L43.25 17.25H43.05V17.15V16.95L43.15 16.65V16.55V16.35V16.25H42.95H42.85L42.95 16.15L43.05 15.95L43.25 15.85L43.35 15.95V16.05H43.45H43.55V15.95V15.85V15.75L43.65 15.65L43.75 15.55H43.85L43.75 15.25L43.85 15.15H43.95H44.05H44.15V15.05H44.25L44.35 14.95L44.45 14.85H44.55H44.65L44.75 14.75L44.85 14.65V14.55V14.45V14.35H44.95L45.25 14.15L44.95 13.95L44.55 13.85V13.65H44.35V13.55L43.65 13.15H43.55H43.45H43.35H43.25L42.75 13.05V12.65L42.85 12.55V12.45V12.35L42.75 12.25V12.15V12.05L42.65 11.95L42.45 11.85L42.35 11.75L42.15 11.65V11.55V11.35L42.05 10.95V10.85V10.75V10.65V10.45V10.35H41.95H41.85L41.95 9.85001L42.05 9.75L42.35 9.45001L42.55 9.35001L43.05 9.25L43.55 9.14999H43.85V9.04999L43.95 8.45001L44.05 8.25V8.04999L44.15 7.75V7.35001L44.25 6.95001L44.05 7.04999V6.85001L43.75 6.35001V6.25L43.65 5.85001L43.55 5.54999L43.45 5.45001V5.25L43.55 5.14999L43.65 5.04999L43.75 4.85001L43.85 4.75V4.64999H43.95V4.54999H44.05L44.15 4.45001V4.54999H44.25H44.35H44.45H44.55H44.65H44.75H44.85H44.95H45.05H45.15H45.25H45.35H45.45V4.45001L45.55 4.35001H45.65V4.04999V3.95001L45.55 3.85001V3.75L45.45 3.64999V3.54999V3.25L45.35 3.14999V3.04999V2.95001V2.85001L45.25 2.75V2.54999V2.45001V2.35001H45.15V2.25L45.05 2.04999L45.15 1.95001L45.25 1.85001L45.75 1.54999V1.45001L45.85 1.35001H45.95V1.25V1.14999H46.05V1.04999V0.950012H46.15V0.850006H46.25H46.35H46.45L46.85 1.14999L46.75 0.950012V0.649994V0.550003H46.85H46.95V0.649994H47.05H47.15L47.45 0.75V0.649994H47.35L47.15 0.550003L47.05 0.449997L46.95 0.350006L47.05 0.25H47.15H47.35L48.15 0.550003V0.449997H48.35L48.45 0.550003H48.55L48.65 0.649994L48.75 0.75V0.850006V1.14999V1.25H48.85L48.95 1.35001H49.05V1.45001H49.15H49.25H49.35L49.45 1.54999H49.55V1.64999V1.75V1.85001H49.45L49.35 1.95001H49.25H49.15V1.85001H49.05H48.95L48.85 1.95001V2.04999L48.75 2.14999L49.05 2.35001L49.15 2.45001H49.05V2.54999V2.64999V2.75L49.45 3.04999L49.35 3.14999V3.25L49.45 3.14999H49.55H49.65H49.75H49.85V3.04999V2.95001H49.95H50.05V3.04999H50.15H50.25V3.14999H50.35H50.45H50.55V2.95001H50.65V2.85001H50.75L50.85 2.75H50.95L51.05 2.64999L51.35 2.54999L51.65 2.35001L51.95 2.25V2.14999H52.05V2.25H52.15V2.35001V2.45001V2.54999V2.64999H52.25V2.75H52.15L52.25 2.85001V2.75L52.35 2.85001H52.45L52.55 2.95001L52.65 3.04999L52.75 3.14999V3.25L52.85 3.35001H52.95L53.05 3.45001L53.15 3.54999H53.25L53.35 3.64999H53.45L53.55 3.75L53.65 3.85001L53.75 3.95001L54.25 4.14999L54.35 4.04999H54.45L54.65 4.14999V4.25L54.75 4.35001V4.45001H54.85V4.54999L54.95 4.64999H55.05V4.75V4.85001L55.35 5.04999L55.45 4.75H55.65L55.75 4.85001H56.05L56.15 4.75L56.25 4.54999V4.45001L56.35 4.54999H56.45V4.64999L56.55 4.75H56.65H56.75V4.85001H56.85H56.95V4.95001H57.05H57.15L57.25 5.04999L57.35 5.14999H57.45V5.04999H57.55H57.65H57.75L57.85 5.14999L58.05 5.25H58.15L58.25 5.35001H58.45H58.65L58.75 5.25H58.85H58.95H59.15L59.25 5.14999H59.35H59.45H59.55V5.25H59.65L59.75 5.35001H59.85V5.45001H59.95V5.54999H60.05V5.64999H59.95V5.75V5.95001V6.04999L59.75 6.14999V6.25V6.35001H59.85H59.95V6.45001H60.05V6.54999L60.15 6.64999V6.75V6.85001H60.25L60.35 7.04999L60.45 7.14999V7.25L60.55 7.35001H60.65V7.45001H60.75V7.54999L60.85 7.64999L60.75 7.75V7.85001V7.95001V8.04999H60.85V8.14999V8.25H60.95V8.35001V8.45001L61.05 8.54999V8.64999V8.75V8.85001H61.15V8.95001L61.25 9.04999L61.35 9.14999L61.45 9.25H61.55V9.35001L61.65 9.45001V9.54999L61.75 9.64999V9.75H61.85V9.85001V9.95001L61.95 10.05L62.05 10.15V10.25V10.35V10.45V10.55L61.95 10.65H61.85V10.75L61.95 10.85V10.95H62.05V11.05V11.15V11.25H62.15V11.35V11.45V11.55H62.25V11.65V11.75V11.85V11.95H62.15V12.05V12.15L62.25 12.25V12.35V12.45V12.55V12.65V12.75V12.85L62.15 13.05V13.15H62.25V13.25V13.35V13.55L62.35 13.65V13.75H62.45L62.55 13.85V13.95H62.45V14.05H62.65H62.85H63.15H63.35L63.45 13.95L64.05 13.35H64.15L64.35 13.65H64.55H64.85L64.95 13.75H65.05V13.85V13.95H64.95V14.05V14.15L65.05 14.35V14.45V14.55L65.15 14.65V14.75L65.05 14.85V14.95H65.15V15.05V15.25V15.35L65.25 15.45V15.55L65.35 15.65V15.75L65.45 15.85L65.55 15.95L65.65 16.05H65.75V16.15L65.85 16.25H66.05V16.35H66.15L66.25 16.45L66.35 16.55L66.45 16.65L66.55 16.75V16.85H66.45H66.35H66.25H66.15V16.95L66.05 17.15V17.45V17.65L65.75 17.55V17.75V17.85V17.95L65.65 18.05V18.15V18.25L65.55 18.35V18.45V18.55L65.45 18.45L65.35 18.55V18.65L65.25 18.85L64.95 18.75V18.95V19.15V19.35V19.45V19.55L65.05 19.65V19.75V19.85H65.15V19.95V20.05H65.05V20.15V20.35V20.55V20.75V20.85L64.95 20.95V21.15V21.45V21.55H65.05H65.15H65.25L65.35 21.65H65.45H65.55L65.65 21.95V22.15L65.75 22.45V22.55V22.65V22.75V22.95V23.05V23.15V23.25H65.85V23.35H65.95H66.05L66.15 23.45H66.25L66.35 23.55H66.45L66.55 23.65H66.65H66.75H66.85H66.95H67.05H67.15L67.25 23.75L67.35 23.85H67.45V23.95L67.65 24.05H67.75H67.85V24.15H67.95L68.05 24.25V24.35H68.15H68.25V24.45H68.35V24.55H68.45L68.55 24.75H68.65V24.85H68.75L68.85 24.95H68.95L69.05 25.05H69.15H69.25L69.35 25.15H69.45H69.55H69.65H69.75H69.95L70.05 25.25H70.15L70.25 25.35V25.45V25.55V25.65V25.85L69.95 25.95L69.75 26.05L69.65 26.15L69.55 26.25H69.35V26.35H69.25L69.15 26.45L68.85 26.75L68.55 26.95L68.35 27.25L68.15 27.75V27.85H68.05V27.95L67.95 28.15V28.25L67.85 28.35L67.75 28.45L67.45 28.65L67.25 28.95L67.15 29.05L67.05 29.15L66.95 29.25L66.85 29.35L66.75 29.45L66.55 29.65L66.45 29.75V29.85V29.95V30.05V30.15V30.25L66.35 30.35V30.45V30.55H66.45V30.65V30.75L66.35 30.85V30.95H66.45H66.55V31.05V31.15H66.65V31.25L66.75 31.15L66.85 31.05H66.95V31.15V31.25L67.05 31.35L67.15 31.45L67.25 31.55L67.35 31.85H67.45V31.95L67.55 32.15V32.25H67.65V32.35H67.75V32.45H67.85L67.95 32.55L68.15 32.75H68.25V32.85V32.95L68.35 33.05V33.15H68.45V33.25V33.35L68.55 33.45V33.55H68.65H68.75V33.65H68.95H69.15H69.45H69.55H69.65H69.85H69.95V33.75H70.05H70.25H70.35H70.45H70.65H70.75L70.95 33.85H71.05H71.15H71.25L71.35 33.75L71.45 33.65V33.75H71.55L72.05 34.05V34.15H72.15L72.25 34.25H72.35L72.55 34.35V34.45H72.75V34.55V34.65V34.75V34.85V34.95L72.65 35.05V35.15V35.25H72.55V35.35V35.45H72.45V35.55V35.65V35.75V35.85L72.35 35.95V36.05L72.45 36.15L72.55 36.25V36.35V36.45V36.55L72.65 36.65H72.55V36.75L72.45 36.85H72.35V36.95V37.05L72.25 37.15L72.45 37.25L72.65 37.35L72.75 37.45H72.95V37.25V37.15H73.05V37.45H73.25V37.55V37.65V37.75L73.15 37.95V38.05H73.05H72.95L72.85 37.95L72.75 38.05H72.65L72.25 37.95H72.15H72.05H71.85V37.75L71.75 37.65L71.65 37.75V37.65H71.55L71.15 37.45H71.05L70.85 37.35L70.75 37.55L70.65 37.35L70.15 37.25L69.75 37.15H69.65V37.25L69.45 37.15L69.35 37.25L69.25 37.35L69.15 37.45H69.25L69.35 37.75V37.85V37.95H69.25V38.05V38.15V38.25V38.35H69.15H69.05H68.95V38.45H68.85V38.55V38.65V38.75V38.85V38.95V39.05V39.15H68.75V39.25V39.35V39.45V39.55L68.85 39.65H68.95H69.05H69.15L69.25 39.75V39.85L69.35 39.95V40.05H69.45V40.15L69.55 40.25L69.75 40.35L69.85 40.55H69.95V40.65H70.05L70.15 40.75H70.25V40.85V40.95L70.35 41.05V41.15H70.45V41.25H70.55H70.65V41.35H70.75L70.85 41.45L70.95 41.55L71.05 41.65H71.15L71.25 41.75L71.35 41.85H71.45L71.55 41.95L71.65 42.05V42.15V42.25L71.75 42.35L71.85 42.45L71.95 42.55L72.05 42.65L72.15 42.75V42.85L72.25 42.95V43.05V43.15V43.25L72.15 43.35V43.45L72.05 43.55L71.95 43.65H71.85V43.75V43.85V43.95V44.15L71.95 44.05L72.25 43.95L72.45 43.85L72.75 43.75L73.05 43.55H73.15H73.25L73.55 43.35L73.75 43.25L73.85 43.15H73.95V43.05H74.05V42.95H74.15L74.25 42.85L74.35 42.75H74.45V42.65H74.55L74.65 42.75H74.75V42.85H74.85L74.95 42.95L75.05 43.05L75.15 43.15H75.25V43.25H75.35V43.35V43.45H75.45H75.55V43.55H75.65V43.65H75.75H75.85H75.95L76.05 43.75H76.15V43.85V43.95L76.25 44.05H76.35L76.45 44.15H76.55H76.65V44.25H76.75H76.85H76.95L77.15 44.35L77.25 44.45H77.35H77.45V44.55H77.55V44.65H77.45L77.55 44.75H77.65H77.95H78.05V45.05H78.15H78.25V44.95H78.35H78.45V44.85H78.55L78.45 44.75H78.55V44.65L78.65 44.55H78.75L78.85 44.45L78.75 44.35V44.25L78.85 44.15V44.05L78.95 43.95H79.05V43.85H79.15V43.75H79.25H79.35L79.45 43.85L79.55 43.95V44.05L79.45 44.15L79.25 44.35V44.45L79.15 44.55V44.65L79.05 44.75V44.95V45.05V45.15V45.25V45.35V45.45V45.55H79.15V45.65V45.75L79.25 45.85V45.95V46.05L79.15 46.15H79.05L79.15 46.25V46.35H79.25L79.35 46.45V46.55L79.55 46.65H79.65L79.75 46.75H79.95L80.05 46.85L80.15 46.95H80.25L80.35 47.05V47.15V47.25L80.45 47.35H80.55L80.65 47.45L80.85 47.55L80.95 47.65L81.05 47.75V47.85V47.95V48.05H80.95V48.15L80.85 48.25L80.75 48.35L80.65 48.45L80.55 48.55L80.45 48.65L80.25 48.75L80.15 48.85L79.85 48.95L79.75 49.05L79.65 49.15V49.25H79.55V49.35V49.45V49.55L79.65 49.65V49.85L79.75 50.05L79.85 50.15L79.95 50.35L80.05 50.45V50.55V50.65L80.15 50.85V50.95V51.05V51.25L80.25 51.35L80.35 51.65L80.45 51.75V51.85V51.95V52.05V52.15V52.25V52.35V52.45L80.55 52.55V52.65V52.75V52.85V52.95V53.05V53.15H80.75L80.85 53.25H80.95V53.35L81.05 53.45H81.15L81.25 53.55L81.35 53.65L81.45 53.75L81.65 53.85H81.75H81.85H81.95L82.05 53.65H82.15L82.25 53.55V53.35L82.35 53.25V53.15V53.05V52.95V52.85V52.75V52.65V52.45V52.35V52.25L82.25 52.15H82.15V52.05L82.05 51.95V51.85V51.75V51.65H82.15V51.55H82.25V51.45V51.35L82.35 51.25H82.45H82.55L82.65 51.15L82.85 50.85L83.05 50.65L83.35 50.45V50.35H83.45V50.25H83.55V50.15L83.65 50.05V49.95L83.55 49.85V49.75H83.45L83.35 49.65V49.55L83.25 49.45V49.35V49.25V49.15V49.05H83.35H83.45L83.55 49.15L83.65 49.25H83.75L83.85 49.35L83.95 49.45H84.05L84.15 49.55H84.25V49.45H84.35H84.45V49.35H84.55V49.25L84.65 49.15L84.75 49.05L84.85 48.95L84.95 48.85L85.05 48.75H85.15H85.25H85.35H85.45L85.55 48.85V48.95L85.65 49.05V49.15V49.25V49.35V49.45V49.55L85.55 49.75V49.85V49.95L85.45 50.05L85.35 50.15V50.25L85.25 50.35V50.45V50.55V50.65V50.75V50.85V50.95V51.05V51.25V51.35V51.45V51.55V51.65V51.85V51.95V52.05V52.15V52.25L85.15 52.35V52.55V52.65L85.05 52.85V52.95L84.95 53.15V53.25L84.85 53.35L84.75 53.55V53.75L84.65 53.85L84.55 54.05V54.15L84.45 54.25L84.35 54.45L84.25 54.55V54.75L84.15 54.95V55.05V55.15V55.25H84.25V55.35H84.35H84.45H84.55H84.75H84.95L85.05 55.25L85.15 55.15L85.25 55.05V54.85L85.35 54.55V54.35V54.25L85.45 54.15V54.05L85.55 53.95V53.85H85.65V53.75H85.75H85.95H86.15H86.25H86.35H86.45H86.65H86.75H86.85H86.95H87.15L87.35 53.85H87.45L87.65 53.95L87.75 54.05H87.85H87.95V54.15V54.25L88.05 54.35V54.45V54.55H88.15V54.65V54.75V54.85V54.95V55.05V55.15L88.25 55.25V55.35H88.35V55.45H88.45H88.55H88.65L88.75 55.55H88.85L88.95 55.45H89.05L89.25 55.35H89.35L89.45 55.25H89.55H89.65H89.75H89.85V55.35H89.95L90.05 55.45V55.55V55.65V55.75V55.95H90.15H90.25H90.65H91.05L90.95 55.85V55.65V55.55L90.85 55.45V55.35V55.25V55.15V55.05V54.95V54.85V54.75V54.65V54.55H90.95V54.45H91.05L91.15 54.35H91.25H91.45L91.55 54.25L91.65 54.35H91.75H91.85H91.95H92.05H92.15L92.25 54.45L92.35 54.55H92.55L92.65 54.65H92.75H92.85L93.05 54.75L93.15 54.85L93.25 54.95H93.35H93.45H93.55L93.65 55.05L93.75 55.15L93.95 55.25H94.15L94.45 55.35L94.65 55.45H94.75L94.85 55.55H95.05H95.15H95.25H95.35H95.55V55.45L95.65 55.35H95.75V55.25V55.15V55.05V54.95L95.65 54.65L95.45 54.45L95.35 54.35L95.25 54.15L95.15 54.05V53.95V53.85V53.75V53.65V53.55H95.25V53.45H95.35L95.45 53.35H95.55H95.65H95.75L95.85 53.45L95.95 53.55H96.05L96.15 53.65H96.35L96.45 53.75H96.55L96.65 53.95L96.75 54.05H96.85L96.95 54.15H97.05V54.25H97.15V54.35H97.25V54.45V54.55H97.35L97.25 54.65V54.75L97.15 54.95L97.05 55.05L96.95 55.15L96.85 55.25V55.35L96.65 55.55H96.55V55.65H96.45L96.35 55.75V55.85V55.95V56.05V56.25L96.45 56.35L96.55 56.45L96.65 56.55L96.85 56.65H96.95L97.05 56.75H97.15H97.25L97.35 56.85L97.45 56.95L97.65 57.05H97.75L97.85 57.15H97.95L98.05 57.25L98.15 57.35L98.25 57.45H98.35V57.55H98.45V57.65L98.55 57.75L98.65 57.95V58.05H98.75L98.85 58.15L98.95 58.25L99.05 58.35H99.15L99.35 58.45H99.45H99.55H99.65L99.75 58.55H99.85H99.95L100.05 58.65H100.15H100.25H100.45H100.65H100.75H100.95H101.05H101.15V58.75H101.25L101.35 58.85H101.45V58.95H101.55L101.75 59.15H101.85L101.95 59.25L102.05 59.35L102.25 59.55L102.35 59.65L102.45 59.85L102.55 59.95L102.65 60.15H102.75V60.25H102.85L102.95 60.45L103.05 60.55L103.25 60.75L103.45 61.05L103.55 61.15L103.75 61.35L103.85 61.45L103.95 61.55L104.05 61.65H104.15H104.25V61.75H104.35L104.55 61.85H104.65L104.85 61.95L104.95 62.05L105.05 62.15L105.35 62.35H105.45L105.65 62.45L105.75 62.65H105.85V62.75L105.95 62.85V62.95V63.05V63.15V63.25L105.85 63.35L105.75 63.45L105.65 63.55V63.65H105.55L105.45 63.75L105.25 63.85H105.05L104.65 64.25L104.45 64.35V64.45V64.55L104.35 64.65V64.75L104.45 64.95V65.05L104.55 65.15L104.65 65.25H104.75L104.95 65.35H105.15H105.45L105.65 65.45L105.85 65.55H106.05L106.25 65.65L106.35 65.75L106.45 65.85L106.55 65.95V66.05V66.15V66.25V66.35V66.45L106.45 66.55V66.65L106.35 66.75L106.25 66.95L106.15 67.05L106.05 67.15H105.95L105.75 67.35L105.55 67.45L105.35 67.55L105.25 67.65L105.15 67.75L105.05 67.85L104.95 67.95V68.05V68.15V68.25L105.05 68.35V68.45H105.15L105.25 68.55H105.35L105.25 68.65V68.75L105.05 69.05L104.95 69.15L105.05 69.45L104.95 69.55H104.85L104.75 69.65V69.75H104.65L104.45 69.85V69.95H104.35L104.25 70.05L104.15 70.25L103.95 70.35V70.45L103.85 70.55L103.75 70.75H103.65L103.55 71.05L103.45 71.15V71.25H103.35L103.25 71.45H103.15V71.55V71.65V71.85V71.95V72.05L103.25 72.15L103.35 72.35V72.45V72.55H103.25L103.35 72.75V73.15V73.25L103.45 73.55V73.65V73.75L103.35 74.05V74.35V74.45V74.55V74.65L103.25 74.75V74.95L103.35 75.05L103.45 75.15V75.25L103.55 75.35V75.45V75.55L103.65 75.75V75.85V75.95H103.75V76.05V76.15H103.85V76.25H103.95V76.35H104.05V76.45V76.55L103.95 76.75H103.85H103.75V76.85H103.85V76.95V77.05H103.95V77.15H103.85V77.25V77.35H103.75L103.85 77.45L103.95 77.65L104.05 77.75V77.85V77.95V78.05V78.15H103.95V78.25V78.35L103.85 78.45V78.55L103.95 78.65V78.75V78.85H104.05H104.15H104.25V78.95V79.05V79.15V79.25H104.35V79.35V79.45V79.55V79.65V79.75V79.85V79.95L104.25 80.15V80.25V80.35V80.45V80.55L104.15 80.65V80.75V80.85L104.05 80.95V81.15V81.25L103.95 81.35V81.45V81.55L103.85 81.65V81.75V81.85V81.95V82.05L103.95 82.15V82.25V82.35V82.45V82.55V82.65V82.75V82.85V82.95V83.05V83.15V83.25V83.35V83.45L103.85 83.55V83.65L103.75 83.75V83.85H103.85V83.95V84.05H103.95V84.15V84.25H104.05V84.35H104.15V84.45V84.55H104.25V84.65V84.75V84.85V84.95H104.15V85.05H104.25V85.15V85.25V85.35V85.45V85.55H104.15V85.65H104.05V85.75V85.85V85.95V86.05H104.15V86.15V86.25V86.35H104.25V86.45V86.55V86.65V86.75V86.85H104.35V86.95V87.05H104.45V87.15V87.25V87.35H104.35V87.45V87.55V87.65H104.25V87.75H104.15V87.85V87.95V88.05H104.05V88.15H103.95L103.85 88.25H103.95V88.35V88.45L104.05 88.55V88.65H104.15L104.25 88.55H104.35H104.45V88.45V88.35H104.55H104.65V88.45H104.75V88.55H104.85V88.65H104.95V88.75L104.85 88.85V88.95V89.05H104.75V89.15H104.85V89.25L104.95 89.35V89.45V89.55H104.85V89.65L104.75 89.75V89.85V89.95V90.05L104.85 90.15V90.25H104.95V90.35V90.45V90.55V90.65V90.85H104.85H104.75H104.65H104.55H104.45V90.95H104.35H104.25V91.05H104.15H104.05V91.15H103.95H103.85V91.05H103.75H103.65H103.55H103.45H103.35H103.25L103.15 90.95H103.05H102.95V90.85H102.85H102.75H102.65L102.55 90.95H102.45H102.35H102.25V90.85H102.15H102.05L101.95 90.75H101.85H101.75H101.65V90.65H101.55L101.45 90.75H101.35H101.25V90.65V90.55H101.15H101.05H100.95V90.45H100.85H100.75V90.35H100.65V90.25V90.15L100.55 90.05V89.95H100.45L100.35 89.85H100.25V89.75L100.15 89.65H100.05V89.55H99.95V89.45H99.85H99.75H99.65H99.55H99.45H99.35H99.25V89.35H99.15H99.05H98.95H98.85H98.75H98.65H98.55H98.45H98.35V89.45H98.25L98.15 89.35H98.05L97.95 89.25L97.85 89.35H97.75L97.65 89.45H97.55L97.45 89.35L97.35 89.25H97.25H97.15V89.35H97.05H96.95H96.85H96.75L96.65 89.25H96.55V89.15H96.45V89.25H96.35H96.25H96.15H96.05V89.35H95.95H95.85V89.45L95.75 89.55L95.65 89.65L95.55 89.75H95.45H95.35H95.25H95.15H95.05H94.95H94.85H94.75V89.85H94.65V89.95H94.55L94.45 89.85L94.35 89.75H94.25H94.15V89.85H94.05H93.95V89.95V90.05V90.15H93.85H93.75H93.65H93.55H93.45H93.35V90.25H93.25H93.15L93.05 90.15H92.95L92.85 90.05H92.75V90.15H92.65L92.55 90.25L92.45 90.45H92.35L92.25 90.55H92.15H92.05V90.65H91.95H91.85L91.75 90.75H91.65V90.85H91.55V90.95H91.45H91.35L91.25 91.05H91.15L91.05 91.15L90.95 91.25L90.75 91.35L90.55 91.45L90.45 91.55H90.35V91.65H90.25L90.15 91.75H90.05H89.95H89.85V91.85H89.75H89.65V91.95H89.55L89.45 92.05V92.15V92.25H89.35V92.35H89.25V92.45H89.15V92.55V92.65H89.05V92.75H88.95H88.85V92.85H88.75V92.95H88.65V93.05V93.15H88.55V93.25V93.35V93.45H88.45V93.55H88.35V93.45L88.25 93.55H88.15L88.05 93.65H87.95H87.85V93.75L87.75 93.85V93.95V94.05V94.15V94.25L87.65 94.35H87.55H87.45L87.35 94.45L87.45 94.55L87.55 94.65V94.75H87.45V94.85H87.35H87.25H87.15V94.75H87.05V94.85H86.95V94.95L86.85 95.05H86.75V95.15V95.25V95.35H86.65V95.45V95.55V95.65V95.75H86.55L86.45 95.85H86.35H86.25L86.15 95.75H86.05V95.85L85.95 96.05L85.85 96.25L85.75 96.35L85.65 96.55V96.65L85.55 96.85V96.95H85.45V97.05V97.15V97.25L85.35 97.35V97.45L85.25 97.55L85.05 97.65L84.95 97.75L84.85 97.85L84.75 97.95V98.05L84.65 98.15V98.25V98.35L84.55 98.45L84.45 98.65L84.25 98.85H84.15V98.95L84.05 99.15L83.95 99.25V99.35V99.45L83.85 99.55V99.65H83.75L83.65 99.75L83.55 99.85V99.95L83.45 100.05V100.15V100.25V100.35H83.35L83.25 100.45H83.15L83.05 100.65L82.85 100.85L82.75 100.95L82.55 101.05V101.15H82.45H82.35L82.15 101.05H82.05H81.95L81.85 100.95H81.75H81.55H81.45L81.35 100.85H81.25V100.95H81.15L81.05 101.05H80.95H80.85V101.15H80.75V101.25L80.65 101.35L80.55 101.45L80.45 101.55L80.35 101.65H80.25L80.15 101.75L80.05 101.85H79.95V101.95V102.05V102.15H79.85H79.75L79.55 102.25V102.35L79.35 102.45L79.25 102.55H79.15H79.05V102.65H78.95V102.75H79.05V102.85H79.15H79.25H79.35L79.45 102.95H79.55V103.05L79.65 103.15V103.25V103.35V103.45H79.55L79.45 103.55L79.35 103.65V103.75V103.85H79.45V103.95L79.55 104.05H79.65L79.75 104.15H79.85H79.95V104.25H80.05L80.15 104.35V104.45V104.55H80.25V104.65H80.35L80.45 104.75L80.55 104.85V104.95L80.65 105.05V105.15H80.55L80.65 105.25V105.45V105.55V105.65L80.55 105.75V105.85V105.95L80.45 106.05L80.35 106.15H80.25V106.25H80.15H80.05L79.95 106.15H79.85V106.05H79.75V105.95L79.65 105.85H79.55V105.75H79.45L79.35 105.65H79.25H79.15H79.05H78.95H78.85H78.75L78.65 105.55H78.55V105.65H78.45L78.35 105.75L78.25 105.85H78.15L78.05 105.95L77.95 106.05V106.15H77.85V106.25V106.35H77.75V106.45V106.55V106.65L77.85 106.75V106.85H77.95V106.95H78.05V107.05H78.15L78.25 107.15L78.35 107.25V107.35V107.45H78.25V107.55H78.15H78.05H77.95H77.85H77.75H77.65H77.55H77.45H77.35H77.25V107.65H77.15H77.05V107.75H76.95V107.85V107.95V108.05V108.15V108.25L77.05 108.35L77.15 108.45H77.25V108.55V108.65V108.75V108.85H77.15V108.95L77.05 109.05V109.15V109.25V109.35V109.45V109.55V109.65H76.95V109.75H76.85V109.85H76.75H76.65H76.55H76.45H76.25H76.15H76.05H75.95H75.85H75.75V109.95H75.65L75.55 110.05L75.45 110.15V110.25V110.35V110.45V110.55H75.55V110.65V110.75H75.65V110.85V110.95V111.05L75.55 111.15L75.45 111.25H75.35L75.25 111.35H75.15H75.05H74.95H74.85L74.75 111.25H74.55V111.15L74.35 111.05H74.25L74.15 110.95H74.05V110.85V110.75H73.95V110.65H73.85H73.75V110.55H73.65H73.55H73.45H73.35V110.65H73.25H73.15V110.75H73.05L72.95 110.85L72.85 110.95L72.75 111.05L72.65 111.15V111.25H72.55V111.35L72.65 111.45V111.55V111.65H72.75V111.75H72.85L72.95 111.85V111.95V112.05V112.15L73.05 112.25V112.35V112.45V112.55H73.15H73.25L73.35 112.65H73.45V112.75L73.35 112.85V112.95V113.05V113.15H73.25V113.25L73.15 113.35L73.05 113.45V113.55H72.95V113.65V113.75H72.85V113.85H72.75H72.65L72.55 113.95H72.45L72.35 114.05V114.15H72.45V114.25V114.35H72.35V114.25H72.25H72.15H72.05V114.35H71.95V114.45H71.85V114.55H71.75V114.65L71.65 114.75V114.85V114.95H71.55V115.05V115.15H71.45V115.25H71.35L71.25 115.35L71.15 115.45V115.55H71.05V115.65H70.95V115.75H70.85L70.75 115.85L70.65 115.95H70.55V116.05H70.65V116.15H70.75V116.25H70.65V116.35H70.55H70.45V116.45V116.55H70.35L70.25 116.65H70.15V116.75H70.05V116.85H69.95V116.95H69.85V117.05H69.75H69.65V117.15V117.25V117.35H69.55H69.45V117.45H69.35V117.55H69.25H69.15V117.65V117.75V117.85V117.95V118.05V118.15V118.25V118.35H69.25V118.45V118.55V118.65H69.35H69.45L69.55 118.75V118.85V118.95V119.05H69.45V119.15H69.35V119.25L69.25 119.35V119.45V119.55V119.65H69.15V119.75H69.05V119.85V119.95V120.05H69.15V120.15V120.25L69.05 120.35V120.45H69.15V120.55V120.65H69.25V120.75V120.85V120.95V121.05V121.15V121.25V121.35H69.35V121.45H69.45V121.55V121.65H69.35V121.75V121.85V121.95V122.05L69.45 122.15L69.55 122.25H69.65H69.75V122.35V122.45H69.65H69.55V122.35H69.45H69.35V122.45L69.45 122.55V122.65V122.75H69.55V122.85V122.95V123.05H69.65V122.95H69.75L69.85 123.05H69.95H70.05V123.15L69.95 123.25H69.85V123.15H69.75H69.65V123.25H69.55V123.35V123.45V123.55V123.65V123.75H69.65V123.85V123.95V124.05H69.75V124.15L69.85 124.25V124.35H69.95V124.45H70.05L70.15 124.35H70.25V124.45L70.35 124.55H70.45V124.65V124.75L70.55 124.85H70.65H70.75L70.85 124.95V125.05V125.15V125.25H70.95V125.35V125.45V125.55H71.05H71.15V125.45H71.25V125.55V125.65H71.35H71.45V125.75V125.85V125.95V126.05V126.15V126.25H71.55H71.65V126.35V126.45V126.55H71.55V126.65H71.45V126.75H71.55H71.65V126.85V126.95H71.55H71.45H71.35H71.25H71.15H71.05V127.05H70.95V127.15L70.85 127.25V127.35V127.45H70.95V127.55H71.05V127.65V127.75V127.85V127.95H71.15H71.25V128.05H71.35V128.15H71.45V128.25V128.35V128.45V128.55V128.65V128.75L71.55 128.85H71.65V128.95H71.75H71.85H71.95V128.85H72.05V128.95H72.15H72.25V129.05V129.15H72.35V129.25V129.35L72.45 129.45H72.55V129.55H72.65H72.75H72.85V129.65L72.95 129.75V129.85H72.85V129.95L72.75 130.05V130.15H72.65L72.75 130.25H72.85V130.15H72.95V130.25L73.05 130.35H73.15V130.45H73.25L73.35 130.35H73.45V130.45V130.55V130.65V130.75H73.35V130.85V130.95V131.05H73.25V131.15L73.15 131.25H73.05V131.35V131.45V131.55V131.65V131.75H72.95V131.85V131.95V132.05V132.15V132.25H72.85H72.75V132.35H72.85V132.45V132.55H72.75V132.65V132.75H72.65H72.55H72.45H72.35V132.85V132.95H72.25V133.05H72.35V133.15V133.25L72.25 133.35H72.15H72.05V133.45H71.95V133.55H71.85V133.65V133.75V133.85H71.75V133.95H71.65V134.05V134.15V134.25H71.55H71.45V134.35V134.45V134.55V134.65H71.35H71.25V134.75H71.15V134.85H71.05V134.95V135.05H70.95V135.15V135.25L70.85 135.35V135.45V135.55V135.65H70.75V135.75V135.85V135.95V136.05H70.65V136.15L70.75 136.25H70.65V136.35V136.45V136.55H70.55V136.65V136.75V136.85V136.95V137.05V137.15V137.25V137.35V137.45H70.45V137.55V137.65V137.75V137.85H70.35V137.95L70.25 138.05H70.15V138.15L70.05 138.25V138.35H69.95V138.45V138.55V138.65V138.75V138.85H69.85V138.95L69.75 139.05V139.15V139.25V139.35V139.45V139.55V139.65H69.65V139.75V139.85V139.95V140.05V140.15L69.55 140.25H69.35H68.95L68.75 140.35H68.65H68.35H68.25H67.95H67.85H67.75V140.25V140.15H67.85V140.05V139.85V139.65L67.75 139.55V139.45L67.65 139.25V139.15L67.55 138.95V138.85L67.65 138.75L67.55 138.65L67.45 138.55V138.25L67.25 138.05L67.15 137.95L67.05 137.85L66.95 137.75H66.85V137.65L66.75 137.55H66.65L66.55 137.45L66.45 137.35L66.35 137.25V137.15V136.85H66.25L66.15 136.75V136.55L65.95 136.45L65.75 136.35H65.65L65.45 136.25H65.35V136.15V136.05V135.95L65.45 135.85V135.75V135.55L65.35 135.15L65.25 134.95V134.85H65.15L65.05 134.65L64.85 134.45L64.65 134.25V134.05L64.75 133.85V133.75V133.65L64.85 133.45V133.35H64.95V133.15L64.65 133.05H64.45H64.35H64.25V132.95H64.15H63.95L63.75 133.05L63.65 132.95L63.45 132.85H63.25H63.15H63.05H62.95L62.75 132.95L62.65 132.75V132.55L62.55 132.45L62.45 132.35V132.15V131.95V131.85H62.35L62.25 131.95L62.15 131.85L61.85 131.75H61.75L61.55 131.85L61.45 131.95H61.35V132.15L61.25 132.25L61.15 132.45L60.85 132.15V132.05L60.55 131.95V131.85L60.45 131.75V131.65V131.55H60.35V131.45H60.25V131.35L60.05 131.45V131.55H59.95V131.65H59.85H59.75H59.65H59.55V131.75H59.45L59.35 131.65H59.25H59.15H58.95H58.85H58.75V131.55V131.45V131.25V131.15V131.05V130.95L58.65 130.85V130.75H58.55L58.45 130.65L58.25 130.55H58.15V130.45H58.05H57.95H57.85L57.75 130.35H57.65V130.25H57.55V130.05H57.45H57.35L57.25 129.95H57.15V129.85H57.05V129.75L56.95 129.65V129.55V129.45L56.85 129.35V129.25V129.15L56.75 128.95V128.85H56.85V128.75V128.65V128.55V128.45V128.35V128.25V128.15H56.95L57.05 127.95V127.85L57.15 127.75V127.65V127.55V127.45V127.35H57.05L56.95 127.25V127.15L56.85 127.05V126.95L56.75 126.85L56.65 126.75L56.55 126.65V126.55V126.45H56.45H56.25L56.05 126.35H56.15V126.15V126.05V125.95L56.05 125.85V125.75L55.95 125.65H55.85L55.65 125.55L55.45 125.45L55.25 125.35V125.25V124.95L55.15 124.75L55.05 124.65L54.95 124.55L55.05 124.15V124.05L54.95 123.95V123.85V123.65L54.85 123.55L54.75 123.35L54.65 123.25H54.55L54.45 123.35H54.35H54.15H54.05V123.25H53.95V123.35L53.85 123.45H53.75V123.55H53.65L53.55 123.65V123.75L53.35 123.65H53.25L53.35 123.55V123.45V123.35L53.25 123.25V123.15V123.05L53.05 122.95V122.85L52.95 122.75L52.85 122.65H52.75L52.65 122.55V122.45L52.55 122.25H52.45L52.35 122.15L52.25 122.05H52.15H52.05H51.95H51.85H51.75H51.65H51.55Z" fill="#220F0F"/>
<path d="M52.15 118.75V118.85V118.95H52.05V119.05V119.15V119.25H51.95V119.35V119.45L52.05 119.55V119.65H52.15V119.75H52.05H51.95V119.85H51.85V119.95V120.05L51.75 120.15H51.85V120.25V120.35H51.75V120.45V120.55V120.65V120.75V120.85V120.95V121.05V121.15L51.65 121.25V121.35H51.55V121.45V121.55V121.65L51.65 121.75V121.85L51.55 121.95V122.05H51.65H51.75H51.85H51.95H52.05H52.15H52.25L52.35 122.15L52.45 122.25H52.55L52.65 122.45V122.55L52.75 122.65H52.85L52.95 122.75L53.05 122.85V122.95L53.25 123.05V123.15V123.25L53.35 123.35V123.45V123.55L53.25 123.65H53.35L53.55 123.75V123.65L53.65 123.55H53.75V123.45H53.85L53.95 123.35V123.25H54.05V123.35H54.15H54.35H54.45L54.55 123.25H54.65L54.75 123.35L54.85 123.55L54.95 123.65V123.85V123.95L55.05 124.05V124.15L54.95 124.55L55.05 124.65L55.15 124.75L55.25 124.95V125.25V125.35L55.45 125.45L55.65 125.55L55.85 125.65H55.95L56.05 125.75V125.85L56.15 125.95V126.05V126.15V126.35H56.05L56.25 126.45H56.45H56.55V126.55V126.65L56.65 126.75L56.75 126.85L56.85 126.95V127.05L56.95 127.15V127.25L57.05 127.35H57.15V127.45V127.55V127.65V127.75L57.05 127.85V127.95L56.95 128.15H56.85V128.25V128.35V128.45V128.55V128.65V128.75V128.85H56.75V128.95L56.85 129.15V129.25V129.35L56.95 129.45V129.55V129.65L57.05 129.75V129.85H57.15V129.95H57.25L57.35 130.05H57.45H57.55V130.25H57.65V130.35H57.75L57.85 130.45H57.95H58.05H58.15V130.55H58.25L58.45 130.65L58.55 130.75H58.65V130.85L58.75 130.95V131.05V131.15V131.25V131.45V131.55V131.65H58.85H58.95H59.15H59.25H59.35L59.45 131.75H59.55V131.65H59.65H59.75H59.85H59.95V131.55H60.05V131.45L60.25 131.35V131.45H60.35V131.55H60.45V131.65V131.75L60.55 131.85V131.95L60.85 132.05V132.15L61.15 132.45L61.25 132.25L61.35 132.15V131.95H61.45L61.55 131.85L61.75 131.75H61.85L62.15 131.85L62.25 131.95L62.35 131.85H62.45V131.95V132.15V132.35L62.55 132.45L62.65 132.55V132.75L62.75 132.95L62.95 132.85H63.05H63.15H63.25H63.45L63.65 132.95L63.75 133.05L63.95 132.95H64.15H64.25V133.05H64.35H64.45H64.65L64.95 133.15V133.35H64.85V133.45L64.75 133.65V133.75V133.85L64.65 134.05V134.25L64.85 134.45L65.05 134.65L65.15 134.85H65.25V134.95L65.35 135.15L65.45 135.55V135.75V135.85L65.35 135.95V136.05V136.15V136.25H65.45L65.65 136.35H65.75L65.95 136.45L66.15 136.55V136.75L66.25 136.85H66.35V137.15V137.25L66.45 137.35L66.55 137.45L66.65 137.55H66.75L66.85 137.65V137.75H66.95L67.05 137.85L67.15 137.95L67.25 138.05L67.45 138.25V138.55L67.55 138.65L67.65 138.75L67.55 138.85V138.95L67.65 139.15V139.25L67.75 139.45V139.55L67.85 139.65V139.85V140.05V140.15H67.75V140.25V140.35H67.85H67.95H68.25H68.35H68.65H68.75L68.95 140.25H69.35H69.55L69.65 140.15M52.15 118.75H52.05M52.15 118.75V118.65V118.55H52.25V118.45V118.35H52.35V118.25V118.15H52.45V118.05H52.55V117.95H52.65V117.85H52.75L52.85 117.75V117.65H52.95V117.55V117.45L53.05 117.35V117.25H53.15V117.15L53.25 117.05L53.35 116.95H53.45V116.85H53.55H53.65H53.75L53.85 116.95H53.95V116.85H54.05L54.15 116.75V116.65V116.55H54.25L54.35 116.45L54.55 116.25L54.65 116.15H54.75H54.85V116.05V115.95H54.75V115.85V115.75V115.65V115.55H54.65V115.45V115.35H54.55V115.25V115.15V115.05V114.95H54.45V114.75H54.35V114.65H54.25V114.55H54.15V114.45H54.05V114.35H53.95V114.25V114.15L53.85 114.05V113.95H53.75L53.65 113.85V113.75V113.65L53.55 113.45L53.45 113.35V113.25L53.35 113.05L53.25 112.95V112.85H53.15L52.95 112.75H52.85H52.75V112.65H52.65V112.55H52.55V112.45V112.35L52.45 112.25H52.35V112.15H52.25L52.15 112.05V111.95H52.05V111.85H51.95L51.85 111.75H51.75H51.65V111.65H51.55L51.45 111.75L51.35 111.65L51.25 111.55V111.45H51.35V111.35V111.25V111.15V111.05H51.25V110.95V110.85H51.15V110.75H51.05V110.65H50.95H50.85V110.55H50.75V110.65L50.65 110.55H50.55H50.45L50.35 110.45H50.25V110.35H50.15H50.05H49.95V110.25V110.15V110.05L50.05 109.95V109.85V109.75V109.65L49.95 109.55V109.45L49.85 109.35H49.75V109.25V109.15H49.65V109.05V108.95V108.85H49.55V108.75L49.35 108.65V108.55H49.25L49.15 108.45L49.05 108.35V108.25H48.95H48.85L48.65 108.15V108.05H48.55V107.95V107.85V107.75L48.45 107.65V107.55V107.45V107.35H48.55L48.65 107.25V106.95H48.75L49.15 106.65H49.25V106.55L49.45 106.25H49.35L49.25 106.05L49.15 105.95V105.85H49.05L48.95 105.65V105.55H49.05L49.25 105.45V105.35H49.35V105.25L49.45 105.15L49.55 105.05V104.95H49.65V104.85V104.75V104.65H49.55V104.55H49.45V104.45H49.55H49.65V104.35V104.25H49.75V104.15V103.95L49.85 103.75V103.65H49.95V103.55H50.05H50.15H50.25H50.35V103.45H50.45H50.55L50.65 103.35V103.25V103.15H50.55L50.45 102.95L50.35 102.75V102.65V102.55H50.25V102.45H50.15L50.05 102.35L49.95 102.25L49.75 102.05L49.55 101.95V101.85L49.45 101.75H49.35H49.25V101.65H49.05H48.85L48.75 101.55H48.65L48.55 101.45L48.45 101.35H48.35H48.25H48.15L48.05 101.25H47.95H47.85H47.75H47.65V101.15L47.55 101.05V100.95V100.85L47.65 100.65L47.75 100.55V100.45V100.35V100.25V100.15V100.05V99.95H47.85V99.85V99.75V99.65V99.55H47.75V99.45V99.35V99.25L47.85 99.15V99.05H47.95L47.85 98.95V98.85M47.85 98.85H47.95M47.85 98.85V98.75V98.65V98.55V98.45H47.75H47.65V98.35H47.55V98.25L47.45 98.15L47.35 98.25H47.25H47.15V98.15V98.05H47.05V97.95H46.95V97.85H46.85V97.75V97.65H46.75H46.65H46.55V97.55H46.45H46.35V97.45V97.35V97.25V97.15H46.25V97.05H46.15H46.05H45.95V96.95H45.85V96.85H45.75H45.65V96.75V96.65H45.55V96.55L45.45 96.45H45.35V96.35V96.25V96.15V96.05H45.25V95.95L45.15 95.85V95.95H45.05H44.95L44.85 95.85L44.75 95.75L44.85 95.65H44.75V95.55H44.65V95.45V95.35H44.55V95.25L44.45 95.15H44.35L44.25 95.05L44.15 94.95V94.85V94.75L44.25 94.65V94.55H44.15H44.05H43.95H43.85L43.75 94.45H43.65L43.55 94.35V94.25H43.45L43.35 94.35H43.25H43.15H43.05L42.95 94.25V94.15V94.05V93.95H42.85V93.85V93.75H42.75H42.65V93.65V93.55H42.55H42.45L42.35 93.45H42.25V93.35H42.15L42.05 93.25L41.95 93.15H41.85V93.25H41.75H41.65H41.55L41.45 93.15H41.35V93.05H41.25V92.95H41.15V92.85V92.75L41.05 92.65V92.55V92.45H40.95V92.35V92.25V92.15V92.05V91.95V91.85L41.05 91.75V91.65V91.55H41.15L41.25 91.45V91.35V91.25H41.15V91.15L41.05 91.05V90.95H40.95V90.85H40.85V90.75H40.75H40.65H40.55V90.65V90.55V90.45H40.45H40.35H40.25H40.15V90.35H40.05V90.25H39.95L39.85 90.15L39.75 90.25H39.65H39.55H39.45V90.15H39.35H39.25V90.05H39.15V89.95V89.85H39.05H38.95L38.85 89.75H38.75H38.65V89.65H38.55L38.45 89.55H38.35H38.25H38.15H38.05L37.95 89.45L37.85 89.35H37.75L37.55 89.25H37.45V89.35L37.55 89.45V89.55V89.65V89.75L37.45 89.85V89.95H37.35V90.05V90.15H37.45V90.25V90.35H37.55V90.45H37.65V90.55V90.65V90.75H37.75V90.85L37.65 90.95H37.55L37.45 91.05V91.15V91.25V91.35H37.35L37.15 91.45L37.05 91.55L36.95 91.65V91.75L37.05 91.95L36.95 92.05H36.85V92.15H36.75V92.25H36.65V92.35V92.45H36.75V92.55L36.65 92.65L36.55 92.85H36.45L36.35 92.95V93.05L36.25 93.15H36.15L35.95 93.05L35.85 92.95V92.85L35.75 92.65H35.65V92.55H35.35H35.25H35.15H35.05L34.95 92.65H34.75L34.65 92.75L34.35 92.55L34.15 92.45L33.95 92.25L33.85 92.05H33.75H33.65H33.55V92.15H33.45H33.35H33.25L33.15 92.05H33.05L32.95 91.95H32.85H32.75H32.65V92.05H32.55L32.45 92.15L32.35 92.05H32.25L32.15 91.95V91.85V91.75L32.25 91.55V91.45V91.35V91.25H32.15H32.05H31.95H31.85H31.75V91.15H31.65L31.55 91.05V90.95V90.85V90.75V90.65H31.45H31.35V90.55H31.25L31.05 90.45H30.95H30.85V90.35H30.75V90.25H30.65V90.15V90.05V89.95L30.75 89.85V89.75V89.65V89.55H30.85V89.45V89.35V89.25L30.75 89.15L30.65 89.05L30.55 88.95L30.45 88.85H30.35V88.75H30.25V88.65L30.35 88.55V88.45V88.25H30.45V88.15V88.05V87.95H30.55V87.85V87.75L30.45 87.45L30.35 87.15V87.05L30.45 86.95V86.85V86.75M30.45 86.75H30.55M30.45 86.75L30.35 86.65H30.25V86.55H30.15H30.05H29.95V86.45H29.85V86.35L29.75 86.25V86.15V86.05V85.95H29.65V85.85L29.55 85.75H29.65V85.65V85.55M29.65 85.55H29.75M29.65 85.55V85.45L29.55 85.35H29.45V85.25H29.55V85.15L29.65 84.95L29.55 84.75L29.45 84.65V84.45V84.35L29.55 84.15V84.05V83.95H29.65H29.75V83.85V83.75L29.95 83.65L30.05 83.45L30.25 83.25V83.15H30.15V83.05H30.05V82.95L29.95 82.85H29.85L29.75 82.75V82.65H29.65V82.55H29.55V82.45V82.35H29.45L29.25 82.25L29.05 82.05H28.95V81.95V81.85V81.75H29.05V81.65H29.15V81.55V81.45H29.25V81.35H29.35V81.25V81.15V81.05V80.95V80.85V80.75H29.45V80.65H29.55V80.55H29.65V80.45V80.35H29.75V80.25V80.15H29.85V80.05V79.95V79.85L29.95 79.75H29.85V79.65V79.55L29.75 79.45H29.65L29.55 79.25L29.45 79.15H29.35H29.25H29.15H29.05H28.95H28.85L28.75 79.25L28.65 79.35L28.55 79.45V79.55L28.45 79.65H28.35V79.75V79.85H28.25H28.15H28.05H27.95L27.85 79.75H27.75L27.65 79.65V79.75V79.85V79.95V80.05V80.15V80.25H27.55V80.35H27.45V80.45H27.35H27.25L27.15 80.55V80.65V80.75H27.05M27.05 80.75V80.85M27.05 80.75H26.95L26.85 80.65L26.75 80.55V80.45H26.65H26.55H26.45L26.35 80.55V80.65H26.25H26.15H26.05V80.75H25.95M25.95 80.75V80.65M25.95 80.75H25.85L25.75 80.85H25.65H25.55H25.45V80.95V81.05H25.35V81.15H25.25V81.25V81.35H25.15V81.45H25.05V81.55H24.95V81.65H24.85V81.75H24.75V81.65H24.65H24.55V81.55H24.45V81.45H24.35L24.25 81.35H24.15L24.05 81.45V81.35H23.95L23.85 81.45H23.75H23.65V81.55H23.55V81.45H23.45V81.35L23.35 81.25L23.25 81.35H23.15V81.45H23.05V81.55H22.95V81.65H22.85V81.75V81.85V81.95H22.75V82.05H22.65V82.15V82.25V82.35V82.45V82.55H22.55V82.65H22.45V82.75L22.35 82.95V83.05H22.25V83.15V83.25H22.15V83.35H22.05H21.95V83.45H21.85V83.55V83.65V83.75H21.95V83.85V83.95H22.05V84.05H22.15V84.15V84.25L22.25 84.35H22.15V84.45L22.05 84.55H21.95H21.85V84.65H21.75L21.65 84.75V84.85H21.55L21.45 84.95H21.35H21.25H21.15V84.85H21.05H20.95H20.85H20.75L20.65 84.75H20.55V84.65H20.45V84.55L20.35 84.65H20.25H20.15L20.05 84.55H19.95H19.85V84.45H19.75H19.55H19.45H19.35V84.35H19.25V84.25H19.15V84.15L19.05 84.05H18.95L18.85 83.95L18.75 83.85V83.75L18.65 83.65V83.55V83.45L18.55 83.35V83.25V83.15V83.05V82.95L18.65 82.85H18.75V82.75H18.85V82.65V82.55H18.95V82.45L19.05 82.35L19.15 82.25L19.05 82.15V82.05V81.95V81.85V81.75V81.65V81.55V81.45L18.95 81.35V81.25V81.15H19.05V81.05H19.15V80.95H19.25L19.35 80.85V80.75V80.65V80.55V80.45H19.25V80.35H19.15V80.25V80.15L19.25 80.05L19.15 79.95V79.85H19.05V79.75L19.15 79.65V79.55L19.05 79.45L18.95 79.35H18.85V79.25V79.15V79.05H18.95H19.05V78.95V78.85V78.75V78.65V78.55L19.15 78.45V78.35H19.25L19.35 78.25H19.45V78.15H19.55V78.05V77.85V77.75H19.45H19.35L19.25 77.65H19.15H19.05H18.95L18.85 77.55H18.75V77.45V77.35L18.65 77.25L18.55 77.15V77.05H18.45M18.45 77.05V76.95M18.45 77.05L18.35 77.15L18.25 77.25H18.15V77.35H18.05H17.95V77.45L17.85 77.55H17.75V77.65H17.65H17.55V77.55H17.45V77.65H17.35H17.25V77.75H17.15V77.65H17.05V77.55H16.95H16.85H16.75L16.65 77.45H16.55L16.45 77.55V77.65H16.35H16.25V77.75H16.15H16.05H15.95L15.85 77.65L15.55 77.35L15.25 76.95H15.15V76.85H15.05V76.75H14.95H14.85V76.65H14.75V76.55V76.45L14.85 76.35V76.25V76.15V76.05H14.75V75.95H14.85V75.85V75.75L14.75 75.65H14.65L14.55 75.75H14.25H14.15H14.05L13.95 75.65H13.85H13.65H13.55V75.55H13.45L13.35 75.65H13.25V75.55V75.45V75.35V75.25H13.15V75.15H13.05V75.05H12.95H12.85V74.95L12.75 74.85L12.65 74.75V74.65V74.55V74.45H12.75L12.85 74.35V74.25V74.15H12.95V74.05H12.85H12.75H12.65V73.95H12.55V73.85H12.45V73.75V73.65V73.55V73.45V73.35V73.25V73.15L12.55 73.05H12.65H12.75V72.95V72.85V72.75H12.85V72.65L12.95 72.55H12.85V72.45V72.35V72.25V72.15V72.05V71.95L12.75 71.85H12.85H12.95V71.75V71.65L12.85 71.55V71.45L12.75 71.35V71.25H12.65V71.15H12.55V71.05H12.45H12.35H12.25V70.95H12.15V70.85H12.05H11.95L11.85 70.95H11.75V71.05H11.65V70.95H11.55V70.85L11.45 70.75L11.35 70.65H11.25L11.15 70.75H11.05H10.95H10.85H10.75V70.65H10.65H10.55H10.45H10.35V70.55H10.25V70.65H10.15V70.75V70.85H10.05V70.95H9.95V71.05H9.85V71.15H9.75V71.25H9.65H9.55H9.45H9.35H9.25H9.15H9.05M9.05 71.25V71.15M9.05 71.25H8.95H8.85H8.75H8.65H8.55H8.45L8.35 71.15H8.25V71.05H8.15V70.95H8.05V70.85H7.95L7.85 70.75H7.75L7.65 70.65H7.45V70.55H7.35V70.45V70.35H7.25V70.25V70.15H7.15V70.05V69.95V69.85H7.05V69.75H6.95V69.65L6.85 69.55V69.45V69.35L6.75 69.25V69.15H6.65V69.05H6.55H6.45H6.35H6.25V68.95H6.15V68.85V68.75V68.65L6.05 68.55H5.95H5.85V68.45H5.75V68.35V68.25H5.65V68.15H5.55V68.05H5.45H5.35V67.95H5.25V67.85H5.15H5.05V67.75H4.95H4.85V67.65L4.95 67.55V67.45V67.35H5.05V67.25H4.95V67.15V67.05H4.85V66.95V66.85L4.95 66.75V66.65V66.55H4.85V66.45H4.75V66.35H4.65V66.25L4.55 66.15H4.45L4.35 66.05H4.25H4.15H4.05H3.95H3.85H3.75V66.15V66.25H3.65V66.15H3.55M3.55 66.15V66.25M3.55 66.15L3.45 66.05H3.35H3.25H3.15V66.15H3.05H2.95V66.05H2.85V65.95V65.85V65.75L2.75 65.65L2.65 65.55V65.45V65.35V65.25V65.15H2.55L2.45 65.05H2.35V65.15H2.25V65.05H2.15V64.95H2.05L1.95 64.85H1.85V64.75H1.75L1.65 64.65H1.55H1.45H1.35H1.25H1.15H1.05L0.949997 64.55L0.849998 64.65H0.75H0.650002H0.550003H0.449997L0.349998 64.55V64.45V64.35V64.25H0.449997V64.15V64.05V63.95V63.85V63.75V63.65V63.55H0.349998H0.25V63.45V63.35H0.349998V63.45H0.449997H0.550003V63.35L0.650002 63.25V63.15L0.75 63.05V62.95V62.85V62.75V62.65V62.55V62.45H0.849998V62.35V62.25V62.15H0.949997V62.05L1.05 61.95V61.85V61.75V61.65V61.55H1.15V61.45H1.25V61.35L1.35 61.25V61.15V61.05H1.45V60.95M1.45 60.95H1.35M1.45 60.95V60.85H1.55V60.75H1.65V60.65H1.75V60.55H1.85V60.45V60.35H1.75L1.85 60.25V60.15L1.95 60.05V59.95L1.85 59.85H1.75V59.75H1.65V59.65V59.55V59.45H1.55V59.35L1.45 59.15V59.05V58.95V58.85V58.75V58.65L1.55 58.55H1.45V58.45L1.35 58.35L1.25 58.25H1.15V58.15V58.05H1.05V57.95L0.949997 57.85L0.849998 57.75V57.55V57.45L0.75 57.35V57.25L0.550003 57.15L0.75 56.95L0.949997 56.85L1.15 56.65H1.25V56.55V56.35V56.25H1.35L1.45 55.95V55.85V55.75L1.35 55.65V55.55H1.45V55.45H1.55L1.65 55.35H1.75V55.25H1.65L1.55 54.95L1.45 54.75V54.65H1.55V54.55V54.35L1.65 54.15L1.75 53.95V53.85V53.75H1.85V53.65L1.95 53.55H2.05V53.45V53.35H2.15H2.25H2.35L2.55 53.45H2.65L2.75 53.35H2.85L2.95 53.25H3.35V53.15V52.95V52.85V52.75V52.65V52.55H3.25L3.05 52.45H2.85H2.75L2.65 52.55H2.55H2.45H2.35V52.45L2.05 52.35V52.25H1.95H1.85V52.15L1.75 52.05L1.65 51.85V51.75V51.65H1.55L1.65 51.55V51.45V51.35L1.55 51.25V51.15L1.45 51.05L1.35 50.85L1.25 50.65V50.55H1.15V50.45V50.35V50.15V50.05L1.25 49.95V49.85L1.35 49.75V49.65L1.45 49.15L1.65 48.85V48.75L1.75 48.55L1.85 48.35L1.95 48.15V48.05L2.05 47.85L2.15 47.75V47.65V47.55L2.25 47.35V47.15V46.95V46.85L2.15 46.75H2.05L1.95 46.65V46.55V46.45V46.35V46.25H1.85V46.15H1.75L1.55 46.05L1.45 45.95H1.35V45.85V45.75L1.25 45.65V45.55V45.45H1.35V45.35H1.45L1.55 45.25L1.65 45.15L1.75 45.05H1.85V44.95L1.95 44.85L2.05 44.75V44.65H2.15V44.55H2.25L2.35 44.45V44.35H2.45V44.25L2.55 44.15L2.65 43.95V43.85L2.75 43.75L2.85 43.65L2.95 43.55V43.45H3.05H3.15H3.25V43.35H3.35L3.55 43.15H3.65V43.05L3.75 42.95L3.85 42.85L4.05 42.65L4.15 42.55L4.25 42.45H4.15V42.35V42.25V42.15V42.05V41.95H4.05V41.85V41.75V41.65V41.55H4.15H4.25L4.35 41.45H4.45L4.55 41.35H4.65V41.25L4.75 41.15V41.05H4.85L5.05 41.15V41.25V41.35V41.45H5.15V41.55L5.25 41.65L5.35 41.75H5.45H5.55H5.65V41.65L5.75 41.55V41.45H5.85L5.95 41.55H6.05L6.15 41.45L6.25 41.35V41.25H6.35V41.15L6.45 40.95L6.55 40.85H6.65V40.75V40.65V40.55V40.45V40.35H6.75H6.85V40.25L6.95 40.15V40.05V39.95V39.85V39.75V39.65H6.85V39.55H6.95V39.45V39.35V39.25V39.15L7.05 38.85L7.15 38.75V38.65L7.25 38.55L7.35 38.45H7.45V38.35V38.25H7.35V38.15H7.25V38.05H7.15L7.05 37.95H6.95V37.85L6.85 37.75H6.95V37.65L7.15 37.45V37.35V37.25H7.25V37.15L7.35 37.05V36.95H7.25V36.85V36.75L7.35 36.65V36.55L7.45 36.45L7.55 36.35V36.25V36.15L7.65 36.05H7.75H7.85V35.95L7.95 35.85V35.75H8.05L8.35 35.95L8.45 35.85V35.75H8.55V35.65L9.05 36.25L9.15 36.15H9.25H9.35V36.05L9.55 35.95L9.75 35.75L9.95 35.55V35.15V35.05L10.15 34.95L10.35 34.85V34.75H10.45L10.55 34.65H10.65L10.75 34.55V34.45V34.35V34.25V34.15V33.95H10.95H11.15L11.45 34.25L11.65 34.45L11.75 34.55L11.95 34.45L12.05 34.35H12.15V34.25H12.25V34.35H12.35L12.45 34.45L12.55 34.55L12.65 34.65L12.75 34.75L12.85 34.95V35.05L12.95 35.15V35.25H13.05L13.15 35.35V35.25H13.25H13.35L13.45 35.15L13.55 35.05H13.75H13.85H14.05H14.15H14.25V34.95H14.35V34.85H14.45V34.75H14.55H14.65L14.85 34.85H15.15H15.55L15.85 34.95L16.55 35.05H16.65L17.05 35.15L17.25 35.25H17.35L17.45 35.35H17.55L18.05 35.65L18.15 35.75L18.45 35.85L18.55 35.65L18.65 35.55V35.45L18.75 35.15L18.85 35.05H18.95V34.95L19.25 34.75L19.35 34.65L19.45 34.55H19.55V34.45H19.65V34.35L19.75 34.25V34.15H19.85L20.05 34.05L20.25 33.95L20.35 33.75H20.45L20.95 33.55H21.05V33.45L21.15 33.35L21.25 33.25V33.15H21.35L21.45 33.05V32.95H21.55V32.85L21.65 32.75H21.75H21.85L21.95 32.85H22.05H22.15L22.25 32.95L22.35 33.05V33.15H22.45L22.55 33.25H22.65L22.85 33.35H23.05L23.15 33.45H23.35L23.45 33.55V33.45L23.55 33.55H23.65V33.65H23.75V33.75V33.85H23.85V33.95V34.05V34.15H23.75V34.25L23.85 34.35V34.45H23.95L24.15 34.55H24.25L24.35 34.45L24.45 34.35L24.55 34.15L24.65 34.05L24.85 33.85H24.95L25.15 33.75V33.65L25.25 33.55L25.35 33.45V33.35H25.45V33.25L25.55 33.15L25.65 32.95L25.75 32.75L25.85 32.65L25.95 32.35L26.15 32.15L26.35 32.25H26.45H26.55H26.65H26.75H26.85H26.95H27.05H27.15V32.35H27.25L27.35 32.25V32.15H27.45V32.05L27.65 32.15L27.75 32.25H27.85L28.15 32.35H28.25V32.45L28.45 32.55L28.55 32.65H28.65L28.85 32.75H29.05L29.15 32.85H29.25H29.35H29.45H29.55L29.75 32.75H29.85H30.05L30.15 32.65L30.25 32.75H30.35V32.85V32.95H30.45V33.05L30.55 33.15L30.65 33.25V33.35V33.45L30.75 33.55L30.85 33.65H30.95H31.05V33.75H31.15H31.25H31.35L31.55 33.65V33.45L31.45 33.05L31.55 32.95V32.85L31.65 32.75V32.65H31.75L31.85 32.45H31.95H32.15H32.35V32.55H32.45L32.55 32.65H32.65H32.75V32.75L32.85 32.85H32.95L33.05 32.95V32.85L33.15 32.75L33.35 32.55L33.65 32.25L33.55 32.15L33.65 32.05H33.75L33.85 32.15H33.95L34.25 32.35H34.35H34.45L34.75 32.45L34.95 32.35H35.05L35.45 32.05V31.95L35.55 31.85L35.65 32.05L35.75 31.95V31.85H35.85V31.75L36.05 31.65L36.15 31.45H36.35V31.35L36.45 31.25L36.65 31.05L37.15 30.75L37.35 30.55H37.45H37.55H38.05L38.15 30.45H38.25H38.35H38.45L38.65 30.35H38.75L38.85 30.25H38.95V30.15H39.05H39.15H39.25V30.05L39.45 29.95H39.55L39.75 29.85V29.75H39.85H39.95V29.65H40.05H40.15H40.25H40.35L40.45 29.55H40.55H40.65L40.75 29.65H40.85V29.55H40.95H41.05V29.45L41.15 29.15H41.45H41.55V29.05H41.85H41.95L42.15 28.95H42.55L42.65 29.25H42.75L42.85 29.45L42.95 29.55L43.05 29.65L43.25 29.75V29.85L43.35 29.95L43.45 30.05L43.65 30.15L43.85 30.25L44.05 30.35V30.45L44.15 30.55H44.25V30.45H44.35H44.55V30.35H44.65H44.75V30.25H44.95L45.05 30.15H45.15V30.05L45.25 29.95V29.85H45.05V29.75L45.15 29.55V29.45V29.35V29.25H45.05V29.15V29.05L44.95 28.95V28.85V28.75L45.05 28.65V28.55L45.15 28.45L45.25 28.35V28.15H45.35V28.05L45.25 27.95V27.85L45.15 27.65V27.55H45.25L45.35 27.35L45.55 27.15H45.45V27.05H45.35V26.95V26.85H45.55H45.65L45.55 26.55V26.45V26.35L45.65 26.05L45.75 25.95L45.85 25.75V25.65L45.65 25.75H45.55H45.45H45.35L45.25 25.65L45.15 25.55H45.05H44.95H44.85H44.75L44.55 25.65L44.35 25.75H44.05L43.85 25.85H43.65L43.45 25.95H43.25H43.05H42.85H42.75H42.65L42.55 25.85L42.45 25.75H42.35H42.25L42.15 25.65H41.95H41.85H41.75H41.65H41.55H41.45L41.35 25.55H41.25H41.15V25.45H41.05H40.95V25.55H40.85H40.75H40.65V25.45H40.55V25.25V25.15L40.45 24.95L40.35 24.85L40.45 24.75H40.55L40.65 24.15L40.75 23.95H40.85H40.95V23.85V23.75V23.65V23.25L41.05 23.15L40.95 22.95V22.85L41.05 22.55H41.35L41.45 22.35V22.25L41.55 22.05V21.85H41.45H41.25V21.65V21.45L40.65 21.15H40.55H40.45L40.35 21.05L40.25 20.95L40.15 21.05L40.05 21.15V21.25L39.95 21.35H39.85L39.65 21.45H39.55L39.35 21.65L39.25 21.75L39.15 21.85L38.95 21.95V22.05L38.75 22.15H38.65H38.55L38.45 21.75L38.35 21.55V21.45V21.35H38.25V21.15V21.05V20.95V20.75V20.65V20.55V20.45V20.35L38.35 19.95V19.55V19.45L38.45 19.15L39.65 19.35L39.85 19.45L40.45 19.55V19.45H40.65L40.75 19.25L41.15 18.85L41.25 18.65L41.45 18.85L41.75 19.15L42.25 19.55L42.35 19.75V19.65V19.55H42.45V19.45V19.25L42.65 18.85V18.75L42.75 18.65L42.85 18.55L42.95 18.35L43.05 18.05V17.85L43.15 17.75H43.25V17.65H43.35V17.55L43.45 17.45V17.35L43.25 17.25H43.05V17.15V16.95L43.15 16.65V16.55V16.35V16.25H42.95H42.85L42.95 16.15L43.05 15.95L43.25 15.85L43.35 15.95V16.05H43.45H43.55V15.95V15.85V15.75L43.65 15.65L43.75 15.55H43.85L43.75 15.25L43.85 15.15H43.95H44.05H44.15V15.05H44.25L44.35 14.95L44.45 14.85H44.55H44.65L44.75 14.75L44.85 14.65V14.55V14.45V14.35H44.95L45.25 14.15L44.95 13.95L44.55 13.85V13.65H44.35V13.55L43.65 13.15H43.55H43.45H43.35H43.25L42.75 13.05V12.65L42.85 12.55V12.45V12.35L42.75 12.25V12.15V12.05L42.65 11.95L42.45 11.85L42.35 11.75L42.15 11.65V11.55V11.35L42.05 10.95V10.85V10.75V10.65V10.45V10.35H41.95H41.85L41.95 9.85001L42.05 9.75L42.35 9.45001L42.55 9.35001L43.05 9.25L43.55 9.14999H43.85V9.04999L43.95 8.45001L44.05 8.25V8.04999L44.15 7.75V7.35001L44.25 6.95001L44.05 7.04999V6.85001L43.75 6.35001V6.25L43.65 5.85001L43.55 5.54999L43.45 5.45001V5.25L43.55 5.14999L43.65 5.04999L43.75 4.85001L43.85 4.75V4.64999H43.95V4.54999H44.05L44.15 4.45001V4.54999H44.25H44.35H44.45H44.55H44.65H44.75H44.85H44.95H45.05H45.15H45.25H45.35H45.45V4.45001L45.55 4.35001H45.65V4.04999V3.95001L45.55 3.85001V3.75L45.45 3.64999V3.54999V3.25L45.35 3.14999V3.04999V2.95001V2.85001L45.25 2.75V2.54999V2.45001V2.35001H45.15V2.25L45.05 2.04999L45.15 1.95001L45.25 1.85001L45.75 1.54999V1.45001L45.85 1.35001H45.95V1.25V1.14999H46.05V1.04999V0.950012H46.15V0.850006H46.25H46.35H46.45L46.85 1.14999L46.75 0.950012V0.649994V0.550003H46.85H46.95V0.649994H47.05H47.15L47.45 0.75V0.649994H47.35L47.15 0.550003L47.05 0.449997L46.95 0.350006L47.05 0.25H47.15H47.35L48.15 0.550003V0.449997H48.35L48.45 0.550003H48.55L48.65 0.649994L48.75 0.75V0.850006V1.14999V1.25H48.85L48.95 1.35001H49.05V1.45001H49.15H49.25H49.35L49.45 1.54999H49.55V1.64999V1.75M49.55 1.75H49.65M49.55 1.75V1.85001H49.45L49.35 1.95001H49.25H49.15V1.85001H49.05H48.95L48.85 1.95001V2.04999L48.75 2.14999L49.05 2.35001L49.15 2.45001H49.05V2.54999V2.64999V2.75L49.45 3.04999L49.35 3.14999V3.25L49.45 3.14999H49.55H49.65H49.75H49.85V3.04999V2.95001H49.95H50.05V3.04999H50.15H50.25V3.14999H50.35H50.45H50.55V2.95001H50.65V2.85001H50.75L50.85 2.75H50.95L51.05 2.64999L51.35 2.54999L51.65 2.35001L51.95 2.25V2.14999H52.05V2.25H52.15V2.35001V2.45001V2.54999V2.64999H52.25V2.75M52.25 2.75H52.15L52.25 2.85001V2.75ZM52.25 2.75L52.35 2.85001H52.45L52.55 2.95001L52.65 3.04999L52.75 3.14999V3.25L52.85 3.35001H52.95L53.05 3.45001L53.15 3.54999H53.25L53.35 3.64999H53.45L53.55 3.75L53.65 3.85001L53.75 3.95001L54.25 4.14999L54.35 4.04999H54.45L54.65 4.14999V4.25L54.75 4.35001V4.45001H54.85V4.54999L54.95 4.64999H55.05V4.75V4.85001L55.35 5.04999L55.45 4.75H55.65L55.75 4.85001H56.05L56.15 4.75L56.25 4.54999V4.45001L56.35 4.54999H56.45V4.64999L56.55 4.75H56.65H56.75V4.85001H56.85H56.95V4.95001H57.05H57.15L57.25 5.04999L57.35 5.14999H57.45V5.04999H57.55H57.65H57.75L57.85 5.14999L58.05 5.25H58.15L58.25 5.35001H58.45H58.65L58.75 5.25H58.85H58.95H59.15L59.25 5.14999H59.35H59.45H59.55V5.25H59.65L59.75 5.35001H59.85V5.45001H59.95V5.54999H60.05V5.64999H59.95V5.75V5.95001V6.04999L59.75 6.14999V6.25V6.35001H59.85H59.95V6.45001H60.05V6.54999L60.15 6.64999V6.75V6.85001H60.25L60.35 7.04999L60.45 7.14999V7.25L60.55 7.35001H60.65V7.45001H60.75V7.54999L60.85 7.64999L60.75 7.75V7.85001V7.95001V8.04999H60.85V8.14999V8.25H60.95V8.35001V8.45001L61.05 8.54999V8.64999V8.75V8.85001H61.15V8.95001L61.25 9.04999L61.35 9.14999L61.45 9.25H61.55V9.35001L61.65 9.45001V9.54999L61.75 9.64999V9.75H61.85V9.85001V9.95001L61.95 10.05L62.05 10.15V10.25V10.35V10.45V10.55L61.95 10.65H61.85V10.75L61.95 10.85V10.95H62.05V11.05V11.15V11.25H62.15V11.35V11.45V11.55H62.25V11.65V11.75V11.85V11.95H62.15V12.05V12.15L62.25 12.25V12.35V12.45V12.55V12.65V12.75V12.85L62.15 13.05V13.15H62.25V13.25V13.35V13.55L62.35 13.65V13.75H62.45L62.55 13.85V13.95H62.45V14.05H62.65H62.85H63.15H63.35L63.45 13.95L64.05 13.35H64.15L64.35 13.65H64.55H64.85L64.95 13.75H65.05V13.85V13.95H64.95V14.05V14.15L65.05 14.35V14.45V14.55L65.15 14.65V14.75L65.05 14.85V14.95H65.15V15.05V15.25V15.35L65.25 15.45V15.55L65.35 15.65V15.75L65.45 15.85L65.55 15.95L65.65 16.05H65.75V16.15L65.85 16.25H66.05V16.35H66.15L66.25 16.45L66.35 16.55L66.45 16.65L66.55 16.75V16.85H66.45H66.35H66.25H66.15V16.95L66.05 17.15V17.45V17.65L65.75 17.55V17.75V17.85V17.95L65.65 18.05V18.15V18.25L65.55 18.35V18.45V18.55L65.45 18.45L65.35 18.55V18.65L65.25 18.85L64.95 18.75V18.95V19.15V19.35V19.45V19.55L65.05 19.65V19.75V19.85H65.15V19.95V20.05H65.05V20.15V20.35V20.55V20.75V20.85L64.95 20.95V21.15V21.45V21.55H65.05H65.15H65.25L65.35 21.65H65.45H65.55L65.65 21.95V22.15L65.75 22.45V22.55V22.65V22.75V22.95V23.05V23.15V23.25H65.85V23.35H65.95H66.05L66.15 23.45H66.25L66.35 23.55H66.45L66.55 23.65H66.65H66.75H66.85H66.95H67.05H67.15L67.25 23.75L67.35 23.85H67.45V23.95L67.65 24.05H67.75H67.85V24.15H67.95L68.05 24.25V24.35H68.15H68.25V24.45H68.35V24.55H68.45L68.55 24.75H68.65V24.85H68.75L68.85 24.95H68.95L69.05 25.05H69.15H69.25L69.35 25.15H69.45H69.55H69.65H69.75H69.95L70.05 25.25H70.15L70.25 25.35V25.45V25.55V25.65V25.85L69.95 25.95L69.75 26.05L69.65 26.15L69.55 26.25H69.35V26.35H69.25L69.15 26.45L68.85 26.75L68.55 26.95L68.35 27.25L68.15 27.75V27.85H68.05V27.95L67.95 28.15V28.25L67.85 28.35L67.75 28.45L67.45 28.65L67.25 28.95L67.15 29.05L67.05 29.15L66.95 29.25L66.85 29.35L66.75 29.45L66.55 29.65L66.45 29.75V29.85V29.95V30.05V30.15V30.25L66.35 30.35V30.45V30.55H66.45V30.65V30.75L66.35 30.85V30.95H66.45H66.55V31.05V31.15H66.65V31.25L66.75 31.15L66.85 31.05H66.95V31.15V31.25L67.05 31.35L67.15 31.45L67.25 31.55L67.35 31.85H67.45V31.95L67.55 32.15V32.25H67.65V32.35H67.75V32.45H67.85L67.95 32.55L68.15 32.75H68.25V32.85V32.95L68.35 33.05V33.15H68.45V33.25V33.35L68.55 33.45V33.55H68.65H68.75V33.65H68.95H69.15H69.45H69.55H69.65H69.85H69.95V33.75H70.05H70.25H70.35H70.45H70.65H70.75L70.95 33.85H71.05H71.15H71.25L71.35 33.75L71.45 33.65V33.75H71.55L72.05 34.05V34.15H72.15L72.25 34.25H72.35L72.55 34.35V34.45H72.75V34.55M72.75 34.55H72.85M72.75 34.55V34.65V34.75V34.85M72.75 34.85H72.85M72.75 34.85V34.95L72.65 35.05V35.15V35.25H72.55V35.35V35.45H72.45V35.55V35.65V35.75V35.85L72.35 35.95V36.05L72.45 36.15L72.55 36.25V36.35V36.45V36.55L72.65 36.65H72.55V36.75L72.45 36.85H72.35V36.95V37.05L72.25 37.15L72.45 37.25L72.65 37.35L72.75 37.45H72.95V37.25V37.15H73.05V37.45H73.25V37.55V37.65V37.75L73.15 37.95V38.05H73.05H72.95L72.85 37.95L72.75 38.05H72.65L72.25 37.95H72.15H72.05H71.85V37.75L71.75 37.65L71.65 37.75V37.65H71.55L71.15 37.45H71.05L70.85 37.35L70.75 37.55L70.65 37.35L70.15 37.25L69.75 37.15H69.65V37.25L69.45 37.15L69.35 37.25L69.25 37.35L69.15 37.45H69.25L69.35 37.75V37.85V37.95H69.25V38.05V38.15V38.25V38.35H69.15H69.05H68.95V38.45H68.85V38.55V38.65V38.75V38.85V38.95V39.05V39.15H68.75V39.25V39.35V39.45V39.55L68.85 39.65H68.95H69.05H69.15M69.15 39.65V39.55M69.15 39.65L69.25 39.75V39.85L69.35 39.95V40.05H69.45V40.15L69.55 40.25L69.75 40.35L69.85 40.55H69.95V40.65H70.05L70.15 40.75H70.25V40.85V40.95L70.35 41.05V41.15H70.45V41.25H70.55H70.65V41.35H70.75L70.85 41.45L70.95 41.55L71.05 41.65H71.15L71.25 41.75L71.35 41.85H71.45L71.55 41.95L71.65 42.05V42.15V42.25L71.75 42.35L71.85 42.45L71.95 42.55L72.05 42.65L72.15 42.75V42.85L72.25 42.95V43.05V43.15V43.25L72.15 43.35V43.45L72.05 43.55L71.95 43.65H71.85V43.75V43.85V43.95V44.15L71.95 44.05L72.25 43.95L72.45 43.85L72.75 43.75L73.05 43.55H73.15H73.25L73.55 43.35L73.75 43.25L73.85 43.15H73.95V43.05H74.05V42.95H74.15L74.25 42.85L74.35 42.75H74.45V42.65H74.55L74.65 42.75H74.75V42.85H74.85L74.95 42.95L75.05 43.05L75.15 43.15H75.25V43.25H75.35V43.35V43.45H75.45H75.55V43.55H75.65V43.65H75.75H75.85H75.95L76.05 43.75H76.15V43.85V43.95L76.25 44.05H76.35L76.45 44.15H76.55H76.65V44.25H76.75H76.85H76.95L77.15 44.35L77.25 44.45H77.35H77.45V44.55H77.55V44.65H77.45L77.55 44.75H77.65H77.95H78.05V45.05H78.15H78.25V44.95H78.35H78.45V44.85H78.55L78.45 44.75H78.55V44.65L78.65 44.55H78.75L78.85 44.45L78.75 44.35V44.25L78.85 44.15V44.05L78.95 43.95H79.05V43.85H79.15V43.75H79.25H79.35L79.45 43.85L79.55 43.95V44.05L79.45 44.15L79.25 44.35V44.45L79.15 44.55V44.65L79.05 44.75V44.95V45.05V45.15V45.25V45.35V45.45V45.55H79.15V45.65V45.75L79.25 45.85V45.95V46.05L79.15 46.15H79.05L79.15 46.25V46.35H79.25L79.35 46.45V46.55L79.55 46.65H79.65L79.75 46.75H79.95L80.05 46.85L80.15 46.95H80.25L80.35 47.05V47.15V47.25L80.45 47.35H80.55L80.65 47.45L80.85 47.55L80.95 47.65L81.05 47.75V47.85V47.95V48.05H80.95V48.15L80.85 48.25L80.75 48.35L80.65 48.45L80.55 48.55L80.45 48.65L80.25 48.75L80.15 48.85L79.85 48.95L79.75 49.05L79.65 49.15V49.25H79.55V49.35V49.45V49.55L79.65 49.65V49.85L79.75 50.05L79.85 50.15L79.95 50.35L80.05 50.45V50.55V50.65L80.15 50.85V50.95V51.05V51.25L80.25 51.35L80.35 51.65L80.45 51.75V51.85V51.95V52.05V52.15V52.25V52.35V52.45L80.55 52.55V52.65V52.75V52.85V52.95V53.05V53.15H80.75L80.85 53.25H80.95V53.35L81.05 53.45H81.15L81.25 53.55L81.35 53.65L81.45 53.75L81.65 53.85H81.75H81.85H81.95L82.05 53.65H82.15L82.25 53.55V53.35L82.35 53.25V53.15V53.05V52.95V52.85V52.75V52.65V52.45V52.35V52.25L82.25 52.15H82.15V52.05L82.05 51.95V51.85V51.75V51.65H82.15V51.55H82.25V51.45V51.35L82.35 51.25H82.45H82.55L82.65 51.15L82.85 50.85L83.05 50.65L83.35 50.45V50.35H83.45V50.25H83.55V50.15L83.65 50.05V49.95L83.55 49.85V49.75H83.45L83.35 49.65V49.55L83.25 49.45V49.35V49.25V49.15V49.05H83.35H83.45L83.55 49.15L83.65 49.25H83.75L83.85 49.35L83.95 49.45H84.05L84.15 49.55H84.25V49.45H84.35H84.45V49.35H84.55V49.25L84.65 49.15L84.75 49.05L84.85 48.95L84.95 48.85L85.05 48.75H85.15H85.25H85.35H85.45L85.55 48.85V48.95L85.65 49.05V49.15V49.25V49.35V49.45V49.55L85.55 49.75V49.85V49.95L85.45 50.05L85.35 50.15V50.25L85.25 50.35V50.45V50.55V50.65V50.75V50.85V50.95V51.05V51.25V51.35V51.45V51.55V51.65V51.85V51.95V52.05V52.15V52.25L85.15 52.35V52.55V52.65L85.05 52.85V52.95L84.95 53.15V53.25L84.85 53.35L84.75 53.55V53.75L84.65 53.85L84.55 54.05V54.15L84.45 54.25L84.35 54.45L84.25 54.55V54.75L84.15 54.95V55.05V55.15V55.25H84.25V55.35H84.35H84.45H84.55H84.75H84.95L85.05 55.25L85.15 55.15L85.25 55.05V54.85L85.35 54.55V54.35V54.25L85.45 54.15V54.05L85.55 53.95V53.85H85.65V53.75H85.75H85.95H86.15H86.25H86.35H86.45H86.65H86.75H86.85H86.95H87.15L87.35 53.85H87.45L87.65 53.95L87.75 54.05H87.85H87.95V54.15V54.25L88.05 54.35V54.45V54.55H88.15V54.65V54.75V54.85V54.95V55.05V55.15L88.25 55.25V55.35H88.35V55.45H88.45H88.55H88.65L88.75 55.55H88.85L88.95 55.45H89.05L89.25 55.35H89.35L89.45 55.25H89.55H89.65H89.75H89.85V55.35H89.95L90.05 55.45V55.55V55.65V55.75V55.95H90.15H90.25H90.65H91.05L90.95 55.85V55.65V55.55L90.85 55.45V55.35V55.25V55.15V55.05V54.95V54.85V54.75V54.65V54.55H90.95V54.45H91.05L91.15 54.35H91.25H91.45L91.55 54.25L91.65 54.35H91.75H91.85H91.95H92.05H92.15L92.25 54.45L92.35 54.55H92.55L92.65 54.65H92.75H92.85L93.05 54.75L93.15 54.85L93.25 54.95H93.35H93.45H93.55L93.65 55.05L93.75 55.15L93.95 55.25H94.15L94.45 55.35L94.65 55.45H94.75L94.85 55.55H95.05H95.15H95.25H95.35H95.55V55.45L95.65 55.35H95.75V55.25V55.15V55.05V54.95L95.65 54.65L95.45 54.45L95.35 54.35L95.25 54.15L95.15 54.05V53.95V53.85V53.75V53.65V53.55H95.25V53.45H95.35L95.45 53.35H95.55H95.65H95.75L95.85 53.45L95.95 53.55H96.05L96.15 53.65H96.35L96.45 53.75H96.55L96.65 53.95L96.75 54.05H96.85L96.95 54.15H97.05V54.25H97.15V54.35H97.25V54.45V54.55H97.35L97.25 54.65V54.75L97.15 54.95L97.05 55.05L96.95 55.15L96.85 55.25V55.35L96.65 55.55H96.55V55.65H96.45L96.35 55.75V55.85V55.95V56.05V56.25L96.45 56.35L96.55 56.45L96.65 56.55L96.85 56.65H96.95L97.05 56.75H97.15H97.25L97.35 56.85L97.45 56.95L97.65 57.05H97.75L97.85 57.15H97.95L98.05 57.25L98.15 57.35L98.25 57.45H98.35V57.55H98.45V57.65L98.55 57.75L98.65 57.95V58.05H98.75L98.85 58.15L98.95 58.25L99.05 58.35H99.15L99.35 58.45H99.45H99.55H99.65L99.75 58.55H99.85H99.95L100.05 58.65H100.15H100.25H100.45H100.65H100.75H100.95H101.05H101.15V58.75H101.25L101.35 58.85H101.45V58.95H101.55L101.75 59.15H101.85L101.95 59.25L102.05 59.35L102.25 59.55L102.35 59.65L102.45 59.85L102.55 59.95L102.65 60.15H102.75V60.25H102.85L102.95 60.45L103.05 60.55L103.25 60.75L103.45 61.05L103.55 61.15L103.75 61.35L103.85 61.45L103.95 61.55L104.05 61.65H104.15H104.25V61.75H104.35L104.55 61.85H104.65L104.85 61.95L104.95 62.05L105.05 62.15L105.35 62.35H105.45L105.65 62.45L105.75 62.65H105.85V62.75L105.95 62.85V62.95V63.05V63.15V63.25L105.85 63.35L105.75 63.45L105.65 63.55V63.65H105.55L105.45 63.75L105.25 63.85H105.05L104.65 64.25L104.45 64.35V64.45V64.55L104.35 64.65V64.75L104.45 64.95V65.05L104.55 65.15L104.65 65.25H104.75L104.95 65.35H105.15H105.45L105.65 65.45L105.85 65.55H106.05L106.25 65.65L106.35 65.75L106.45 65.85L106.55 65.95V66.05V66.15V66.25V66.35V66.45L106.45 66.55V66.65L106.35 66.75L106.25 66.95L106.15 67.05L106.05 67.15H105.95L105.75 67.35L105.55 67.45L105.35 67.55L105.25 67.65L105.15 67.75L105.05 67.85L104.95 67.95V68.05V68.15V68.25L105.05 68.35V68.45H105.15L105.25 68.55H105.35L105.25 68.65V68.75L105.05 69.05L104.95 69.15L105.05 69.45L104.95 69.55H104.85L104.75 69.65V69.75H104.65L104.45 69.85V69.95H104.35L104.25 70.05L104.15 70.25L103.95 70.35V70.45L103.85 70.55L103.75 70.75H103.65L103.55 71.05L103.45 71.15V71.25H103.35L103.25 71.45H103.15V71.55V71.65V71.85V71.95V72.05L103.25 72.15L103.35 72.35V72.45V72.55H103.25L103.35 72.75V73.15V73.25L103.45 73.55V73.65V73.75L103.35 74.05V74.35V74.45V74.55V74.65L103.25 74.75V74.95L103.35 75.05L103.45 75.15V75.25L103.55 75.35V75.45V75.55L103.65 75.75V75.85V75.95H103.75V76.05V76.15H103.85V76.25H103.95V76.35H104.05V76.45V76.55L103.95 76.75H103.85H103.75V76.85H103.85V76.95V77.05H103.95V77.15H103.85V77.25V77.35H103.75L103.85 77.45L103.95 77.65L104.05 77.75V77.85V77.95V78.05V78.15H103.95V78.25V78.35L103.85 78.45V78.55L103.95 78.65V78.75V78.85H104.05H104.15H104.25V78.95V79.05V79.15V79.25H104.35V79.35V79.45V79.55V79.65V79.75V79.85V79.95L104.25 80.15V80.25V80.35V80.45V80.55L104.15 80.65V80.75V80.85L104.05 80.95V81.15V81.25L103.95 81.35V81.45V81.55L103.85 81.65V81.75V81.85V81.95V82.05L103.95 82.15V82.25V82.35V82.45V82.55V82.65V82.75V82.85V82.95V83.05V83.15V83.25V83.35V83.45L103.85 83.55V83.65L103.75 83.75V83.85H103.85V83.95V84.05H103.95V84.15V84.25H104.05V84.35H104.15V84.45V84.55H104.25V84.65V84.75V84.85V84.95H104.15V85.05H104.25V85.15V85.25V85.35V85.45V85.55H104.15V85.65H104.05V85.75V85.85V85.95V86.05H104.15V86.15V86.25V86.35H104.25V86.45V86.55V86.65V86.75V86.85H104.35V86.95V87.05H104.45V87.15V87.25V87.35H104.35V87.45V87.55V87.65H104.25V87.75H104.15V87.85V87.95V88.05H104.05V88.15H103.95L103.85 88.25H103.95V88.35V88.45L104.05 88.55V88.65H104.15L104.25 88.55H104.35H104.45V88.45V88.35H104.55H104.65V88.45H104.75V88.55H104.85V88.65H104.95V88.75L104.85 88.85V88.95V89.05H104.75V89.15H104.85V89.25L104.95 89.35V89.45V89.55H104.85V89.65L104.75 89.75V89.85V89.95V90.05L104.85 90.15V90.25H104.95V90.35V90.45V90.55V90.65V90.85H104.85H104.75H104.65H104.55H104.45V90.95H104.35H104.25V91.05H104.15H104.05V91.15H103.95H103.85V91.05H103.75H103.65H103.55H103.45H103.35H103.25L103.15 90.95H103.05H102.95V90.85H102.85H102.75H102.65L102.55 90.95H102.45H102.35H102.25V90.85H102.15H102.05L101.95 90.75H101.85H101.75H101.65V90.65H101.55L101.45 90.75H101.35H101.25V90.65V90.55H101.15H101.05H100.95V90.45H100.85H100.75V90.35H100.65V90.25V90.15L100.55 90.05V89.95H100.45L100.35 89.85H100.25V89.75L100.15 89.65H100.05V89.55H99.95V89.45H99.85H99.75H99.65H99.55H99.45H99.35H99.25V89.35H99.15H99.05H98.95H98.85H98.75H98.65H98.55H98.45H98.35V89.45H98.25L98.15 89.35H98.05L97.95 89.25L97.85 89.35H97.75L97.65 89.45H97.55L97.45 89.35L97.35 89.25H97.25H97.15V89.35H97.05H96.95H96.85H96.75L96.65 89.25H96.55V89.15H96.45V89.25H96.35H96.25H96.15H96.05V89.35H95.95H95.85V89.45L95.75 89.55L95.65 89.65L95.55 89.75H95.45M95.45 89.75V89.85M95.45 89.75H95.35H95.25H95.15H95.05H94.95H94.85H94.75V89.85H94.65V89.95H94.55L94.45 89.85L94.35 89.75H94.25H94.15V89.85H94.05H93.95V89.95M93.95 89.95H93.85M93.95 89.95V90.05V90.15H93.85H93.75H93.65H93.55H93.45H93.35V90.25H93.25H93.15L93.05 90.15H92.95L92.85 90.05H92.75V90.15H92.65L92.55 90.25L92.45 90.45H92.35L92.25 90.55H92.15H92.05V90.65H91.95H91.85L91.75 90.75H91.65V90.85H91.55V90.95H91.45H91.35L91.25 91.05H91.15L91.05 91.15L90.95 91.25L90.75 91.35L90.55 91.45L90.45 91.55H90.35V91.65H90.25L90.15 91.75H90.05H89.95H89.85V91.85H89.75H89.65V91.95H89.55L89.45 92.05V92.15V92.25H89.35V92.35H89.25V92.45H89.15V92.55V92.65H89.05V92.75H88.95H88.85V92.85H88.75V92.95H88.65V93.05V93.15H88.55V93.25V93.35V93.45H88.45V93.55H88.35V93.45L88.25 93.55H88.15L88.05 93.65H87.95H87.85V93.75L87.75 93.85V93.95V94.05V94.15V94.25L87.65 94.35H87.55H87.45L87.35 94.45L87.45 94.55L87.55 94.65V94.75H87.45V94.85H87.35H87.25H87.15V94.75H87.05V94.85H86.95V94.95L86.85 95.05H86.75V95.15V95.25V95.35H86.65V95.45V95.55V95.65V95.75H86.55L86.45 95.85H86.35H86.25L86.15 95.75H86.05V95.85L85.95 96.05L85.85 96.25L85.75 96.35L85.65 96.55V96.65L85.55 96.85V96.95H85.45V97.05V97.15V97.25L85.35 97.35V97.45L85.25 97.55L85.05 97.65L84.95 97.75L84.85 97.85L84.75 97.95V98.05L84.65 98.15V98.25V98.35L84.55 98.45L84.45 98.65L84.25 98.85H84.15V98.95L84.05 99.15L83.95 99.25V99.35V99.45L83.85 99.55V99.65H83.75L83.65 99.75L83.55 99.85V99.95L83.45 100.05V100.15V100.25V100.35H83.35L83.25 100.45H83.15L83.05 100.65L82.85 100.85L82.75 100.95L82.55 101.05V101.15H82.45H82.35L82.15 101.05H82.05H81.95L81.85 100.95H81.75H81.55H81.45L81.35 100.85H81.25V100.95H81.15L81.05 101.05H80.95H80.85V101.15H80.75V101.25L80.65 101.35L80.55 101.45L80.45 101.55L80.35 101.65H80.25L80.15 101.75L80.05 101.85H79.95V101.95V102.05V102.15H79.85H79.75L79.55 102.25V102.35L79.35 102.45L79.25 102.55H79.15H79.05V102.65H78.95V102.75H79.05V102.85H79.15H79.25H79.35L79.45 102.95H79.55V103.05L79.65 103.15V103.25V103.35V103.45H79.55L79.45 103.55L79.35 103.65V103.75V103.85H79.45V103.95L79.55 104.05H79.65L79.75 104.15H79.85H79.95V104.25H80.05L80.15 104.35V104.45V104.55H80.25V104.65H80.35L80.45 104.75L80.55 104.85V104.95L80.65 105.05V105.15H80.55L80.65 105.25V105.45V105.55V105.65L80.55 105.75V105.85V105.95L80.45 106.05L80.35 106.15H80.25V106.25H80.15H80.05L79.95 106.15H79.85V106.05H79.75V105.95L79.65 105.85H79.55V105.75H79.45L79.35 105.65H79.25H79.15H79.05H78.95H78.85H78.75L78.65 105.55H78.55V105.65H78.45L78.35 105.75L78.25 105.85H78.15L78.05 105.95L77.95 106.05V106.15H77.85V106.25V106.35H77.75V106.45V106.55V106.65L77.85 106.75V106.85H77.95V106.95H78.05V107.05H78.15L78.25 107.15L78.35 107.25V107.35V107.45H78.25V107.55H78.15H78.05H77.95H77.85H77.75H77.65H77.55H77.45H77.35H77.25V107.65H77.15H77.05V107.75H76.95V107.85V107.95V108.05V108.15V108.25L77.05 108.35L77.15 108.45H77.25V108.55V108.65V108.75V108.85H77.15V108.95L77.05 109.05V109.15V109.25V109.35V109.45V109.55V109.65H76.95V109.75H76.85V109.85H76.75H76.65H76.55H76.45H76.25H76.15H76.05H75.95H75.85H75.75V109.95H75.65L75.55 110.05L75.45 110.15V110.25V110.35V110.45V110.55H75.55V110.65V110.75H75.65V110.85V110.95V111.05L75.55 111.15L75.45 111.25H75.35L75.25 111.35H75.15H75.05H74.95H74.85L74.75 111.25H74.55V111.15L74.35 111.05H74.25L74.15 110.95H74.05V110.85V110.75H73.95V110.65H73.85H73.75V110.55H73.65H73.55H73.45H73.35V110.65H73.25H73.15V110.75H73.05L72.95 110.85L72.85 110.95L72.75 111.05L72.65 111.15V111.25H72.55V111.35L72.65 111.45V111.55V111.65H72.75V111.75H72.85L72.95 111.85V111.95V112.05V112.15L73.05 112.25V112.35V112.45V112.55H73.15H73.25L73.35 112.65H73.45V112.75L73.35 112.85V112.95V113.05V113.15H73.25V113.25L73.15 113.35L73.05 113.45V113.55H72.95V113.65V113.75H72.85V113.85H72.75H72.65L72.55 113.95H72.45L72.35 114.05V114.15H72.45V114.25V114.35H72.35V114.25H72.25H72.15H72.05V114.35H71.95V114.45H71.85V114.55H71.75V114.65L71.65 114.75V114.85V114.95H71.55V115.05V115.15H71.45V115.25H71.35L71.25 115.35L71.15 115.45V115.55H71.05V115.65H70.95V115.75H70.85L70.75 115.85L70.65 115.95H70.55V116.05H70.65V116.15H70.75V116.25H70.65V116.35H70.55H70.45V116.45V116.55H70.35L70.25 116.65H70.15V116.75H70.05V116.85H69.95V116.95H69.85V117.05H69.75H69.65V117.15M69.65 117.15H69.55M69.65 117.15V117.25M69.65 117.25H69.75M69.65 117.25V117.35H69.55H69.45V117.45H69.35V117.55H69.25H69.15V117.65V117.75V117.85V117.95V118.05V118.15V118.25V118.35H69.25V118.45V118.55V118.65H69.35H69.45L69.55 118.75V118.85V118.95V119.05H69.45V119.15H69.35V119.25L69.25 119.35V119.45V119.55V119.65H69.15V119.75H69.05V119.85V119.95V120.05H69.15V120.15V120.25L69.05 120.35V120.45H69.15V120.55V120.65H69.25V120.75V120.85V120.95V121.05V121.15V121.25V121.35H69.35V121.45H69.45V121.55V121.65H69.35V121.75V121.85V121.95V122.05L69.45 122.15L69.55 122.25H69.65H69.75V122.35V122.45H69.65H69.55V122.35H69.45H69.35V122.45L69.45 122.55V122.65V122.75H69.55V122.85V122.95V123.05H69.65V122.95H69.75L69.85 123.05H69.95H70.05V123.15L69.95 123.25H69.85V123.15H69.75H69.65V123.25H69.55V123.35V123.45V123.55V123.65V123.75H69.65V123.85V123.95V124.05H69.75V124.15L69.85 124.25V124.35H69.95V124.45H70.05L70.15 124.35H70.25V124.45L70.35 124.55H70.45V124.65V124.75L70.55 124.85H70.65H70.75L70.85 124.95V125.05V125.15V125.25H70.95V125.35V125.45M70.95 125.45H70.85M70.95 125.45V125.55H71.05M71.05 125.55V125.65M71.05 125.55H71.15V125.45H71.25V125.55V125.65H71.35H71.45V125.75V125.85V125.95V126.05V126.15V126.25H71.55H71.65V126.35V126.45V126.55H71.55V126.65H71.45V126.75H71.55H71.65V126.85V126.95H71.55H71.45H71.35H71.25H71.15H71.05V127.05H70.95V127.15L70.85 127.25V127.35V127.45H70.95V127.55H71.05V127.65V127.75V127.85V127.95H71.15H71.25V128.05H71.35V128.15H71.45V128.25V128.35V128.45V128.55V128.65V128.75L71.55 128.85H71.65V128.95H71.75H71.85H71.95V128.85H72.05V128.95M72.05 128.95V129.05M72.05 128.95H72.15H72.25V129.05M72.25 129.05H72.15M72.25 129.05V129.15H72.35V129.25V129.35L72.45 129.45H72.55V129.55H72.65H72.75H72.85V129.65L72.95 129.75V129.85H72.85V129.95L72.75 130.05V130.15H72.65L72.75 130.25H72.85V130.15H72.95V130.25L73.05 130.35H73.15V130.45H73.25L73.35 130.35H73.45V130.45V130.55V130.65V130.75H73.35V130.85V130.95V131.05H73.25V131.15L73.15 131.25H73.05V131.35M73.05 131.35H73.15M73.05 131.35V131.45V131.55V131.65V131.75H72.95V131.85V131.95V132.05V132.15V132.25H72.85H72.75V132.35H72.85V132.45V132.55H72.75V132.65V132.75H72.65H72.55H72.45H72.35V132.85V132.95H72.25V133.05H72.35V133.15V133.25L72.25 133.35H72.15H72.05V133.45H71.95V133.55H71.85V133.65V133.75V133.85H71.75V133.95H71.65V134.05V134.15V134.25H71.55H71.45V134.35V134.45V134.55V134.65H71.35H71.25V134.75H71.15V134.85H71.05V134.95V135.05H70.95V135.15V135.25L70.85 135.35V135.45V135.55V135.65H70.75V135.75V135.85V135.95V136.05H70.65V136.15L70.75 136.25H70.65V136.35V136.45V136.55H70.55V136.65V136.75V136.85V136.95V137.05V137.15V137.25V137.35V137.45H70.45V137.55V137.65V137.75V137.85H70.35V137.95L70.25 138.05H70.15V138.15L70.05 138.25V138.35H69.95V138.45V138.55V138.65V138.75V138.85H69.85V138.95L69.75 139.05V139.15V139.25V139.35V139.45V139.55V139.65H69.65V139.75V139.85V139.95V140.05V140.15M69.65 140.15H69.75" stroke="white" stroke-width="0.5" stroke-linecap="round" stroke-linejoin="round"/>
</svg>
