<svg width="31" height="31" viewBox="0 0 31 31" fill="none" xmlns="http://www.w3.org/2000/svg">
<path d="M24.65 0.650009V0.550003L24.55 0.450012V0.350006V0.25H24.65L24.75 0.350006H24.85H24.95H25.05L25.15 0.450012H25.35V0.550003H25.45H25.55L25.65 0.650009L26.05 0.75L26.15 0.850006H26.25H26.35H26.45H26.55H26.65H26.75H26.85H26.95H27.05V0.950012V1.05V1.15001H27.15V1.25V1.35001L27.25 1.45001H27.35H27.45H27.55V1.35001H27.65H27.75H27.85L27.75 1.25H27.85V1.15001L27.95 1.25V1.35001H28.05H28.15V1.45001L28.25 1.55V1.65001H28.35V1.75L28.45 1.85001H28.55V1.95001H28.65L28.75 2.05H28.85L28.95 2.15001H29.05H29.15V2.25H29.25H29.35V2.35001H29.45V2.45001V2.55L29.35 2.65001H29.45V2.75V2.85001V2.95001H29.55V3.05L29.65 3.15001V3.25V3.35001V3.45001V3.55V3.65001V3.85001H29.75V3.95001V4.05V4.15001V4.25V4.35001V4.45001L29.85 4.55L29.75 4.65001H29.65L29.55 4.75H29.35L29.25 4.85001H29.15H29.05L28.95 4.95001L28.85 5.05H28.75H28.65V5.15001H28.55H28.45L28.35 5.25H28.25H28.15H28.05L27.95 5.35001H27.85L27.75 5.45001H27.65H27.55V5.55H27.45L27.35 5.65001H27.25V5.75H27.15H27.05V5.85001H26.95L27.05 5.95001V6.05V6.15001V6.25V6.35001H26.95V6.25L26.85 6.15001V6.05H26.75V5.95001H26.65H26.55H26.45V6.05H26.35V6.15001L26.45 6.25V6.35001H26.55V6.45001H26.65L26.75 6.55V6.65001V6.75V6.85001H26.65V6.75H26.55V6.85001L26.45 6.95001H26.35L26.25 7.05H26.15V7.15001V7.25V7.35001H26.05H25.95H25.85V7.45001H25.75L25.65 7.55H25.55V7.65001L25.65 7.75V7.95001L25.75 8.05V8.15001V8.25H25.85L25.95 8.15001H26.05V8.25V8.35001L26.15 8.45001V8.55H26.25V8.45001L26.35 8.35001V8.25L26.45 8.45001L26.65 8.75V8.85001H26.45H26.35H26.25L26.15 8.75V8.85001L26.05 8.95001V9.05V9.15001H25.95V9.25L26.05 9.35001L26.15 9.55L26.05 9.65001L25.85 9.85001L25.75 9.95001H25.85H25.95L26.05 9.85001H26.25V9.95001H26.35L26.25 10.05L26.35 10.15L26.25 10.25L26.15 10.35H26.25V10.45H26.35V10.55L26.25 10.65H26.15L26.05 10.75H25.95H25.85H25.75L25.85 10.85H25.95V10.95L26.05 11.05L26.45 11.35V11.45L26.65 11.55V11.65H26.75L27.15 11.85L27.55 12.05V12.15L27.45 12.25V12.35H27.55L27.65 12.45L27.75 12.55L27.85 12.65L28.05 12.75H28.15H28.25L28.35 12.85L28.55 13.05V13.15L28.85 13.35V13.45V13.55L28.75 13.65L28.65 13.75H28.75L28.65 13.85L28.55 13.95L28.45 14.05H28.55V14.15H28.65V14.25L28.75 14.35L28.85 14.45L28.95 14.55L29.15 14.65V14.55L29.35 14.65L29.45 14.75H29.55H29.65H29.75L29.95 15.05H30.05V15.15L29.75 15.35H29.85L29.75 15.45V15.55V15.65V15.75L29.65 15.85H29.55V15.95H29.45V16.05H29.35H29.25H29.15H29.05V15.95H28.95H28.85H28.75H28.65H28.55V15.85H28.45L28.35 15.75L28.25 15.55L27.95 15.65H27.85L27.75 15.75H27.55L27.45 15.85V15.95V16.15V16.25V16.35H27.55V16.45H27.65V16.55V16.65L27.55 16.75V16.85H27.45H27.35V16.95L27.45 17.05H27.55L27.45 17.15V17.25V17.35V17.45V17.55V17.65H27.55V17.75L27.05 17.65H26.75L26.45 17.55V17.65H26.25L25.95 17.75L25.75 17.65L25.45 17.55L24.95 17.35L25.15 17.25L24.95 17.05L24.85 16.95H24.75V16.85H24.65H24.55H24.45L24.35 16.95V17.05L24.25 17.15V17.25V17.35V17.45V17.55V17.65H24.35V17.75V17.85V17.95H24.25H24.15V18.05H24.05L23.95 18.15H24.05V18.25L24.15 18.35V18.45V18.55H24.25V18.65V18.75L24.35 18.85V19.05H24.15V19.15L24.05 19.25L23.85 19.45H23.75L23.55 19.55H23.45V19.45V19.35H23.35H23.25H23.15V19.25H23.05H22.95V19.15H22.85H22.75H22.65H22.55L22.45 19.05V18.95H22.35V18.85L22.25 18.75H22.15V18.65L22.05 18.75H21.95H21.85H21.75L21.35 18.85H21.25H21.05H20.95V18.65V18.55V18.45V18.35H20.45L20.35 18.45H20.25L20.05 18.55H19.95V18.75V18.85V18.95L19.85 19.05V19.15V19.25H19.65V19.35L19.85 19.45H19.95V19.55H20.05H20.15H20.25L20.15 19.65L20.25 19.75V19.85V20.05V20.15H20.15V20.05H19.95L20.05 20.25L19.85 20.35H19.65H19.55V20.45V20.55H19.65V20.65V20.75H19.75V20.85L19.85 20.95V21.05H19.95V21.15V21.25V21.35H20.05V21.45V21.55V21.65V21.75H20.15L20.25 21.95V22.05H20.35V22.15V22.25H20.45V22.35H20.55V22.45V22.55H20.65V22.65H20.75V22.75H20.85V22.85L20.95 22.95V23.05V23.15H21.05V23.25L21.15 23.35V23.45L21.25 23.55V23.75H21.35L21.05 23.95H20.95H20.85V24.05H20.75V24.15V24.25V24.35H20.65V24.45H20.55V24.55H20.45V24.65H20.55L20.45 24.75H20.55V24.85H20.65H20.45H20.25H20.15H20.05H19.85H19.75H19.65H19.55H19.35H19.25H19.15V24.95L19.05 25.05H19.15V25.15H19.05L19.15 25.25V25.35H19.25V25.45H19.35V25.55H19.45V25.65V25.75V25.95V26.05L19.55 26.15H19.65H19.75V26.25H19.85H19.95V26.35H19.85V26.45V26.55V26.65V26.75H19.95V26.85V26.95L20.05 26.85V26.95H20.15V27.05V27.15H20.25V27.25V27.35V27.45H20.35V27.55V27.65H20.45V27.75H20.55L20.65 27.85H20.75L20.85 27.95V28.05H20.95V28.15H20.85V28.25L20.95 28.35H20.85H20.75L20.65 28.45H20.45L20.75 29.15L20.45 29.35L19.85 29.55H19.75L19.45 29.65L19.35 29.75L19.15 29.85H19.05L18.35 30.15H18.25V30.05V29.95H18.15H18.05V29.85L18.15 29.65V29.25V29.15V29.05V28.95V28.75V28.65V28.55L18.05 28.45V28.35V28.25V28.15L17.95 27.65L17.85 27.55V27.35L17.75 27.25L17.65 27.15V27.05H17.55V26.85H17.45V26.75V26.65H17.35V26.55H17.05H16.95L16.65 26.65H16.45H16.35L16.25 26.55L16.15 26.45V26.35L16.25 26.25V26.15V25.95V25.85V25.75V25.65H16.15H16.05V25.55L15.95 25.45L15.85 25.35H15.75V25.25V25.15L15.95 24.75V24.65V24.45V24.15H15.85V24.05H15.75H15.65H15.55H15.45H15.25H15.15H15.05H14.95V23.95H15.05V23.85V23.75H15.15L15.25 23.55L15.35 23.45V23.35L15.45 23.25H15.35H15.25V23.15H15.15V23.05H15.25V22.95V22.85V22.75V22.55V22.35V22.15L15.35 22.05V21.95H15.25L15.15 21.85H15.05H14.95H14.85L14.65 21.75L14.45 21.65H14.35V21.55H14.25L14.15 21.35H14.05V21.25H13.95L13.75 21.35V21.45H13.65H13.55L13.45 21.55H13.35L13.25 21.45L13.05 21.25L12.95 21.15V21.05H13.05L13.15 20.95L13.35 20.85V20.75H13.45L13.35 20.65H13.25H13.15V20.55H13.05L12.85 20.45V20.65H12.75H12.65H12.55H12.45H12.35V20.75L12.25 20.65V20.55V20.45H12.35L12.45 20.25L12.35 20.15H12.25V20.05V19.95V19.85L12.15 19.35L11.95 19.25V19.05L12.05 18.95V18.85V18.75H11.95H11.85V18.65H11.95V18.55H11.85H11.75H11.65H11.55H11.45H11.35H11.25V18.75L11.15 18.95V19.05L10.95 18.95H10.85H10.75L10.45 18.85V18.75V18.55H10.35V18.45V18.35V18.05V17.95L10.05 17.65L10.15 17.55L10.25 17.45V17.35L10.35 17.15L10.45 17.05L10.55 16.95L10.65 16.85L10.35 16.55L10.25 16.35L9.95001 16.05H9.85001L9.75 15.95H9.64999V15.85V15.75H9.54999H9.45001H9.35001L9.54999 15.65L9.45001 15.55H9.35001L9.14999 15.45L9.04999 15.35H8.95001H8.85001L8.75 15.25L8.54999 15.15H8.45001L8.25 14.95H8.14999V14.85H8.04999V14.75H7.95001L7.75 14.55L7.64999 14.45L7.35001 14.15L7.14999 13.95L6.95001 13.75L6.85001 13.65L6.75 13.45V13.35L6.64999 13.25V13.15V13.05L6.54999 12.95V12.85H6.45001V12.75V12.65V12.55V12.45V12.25L6.35001 12.05V11.85H6.25H6.14999H6.04999V11.75V11.65V11.55H5.95001V11.45V11.35H5.85001V11.25H5.75H5.64999L5.54999 11.15V11.25H5.45001L5.54999 11.35H5.64999V11.45V11.55H5.75L5.64999 11.65V11.75V11.85H5.54999H5.45001H5.35001H5.25L5.04999 11.95H4.95001H4.75L4.64999 12.05H4.54999H4.45001H4.35001H4.25H4.14999H4.04999H3.85001V11.95H3.45001L3.35001 11.85H3.25L2.95001 11.75H2.85001H2.75H2.64999L2.54999 11.65V11.95V12.05V12.15L2.45001 12.25V12.35V12.45H2.35001V12.55V12.65H2.25V12.75V12.85L2.14999 12.95H2.25V13.05H2.14999V13.15L2.04999 13.25H1.95001V13.35L1.85001 13.25L1.75 13.15H1.64999L1.45001 12.95H1.35001H1.25L1.14999 13.05V13.15L1.04999 13.25L0.950012 13.35L0.850006 13.45L0.75 13.55H0.649994H0.549988V13.45V13.35V13.25H0.450012V13.15V13.05H0.350006H0.25V12.95H0.350006V12.85L0.450012 12.75V12.65L0.549988 12.55V12.45V12.35H0.649994H0.75V12.25V12.15V12.05V11.95H0.649994L0.549988 11.75V11.65H0.450012V11.55L0.350006 11.45L0.450012 11.35V11.25V11.15V11.05L0.549988 10.95H0.649994V10.85V10.75L0.850006 10.55V10.45H0.950012V10.35L1.04999 10.25L1.14999 10.15L1.25 10.05V9.95001H1.35001V9.85001L1.25 9.75L1.14999 9.65001H1.04999V9.55H0.950012V9.45001V9.35001V9.25L1.04999 9.15001V9.05V8.95001V8.85001V8.75V8.65001V8.55H1.14999H1.25H1.35001V8.65001H1.45001V8.55L1.54999 8.45001H1.64999V8.35001V8.25L1.75 8.15001V8.05L1.64999 7.95001L1.75 7.85001H1.85001V7.75H1.95001V7.65001V7.55V7.45001V7.35001V7.25L1.75 7.15001V7.05H1.64999L1.54999 6.85001V6.75H1.45001V6.55H1.54999V6.45001L1.64999 6.35001V6.25H1.75V6.15001H1.85001V6.05H1.95001V5.95001H2.04999V5.85001H2.14999V5.75L2.25 5.85001L2.35001 5.75H2.45001H2.54999L2.64999 5.65001L2.75 5.55V5.45001H2.85001L3.04999 5.35001L2.95001 5.25V5.15001L3.04999 4.95001L3.14999 4.85001H3.35001H3.45001H3.54999V4.75L3.64999 4.65001V4.55V4.45001V4.35001V4.25V4.15001V4.05V3.95001V3.85001H3.54999V3.75H3.64999V3.65001H3.54999L3.45001 3.55V3.45001H3.35001V3.35001V3.25V3.15001H3.45001V3.25H3.54999H3.64999L3.75 3.15001H3.85001H3.95001H4.04999H4.14999L4.25 3.35001L4.35001 3.45001H4.45001V3.55L4.54999 3.65001H4.64999V3.75H4.75L4.85001 3.85001H4.75V3.75V3.65001V3.55H4.85001H4.95001H5.04999V3.45001H5.14999L5.04999 3.35001L4.95001 3.25V3.15001H5.04999V3.05V2.95001H5.14999H5.25V3.05H5.35001H5.45001H5.54999V2.95001L5.45001 2.85001H5.35001H5.25L5.04999 2.75H4.95001V2.65001L4.85001 2.55H4.75V2.45001H4.85001V2.35001H4.75L4.54999 2.25L4.45001 2.15001H4.35001H4.25V2.05H4.14999H4.04999V1.95001L3.95001 2.05V1.95001H3.85001V1.85001H3.95001H4.25H4.35001L4.64999 1.75H4.75H4.95001H5.04999L5.25 1.65001H5.45001H5.54999H5.64999H5.85001H5.95001H6.25H6.64999H7.04999V1.35001V0.950012V0.650009H7.14999H7.35001H7.45001H7.75H8.14999H8.54999H8.64999H8.95001H9.35001H9.75H10.05H10.15H10.35H10.45H10.55H10.65H10.85L11.05 0.75H11.25H11.35L11.55 0.850006H11.65V0.950012L11.75 1.25V1.35001V1.45001V1.55V1.65001V1.75V1.85001H11.85L11.95 1.75H12.05H12.15H12.25H12.35H12.45H12.55H12.65L12.75 1.95001V2.05V2.15001L12.85 2.05H12.95H13.05V2.15001V2.25V2.35001V2.45001L13.15 2.65001V2.75V2.85001V2.95001H13.25V3.05V3.15001V3.25H13.35V3.35001V3.45001H13.45V3.55L13.55 3.65001L13.65 3.75L13.75 3.85001H13.85V3.95001H13.95H14.05V4.05H14.15H14.25L14.35 4.15001L14.45 4.25H14.55L14.75 4.35001V4.45001H14.85L14.95 4.55H15.05V4.65001H15.15V4.75L15.25 4.85001V4.95001V5.05L15.35 5.15001V5.25V5.35001V5.45001H15.45L15.65 5.65001L15.75 5.45001V5.25L15.35 4.45001L15.15 4.35001V4.25V4.15001H15.05V4.05V3.95001L15.15 3.85001V3.75L15.25 3.65001H15.35L15.45 3.55H15.85L15.95 3.65001H16.15L16.35 3.75L16.55 3.85001L16.65 3.95001H16.75H16.95H17.05L17.15 3.85001V3.75V3.65001H17.25V3.75L17.15 4.05H17.05L17.15 4.45001L17.35 4.55H17.75H18.25L18.65 4.65001H19.05H19.25L19.65 4.75H19.75V4.65001H19.85H20.35L20.65 4.75H21.15H21.35V4.55V4.45001H21.45V4.25L21.55 4.15001L21.65 4.05V3.95001V3.85001H21.75V3.75V3.65001V3.55L21.85 3.45001V3.35001H21.95L22.05 3.25H22.15H22.25H22.35L22.45 3.15001H22.55H22.65V3.05H22.75L22.85 2.95001H22.95L23.05 2.85001H23.15L23.25 2.75H23.35L23.45 2.65001H23.55V2.75V2.85001V2.95001V3.05L23.95 2.95001H24.05H24.15H24.35L24.25 2.75V2.55V2.05V1.95001L24.15 1.65001V1.55L24.25 1.45001L24.35 1.25L24.45 1.15001L24.55 1.05V0.950012V0.850006H24.65V0.75V0.650009ZM5.64999 7.75L5.54999 7.65001H5.45001V7.75H5.35001V7.95001H5.25V8.05H5.14999H5.04999H4.95001H4.85001H4.75H4.64999L4.45001 7.95001V7.85001H4.35001V7.95001V8.15001V8.25H4.45001V8.35001V8.45001H4.54999V8.55L4.45001 8.45001V8.55H4.54999L4.75 8.65001V8.75H4.85001H4.95001H5.04999H5.14999V8.85001H5.25H5.35001L5.25 8.75H5.35001H5.45001H5.54999V8.85001H5.64999H5.75L5.95001 8.75H6.04999V8.65001V8.55V8.45001V8.35001V8.25L5.75 8.15001V7.95001V7.85001V7.75L5.64999 7.85001V7.75Z" fill="#220F0F"/>
<path d="M24.65 0.650009V0.550003L24.55 0.450012V0.350006V0.25H24.65L24.75 0.350006H24.85H24.95H25.05L25.15 0.450012H25.35V0.550003H25.45H25.55L25.65 0.650009L26.05 0.75L26.15 0.850006H26.25H26.35H26.45H26.55H26.65H26.75H26.85H26.95H27.05V0.950012V1.05V1.15001H27.15V1.25V1.35001L27.25 1.45001H27.35H27.45H27.55V1.35001H27.65H27.75H27.85L27.75 1.25H27.85V1.15001L27.95 1.25V1.35001H28.05H28.15V1.45001L28.25 1.55V1.65001H28.35V1.75L28.45 1.85001H28.55V1.95001H28.65L28.75 2.05H28.85L28.95 2.15001H29.05H29.15V2.25H29.25H29.35V2.35001H29.45V2.45001V2.55L29.35 2.65001H29.45V2.75V2.85001V2.95001H29.55V3.05L29.65 3.15001V3.25V3.35001V3.45001V3.55V3.65001V3.85001H29.75V3.95001V4.05V4.15001V4.25V4.35001V4.45001L29.85 4.55L29.75 4.65001H29.65L29.55 4.75H29.35L29.25 4.85001H29.15H29.05L28.95 4.95001L28.85 5.05H28.75H28.65V5.15001H28.55H28.45L28.35 5.25H28.25H28.15H28.05L27.95 5.35001H27.85L27.75 5.45001H27.65H27.55V5.55H27.45L27.35 5.65001H27.25V5.75H27.15H27.05V5.85001H26.95L27.05 5.95001V6.05V6.15001V6.25V6.35001H26.95V6.25L26.85 6.15001V6.05H26.75V5.95001H26.65H26.55H26.45V6.05H26.35V6.15001L26.45 6.25V6.35001H26.55V6.45001H26.65L26.75 6.55V6.65001V6.75V6.85001H26.65V6.75H26.55V6.85001L26.45 6.95001H26.35L26.25 7.05H26.15V7.15001V7.25V7.35001H26.05H25.95H25.85V7.45001H25.75L25.65 7.55H25.55V7.65001L25.65 7.75V7.95001L25.75 8.05V8.15001V8.25H25.85L25.95 8.15001H26.05V8.25V8.35001L26.15 8.45001V8.55H26.25V8.45001L26.35 8.35001V8.25L26.45 8.45001L26.65 8.75V8.85001H26.45H26.35H26.25L26.15 8.75V8.85001L26.05 8.95001V9.05V9.15001H25.95V9.25L26.05 9.35001L26.15 9.55L26.05 9.65001L25.85 9.85001L25.75 9.95001H25.85H25.95L26.05 9.85001H26.25V9.95001H26.35L26.25 10.05L26.35 10.15L26.25 10.25L26.15 10.35H26.25V10.45H26.35V10.55L26.25 10.65H26.15L26.05 10.75H25.95H25.85H25.75L25.85 10.85H25.95V10.95L26.05 11.05L26.45 11.35V11.45L26.65 11.55V11.65H26.75L27.15 11.85L27.55 12.05V12.15L27.45 12.25V12.35H27.55L27.65 12.45L27.75 12.55L27.85 12.65L28.05 12.75H28.15H28.25L28.35 12.85L28.55 13.05V13.15L28.85 13.35V13.45V13.55L28.75 13.65L28.65 13.75H28.75L28.65 13.85L28.55 13.95L28.45 14.05H28.55V14.15H28.65V14.25L28.75 14.35L28.85 14.45L28.95 14.55L29.15 14.65V14.55L29.35 14.65L29.45 14.75H29.55H29.65H29.75L29.95 15.05H30.05V15.15L29.75 15.35H29.85L29.75 15.45V15.55V15.65V15.75L29.65 15.85M24.65 0.650009V0.75V0.850006H24.55V0.950012V1.05L24.45 1.15001L24.35 1.25L24.25 1.45001L24.15 1.55V1.65001L24.25 1.95001V2.05V2.55V2.75L24.35 2.95001H24.15H24.05H23.95L23.55 3.05V2.95001V2.85001V2.75V2.65001H23.45L23.35 2.75M24.65 0.650009H24.75M29.65 15.85V15.95M29.65 15.85H29.55V15.95H29.45V16.05H29.35H29.25H29.15H29.05V15.95H28.95H28.85H28.75H28.65H28.55V15.85H28.45L28.35 15.75L28.25 15.55L27.95 15.65H27.85L27.75 15.75H27.55L27.45 15.85V15.95V16.15V16.25V16.35H27.55V16.45H27.65V16.55V16.65L27.55 16.75V16.85H27.45H27.35V16.95L27.45 17.05H27.55L27.45 17.15V17.25V17.35V17.45V17.55V17.65H27.55V17.75L27.05 17.65H26.75L26.45 17.55V17.65H26.25L25.95 17.75L25.75 17.65L25.45 17.55L24.95 17.35L25.15 17.25L24.95 17.05L24.85 16.95H24.75V16.85H24.65H24.55M24.55 16.85V16.75M24.55 16.85H24.45L24.35 16.95V17.05L24.25 17.15V17.25V17.35V17.45V17.55M24.25 17.55H24.15M24.25 17.55V17.65H24.35V17.75V17.85V17.95H24.25H24.15V18.05H24.05L23.95 18.15H24.05V18.25L24.15 18.35V18.45V18.55H24.25V18.65V18.75L24.35 18.85V19.05H24.15V19.15L24.05 19.25L23.85 19.45H23.75L23.55 19.55H23.45V19.45V19.35H23.35H23.25H23.15V19.25H23.05H22.95V19.15H22.85H22.75H22.65H22.55L22.45 19.05V18.95H22.35V18.85L22.25 18.75H22.15V18.65L22.05 18.75H21.95H21.85H21.75L21.35 18.85H21.25H21.05H20.95V18.65V18.55V18.45V18.35H20.45L20.35 18.45H20.25L20.05 18.55H19.95V18.75V18.85V18.95L19.85 19.05V19.15V19.25H19.65V19.35L19.85 19.45H19.95V19.55M19.95 19.55H19.85M19.95 19.55H20.05H20.15H20.25L20.15 19.65L20.25 19.75V19.85V20.05V20.15H20.15V20.05H19.95L20.05 20.25L19.85 20.35H19.65H19.55V20.45V20.55H19.65V20.65V20.75H19.75V20.85L19.85 20.95V21.05H19.95V21.15V21.25V21.35H20.05V21.45V21.55V21.65V21.75H20.15L20.25 21.95V22.05H20.35V22.15V22.25H20.45V22.35H20.55V22.45V22.55H20.65V22.65H20.75V22.75H20.85V22.85L20.95 22.95V23.05V23.15H21.05V23.25L21.15 23.35V23.45L21.25 23.55V23.75H21.35L21.05 23.95H20.95H20.85V24.05H20.75V24.15V24.25V24.35H20.65V24.45H20.55V24.55M20.55 24.55H20.45M20.55 24.55V24.65M20.45 24.55V24.45M20.45 24.55H20.35M20.45 24.55V24.65M20.45 24.65H20.35M20.45 24.65H20.55M20.55 24.65L20.45 24.75M20.45 24.75H20.35M20.45 24.75H20.55V24.85H20.65H20.45H20.25H20.15H20.05H19.85H19.75H19.65H19.55H19.35H19.25H19.15V24.95L19.05 25.05H19.15V25.15H19.05L19.15 25.25V25.35H19.25V25.45H19.35V25.55H19.45V25.65V25.75V25.95V26.05L19.55 26.15H19.65H19.75V26.25H19.85H19.95V26.35H19.85V26.45V26.55V26.65V26.75H19.95V26.85V26.95L20.05 26.85V26.95H20.15V27.05V27.15H20.25V27.25V27.35V27.45H20.35V27.55V27.65H20.45V27.75H20.55L20.65 27.85H20.75M20.75 27.85V27.95M20.75 27.85L20.85 27.95V28.05H20.95V28.15H20.85V28.25L20.95 28.35H20.85H20.75L20.65 28.45H20.45L20.75 29.15L20.45 29.35L19.85 29.55H19.75L19.45 29.65L19.35 29.75L19.15 29.85H19.05L18.35 30.15H18.25V30.05V29.95H18.15H18.05V29.85L18.15 29.65V29.25V29.15V29.05V28.95V28.75V28.65V28.55L18.05 28.45V28.35V28.25V28.15L17.95 27.65L17.85 27.55V27.35L17.75 27.25L17.65 27.15V27.05H17.55V26.85H17.45V26.75V26.65H17.35V26.55H17.05H16.95L16.65 26.65H16.45H16.35L16.25 26.55L16.15 26.45V26.35L16.25 26.25V26.15V25.95V25.85V25.75V25.65H16.15H16.05V25.55L15.95 25.45L15.85 25.35H15.75V25.25V25.15L15.95 24.75V24.65V24.45V24.15H15.85V24.05H15.75H15.65H15.55H15.45H15.25H15.15H15.05H14.95V23.95H15.05V23.85V23.75H15.15L15.25 23.55L15.35 23.45V23.35L15.45 23.25H15.35H15.25V23.15H15.15V23.05H15.25V22.95V22.85V22.75V22.55V22.35V22.15L15.35 22.05V21.95H15.25L15.15 21.85H15.05H14.95H14.85L14.65 21.75L14.45 21.65H14.35V21.55H14.25L14.15 21.35H14.05V21.25H13.95L13.75 21.35V21.45H13.65H13.55L13.45 21.55H13.35L13.25 21.45L13.05 21.25L12.95 21.15V21.05H13.05L13.15 20.95L13.35 20.85V20.75H13.45L13.35 20.65H13.25H13.15V20.55H13.05L12.85 20.45V20.65H12.75H12.65H12.55H12.45H12.35V20.75L12.25 20.65V20.55V20.45H12.35L12.45 20.25L12.35 20.15H12.25V20.05V19.95V19.85L12.15 19.35L11.95 19.25V19.05L12.05 18.95V18.85V18.75H11.95H11.85V18.65H11.95V18.55H11.85H11.75H11.65H11.55H11.45H11.35H11.25V18.75L11.15 18.95V19.05L10.95 18.95H10.85H10.75L10.45 18.85V18.75V18.55H10.35V18.45V18.35V18.05V17.95L10.05 17.65L10.15 17.55L10.25 17.45V17.35L10.35 17.15L10.45 17.05L10.55 16.95L10.65 16.85L10.35 16.55L10.25 16.35L9.95001 16.05H9.85001M9.85001 16.05V16.15M9.85001 16.05L9.75 15.95H9.64999V15.85V15.75H9.54999H9.45001H9.35001L9.54999 15.65L9.45001 15.55H9.35001L9.14999 15.45L9.04999 15.35H8.95001H8.85001L8.75 15.25L8.54999 15.15H8.45001L8.25 14.95H8.14999V14.85H8.04999V14.75H7.95001L7.75 14.55L7.64999 14.45L7.35001 14.15L7.14999 13.95L6.95001 13.75L6.85001 13.65L6.75 13.45V13.35L6.64999 13.25V13.15V13.05L6.54999 12.95V12.85H6.45001V12.75V12.65V12.55V12.45V12.25L6.35001 12.05V11.85H6.25H6.14999H6.04999V11.75V11.65V11.55H5.95001M5.95001 11.55H5.85001M5.95001 11.55V11.45V11.35H5.85001V11.25H5.75M5.75 11.25V11.15M5.75 11.25H5.64999L5.54999 11.15V11.25H5.45001L5.54999 11.35H5.64999V11.45V11.55H5.75L5.64999 11.65M5.64999 11.65H5.75M5.64999 11.65V11.75V11.85H5.54999H5.45001H5.35001H5.25L5.04999 11.95H4.95001H4.75L4.64999 12.05H4.54999H4.45001H4.35001H4.25H4.14999H4.04999H3.85001V11.95H3.45001L3.35001 11.85H3.25L2.95001 11.75H2.85001H2.75H2.64999L2.54999 11.65V11.95V12.05V12.15L2.45001 12.25V12.35V12.45H2.35001V12.55V12.65H2.25V12.75V12.85L2.14999 12.95H2.25V13.05H2.14999V13.15L2.04999 13.25H1.95001V13.35L1.85001 13.25L1.75 13.15H1.64999L1.45001 12.95H1.35001H1.25L1.14999 13.05V13.15L1.04999 13.25L0.950012 13.35L0.850006 13.45L0.75 13.55H0.649994M0.649994 13.55V13.65M0.649994 13.55H0.549988V13.45V13.35V13.25H0.450012V13.15V13.05H0.350006H0.25V12.95H0.350006V12.85L0.450012 12.75V12.65L0.549988 12.55V12.45V12.35H0.649994H0.75V12.25V12.15V12.05V11.95H0.649994L0.549988 11.75V11.65H0.450012V11.55L0.350006 11.45L0.450012 11.35V11.25V11.15V11.05L0.549988 10.95H0.649994V10.85V10.75L0.850006 10.55V10.45H0.950012V10.35L1.04999 10.25L1.14999 10.15L1.25 10.05V9.95001H1.35001V9.85001L1.25 9.75L1.14999 9.65001H1.04999V9.55H0.950012V9.45001V9.35001V9.25L1.04999 9.15001V9.05V8.95001V8.85001V8.75V8.65001V8.55H1.14999H1.25H1.35001V8.65001H1.45001V8.55L1.54999 8.45001H1.64999V8.35001V8.25L1.75 8.15001V8.05L1.64999 7.95001L1.75 7.85001H1.85001V7.75H1.95001V7.65001V7.55V7.45001V7.35001V7.25L1.75 7.15001V7.05H1.64999L1.54999 6.85001V6.75H1.45001V6.55H1.54999V6.45001L1.64999 6.35001V6.25H1.75V6.15001H1.85001V6.05H1.95001V5.95001H2.04999V5.85001H2.14999V5.75L2.25 5.85001L2.35001 5.75H2.45001H2.54999L2.64999 5.65001L2.75 5.55V5.45001H2.85001L3.04999 5.35001L2.95001 5.25V5.15001L3.04999 4.95001L3.14999 4.85001H3.35001H3.45001H3.54999V4.75L3.64999 4.65001V4.55V4.45001V4.35001V4.25V4.15001V4.05V3.95001V3.85001H3.54999V3.75H3.64999V3.65001H3.54999L3.45001 3.55V3.45001H3.35001V3.35001V3.25V3.15001H3.45001V3.25H3.54999H3.64999L3.75 3.15001H3.85001H3.95001H4.04999H4.14999L4.25 3.35001L4.35001 3.45001H4.45001V3.55L4.54999 3.65001H4.64999V3.75H4.75M4.75 3.75L4.85001 3.85001H4.75V3.75ZM4.75 3.75V3.65001V3.55H4.85001H4.95001H5.04999V3.45001H5.14999L5.04999 3.35001L4.95001 3.25V3.15001H5.04999V3.05V2.95001H5.14999H5.25V3.05H5.35001H5.45001H5.54999V2.95001L5.45001 2.85001H5.35001H5.25L5.04999 2.75H4.95001V2.65001L4.85001 2.55H4.75V2.45001H4.85001V2.35001H4.75L4.54999 2.25L4.45001 2.15001H4.35001H4.25V2.05H4.14999H4.04999V1.95001L3.95001 2.05V1.95001H3.85001V1.85001H3.95001H4.25H4.35001L4.64999 1.75H4.75H4.95001H5.04999L5.25 1.65001H5.45001H5.54999H5.64999H5.85001H5.95001H6.25H6.64999H7.04999V1.35001V0.950012V0.650009H7.14999H7.35001H7.45001H7.75H8.14999H8.54999H8.64999H8.95001H9.35001H9.75H10.05H10.15H10.35H10.45H10.55H10.65H10.85L11.05 0.75H11.25H11.35L11.55 0.850006H11.65M11.65 0.850006V0.75M11.65 0.850006V0.950012L11.75 1.25V1.35001V1.45001V1.55V1.65001V1.75V1.85001H11.85L11.95 1.75H12.05H12.15H12.25H12.35H12.45H12.55H12.65L12.75 1.95001V2.05V2.15001L12.85 2.05H12.95H13.05V2.15001V2.25V2.35001V2.45001L13.15 2.65001V2.75V2.85001V2.95001H13.25V3.05V3.15001V3.25H13.35V3.35001V3.45001H13.45V3.55L13.55 3.65001L13.65 3.75L13.75 3.85001H13.85V3.95001H13.95H14.05V4.05H14.15H14.25L14.35 4.15001L14.45 4.25H14.55L14.75 4.35001V4.45001H14.85L14.95 4.55H15.05V4.65001H15.15V4.75L15.25 4.85001V4.95001V5.05L15.35 5.15001V5.25V5.35001V5.45001H15.45L15.65 5.65001L15.75 5.45001V5.25L15.35 4.45001L15.15 4.35001V4.25V4.15001H15.05V4.05V3.95001L15.15 3.85001V3.75L15.25 3.65001H15.35L15.45 3.55H15.85L15.95 3.65001H16.15L16.35 3.75L16.55 3.85001L16.65 3.95001H16.75H16.95H17.05L17.15 3.85001V3.75V3.65001H17.25V3.75L17.15 4.05H17.05L17.15 4.45001L17.35 4.55H17.75H18.25L18.65 4.65001H19.05H19.25L19.65 4.75H19.75V4.65001H19.85H20.35L20.65 4.75H21.15H21.35V4.55V4.45001H21.45V4.25L21.55 4.15001L21.65 4.05V3.95001V3.85001H21.75V3.75V3.65001V3.55L21.85 3.45001V3.35001H21.95L22.05 3.25H22.15H22.25H22.35L22.45 3.15001H22.55H22.65V3.05H22.75L22.85 2.95001H22.95L23.05 2.85001H23.15L23.25 2.75H23.35M23.35 2.75V2.65001M4.45001 8.45001V8.35001V8.25H4.35001V8.15001V7.95001V7.85001H4.45001V7.95001L4.64999 8.05H4.75H4.85001H4.95001H5.04999H5.14999H5.25V7.95001H5.35001V7.75H5.45001V7.65001H5.54999L5.64999 7.75V7.85001L5.75 7.75V7.85001V7.95001V8.15001L6.04999 8.25V8.35001V8.45001V8.55V8.65001V8.75H5.95001L5.75 8.85001H5.64999H5.54999V8.75H5.45001H5.35001M4.45001 8.45001H4.54999V8.55M4.45001 8.45001L4.54999 8.55M4.45001 8.45001V8.55H4.54999M4.54999 8.55L4.75 8.65001M4.75 8.65001H4.64999M4.75 8.65001V8.75H4.85001H4.95001H5.04999H5.14999V8.85001H5.25H5.35001L5.25 8.75H5.35001M5.35001 8.75V8.65001" stroke="white" stroke-width="0.5" stroke-linecap="round" stroke-linejoin="round"/>
</svg>
