<svg width="210" height="115" viewBox="0 0 210 115" fill="none" xmlns="http://www.w3.org/2000/svg">
<path d="M1.85001 79.55V79.45L1.75 79.25L1.65 79.15L1.55002 78.95H1.45002L1.55002 78.85H1.45002V78.75H1.55002V78.65H1.45002V78.55V78.45L1.35001 78.25H1.45002V78.15L1.55002 78.05V77.95H1.65V77.75L1.75 77.65V77.55L1.85001 77.35L1.95002 77.05V76.95L1.85001 76.75L1.75 76.55V76.45L1.55002 76.25L1.35001 75.95L1.55002 75.75H1.65L1.45002 75.35L1.35001 75.05V74.95L1.45002 74.75L1.25 74.65L1.15 74.55L1.05002 74.45H0.950016L0.85001 74.35H0.750004L0.85001 74.25H0.750004V74.15V74.05V73.95H0.550022V73.85V73.65V73.55L0.250004 73.45L0.35001 73.35V73.15V72.95V72.75H0.450016H0.550022H0.649998H0.750004L0.85001 72.85V72.95H0.950016V72.85L1.05002 72.75V72.65H1.15L1.35001 72.55V72.45L1.45002 72.35L1.25 72.05V71.95H1.35001H1.45002V71.85V71.75H1.55002V71.65H1.45002L1.55002 71.55H1.65H1.75H1.95002V71.45V71.25L2.05002 70.65V70.35L2.25 70.45H2.55002H2.75L2.85001 70.25H3.05002V70.15V69.65V69.35V69.05V68.95L3.45002 69.15L3.55002 69.05V68.95H3.45002V68.85H3.35001V68.75H3.25L3.15 68.65V68.55V68.45V68.35V68.25V68.15V68.05H3.05002L2.95002 67.95V67.85L2.85001 67.75H2.75H2.65H2.55002L2.45002 67.65L2.35001 67.55L2.25 67.45L2.15 67.35L2.55002 67.05L3.95002 65.95L4.75 65.25L5.75 64.35L6.35001 63.95V63.85H6.45002V63.75L6.35001 63.65V63.55H6.25V63.45H6.15V63.35V63.25L6.05002 63.15L6.15 63.05L7.05002 62.75L7.15 62.95L7.45002 62.75L8.25 62.25V62.15L8.55002 61.95L9.15 61.85L9.25 61.75V61.85V61.95V62.05L9.45002 61.95L9.65 61.85V61.75L9.85001 61.65L9.95002 61.55L10.05 61.45L10.45 61.25L10.35 61.05L10.65 60.95V60.85V60.75L10.55 60.65V60.55V60.45V60.35H10.65H10.75L10.95 60.45H11.15L11.25 60.05V59.85L11.35 59.65V59.55H11.95H12.55H12.85H13.05L12.95 59.15L13.75 59.05L14.45 58.95L15.35 58.75H15.45V58.85L15.65 58.95L15.85 59.05L16.05 59.15V59.25L16.15 59.35L16.35 59.55V59.65L16.55 59.85H16.65L16.75 59.95H16.85H16.95V60.05H17.05H17.15V60.25V60.35L17.25 60.55L17.35 60.75H17.45L17.55 60.85H17.65H17.75L18.05 60.95L18.35 61.05L18.45 61.15H18.55H18.65L18.75 61.05H18.85L19.05 60.95V60.85H18.95V60.75V60.65V60.55V60.45H19.05L19.15 60.25L19.35 60.35V60.25H19.45L19.55 60.15V60.05V59.85V59.75H19.65H19.75H19.85L20.25 59.55V59.45V59.35L20.35 59.25V59.15H20.45V59.05V58.95H20.55V58.85V58.75H20.65L20.85 58.55L20.75 58.45H20.65V58.25L20.55 58.15V58.05V57.95V57.75V57.65L20.85 57.45L20.95 57.35L21.15 57.15L21.95 57.65L22.75 58.15L23.55 58.65H23.65L24.05 58.95L24.55 58.75H24.75L25.35 58.55L25.85 58.25V57.65V57.45L25.75 57.15V57.05L26.35 56.95L27.85 56.65L28.25 56.55H28.45L28.55 56.35L28.95 56.05L29.35 55.85L30.35 55.65L30.45 55.55H30.65H30.75L31.15 55.45H31.25H31.45H31.75H32.25H32.45V55.05V54.85V54.45V54.35V54.25V54.15L32.65 53.75L32.75 53.45L32.85 53.15L32.95 52.85L33.05 52.55L33.15 52.15L33.25 51.85L34.15 51.55H34.25L35.05 51.25L35.65 51.15H35.75H35.85L36.05 51.45L36.45 51.85L36.75 52.25L36.85 52.35L36.95 52.45H37.05H37.15H37.25L37.35 52.55H37.45V52.45L37.55 52.35L37.45 52.15L37.75 52.25H37.85H38.15H38.25V52.45V52.55H38.45V52.45L38.55 52.25H38.75L38.85 52.35H38.95H39.35V52.45H39.45V52.35L39.55 52.45H39.65V52.35H39.75H39.85H40.05V52.25H40.15V52.15V52.05L40.45 52.15L41.55 52.35V52.25L41.65 51.55L41.55 51.45H41.35L41.45 51.15L41.55 50.65L41.65 50.45H41.55L41.45 50.35H41.35L41.25 50.25H41.15L41.05 50.15L41.35 49.85L41.55 49.55L41.75 49.45L41.35 49.05L40.95 48.75L40.45 48.35L40.35 48.25V48.35L39.95 48.05L39.65 47.75L39.75 47.55L40.15 46.85L40.65 45.85L40.75 45.75H40.85L41.35 45.55L41.85 45.45L43.05 45.05H43.15V44.95V44.85V44.75V44.65V44.55V44.45V44.35L43.25 44.25V44.15V44.05V43.95V43.85V43.75V43.65H43.35V43.55H43.45V43.45V43.35V43.25H43.55H43.65V43.15L43.75 42.35L43.25 42.25L43.05 41.95L42.95 41.75L42.85 41.55L42.45 41.05L42.15 40.85L41.95 40.65L42.05 40.55H42.15H42.25H42.35H42.45H42.55V40.45L42.75 40.65H42.85H42.95H43.05H43.25L43.65 40.75L43.95 40.15L44.15 39.45L44.35 39.15L44.65 39.25H44.85H44.95L45.05 38.25H45.15L45.45 38.15L47.45 37.35L48.15 37.05H48.25L48.75 37.35L49.25 37.55H50.05H50.35H50.65H50.75H50.85V37.45L50.95 36.85L51.15 36.95L51.55 37.15L52.25 37.35L53.45 37.85L53.65 37.55L53.85 36.95H53.95L54.05 37.05H54.15H54.25V37.15V37.25H54.35V37.35L54.45 37.45V37.55H54.55V37.65L54.65 37.75V37.85H54.75V37.95V38.05L54.85 38.15V38.25V38.35H54.95V38.45H55.15V38.35L55.25 38.45L55.35 38.35L55.45 38.25H55.55H55.65H55.75H55.85H55.95H56.05H56.15H56.45L56.85 38.35H56.95H57.05L57.15 38.45L57.25 38.55V38.65V38.75H57.35L57.45 38.85L57.55 38.75H57.65H57.75L57.85 38.65V38.75H57.95L58.05 38.65H58.15V38.55H58.25V38.45L58.15 38.35V38.25V38.15H58.05V38.05V37.95V37.85L58.15 37.75V37.65H58.25V37.55H58.35V37.45H58.45H58.55H58.65H58.75H58.85V37.55H58.95H59.05H59.15H59.25H59.35H59.45H59.55H59.65H59.75H59.85V37.45H59.95H60.05V37.55H60.15H60.25H60.35L60.45 37.65H60.55V37.75H60.65V37.65V37.55V37.45V37.35V37.25H60.55V37.15L60.45 37.05V36.95V36.85V36.75V36.65H60.55V36.75H60.65H60.75H60.85H60.95V36.85H61.05H61.15H61.25V36.95H61.15V37.05H61.25V37.15H61.35V37.25V37.35H61.45L61.55 37.45H61.65V37.55H61.75V37.45H61.85V37.55H61.95H62.05H62.15V37.45H62.25H62.35H62.45V37.35H62.55H62.65H62.75V37.25H62.85H62.95H63.05H63.15V37.35V37.45V37.55H63.25V37.65H63.35V37.75H63.45V37.85H63.55H63.65L63.75 37.75V37.65H63.85H63.95H64.05H64.15V37.55H64.25H64.35V37.45H64.45H64.55L64.65 37.55H64.75H64.85H64.95V37.65H65.05L65.15 37.55H65.25H65.35V37.65H65.45V37.75V37.85V37.95H65.55V38.05V38.15H65.65L65.75 38.25H65.85V38.15H65.95V38.05L66.05 37.95H66.15H66.25V38.05H66.35V38.15V38.25H66.45V38.35V38.45V38.55H66.55V38.65H66.65H66.75H66.85V38.75H66.95V38.85V38.95H66.85V39.05V39.15H66.75V39.25V39.35H66.85V39.45H66.95H67.05H67.15H67.25V39.55H67.35H67.45H67.55V39.65L67.65 39.75H67.75H67.85V39.65V39.55L67.75 39.45V39.35L67.85 39.25H67.95V39.15H68.05V39.05H68.15V39.15H68.25H68.35H68.45V39.25H68.55V39.35V39.45V39.55H68.65V39.65V39.75V39.85V39.95H68.75H68.85H68.95V40.05H69.05H69.15H69.25V39.95H69.35V39.85V39.75V39.65V39.45V39.35L69.45 39.25V39.15H69.55V39.05H69.65H69.75V39.15V39.25H69.85V39.35H69.95V39.25H70.05V39.15H70.15V39.05V38.95H70.25V38.85V38.75H70.35H70.45V38.65H70.55H70.65V38.75H70.75V38.85H70.85H70.95V38.95V39.05V39.15H71.05V39.05L71.15 38.95V38.85H71.25V38.75V38.65H71.35V38.55V38.45H71.45V38.35H71.55V38.25V38.15H71.65V38.05L71.75 37.95V37.85H71.85V37.75V37.65H71.95V37.55H72.05V37.45H72.15H72.25H72.35H72.45V37.55H72.55H72.65H72.75H72.85H72.95H73.05H73.15H73.25H73.35V37.65H73.45L73.55 37.75H73.65V37.85H73.75H73.85V37.75H73.95L74.05 37.65V37.55V37.45V37.35V37.25V37.15V37.05H74.15L74.25 36.95H74.35H74.45H74.55V37.05H74.65H74.75H74.85L74.95 37.15H75.05H75.15H75.25V37.05H75.35H75.45H75.55L75.65 36.95H75.75V37.05H75.85H75.95H76.05V37.15H76.15V37.25V37.35V37.45L76.05 37.55V37.65L76.15 37.75V37.85H76.25V37.95V38.05V38.15V38.25H76.35V38.35H76.45V38.45H76.55H76.65L76.75 38.35V38.25H76.85V38.15H76.95H77.05V38.05H77.15H77.25H77.35H77.45H77.55V37.95H77.65V37.85V37.75H77.75H77.85V37.85H77.95H78.05H78.15H78.25V37.75H78.35H78.45H78.55V37.65H78.65V37.75H78.75H78.85V37.65H78.95L79.05 37.75V37.85L79.15 37.95V38.05V38.15V38.25V38.35H79.05V38.45H79.15V38.55V38.65H79.25V38.75V38.85H79.35H79.45V38.95V39.05H79.55V39.15H79.65L79.75 39.45V39.55L79.45 39.85H79.55H79.65H79.75H79.85V39.95V40.05H79.75L79.85 40.15H79.95V40.25H80.05H80.15H80.25V40.15H80.35H80.45V40.05H80.55H80.65H80.75H80.85H80.95H81.05V40.15H81.15H81.25V40.05V39.95V39.85V39.75V39.65H81.15V39.55V39.45V39.35V39.25V39.15V39.05H81.25H81.45H81.55V39.15H81.65H81.75V39.25V39.35H81.85V39.45H81.95H82.05V39.55V39.65V39.75V39.85V39.95H82.15H82.25H82.35L82.45 40.05H82.55H82.65H82.75V39.95H82.85V39.85H82.75V39.75V39.65V39.55V39.45L82.85 39.35H82.75V39.25H82.85V39.15V39.05V38.95H82.95V38.85H83.05H83.15V38.75V38.65V38.55H83.25V38.45H83.35L83.45 38.55H83.55V38.65H83.45V38.75V38.85V38.95L83.35 39.05V39.15H83.25V39.25L83.15 39.35V39.45V39.55H83.25V39.45H83.35L83.45 39.35L83.55 39.25H83.65L83.75 39.15H83.85V39.05L83.95 38.95H84.05V38.85V38.75L84.15 38.65V38.55H84.25V38.45V38.35V38.25H84.15V38.15V38.05H84.05V37.95H84.15V37.85H84.25V37.95H84.35H84.45H84.55V38.05V38.15V38.25L84.65 38.35L84.75 38.45V38.55V38.65V38.75L84.65 38.85L84.75 38.95V38.85H84.85L85.15 38.45V38.35L85.35 38.05H85.25L84.85 37.45H84.75L84.65 37.35L84.85 37.25L85.95 36.25L86.05 36.15L86.85 35.55L86.95 35.45L87.75 35.05H87.85L88.05 34.95L88.55 34.75L89.25 34.45L90.05 34.25V33.95L89.95 33.35L90.85 32.75L91.15 32.55L91.55 32.35L91.65 32.05L91.75 31.85H91.55L91.35 31.75L91.65 30.95L91.75 30.85V30.75V30.65L91.95 30.15L91.65 29.85L91.55 29.75L91.75 29.55L92.15 29.15H92.25L92.35 29.05L92.45 28.95V29.05H92.55H92.65V28.95L92.75 28.85V28.75H92.65V28.65V28.55H92.55L92.45 28.45H92.35V28.35H92.45V28.25H92.55V28.15L92.65 28.05L92.45 27.95L92.25 27.85V27.75H92.15L92.05 27.55L92.45 27.25H92.55L92.45 27.15V27.05H92.35V26.95H92.25V26.85L91.95 26.95L92.15 26.65L92.75 25.95L93.35 26.45L93.05 26.75L92.75 27.25L92.55 27.45L92.65 27.55V27.65V27.75V27.85L92.75 27.75H92.85V27.65H92.95H93.05H93.15L93.25 27.55H93.35H93.45L93.55 27.45H93.65V27.35V27.25L93.45 27.05L93.55 26.95L93.65 26.85L93.75 26.75L93.85 26.85L94.05 26.95L94.25 26.85L94.45 26.75L94.55 26.65L94.65 26.55V26.45H94.75H95.15L95.25 26.35H95.35L95.65 26.25V26.35V26.45L95.55 26.55V26.65H95.65V26.75V26.85H95.75H95.85H95.95H96.05V26.75H96.15H96.25H96.35H96.45H96.55H96.65V26.85H96.75H96.85H96.95H97.05H97.15H97.25H97.35H97.45H97.55H97.65V26.75L97.85 27.05L98.15 27.15L98.35 26.55L98.45 26.35V26.25V26.15L98.65 25.45H98.55L98.65 25.25V25.05L98.55 24.95V24.85L98.45 24.75L98.55 24.65L98.65 24.55L98.95 24.45L99.55 24.35H99.65L99.95 24.25L101.25 24.85L101.35 24.75L101.55 24.65L101.65 24.55V24.45L101.85 24.35H101.95H102.05V24.25H102.15V24.15H102.25H102.35H102.65L102.85 24.05H102.95L103.45 23.85H103.55L103.65 23.75V23.65L103.85 23.35L103.95 23.15V23.05L104.15 23.15L104.25 23.25L104.15 23.45L104.35 23.55V23.65L104.45 23.75V23.85H104.55H104.65L104.75 23.95L104.85 24.05H104.95V24.15H105.05H105.15H105.25L105.35 24.25L105.45 24.15V24.05L105.75 24.15L105.95 24.35L106.25 24.45L106.35 24.65H106.45L106.55 24.75H106.65L106.85 24.95L107.15 25.15L107.65 25.45V25.55L108.35 25.85L108.55 25.95H108.65H108.75L108.85 26.05H108.95L109.65 26.35V26.45L109.75 27.15L109.45 27.65L109.35 27.95H109.45L109.85 28.45L110.05 28.05L110.15 27.95V27.85H110.25V27.75V27.65H110.35V27.55V27.45V27.35H110.45V27.25H110.55H110.65V27.15H110.75V27.05H110.85V26.95H110.95V26.85L111.05 26.75V26.65V26.55L111.15 26.45H111.25H111.35H111.45V26.35L111.55 26.25L111.45 26.15H111.55L111.65 26.35L111.75 26.25L111.85 26.45L112.05 26.35L112.65 26.15L113.25 25.95L113.45 25.85L113.55 25.75L113.75 25.65L113.85 25.75H113.95V25.85H114.05H114.15V25.75V25.65H114.25V25.55H114.35H114.45V25.45L114.55 25.35V25.25V25.15L114.65 25.05L114.75 24.85H114.85L115.15 24.55H115.25L115.85 25.15H115.95H116.05L116.25 25.65H116.35L116.55 25.55L117.05 25.45L117.15 25.55V25.45H117.25L117.35 25.35H117.45H117.55L117.75 25.25H117.85L117.95 25.45L118.05 25.55L118.55 25.45V25.95L118.45 26.15V26.25H118.35H118.25L118.35 26.35H118.25V26.45H118.15V26.55L118.35 26.45H118.45L118.55 26.35L118.65 26.45H118.75L118.65 26.35H118.75V26.65L119.15 26.75V26.05L119.55 25.95H119.75H120.25H121.15L121.35 25.75L121.45 25.65V25.15V24.95V24.75V24.55V23.85L121.55 23.65V23.55V23.45L121.45 23.25V23.35L121.35 23.25H121.25V23.15V23.05H121.15L121.05 22.95H120.45L120.65 22.75L120.55 22.05L120.65 21.95V21.85L121.05 21.65H121.45L121.75 21.55H121.85L121.95 21.45V21.35H122.05H122.15H122.25H122.35H122.45H122.55H122.65H122.75L122.85 21.25V21.15V21.05V20.95V20.85V20.75L122.95 20.65V20.55V20.45V20.35H123.05V20.25V20.15V20.05L122.85 19.95V19.85L122.95 19.75L123.05 19.65V19.55V19.45H123.15V19.55H123.25H123.35H123.45H123.55H123.65V19.65V19.75V19.85L123.75 19.95H123.85V19.85H123.95H124.05H124.15H124.25H124.35V19.95H124.55L124.65 20.05L124.75 20.15L124.85 20.05L124.95 19.65V19.25L125.05 18.75L125.15 18.55L125.35 17.05L125.65 15.55L125.75 15.25L125.65 15.15V14.95V14.75V14.65L125.85 14.45H125.95H126.05H126.15V14.55V14.65H126.25H126.35H126.45V14.75H126.55H126.65L126.85 14.65V14.75L127.05 14.65V14.55V14.45L127.15 14.25V14.05V13.95H127.05L126.95 14.05H126.75V13.95V13.85V13.75L126.85 13.65L126.75 13.55H126.85V13.45V13.35V13.25H126.95V13.15L127.15 13.05V12.95H127.25H127.35H127.45L127.65 13.05H127.75H127.85L127.95 13.15H128.05H128.15L128.05 12.95V12.65L128.25 12.85V12.95L128.35 13.05L128.45 13.15H128.55H128.65H128.75V13.05H128.85V13.25V13.55H128.95L129.15 13.45H129.25L129.35 13.55H129.45L129.55 13.45L129.65 12.95L130.55 13.05H130.75L131.35 13.15V13.55L131.45 13.45L131.65 13.85L132.05 13.75L132.25 13.65L132.35 13.85L132.45 14.55L132.65 15.15L132.75 15.25V15.35V15.45L132.65 15.55V15.65H132.55H132.45V15.75V15.85H132.55V15.95H132.45V16.05V16.15L132.55 16.25V16.35H132.65V16.45H132.75H132.85V16.35H132.95V16.45V16.55L133.05 16.65V16.75H133.15H133.25H133.35V16.85H133.45H133.55H133.65V16.95H133.75V17.05H133.85L134.05 17.15H134.15H134.35H134.65H134.75H134.85V17.05L134.95 16.95L135.05 16.85V16.75L135.15 16.65V16.45V16.35H135.25V16.25L135.35 16.05H135.45L135.75 16.15L135.95 15.55L136.05 15.25L136.15 15.15V15.25L136.25 15.45V15.55H136.35V15.65V15.75H136.45V15.85H136.55V15.95V16.05V16.15L136.65 16.25H136.75H136.85V16.15H136.95V16.05H137.05V16.15H137.15L137.05 16.25V16.35H137.15H137.25V16.45H137.35H137.45H137.55V16.55L137.65 16.65L137.55 16.75H137.45H137.25L137.35 17.15L137.65 17.85V17.95V18.05H137.75V18.15L137.65 18.25V18.35V18.45V18.55V18.65L137.75 18.75H137.85L137.95 18.65L138.15 18.55L138.25 18.45L138.45 18.35V18.25H138.55V18.15H138.65H138.75L138.85 18.05V18.15H138.95H139.05V18.25H138.95V18.35V18.45H138.85L138.95 18.55V18.75V18.85V18.95V19.05L138.85 19.15V19.25H138.95V19.35H139.05V19.45V19.55H139.15V19.65L139.25 19.75V19.85H139.15V20.05V20.15L139.25 20.25V20.35H139.35H139.45L139.65 20.45V20.55V20.65L139.75 20.75V20.85V20.95L139.85 21.05V21.15V21.25H139.75L139.55 21.45L139.75 21.65L139.65 21.85H139.75V21.95V22.05H139.65L139.55 22.25V22.35H139.65V22.45V22.55H139.75V22.65V22.75H139.85H139.95V22.85V22.95L140.05 23.05H140.15V23.15L140.05 23.25L140.15 23.35V23.45L140.25 23.55L140.15 23.65H140.05L139.95 23.75L140.05 23.85H140.15V23.95L140.55 23.85H141.05H141.15H141.25L141.55 23.95L141.65 23.65V23.55H141.55V23.45H141.45V23.35H141.35V23.25H141.25V23.15V23.05V22.95H141.15L141.05 22.85L141.15 22.65L141.25 22.55L141.35 22.45V22.35H141.45L141.35 22.25H141.25L141.05 22.15V21.95L140.95 21.85V21.75H141.45V21.85H141.65H141.85V21.95L141.75 22.05H141.85L142.15 22.25L142.25 22.35L142.45 22.45H142.65L142.95 22.35V22.85V22.95H143.05H143.15V23.05L143.25 22.95H143.35V22.85L143.45 22.95V22.85H143.55V22.75L143.65 22.65H143.75V22.55L143.65 22.45V22.25H143.95L144.15 22.15H144.25L144.45 21.95L144.55 22.05V22.15V22.35L144.45 22.55V22.65H144.55L144.65 22.75H144.95L145.05 22.65H145.35H145.95H146.05V22.55V22.45H146.15V22.75L146.25 22.85L146.75 22.65V22.75L147.25 22.65L147.35 22.55V22.45H147.45V22.35H147.55H147.65H147.75V22.25H147.85V22.35H147.95V22.45V22.55L148.15 22.45H148.05V22.35L147.75 21.65L147.65 21.55L147.55 21.25L147.45 21.05L147.55 20.95L147.65 20.85V20.75V20.65V20.55L147.75 20.45H147.85V20.35H147.95L148.15 20.65L148.95 20.55V21.05L149.05 21.15L150.65 20.95L150.85 21.95L151.45 21.85L152.15 21.75L153.25 21.55L153.95 21.45V21.05L154.85 20.95L156.25 20.75H156.45L156.35 19.95L157.05 19.85H157.85V19.25H157.75H157.55L157.35 19.35H157.15H157.05L156.85 19.25L156.75 19.15L156.65 19.05V18.95H156.55V18.85L156.45 18.75V18.45V18.35V18.25L156.35 18.35L156.25 18.45L156.15 18.55H156.05H155.95H155.85H155.75H155.65L155.55 18.35L155.45 18.15V18.05L155.55 17.95H155.65L155.75 18.05H155.85L155.95 18.15V18.05V17.95H156.05H156.15V17.75H156.05V17.65H156.15V17.55H156.05V17.45H156.15V17.35H156.25L156.35 17.25V17.05H156.05L155.95 16.45L155.85 15.95V15.35L155.75 14.85L155.65 14.05L155.35 13.85L154.95 13.65L154.85 13.55V13.45H154.95L155.05 13.35L155.25 13.25L156.65 12.45L157.25 12.25V12.15L157.85 12.05L158.65 11.85H158.75V11.75L158.85 11.65V11.45V11.25V10.75L158.75 10.55L158.65 9.85001L156.75 9.25L155.25 8.85001L153.55 8.35001L153.05 8.15002L152.95 8.05002L152.75 7.95001L152.45 7.75L152.25 7.45001L152.15 7.25V7.15002L152.05 6.95001V6.85001V6.75V6.65002V6.55002V6.45001V6.35001L152.25 6.25L152.45 6.15002L152.55 6.05002L152.65 5.95001V5.75V5.55002L152.75 5.25L152.95 4.85001L153.35 4.45001L153.65 4.05002L154.15 3.55002L154.45 3.15002L154.55 3.05002L154.65 2.85001L154.95 2.55002L155.35 2.35001L155.65 2.15002L155.95 1.95001L156.15 1.75L156.55 1.45001L156.65 1.35001L156.75 1.15002L156.95 0.450012V0.25H157.05L157.55 0.550018L158.65 1.05002L159.85 1.15002H160.25H160.35L160.55 1.25H160.65L160.85 1.15002H160.95L161.05 1.05002H161.15H161.25L161.45 0.950012L161.85 0.650024L162.05 0.550018H162.15L162.35 0.450012L162.65 0.350006H162.75H162.85L163.15 0.450012L163.25 0.550018L163.35 0.650024H163.45V0.75L163.55 0.850006V1.05002L163.65 1.15002V1.35001V1.55002V1.75V1.85001L163.55 2.05002L163.45 2.25V2.35001L163.35 2.55002V2.65002V2.85001L163.45 2.95001V3.15002L163.55 3.25L163.75 3.35001L163.85 3.55002H163.95L164.35 3.65002L164.75 3.85001L165.15 4.05002L165.25 4.15002L165.45 4.65002L165.65 4.85001L165.75 4.95001L165.85 5.05002H165.95H166.25L166.45 4.95001H166.75L166.95 5.05002H167.15L167.75 4.85001H168.15H168.25L168.35 4.95001H168.55L168.75 5.05002L168.95 5.15002H169.25H169.45H169.55L169.65 5.25L169.85 5.35001L170.05 5.65002L170.15 5.85001L170.25 5.95001V6.05002V6.25V6.35001L170.35 6.45001V6.55002L170.45 6.65002L170.75 6.85001L170.85 6.95001V7.05002L171.05 7.35001L171.35 7.95001L171.65 8.35001L171.75 8.55002L172.05 8.85001L172.15 9.05002L172.25 9.15002V9.25V9.35001L172.15 9.45001L171.85 9.75V9.85001V9.95001L172.15 10.25V10.45L172.25 10.65V10.85L172.15 11.25L172.05 11.45V11.55L172.15 11.65V11.75L172.25 11.85H172.45L172.55 11.95L172.65 11.85H172.75L173.25 11.75H173.35H173.55H173.65L173.75 11.85L174.15 12.35L174.25 12.45L173.85 12.85V12.95L174.05 13.05H174.15V13.15L174.25 13.45L174.35 13.55H174.45H174.55H174.75H174.85L174.95 13.45L175.05 13.35L175.45 13.25H175.55V13.15V12.75L175.65 12.65H175.75L175.85 12.75L176.05 12.85L176.45 13.15H176.55H176.65V13.05L176.75 12.65V12.55V12.25V12.15V11.95V11.25V11.15V10.45V10.25V9.65002V9.55002V9.15002V8.95001V8.85001V8.55002V8.45001V8.25V8.15002V8.05002V7.95001V7.85001L176.65 7.65002V7.45001L176.55 7.35001V7.15002L176.45 6.95001L176.35 6.65002V6.55002V6.45001L176.25 6.35001H176.35L176.55 6.55002L176.65 6.65002L176.95 6.95001L177.05 7.05002L177.35 7.35001L177.45 7.45001L177.55 7.55002L177.65 7.85001V7.95001V8.05002V8.15002L177.75 8.35001V8.95001L178.05 8.85001L178.15 8.95001L178.25 9.15002L178.55 9.45001V9.55002L178.65 9.65002L178.75 9.75L178.95 9.85001L179.25 9.95001L179.65 10.05L179.35 10.55L179.25 10.85L178.85 11.75H178.75H178.65H178.55H178.45H178.35H178.25L178.15 11.65V11.75H178.05L177.85 11.85H177.75L177.65 11.95H177.55L177.45 12.15H177.55H177.65H177.75H177.85H177.95L177.85 12.25V12.35L177.95 12.45H178.05H178.15H178.25H178.35V12.55V12.65L178.25 12.75V12.85L178.75 12.75H179.05H179.15L179.35 12.95L179.75 13.15L179.45 13.75V13.85L179.35 13.95V14.05V14.15L179.45 14.25L179.55 14.45L179.65 14.55L180.05 15.05L180.25 15.55V15.65V15.75V15.95H180.35L180.45 15.85L180.55 15.95V16.05V16.15L180.65 16.25L180.75 16.55L180.85 16.65L181.05 17.05L181.15 17.15L181.05 17.25H180.95H180.85L180.75 17.35L180.65 17.45L180.55 17.55L180.45 17.65H180.35L180.25 17.75H180.15L180.05 17.85H179.95V17.95L179.85 18.05V18.15H179.75V18.25H179.65L179.55 18.35H179.45H179.35V18.65V18.55H179.25V18.65V18.85L179.45 19.25L179.55 19.45L179.65 19.65L179.85 20.05L179.95 20.45H180.05V20.55V20.65H179.95L180.25 21.25L180.45 21.65L180.65 22.15L180.05 22.45L180.25 22.75L180.35 23.15L180.95 22.95L181.05 23.15L181.55 22.85L181.85 22.75H181.95H182.05V22.95V23.15L182.15 23.25L183.15 23.95L184.35 24.75L184.55 24.85V24.75L184.45 24.45V23.45L184.35 22.95V22.85L184.45 22.75L184.65 22.55L184.55 22.35L184.75 22.15L184.95 22.45H185.05H185.15H185.25H185.45L185.65 22.65V22.75L185.55 23.05L185.45 22.95L185.25 22.85V22.95L185.45 23.05L185.55 23.15L185.75 22.95H185.85L185.95 22.85L186.05 22.55L186.85 22.65H186.95L187.15 22.75L188.15 22.85L188.25 22.95L188.05 23.95L188.35 24.25L188.15 25.85H188.25V25.75H188.35V25.65H188.45V25.75H188.55H188.65H188.75V25.65V25.55L188.95 25.35V25.25H189.05L189.15 25.15H189.25H189.35V24.85L190.25 24.65L191.35 24.45L191.55 25.45H191.65H191.75H191.85V25.95H192.05H192.15L192.25 25.85H192.35L192.55 25.95L193.25 26.05V25.95V25.85V25.75H192.95L192.85 25.45L193.55 25.35L193.65 25.65L193.95 25.55L194.35 24.95L194.85 24.15L195.05 23.95L194.85 23.85L194.55 23.65V23.55H194.65L194.75 23.35L194.85 23.05L195.15 23.25L195.55 22.65V22.55L196.35 22.15V22.05V21.95V21.85V21.75L196.45 21.55V21.35V21.25L196.75 21.05L196.95 20.95H197.25H197.55L197.65 20.85H197.75H197.85L197.95 21.35L198.15 21.65L198.35 22.15L198.45 22.25L198.55 22.45L198.65 22.55V22.65H198.75H198.85V22.75H198.95L199.05 22.85L199.15 22.95V23.15L199.25 23.25L199.45 23.35H199.55L199.65 23.45L200.05 23.75L200.15 23.85H200.35H200.45H200.55L200.85 23.75H200.95H201.05H201.25H201.45L201.95 23.55H202.05L202.45 23.45H202.55H202.65L202.95 23.55L203.15 23.65L203.35 23.75H203.55L203.85 23.85H204.05H204.15H204.25H204.35H204.45H204.65H204.85H204.95L205.15 23.95L205.55 24.05L205.75 24.15H205.85L206.25 24.35L206.45 24.55L206.55 24.65L206.65 24.75L206.85 24.95L207.25 25.45L207.65 25.75L207.75 25.85L207.95 25.95L208.15 26.15L208.35 26.25L208.55 26.35H208.75L208.95 26.45L209.05 26.55H209.15L209.35 26.75V26.85L209.25 27.15L209.15 27.65V27.75V27.85V28.05L209.05 28.35V28.45L208.95 28.85L208.85 29.25L208.75 29.45L208.65 30.15L208.45 30.85L208.35 31.45H208.25L208.15 31.55H208.05H207.95H207.85V31.65H207.75L207.65 32.35L207.35 33.35L207.25 34.05L207.15 34.35H207.05L207.15 35.15V35.25L207.25 35.75V35.85V36.05V36.15V36.35V36.55L207.15 36.65V36.75L207.05 36.85H206.95H206.85H206.65H206.55H206.45L206.25 36.95H206.15V36.85V36.75H206.05V36.65V36.55H205.95L205.85 36.45H205.75H205.65L205.55 36.35V36.05H205.45V35.95V35.85V35.75V35.65L205.35 35.35V35.25V35.15V35.05V34.95L205.25 34.85V34.65V34.55L205.15 34.35H205.05L204.75 34.45H204.65H204.55H204.45H204.35L204.25 34.55V34.65V34.75V34.85V34.95V35.05H204.15H203.95H203.75L203.55 35.15H203.35H203.25L203.15 35.05V34.95V34.85V34.75V34.65L202.65 34.75V34.85H202.35L202.05 34.95H201.95V35.05L201.85 35.25H201.75V35.35V35.45H201.45L201.05 35.55H200.95H200.85L200.75 35.05V34.65L200.65 34.45V34.35V34.25L200.55 33.85L200.25 33.75V33.65V33.55H199.95H199.85H199.75L199.25 33.85L199.05 33.95L198.95 33.75L198.85 33.55L198.75 33.45H198.55H198.45L198.35 33.35L198.25 33.45V33.55H198.15V33.65H198.05V33.75V33.85L197.95 33.95V34.05H197.85V34.15L197.75 34.35L197.65 34.45V34.55L197.55 34.65V34.75V34.85H197.45V34.95V35.05L197.35 35.15H197.25H197.05L196.95 35.25L196.45 35.35H196.25H195.95V35.45H195.75L195.45 35.55L195.35 35.05L194.75 35.15L194.65 34.65L194.35 34.75L193.65 34.85L193.75 35.35V35.55L193.85 35.95V36.15H193.75H193.65H193.45V36.35L193.55 37.15L193.65 37.25V37.35L193.75 37.65L193.85 37.85H193.75V37.95V38.05L193.85 38.15H194.05V38.35L194.15 38.55L194.95 38.25L195.15 39.05L195.25 39.45L195.35 39.55V39.85L195.45 40.05L195.55 40.15H195.75H195.85V40.25H195.95H196.05L196.25 40.35H196.35H196.55L197.05 40.25V40.65L197.35 40.55H197.65L198.05 40.45H198.65L198.75 40.55L199.15 40.85L199.25 41.05H199.35L199.55 41.25L199.85 41.55L200.05 41.85L200.15 41.95L200.25 42.05L200.35 42.15L200.55 42.25V42.35L200.85 42.55L201.05 42.75L201.15 42.85L201.85 42.75H201.95V43.05L202.05 43.55L202.15 43.65H202.45L202.95 43.55L203.25 43.45H203.35H203.45L204.05 43.35L204.25 43.25L204.75 43.15H204.85V43.25V43.75V44.15L204.75 45.05L203.25 45.35L202.55 45.45H202.35L202.45 45.75V45.85L202.55 46.05V46.25H202.65H202.75V46.55H202.55L202.65 47.25L202.75 47.55V47.75V47.85L202.65 47.95H202.55H202.45V48.05H202.35H202.25V48.15L202.15 48.25H202.05H201.95L201.85 48.35H201.75V48.45V48.55H201.85V48.65H201.75V48.75L201.65 48.65H201.55L201.45 48.55H201.35L201.25 48.65V48.75H201.15V48.65L200.65 48.75V48.85L200.55 48.95H200.45H200.35L199.95 49.15L199.85 49.25L199.55 49.35L199.25 49.65L198.85 49.95L198.65 50.15L198.05 50.65L197.55 50.95V50.85L197.45 50.95L197.35 50.45H197.15L197.05 49.85H196.85L196.65 49.95L195.85 50.05V49.65L195.65 49.75L195.05 49.85H194.95V49.95L195.05 50.05V50.15L195.15 50.45V50.55L195.45 51.45V51.65L195.65 52.35V52.45L195.35 52.55L194.05 52.95L193.85 51.85L193.75 51.65L193.15 51.75L192.25 51.85L191.25 52.05L190.55 52.15H190.35L189.95 52.25L190.05 52.75V52.95L189.65 53.05V52.85L189.25 52.95L188.55 53.05L188.65 53.45V53.75V53.85L188.05 54.05L188.25 54.25L188.35 54.55L188.45 54.65V54.75H188.25L188.05 54.85L187.95 54.95L188.05 55.55L188.15 56.25V56.65L188.35 57.65V58.25L188.45 58.65L188.55 59.15V59.75L188.65 59.95V60.35L188.75 60.95L188.85 61.55V61.95L188.95 62.05V62.15V62.25L188.85 62.95V63.05V63.25V63.45V63.85V64.15V64.35L188.75 64.55V64.75H189.25L189.35 65.55H188.95H188.85H188.75V65.75L188.65 66.05H188.25H188.15V66.15H188.05V66.25V66.35L187.95 66.95V67.25H188.15L188.25 67.35L187.95 67.75L187.45 68.25V68.45L187.55 68.95H188.25H188.45L188.35 69.15L188.25 70.05L188.15 70.65L188.35 70.75V70.45H188.45H188.65H188.75H188.85L188.95 70.35H189.15H189.25H189.35H189.45L189.55 70.25H189.65H189.75H189.85L189.95 70.35H190.05L190.15 70.45H190.25L190.35 70.55V70.65V70.75L190.25 70.95V71.45L190.15 71.55L190.05 72.55L189.95 73.15L190.25 73.25V73.35L190.35 73.65V73.75V73.85H190.45V73.95H190.35V74.05H190.25V74.15V74.25H190.15V74.35L190.95 74.45L191.05 74.85L191.15 75.45L191.25 76.05V76.25H191.45L191.55 76.45V76.55L191.75 77.45L191.85 77.55V77.65L191.55 77.75L191.45 77.85V77.95V78.05V78.15L191.25 78.35L190.85 78.55L190.75 78.45L190.55 78.55V78.65L190.15 77.95H190.05L189.55 77.85L189.45 78.15V78.25V78.35L189.35 78.95L188.95 79.15H188.85H188.75H188.65L189.05 79.65L189.35 79.45V79.65V79.85L189.25 79.95V80.05L188.35 80.25L188.45 80.65L187.65 80.75L186.65 80.95L185.95 81.05V81.15L185.85 81.25V81.35V81.45V81.65L186.05 82.45H185.95L185.55 82.55L185.35 82.65H184.75L184.25 82.75L183.85 82.85H183.45L183.35 82.95V83.05H183.25H183.15H183.05H182.95H182.85H182.75H182.65H182.55L182.45 82.95V83.05H182.35V83.15L182.25 83.25V83.35H182.15H181.25L180.25 83.45H180.15L180.25 83.75V83.85H179.85L179.35 83.95L178.95 84.05L179.05 84.25L179.15 84.35L179.25 84.65L179.55 85.25L179.75 85.65H180.15V85.75L180.25 85.85V85.95V86.05V86.15L180.15 86.25V86.45H180.05H179.85L179.75 86.35H179.65H179.55H179.45V86.45V86.55V86.65V86.75V86.85V86.95H179.25V87.15L179.15 87.35V87.45H179.05V87.55V87.65H178.95H178.65L178.25 87.55L178.05 85.45V85.35L177.95 84.95L178.15 84.85V84.65L177.95 83.75L176.75 83.95L176.65 83.45L176.55 82.35H176.15L175.75 82.45L174.95 82.55L175.05 83.15L175.15 83.45L175.25 84.15H175.35L175.75 84.05V84.35V84.65L175.85 84.95V85.15V85.25L175.95 85.55V85.75V85.85H175.85H175.75L175.25 85.95V86.15H175.05L174.35 86.25L173.65 86.35L173.45 86.45V86.65V86.85L173.55 87.05V87.35V87.45H173.65H173.75L174.55 87.35L175.25 87.25H175.45L175.35 86.65H175.55V86.85L176.15 86.75L176.25 87.25L175.45 87.35L175.55 88.35L174.75 88.55H174.65L173.75 88.65L173.35 88.75L172.95 88.85H172.85V88.95H172.45L171.95 89.05L172.05 89.35V89.45H171.95L171.75 89.55H171.45L171.55 90.25H171.75V90.55L171.85 90.75V91.05V91.35L172.05 92.15L171.75 92.25L171.65 91.45L171.55 90.75V90.65L171.45 90.55H171.05L170.65 90.65H170.45L170.25 90.75H170.05V90.45L169.55 90.55L169.65 90.65V90.75V90.85V90.95H169.55V91.05L169.45 91.15L169.55 91.25V91.35V91.45V91.55V91.65V91.75V91.85H169.65V91.95L169.75 92.05L169.85 92.15H169.75H169.65L169.45 92.25H169.05H168.95L167.95 92.45L167.65 92.55H167.35L167.05 92.65H166.75L166.35 92.75H166.25H166.05L166.15 92.85V92.95H166.05H165.95V93.05H165.85L165.95 93.35V93.45V93.55V93.75H166.05V94.15V94.25V94.35V94.45H165.95H165.85V94.55H165.75L165.45 94.65V94.75V94.85H165.55V94.95V95.05V95.15L165.45 95.25V95.75L165.35 95.85V95.95V96.25L165.45 96.35V96.45H165.55V96.55H165.45H165.35L165.15 96.45H165.05L164.95 96.35H164.85L164.75 96.25H164.65V96.15H164.55H164.45V96.05L164.35 95.25L164.15 94.25L164.05 93.55L163.85 92.45L163.75 91.75L163.35 91.85L162.95 92.15L162.65 92.25L162.45 92.35L162.15 92.55L161.95 92.65H161.85L161.65 92.45V92.35L161.55 92.25V92.15H161.45V92.25H161.35L160.95 92.35H160.85L159.85 92.55L160.05 92.95L158.95 93.15L158.35 93.25L158.25 92.85V92.75L157.75 92.95L157.85 93.55H157.95V93.65H158.05H158.15V93.75H158.25H158.35L158.45 93.85L158.55 94.15V94.35L158.65 95.05L158.95 96.45H158.55L157.85 96.65H157.55V96.55L157.45 96.45H157.35L156.75 96.55L155.85 96.75H155.75L155.45 96.85L154.85 96.95H154.75L154.65 97.25L154.55 97.15H154.45L154.25 97.25V96.85V96.75H154.05L153.95 96.65V96.45V96.25L153.85 95.85H153.65L153.35 95.95H153.15H153.05H152.95L152.85 96.05H152.45H152.35L149.65 96.55L148.55 96.75L148.65 96.85V97.35L148.75 97.95L148.85 98.35L148.95 99.15V99.35L150.95 98.95L151.05 99.05V99.15V99.25V99.35V99.45L150.95 99.55L151.05 99.65L151.15 99.75V99.85L151.25 99.95L151.35 100.05V100.15V100.25V100.35H151.45V100.45L150.65 100.55L150.05 100.65L149.35 100.75L148.95 100.85H148.85L148.55 100.95H148.45L147.75 101.05L146.75 101.25H146.65L146.75 101.85L146.85 102.25L146.95 102.55L147.25 102.45H147.55L147.95 102.35L148.05 102.95V103.15V103.25L148.15 103.35V103.45V103.55L148.25 103.75L148.35 104.95L147.35 105.05L147.45 105.65L147.55 106.15V106.25V106.45L147.75 106.25L147.85 106.05V106.15L147.95 106.25V106.35L148.05 106.45L147.95 106.55L147.85 106.95L147.75 107.15L147.65 107.25L147.35 107.45L147.05 108.15L146.95 108.25V108.45V108.85L146.55 108.95L145.75 109.15H145.35H145.25V109.25L145.35 109.35L145.15 109.45L144.65 109.55H144.15V109.65H144.05H143.75L143.25 109.75L142.75 109.85H142.65L142.45 109.95L141.45 110.05L140.95 110.15L139.65 110.45L139.05 110.55H138.85L138.15 110.65H137.95L137.75 110.75H137.55L137.45 110.85H137.25H137.15H136.85L136.65 110.95L136.25 111.05H136.05H135.85L135.75 111.15H135.65H135.55H135.45H135.35L135.25 110.85V110.65V110.45V110.35H135.15V110.25H135.05H134.95V110.35V110.45H134.85V110.55H134.75H134.65V110.65H134.55H134.45H134.35V110.75H134.25H134.15H134.05H133.95L133.85 110.65V110.55V110.45H133.95H134.05V110.55H134.15V110.45V110.35H134.05H133.95H133.85H133.75V110.45H133.65H133.55V110.55H133.45H133.35V110.45L133.25 110.55H133.15H133.05H132.95L132.85 110.65L132.75 110.75V110.85L132.55 110.75H132.45V110.85V110.95H132.35V111.05V111.15L132.25 111.25H132.15H132.05V111.15H131.95L131.85 111.05H131.75V110.95H131.65V110.85H131.55V110.75H131.45L131.35 110.65L131.25 110.55V110.45H131.15H131.05H130.95V110.35H130.85V110.25H130.75L130.65 110.15V110.05H130.55L130.45 109.85V109.75H130.35V109.65V109.55V109.45V109.35H130.25H130.15V109.25H130.05V109.35L129.95 108.95V109.05H129.85H129.75L129.65 108.95H129.55V109.05H129.45V108.95H129.35H129.25L129.35 108.85H129.25V108.75H129.15V108.65H129.05H128.95L128.65 108.75H128.55H128.35L127.65 108.95H127.25L126.45 109.15L126.15 109.25H125.85H125.75V109.55L125.85 109.95V110.35L125.95 110.85H125.65L125.05 111.05L125.15 111.35L125.25 111.95L125.35 112.55L125.45 113.35L124.95 113.45L124.35 113.55L123.75 113.75L123.15 113.85L122.65 113.95L122.15 114.05H121.95H121.85V113.95V113.85L121.75 113.55V113.35H121.65H121.55V113.45H121.65V113.55H121.55V113.65V113.75H121.45H121.35V113.85H121.25H121.15V113.95H121.25L121.15 114.05V114.15H121.05H120.95V114.25H120.85V114.15V114.05L120.75 113.95V113.85H120.65V113.75H120.55V113.65H120.65V113.55H120.35L120.25 113.65H119.85H119.75L119.65 113.55L119.55 112.95V112.55L119.45 112.15L119.35 111.55L118.95 111.65L118.35 111.75V111.65L118.25 111.45V111.15L118.15 110.75V110.65H117.85L117.65 109.85L117.55 109.95H117.15L116.85 110.05L116.75 109.85V109.65L116.65 109.45L116.55 109.05L116.05 109.15L115.85 109.25H115.45L115.15 109.35L114.75 109.45H114.55V109.35V109.25V109.15H114.45L114.35 109.25H114.25H114.15H114.05L113.85 109.35H113.75L113.25 109.45H112.75L112.55 109.55H112.35L111.75 109.65L111.95 110.45L111.85 110.55L111.05 110.65L110.45 110.75L109.65 110.95H109.25L108.35 111.15L107.45 111.35V111.45L106.95 111.55L106.35 111.65L105.65 111.75V111.65L105.55 111.45L105.45 110.95V110.85V110.65L105.35 110.25L105.25 109.95L105.15 109.65V109.15L105.35 109.05L105.85 108.95L106.45 108.85L107.05 108.75L107.15 108.65H107.25V108.55V108.45H107.35V108.35H107.25V108.25H107.15V108.15H107.05V108.05H106.95V107.95H106.85V107.85V107.75L106.75 107.65V107.55V107.45H106.55L106.45 107.05V106.95V106.75L106.75 106.65L106.65 106.45L106.55 105.95V105.75V105.65L106.65 105.55L107.85 105.45H108.15H108.25V105.35H108.35V105.25H108.25V105.15V105.05V104.95H108.15V104.85V104.75V104.65L108.05 104.55V104.45V104.35V104.25H107.85V104.15H107.75V103.85V103.65V103.55V103.35H107.85H107.95V103.25V103.15V103.05V102.95H107.85V102.85V102.75L107.75 102.65V102.55L107.65 102.45V102.35V102.25V102.15V102.05V101.85V101.75V101.65V101.45H107.55H107.45H107.35L107.05 101.55H106.85H106.75L106.65 101.65H106.55L106.35 100.55L106.15 99.65L106.05 98.45L105.95 98.05L105.75 98.15H105.55L105.25 98.25H105.15H105.05H104.95H104.85H104.75H104.65H104.55H104.45L104.35 98.35H104.25H104.15H104.05H103.95H103.85H103.75V98.55H103.65L103.45 98.65H103.15L103.05 98.75H102.95H102.85V98.45L102.75 98.35H102.65V98.45H102.55V98.55H102.65V98.65H102.55V98.75H102.45H102.35V98.85H102.45V98.95H102.35H102.25V99.05V99.15V99.25H102.15V99.35H102.05V99.45V99.55H101.95V99.45H101.85H101.75V99.55H101.65H101.55H101.45V99.65H101.35V99.55H101.25V99.45V98.85L101.15 98.45L101.05 98.05L100.95 97.65V97.35V97.15L100.85 96.85L100.75 96.35L100.65 95.85L100.55 94.85L100.45 94.35L100.35 93.65V93.55L100.25 93.25L100.15 92.95V92.65L100.75 92.55L101.85 92.35L102.05 92.25H102.15L102.85 92.15V92.05V91.95L102.75 91.65V91.55L102.65 91.15L102.55 90.55L102.45 89.95L102.35 89.55L102.25 88.75L102.15 88.15L102.05 87.65L101.05 87.85L100.55 87.95L99.75 88.05H99.45L99.35 88.15H99.25H99.15H99.05L98.85 88.25H98.75H98.55H98.45H98.35L98.25 87.75L98.05 86.75V86.55L97.95 86.65H97.85V86.55L97.75 86.45H97.85V86.35H97.95V86.25H97.65L97.05 86.35L96.65 86.45L96.05 86.55L95.75 86.65L95.65 86.25V85.95H95.55L95.45 85.75V85.65L95.35 85.15L95.05 85.25V85.15H94.85L94.75 85.25H94.45L93.95 85.45H93.85H93.75L93.55 85.55H93.25L92.75 85.65L92.85 86.05L92.75 86.15V86.25V86.35V86.45V86.55V86.65V86.85L92.85 87.35H92.75L92.55 87.45H92.45V87.55H92.35H92.25H92.15H92.05V87.65V87.75V87.85L91.95 87.75L91.85 87.65L91.75 87.25L91.55 87.05H91.45H91.35L91.05 87.15L90.65 87.25L90.75 87.55L90.85 88.35L91.05 89.45L91.15 89.95V90.05L90.75 90.15H90.45H90.05H89.15V90.35V90.45V90.55V90.65H89.25V90.75H89.15V90.85L89.05 90.95L88.95 91.15L88.85 91.25L88.75 91.35V91.45H88.65H88.55H88.45L88.25 91.55L88.15 91.15L88.05 90.65L87.95 90.45H87.55L87.15 90.55H87.05L87.15 89.75V89.65V89.55V89.45H87.25V89.35V89.25L87.35 89.15V89.05L87.95 88.95L88.55 88.75L88.45 88.45L88.35 88.05V87.95L88.15 86.85L87.95 85.85V85.55L87.55 85.65H87.15L87.05 85.75H86.85L86.05 85.95L85.05 86.15L84.45 86.25V86.35L84.55 86.95H84.45L84.05 87.05H83.75L83.55 87.15H83.35L83.25 86.75V86.65L83.15 86.45L83.05 85.85V85.75L82.95 85.55V85.45H82.85H82.75H82.65H82.55V85.55V85.65H82.45V85.75V85.85H82.35V85.95H82.25V86.05H82.15V86.15H82.05V86.25H81.95V86.35H81.85H81.75H81.65H81.55H81.45H81.35H81.25H81.15H81.05H80.95V86.45H80.85H80.75H80.65V86.55H80.55H80.45V86.65H80.35H80.25V86.75H80.15H80.05H79.95H79.85L79.75 86.65L79.65 85.75L79.55 84.95L78.65 85.35L78.25 85.45H78.15L77.35 85.75L76.95 85.95L76.25 86.15L75.65 86.35L75.25 86.55L75.15 85.85L75.05 85.25L74.95 84.65L74.75 83.65L74.65 83.15V83.05L74.45 82.45L73.55 82.65L73.35 82.55L73.25 82.35H73.15L73.05 82.25V82.15H72.95L72.85 82.05H72.75V81.95H72.65V81.85H72.55V81.75H72.45V81.65V81.55V81.45V81.35V81.25H72.55V81.15H72.65H72.75H72.85L72.95 81.05V80.95V80.85H73.05V80.75V80.65H72.95L72.85 80.55H72.75V80.45V80.35V80.25V80.15H72.65V80.05V79.95H72.55V79.85H72.45V79.75H72.35V79.65H72.25V79.55H72.15V79.45H72.05V79.35V79.25V79.15H71.95H71.85V79.05V78.95L71.95 78.85H71.85L71.75 78.75H71.65V78.65V78.55H71.55V78.45L71.35 78.55H70.95L70.45 78.65L70.35 78.25V78.05H70.15L69.75 78.15L68.95 78.25L68.05 78.45H67.95L67.35 78.55L66.45 78.65L66.25 78.75L66.15 78.25L66.05 77.75L65.45 77.95H65.25H65.05L64.85 78.05H64.65L64.25 78.15H64.15H64.05H63.95L63.85 78.25H63.75L63.15 78.45H62.85L62.45 78.55V78.75L62.55 79.25L62.65 79.75L62.75 80.35L62.85 80.65H62.75V80.75V80.95L62.85 81.15V81.45H62.75H62.65H62.55H62.45H62.35H62.25H62.15V81.35H62.05H61.95H61.85H61.75H61.65H61.55V81.45H61.45V81.55H61.35L61.25 81.65H61.15H61.05H60.95V81.55H60.85L60.75 81.45H60.65H60.55H60.45H60.35H60.25H60.15H60.05H59.95H59.85V81.55V81.65V81.75V81.85V81.95V82.05V82.15V82.25V82.35V82.45V82.55V82.65V82.75H59.75H59.65V82.65H59.55V82.55H59.45H59.35H59.25V82.65V82.75V82.85H59.15H59.05L58.95 82.95H58.85H58.75H58.65H58.55V83.05V83.15H58.45V83.25H58.35V83.35H58.25V83.25V83.15L58.15 83.05V82.95L58.05 82.85H57.95H57.85H57.75H57.65H57.55H57.45L57.35 82.95H57.25H57.15V83.05H57.05V83.15H56.95H56.85V83.05L56.55 83.15H56.25H56.05L55.95 82.75L55.85 82.15V81.85L55.75 81.45H55.45L55.25 81.55H55.05H54.95L54.65 81.65V81.45L54.55 81.15V81.05H54.45V80.95H54.35V81.05H54.25V81.15V81.25V81.35L54.35 81.45V81.55H54.25V81.65V81.75H54.15L54.05 81.85V81.95L53.95 82.05V82.15V82.25V82.35H54.05V82.45V82.55H53.85L53.25 82.65H52.95L52.85 82.15V81.95L52.75 81.85V81.75V81.65V81.55L52.65 81.15L52.55 80.85L51.85 80.95H51.65L51.35 81.05H50.95H50.75L50.25 81.15H50.15H49.85L49.25 81.25L49.15 81.05V80.85V80.75V80.65L49.05 80.55L48.85 80.65L48.45 80.75L48.15 80.85L47.75 81.05H47.65L47.45 81.15H47.25H47.15H46.85L46.55 81.25H46.45H46.25H45.95L45.85 81.35H45.65H45.55L45.65 81.55V81.75V81.85L45.75 81.95L45.85 82.15L45.95 82.25L46.05 82.35L45.95 82.45L45.55 82.55L45.35 82.65H45.25L45.05 82.75H44.75H44.45H44.35H44.25L44.15 82.85V82.95V83.05H44.25V83.15V83.25V83.45H44.15V83.55H44.05H43.85H43.75L43.65 83.45H43.35H43.05H42.85H42.75H42.65H42.55H42.45V83.55H42.25V83.65L41.55 83.55H40.95L40.85 83.15V83.05L40.75 82.95L40.65 82.85L40.25 82.45L39.65 81.95L39.55 81.75L39.45 81.85L39.25 82.15L38.85 82.75L38.45 83.25L38.35 83.45V83.35L38.25 83.25V83.15L38.15 83.05V82.95V82.85V82.75V82.65L38.05 82.55H37.95H37.85H37.75H37.65L37.55 82.65H37.45H37.35L37.25 82.75H37.15H37.05H36.95H36.85L36.75 82.85V82.95V83.05H36.65H36.55H36.45V82.95H36.35V82.85H36.25H36.15L36.05 82.75H35.95L35.85 82.65H35.75L35.65 82.55H35.55H35.45H35.35H35.25V82.45H35.15L35.05 82.35H34.95H34.85V82.45H34.75V82.55L34.65 82.65V82.75H34.55V82.85H34.45V82.95H34.35H34.25H34.15L34.05 83.05H33.95H33.85H33.75H33.65H33.55V82.95H33.45H33.35H33.25H33.05H32.95H32.85L32.75 82.85H32.65L32.55 82.75V82.65H32.45V82.55V82.45V82.35V82.25H32.35V82.15H32.25H32.15H32.05L31.95 82.25L31.75 82.15H31.65H31.55H31.45H31.35V82.25H31.25V82.35V82.45H31.15V82.55H31.05H30.95V82.65H30.85H30.75H30.65H30.55L30.45 82.75L30.35 82.85V82.95H30.25V83.05H30.15L30.05 83.15H29.95H29.85H29.75H29.65L29.55 83.25H29.45V83.35V83.45V83.55V83.65V83.75V83.85V83.95L29.55 84.05V84.15L29.45 84.25L29.25 84.45L29.15 84.55L29.05 84.65H28.95V84.75H28.85H28.75V84.65H28.65H28.55H28.45H28.35V84.55H28.25H28.15H28.05V84.65H27.95H27.85H27.75L27.65 84.75H27.55H27.45H27.35H27.25H27.15V84.65H27.05L26.95 84.55L26.85 84.45H26.75L26.55 84.35L26.45 84.25H26.35H26.25H26.15H26.05L25.95 84.35L25.85 84.45H25.75V84.55H25.65H25.55H25.45V84.65H25.35H25.25V84.75H25.15H25.05V84.65L24.85 84.55H24.65V84.45H24.55H24.45H24.35H24.25H24.15H24.05V84.35H23.95L23.85 84.25H23.75H23.65V84.15H23.55H23.45H23.35H23.25H23.15H23.05H22.95V84.05H22.85H22.75L22.65 83.95V83.85H22.55V83.75H22.45V83.65H22.35L22.25 83.75L22.15 83.85V83.95H22.05H21.95L21.85 84.05H21.75H21.65L21.55 84.15L21.45 84.25H21.35V84.35H21.25H21.15H21.05H20.95L20.85 84.45H20.75L20.65 84.55H20.55H20.45V84.45H20.35V84.35H20.25H20.15H20.05H19.95V84.25H19.85H19.75H19.65H19.55H19.45H19.35H19.25H19.15L19.05 84.35L18.95 84.45H18.85H18.75H18.65H18.55L18.45 84.55L18.35 84.65V84.75H18.25H18.15L18.05 84.65H17.95H17.85H17.75H17.65V84.55H17.55L17.45 84.45H17.35H17.25H17.15L17.05 84.35H16.95L16.85 84.25H16.75H16.65L16.55 84.35H16.45V84.45H16.35L16.25 84.35V84.25H16.15V84.15L16.05 84.05V83.95V83.85H15.95H15.85L15.75 83.95H15.65V84.05H15.55H15.45V83.95H15.35L15.25 83.85L15.15 83.65V83.55H15.05V83.45V83.35V83.25V83.15V83.05L14.95 82.95V82.85L14.85 82.75H14.75V82.65L14.65 82.55V82.45L14.55 82.35V82.25V82.15V82.05L14.65 81.95H14.55V81.85L14.45 81.75H14.35V81.65H14.25V81.55L14.15 81.45L14.05 81.35H13.95V81.25H13.85H13.75V81.35H13.65L13.55 81.45L13.45 81.55H13.35H13.25H13.15L13.05 81.45V81.35H12.95V81.25L13.05 81.15V81.05V80.95L12.95 80.75V80.65V80.55V80.45L13.05 80.35L13.15 80.25L13.25 80.15V80.05L13.35 79.95V79.85V79.75V79.65V79.55V79.45L13.25 79.35L13.15 79.25L13.05 79.05H12.95L12.85 78.95V78.85H12.75H12.65V78.75H12.55V78.65H12.45V78.55V78.35V77.95L12.35 78.05L12.05 78.35L11.95 78.45L11.85 78.55L11.65 78.95L11.55 78.85H11.45V78.75L11.05 78.55L10.45 78.25L9.95002 77.95L9.45002 77.75H9.35001L9.25 78.05L9.15 78.25L8.85001 78.65L8.75 78.95L8.55002 79.25L8.45002 79.45L8.25 79.85L8.05002 80.15L7.95002 80.35V80.45L7.85001 80.65L7.65 80.85L7.55002 81.15L7.45002 81.25V81.35V81.45H7.35001H7.25L7.15 81.35H7.05002H6.95002L6.85001 81.25L6.65 81.15V81.05V80.95L6.55002 80.85V80.75V80.65H6.45002L6.35001 80.55L6.15 80.45V80.35V80.25H6.05002V80.15L5.95002 80.05V79.95L5.85001 79.85L5.65 79.75L5.55002 79.65L5.45002 79.55L5.35001 79.45H5.25L5.15 79.35H5.05002L4.85001 79.25H4.75L4.55002 79.35H4.45002H4.35001V79.45H4.15L3.95002 79.55L3.75 79.65H3.65H3.55002H3.45002H3.35001L3.15 79.75L3.05002 79.85H2.95002L2.85001 79.95H2.75L2.65 80.05L2.55002 80.15H2.45002V80.05H2.35001L2.25 79.95L2.15 79.85H2.05002V79.75L2.15 79.65H2.05002H1.95002L1.85001 79.55Z" fill="#220F0F"/>
<path d="M64.55 37.45H64.45H64.35V37.55H64.25H64.15V37.65H64.05H63.95H63.85H63.75V37.75L63.65 37.85H63.55H63.45V37.75H63.35V37.65H63.25V37.55H63.15V37.45V37.35V37.25H63.05H62.95H62.85H62.75V37.35H62.65H62.55H62.45V37.45H62.35H62.25H62.15V37.55H62.05H61.95H61.85V37.45H61.75V37.55H61.65V37.45H61.55L61.45 37.35H61.35V37.25V37.15H61.25V37.05H61.15V36.95H61.25V36.85H61.15H61.05H60.95V36.75H60.85H60.75H60.65H60.55V36.65H60.45V36.75V36.85V36.95V37.05L60.55 37.15V37.25H60.65V37.35V37.45V37.55V37.65V37.75H60.55V37.65H60.45L60.35 37.55H60.25H60.15H60.05V37.45H59.95H59.85V37.55H59.75H59.65H59.55H59.45H59.35H59.25H59.15H59.05H58.95H58.85V37.45H58.75H58.65H58.55H58.45H58.35V37.55H58.25V37.65H58.15V37.75L58.05 37.85V37.95V38.05V38.15H58.15V38.25V38.35L58.25 38.45V38.55H58.15V38.65H58.05L57.95 38.75H57.85V38.65L57.75 38.75H57.65H57.55L57.45 38.85L57.35 38.75H57.25V38.65V38.55L57.15 38.45L57.05 38.35H56.95H56.85L56.45 38.25H56.15H56.05H55.95H55.85H55.75H55.65H55.55H55.45L55.35 38.35L55.25 38.45L55.15 38.35V38.45H54.95V38.35H54.85V38.25V38.15L54.75 38.05V37.95V37.85H54.65V37.75L54.55 37.65V37.55H54.45V37.45L54.35 37.35V37.25H54.25V37.15V37.05H54.15H54.05L53.95 36.95H53.85L53.65 37.55L53.45 37.85L52.25 37.35L51.55 37.15L51.15 36.95L50.95 36.85L50.85 37.45V37.55H50.75H50.65H50.35H50.05H49.25L48.75 37.35L48.25 37.05H48.15L47.45 37.35L45.45 38.15L45.15 38.25H45.05L44.95 39.25H44.85H44.65L44.35 39.15L44.15 39.45L43.95 40.15L43.65 40.75L43.25 40.65H43.05H42.95H42.85H42.75L42.55 40.45V40.55H42.45H42.35H42.25H42.15H42.05L41.95 40.65L42.15 40.85L42.45 41.05L42.85 41.55L42.95 41.75L43.05 41.95L43.25 42.25L43.75 42.35L43.65 43.15V43.25H43.55H43.45V43.35V43.45V43.55H43.35V43.65H43.25V43.75V43.85V43.95V44.05V44.15V44.25L43.15 44.35V44.45V44.55V44.65V44.75V44.85V44.95V45.05H43.05L41.85 45.45L41.35 45.55L40.85 45.75H40.75L40.65 45.85L40.15 46.85L39.75 47.55L39.65 47.75L39.95 48.05L40.35 48.35V48.25L40.45 48.35L40.95 48.75L41.35 49.05L41.75 49.45L41.55 49.55L41.35 49.85L41.05 50.15L41.15 50.25H41.25L41.35 50.35H41.45L41.55 50.45H41.65L41.55 50.65L41.45 51.15L41.35 51.45H41.55L41.65 51.55L41.55 52.25V52.35L40.45 52.15L40.15 52.05V52.15V52.25H40.05V52.35H39.85H39.75H39.65V52.45H39.55L39.45 52.35V52.45H39.35V52.35H38.95H38.85L38.75 52.25H38.55L38.45 52.45V52.55H38.25V52.45V52.25H38.15H37.85H37.75L37.45 52.15L37.55 52.35L37.45 52.45V52.55H37.35L37.25 52.45H37.15H37.05H36.95L36.85 52.35L36.75 52.25L36.45 51.85L36.05 51.45L35.85 51.15H35.75H35.65L35.05 51.25L34.25 51.55H34.15L33.25 51.85L33.15 52.15L33.05 52.55L32.95 52.85L32.85 53.15L32.75 53.45L32.65 53.75L32.45 54.15V54.25V54.35V54.45V54.85V55.05V55.45H32.25H31.75H31.45H31.25H31.15L30.75 55.55H30.65H30.45L30.35 55.65L29.35 55.85L28.95 56.05L28.55 56.35L28.45 56.55H28.25L27.85 56.65L26.35 56.95L25.75 57.05V57.15L25.85 57.45V57.65V58.25L25.35 58.55L24.75 58.75H24.55L24.05 58.95L23.65 58.65H23.55L22.75 58.15L21.95 57.65L21.15 57.15L20.95 57.35L20.85 57.45L20.55 57.65V57.75V57.95V58.05V58.15L20.65 58.25V58.45H20.75L20.85 58.55L20.65 58.75H20.55V58.85V58.95H20.45V59.05V59.15H20.35V59.25L20.25 59.35V59.45V59.55L19.85 59.75H19.75H19.65H19.55V59.85V60.05V60.15L19.45 60.25H19.35V60.35L19.15 60.25L19.05 60.45H18.95V60.55V60.65V60.75V60.85H19.05V60.95L18.85 61.05H18.75L18.65 61.15H18.55H18.45L18.35 61.05L18.05 60.95L17.75 60.85H17.65H17.55L17.45 60.75H17.35L17.25 60.55L17.15 60.35V60.25V60.05H17.05H16.95V59.95H16.85H16.75L16.65 59.85H16.55L16.35 59.65V59.55L16.15 59.35L16.05 59.25V59.15L15.85 59.05L15.65 58.95L15.45 58.85V58.75H15.35L14.45 58.95L13.75 59.05L12.95 59.15L13.05 59.55H12.85H12.55H11.95H11.35V59.65L11.25 59.85V60.05L11.15 60.45H10.95L10.75 60.35H10.65H10.55V60.45V60.55V60.65L10.65 60.75V60.85V60.95L10.35 61.05L10.45 61.25L10.05 61.45L9.95002 61.55L9.85001 61.65L9.65 61.75V61.85L9.45002 61.95L9.25 62.05V61.95V61.85V61.75L9.15 61.85L8.55002 61.95L8.25 62.15V62.25L7.45002 62.75L7.15 62.95L7.05002 62.75L6.15 63.05L6.05002 63.15L6.15 63.25V63.35V63.45H6.25V63.55H6.35001V63.65L6.45002 63.75V63.85H6.35001V63.95L5.75 64.35L4.75 65.25L3.95002 65.95L2.55002 67.05L2.15 67.35L2.25 67.45L2.35001 67.55L2.45002 67.65L2.55002 67.75H2.65H2.75H2.85001L2.95002 67.85V67.95L3.05002 68.05H3.15V68.15V68.25V68.35V68.45V68.55V68.65L3.25 68.75H3.35001V68.85H3.45002V68.95H3.55002V69.05L3.45002 69.15L3.05002 68.95V69.05V69.35V69.65V70.15V70.25H2.85001L2.75 70.45H2.55002H2.25L2.05002 70.35V70.65L1.95002 71.25V71.45V71.55H1.75H1.65H1.55002L1.45002 71.65H1.55002V71.75H1.45002V71.85V71.95H1.35001H1.25V72.05L1.45002 72.35L1.35001 72.45V72.55L1.15 72.65H1.05002V72.75L0.950016 72.85V72.95H0.85001V72.85L0.750004 72.75H0.649998H0.550022H0.450016H0.35001V72.95V73.15V73.35L0.250004 73.45L0.550022 73.55V73.65V73.85V73.95H0.750004V74.05V74.15V74.25H0.85001L0.750004 74.35H0.85001L0.950016 74.45H1.05002L1.15 74.55L1.25 74.65L1.45002 74.75L1.35001 74.95V75.05L1.45002 75.35L1.65 75.75H1.55002L1.35001 75.95L1.55002 76.25L1.75 76.45V76.55L1.85001 76.75L1.95002 76.95V77.05L1.85001 77.35L1.75 77.55V77.65L1.65 77.75V77.95H1.55002V78.05L1.45002 78.15V78.25H1.35001L1.45002 78.45V78.55V78.65H1.55002V78.75H1.45002V78.85H1.55002L1.45002 78.95H1.55002L1.65 79.15L1.75 79.25L1.85001 79.45V79.55L1.95002 79.65H2.05002H2.15L2.05002 79.75V79.85H2.15L2.25 79.95L2.35001 80.05H2.45002V80.15H2.55002L2.65 80.05L2.75 79.95H2.85001L2.95002 79.85H3.05002L3.15 79.75L3.35001 79.65H3.45002H3.55002H3.65H3.75L3.95002 79.55L4.15 79.45H4.35001V79.35H4.45002H4.55002L4.75 79.25H4.85001L5.05002 79.35H5.15L5.25 79.45H5.35001L5.45002 79.55L5.55002 79.65L5.65 79.75L5.85001 79.85L5.95002 79.95V80.05L6.05002 80.15V80.25H6.15V80.35V80.45L6.35001 80.55L6.45002 80.65H6.55002V80.75V80.85L6.65 80.95V81.05V81.15L6.85001 81.25L6.95002 81.35H7.05002H7.15L7.25 81.45H7.35001H7.45002V81.35V81.25L7.55002 81.15L7.65 80.85L7.85001 80.65L7.95002 80.45V80.35L8.05002 80.15L8.25 79.85L8.45002 79.45L8.55002 79.25L8.75 78.95L8.85001 78.65L9.15 78.25L9.25 78.05L9.35001 77.75H9.45002L9.95002 77.95L10.45 78.25L11.05 78.55L11.45 78.75V78.85H11.55L11.65 78.95L11.85 78.55L11.95 78.45L12.05 78.35L12.35 78.05L12.45 77.95V78.35V78.55V78.65H12.55V78.75H12.65V78.85H12.75H12.85V78.95L12.95 79.05H13.05L13.15 79.25L13.25 79.35L13.35 79.45V79.55V79.65V79.75V79.85V79.95L13.25 80.05V80.15L13.15 80.25L13.05 80.35L12.95 80.45V80.55V80.65V80.75L13.05 80.95V81.05V81.15L12.95 81.25V81.35H13.05V81.45L13.15 81.55H13.25H13.35H13.45L13.55 81.45L13.65 81.35H13.75V81.25H13.85H13.95V81.35H14.05L14.15 81.45L14.25 81.55V81.65H14.35V81.75H14.45L14.55 81.85V81.95H14.65L14.55 82.05V82.15V82.25V82.35L14.65 82.45V82.55L14.75 82.65V82.75H14.85L14.95 82.85V82.95L15.05 83.05V83.15V83.25V83.35V83.45V83.55H15.15V83.65L15.25 83.85L15.35 83.95H15.45V84.05H15.55H15.65V83.95H15.75L15.85 83.85H15.95H16.05V83.95V84.05L16.15 84.15V84.25H16.25V84.35L16.35 84.45H16.45V84.35H16.55L16.65 84.25H16.75H16.85L16.95 84.35H17.05L17.15 84.45H17.25H17.35H17.45L17.55 84.55H17.65V84.65H17.75H17.85H17.95H18.05L18.15 84.75H18.25H18.35V84.65L18.45 84.55L18.55 84.45H18.65H18.75H18.85H18.95L19.05 84.35L19.15 84.25H19.25H19.35H19.45H19.55H19.65H19.75H19.85H19.95V84.35H20.05H20.15H20.25H20.35V84.45H20.45V84.55H20.55H20.65L20.75 84.45H20.85L20.95 84.35H21.05H21.15H21.25H21.35V84.25H21.45L21.55 84.15L21.65 84.05H21.75H21.85L21.95 83.95H22.05H22.15V83.85L22.25 83.75L22.35 83.65H22.45V83.75H22.55V83.85H22.65V83.95L22.75 84.05H22.85H22.95V84.15H23.05H23.15H23.25H23.35H23.45H23.55H23.65V84.25H23.75H23.85L23.95 84.35H24.05V84.45H24.15H24.25H24.35H24.45H24.55H24.65V84.55H24.85L25.05 84.65V84.75H25.15H25.25V84.65H25.35H25.45V84.55H25.55H25.65H25.75V84.45H25.85L25.95 84.35L26.05 84.25H26.15M64.55 37.45V37.55M64.55 37.45L64.65 37.55H64.75H64.85H64.95V37.65H65.05L65.15 37.55H65.25H65.35V37.65H65.45V37.75V37.85V37.95H65.55V38.05V38.15H65.65L65.75 38.25H65.85V38.15H65.95V38.05L66.05 37.95H66.15H66.25V38.05H66.35V38.15V38.25H66.45V38.35V38.45V38.55H66.55V38.65H66.65H66.75H66.85V38.75H66.95V38.85V38.95H66.85V39.05V39.15H66.75M66.75 39.15V39.05M66.75 39.15V39.25V39.35H66.85V39.45H66.95H67.05H67.15H67.25V39.55H67.35H67.45H67.55V39.65L67.65 39.75H67.75H67.85V39.65V39.55L67.75 39.45V39.35L67.85 39.25H67.95V39.15H68.05V39.05H68.15V39.15H68.25H68.35M68.35 39.15V39.25M68.35 39.15H68.45V39.25H68.55V39.35V39.45V39.55H68.65V39.65V39.75V39.85V39.95H68.75H68.85H68.95V40.05H69.05H69.15H69.25V39.95H69.35V39.85V39.75V39.65V39.45V39.35L69.45 39.25V39.15H69.55V39.05H69.65H69.75V39.15V39.25H69.85V39.35H69.95V39.25H70.05V39.15H70.15V39.05V38.95H70.25V38.85V38.75H70.35H70.45V38.65H70.55H70.65V38.75H70.75V38.85H70.85H70.95V38.95V39.05V39.15H71.05V39.05L71.15 38.95V38.85H71.25V38.75V38.65H71.35V38.55V38.45H71.45V38.35H71.55V38.25V38.15H71.65V38.05L71.75 37.95V37.85H71.85V37.75V37.65H71.95V37.55H72.05V37.45H72.15H72.25H72.35H72.45V37.55H72.55H72.65H72.75H72.85H72.95H73.05H73.15H73.25H73.35V37.65H73.45L73.55 37.75H73.65V37.85H73.75H73.85V37.75H73.95L74.05 37.65V37.55V37.45V37.35V37.25V37.15V37.05H74.15L74.25 36.95H74.35H74.45H74.55V37.05H74.65H74.75H74.85L74.95 37.15H75.05H75.15H75.25V37.05H75.35H75.45H75.55L75.65 36.95H75.75V37.05H75.85H75.95H76.05V37.15H76.15V37.25V37.35V37.45L76.05 37.55V37.65L76.15 37.75V37.85H76.25V37.95V38.05V38.15V38.25H76.35V38.35H76.45V38.45H76.55H76.65L76.75 38.35V38.25H76.85V38.15H76.95H77.05V38.05H77.15H77.25H77.35M77.35 38.05V38.15M77.35 38.05H77.45H77.55V37.95H77.65V37.85V37.75H77.75H77.85V37.85H77.95H78.05H78.15H78.25V37.75H78.35H78.45H78.55V37.65H78.65V37.75H78.75H78.85V37.65H78.95L79.05 37.75V37.85L79.15 37.95V38.05V38.15V38.25V38.35H79.05V38.45H79.15V38.55V38.65H79.25V38.75V38.85H79.35H79.45V38.95V39.05H79.55V39.15H79.65L79.75 39.45V39.55L79.45 39.85H79.55H79.65M79.65 39.85V39.95M79.65 39.85H79.75H79.85V39.95V40.05H79.75L79.85 40.15H79.95V40.25H80.05H80.15H80.25V40.15H80.35H80.45V40.05H80.55H80.65H80.75H80.85H80.95H81.05V40.15H81.15H81.25V40.05V39.95V39.85V39.75V39.65H81.15V39.55V39.45V39.35V39.25V39.15V39.05H81.25H81.45H81.55V39.15H81.65H81.75V39.25V39.35H81.85V39.45H81.95H82.05V39.55V39.65V39.75V39.85V39.95H82.15H82.25H82.35L82.45 40.05H82.55H82.65H82.75V39.95H82.85V39.85H82.75V39.75V39.65V39.55V39.45M82.75 39.45H82.85M82.75 39.45L82.85 39.35H82.75V39.25H82.85V39.15V39.05V38.95H82.95V38.85H83.05H83.15V38.75V38.65V38.55H83.25V38.45H83.35L83.45 38.55H83.55V38.65H83.45V38.75V38.85V38.95L83.35 39.05V39.15H83.25V39.25L83.15 39.35V39.45V39.55H83.25V39.45H83.35L83.45 39.35L83.55 39.25H83.65L83.75 39.15H83.85V39.05L83.95 38.95H84.05V38.85V38.75L84.15 38.65V38.55H84.25V38.45V38.35V38.25H84.15V38.15V38.05H84.05V37.95H84.15V37.85H84.25V37.95H84.35H84.45H84.55V38.05V38.15V38.25L84.65 38.35L84.75 38.45V38.55V38.65V38.75L84.65 38.85L84.75 38.95V38.85H84.85L85.15 38.45V38.35L85.35 38.05H85.25L84.85 37.45H84.75L84.65 37.35L84.85 37.25L85.95 36.25L86.05 36.15L86.85 35.55L86.95 35.45L87.75 35.05H87.85L88.05 34.95L88.55 34.75L89.25 34.45L90.05 34.25V33.95L89.95 33.35L90.85 32.75L91.15 32.55L91.55 32.35L91.65 32.05L91.75 31.85H91.55L91.35 31.75L91.65 30.95L91.75 30.85V30.75V30.65L91.95 30.15L91.65 29.85L91.55 29.75L91.75 29.55L92.15 29.15H92.25L92.35 29.05L92.45 28.95V29.05H92.55H92.65V28.95L92.75 28.85V28.75H92.65V28.65V28.55H92.55L92.45 28.45H92.35V28.35H92.45V28.25H92.55V28.15L92.65 28.05L92.45 27.95L92.25 27.85V27.75H92.15L92.05 27.55L92.45 27.25H92.55L92.45 27.15V27.05H92.35V26.95H92.25V26.85L91.95 26.95L92.15 26.65L92.75 25.95L93.35 26.45L93.05 26.75L92.75 27.25L92.55 27.45L92.65 27.55V27.65V27.75V27.85L92.75 27.75H92.85V27.65H92.95H93.05H93.15L93.25 27.55H93.35H93.45L93.55 27.45H93.65V27.35V27.25L93.45 27.05L93.55 26.95L93.65 26.85L93.75 26.75L93.85 26.85L94.05 26.95L94.25 26.85L94.45 26.75L94.55 26.65L94.65 26.55V26.45H94.75H95.15L95.25 26.35H95.35L95.65 26.25V26.35V26.45L95.55 26.55V26.65H95.65V26.75V26.85H95.75H95.85H95.95H96.05V26.75H96.15H96.25H96.35H96.45H96.55H96.65V26.85H96.75H96.85H96.95H97.05H97.15H97.25H97.35H97.45H97.55H97.65V26.75L97.85 27.05L98.15 27.15L98.35 26.55L98.45 26.35V26.25V26.15L98.65 25.45H98.55L98.65 25.25V25.05L98.55 24.95V24.85L98.45 24.75L98.55 24.65L98.65 24.55L98.95 24.45L99.55 24.35H99.65L99.95 24.25L101.25 24.85L101.35 24.75L101.55 24.65L101.65 24.55V24.45L101.85 24.35H101.95H102.05V24.25H102.15V24.15H102.25H102.35H102.65L102.85 24.05H102.95L103.45 23.85H103.55L103.65 23.75V23.65L103.85 23.35L103.95 23.15V23.05L104.15 23.15L104.25 23.25L104.15 23.45L104.35 23.55V23.65L104.45 23.75M104.45 23.75H104.35M104.45 23.75V23.85H104.55H104.65L104.75 23.95L104.85 24.05H104.95V24.15H105.05H105.15H105.25L105.35 24.25L105.45 24.15V24.05L105.75 24.15L105.95 24.35L106.25 24.45L106.35 24.65H106.45L106.55 24.75H106.65L106.85 24.95L107.15 25.15L107.65 25.45V25.55L108.35 25.85L108.55 25.95H108.65H108.75L108.85 26.05H108.95L109.65 26.35V26.45L109.75 27.15L109.45 27.65L109.35 27.95H109.45L109.85 28.45L110.05 28.05L110.15 27.95V27.85H110.25V27.75V27.65H110.35V27.55V27.45V27.35H110.45V27.25H110.55H110.65V27.15H110.75V27.05H110.85V26.95H110.95V26.85L111.05 26.75V26.65V26.55L111.15 26.45H111.25H111.35H111.45V26.35L111.55 26.25L111.45 26.15H111.55L111.65 26.35L111.75 26.25L111.85 26.45L112.05 26.35L112.65 26.15L113.25 25.95L113.45 25.85L113.55 25.75L113.75 25.65L113.85 25.75H113.95V25.85H114.05H114.15V25.75V25.65H114.25V25.55H114.35H114.45V25.45L114.55 25.35V25.25V25.15L114.65 25.05L114.75 24.85H114.85L115.15 24.55H115.25L115.85 25.15H115.95H116.05L116.25 25.65H116.35L116.55 25.55L117.05 25.45L117.15 25.55V25.45H117.25L117.35 25.35H117.45H117.55L117.75 25.25H117.85L117.95 25.45L118.05 25.55L118.55 25.45V25.95L118.45 26.15V26.25H118.35H118.25L118.35 26.35H118.25V26.45H118.15V26.55L118.35 26.45H118.45L118.55 26.35L118.65 26.45H118.75L118.65 26.35H118.75V26.65L119.15 26.75V26.05L119.55 25.95H119.75H120.25H121.15L121.35 25.75L121.45 25.65V25.15V24.95V24.75V24.55V23.85L121.55 23.65V23.55V23.45L121.45 23.25V23.35L121.35 23.25H121.25V23.15V23.05H121.15L121.05 22.95H120.45L120.65 22.75L120.55 22.05L120.65 21.95V21.85L121.05 21.65H121.45L121.75 21.55H121.85L121.95 21.45V21.35H122.05H122.15H122.25H122.35H122.45H122.55H122.65H122.75L122.85 21.25V21.15V21.05V20.95V20.85V20.75L122.95 20.65V20.55V20.45V20.35H123.05V20.25V20.15V20.05L122.85 19.95V19.85L122.95 19.75L123.05 19.65V19.55V19.45H123.15V19.55H123.25H123.35H123.45H123.55H123.65V19.65V19.75V19.85L123.75 19.95H123.85V19.85H123.95H124.05H124.15H124.25H124.35V19.95H124.55L124.65 20.05L124.75 20.15L124.85 20.05L124.95 19.65V19.25L125.05 18.75L125.15 18.55L125.35 17.05L125.65 15.55L125.75 15.25L125.65 15.15V14.95V14.75V14.65L125.85 14.45H125.95H126.05H126.15V14.55V14.65H126.25H126.35H126.45V14.75H126.55H126.65L126.85 14.65V14.75L127.05 14.65V14.55V14.45L127.15 14.25V14.05V13.95H127.05L126.95 14.05H126.75V13.95V13.85V13.75L126.85 13.65L126.75 13.55H126.85V13.45V13.35V13.25H126.95V13.15L127.15 13.05V12.95H127.25H127.35H127.45L127.65 13.05H127.75H127.85L127.95 13.15H128.05H128.15L128.05 12.95V12.65L128.25 12.85V12.95L128.35 13.05L128.45 13.15H128.55H128.65H128.75V13.05H128.85V13.25V13.55H128.95L129.15 13.45H129.25L129.35 13.55H129.45L129.55 13.45L129.65 12.95L130.55 13.05H130.75L131.35 13.15V13.55L131.45 13.45L131.65 13.85L132.05 13.75L132.25 13.65L132.35 13.85L132.45 14.55L132.65 15.15L132.75 15.25V15.35V15.45L132.65 15.55V15.65H132.55H132.45V15.75V15.85H132.55V15.95H132.45V16.05V16.15L132.55 16.25V16.35H132.65V16.45H132.75H132.85V16.35H132.95V16.45V16.55L133.05 16.65V16.75H133.15H133.25H133.35V16.85H133.45H133.55H133.65V16.95H133.75V17.05H133.85L134.05 17.15H134.15H134.35H134.65H134.75H134.85V17.05L134.95 16.95L135.05 16.85V16.75L135.15 16.65V16.45V16.35H135.25V16.25L135.35 16.05H135.45L135.75 16.15L135.95 15.55L136.05 15.25L136.15 15.15V15.25L136.25 15.45V15.55H136.35V15.65V15.75H136.45V15.85H136.55V15.95V16.05M136.55 16.05H136.65M136.55 16.05V16.15L136.65 16.25H136.75H136.85V16.15H136.95V16.05H137.05V16.15H137.15L137.05 16.25V16.35H137.15H137.25V16.45H137.35H137.45H137.55V16.55L137.65 16.65M137.65 16.65H137.75M137.65 16.65L137.55 16.75H137.45H137.25L137.35 17.15L137.65 17.85V17.95V18.05H137.75V18.15L137.65 18.25V18.35V18.45V18.55V18.65L137.75 18.75H137.85L137.95 18.65L138.15 18.55L138.25 18.45L138.45 18.35V18.25H138.55V18.15H138.65H138.75L138.85 18.05V18.15H138.95H139.05V18.25H138.95V18.35V18.45H138.85L138.95 18.55V18.75V18.85V18.95V19.05L138.85 19.15V19.25H138.95V19.35H139.05V19.45V19.55H139.15V19.65L139.25 19.75V19.85H139.15V20.05V20.15L139.25 20.25V20.35H139.35H139.45L139.65 20.45V20.55V20.65L139.75 20.75V20.85V20.95L139.85 21.05V21.15V21.25H139.75L139.55 21.45L139.75 21.65L139.65 21.85H139.75V21.95V22.05H139.65L139.55 22.25V22.35H139.65V22.45V22.55H139.75V22.65V22.75H139.85H139.95V22.85V22.95L140.05 23.05H140.15V23.15L140.05 23.25L140.15 23.35V23.45L140.25 23.55L140.15 23.65H140.05L139.95 23.75L140.05 23.85H140.15V23.95L140.55 23.85H141.05H141.15H141.25L141.55 23.95L141.65 23.65V23.55H141.55V23.45H141.45V23.35H141.35V23.25H141.25V23.15V23.05V22.95H141.15L141.05 22.85L141.15 22.65L141.25 22.55L141.35 22.45V22.35H141.45L141.35 22.25H141.25L141.05 22.15V21.95L140.95 21.85V21.75H141.45V21.85H141.65H141.85V21.95L141.75 22.05H141.85L142.15 22.25L142.25 22.35L142.45 22.45H142.65L142.95 22.35V22.85V22.95H143.05H143.15V23.05L143.25 22.95H143.35V22.85L143.45 22.95V22.85H143.55V22.75L143.65 22.65H143.75V22.55L143.65 22.45V22.25H143.95L144.15 22.15H144.25L144.45 21.95L144.55 22.05V22.15V22.35L144.45 22.55V22.65H144.55L144.65 22.75H144.95L145.05 22.65H145.35H145.95H146.05V22.55V22.45H146.15V22.75L146.25 22.85L146.75 22.65V22.75L147.25 22.65L147.35 22.55V22.45H147.45V22.35H147.55H147.65H147.75V22.25H147.85V22.35H147.95V22.45V22.55L148.15 22.45H148.05V22.35L147.75 21.65L147.65 21.55L147.55 21.25L147.45 21.05L147.55 20.95L147.65 20.85V20.75V20.65V20.55L147.75 20.45H147.85V20.35H147.95L148.15 20.65L148.95 20.55V21.05L149.05 21.15L150.65 20.95L150.85 21.95L151.45 21.85L152.15 21.75L153.25 21.55L153.95 21.45V21.05L154.85 20.95L156.25 20.75H156.45L156.35 19.95L157.05 19.85H157.85V19.25H157.75H157.55L157.35 19.35H157.15H157.05L156.85 19.25L156.75 19.15L156.65 19.05V18.95H156.55V18.85L156.45 18.75V18.45V18.35V18.25L156.35 18.35L156.25 18.45L156.15 18.55H156.05H155.95H155.85H155.75H155.65L155.55 18.35L155.45 18.15V18.05L155.55 17.95H155.65L155.75 18.05H155.85L155.95 18.15V18.05V17.95H156.05H156.15V17.75H156.05V17.65H156.15V17.55H156.05V17.45H156.15V17.35H156.25L156.35 17.25V17.05H156.05L155.95 16.45L155.85 15.95V15.35L155.75 14.85L155.65 14.05L155.35 13.85L154.95 13.65L154.85 13.55V13.45H154.95L155.05 13.35L155.25 13.25L156.65 12.45L157.25 12.25V12.15L157.85 12.05L158.65 11.85H158.75V11.75L158.85 11.65V11.45V11.25V10.75L158.75 10.55L158.65 9.85001L156.75 9.25L155.25 8.85001L153.55 8.35001L153.05 8.15002L152.95 8.05002L152.75 7.95001L152.45 7.75L152.25 7.45001L152.15 7.25V7.15002L152.05 6.95001V6.85001V6.75V6.65002V6.55002V6.45001V6.35001L152.25 6.25L152.45 6.15002L152.55 6.05002L152.65 5.95001V5.75V5.55002L152.75 5.25L152.95 4.85001L153.35 4.45001L153.65 4.05002L154.15 3.55002L154.45 3.15002L154.55 3.05002L154.65 2.85001L154.95 2.55002L155.35 2.35001L155.65 2.15002L155.95 1.95001L156.15 1.75L156.55 1.45001L156.65 1.35001L156.75 1.15002L156.95 0.450012V0.25H157.05L157.55 0.550018L158.65 1.05002L159.85 1.15002H160.25H160.35L160.55 1.25H160.65L160.85 1.15002H160.95L161.05 1.05002H161.15H161.25L161.45 0.950012L161.85 0.650024L162.05 0.550018H162.15L162.35 0.450012L162.65 0.350006H162.75H162.85L163.15 0.450012L163.25 0.550018L163.35 0.650024H163.45V0.75L163.55 0.850006V1.05002L163.65 1.15002V1.35001V1.55002V1.75V1.85001L163.55 2.05002L163.45 2.25V2.35001L163.35 2.55002V2.65002V2.85001L163.45 2.95001V3.15002L163.55 3.25L163.75 3.35001L163.85 3.55002H163.95L164.35 3.65002L164.75 3.85001L165.15 4.05002L165.25 4.15002L165.45 4.65002L165.65 4.85001L165.75 4.95001L165.85 5.05002H165.95H166.25L166.45 4.95001H166.75L166.95 5.05002H167.15L167.75 4.85001H168.15H168.25L168.35 4.95001H168.55L168.75 5.05002L168.95 5.15002H169.25H169.45H169.55L169.65 5.25L169.85 5.35001L170.05 5.65002L170.15 5.85001L170.25 5.95001V6.05002V6.25V6.35001L170.35 6.45001V6.55002L170.45 6.65002L170.75 6.85001L170.85 6.95001V7.05002L171.05 7.35001L171.35 7.95001L171.65 8.35001L171.75 8.55002L172.05 8.85001L172.15 9.05002L172.25 9.15002V9.25V9.35001L172.15 9.45001L171.85 9.75V9.85001V9.95001L172.15 10.25V10.45L172.25 10.65V10.85L172.15 11.25L172.05 11.45V11.55L172.15 11.65V11.75L172.25 11.85H172.45L172.55 11.95L172.65 11.85H172.75L173.25 11.75H173.35H173.55H173.65L173.75 11.85L174.15 12.35L174.25 12.45L173.85 12.85V12.95L174.05 13.05H174.15V13.15L174.25 13.45L174.35 13.55H174.45H174.55H174.75H174.85L174.95 13.45L175.05 13.35L175.45 13.25H175.55V13.15V12.75L175.65 12.65H175.75L175.85 12.75L176.05 12.85L176.45 13.15H176.55H176.65V13.05L176.75 12.65V12.55V12.25V12.15V11.95V11.25V11.15V10.45V10.25V9.65002V9.55002V9.15002V8.95001V8.85001V8.55002V8.45001V8.25V8.15002V8.05002V7.95001V7.85001L176.65 7.65002V7.45001L176.55 7.35001V7.15002L176.45 6.95001L176.35 6.65002V6.55002V6.45001L176.25 6.35001H176.35L176.55 6.55002L176.65 6.65002L176.95 6.95001L177.05 7.05002L177.35 7.35001L177.45 7.45001L177.55 7.55002L177.65 7.85001V7.95001V8.05002V8.15002L177.75 8.35001V8.95001L178.05 8.85001L178.15 8.95001L178.25 9.15002L178.55 9.45001V9.55002L178.65 9.65002L178.75 9.75L178.95 9.85001L179.25 9.95001L179.65 10.05L179.35 10.55L179.25 10.85L178.85 11.75H178.75H178.65H178.55H178.45H178.35H178.25L178.15 11.65V11.75H178.05L177.85 11.85H177.75L177.65 11.95H177.55L177.45 12.15H177.55H177.65H177.75M177.75 12.15V12.25M177.75 12.15H177.85H177.95L177.85 12.25V12.35L177.95 12.45H178.05H178.15H178.25H178.35V12.55V12.65L178.25 12.75V12.85L178.75 12.75H179.05H179.15L179.35 12.95L179.75 13.15L179.45 13.75V13.85L179.35 13.95V14.05V14.15L179.45 14.25L179.55 14.45L179.65 14.55L180.05 15.05L180.25 15.55V15.65V15.75V15.95H180.35L180.45 15.85L180.55 15.95V16.05V16.15L180.65 16.25L180.75 16.55L180.85 16.65L181.05 17.05L181.15 17.15L181.05 17.25H180.95H180.85L180.75 17.35L180.65 17.45L180.55 17.55L180.45 17.65H180.35L180.25 17.75H180.15L180.05 17.85H179.95V17.95L179.85 18.05V18.15H179.75V18.25H179.65L179.55 18.35H179.45H179.35V18.65V18.55H179.25V18.65V18.85L179.45 19.25L179.55 19.45L179.65 19.65L179.85 20.05L179.95 20.45H180.05V20.55V20.65H179.95L180.25 21.25L180.45 21.65L180.65 22.15L180.05 22.45L180.25 22.75L180.35 23.15L180.95 22.95L181.05 23.15L181.55 22.85L181.85 22.75H181.95H182.05V22.95V23.15L182.15 23.25L183.15 23.95L184.35 24.75L184.55 24.85V24.75L184.45 24.45V23.45L184.35 22.95V22.85L184.45 22.75L184.65 22.55L184.55 22.35L184.75 22.15L184.95 22.45H185.05H185.15H185.25H185.45L185.65 22.65V22.75L185.55 23.05L185.45 22.95L185.25 22.85V22.95L185.45 23.05L185.55 23.15L185.75 22.95H185.85L185.95 22.85L186.05 22.55L186.85 22.65H186.95L187.15 22.75L188.15 22.85L188.25 22.95L188.05 23.95L188.35 24.25L188.15 25.85H188.25V25.75H188.35V25.65H188.45V25.75H188.55H188.65H188.75V25.65V25.55L188.95 25.35V25.25H189.05L189.15 25.15H189.25H189.35V24.85L190.25 24.65L191.35 24.45L191.55 25.45H191.65H191.75H191.85V25.95H192.05H192.15L192.25 25.85H192.35L192.55 25.95L193.25 26.05V25.95V25.85V25.75H192.95L192.85 25.45L193.55 25.35L193.65 25.65L193.95 25.55L194.35 24.95L194.85 24.15L195.05 23.95L194.85 23.85L194.55 23.65V23.55H194.65L194.75 23.35L194.85 23.05L195.15 23.25L195.55 22.65V22.55L196.35 22.15V22.05V21.95V21.85V21.75L196.45 21.55V21.35V21.25L196.75 21.05L196.95 20.95H197.25H197.55L197.65 20.85H197.75H197.85L197.95 21.35L198.15 21.65L198.35 22.15L198.45 22.25L198.55 22.45L198.65 22.55V22.65H198.75H198.85V22.75H198.95L199.05 22.85L199.15 22.95V23.15L199.25 23.25L199.45 23.35H199.55L199.65 23.45L200.05 23.75L200.15 23.85H200.35H200.45H200.55L200.85 23.75H200.95H201.05H201.25H201.45L201.95 23.55H202.05L202.45 23.45H202.55H202.65L202.95 23.55L203.15 23.65L203.35 23.75H203.55L203.85 23.85H204.05H204.15H204.25H204.35H204.45H204.65H204.85H204.95L205.15 23.95L205.55 24.05L205.75 24.15H205.85L206.25 24.35L206.45 24.55L206.55 24.65L206.65 24.75L206.85 24.95L207.25 25.45L207.65 25.75L207.75 25.85L207.95 25.95L208.15 26.15L208.35 26.25L208.55 26.35H208.75L208.95 26.45L209.05 26.55H209.15L209.35 26.75V26.85L209.25 27.15L209.15 27.65V27.75V27.85V28.05L209.05 28.35V28.45L208.95 28.85L208.85 29.25L208.75 29.45L208.65 30.15L208.45 30.85L208.35 31.45H208.25L208.15 31.55H208.05H207.95H207.85V31.65H207.75L207.65 32.35L207.35 33.35L207.25 34.05L207.15 34.35H207.05L207.15 35.15V35.25L207.25 35.75V35.85V36.05V36.15V36.35V36.55L207.15 36.65V36.75L207.05 36.85H206.95H206.85H206.65H206.55H206.45L206.25 36.95H206.15V36.85V36.75H206.05V36.65V36.55H205.95L205.85 36.45H205.75H205.65L205.55 36.35V36.05H205.45V35.95V35.85V35.75V35.65L205.35 35.35V35.25V35.15V35.05V34.95L205.25 34.85V34.65V34.55L205.15 34.35H205.05L204.75 34.45H204.65H204.55H204.45H204.35L204.25 34.55V34.65V34.75V34.85V34.95V35.05H204.15H203.95H203.75L203.55 35.15H203.35H203.25L203.15 35.05V34.95V34.85V34.75V34.65L202.65 34.75V34.85H202.35L202.05 34.95H201.95V35.05L201.85 35.25H201.75V35.35V35.45H201.45L201.05 35.55H200.95H200.85L200.75 35.05V34.65L200.65 34.45V34.35V34.25L200.55 33.85L200.25 33.75V33.65V33.55H199.95H199.85H199.75L199.25 33.85L199.05 33.95L198.95 33.75L198.85 33.55L198.75 33.45H198.55H198.45L198.35 33.35L198.25 33.45V33.55H198.15V33.65H198.05V33.75V33.85L197.95 33.95V34.05H197.85V34.15L197.75 34.35L197.65 34.45V34.55L197.55 34.65V34.75V34.85H197.45V34.95V35.05L197.35 35.15H197.25H197.05L196.95 35.25L196.45 35.35H196.25H195.95V35.45H195.75L195.45 35.55L195.35 35.05L194.75 35.15L194.65 34.65L194.35 34.75L193.65 34.85L193.75 35.35V35.55L193.85 35.95V36.15H193.75H193.65H193.45V36.35L193.55 37.15L193.65 37.25V37.35L193.75 37.65L193.85 37.85H193.75V37.95V38.05L193.85 38.15H194.05V38.35L194.15 38.55L194.95 38.25L195.15 39.05L195.25 39.45L195.35 39.55V39.85L195.45 40.05L195.55 40.15H195.75H195.85V40.25H195.95H196.05L196.25 40.35H196.35H196.55L197.05 40.25V40.65L197.35 40.55H197.65L198.05 40.45H198.65L198.75 40.55L199.15 40.85L199.25 41.05H199.35L199.55 41.25L199.85 41.55L200.05 41.85L200.15 41.95L200.25 42.05L200.35 42.15L200.55 42.25V42.35L200.85 42.55L201.05 42.75L201.15 42.85L201.85 42.75H201.95V43.05L202.05 43.55L202.15 43.65H202.45L202.95 43.55L203.25 43.45H203.35H203.45L204.05 43.35L204.25 43.25L204.75 43.15H204.85V43.25V43.75V44.15L204.75 45.05L203.25 45.35L202.55 45.45H202.35L202.45 45.75V45.85L202.55 46.05V46.25H202.65H202.75V46.55H202.55L202.65 47.25L202.75 47.55V47.75V47.85L202.65 47.95H202.55H202.45V48.05H202.35H202.25V48.15L202.15 48.25H202.05H201.95L201.85 48.35H201.75V48.45V48.55H201.85V48.65H201.75V48.75L201.65 48.65H201.55L201.45 48.55H201.35L201.25 48.65V48.75H201.15V48.65L200.65 48.75V48.85L200.55 48.95H200.45H200.35L199.95 49.15L199.85 49.25L199.55 49.35L199.25 49.65L198.85 49.95L198.65 50.15L198.05 50.65L197.55 50.95V50.85L197.45 50.95L197.35 50.45H197.15L197.05 49.85H196.85L196.65 49.95L195.85 50.05V49.65L195.65 49.75L195.05 49.85H194.95V49.95L195.05 50.05V50.15L195.15 50.45V50.55L195.45 51.45V51.65L195.65 52.35V52.45L195.35 52.55L194.05 52.95L193.85 51.85L193.75 51.65L193.15 51.75L192.25 51.85L191.25 52.05L190.55 52.15H190.35L189.95 52.25L190.05 52.75V52.95L189.65 53.05V52.85L189.25 52.95L188.55 53.05L188.65 53.45V53.75V53.85L188.05 54.05L188.25 54.25L188.35 54.55L188.45 54.65V54.75H188.25L188.05 54.85L187.95 54.95L188.05 55.55L188.15 56.25V56.65L188.35 57.65V58.25L188.45 58.65L188.55 59.15V59.75L188.65 59.95V60.35L188.75 60.95L188.85 61.55V61.95L188.95 62.05V62.15V62.25L188.85 62.95V63.05V63.25V63.45V63.85V64.15V64.35L188.75 64.55V64.75H189.25L189.35 65.55H188.95H188.85H188.75V65.75L188.65 66.05H188.25H188.15V66.15H188.05V66.25V66.35L187.95 66.95V67.25H188.15L188.25 67.35L187.95 67.75L187.45 68.25V68.45L187.55 68.95H188.25H188.45L188.35 69.15L188.25 70.05L188.15 70.65L188.35 70.75V70.45H188.45H188.65H188.75H188.85L188.95 70.35H189.15H189.25H189.35H189.45L189.55 70.25H189.65H189.75M189.75 70.25V70.15M189.75 70.25H189.85L189.95 70.35H190.05L190.15 70.45H190.25L190.35 70.55V70.65V70.75L190.25 70.95V71.45L190.15 71.55L190.05 72.55L189.95 73.15L190.25 73.25V73.35L190.35 73.65V73.75V73.85H190.45V73.95H190.35V74.05H190.25V74.15V74.25H190.15V74.35L190.95 74.45L191.05 74.85L191.15 75.45L191.25 76.05V76.25H191.45L191.55 76.45V76.55L191.75 77.45L191.85 77.55V77.65L191.55 77.75L191.45 77.85V77.95V78.05V78.15L191.25 78.35L190.85 78.55L190.75 78.45L190.55 78.55V78.65L190.15 77.95H190.05L189.55 77.85L189.45 78.15V78.25V78.35L189.35 78.95L188.95 79.15H188.85H188.75H188.65L189.05 79.65L189.35 79.45V79.65V79.85L189.25 79.95V80.05L188.35 80.25L188.45 80.65L187.65 80.75L186.65 80.95L185.95 81.05V81.15L185.85 81.25V81.35V81.45V81.65L186.05 82.45H185.95L185.55 82.55L185.35 82.65H184.75L184.25 82.75L183.85 82.85H183.45L183.35 82.95V83.05H183.25H183.15H183.05H182.95H182.85H182.75H182.65H182.55L182.45 82.95V83.05H182.35V83.15L182.25 83.25V83.35H182.15H181.25L180.25 83.45H180.15L180.25 83.75V83.85H179.85L179.35 83.95L178.95 84.05L179.05 84.25L179.15 84.35L179.25 84.65L179.55 85.25L179.75 85.65H180.15V85.75L180.25 85.85V85.95V86.05V86.15L180.15 86.25V86.45H180.05H179.85L179.75 86.35H179.65H179.55H179.45V86.45V86.55V86.65V86.75V86.85V86.95H179.25V87.15L179.15 87.35V87.45H179.05V87.55V87.65H178.95H178.65L178.25 87.55L178.05 85.45V85.35L177.95 84.95L178.15 84.85V84.65L177.95 83.75L176.75 83.95L176.65 83.45L176.55 82.35H176.15L175.75 82.45L174.95 82.55L175.05 83.15L175.15 83.45L175.25 84.15H175.35L175.75 84.05V84.35V84.65L175.85 84.95V85.15V85.25L175.95 85.55V85.75V85.85H175.85H175.75L175.25 85.95V86.15H175.05L174.35 86.25L173.65 86.35L173.45 86.45V86.65V86.85L173.55 87.05V87.35V87.45H173.65H173.75L174.55 87.35L175.25 87.25H175.45L175.35 86.65H175.55V86.85L176.15 86.75L176.25 87.25L175.45 87.35L175.55 88.35L174.75 88.55H174.65L173.75 88.65L173.35 88.75L172.95 88.85H172.85V88.95H172.45L171.95 89.05L172.05 89.35V89.45H171.95L171.75 89.55H171.45L171.55 90.25H171.75V90.55L171.85 90.75V91.05V91.35L172.05 92.15L171.75 92.25L171.65 91.45L171.55 90.75V90.65L171.45 90.55H171.05L170.65 90.65H170.45L170.25 90.75H170.05V90.45L169.55 90.55L169.65 90.65V90.75V90.85V90.95H169.55V91.05L169.45 91.15L169.55 91.25V91.35V91.45V91.55V91.65V91.75V91.85H169.65V91.95L169.75 92.05L169.85 92.15H169.75H169.65L169.45 92.25H169.05H168.95L167.95 92.45L167.65 92.55H167.35L167.05 92.65H166.75L166.35 92.75H166.25H166.05L166.15 92.85V92.95H166.05H165.95V93.05H165.85L165.95 93.35V93.45V93.55V93.75H166.05V94.15V94.25V94.35V94.45H165.95H165.85V94.55H165.75L165.45 94.65V94.75V94.85H165.55V94.95V95.05V95.15L165.45 95.25V95.75L165.35 95.85V95.95V96.25L165.45 96.35V96.45H165.55V96.55H165.45H165.35L165.15 96.45H165.05L164.95 96.35H164.85L164.75 96.25H164.65V96.15H164.55H164.45V96.05L164.35 95.25L164.15 94.25L164.05 93.55L163.85 92.45L163.75 91.75L163.35 91.85L162.95 92.15L162.65 92.25L162.45 92.35L162.15 92.55L161.95 92.65H161.85L161.65 92.45V92.35L161.55 92.25V92.15H161.45V92.25H161.35L160.95 92.35H160.85L159.85 92.55L160.05 92.95L158.95 93.15L158.35 93.25L158.25 92.85V92.75L157.75 92.95L157.85 93.55H157.95V93.65H158.05H158.15V93.75H158.25H158.35L158.45 93.85L158.55 94.15V94.35L158.65 95.05L158.95 96.45H158.55L157.85 96.65H157.55V96.55L157.45 96.45H157.35L156.75 96.55L155.85 96.75H155.75L155.45 96.85L154.85 96.95H154.75L154.65 97.25L154.55 97.15H154.45L154.25 97.25V96.85V96.75H154.05L153.95 96.65V96.45V96.25L153.85 95.85H153.65L153.35 95.95H153.15H153.05H152.95L152.85 96.05H152.45H152.35L149.65 96.55L148.55 96.75L148.65 96.85V97.35L148.75 97.95L148.85 98.35L148.95 99.15V99.35L150.95 98.95L151.05 99.05V99.15V99.25V99.35V99.45L150.95 99.55L151.05 99.65L151.15 99.75V99.85L151.25 99.95L151.35 100.05V100.15V100.25V100.35H151.45V100.45L150.65 100.55L150.05 100.65L149.35 100.75L148.95 100.85H148.85L148.55 100.95H148.45L147.75 101.05L146.75 101.25H146.65L146.75 101.85L146.85 102.25L146.95 102.55L147.25 102.45H147.55L147.95 102.35L148.05 102.95V103.15V103.25L148.15 103.35V103.45V103.55L148.25 103.75L148.35 104.95L147.35 105.05L147.45 105.65L147.55 106.15V106.25V106.45L147.75 106.25L147.85 106.05V106.15L147.95 106.25V106.35L148.05 106.45L147.95 106.55L147.85 106.95L147.75 107.15L147.65 107.25L147.35 107.45L147.05 108.15L146.95 108.25V108.45V108.85L146.55 108.95L145.75 109.15H145.35H145.25V109.25L145.35 109.35L145.15 109.45L144.65 109.55H144.15V109.65H144.05H143.75L143.25 109.75L142.75 109.85H142.65L142.45 109.95L141.45 110.05L140.95 110.15L139.65 110.45L139.05 110.55H138.85L138.15 110.65H137.95L137.75 110.75H137.55L137.45 110.85H137.25H137.15H136.85L136.65 110.95L136.25 111.05H136.05H135.85L135.75 111.15H135.65H135.55H135.45H135.35L135.25 110.85V110.65V110.45V110.35H135.15V110.25H135.05H134.95V110.35V110.45H134.85V110.55H134.75H134.65V110.65H134.55H134.45H134.35V110.75H134.25H134.15H134.05H133.95L133.85 110.65V110.55M133.85 110.55H133.75M133.85 110.55V110.45M133.85 110.45H133.95H134.05V110.55H134.15V110.45V110.35H134.05H133.95H133.85M133.85 110.45V110.35M133.85 110.35H133.75V110.45H133.65H133.55V110.55H133.45H133.35V110.45L133.25 110.55H133.15H133.05H132.95L132.85 110.65L132.75 110.75V110.85L132.55 110.75H132.45V110.85V110.95H132.35V111.05V111.15L132.25 111.25H132.15H132.05V111.15H131.95L131.85 111.05H131.75V110.95H131.65V110.85H131.55V110.75H131.45L131.35 110.65L131.25 110.55M131.25 110.55H131.35M131.25 110.55V110.45H131.15H131.05H130.95V110.35H130.85V110.25H130.75L130.65 110.15V110.05H130.55L130.45 109.85V109.75H130.35V109.65V109.55V109.45V109.35H130.25H130.15V109.25H130.05V109.35L129.95 108.95V109.05H129.85H129.75L129.65 108.95H129.55V109.05H129.45V108.95H129.35H129.25L129.35 108.85H129.25V108.75H129.15V108.65H129.05H128.95L128.65 108.75H128.55H128.35L127.65 108.95H127.25L126.45 109.15L126.15 109.25H125.85H125.75V109.55L125.85 109.95V110.35L125.95 110.85H125.65L125.05 111.05L125.15 111.35L125.25 111.95L125.35 112.55L125.45 113.35L124.95 113.45L124.35 113.55L123.75 113.75L123.15 113.85L122.65 113.95L122.15 114.05H121.95H121.85V113.95V113.85L121.75 113.55V113.35H121.65H121.55V113.45H121.65V113.55H121.55V113.65V113.75H121.45H121.35V113.85H121.25H121.15V113.95H121.25L121.15 114.05V114.15H121.05H120.95V114.25H120.85V114.15V114.05L120.75 113.95V113.85H120.65V113.75H120.55V113.65H120.65V113.55H120.35L120.25 113.65H119.85H119.75L119.65 113.55L119.55 112.95V112.55L119.45 112.15L119.35 111.55L118.95 111.65L118.35 111.75V111.65L118.25 111.45V111.15L118.15 110.75V110.65H117.85L117.65 109.85L117.55 109.95H117.15L116.85 110.05L116.75 109.85V109.65L116.65 109.45L116.55 109.05L116.05 109.15L115.85 109.25H115.45L115.15 109.35L114.75 109.45H114.55V109.35V109.25V109.15H114.45L114.35 109.25H114.25H114.15H114.05L113.85 109.35H113.75L113.25 109.45H112.75L112.55 109.55H112.35L111.75 109.65L111.95 110.45L111.85 110.55L111.05 110.65L110.45 110.75L109.65 110.95H109.25L108.35 111.15L107.45 111.35V111.45L106.95 111.55L106.35 111.65L105.65 111.75V111.65L105.55 111.45L105.45 110.95V110.85V110.65L105.35 110.25L105.25 109.95L105.15 109.65V109.15L105.35 109.05L105.85 108.95L106.45 108.85L107.05 108.75L107.15 108.65H107.25V108.55V108.45H107.35V108.35H107.25V108.25H107.15V108.15H107.05V108.05H106.95V107.95H106.85V107.85V107.75L106.75 107.65V107.55V107.45H106.55L106.45 107.05V106.95V106.75L106.75 106.65L106.65 106.45L106.55 105.95V105.75V105.65L106.65 105.55L107.85 105.45H108.15H108.25V105.35H108.35V105.25H108.25V105.15V105.05V104.95H108.15V104.85V104.75V104.65L108.05 104.55V104.45V104.35V104.25H107.85V104.15H107.75V103.85V103.65V103.55V103.35H107.85H107.95V103.25V103.15V103.05V102.95H107.85V102.85V102.75L107.75 102.65V102.55L107.65 102.45V102.35V102.25V102.15V102.05V101.85V101.75V101.65V101.45H107.55H107.45H107.35L107.05 101.55H106.85H106.75L106.65 101.65H106.55L106.35 100.55L106.15 99.65L106.05 98.45L105.95 98.05L105.75 98.15H105.55L105.25 98.25H105.15H105.05H104.95H104.85H104.75H104.65H104.55H104.45L104.35 98.35H104.25H104.15H104.05H103.95H103.85H103.75V98.55H103.65L103.45 98.65H103.15L103.05 98.75H102.95H102.85V98.45L102.75 98.35H102.65V98.45H102.55V98.55H102.65V98.65H102.55V98.75H102.45H102.35V98.85H102.45V98.95H102.35H102.25V99.05V99.15V99.25H102.15V99.35H102.05V99.45V99.55H101.95V99.45H101.85H101.75V99.55H101.65H101.55H101.45V99.65H101.35V99.55H101.25V99.45V98.85L101.15 98.45L101.05 98.05L100.95 97.65V97.35V97.15L100.85 96.85L100.75 96.35L100.65 95.85L100.55 94.85L100.45 94.35L100.35 93.65V93.55L100.25 93.25L100.15 92.95V92.65L100.75 92.55L101.85 92.35L102.05 92.25H102.15L102.85 92.15V92.05V91.95L102.75 91.65V91.55L102.65 91.15L102.55 90.55L102.45 89.95L102.35 89.55L102.25 88.75L102.15 88.15L102.05 87.65L101.05 87.85L100.55 87.95L99.75 88.05H99.45L99.35 88.15H99.25H99.15H99.05L98.85 88.25H98.75H98.55H98.45H98.35L98.25 87.75L98.05 86.75V86.55L97.95 86.65H97.85M97.85 86.65V86.75M97.85 86.65V86.55L97.75 86.45H97.85V86.35H97.95V86.25H97.65L97.05 86.35L96.65 86.45L96.05 86.55L95.75 86.65L95.65 86.25V85.95H95.55L95.45 85.75V85.65L95.35 85.15L95.05 85.25V85.15H94.85L94.75 85.25H94.45L93.95 85.45H93.85H93.75L93.55 85.55H93.25L92.75 85.65L92.85 86.05L92.75 86.15V86.25V86.35V86.45V86.55V86.65V86.85L92.85 87.35H92.75L92.55 87.45H92.45V87.55H92.35H92.25H92.15H92.05V87.65V87.75V87.85M92.05 87.85V87.95M92.05 87.85L91.95 87.75L91.85 87.65L91.75 87.25L91.55 87.05H91.45H91.35L91.05 87.15L90.65 87.25L90.75 87.55L90.85 88.35L91.05 89.45L91.15 89.95V90.05L90.75 90.15H90.45H90.05H89.15V90.35V90.45V90.55V90.65H89.25V90.75H89.15V90.85L89.05 90.95L88.95 91.15L88.85 91.25L88.75 91.35V91.45H88.65H88.55H88.45L88.25 91.55L88.15 91.15L88.05 90.65L87.95 90.45H87.55L87.15 90.55H87.05L87.15 89.75V89.65V89.55V89.45H87.25V89.35V89.25L87.35 89.15V89.05L87.95 88.95L88.55 88.75L88.45 88.45L88.35 88.05V87.95L88.15 86.85L87.95 85.85V85.55L87.55 85.65H87.15L87.05 85.75H86.85L86.05 85.95L85.05 86.15L84.45 86.25V86.35L84.55 86.95H84.45L84.05 87.05H83.75L83.55 87.15H83.35L83.25 86.75V86.65L83.15 86.45L83.05 85.85V85.75L82.95 85.55V85.45H82.85H82.75H82.65H82.55V85.55V85.65H82.45V85.75V85.85H82.35V85.95H82.25V86.05H82.15V86.15H82.05V86.25H81.95V86.35H81.85H81.75H81.65H81.55H81.45H81.35H81.25H81.15H81.05H80.95V86.45H80.85H80.75H80.65V86.55H80.55H80.45V86.65H80.35H80.25V86.75H80.15H80.05H79.95H79.85L79.75 86.65L79.65 85.75L79.55 84.95L78.65 85.35L78.25 85.45H78.15L77.35 85.75L76.95 85.95L76.25 86.15L75.65 86.35L75.25 86.55L75.15 85.85L75.05 85.25L74.95 84.65L74.75 83.65L74.65 83.15V83.05L74.45 82.45L73.55 82.65L73.35 82.55L73.25 82.35H73.15L73.05 82.25V82.15H72.95L72.85 82.05H72.75V81.95H72.65V81.85H72.55V81.75H72.45V81.65V81.55V81.45V81.35V81.25H72.55V81.15H72.65H72.75H72.85L72.95 81.05V80.95V80.85H73.05V80.75V80.65H72.95L72.85 80.55H72.75V80.45V80.35V80.25V80.15H72.65V80.05V79.95H72.55V79.85H72.45V79.75H72.35V79.65H72.25V79.55H72.15V79.45H72.05V79.35V79.25V79.15H71.95H71.85V79.05V78.95L71.95 78.85H71.85L71.75 78.75H71.65V78.65V78.55H71.55V78.45L71.35 78.55H70.95L70.45 78.65L70.35 78.25V78.05H70.15L69.75 78.15L68.95 78.25L68.05 78.45H67.95L67.35 78.55L66.45 78.65L66.25 78.75L66.15 78.25L66.05 77.75L65.45 77.95H65.25H65.05L64.85 78.05H64.65L64.25 78.15H64.15H64.05H63.95L63.85 78.25H63.75L63.15 78.45H62.85L62.45 78.55V78.75L62.55 79.25L62.65 79.75L62.75 80.35L62.85 80.65H62.75V80.75V80.95L62.85 81.15V81.45H62.75H62.65H62.55H62.45H62.35H62.25H62.15V81.35H62.05H61.95H61.85H61.75H61.65H61.55V81.45H61.45V81.55H61.35L61.25 81.65H61.15H61.05H60.95V81.55H60.85L60.75 81.45H60.65H60.55H60.45H60.35H60.25H60.15H60.05H59.95H59.85V81.55V81.65V81.75V81.85V81.95V82.05V82.15V82.25V82.35V82.45V82.55V82.65V82.75H59.75M59.75 82.75V82.85M59.75 82.75H59.65V82.65H59.55V82.55H59.45H59.35H59.25V82.65V82.75V82.85H59.15H59.05L58.95 82.95H58.85H58.75H58.65H58.55M58.55 82.95V82.85M58.55 82.95H58.45M58.55 82.95V83.05V83.15H58.45V83.25H58.35V83.35H58.25V83.25V83.15L58.15 83.05V82.95L58.05 82.85H57.95H57.85H57.75H57.65H57.55H57.45L57.35 82.95H57.25H57.15V83.05H57.05V83.15H56.95H56.85V83.05L56.55 83.15H56.25H56.05L55.95 82.75L55.85 82.15V81.85L55.75 81.45H55.45L55.25 81.55H55.05H54.95L54.65 81.65V81.45L54.55 81.15V81.05H54.45V80.95H54.35V81.05H54.25V81.15V81.25V81.35L54.35 81.45V81.55H54.25V81.65V81.75H54.15L54.05 81.85V81.95L53.95 82.05V82.15V82.25V82.35H54.05V82.45V82.55H53.85L53.25 82.65H52.95L52.85 82.15V81.95L52.75 81.85V81.75V81.65V81.55L52.65 81.15L52.55 80.85L51.85 80.95H51.65L51.35 81.05H50.95H50.75L50.25 81.15H50.15H49.85L49.25 81.25L49.15 81.05V80.85V80.75V80.65L49.05 80.55L48.85 80.65L48.45 80.75L48.15 80.85L47.75 81.05H47.65L47.45 81.15H47.25H47.15H46.85L46.55 81.25H46.45H46.25H45.95L45.85 81.35H45.65H45.55L45.65 81.55V81.75V81.85L45.75 81.95L45.85 82.15L45.95 82.25L46.05 82.35L45.95 82.45L45.55 82.55L45.35 82.65H45.25L45.05 82.75H44.75H44.45H44.35H44.25L44.15 82.85V82.95V83.05H44.25V83.15V83.25V83.45H44.15V83.55H44.05H43.85H43.75L43.65 83.45H43.35H43.05H42.85H42.75H42.65H42.55H42.45V83.55H42.25V83.65L41.55 83.55H40.95L40.85 83.15V83.05L40.75 82.95L40.65 82.85L40.25 82.45L39.65 81.95L39.55 81.75L39.45 81.85L39.25 82.15L38.85 82.75L38.45 83.25L38.35 83.45V83.35L38.25 83.25V83.15L38.15 83.05V82.95V82.85V82.75V82.65L38.05 82.55H37.95H37.85H37.75H37.65L37.55 82.65H37.45H37.35L37.25 82.75H37.15H37.05M37.05 82.75V82.85M37.05 82.75H36.95H36.85L36.75 82.85V82.95V83.05H36.65H36.55H36.45V82.95H36.35V82.85H36.25H36.15L36.05 82.75H35.95L35.85 82.65H35.75L35.65 82.55H35.55H35.45H35.35H35.25V82.45H35.15L35.05 82.35H34.95H34.85V82.45H34.75V82.55L34.65 82.65V82.75H34.55V82.85H34.45V82.95H34.35H34.25H34.15L34.05 83.05H33.95H33.85H33.75H33.65H33.55V82.95H33.45H33.35H33.25H33.05H32.95H32.85L32.75 82.85H32.65L32.55 82.75V82.65H32.45V82.55V82.45V82.35V82.25H32.35V82.15H32.25H32.15H32.05L31.95 82.25L31.75 82.15H31.65H31.55H31.45H31.35V82.25H31.25V82.35V82.45H31.15V82.55H31.05H30.95V82.65H30.85H30.75H30.65H30.55L30.45 82.75L30.35 82.85V82.95H30.25V83.05H30.15L30.05 83.15H29.95H29.85H29.75H29.65L29.55 83.25H29.45V83.35V83.45V83.55V83.65V83.75V83.85V83.95L29.55 84.05V84.15L29.45 84.25L29.25 84.45L29.15 84.55L29.05 84.65H28.95V84.75H28.85H28.75V84.65H28.65H28.55H28.45H28.35V84.55H28.25H28.15H28.05V84.65H27.95H27.85H27.75L27.65 84.75H27.55H27.45H27.35H27.25H27.15V84.65H27.05L26.95 84.55L26.85 84.45H26.75L26.55 84.35L26.45 84.25H26.35H26.25H26.15M26.15 84.25V84.15" stroke="white" stroke-width="0.5" stroke-linecap="round" stroke-linejoin="round"/>
</svg>
