<svg width="11" height="12" viewBox="0 0 11 12" fill="none" xmlns="http://www.w3.org/2000/svg">
<path d="M8.54999 10.45L8.45001 10.35V10.25L8.34998 10.15V10.05V9.84998H8.25H8.14996V9.94995H8.04999L7.95001 10.05H7.84998V10.15H7.75V10.05L7.64996 9.94995V9.84998H7.75V9.75V9.64996L7.64996 9.54999H7.75H7.84998V9.64996H7.95001V9.54999L8.14996 9.44995H8.25V9.34998H8.34998V9.25H8.25H8.14996V9.14996L8.25 9.04999H8.45001H8.54999V8.94995L8.75 9.04999V9.25V9.34998H8.84998L8.95001 9.44995L9.04999 9.34998H9.14996V9.44995H9.25H9.45001H9.54999H9.64996L9.75 9.54999H9.84998V9.64996H9.75H9.64996V9.75H9.54999V9.84998H9.45001L9.34998 9.75V9.64996H9.25V9.75V9.84998L9.34998 9.94995L9.25 10.05V10.15H9.14996H9.04999H8.95001H8.84998L8.75 10.25H8.64996V10.35L8.75 10.45H8.84998V10.55V10.65V10.75V10.85H8.75V10.95H8.64996V10.85H8.75V10.75V10.65H8.64996V10.55V10.45H8.54999ZM8.95001 4.44995H8.84998V4.25H8.75V4.14996H8.84998V3.94995V3.84998L8.75 3.75V3.64996H8.84998V3.75L8.95001 3.94995L9.04999 4.14996L9.25 4.44995H9.14996H9.04999L8.95001 4.54999V4.44995ZM7.25 2.64996L7.14996 2.75V2.84998L7.04999 2.94995V3.04999H7.14996H7.25H7.34998V3.14996L7.45001 3.25H7.54999L7.45001 3.34998H7.54999L7.64996 3.44995L7.54999 3.54999H7.45001L7.34998 3.64996L7.25 3.75V3.84998H7.34998V3.94995L7.25 4.04999L7.14996 4.25L7.25 4.34998L7.34998 4.54999L7.45001 4.75L7.54999 4.94995L7.64996 5.14996L7.75 5.34998L7.64996 5.44995V5.54999H7.54999H7.34998H7.25L7.04999 5.34998L6.84998 5.04999L6.64996 4.84998L6.34998 4.44995V4.54999L6.25 4.44995V4.54999H6.14996V4.44995L6.04999 4.54999L5.95001 4.44995V4.34998L5.84998 4.25V4.54999H5.75H5.64996H5.45001V4.64996L5.34998 4.54999H5.25V4.64996H5.34998V4.75L5.25 4.84998H5.14996V4.94995V5.04999H5.25V5.14996V5.25H5.14996V5.34998H5.25H5.34998L5.45001 5.44995V5.54999V5.64996L5.34998 5.75V5.84998H5.45001V5.94995L5.34998 6.04999V6.14996V6.34998V6.44995H5.45001V6.54999V6.64996V6.75V6.84998V6.94995L5.54999 7.04999L5.34998 7.14996H5.25H5.14996H5.04999H4.95001L4.84998 7.04999V6.94995L4.95001 6.84998L4.75 6.54999V6.44995V6.34998V6.25L4.64996 6.34998L4.54999 6.25H4.34998H4.25H4.14996L4.04999 6.14996V6.04999V5.94995V5.84998V5.75V5.64996H3.95001V5.54999L3.84998 5.44995V5.34998V5.25L3.75 5.34998L3.64996 5.44995L3.54999 5.54999L3.45001 5.64996L3.34998 5.54999H3.25H3.14996V5.64996V5.75H3.04999H2.95001V5.64996L2.75 5.54999V5.44995H2.64996H2.54999L2.45001 5.34998V5.44995V5.54999L2.34998 5.64996V5.84998L2.14996 5.75V5.64996H2.04999L1.95001 5.75H1.75L1.84998 5.54999H1.75V5.64996H1.45001V5.54999V5.44995V5.34998V5.25V5.14996H1.54999V5.04999V4.94995H1.45001V4.84998H1.34998V4.75L1.25 4.64996V4.54999H1.14996V4.75L1.04999 4.84998L0.950012 5.14996V5.34998V5.44995V5.54999V5.64996L0.75 5.54999L0.649963 5.34998L0.549988 5.25L0.450012 5.14996V5.04999L0.349976 4.84998L0.25 4.75V4.64996L0.349976 4.54999L0.25 4.44995L0.549988 4.25L0.450012 4.14996L0.549988 4.04999V3.75V3.64996H0.450012V3.75L0.349976 3.84998V3.94995H0.25V3.84998V3.75V3.64996H0.349976V3.54999V3.44995V3.34998H0.450012V3.25H0.549988H0.649963V3.34998V3.44995V3.54999V3.64996H0.75V3.75H0.849976H0.950012V3.84998H1.04999V3.75V3.64996H1.14996V3.54999V3.44995V3.34998H1.04999V3.25V3.14996V3.04999H1.14996V2.94995H1.25H1.34998H1.45001H1.54999V2.84998H1.64996V2.94995H1.75V2.84998H1.84998H1.95001H2.04999V2.94995L2.14996 3.04999H2.04999H1.95001V3.14996V3.25V3.34998V3.44995V3.54999H2.04999V3.64996V3.75V3.84998V3.94995V4.04999H2.14996H2.25V3.94995H2.14996V3.84998V3.75V3.64996L2.25 3.54999V3.44995H2.34998V3.34998H2.25V3.25H2.34998V3.14996V3.04999V2.94995V2.84998V2.75H2.45001L2.54999 2.84998H2.64996V2.94995L2.75 3.04999H2.84998V2.94995H2.95001V2.84998V2.75H3.04999H3.14996L3.25 2.64996H3.34998V2.54999H3.45001V2.64996H3.54999V2.75H3.45001V2.84998V2.94995H3.54999V3.04999H3.64996V3.14996V3.25H3.75V3.14996H3.64996L3.75 3.04999H3.64996V2.94995H3.54999V2.84998H3.64996H3.75V2.75L3.84998 2.64996H3.75V2.54999L3.84998 2.44995H3.95001V2.34998V2.25L4.04999 2.14996V2.25L3.95001 2.34998V2.44995H4.04999H4.14996V2.34998H4.25V2.44995H4.34998H4.45001L4.54999 2.34998V2.44995H4.64996V2.54999V2.64996L4.75 2.54999V2.44995V2.34998H4.84998H4.95001V2.25H5.04999V2.34998V2.44995V2.54999V2.64996H5.14996V2.75V2.84998V2.94995V3.04999V3.14996V3.25V3.34998V3.44995H5.04999V3.54999V3.64996V3.75H5.14996V3.64996V3.54999H5.25V3.44995H5.34998V3.34998V3.25V3.14996V3.04999V2.94995V2.84998V2.64996H5.45001V2.75L5.54999 2.84998V2.75V2.64996V2.54999H5.45001V2.44995H5.34998H5.25V2.34998H5.34998V2.44995H5.45001H5.54999H5.64996H5.75H5.84998H5.95001H6.04999H6.14996H6.25V2.34998H6.34998H6.45001V2.44995V2.54999V2.64996L6.54999 2.75V2.64996V2.54999V2.44995H6.64996H6.75H6.84998V2.54999H6.95001H7.04999H7.14996V2.64996H7.25ZM5.54999 0.25H5.64996L5.75 0.549988L5.84998 0.75L5.95001 0.649963H6.04999V0.549988V0.449951H6.25H6.34998L6.54999 0.349976V0.649963V0.75H6.75V0.849976V0.949951L6.64996 1.14996L6.75 1.04999V1.14996L6.84998 1.25L6.75 1.34998V1.44995V1.54999H6.84998L6.95001 1.64996H7.04999V1.75L7.14996 1.64996V1.54999L7.25 1.44995H7.34998V1.54999V1.64996V1.75V1.94995L7.25 2.04999H7.04999V2.14996H6.95001V2.04999V1.94995H6.84998V1.84998L6.75 1.75V1.84998H6.64996H6.54999H6.45001V1.94995H6.34998L6.25 1.75H6.14996V1.84998H6.04999H5.95001V1.94995H5.75V1.84998L5.64996 1.94995H5.54999H5.45001V1.84998H5.54999V1.75H5.45001V1.64996L5.34998 1.75H5.25V1.64996H5.14996H5.04999H4.95001V1.54999H4.84998H4.75H4.64996H4.54999H4.45001H4.34998V1.64996V1.75H4.25V1.84998H4.14996L4.25 1.75V1.64996H4.34998V1.54999V1.44995H4.25V1.34998V1.25H4.34998V1.14996H4.45001V1.04999L4.54999 0.949951H4.64996V0.849976H4.75H4.84998H4.95001H5.04999H5.14996V0.75H5.25V0.649963H5.34998V0.549988H5.45001V0.449951V0.349976H5.54999V0.25Z" fill="#220F0F"/>
<path d="M8.75 10.85H8.84998V10.75V10.65V10.55V10.45H8.75L8.64996 10.35V10.25H8.75L8.84998 10.15H8.95001H9.04999H9.14996H9.25V10.05L9.34998 9.94995L9.25 9.84998V9.75V9.64996H9.34998V9.75L9.45001 9.84998H9.54999V9.75H9.64996V9.64996H9.75H9.84998V9.54999H9.75L9.64996 9.44995H9.54999H9.45001H9.25H9.14996V9.34998H9.04999L8.95001 9.44995L8.84998 9.34998H8.75V9.25V9.04999L8.54999 8.94995V9.04999H8.45001H8.25L8.14996 9.14996V9.25H8.25H8.34998V9.34998H8.25V9.44995H8.14996L7.95001 9.54999V9.64996H7.84998V9.54999H7.75H7.64996L7.75 9.64996V9.75V9.84998H7.64996V9.94995L7.75 10.05V10.15H7.84998V10.05H7.95001L8.04999 9.94995H8.14996V9.84998H8.25H8.34998V10.05V10.15L8.45001 10.25V10.35L8.54999 10.45H8.64996V10.55V10.65H8.75V10.75V10.85ZM8.75 10.85V10.95H8.64996V10.85H8.75ZM3.45001 5.64996L3.54999 5.54999L3.64996 5.44995L3.75 5.34998L3.84998 5.25V5.34998V5.44995L3.95001 5.54999V5.64996H4.04999V5.75V5.84998V5.94995V6.04999V6.14996L4.14996 6.25H4.25H4.34998H4.54999L4.64996 6.34998L4.75 6.25V6.34998V6.44995V6.54999L4.95001 6.84998L4.84998 6.94995V7.04999L4.95001 7.14996H5.04999H5.14996H5.25H5.34998L5.54999 7.04999L5.45001 6.94995V6.84998V6.75V6.64996V6.54999V6.44995H5.34998V6.34998V6.14996V6.04999L5.45001 5.94995V5.84998H5.34998V5.75L5.45001 5.64996V5.54999V5.44995L5.34998 5.34998H5.25H5.14996V5.25H5.25V5.14996V5.04999H5.14996V4.94995V4.84998H5.25L5.34998 4.75V4.64996H5.25V4.54999H5.34998L5.45001 4.64996V4.54999H5.64996H5.75H5.84998V4.25L5.95001 4.34998V4.44995L6.04999 4.54999L6.14996 4.44995V4.54999H6.25V4.44995L6.34998 4.54999V4.44995L6.64996 4.84998L6.84998 5.04999L7.04999 5.34998L7.25 5.54999H7.34998H7.54999H7.64996V5.44995L7.75 5.34998L7.64996 5.14996L7.54999 4.94995L7.45001 4.75L7.34998 4.54999L7.25 4.34998L7.14996 4.25L7.25 4.04999L7.34998 3.94995V3.84998H7.25V3.75L7.34998 3.64996L7.45001 3.54999H7.54999L7.64996 3.44995L7.54999 3.34998H7.45001L7.54999 3.25H7.45001L7.34998 3.14996V3.04999H7.25H7.14996H7.04999V2.94995L7.14996 2.84998V2.75L7.25 2.64996H7.14996V2.54999H7.04999H6.95001H6.84998V2.44995H6.75H6.64996H6.54999V2.54999V2.64996V2.75L6.45001 2.64996V2.54999V2.44995V2.34998H6.34998H6.25V2.44995H6.14996H6.04999H5.95001H5.84998H5.75H5.64996H5.54999H5.45001M3.45001 5.64996V5.54999M3.45001 5.64996L3.34998 5.54999H3.25H3.14996V5.64996V5.75H3.04999H2.95001V5.64996L2.75 5.54999V5.44995H2.64996H2.54999L2.45001 5.34998V5.44995V5.54999L2.34998 5.64996V5.84998L2.14996 5.75V5.64996H2.04999L1.95001 5.75H1.75L1.84998 5.54999H1.75V5.64996H1.45001V5.54999V5.44995V5.34998V5.25V5.14996H1.54999V5.04999V4.94995H1.45001V4.84998H1.34998V4.75L1.25 4.64996V4.54999H1.14996V4.75L1.04999 4.84998L0.950012 5.14996V5.34998V5.44995V5.54999V5.64996L0.75 5.54999L0.649963 5.34998L0.549988 5.25L0.450012 5.14996V5.04999L0.349976 4.84998L0.25 4.75V4.64996L0.349976 4.54999L0.25 4.44995L0.549988 4.25L0.450012 4.14996L0.549988 4.04999V3.75V3.64996H0.450012V3.75L0.349976 3.84998V3.94995H0.25V3.84998V3.75V3.64996H0.349976V3.54999V3.44995V3.34998H0.450012V3.25H0.549988H0.649963V3.34998V3.44995V3.54999V3.64996H0.75V3.75H0.849976H0.950012V3.84998H1.04999M1.04999 3.84998V3.94995M1.04999 3.84998V3.75V3.64996H1.14996V3.54999V3.44995V3.34998H1.04999V3.25V3.14996V3.04999H1.14996V2.94995H1.25H1.34998H1.45001H1.54999V2.84998H1.64996V2.94995H1.75V2.84998H1.84998M1.84998 2.84998V2.75M1.84998 2.84998H1.95001H2.04999M2.04999 2.84998V2.75M2.04999 2.84998V2.94995L2.14996 3.04999H2.04999H1.95001V3.14996V3.25V3.34998V3.44995V3.54999H2.04999V3.64996V3.75V3.84998V3.94995V4.04999H2.14996H2.25M2.25 4.04999V4.14996M2.25 4.04999V3.94995H2.14996V3.84998V3.75V3.64996L2.25 3.54999V3.44995H2.34998V3.34998H2.25V3.25H2.34998V3.14996V3.04999V2.94995V2.84998V2.75H2.45001L2.54999 2.84998H2.64996V2.94995M2.64996 2.94995H2.75M2.64996 2.94995L2.75 3.04999H2.84998V2.94995H2.95001V2.84998V2.75H3.04999M3.04999 2.75V2.64996M3.04999 2.75H3.14996L3.25 2.64996H3.34998V2.54999H3.45001V2.64996H3.54999V2.75H3.45001V2.84998V2.94995H3.54999M3.54999 2.94995V3.04999H3.64996M3.54999 2.94995H3.64996V3.04999M3.54999 2.94995V2.84998H3.64996H3.75V2.75L3.84998 2.64996H3.75V2.54999L3.84998 2.44995M3.64996 3.04999V3.14996M3.64996 3.04999H3.75L3.64996 3.14996M3.64996 3.14996V3.25M3.64996 3.14996H3.75V3.25H3.64996M3.64996 3.25V3.34998M3.84998 2.44995V2.54999M3.84998 2.44995H3.95001M3.95001 2.44995V2.34998M3.95001 2.44995H4.04999H4.14996V2.34998H4.25V2.44995H4.34998H4.45001L4.54999 2.34998V2.44995H4.64996V2.54999V2.64996L4.75 2.54999V2.44995V2.34998H4.84998H4.95001V2.25H5.04999V2.34998V2.44995V2.54999V2.64996H5.14996V2.75V2.84998V2.94995V3.04999V3.14996V3.25V3.34998V3.44995H5.04999V3.54999V3.64996V3.75H5.14996V3.64996V3.54999H5.25V3.44995H5.34998V3.34998V3.25V3.14996V3.04999V2.94995V2.84998V2.64996H5.45001V2.75L5.54999 2.84998V2.75V2.64996V2.54999H5.45001V2.44995M3.95001 2.34998V2.25L4.04999 2.14996M3.95001 2.34998L4.04999 2.25V2.14996M4.04999 2.14996V2.04999M5.45001 2.44995H5.34998M5.34998 2.44995H5.25V2.34998H5.34998V2.44995ZM6.04999 1.84998H6.14996V1.75H6.25L6.34998 1.94995H6.45001V1.84998H6.54999H6.64996H6.75V1.75L6.84998 1.84998V1.94995H6.95001V2.04999V2.14996H7.04999V2.04999H7.25L7.34998 1.94995V1.75V1.64996V1.54999V1.44995H7.25L7.14996 1.54999V1.64996L7.04999 1.75V1.64996H6.95001L6.84998 1.54999H6.75V1.44995V1.34998L6.84998 1.25L6.75 1.14996V1.04999L6.64996 1.14996L6.75 0.949951V0.849976V0.75H6.54999V0.649963V0.349976L6.34998 0.449951H6.25H6.04999V0.549988V0.649963H5.95001L5.84998 0.75L5.75 0.549988L5.64996 0.25H5.54999V0.349976H5.45001V0.449951V0.549988H5.34998V0.649963H5.25V0.75H5.14996V0.849976H5.04999H4.95001H4.84998H4.75H4.64996V0.949951H4.54999L4.45001 1.04999V1.14996H4.34998V1.25H4.25V1.34998M6.04999 1.84998V1.94995M6.04999 1.84998H5.95001V1.94995H5.75V1.84998L5.64996 1.94995H5.54999H5.45001V1.84998H5.54999V1.75H5.45001V1.64996L5.34998 1.75H5.25V1.64996H5.14996H5.04999H4.95001V1.54999H4.84998H4.75H4.64996M4.64996 1.54999V1.64996M4.64996 1.54999H4.54999H4.45001H4.34998M4.34998 1.54999V1.64996M4.34998 1.54999V1.44995H4.25V1.34998M4.34998 1.64996H4.45001M4.34998 1.64996V1.75H4.25M4.34998 1.64996H4.25V1.75M4.25 1.75V1.84998H4.14996L4.25 1.75ZM4.25 1.34998H4.14996M8.95001 4.44995H8.84998V4.25H8.75V4.14996H8.84998V3.94995V3.84998L8.75 3.75V3.64996H8.84998V3.75L8.95001 3.94995L9.04999 4.14996L9.25 4.44995H9.14996H9.04999L8.95001 4.54999V4.44995Z" stroke="white" stroke-width="0.5" stroke-linecap="round" stroke-linejoin="round"/>
</svg>
