<svg width="141" height="152" viewBox="0 0 141 152" fill="none" xmlns="http://www.w3.org/2000/svg">
<path d="M74.05 1.45H74.15V1.34999H74.25V1.25H74.35V1.14999H74.45V1.05L74.55 0.949997H74.65V0.849991H74.55L74.65 0.75H74.75H74.85H74.95V0.649994H74.85V0.550003H74.75H74.65V0.449997V0.349991H74.75H74.85V0.449997H74.95L75.05 0.349991V0.25H75.15H75.25V0.349991H75.35V0.449997V0.550003H75.45H75.55H75.65V0.649994V0.75H75.75V0.649994V0.550003V0.449997H75.85V0.550003V0.649994H75.95V0.75H76.05H76.15V0.649994V0.550003V0.449997H76.25L76.35 0.349991V0.449997V0.550003V0.649994V0.75H76.45V0.649994V0.550003H76.55V0.449997H76.65V0.550003H76.55V0.649994H76.45V0.75H76.55H76.65V0.849991V0.949997L76.75 1.05V0.949997V0.849991V0.75H76.85V0.849991V0.949997V1.05H76.95V1.14999H77.05H77.15V1.25H77.25V1.34999V1.45H77.35V1.34999H77.45V1.45V1.55H77.55V1.64999L77.45 1.75H77.35L77.25 1.64999H77.15H77.05V1.75H77.15H77.25H77.35V1.84999H77.45V1.95H77.35V2.05H77.45L77.55 2.14999H77.45L77.35 2.25V2.34999L77.55 2.25H77.65V2.34999H77.55V2.45H77.65V2.55V2.64999H77.55V2.75V2.84999H77.65V2.75V2.64999H77.75H77.85V2.75H77.95V2.84999H78.05V2.75V2.64999H78.15V2.75V2.84999V2.95H78.25V3.05L78.35 2.95V2.84999V2.75H78.45V2.84999H78.55V2.95L78.65 3.05V3.14999H78.75V3.05H78.85H78.95V3.14999H79.05V3.25V3.34999V3.45H78.95H78.85V3.55H78.95H79.05H79.15V3.64999H79.05V3.75V3.84999H79.15H79.25V3.95H79.15V4.05H79.25V3.95H79.35V4.05V4.14999H79.45V4.25H79.35V4.34999H79.45H79.55V4.45V4.55H79.45V4.64999V4.75V4.84999H79.55H79.65H79.75V4.75V4.64999H79.85H79.95V4.75H80.05H80.15V4.84999H80.05H79.95V4.95V5.05H80.05L80.15 5.14999H80.25V5.25H80.35V5.34999V5.45H80.45H80.55V5.34999H80.65V5.45H80.75V5.55H80.85H80.95L81.05 5.64999H81.15H81.25H81.35H81.45H81.55H81.65V5.75H81.75H81.85H81.95L82.05 5.64999H82.15L82.25 5.75H82.35L82.45 5.84999H82.55H82.65V5.95H82.75H82.85L82.95 6.05H83.05H83.15H83.25L83.35 6.14999H83.45L83.55 6.25H83.65L83.75 6.14999H83.85H83.95H84.05L84.25 6.25H84.35H84.45V6.34999H84.55H84.65H84.75V6.25H84.85V6.14999V6.05V5.95V5.84999V5.75V5.64999V5.55L84.95 5.45L85.05 5.25V5.14999L85.25 4.75L85.15 4.34999V4.25H85.05L85.15 4.14999H85.35L85.55 4.25H85.65H85.75H85.85H86.15H86.25H86.35H86.45H86.55H86.65L86.75 4.34999H86.85H86.95V4.45H87.05V4.34999V4.25H87.15L87.35 4.05H87.55V3.95L87.65 3.84999L87.75 3.75L87.85 3.64999L87.95 3.55V3.45L88.25 3.64999V3.75L88.35 3.95L88.55 4.14999L88.65 4.25L88.75 4.34999V4.45V4.55L88.85 4.64999V4.75L88.95 4.84999L89.05 4.95H89.15L89.25 5.05H89.45V5.14999H89.55L89.65 5.25L89.55 5.34999V5.45H89.45V5.55V5.64999L89.25 5.84999L89.15 5.95H89.05L88.85 6.14999V6.25H88.95L89.05 6.34999L89.15 6.45L89.05 6.55V6.64999L89.15 6.84999V6.95V7.05L89.25 7.14999V7.25V7.34999H89.35H89.45H89.55V7.45H89.65H89.75V7.55L89.85 7.64999V7.75H89.95V7.84999H90.05L90.15 7.95H90.25V8.05H90.35V8.14999L90.45 8.25H90.55V8.34999H90.65V8.45H90.75L90.85 8.55H90.95L91.05 8.64999L91.15 8.75H91.25L91.35 8.84999H91.45V8.95H91.55L91.65 8.84999H91.75H91.85L91.95 8.95L92.05 8.84999H92.15H92.25H92.35V8.75H92.45L92.65 8.64999L92.75 8.55H92.85V8.45L92.95 8.34999H93.05V8.25H93.15L93.25 8.14999L93.35 8.05H93.45L93.95 7.95V7.84999L94.05 7.75L94.25 7.64999H94.35H94.45H94.65H94.75H94.85L95.25 7.95L95.35 8.05H95.45L95.55 8.14999L95.65 8.25L95.75 8.34999H95.85V8.45V8.55L95.95 8.64999V8.75L96.05 8.84999V8.95L96.15 9.05L96.25 9.14999V9.25H96.35V9.34999L96.45 9.45V9.55V9.64999V9.84999V9.95V10.05V10.15V10.25L96.55 10.35V10.45V10.55H96.65V10.65H96.75V10.75V10.85L96.85 11.05V11.15H96.95V11.25V11.35V11.45H96.85V11.55L96.75 11.65V11.85V11.95V12.55V12.65H97.15V12.95H97.25H97.35H97.45H97.55H97.65V12.85H97.75H97.85H97.95H98.05H98.15V12.75H98.25L98.35 12.65H98.45V12.55V12.45V12.35L98.35 12.25V12.15V12.05L98.45 12.15H98.55H98.65V12.25H98.75H98.85V12.35V12.45H98.75L98.65 12.55H98.55L98.45 12.65L98.55 12.95V13.05H98.65L98.55 13.25V13.35H98.65V13.45V13.55V13.65H98.75L98.85 13.75H98.95V13.85V14.05V14.25V14.75L98.45 15.15V15.25H98.55V15.35V15.45H98.65V15.55H98.75H98.85H98.95H99.05L98.95 15.65V15.75V15.85V16.05V16.25V16.35V16.55V16.85V16.95V17.05V17.15V17.25V17.35V17.45V17.65V17.95L98.85 18.45V18.55V18.75V18.95H98.95L99.05 19.05H99.15H99.25H99.35L99.45 19.15H99.55L99.65 19.25H99.75H99.85H99.95H100.05H100.15V19.35H100.25H100.35H100.45H100.55H100.65H100.75H100.85H100.95H101.05H101.15L101.25 19.25H101.35L101.45 19.15H101.55H101.65V19.25H101.75V19.35V19.45L101.65 19.65V19.75H101.75V19.85L101.85 19.95H101.95H102.15V20.05L102.25 19.95H102.35V20.05H102.45H102.55H102.65V20.15H102.75H102.85L102.95 20.25L103.15 20.45L103.35 20.55L103.65 20.75V20.85H103.75L103.85 20.95L104.05 21.05L104.15 21.15L104.45 21.25V21.35L104.55 21.45L104.65 21.55L104.85 21.65L104.95 21.85L105.05 21.95L105.15 22.05V22.15V22.25V22.45V22.55L105.05 22.65V22.75L104.95 23.05L104.85 23.35L104.95 23.45L104.85 23.55V23.85V24.15V24.45L104.75 24.55H104.85L105.35 24.65H105.65L105.85 24.75H106.45L106.75 24.85H106.95H107.35L107.95 24.95L108.35 24.55H108.45V24.45V24.35L108.55 24.25H108.65L108.75 24.35H108.85H108.95V24.25H109.05H109.15H109.25H109.45H109.55V24.15H109.65H109.75H109.85L110.05 24.05H110.25H110.45H110.55H110.75L110.95 23.95H111.25H111.35L111.45 23.85H111.65H111.75H111.85H111.95L112.05 23.95H112.15V24.05V23.85V23.65H112.25V23.55L112.35 23.45L112.45 23.25H112.55H112.75H113.45H113.55V23.55V23.75L113.45 24.05V24.35H113.55L113.65 24.25H113.75H113.95L114.15 24.35H114.35H114.45H114.55H114.65H114.75V24.25H114.85H114.95H115.05H115.15V24.35H115.25H115.35V24.25H115.45H115.55H115.85L116.05 24.35V24.15V23.95L116.15 23.65V23.55V23.35V23.15V23.05V22.95V22.85V22.65L116.05 22.25L115.95 22.15L115.85 22.05L115.65 21.75L115.85 21.55L115.95 21.45H116.05V21.35L116.15 21.25V21.15L116.25 20.85H116.35L116.45 20.95H116.55V21.05H116.65V21.15L116.75 21.25V21.35H116.85V21.45H116.95L117.05 21.55L117.15 21.65L117.25 21.75L117.35 21.85L117.45 22.05L117.65 22.25L117.85 22.35V22.45H117.95V22.55H118.05V22.65H118.15V22.75L118.35 22.85L118.55 23.05L118.65 23.15V23.25L118.75 23.35H118.85L118.95 23.45L119.05 23.55L119.25 23.75L119.45 23.95L119.55 24.05L119.65 24.15L119.75 24.25L119.85 24.35L119.95 24.55L120.05 24.65L120.15 24.55H120.25L120.35 24.45H120.45V24.35H120.55H120.65H120.75H120.85H120.95H121.05H121.15L121.25 24.45H121.35V24.55H121.45H121.55H121.75H121.95H122.05H122.15V24.65H122.25V24.75H122.15H122.05V24.85V24.95V25.05H121.95V25.15L122.05 25.25H122.15V25.35H122.25V25.45V25.55V25.65V25.75V25.85H122.15L122.25 25.95V26.05H122.15V26.15H122.05V26.25H122.15V26.35H122.05V26.45V26.55H121.95V26.65V26.75V26.85H122.05V26.95V27.05H121.95V27.15V27.25V27.35V27.45H121.85V27.55H121.95V27.65H122.05V27.75V27.85L122.15 27.95H122.25H122.35L122.45 28.05H122.55L122.65 28.15L122.85 28.35L122.95 28.45H123.15L123.25 28.55H123.55L123.95 28.65H124.15H124.25L124.45 28.75L124.95 28.95V29.15L125.05 29.25H125.15H125.25L125.55 29.35H125.65H125.75L125.95 29.25L126.05 29.15L126.35 29.05L126.45 28.95H126.65L126.85 28.85L127.05 28.75H127.25V28.65H127.35H127.45H127.55L127.65 28.75H127.75H127.85H127.95H128.05L128.15 28.85H128.25L128.35 28.95L128.65 29.05L129.15 29.35L129.35 29.45L129.55 29.55V29.65V29.75V29.85V29.95V30.05V30.15V30.25V30.35V30.55L129.45 30.85V31.05V31.15V31.25V31.45V31.55V31.65H129.55V31.75V31.85L129.65 32.05H129.25L129.05 31.95H128.85L128.75 32.05V32.15V32.25L128.65 32.55L128.45 32.95H128.35L128.25 33.15L128.15 33.25L128.25 33.35V33.55H128.45L128.35 33.75L128.45 33.85V33.95H127.95H127.75V34.15L127.65 34.35V34.45V34.55V34.65V34.75V34.85V34.95H127.55V35.05V35.15H127.65V35.25V35.35L127.75 35.45V35.55V35.65H127.85L127.95 35.75L128.05 35.85L128.15 35.95H128.25V36.05H128.35L128.45 36.15H128.55L128.65 36.25L128.75 36.35H128.85L129.05 36.45L129.25 36.65L129.35 36.75L129.55 36.85L129.65 36.95L129.75 37.05L130.05 37.35V37.45V37.55L129.95 37.65V37.75L129.85 37.85V38.05L129.55 38.15L129.35 38.45V38.55V38.65H129.45V38.75H129.55V38.85L129.65 38.95V39.05V39.15V39.35V39.45V39.55H129.55V39.75V39.85L129.45 40.05V40.15V40.25L129.35 40.65L129.25 40.85V40.95L129.15 41.15V41.25L129.25 41.35V41.45L129.45 41.65V41.75L129.65 42.15V42.25H129.75L129.85 42.35V42.55L130.05 42.75L130.15 42.85L130.35 43.15L130.55 43.45L130.95 43.95L131.15 44.25L131.45 44.65L131.55 44.85L131.75 45.15L131.85 45.25L131.95 45.45L132.15 45.65L132.25 45.85L132.45 46.15H132.55V46.25L132.65 46.45L132.75 46.55V46.65H132.85V46.75L132.95 46.85L133.05 46.95V47.05H133.15L133.25 47.15L133.35 47.35L133.45 47.45L133.55 47.55L133.75 47.85L133.95 48.15L134.05 48.25V48.35L134.15 48.45V48.55L134.35 48.75L134.45 48.85L134.55 49.05H134.65V49.15L134.75 49.25V49.35L134.85 49.55L134.95 49.65V49.75L135.05 49.85L135.15 49.95H135.25L135.35 50.05L135.45 50.15H135.55L135.65 50.25L135.95 50.45L136.25 50.75L136.85 51.35L137.15 51.55L137.25 51.65L137.35 51.75L137.45 51.85H137.55V51.95H137.75L137.85 52.05H137.95L138.05 52.15L138.15 52.25H138.25L138.45 52.35H138.65L138.85 52.45H139.05L139.25 52.55L139.45 52.65H139.55V52.85H139.65V52.95V53.05L139.75 53.15V53.25V53.35L139.85 53.45V53.55L139.95 53.65V53.85L140.05 53.95L139.95 54.05L139.85 54.35H139.75L139.65 54.55V54.75L139.55 54.95L139.45 55.05V55.15V55.25L139.55 55.35V55.45V55.55V55.65H139.65H139.75V55.75H139.85H139.95H140.05V55.85H140.15L140.25 55.75H140.35L140.55 55.95L140.65 56.05H140.75V56.25V56.35H140.65H140.55H140.45V56.45H140.35V56.55L140.25 56.65H140.15H140.05L139.95 56.55H139.85H139.75H139.65L139.55 56.45H139.45L139.35 56.55L139.25 56.65H139.15L139.05 56.75V56.65H138.95H138.85V56.75H138.75V56.85V56.95V57.05V57.15V57.25V57.35H138.65V57.45V57.55L138.55 57.65V57.75L138.45 57.85L138.35 57.95V58.05L138.25 58.25V58.35V58.45V58.55H138.35V58.65V58.75H138.45V58.85V58.95H138.55V59.05H138.65V59.15L138.75 59.25V59.35L138.85 59.45V59.55V59.65L138.75 59.75V59.95L138.65 60.05V60.15V60.25L138.55 60.35V60.45L138.45 60.55V60.65V60.75V60.85V60.95V61.05V61.15H138.35H138.25H138.15L138.05 61.25H137.95V61.35V61.45H138.05V61.55V61.65H138.15V61.75V61.85V61.95L137.95 62.05H137.85H137.65H137.55L137.35 62.15H137.25H137.15L137.05 62.25H136.95H136.85V62.35H136.75V62.25H136.65H136.55H136.45H136.35H136.25H136.15V62.55L135.75 62.75L135.35 62.85H135.25H135.15H135.05V62.95H134.95L134.85 63.05H134.75H134.65H134.55H134.45H134.35L134.25 63.15V63.25L134.15 63.35H134.25H134.35V63.45V63.55V63.65H134.25L134.15 63.75H134.05L133.95 63.85V64.05H133.85V64.15H133.95V64.25H134.05V64.35V64.45V64.55L133.95 64.65L133.85 64.75V64.85H133.75V64.95H133.65V65.05H133.55V64.95H133.45H133.35H133.25H133.15V64.85H133.05H132.95H132.85V64.75V64.65H132.75L132.65 64.75L132.55 64.65H132.45V64.55V64.35H132.15V64.55H131.75V64.85V64.95V65.05L131.65 65.15L131.55 65.25H131.35L131.25 65.35H131.15L130.95 65.25H130.75H130.65H130.55H130.45L130.35 65.15H130.25H130.15H130.05H129.95H129.85V65.05V64.95V64.85H129.75L129.65 64.75H129.55L129.45 64.65H129.35H129.25L129.15 64.55H129.05L128.95 64.45H128.85H128.75L128.55 64.35H128.45V64.25H128.35L127.95 64.65H127.85H127.75H127.65H127.55L127.45 64.55H127.35H127.25H127.15H127.05H126.95H126.85V64.65L126.95 64.75V64.85L126.85 64.95V65.05H126.75H126.65H126.55V65.15V65.25V65.35L126.45 65.45V65.55V65.65V65.75V65.85L126.35 65.95H126.25L126.15 66.05V65.95H126.05V65.85H125.95H125.85H125.75V65.75L125.65 65.85V65.75H125.55H125.45H125.35H125.25H125.15H125.05H124.95H124.85H124.75H124.65V65.65H124.55L124.45 65.55H124.35H124.15L124.05 65.45L123.85 65.15H123.75V65.05H123.55H123.45V65.15L123.35 65.45V65.65V65.85L123.45 66.05V66.15V66.25V66.45V66.75V66.85V66.95V67.15V67.25V67.45H123.55V67.55V67.65V67.75L123.65 67.85V67.95V68.05H123.75V68.15V68.25V68.35V68.45V68.55V68.65L123.65 68.75V68.85L123.55 68.95L123.05 68.85V69.15V69.35L122.95 69.45L122.85 69.55L123.05 69.65L123.15 69.75H123.25L123.35 69.85L123.55 70.05H123.65V70.15V70.25H123.75L123.85 70.35L123.95 70.45H124.15L124.45 70.55V70.65L124.55 70.75L124.75 71.05H124.85V71.15L124.95 71.25V71.35H125.05V71.45L124.95 71.55V71.65L124.85 71.75L124.75 71.85L124.55 72.15L124.25 72.45L124.15 72.55L124.05 72.75L123.95 72.65L123.55 72.95L123.35 73.15L123.25 73.35L123.15 73.45L122.85 73.65L122.95 73.85L122.65 74.05H122.55L122.45 73.95H122.35V73.85H122.25V73.75V73.65L122.05 73.45L121.85 73.15L121.55 72.85V72.75H121.45V72.65H121.35L121.15 72.55H121.05L120.95 72.45H120.85V72.35H120.75L120.65 72.25H120.45L120.35 72.15V72.25L120.25 72.45V72.55L120.15 72.75L120.05 72.95L119.95 73.25L119.85 73.55L119.65 73.85V73.95L119.45 74.45L119.35 74.65L119.25 74.85V74.95L119.15 75.05L119.25 75.35L119.15 75.45V75.55V75.65V75.85V76.15L119.05 76.35V76.55L118.95 77.05V77.25V77.45V77.65V77.75V77.85L119.05 77.95H118.95H118.85H118.75L118.65 78.05V78.25V78.45L118.55 78.75V78.85V78.95L118.65 79.05V79.15L118.75 79.25L118.65 79.45H118.55V79.55L118.45 79.65V79.75L118.35 79.85V79.95L117.95 79.75L117.65 79.65H117.55L117.45 79.85V79.95V80.05V80.15V80.25V80.35H117.35V80.45V80.55V80.65V80.75H117.15V80.85V80.95V81.05L117.05 81.15V81.25V81.35H116.95V81.45V81.55L116.85 81.65H116.75H116.55L116.65 81.55V81.45H116.55H116.45H116.35H116.25H115.95H115.65L115.75 81.55H115.85H115.95L116.15 81.65V81.75L116.25 81.85V82.05V82.15H116.15H115.85L115.65 82.05H115.45L115.35 81.95L115.15 81.75H115.05L114.95 81.65H114.75H114.65H114.55H114.45V81.75H114.35L114.25 81.85L114.15 81.95H114.05V82.05H114.15H114.25V82.15H114.35V82.25H114.25V82.35V82.45H114.35V82.55V82.65H114.45L114.35 82.85H114.25H114.15L114.05 82.75H113.95H113.75H113.65L113.55 82.65H113.45V82.55L113.35 82.45V82.35V82.25V82.15H113.25H113.15L112.95 82.05H112.85H112.75V82.15H112.65V82.25V82.35H112.75V82.45H112.65H112.55L112.45 82.35V82.45V82.85H112.35H112.05H111.95L111.75 82.75H111.55H111.45H111.35V82.85H110.85V83.05L110.95 83.15L111.05 83.45L110.95 83.55L111.05 83.65L111.15 83.75V83.85V83.95V84.05V84.15V84.25L111.05 84.35H110.95H110.85L110.75 84.15V84.05V83.95V83.85V83.75V83.65V83.55L110.65 83.45V83.35H110.55H110.45L110.35 83.45H110.25V83.55H110.15V83.65H110.05V83.75H109.95V83.85H109.85H109.65L109.25 83.75H109.15V83.85H109.05V83.95L108.95 84.05V84.15L108.85 84.35V84.55L108.75 84.75V84.95H108.65H108.35H108.15H107.95H107.65H107.45H107.35V84.85H107.25H107.15V84.95V85.05L107.05 84.95H106.95H106.75L106.55 85.05H106.35H106.15H105.95H105.75L105.55 85.15V85.05V84.95H105.45H105.35H105.25L105.15 85.05H105.05L104.95 85.15H105.05L105.15 85.25V85.35V85.45H105.25V85.55V85.65V85.75V85.85V85.95H105.35V86.05V86.15V86.25V86.35L105.45 86.45V86.55V86.75L105.55 86.85V86.95H105.45V87.05V87.15H105.35V87.25V87.35H105.25V87.45V87.55V87.65V87.75V87.85V87.95V88.05H105.15H105.05V88.15H104.95L105.05 88.25V88.35V88.45V88.55V88.75V88.85V88.95V89.05L105.15 89.25V89.35V89.45V89.75V89.85H105.25V89.95V90.05L105.15 90.15V90.25V90.45V90.55V90.65V90.75V90.85H105.05H104.95H104.85L104.75 90.95H104.55H104.45H104.35L104.25 91.05H104.05H103.85L103.75 90.95H103.65L103.45 90.85L103.35 90.75H103.25H103.15H103.05V90.85H102.95L102.85 90.75L102.75 90.65H102.65H102.55V90.55H102.45H102.35V90.45H102.25H102.15L102.05 90.35V90.25H101.95L101.85 90.15V90.25L101.75 90.45L101.65 90.55H101.35L101.25 90.45H101.05L100.95 90.75L100.65 90.55V90.45V90.35H100.55L100.45 90.25V90.15H100.35V90.05L100.25 89.95V89.85L100.05 89.75H99.95L99.85 89.85L99.35 89.65L99.25 89.55L99.15 89.45L99.05 89.35H98.95L98.85 89.25H98.75L98.65 89.15L98.55 89.05H98.45L98.35 88.95V88.85L98.25 88.75L98.15 88.65L98.05 88.55H97.95L97.85 88.45V88.55L97.75 88.45H97.85V88.35H97.75V88.25V88.15V88.05V87.95H97.65V87.85H97.55V87.95L97.25 88.05L96.95 88.25L96.65 88.35L96.55 88.45H96.45L96.35 88.55H96.25V88.65H96.15V88.85H96.05H95.95H95.85V88.75H95.75H95.65V88.65H95.55H95.45V88.75V88.85H95.35H95.25H95.15H95.05L94.95 88.95V88.85L95.05 88.75L94.65 88.45V88.35V88.25V88.15H94.75L94.65 88.05L94.35 87.85L94.45 87.75V87.65L94.55 87.55H94.65H94.75V87.65H94.85H94.95L95.05 87.55H95.15V87.45V87.35V87.25H95.05L94.95 87.15H94.85H94.75H94.65V87.05H94.55L94.45 86.95H94.35V86.85V86.55V86.45L94.25 86.35L94.15 86.25H94.05L93.95 86.15H93.75V86.25L92.95 85.95H92.75H92.65L92.55 86.05L92.65 86.15L92.75 86.25L92.95 86.35H93.05V86.45L92.75 86.35H92.65H92.55V86.25H92.45H92.35V86.35V86.65L92.45 86.85L92.05 86.55H91.95H91.85H91.75V86.65H91.65V86.75V86.85H91.55V86.95V87.05H91.45L91.35 87.15V87.25L90.85 87.55L90.75 87.65L90.65 87.75L90.75 87.95V88.05H90.85V88.15V88.25V88.45L90.95 88.55V88.65V88.75V88.85L91.05 88.95V89.25V89.35L91.15 89.45V89.55L91.25 89.65V89.75V90.05H91.15L91.05 90.15V90.25H90.95H90.85H90.75H90.65H90.55H90.45H90.35H90.25H90.15H90.05H89.95H89.85H89.75V90.15L89.65 90.25H89.55V90.35H89.45V90.45L89.35 90.55L89.25 90.75L89.15 90.85L89.05 90.95V91.15L89.15 91.25L89.25 91.55L89.35 91.95V92.05L89.65 92.55V92.75L89.85 92.65L89.75 93.05V93.45L89.65 93.75V93.95L89.55 94.15L89.45 94.75V94.85H89.15L88.65 94.95L88.15 95.05L87.95 95.15L87.65 95.45L87.55 95.55L87.45 96.05H87.55H87.65V96.15V96.35V96.45V96.55V96.65L87.75 97.05V97.25V97.35L87.95 97.45L88.05 97.55L88.25 97.65L88.35 97.75V97.85V97.95L88.45 98.05V98.15V98.25L88.35 98.35V98.75L88.85 98.85H88.95H89.05H89.15H89.25L89.95 99.25V99.35H90.15V99.55L90.55 99.65L90.85 99.85L90.55 100.05H90.45V100.15V100.25V100.35L90.35 100.45L90.25 100.55H90.15H90.05L89.95 100.65L89.85 100.75H89.75V100.85H89.65H89.55H89.45L89.35 100.95L89.45 101.25H89.35L89.25 101.35L89.15 101.45V101.55V101.65V101.75H89.05H88.95V101.65L88.85 101.55L88.65 101.65L88.55 101.85L88.45 101.95H88.55H88.75V102.05V102.25V102.35L88.65 102.65V102.85V102.95H88.85L89.05 103.05V103.15L88.95 103.25V103.35H88.85V103.45H88.75L88.65 103.55V103.75L88.55 104.05L88.45 104.25L88.35 104.35L88.25 104.45V104.55L88.05 104.95V105.15V105.25H87.95V105.35V105.45L87.85 105.25L87.35 104.85L87.05 104.55L86.85 104.35L86.75 104.55L86.35 104.95L86.25 105.15H86.05V105.25L85.45 105.15L85.25 105.05L84.05 104.85L83.95 105.15V105.25V105.65L83.85 106.05V106.15V106.25V106.35V106.45V106.65V106.75V106.85V107.05H83.95V107.15V107.25L84.05 107.45L84.15 107.85H84.25H84.35L84.55 107.75V107.65L84.75 107.55L84.85 107.45L84.95 107.35L85.15 107.15H85.25L85.45 107.05H85.55L85.65 106.95V106.85L85.75 106.75L85.85 106.65L85.95 106.75L86.05 106.85H86.15H86.25L86.85 107.15V107.35V107.55H87.05H87.15V107.75L87.05 107.95V108.05L86.95 108.25H86.65L86.55 108.55V108.65L86.65 108.85L86.55 108.95V109.35V109.45V109.55V109.65H86.45H86.35L86.25 109.85L86.15 110.45H86.05L85.95 110.55L86.05 110.65L86.15 110.85V110.95V111.15H86.25V111.25H86.35H86.45H86.55V111.15H86.65H86.75V111.25H86.85H86.95L87.05 111.35H87.15H87.25H87.35H87.45H87.55H87.75L87.85 111.45H87.95H88.05L88.15 111.55L88.25 111.65H88.35H88.45H88.65H88.85H89.05L89.25 111.55H89.45L89.65 111.45H89.95L90.15 111.35L90.35 111.25H90.45H90.55H90.65H90.75L90.85 111.35L90.95 111.45H91.05H91.15H91.25L91.45 111.35V111.45L91.35 111.65L91.25 111.75L91.15 112.05V112.15V112.25L91.25 112.55H91.15H90.95V112.65V112.75H91.05V112.85H91.15L90.95 113.05L90.85 113.25H90.75V113.35L90.85 113.55V113.65L90.95 113.75V113.85H90.85V114.05L90.75 114.15L90.65 114.25V114.35L90.55 114.45V114.55V114.65L90.65 114.75V114.85V114.95H90.75V115.05V115.15V115.25L90.65 115.45V115.55H90.85V115.65L90.75 115.75V115.85H90.65L90.55 115.95H90.35V116.05H90.25H90.15V116.15H89.95H89.85V116.25H89.75L89.65 116.15V116.05L89.45 115.95L89.25 115.85L89.05 115.75L88.95 115.65L88.85 115.55V115.45L88.65 115.35L88.55 115.25L88.45 115.15L88.35 114.95H88.25L88.15 114.65H87.75L87.55 114.75H87.45H87.15V114.85H87.05H86.75L86.65 115.15V115.25H86.55H86.45V115.35H86.35L86.25 115.25H86.15H86.05L85.95 115.35H85.85H85.75H85.65H85.55V115.45H85.45H85.35V115.55L85.15 115.65H85.05L84.85 115.75V115.85H84.75H84.65H84.55V115.95H84.45L84.35 116.05H84.25L84.05 116.15H83.95H83.85H83.75L83.65 116.25H83.15H83.05H82.95L82.75 116.45L82.25 116.75L82.05 116.95L81.95 117.05V117.15H81.75L81.65 117.35L81.45 117.45V117.55H81.35V117.65L81.25 117.75L81.15 117.55L81.05 117.65V117.75L80.65 118.05H80.55L80.35 118.15L80.05 118.05H79.95H79.85L79.55 117.85H79.45L79.35 117.75H79.25L79.15 117.85L79.25 117.95L78.95 118.25L78.75 118.45L78.65 118.55V118.65L78.55 118.55H78.45L78.35 118.45V118.35H78.25H78.15L78.05 118.25H77.95V118.15H77.75H77.55H77.45L77.35 118.35H77.25V118.45L77.15 118.55V118.65L77.05 118.75L77.15 119.15V119.35L76.95 119.45H76.85H76.75H76.65V119.35H76.55H76.45L76.35 119.25L76.25 119.15V119.05V118.95L76.15 118.85L76.05 118.75V118.65H75.95V118.55V118.45H75.85L75.75 118.35L75.65 118.45H75.45H75.35L75.15 118.55H75.05H74.95H74.85H74.75L74.65 118.45H74.45L74.25 118.35H74.15L74.05 118.25L73.85 118.15V118.05H73.75L73.45 117.95H73.35L73.25 117.85L73.05 117.75V117.85H72.95V117.95L72.85 118.05H72.75V117.95H72.65H72.55H72.45H72.35H72.25H72.15H72.05H71.95L71.75 117.85L71.55 118.05L71.45 118.35L71.35 118.45L71.25 118.65L71.15 118.85L71.05 118.95V119.05H70.95V119.15L70.85 119.25L70.75 119.35V119.45L70.55 119.55H70.45L70.25 119.75L70.15 119.85L70.05 120.05L69.95 120.15L69.85 120.25H69.75L69.55 120.15H69.45V120.05L69.35 119.95V119.85H69.45V119.75V119.65V119.55H69.35V119.45V119.35H69.25V119.25H69.15L69.05 119.15V119.25L68.95 119.15H68.75L68.65 119.05H68.45L68.25 118.95H68.15L68.05 118.85H67.95V118.75L67.85 118.65L67.75 118.55H67.65H67.55L67.45 118.45H67.35H67.25L67.15 118.55V118.65H67.05V118.75L66.95 118.85H66.85V118.95L66.75 119.05L66.65 119.15V119.25H66.55L66.05 119.45H65.95L65.85 119.65L65.65 119.75L65.45 119.85H65.35V119.95L65.25 120.05V120.15H65.15V120.25H65.05L64.95 120.35L64.85 120.45L64.55 120.65V120.75H64.45L64.35 120.85L64.25 121.15V121.25L64.15 121.35L64.05 121.55L63.75 121.45L63.65 121.35L63.15 121.05H63.05L62.95 120.95H62.85L62.65 120.85L62.25 120.75H62.15L61.45 120.65L61.15 120.55H60.75H60.45L60.25 120.45H60.15H60.05V120.55H59.95V120.65H59.85V120.75H59.75H59.65H59.45H59.35H59.15L59.05 120.85L58.95 120.95H58.85H58.75V121.05L58.65 120.95H58.55V120.85L58.45 120.75V120.65L58.35 120.45L58.25 120.35L58.15 120.25L58.05 120.15L57.95 120.05H57.85V119.95H57.75V120.05H57.65L57.55 120.15L57.35 120.25L57.25 120.15L57.05 119.95L56.75 119.65H56.55H56.35V119.85V119.95V120.05V120.15V120.25L56.25 120.35H56.15L56.05 120.45H55.95V120.55L55.75 120.65L55.55 120.75V120.85V121.25L55.35 121.45L55.15 121.65L54.95 121.75V121.85H54.85H54.75L54.65 121.95L54.15 121.35V121.45H54.05V121.55L53.95 121.65L53.65 121.45H53.55V121.55L53.45 121.65V121.75H53.35H53.25L53.15 121.85V121.95V122.05L53.05 122.15L52.95 122.25V122.35L52.85 122.45V122.55V122.65H52.95V122.75L52.85 122.85V122.95H52.75V123.05V123.15L52.55 123.35V123.45H52.45L52.55 123.55V123.65H52.65L52.75 123.75H52.85V123.85H52.95V123.95H53.05V124.05V124.15H52.95L52.85 124.25L52.75 124.35V124.45L52.65 124.55L52.55 124.85V124.95V125.05V125.15V125.25H52.45V125.35H52.55V125.45V125.55V125.65V125.75V125.85L52.45 125.95V126.05H52.35H52.25V126.15V126.25V126.35V126.45V126.55H52.15L52.05 126.65L51.95 126.85V126.95H51.85V127.05L51.75 127.15L51.65 127.25H51.55L51.45 127.15H51.35V127.25L51.25 127.35V127.45H51.15H51.05H50.95L50.85 127.35L50.75 127.25V127.15H50.65V127.05V126.95V126.85L50.45 126.75H50.35V126.85L50.25 126.95V127.05H50.15L50.05 127.15H49.95L49.85 127.25H49.75H49.65V127.35V127.45V127.55V127.65H49.75V127.75V127.85V127.95V128.05V128.15H49.85L49.75 128.25L49.65 128.35L49.45 128.55L49.35 128.65L49.25 128.75V128.85H49.15L48.95 129.05H48.85V129.15H48.75H48.65H48.55V129.25L48.45 129.35L48.35 129.45L48.25 129.55V129.65L48.15 129.85L48.05 129.95V130.05H47.95V130.15L47.85 130.25H47.75V130.35H47.65V130.45L47.55 130.55L47.45 130.65V130.75H47.35L47.25 130.85L47.15 130.95L47.05 131.05H46.95V131.15H46.85V131.25V131.35L46.95 131.45V131.55V131.65H47.05L47.15 131.75L47.35 131.85H47.45V131.95H47.55V132.05V132.15V132.25V132.35L47.65 132.45H47.75L47.85 132.55V132.65V132.85V133.05L47.75 133.25V133.35V133.45L47.65 133.55L47.55 133.75V133.85L47.45 134.05L47.35 134.25L47.25 134.45V134.55L47.05 134.85L46.95 135.35V135.45L46.85 135.55V135.65L46.75 135.75V135.85V136.05V136.15V136.25H46.85V136.35L46.95 136.55L47.05 136.75L47.15 136.85V136.95L47.25 137.05V137.15V137.25L47.15 137.35H47.25V137.45V137.55L47.35 137.75L47.45 137.85V137.95H47.55H47.65V138.05L47.95 138.15V138.25H48.05H48.15H48.25L48.35 138.15H48.45H48.65L48.85 138.25H48.95V138.35V138.45V138.55V138.65V138.85V138.95H48.55L48.45 139.05H48.35L48.25 139.15H48.15L47.95 139.05H47.85H47.75H47.65V139.15V139.25H47.55L47.45 139.35V139.45H47.35V139.55V139.65L47.25 139.85L47.15 140.05V140.25V140.35H47.05V140.45L47.15 140.65L47.25 140.95H47.35V141.05H47.25L47.15 141.15H47.05V141.25H46.95V141.35L47.05 141.45V141.55V141.65L46.95 141.95H46.85V142.05V142.25V142.35H46.75L46.55 142.55L46.35 142.65L46.15 142.85L46.35 142.95V143.05L46.45 143.15V143.25V143.45L46.55 143.55L46.65 143.65V143.75H46.75V143.85V143.95H46.85L46.95 144.05L47.05 144.15V144.25H47.15L47.05 144.35V144.45V144.55V144.65V144.75V144.85L47.15 145.05V145.15H47.25V145.25V145.35V145.45H47.35V145.55H47.45L47.55 145.65V145.75L47.45 145.85V145.95L47.35 146.05H47.45V146.15V146.25H47.35V146.35H47.25V146.45H47.15V146.55H47.05V146.65V146.75H46.95V146.85V146.95L46.85 147.05V147.15H46.75V147.25H46.65V147.35V147.45V147.55V147.65L46.55 147.75V147.85H46.45V147.95V148.05V148.15H46.35V148.25V148.35V148.45V148.55V148.65V148.75L46.25 148.85V148.95L46.15 149.05V149.15H46.05H45.95V149.05H45.85V149.15V149.25H45.95H46.05V149.35V149.45V149.55V149.65V149.75V149.85V149.95H45.95V150.05V150.15V150.25H45.85V150.35H45.75H45.65V150.45H45.55V150.35H45.45L45.35 150.25H45.25H45.15H45.05V150.15H44.95H44.85V150.05H44.75V149.95H44.65H44.55V149.85H44.45L44.35 149.75V149.65H44.25V149.55H44.15H44.05V149.65H43.95V149.75H43.85L43.75 149.85H43.65V149.95V150.05H43.55V150.15H43.45H43.35V150.25L43.25 150.35L43.15 150.45H43.05L42.95 150.55H42.85H42.75H42.65H42.55H42.45L42.35 150.65H42.25V150.75H42.15V150.85L42.05 150.75H41.95V150.65V150.55V150.45L41.85 150.35H41.75H41.65H41.55H41.45H41.35V150.25H41.25H41.15H41.05H40.95H40.85H40.75H40.65H40.55H40.45H40.35H40.25V150.15H40.15H40.05H39.95V150.05H39.85V149.95H39.75H39.65L39.55 149.85H39.45V149.75H39.35H39.25V149.65H39.15V149.55H39.05V149.45H38.95V149.55H38.85L38.75 149.65H38.65H38.55H38.45H38.35H38.25V149.55V149.45H38.15V149.35V149.25H38.05V149.15H37.95L37.85 149.05H37.75H37.65H37.55V148.95H37.45V148.85H37.35V148.75V148.65L37.25 148.55V148.45V148.35L37.35 148.25V148.15H37.25V148.05V147.95V147.85V147.65H37.15V147.55V147.45H37.05V147.35L36.95 147.25V147.15L36.85 147.05H36.75V146.95L36.65 146.85L36.55 146.75V146.65H36.45V146.75V146.85V146.95H36.35V147.05H36.25V147.15V147.25V147.35H36.15L36.05 147.45H35.95L35.85 147.55H35.75V147.65H35.65V147.75H35.55V147.85H35.45L35.35 147.95H35.25H35.15V148.05H35.05H34.95H34.85L34.75 148.15H34.65H34.55H34.45H34.35V148.05V147.95V147.85H34.25V147.75L34.15 147.65L34.05 147.55H33.95H33.85V147.45L33.65 147.35V147.25L33.55 147.15H33.45H33.35H33.25V147.05L33.15 146.85V146.75H33.05V146.65L32.95 146.55H32.85L32.75 146.45H32.65H32.55L32.45 146.55V146.75V146.85V146.95V147.05L32.35 147.15H32.25H32.15H32.05V147.25H31.95V147.35V147.45H31.85H31.75L31.65 147.55H31.55H31.45H31.35H31.25V147.45H31.15H31.05H30.95V147.55H30.85V147.65H30.75H30.65H30.55V147.75H30.45L30.35 147.65H30.25H30.15V147.55H30.05H29.95L29.85 147.45L29.75 147.35H29.65H29.55V147.45H29.45L29.25 147.55H29.15H28.95H28.85H28.75H28.65L28.55 147.65V147.55H28.45V147.45H28.35V147.35V147.25V147.15L28.25 147.05V146.95H28.15V146.85V146.75L28.05 146.65V146.55V146.45V146.35V146.25L27.95 146.15V146.05V145.95H27.85V145.85L27.75 145.75L27.65 145.65L27.55 145.55V145.45L27.45 145.35V145.25H27.35V145.15V145.05V144.95V144.85V144.75V144.65V144.55V144.45V144.35L27.25 144.25V144.15H27.35V144.05H27.25L27.15 143.95H27.05H26.95V143.85V143.75V143.65V143.55L26.85 143.45V143.35V143.25H26.75L26.65 143.15V143.05L26.55 142.95V142.85H26.45V142.75V142.65H26.35V142.55L26.25 142.45L26.15 142.35H26.05V142.25V142.15L25.95 142.05H25.85L25.75 141.95H25.65H25.55H25.45H25.05L24.95 141.55V141.45L25.05 141.35V141.25L25.15 141.15H25.25L25.15 141.05V140.95L25.05 140.75L24.95 140.55H24.85L24.75 140.65H24.65H24.55V140.55V140.45L24.45 140.35H24.35H24.25H24.15V140.25H24.05V140.15H23.95H23.75H23.65V140.05H23.55L23.45 139.85L23.35 139.75H23.25H23.15H23.05V139.85H22.95H22.85H22.75V139.95H22.65V140.05V140.15V140.25V140.35H22.55H22.45H22.35L22.25 140.45H22.15H22.05V140.35H21.95H21.85L21.75 140.45H21.65V140.55H21.55V140.65H21.45V140.75H21.35V140.85L21.25 140.95H21.15V140.85H21.05V140.75H20.95V140.65H20.85H20.75H20.65H20.55H20.45H20.35V140.75H20.25L20.15 140.85H20.05L19.95 140.95H19.85L19.75 141.05L19.65 140.95H19.55H19.45H19.35L19.25 141.05L19.15 141.15L19.05 141.25L18.95 141.35V141.45V141.65L18.85 141.75L18.65 141.95V142.05H18.55L18.45 142.15V142.25H18.35V142.15H18.25L18.15 142.05L18.05 141.95L17.95 141.85H17.85H17.75L17.65 141.75L17.55 141.65L17.45 141.55H17.35V141.45L17.25 141.35V141.25H17.15V141.15H17.05V141.05V140.95H16.95V140.85V140.75V140.65V140.55V140.45V140.35V140.25V140.15V140.05V139.95H16.85V139.85V139.75V139.65V139.55V139.45V139.35V139.25V139.15H16.75V139.05H16.85V138.95V138.85H16.75V138.75H16.65L16.55 138.65H16.45V138.55L16.25 138.65V138.55H16.15H16.05L15.95 138.45H15.85V138.35H15.75L15.65 138.25H15.55H15.45L15.35 138.15H15.25V138.05H15.15V137.95H15.05H14.95V137.85H14.85H14.75V137.75V137.65H14.65V137.55H14.55L14.45 137.45H14.35V137.35H14.25V137.25H14.15H14.05V137.15H13.95V137.05H13.85V136.95H13.75V136.85H13.65H13.55V136.75H13.45L13.35 136.65H13.25V136.55H13.15V136.45H13.05V136.35L12.95 136.25V136.15L12.85 136.05V135.95V135.85V135.75V135.65H12.75V135.45V135.35L12.65 135.25V135.15V135.05L12.55 134.95V134.85H12.45V134.75H12.35V134.65V134.55H12.25V134.45H12.15V134.35V134.25V134.15V134.05H12.05V133.95V133.85H11.95V133.75V133.65L11.85 133.55V133.45V133.35H11.95V133.25V133.15V133.05V132.95V132.85V132.75V132.65V132.55V132.45H12.05L12.15 132.35L12.25 132.25H12.35H12.45V132.15H12.55V132.05H12.65H12.75V131.95H12.85H12.95V131.85H13.05L13.15 131.75V131.65H13.25V131.55H13.35L13.45 131.75H13.55V131.85H13.65H13.75H13.85H13.95V131.75H14.05H14.15V131.65L14.25 131.55V131.45V131.35H14.15V131.25V131.15L14.05 131.05V130.95H14.15V130.85V130.75L14.25 130.65V130.55H14.15V130.45L14.05 130.35V130.25V130.15V130.05H13.95V129.95L13.85 129.85V129.75H13.75V129.65H13.65V129.55L13.55 129.45V129.35H13.45L13.35 129.15V129.05H13.25V128.95V128.85H13.15H13.05L12.95 128.95H12.85H12.75H12.65V129.05H12.55L12.45 129.15H12.35V129.25H12.25H12.15V129.15H12.05H11.95L11.85 129.05L11.75 128.95V128.85L11.85 128.95H11.95H12.05V128.85H12.15L12.25 128.75H12.35V128.65H12.45H12.55H12.65H12.75H12.85V128.55V128.45V128.35H12.75V128.25V128.15V128.05H12.85V127.95H12.95V127.85V127.75H12.85H12.75V127.65H12.65V127.75H12.55V127.65H12.65L12.55 127.55H12.45V127.45H12.35V127.35H12.25V127.25V127.15H12.15V127.05V126.95H12.05V126.85H11.95V126.75V126.65L12.05 126.55H12.15V126.45L12.25 126.35H12.35V126.25H12.25V126.15H12.15H12.05V126.25V126.35H11.95V126.25H11.85H11.75V126.15H11.65V126.05V125.95H11.75V125.85V125.75H11.85V125.65H11.75V125.55H11.85H11.95V125.45V125.35H12.05V125.25H11.95V125.15H12.05L11.95 125.05H12.05V124.95H11.95H11.85V124.85V124.75L11.75 124.85V124.75H11.85V124.65H11.75H11.65V124.75H11.75V124.85H11.65V124.75V124.65H11.55V124.55H11.65V124.45V124.35V124.25V124.15H11.55V124.05V123.95V123.85H11.65V123.75H11.75H11.85V123.65V123.55H11.75H11.65V123.45V123.35V123.25H11.75V123.15H11.85H11.95H12.05V123.05H12.15H12.25H12.35L12.45 122.95V122.85V122.75H12.35V122.65H12.45H12.55V122.55V122.45H12.65V122.35V122.25H12.75V122.15L12.85 122.05V121.95V121.85V121.75H12.75H12.65H12.55V121.65H12.45H12.35V121.75H12.25V121.65H12.15V121.75H12.05H11.95V121.65H11.85V121.55H11.75V121.65H11.65V121.55V121.45H11.55H11.45H11.35V121.35H11.25V121.25H11.15H11.05V121.15V121.05V120.95L11.15 120.85V120.75L11.25 120.65V120.55H11.15V120.65H11.05H10.95V120.55H10.85V120.45V120.35H10.75V120.45H10.65V120.55H10.55V120.65H10.45V120.75H10.35H10.25H10.15V120.65H10.05L10.15 120.55H10.05V120.65H9.95H9.85H9.75V120.55V120.45V120.35V120.25V120.15V120.05H9.65V119.95H9.55H9.45V119.85L9.35 119.75H9.25V119.65V119.55H9.15L9.05 119.65V119.75H8.95V119.65H8.85V119.55V119.45H8.95H9.05V119.35V119.25V119.15H8.95H8.85V119.25H8.75H8.65V119.15H8.55V119.05H8.65V118.95H8.55H8.45H8.35H8.25V118.85V118.75H8.15V118.65H8.05H7.95V118.55H7.85V118.45V118.35V118.25H7.95V118.15H7.85V118.05V117.95V117.85H7.75V117.75H7.65V117.65H7.75V117.55V117.45H7.85V117.35V117.25V117.15H7.75V117.05H7.65H7.55H7.45V117.15H7.35V117.25H7.25H7.15L7.05 117.35V117.45H6.95H6.85V117.35H6.95V117.25H6.85H6.75V117.35H6.65H6.55H6.45H6.35V117.45H6.25H6.15H6.05V117.35H5.95L5.85 117.45H5.75V117.35H5.65V117.25V117.15H5.55H5.45V117.05H5.35H5.25H5.15V116.95V116.85V116.75H5.25V116.65V116.55L5.35 116.45V116.35V116.25V116.15H5.45V116.05H5.55V115.95H5.65V115.85V115.75V115.65H5.75V115.55V115.45H5.85H5.95V115.35H6.05V115.25V115.15H5.95V115.25H5.85H5.75V115.15V115.05H5.65H5.55H5.45V115.15H5.35L5.25 115.05H5.15V115.15H5.05H4.95H4.85V115.25V115.35V115.45V115.55H4.75V115.65V115.75H4.65H4.55H4.45V115.85V115.95V116.05V116.15V116.25L4.35 116.35L4.25 116.45L4.15 116.55H4.05V116.45H3.95V116.35V116.25V116.15V116.05H3.85L3.75 115.95H3.65V115.85H3.55V115.75V115.65V115.55L3.65 115.45V115.35V115.25H3.75H3.85V115.15H3.95L4.05 115.05V114.95V114.85H4.15V114.75H4.25V114.65H4.15V114.55V114.45H4.25V114.35H4.35V114.25V114.15V114.05H4.45H4.55H4.65L4.75 113.95V113.85H4.65V113.75V113.65V113.55V113.45H4.75V113.35H4.85H4.95V113.25V113.15H4.85V113.05V112.95H4.95V112.85H5.05V112.95H5.15H5.25V112.85H5.35V112.75H5.45V112.65H5.55H5.65V112.55H5.55V112.45H5.45H5.35V112.35H5.25H5.15H5.05H4.95L4.85 112.25H4.75V112.15H4.65H4.55V112.25H4.45L4.35 112.15H4.25H4.15V112.05L4.05 111.85L3.95 111.75V111.45L4.05 111.25V111.05L4.15 110.75L4.25 110.65L4.35 110.55L4.65 110.45L4.85 110.35L5.05 110.25L5.15 110.15L5.25 110.05V109.85V109.65V109.55V109.45V109.35V109.15V109.05V108.95V108.75V108.55V108.35V108.15V107.95L5.35 107.75V107.45V107.35V107.05V106.85V106.55L5.45 106.35V106.15V105.95L5.55 105.65L5.65 105.45V105.25L5.75 104.85V104.75V104.55L5.65 104.25L5.55 104.05V103.95L5.45 103.65V103.55L5.35 103.35V103.25V103.15L5.45 102.85V102.55V102.25L5.55 102.05V101.65V101.45L5.45 100.85V100.65L5.35 100.55V100.25L5.25 99.95L5.15 99.65L5.05 99.45V99.15L4.95 98.75L4.85 98.55V98.35L4.75 98.25L4.65 97.95L4.55 97.75L4.45 97.55V97.45L4.35 97.25V96.95L4.25 96.85L4.15 96.55V96.45L4.05 96.15V95.95L3.95 95.85V95.65L3.85 95.45V95.35L3.75 95.15V94.85L3.65 94.55V94.25L3.55 93.95V93.65L3.45 93.35V93.15V92.95L3.35 92.55V92.35L3.25 92.25V92.15V91.95V91.75V91.55V91.45L3.05 91.15V90.95H2.85L2.35 90.85H2.05L1.75 90.75H1.65L1.55 90.65L1.45 90.55L1.35 90.45L1.25 90.35L1.15 90.25L0.849998 90.05V89.95H0.75L0.650002 89.65V89.45L0.549995 89.35L0.449997 88.95V88.85V88.75L0.349998 88.55L0.25 88.45V88.35V88.25L0.349998 88.15H0.449997L0.549995 88.05L0.75 87.95L0.949997 87.85L1.15 87.65H1.25L1.35 87.55L1.45 87.45L1.55 87.25L1.65 87.05L1.75 86.95L1.95 86.75V86.65V86.55L2.05 86.45V86.35V86.15L2.15 85.85V85.75L2.25 85.55L2.35 85.35L2.45 85.15V85.05L2.55 84.85L2.75 84.45L2.95 84.15L3.05 84.05L3.15 83.95L3.25 83.85L3.55 83.35L3.95 82.85L4.05 82.75L4.15 82.65L4.35 82.25V82.15H4.45L4.65 81.85L5.05 81.35L5.15 81.15L5.65 80.45L5.75 80.35L5.95 80.15L6.05 80.05L6.15 79.95L6.25 79.75L6.35 79.65L6.45 79.45L6.65 79.25L7.35 78.45L7.45 78.35V78.15V77.95V77.75V77.65V77.55L7.55 77.45V77.25V76.95L7.65 76.85L7.95 76.35L8.05 76.25L8.45 75.55H8.55H8.65L9.05 75.45H9.35L9.45 75.35L9.55 75.25L9.85 74.95L10.15 74.65L10.35 74.55L10.55 74.35L10.65 74.25V74.15L10.75 73.85L10.85 73.65V73.45L11.05 73.15L11.15 73.05L11.25 72.85V72.75L11.45 72.55L11.55 72.35L11.85 71.95L11.95 71.85L12.05 71.75H12.15L12.25 71.65H12.35L12.55 71.55L12.65 71.35L12.75 71.25L12.95 71.15L13.05 70.95H13.15V70.85V70.75V70.35V70.05L13.25 69.95V69.85H13.35V69.75V69.65H13.45L13.55 69.45H13.65L13.75 69.35V69.25H13.85V69.15L13.95 69.05V68.95H14.05L14.15 68.75L14.35 68.45L14.45 68.35L14.55 68.25L14.75 68.05L14.95 67.75L15.05 67.65L15.25 67.55H15.35L15.45 67.45L15.55 67.35L15.65 67.25H15.75L15.85 67.05L16.05 66.95H16.15L16.35 66.85H16.45L16.35 66.75V66.65L16.15 66.35L16.25 66.05L16.35 65.75L16.45 65.45L16.55 65.25V65.05L16.65 64.85L16.75 64.65V64.55L16.85 64.35V64.25V64.15H17.25L17.55 64.05L17.85 63.95H17.95H18.05H18.15L18.25 63.65L18.45 63.45V63.25L18.65 63.05L18.75 62.85L18.85 62.65L18.95 62.55L19.05 62.25L19.25 62.05L19.35 61.95L19.45 61.75L19.55 61.55L19.65 61.35L19.75 61.25L19.95 60.95L20.05 60.85V60.75L20.15 60.65L20.35 60.45L20.55 60.25L20.65 60.05L20.75 59.85L20.95 59.65L21.05 59.55L21.15 59.45L21.25 59.25L21.35 59.05L21.45 58.95L21.55 58.85V58.75L21.65 58.65L21.85 58.55L22.05 58.25L22.25 58.05L22.35 57.95L22.55 57.65H22.65L22.85 57.45L22.95 57.35L23.05 57.15L23.15 57.05V56.95L23.35 56.75L23.45 56.55L23.55 56.35L23.65 56.25L23.75 56.15V56.05L23.85 55.85L23.95 55.65L24.05 55.35V55.25V55.15L24.15 54.95L24.65 54.55L24.95 54.25L25.05 54.15L25.25 54.05L25.45 53.95L25.55 53.85L25.75 53.55L26.15 53.05L26.35 52.65L26.65 52.35L26.95 51.95L27.15 51.65L27.25 51.45L27.65 51.05L27.75 50.95L27.95 50.75L28.05 50.55L28.15 50.35L28.25 50.25L28.35 50.05L28.55 49.85L28.65 49.65L28.95 49.25L29.05 49.15V49.05L29.15 48.55V48.25L29.25 47.85L29.35 47.75L29.75 47.55L30.05 47.45L30.25 47.35L30.65 46.85L30.75 46.75L30.95 46.45L31.05 46.25L31.25 46.05L31.45 45.75L31.55 45.55L31.65 45.35L31.75 45.25L31.95 45.15L32.15 44.95L32.35 44.85L32.45 44.75V44.65V44.45V44.25V44.05V43.85V43.75V43.65L32.55 43.75H32.65H32.75L32.85 43.65L33.25 43.55L33.35 43.45V43.25V43.15L33.65 42.95L33.85 42.85H33.95L34.15 42.75L34.25 42.65L34.35 42.55L34.55 42.35L34.65 42.25L34.85 41.95L34.95 41.75L35.15 41.55L35.45 41.25L35.55 41.05L35.85 40.85V40.75L35.95 40.65L36.15 40.55L36.45 40.15L36.55 40.05L36.65 39.85L36.75 39.75L36.85 39.65L36.95 39.55L37.35 39.25L37.45 39.05H37.55L37.65 38.95L37.95 38.75L38.25 38.45L38.35 38.35L38.65 38.15L38.75 38.05L40.35 36.35L40.95 35.85L41.05 35.75L41.15 35.55L41.25 35.45L41.75 34.75L42.05 34.45L42.15 34.35L42.45 34.25L42.75 34.05L42.95 33.95L43.05 33.85H43.15L43.45 33.65L43.55 33.55L43.85 33.45H43.95V33.35L44.05 33.25L44.25 33.15L44.35 33.05V32.95L44.65 32.75H44.75V32.65L44.95 32.55L45.05 32.45L45.15 32.35L45.45 32.15L45.85 31.75H46.05L46.25 31.55L46.35 31.45L46.45 31.35H46.55L47.05 30.95H47.15L47.95 30.05L48.05 29.95L48.35 29.35H48.45V29.15L48.75 28.75L48.85 28.65V28.55V28.45L48.95 28.35L49.05 28.15L49.15 27.95H49.25L49.35 27.85H49.55L49.75 27.75L50.15 27.55L50.25 27.35V27.25L50.35 26.85L50.45 26.55L50.55 26.35L50.65 26.25L51.05 26.15L51.45 25.95L51.85 25.85L52.05 25.75L52.35 25.65H52.45L52.55 25.55L52.85 25.45H52.95V25.35V25.25L53.05 24.95V24.65L53.15 24.55V24.35V24.25V23.95V23.75V23.65L53.25 23.55V23.35L53.35 23.25V23.05V22.95L53.45 22.75V22.65H53.55L53.65 22.35V22.25L53.75 22.15L53.85 21.95L53.95 21.85L54.05 21.75V21.65L54.35 21.45H54.45L54.55 21.35L56.05 20.85L65.15 20.75L67.85 19.65L68.05 19.05H68.25H68.55H68.65V18.95L68.75 18.75V18.55L68.85 18.25V18.05L68.95 17.85V17.65L69.05 17.55V17.25L69.15 17.15L69.35 17.05H69.45L69.55 16.95L69.75 16.85H69.85L70.05 16.75L70.25 16.65L70.35 16.55L70.55 16.45V16.25L70.65 15.95V15.65L70.75 15.55L70.85 15.35L70.95 15.25V15.15L71.05 14.95V14.85V14.75H71.15V14.65V14.55L71.35 14.25V14.05L71.55 13.75V13.55L71.65 13.45L71.75 13.25L71.85 12.95V12.85L71.95 12.65L72.05 12.55V12.45L72.15 12.35V12.15L72.25 12.05V11.95V11.85H72.35V11.75V11.55V11.35L72.45 11.25V11.15V11.05L72.55 10.95L73.55 9.95L74.15 9.05L74.25 8.84999L73.95 8.64999L73.55 7.55L73.35 5.84999V5.75L73.45 5.55L73.55 5.14999V5.05V4.84999L73.65 4.75V4.55V4.45L73.75 4.25V4.14999V4.05V3.95V3.84999V3.75V3.64999V3.55V3.45L73.65 3.34999V3.25L73.55 3.05L74.25 1.75L74.05 1.45Z" fill="#220F0F"/>
<path d="M76.45 0.75H76.35V0.649994V0.550003V0.449997V0.349991L76.25 0.449997H76.15V0.550003V0.649994V0.75H76.05H75.95V0.649994H75.85V0.550003V0.449997H75.75V0.550003V0.649994V0.75H75.65V0.649994V0.550003H75.55H75.45H75.35V0.449997V0.349991H75.25V0.25H75.15H75.05V0.349991L74.95 0.449997H74.85V0.349991H74.75H74.65V0.449997V0.550003H74.75H74.85V0.649994H74.95V0.75H74.85H74.75H74.65L74.55 0.849991H74.65V0.949997H74.55L74.45 1.05V1.14999H74.35V1.25H74.25V1.34999H74.15V1.45H74.05L74.25 1.75L73.55 3.05L73.65 3.25V3.34999L73.75 3.45V3.55V3.64999V3.75V3.84999V3.95V4.05V4.14999V4.25L73.65 4.45V4.55V4.75L73.55 4.84999V5.05V5.14999L73.45 5.55L73.35 5.75V5.84999L73.55 7.55L73.95 8.64999L74.25 8.84999L74.15 9.05L73.55 9.95L72.55 10.95L72.45 11.05V11.15V11.25L72.35 11.35V11.55V11.75V11.85H72.25V11.95V12.05L72.15 12.15V12.35L72.05 12.45V12.55L71.95 12.65L71.85 12.85V12.95L71.75 13.25L71.65 13.45L71.55 13.55V13.75L71.35 14.05V14.25L71.15 14.55V14.65V14.75H71.05V14.85V14.95L70.95 15.15V15.25L70.85 15.35L70.75 15.55L70.65 15.65V15.95L70.55 16.25V16.45L70.35 16.55L70.25 16.65L70.05 16.75L69.85 16.85H69.75L69.55 16.95L69.45 17.05H69.35L69.15 17.15L69.05 17.25V17.55L68.95 17.65V17.85L68.85 18.05V18.25L68.75 18.55V18.75L68.65 18.95V19.05H68.55H68.25H68.05L67.85 19.65L65.15 20.75L56.05 20.85L54.55 21.35L54.45 21.45H54.35L54.05 21.65V21.75L53.95 21.85L53.85 21.95L53.75 22.15L53.65 22.25V22.35L53.55 22.65H53.45V22.75L53.35 22.95V23.05V23.25L53.25 23.35V23.55L53.15 23.65V23.75V23.95V24.25V24.35V24.55L53.05 24.65V24.95L52.95 25.25V25.35V25.45H52.85L52.55 25.55L52.45 25.65H52.35L52.05 25.75L51.85 25.85L51.45 25.95L51.05 26.15L50.65 26.25L50.55 26.35L50.45 26.55L50.35 26.85L50.25 27.25V27.35L50.15 27.55L49.75 27.75L49.55 27.85H49.35L49.25 27.95H49.15L49.05 28.15L48.95 28.35L48.85 28.45V28.55V28.65L48.75 28.75L48.45 29.15V29.35H48.35L48.05 29.95L47.95 30.05L47.15 30.95H47.05L46.55 31.35H46.45L46.35 31.45L46.25 31.55L46.05 31.75H45.85L45.45 32.15L45.15 32.35L45.05 32.45L44.95 32.55L44.75 32.65V32.75H44.65L44.35 32.95V33.05L44.25 33.15L44.05 33.25L43.95 33.35V33.45H43.85L43.55 33.55L43.45 33.65L43.15 33.85H43.05L42.95 33.95L42.75 34.05L42.45 34.25L42.15 34.35L42.05 34.45L41.75 34.75L41.25 35.45L41.15 35.55L41.05 35.75L40.95 35.85L40.35 36.35L38.75 38.05L38.65 38.15L38.35 38.35L38.25 38.45L37.95 38.75L37.65 38.95L37.55 39.05H37.45L37.35 39.25L36.95 39.55L36.85 39.65L36.75 39.75L36.65 39.85L36.55 40.05L36.45 40.15L36.15 40.55L35.95 40.65L35.85 40.75V40.85L35.55 41.05L35.45 41.25L35.15 41.55L34.95 41.75L34.85 41.95L34.65 42.25L34.55 42.35L34.35 42.55L34.25 42.65L34.15 42.75L33.95 42.85H33.85L33.65 42.95L33.35 43.15V43.25V43.45L33.25 43.55L32.85 43.65L32.75 43.75H32.65H32.55L32.45 43.65V43.75V43.85V44.05V44.25V44.45V44.65V44.75L32.35 44.85L32.15 44.95L31.95 45.15L31.75 45.25L31.65 45.35L31.55 45.55L31.45 45.75L31.25 46.05L31.05 46.25L30.95 46.45L30.75 46.75L30.65 46.85L30.25 47.35L30.05 47.45L29.75 47.55L29.35 47.75L29.25 47.85L29.15 48.25V48.55L29.05 49.05V49.15L28.95 49.25L28.65 49.65L28.55 49.85L28.35 50.05L28.25 50.25L28.15 50.35L28.05 50.55L27.95 50.75L27.75 50.95L27.65 51.05L27.25 51.45L27.15 51.65L26.95 51.95L26.65 52.35L26.35 52.65L26.15 53.05L25.75 53.55L25.55 53.85L25.45 53.95L25.25 54.05L25.05 54.15L24.95 54.25L24.65 54.55L24.15 54.95L24.05 55.15V55.25V55.35L23.95 55.65L23.85 55.85L23.75 56.05V56.15L23.65 56.25L23.55 56.35L23.45 56.55L23.35 56.75L23.15 56.95V57.05L23.05 57.15L22.95 57.35L22.85 57.45L22.65 57.65H22.55L22.35 57.95L22.25 58.05L22.05 58.25L21.85 58.55L21.65 58.65L21.55 58.75V58.85L21.45 58.95L21.35 59.05L21.25 59.25L21.15 59.45L21.05 59.55L20.95 59.65L20.75 59.85L20.65 60.05L20.55 60.25L20.35 60.45L20.15 60.65L20.05 60.75V60.85L19.95 60.95L19.75 61.25L19.65 61.35L19.55 61.55L19.45 61.75L19.35 61.95L19.25 62.05L19.05 62.25L18.95 62.55L18.85 62.65L18.75 62.85L18.65 63.05L18.45 63.25V63.45L18.25 63.65L18.15 63.95H18.05H17.95H17.85L17.55 64.05L17.25 64.15H16.85V64.25V64.35L16.75 64.55V64.65L16.65 64.85L16.55 65.05V65.25L16.45 65.45L16.35 65.75L16.25 66.05L16.15 66.35L16.35 66.65V66.75L16.45 66.85H16.35L16.15 66.95H16.05L15.85 67.05L15.75 67.25H15.65L15.55 67.35L15.45 67.45L15.35 67.55H15.25L15.05 67.65L14.95 67.75L14.75 68.05L14.55 68.25L14.45 68.35L14.35 68.45L14.15 68.75L14.05 68.95H13.95V69.05L13.85 69.15V69.25H13.75V69.35L13.65 69.45H13.55L13.45 69.65H13.35V69.75V69.85H13.25V69.95L13.15 70.05V70.35V70.75V70.85V70.95H13.05L12.95 71.15L12.75 71.25L12.65 71.35L12.55 71.55L12.35 71.65H12.25L12.15 71.75H12.05L11.95 71.85L11.85 71.95L11.55 72.35L11.45 72.55L11.25 72.75V72.85L11.15 73.05L11.05 73.15L10.85 73.45V73.65L10.75 73.85L10.65 74.15V74.25L10.55 74.35L10.35 74.55L10.15 74.65L9.85 74.95L9.55 75.25L9.45 75.35L9.35 75.45H9.05L8.65 75.55H8.55H8.45L8.05 76.25L7.95 76.35L7.65 76.85L7.55 76.95V77.25V77.45L7.45 77.55V77.65V77.75V77.95V78.15V78.35L7.35 78.45L6.65 79.25L6.45 79.45L6.35 79.65L6.25 79.75L6.15 79.95L6.05 80.05L5.95 80.15L5.75 80.35L5.65 80.45L5.15 81.15L5.05 81.35L4.65 81.85L4.45 82.15H4.35V82.25L4.15 82.65L4.05 82.75L3.95 82.85L3.55 83.35L3.25 83.85L3.15 83.95L3.05 84.05L2.95 84.15L2.75 84.45L2.55 84.85L2.45 85.05V85.15L2.35 85.35L2.25 85.55L2.15 85.75V85.85L2.05 86.15V86.35V86.45L1.95 86.55V86.65V86.75L1.75 86.95L1.65 87.05L1.55 87.25L1.45 87.45L1.35 87.55L1.25 87.65H1.15L0.949997 87.85L0.75 87.95L0.549995 88.05L0.449997 88.15H0.349998L0.25 88.25V88.35V88.45L0.349998 88.55L0.449997 88.75V88.85V88.95L0.549995 89.35L0.650002 89.45V89.65L0.75 89.95H0.849998V90.05L1.15 90.25L1.25 90.35L1.35 90.45L1.45 90.55L1.55 90.65L1.65 90.75H1.75L2.05 90.85H2.35L2.85 90.95H3.05V91.15L3.25 91.45V91.55V91.75V91.95V92.15V92.25L3.35 92.35V92.55L3.45 92.95V93.15V93.35L3.55 93.65V93.95L3.65 94.25V94.55L3.75 94.85V95.15L3.85 95.35V95.45L3.95 95.65V95.85L4.05 95.95V96.15L4.15 96.45V96.55L4.25 96.85L4.35 96.95V97.25L4.45 97.45V97.55L4.55 97.75L4.65 97.95L4.75 98.25L4.85 98.35V98.55L4.95 98.75L5.05 99.15V99.45L5.15 99.65L5.25 99.95L5.35 100.25V100.55L5.45 100.65V100.85L5.55 101.45V101.65V102.05L5.45 102.25V102.55V102.85L5.35 103.15V103.25V103.35L5.45 103.55V103.65L5.55 103.95V104.05L5.65 104.25L5.75 104.55V104.75V104.85L5.65 105.25V105.45L5.55 105.65L5.45 105.95V106.15V106.35L5.35 106.55V106.85V107.05V107.35V107.45V107.75L5.25 107.95V108.15V108.35V108.55V108.75V108.95V109.05V109.15V109.35V109.45V109.55V109.65V109.85V110.05L5.15 110.15L5.05 110.25L4.85 110.35L4.65 110.45L4.35 110.55L4.25 110.65L4.15 110.75L4.05 111.05V111.25L3.95 111.45V111.75L4.05 111.85L4.15 112.05V112.15H4.25H4.35L4.45 112.25H4.55V112.15H4.65H4.75V112.25H4.85L4.95 112.35H5.05H5.15H5.25H5.35V112.45H5.45M76.45 0.75V0.649994M76.45 0.75H76.55H76.65V0.849991V0.949997L76.75 1.05V0.949997V0.849991V0.75H76.85V0.849991V0.949997V1.05H76.95V1.14999H77.05H77.15V1.25H77.25V1.34999V1.45H77.35V1.34999H77.45V1.45V1.55H77.55V1.64999L77.45 1.75H77.35M76.45 0.649994V0.550003H76.55M76.45 0.649994H76.55V0.550003M76.55 0.550003V0.449997H76.65V0.550003H76.55ZM77.35 1.75L77.25 1.64999H77.15H77.05V1.75H77.15H77.25H77.35ZM77.35 1.75V1.84999H77.45V1.95H77.35V2.05H77.45L77.55 2.14999M77.55 2.14999V2.25M77.55 2.14999H77.45L77.35 2.25V2.34999L77.55 2.25M77.55 2.25H77.65V2.34999H77.55V2.45H77.65V2.55V2.64999M77.65 2.64999H77.55M77.65 2.64999V2.75V2.84999H77.55V2.75V2.64999M77.65 2.64999H77.75H77.85V2.75H77.95V2.84999H78.05V2.75V2.64999H78.15V2.75V2.84999V2.95H78.25V3.05L78.35 2.95V2.84999V2.75H78.45V2.84999H78.55V2.95L78.65 3.05V3.14999H78.75V3.05H78.85H78.95V3.14999H79.05V3.25V3.34999V3.45H78.95H78.85V3.55H78.95H79.05H79.15V3.64999H79.05V3.75V3.84999H79.15H79.25V3.95M77.55 2.64999V2.55M79.25 3.95H79.15V4.05H79.25V3.95ZM79.25 3.95H79.35V4.05V4.14999H79.45V4.25H79.35V4.34999H79.45H79.55V4.45V4.55H79.45V4.64999V4.75V4.84999H79.55H79.65H79.75V4.75V4.64999H79.85H79.95V4.75H80.05H80.15V4.84999H80.05H79.95V4.95V5.05H80.05L80.15 5.14999H80.25V5.25H80.35V5.34999V5.45H80.45H80.55V5.34999H80.65V5.45H80.75V5.55H80.85H80.95L81.05 5.64999H81.15H81.25H81.35H81.45H81.55H81.65V5.75H81.75H81.85H81.95L82.05 5.64999H82.15L82.25 5.75H82.35L82.45 5.84999H82.55H82.65V5.95H82.75H82.85L82.95 6.05H83.05H83.15H83.25L83.35 6.14999H83.45L83.55 6.25H83.65L83.75 6.14999H83.85H83.95H84.05L84.25 6.25H84.35H84.45V6.34999H84.55M84.55 6.34999V6.45M84.55 6.34999H84.65H84.75V6.25H84.85V6.14999V6.05V5.95V5.84999V5.75V5.64999V5.55L84.95 5.45L85.05 5.25V5.14999L85.25 4.75L85.15 4.34999V4.25H85.05L85.15 4.14999H85.35L85.55 4.25H85.65H85.75H85.85H86.15H86.25H86.35H86.45H86.55H86.65L86.75 4.34999H86.85H86.95V4.45H87.05V4.34999V4.25H87.15L87.35 4.05H87.55V3.95L87.65 3.84999L87.75 3.75L87.85 3.64999L87.95 3.55V3.45L88.25 3.64999V3.75L88.35 3.95L88.55 4.14999L88.65 4.25L88.75 4.34999V4.45V4.55L88.85 4.64999V4.75L88.95 4.84999L89.05 4.95H89.15L89.25 5.05H89.45V5.14999H89.55L89.65 5.25L89.55 5.34999V5.45H89.45V5.55V5.64999L89.25 5.84999L89.15 5.95H89.05L88.85 6.14999V6.25H88.95L89.05 6.34999L89.15 6.45L89.05 6.55V6.64999L89.15 6.84999V6.95V7.05L89.25 7.14999V7.25V7.34999H89.35H89.45H89.55V7.45H89.65H89.75V7.55L89.85 7.64999V7.75H89.95V7.84999H90.05L90.15 7.95H90.25V8.05H90.35V8.14999L90.45 8.25H90.55V8.34999H90.65V8.45H90.75L90.85 8.55H90.95L91.05 8.64999L91.15 8.75H91.25L91.35 8.84999H91.45V8.95H91.55L91.65 8.84999H91.75H91.85L91.95 8.95L92.05 8.84999H92.15H92.25H92.35V8.75H92.45L92.65 8.64999L92.75 8.55H92.85V8.45L92.95 8.34999H93.05V8.25H93.15L93.25 8.14999L93.35 8.05H93.45L93.95 7.95V7.84999L94.05 7.75L94.25 7.64999H94.35H94.45H94.65H94.75H94.85L95.25 7.95L95.35 8.05H95.45L95.55 8.14999L95.65 8.25L95.75 8.34999H95.85V8.45V8.55L95.95 8.64999V8.75L96.05 8.84999V8.95L96.15 9.05L96.25 9.14999V9.25H96.35V9.34999L96.45 9.45V9.55V9.64999V9.84999V9.95V10.05V10.15V10.25L96.55 10.35V10.45V10.55H96.65V10.65H96.75V10.75V10.85L96.85 11.05V11.15H96.95V11.25V11.35V11.45H96.85V11.55L96.75 11.65V11.85V11.95V12.55V12.65H97.15V12.95H97.25H97.35H97.45H97.55H97.65V12.85H97.75H97.85H97.95H98.05H98.15V12.75H98.25L98.35 12.65H98.45M98.45 12.65V12.55V12.45V12.35L98.35 12.25V12.15V12.05L98.45 12.15H98.55H98.65V12.25H98.75H98.85V12.35V12.45H98.75L98.65 12.55H98.55L98.45 12.65ZM98.45 12.65L98.55 12.95V13.05H98.65L98.55 13.25V13.35H98.65V13.45V13.55V13.65H98.75L98.85 13.75H98.95V13.85V14.05V14.25V14.75L98.45 15.15V15.25H98.55V15.35V15.45H98.65V15.55H98.75H98.85H98.95H99.05L98.95 15.65V15.75V15.85V16.05V16.25V16.35V16.55V16.85V16.95V17.05V17.15V17.25V17.35V17.45V17.65V17.95L98.85 18.45V18.55V18.75V18.95H98.95L99.05 19.05H99.15H99.25H99.35L99.45 19.15H99.55L99.65 19.25H99.75H99.85H99.95H100.05H100.15V19.35H100.25H100.35H100.45H100.55H100.65H100.75H100.85H100.95H101.05H101.15L101.25 19.25H101.35L101.45 19.15H101.55H101.65V19.25H101.75V19.35V19.45L101.65 19.65V19.75H101.75V19.85L101.85 19.95H101.95H102.15V20.05L102.25 19.95H102.35V20.05H102.45H102.55H102.65V20.15H102.75H102.85L102.95 20.25L103.15 20.45L103.35 20.55L103.65 20.75V20.85H103.75L103.85 20.95L104.05 21.05L104.15 21.15L104.45 21.25V21.35L104.55 21.45L104.65 21.55L104.85 21.65L104.95 21.85L105.05 21.95L105.15 22.05V22.15V22.25V22.45V22.55L105.05 22.65V22.75L104.95 23.05L104.85 23.35L104.95 23.45L104.85 23.55V23.85V24.15V24.45L104.75 24.55H104.85L105.35 24.65H105.65L105.85 24.75H106.45L106.75 24.85H106.95H107.35L107.95 24.95L108.35 24.55H108.45V24.45V24.35L108.55 24.25H108.65L108.75 24.35H108.85H108.95V24.25H109.05H109.15H109.25H109.45H109.55V24.15H109.65H109.75H109.85L110.05 24.05H110.25H110.45H110.55H110.75L110.95 23.95H111.25H111.35L111.45 23.85H111.65H111.75H111.85H111.95L112.05 23.95H112.15V24.05V23.85V23.65H112.25V23.55L112.35 23.45L112.45 23.25H112.55H112.75H113.45H113.55V23.55V23.75L113.45 24.05V24.35H113.55L113.65 24.25H113.75H113.95L114.15 24.35H114.35H114.45H114.55H114.65H114.75V24.25H114.85H114.95H115.05H115.15V24.35H115.25H115.35V24.25H115.45H115.55H115.85L116.05 24.35V24.15V23.95L116.15 23.65V23.55V23.35V23.15V23.05V22.95V22.85V22.65L116.05 22.25L115.95 22.15L115.85 22.05L115.65 21.75L115.85 21.55L115.95 21.45H116.05V21.35L116.15 21.25V21.15L116.25 20.85H116.35L116.45 20.95H116.55V21.05H116.65V21.15L116.75 21.25V21.35H116.85V21.45H116.95L117.05 21.55L117.15 21.65L117.25 21.75L117.35 21.85L117.45 22.05L117.65 22.25L117.85 22.35V22.45H117.95V22.55H118.05V22.65H118.15V22.75L118.35 22.85L118.55 23.05L118.65 23.15V23.25L118.75 23.35H118.85L118.95 23.45L119.05 23.55L119.25 23.75L119.45 23.95L119.55 24.05L119.65 24.15L119.75 24.25L119.85 24.35L119.95 24.55L120.05 24.65L120.15 24.55H120.25L120.35 24.45H120.45V24.35H120.55H120.65H120.75H120.85H120.95H121.05H121.15L121.25 24.45H121.35V24.55H121.45H121.55H121.75H121.95H122.05H122.15V24.65H122.25V24.75H122.15H122.05V24.85V24.95V25.05H121.95V25.15L122.05 25.25H122.15V25.35H122.25V25.45M122.25 25.45H122.15M122.25 25.45V25.55V25.65V25.75V25.85H122.15L122.25 25.95V26.05H122.15M122.15 26.05H122.05M122.15 26.05V26.15H122.05V26.25H122.15V26.35H122.05V26.45V26.55H121.95V26.65V26.75V26.85M121.95 26.85H121.85M121.95 26.85H122.05V26.95M122.05 26.95H121.95M122.05 26.95V27.05H121.95V27.15M121.95 27.15H122.05M121.95 27.15V27.25V27.35V27.45H121.85V27.55H121.95V27.65H122.05V27.75M122.05 27.75H121.95M122.05 27.75V27.85M122.05 27.85H121.95M122.05 27.85L122.15 27.95H122.25H122.35L122.45 28.05H122.55L122.65 28.15L122.85 28.35L122.95 28.45H123.15L123.25 28.55H123.55L123.95 28.65H124.15H124.25L124.45 28.75L124.95 28.95V29.15L125.05 29.25H125.15H125.25L125.55 29.35H125.65H125.75L125.95 29.25L126.05 29.15L126.35 29.05L126.45 28.95H126.65L126.85 28.85L127.05 28.75H127.25V28.65H127.35H127.45H127.55L127.65 28.75H127.75H127.85H127.95H128.05L128.15 28.85H128.25L128.35 28.95L128.65 29.05L129.15 29.35L129.35 29.45L129.55 29.55V29.65V29.75V29.85V29.95V30.05V30.15V30.25V30.35V30.55L129.45 30.85V31.05V31.15V31.25V31.45V31.55V31.65H129.55V31.75V31.85L129.65 32.05H129.25L129.05 31.95H128.85L128.75 32.05V32.15V32.25L128.65 32.55L128.45 32.95H128.35L128.25 33.15L128.15 33.25L128.25 33.35V33.55H128.45L128.35 33.75L128.45 33.85V33.95H127.95H127.75V34.15L127.65 34.35V34.45V34.55V34.65V34.75V34.85V34.95H127.55V35.05V35.15H127.65V35.25V35.35L127.75 35.45V35.55V35.65H127.85L127.95 35.75L128.05 35.85L128.15 35.95H128.25V36.05H128.35L128.45 36.15H128.55L128.65 36.25L128.75 36.35H128.85L129.05 36.45L129.25 36.65L129.35 36.75L129.55 36.85L129.65 36.95L129.75 37.05L130.05 37.35V37.45V37.55L129.95 37.65V37.75L129.85 37.85V38.05L129.55 38.15L129.35 38.45V38.55V38.65H129.45V38.75H129.55V38.85L129.65 38.95V39.05V39.15V39.35V39.45V39.55H129.55V39.75V39.85L129.45 40.05V40.15V40.25L129.35 40.65L129.25 40.85V40.95L129.15 41.15V41.25L129.25 41.35V41.45L129.45 41.65V41.75L129.65 42.15V42.25H129.75L129.85 42.35V42.55L130.05 42.75L130.15 42.85L130.35 43.15L130.55 43.45L130.95 43.95L131.15 44.25L131.45 44.65L131.55 44.85L131.75 45.15L131.85 45.25L131.95 45.45L132.15 45.65L132.25 45.85L132.45 46.15H132.55V46.25L132.65 46.45L132.75 46.55V46.65H132.85V46.75L132.95 46.85L133.05 46.95V47.05H133.15L133.25 47.15L133.35 47.35L133.45 47.45L133.55 47.55L133.75 47.85L133.95 48.15L134.05 48.25V48.35L134.15 48.45V48.55L134.35 48.75L134.45 48.85L134.55 49.05H134.65V49.15L134.75 49.25V49.35L134.85 49.55L134.95 49.65V49.75L135.05 49.85L135.15 49.95H135.25L135.35 50.05L135.45 50.15H135.55L135.65 50.25L135.95 50.45L136.25 50.75L136.85 51.35L137.15 51.55L137.25 51.65L137.35 51.75L137.45 51.85H137.55V51.95H137.75L137.85 52.05H137.95L138.05 52.15L138.15 52.25H138.25L138.45 52.35H138.65L138.85 52.45H139.05L139.25 52.55L139.45 52.65H139.55V52.85H139.65V52.95V53.05L139.75 53.15V53.25V53.35L139.85 53.45V53.55L139.95 53.65V53.85L140.05 53.95L139.95 54.05L139.85 54.35H139.75L139.65 54.55V54.75L139.55 54.95L139.45 55.05V55.15V55.25L139.55 55.35V55.45V55.55V55.65H139.65H139.75V55.75H139.85H139.95H140.05V55.85H140.15L140.25 55.75H140.35L140.55 55.95L140.65 56.05H140.75V56.25V56.35H140.65H140.55H140.45V56.45H140.35V56.55L140.25 56.65H140.15H140.05L139.95 56.55H139.85H139.75H139.65L139.55 56.45H139.45L139.35 56.55L139.25 56.65H139.15L139.05 56.75V56.65H138.95H138.85V56.75H138.75V56.85V56.95V57.05V57.15V57.25V57.35H138.65V57.45V57.55L138.55 57.65V57.75L138.45 57.85L138.35 57.95V58.05L138.25 58.25V58.35V58.45V58.55H138.35V58.65V58.75H138.45V58.85V58.95H138.55V59.05H138.65V59.15L138.75 59.25V59.35L138.85 59.45V59.55V59.65L138.75 59.75V59.95L138.65 60.05V60.15V60.25L138.55 60.35V60.45L138.45 60.55V60.65V60.75V60.85V60.95V61.05V61.15H138.35H138.25H138.15L138.05 61.25H137.95V61.35V61.45H138.05V61.55V61.65H138.15V61.75V61.85V61.95L137.95 62.05H137.85H137.65H137.55L137.35 62.15H137.25H137.15L137.05 62.25H136.95H136.85V62.35H136.75V62.25H136.65H136.55H136.45H136.35H136.25H136.15V62.55L135.75 62.75L135.35 62.85H135.25H135.15H135.05V62.95H134.95L134.85 63.05H134.75H134.65H134.55H134.45H134.35L134.25 63.15V63.25L134.15 63.35H134.25H134.35V63.45V63.55V63.65H134.25L134.15 63.75H134.05L133.95 63.85V64.05H133.85V64.15H133.95V64.25H134.05V64.35V64.45V64.55L133.95 64.65L133.85 64.75V64.85H133.75V64.95H133.65V65.05H133.55V64.95H133.45H133.35H133.25H133.15V64.85H133.05H132.95H132.85V64.75V64.65H132.75L132.65 64.75L132.55 64.65H132.45V64.55V64.35H132.15V64.55H131.75V64.85V64.95V65.05L131.65 65.15L131.55 65.25H131.35L131.25 65.35H131.15L130.95 65.25H130.75H130.65H130.55H130.45L130.35 65.15H130.25H130.15H130.05H129.95H129.85V65.05V64.95V64.85H129.75L129.65 64.75H129.55L129.45 64.65H129.35H129.25L129.15 64.55H129.05L128.95 64.45H128.85H128.75L128.55 64.35H128.45V64.25H128.35L127.95 64.65H127.85H127.75H127.65H127.55L127.45 64.55H127.35H127.25H127.15H127.05H126.95H126.85V64.65L126.95 64.75V64.85L126.85 64.95V65.05H126.75H126.65H126.55M126.55 65.05H126.45M126.55 65.05V65.15V65.25V65.35L126.45 65.45V65.55V65.65V65.75V65.85L126.35 65.95H126.25L126.15 66.05V65.95H126.05V65.85H125.95H125.85H125.75V65.75L125.65 65.85V65.75H125.55H125.45H125.35H125.25H125.15H125.05H124.95H124.85H124.75H124.65V65.65H124.55L124.45 65.55H124.35H124.15L124.05 65.45L123.85 65.15H123.75V65.05H123.55H123.45V65.15L123.35 65.45V65.65V65.85L123.45 66.05V66.15V66.25V66.45V66.75V66.85V66.95V67.15V67.25V67.45H123.55V67.55V67.65V67.75L123.65 67.85V67.95V68.05H123.75V68.15V68.25V68.35V68.45V68.55V68.65L123.65 68.75V68.85L123.55 68.95L123.05 68.85V69.15V69.35L122.95 69.45L122.85 69.55L123.05 69.65L123.15 69.75H123.25L123.35 69.85L123.55 70.05H123.65V70.15V70.25H123.75L123.85 70.35L123.95 70.45H124.15L124.45 70.55V70.65L124.55 70.75L124.75 71.05H124.85V71.15L124.95 71.25V71.35H125.05V71.45L124.95 71.55V71.65L124.85 71.75L124.75 71.85L124.55 72.15L124.25 72.45L124.15 72.55L124.05 72.75L123.95 72.65L123.55 72.95L123.35 73.15L123.25 73.35L123.15 73.45L122.85 73.65L122.95 73.85L122.65 74.05M122.65 74.05V74.15M122.65 74.05H122.55L122.45 73.95H122.35V73.85H122.25V73.75V73.65L122.05 73.45L121.85 73.15L121.55 72.85V72.75H121.45V72.65H121.35L121.15 72.55H121.05L120.95 72.45H120.85V72.35H120.75L120.65 72.25H120.45L120.35 72.15V72.25L120.25 72.45V72.55L120.15 72.75L120.05 72.95L119.95 73.25L119.85 73.55L119.65 73.85V73.95L119.45 74.45L119.35 74.65L119.25 74.85V74.95L119.15 75.05L119.25 75.35L119.15 75.45V75.55V75.65V75.85V76.15L119.05 76.35V76.55L118.95 77.05V77.25V77.45V77.65V77.75V77.85L119.05 77.95H118.95H118.85H118.75L118.65 78.05V78.25V78.45L118.55 78.75V78.85V78.95L118.65 79.05V79.15L118.75 79.25L118.65 79.45H118.55V79.55L118.45 79.65V79.75L118.35 79.85V79.95L117.95 79.75L117.65 79.65H117.55L117.45 79.85V79.95V80.05V80.15V80.25V80.35H117.35V80.45V80.55V80.65V80.75H117.15V80.85V80.95V81.05L117.05 81.15V81.25V81.35H116.95V81.45V81.55L116.85 81.65H116.75H116.55L116.65 81.55V81.45H116.55H116.45H116.35H116.25H115.95H115.65L115.75 81.55H115.85H115.95L116.15 81.65V81.75L116.25 81.85V82.05V82.15H116.15H115.85L115.65 82.05H115.45L115.35 81.95L115.15 81.75H115.05L114.95 81.65H114.75H114.65H114.55H114.45V81.75H114.35L114.25 81.85L114.15 81.95H114.05V82.05H114.15H114.25V82.15H114.35V82.25H114.25V82.35V82.45H114.35V82.55V82.65H114.45L114.35 82.85H114.25H114.15L114.05 82.75H113.95H113.75H113.65L113.55 82.65H113.45V82.55L113.35 82.45V82.35V82.25V82.15H113.25H113.15L112.95 82.05H112.85H112.75V82.15H112.65V82.25V82.35H112.75V82.45H112.65H112.55L112.45 82.35V82.45V82.85H112.35H112.05H111.95L111.75 82.75H111.55H111.45H111.35V82.85H110.85V83.05L110.95 83.15L111.05 83.45L110.95 83.55L111.05 83.65L111.15 83.75V83.85V83.95V84.05V84.15V84.25L111.05 84.35H110.95H110.85L110.75 84.15V84.05V83.95V83.85V83.75V83.65V83.55L110.65 83.45V83.35H110.55H110.45L110.35 83.45H110.25V83.55H110.15V83.65H110.05V83.75H109.95V83.85H109.85H109.65L109.25 83.75H109.15V83.85H109.05V83.95L108.95 84.05V84.15L108.85 84.35V84.55L108.75 84.75V84.95H108.65H108.35H108.15H107.95H107.65H107.45H107.35V84.85H107.25H107.15V84.95V85.05L107.05 84.95H106.95H106.75L106.55 85.05H106.35H106.15H105.95H105.75L105.55 85.15V85.05V84.95H105.45H105.35H105.25L105.15 85.05H105.05L104.95 85.15H105.05L105.15 85.25V85.35V85.45H105.25V85.55V85.65V85.75V85.85V85.95H105.35V86.05V86.15V86.25V86.35L105.45 86.45V86.55V86.75L105.55 86.85V86.95H105.45V87.05V87.15H105.35V87.25V87.35H105.25V87.45V87.55V87.65V87.75V87.85V87.95V88.05H105.15H105.05V88.15H104.95L105.05 88.25V88.35V88.45V88.55V88.75V88.85V88.95V89.05L105.15 89.25V89.35V89.45V89.75V89.85H105.25V89.95V90.05L105.15 90.15V90.25V90.45V90.55V90.65V90.75V90.85H105.05H104.95H104.85L104.75 90.95H104.55H104.45H104.35L104.25 91.05H104.05H103.85L103.75 90.95H103.65L103.45 90.85L103.35 90.75H103.25H103.15H103.05V90.85H102.95L102.85 90.75L102.75 90.65H102.65H102.55V90.55H102.45H102.35V90.45H102.25H102.15L102.05 90.35V90.25H101.95L101.85 90.15V90.25L101.75 90.45L101.65 90.55H101.35L101.25 90.45H101.05L100.95 90.75L100.65 90.55V90.45V90.35H100.55L100.45 90.25V90.15H100.35V90.05L100.25 89.95V89.85L100.05 89.75H99.95L99.85 89.85L99.35 89.65L99.25 89.55L99.15 89.45L99.05 89.35H98.95L98.85 89.25H98.75L98.65 89.15L98.55 89.05H98.45L98.35 88.95V88.85L98.25 88.75L98.15 88.65L98.05 88.55H97.95L97.85 88.45M97.85 88.45V88.55L97.75 88.45H97.85ZM97.85 88.45V88.35H97.75V88.25V88.15V88.05V87.95H97.65V87.85H97.55V87.95L97.25 88.05L96.95 88.25L96.65 88.35L96.55 88.45H96.45L96.35 88.55H96.25V88.65H96.15V88.85H96.05H95.95H95.85V88.75H95.75H95.65V88.65H95.55H95.45V88.75V88.85H95.35H95.25H95.15H95.05L94.95 88.95V88.85L95.05 88.75L94.65 88.45V88.35V88.25V88.15H94.75L94.65 88.05L94.35 87.85L94.45 87.75V87.65L94.55 87.55H94.65H94.75V87.65H94.85H94.95L95.05 87.55H95.15V87.45M95.15 87.45H95.25M95.15 87.45V87.35V87.25H95.05L94.95 87.15H94.85H94.75H94.65V87.05H94.55L94.45 86.95H94.35V86.85V86.55V86.45L94.25 86.35L94.15 86.25H94.05L93.95 86.15H93.75V86.25L92.95 85.95H92.75H92.65L92.55 86.05L92.65 86.15L92.75 86.25L92.95 86.35H93.05V86.45L92.75 86.35H92.65H92.55V86.25H92.45H92.35V86.35V86.65L92.45 86.85L92.05 86.55H91.95H91.85H91.75V86.65H91.65V86.75V86.85H91.55V86.95V87.05H91.45L91.35 87.15V87.25L90.85 87.55L90.75 87.65L90.65 87.75L90.75 87.95V88.05H90.85V88.15V88.25V88.45L90.95 88.55V88.65V88.75V88.85L91.05 88.95V89.25V89.35L91.15 89.45V89.55L91.25 89.65V89.75V90.05H91.15L91.05 90.15V90.25H90.95H90.85H90.75H90.65H90.55H90.45H90.35H90.25H90.15H90.05H89.95H89.85H89.75V90.15L89.65 90.25H89.55V90.35H89.45V90.45L89.35 90.55L89.25 90.75L89.15 90.85L89.05 90.95V91.15L89.15 91.25L89.25 91.55L89.35 91.95V92.05L89.65 92.55V92.75L89.85 92.65L89.75 93.05V93.45L89.65 93.75V93.95L89.55 94.15L89.45 94.75V94.85H89.15L88.65 94.95L88.15 95.05L87.95 95.15L87.65 95.45L87.55 95.55L87.45 96.05H87.55H87.65V96.15V96.35V96.45V96.55V96.65L87.75 97.05V97.25V97.35L87.95 97.45L88.05 97.55L88.25 97.65L88.35 97.75V97.85V97.95L88.45 98.05V98.15V98.25L88.35 98.35V98.75L88.85 98.85H88.95H89.05H89.15H89.25L89.95 99.25V99.35H90.15V99.55L90.55 99.65L90.85 99.85L90.55 100.05H90.45V100.15V100.25V100.35L90.35 100.45L90.25 100.55H90.15H90.05L89.95 100.65L89.85 100.75H89.75V100.85H89.65H89.55H89.45L89.35 100.95L89.45 101.25H89.35L89.25 101.35L89.15 101.45V101.55V101.65V101.75H89.05H88.95V101.65L88.85 101.55L88.65 101.65L88.55 101.85L88.45 101.95H88.55H88.75V102.05V102.25V102.35L88.65 102.65V102.85V102.95H88.85L89.05 103.05V103.15L88.95 103.25V103.35H88.85V103.45H88.75L88.65 103.55V103.75L88.55 104.05L88.45 104.25L88.35 104.35L88.25 104.45V104.55L88.05 104.95V105.15V105.25H87.95V105.35V105.45L87.85 105.25L87.35 104.85L87.05 104.55L86.85 104.35L86.75 104.55L86.35 104.95L86.25 105.15H86.05V105.25L85.45 105.15L85.25 105.05L84.05 104.85L83.95 105.15V105.25V105.65L83.85 106.05V106.15V106.25V106.35V106.45V106.65V106.75V106.85V107.05H83.95V107.15V107.25L84.05 107.45L84.15 107.85H84.25H84.35L84.55 107.75V107.65L84.75 107.55L84.85 107.45L84.95 107.35L85.15 107.15H85.25L85.45 107.05H85.55L85.65 106.95V106.85L85.75 106.75L85.85 106.65L85.95 106.75L86.05 106.85H86.15H86.25L86.85 107.15V107.35V107.55H87.05H87.15V107.75L87.05 107.95V108.05L86.95 108.25H86.65L86.55 108.55V108.65L86.65 108.85L86.55 108.95V109.35V109.45V109.55V109.65H86.45H86.35L86.25 109.85L86.15 110.45H86.05L85.95 110.55L86.05 110.65L86.15 110.85V110.95V111.15H86.25V111.25H86.35H86.45H86.55V111.15H86.65H86.75V111.25H86.85H86.95L87.05 111.35H87.15H87.25H87.35H87.45H87.55H87.75L87.85 111.45H87.95H88.05L88.15 111.55L88.25 111.65H88.35H88.45H88.65H88.85H89.05L89.25 111.55H89.45L89.65 111.45H89.95L90.15 111.35L90.35 111.25H90.45H90.55H90.65H90.75L90.85 111.35L90.95 111.45H91.05H91.15H91.25L91.45 111.35V111.45L91.35 111.65L91.25 111.75L91.15 112.05V112.15V112.25L91.25 112.55H91.15H90.95V112.65V112.75H91.05V112.85H91.15L90.95 113.05L90.85 113.25H90.75V113.35L90.85 113.55V113.65L90.95 113.75V113.85H90.85V114.05L90.75 114.15L90.65 114.25V114.35L90.55 114.45V114.55V114.65L90.65 114.75V114.85V114.95H90.75V115.05V115.15V115.25L90.65 115.45V115.55H90.85V115.65L90.75 115.75V115.85H90.65L90.55 115.95H90.35V116.05H90.25H90.15V116.15H89.95H89.85V116.25H89.75L89.65 116.15V116.05L89.45 115.95L89.25 115.85L89.05 115.75L88.95 115.65L88.85 115.55V115.45L88.65 115.35L88.55 115.25L88.45 115.15L88.35 114.95H88.25L88.15 114.65H87.75L87.55 114.75H87.45H87.15V114.85H87.05H86.75L86.65 115.15V115.25H86.55H86.45V115.35H86.35L86.25 115.25H86.15H86.05L85.95 115.35H85.85H85.75H85.65H85.55V115.45H85.45H85.35V115.55L85.15 115.65H85.05L84.85 115.75V115.85H84.75H84.65H84.55V115.95H84.45L84.35 116.05H84.25L84.05 116.15H83.95H83.85H83.75L83.65 116.25H83.15H83.05H82.95L82.75 116.45L82.25 116.75L82.05 116.95L81.95 117.05V117.15H81.75L81.65 117.35L81.45 117.45V117.55H81.35V117.65L81.25 117.75L81.15 117.55L81.05 117.65V117.75L80.65 118.05H80.55L80.35 118.15L80.05 118.05H79.95H79.85L79.55 117.85H79.45L79.35 117.75H79.25L79.15 117.85L79.25 117.95L78.95 118.25L78.75 118.45L78.65 118.55V118.65L78.55 118.55H78.45L78.35 118.45V118.35H78.25H78.15L78.05 118.25H77.95V118.15H77.75H77.55H77.45L77.35 118.35H77.25V118.45L77.15 118.55V118.65L77.05 118.75L77.15 119.15V119.35L76.95 119.45H76.85H76.75H76.65V119.35H76.55H76.45L76.35 119.25L76.25 119.15V119.05V118.95L76.15 118.85L76.05 118.75V118.65H75.95V118.55V118.45H75.85L75.75 118.35L75.65 118.45H75.45H75.35L75.15 118.55H75.05H74.95H74.85H74.75L74.65 118.45H74.45L74.25 118.35H74.15L74.05 118.25L73.85 118.15V118.05H73.75L73.45 117.95H73.35L73.25 117.85L73.05 117.75V117.85H72.95V117.95L72.85 118.05H72.75V117.95H72.65H72.55H72.45H72.35H72.25H72.15H72.05H71.95L71.75 117.85L71.55 118.05L71.45 118.35L71.35 118.45L71.25 118.65L71.15 118.85L71.05 118.95V119.05H70.95V119.15L70.85 119.25L70.75 119.35V119.45L70.55 119.55H70.45L70.25 119.75L70.15 119.85L70.05 120.05L69.95 120.15L69.85 120.25H69.75L69.55 120.15H69.45V120.05L69.35 119.95V119.85H69.45V119.75V119.65V119.55H69.35V119.45V119.35H69.25V119.25H69.15L69.05 119.15V119.25L68.95 119.15H68.75L68.65 119.05H68.45L68.25 118.95H68.15L68.05 118.85H67.95V118.75L67.85 118.65L67.75 118.55H67.65H67.55L67.45 118.45H67.35H67.25L67.15 118.55V118.65H67.05V118.75L66.95 118.85H66.85V118.95L66.75 119.05L66.65 119.15V119.25H66.55L66.05 119.45H65.95L65.85 119.65L65.65 119.75L65.45 119.85H65.35V119.95L65.25 120.05V120.15H65.15V120.25H65.05L64.95 120.35L64.85 120.45L64.55 120.65V120.75H64.45L64.35 120.85L64.25 121.15V121.25L64.15 121.35L64.05 121.55L63.75 121.45L63.65 121.35L63.15 121.05H63.05L62.95 120.95H62.85L62.65 120.85L62.25 120.75H62.15L61.45 120.65L61.15 120.55H60.75H60.45L60.25 120.45H60.15H60.05V120.55H59.95V120.65H59.85V120.75H59.75H59.65H59.45H59.35H59.15L59.05 120.85L58.95 120.95H58.85H58.75V121.05L58.65 120.95H58.55V120.85L58.45 120.75V120.65L58.35 120.45L58.25 120.35L58.15 120.25L58.05 120.15L57.95 120.05H57.85V119.95H57.75V120.05H57.65L57.55 120.15L57.35 120.25L57.25 120.15L57.05 119.95L56.75 119.65H56.55H56.35V119.85V119.95V120.05V120.15V120.25L56.25 120.35H56.15L56.05 120.45H55.95V120.55L55.75 120.65L55.55 120.75V120.85V121.25L55.35 121.45L55.15 121.65L54.95 121.75V121.85H54.85H54.75L54.65 121.95L54.15 121.35V121.45H54.05V121.55L53.95 121.65L53.65 121.45H53.55V121.55L53.45 121.65V121.75H53.35H53.25L53.15 121.85V121.95V122.05L53.05 122.15L52.95 122.25V122.35L52.85 122.45V122.55V122.65H52.95V122.75L52.85 122.85V122.95H52.75V123.05V123.15L52.55 123.35V123.45H52.45L52.55 123.55V123.65H52.65L52.75 123.75H52.85V123.85H52.95V123.95H53.05V124.05V124.15H52.95L52.85 124.25L52.75 124.35V124.45L52.65 124.55L52.55 124.85V124.95V125.05V125.15V125.25H52.45V125.35H52.55V125.45V125.55V125.65V125.75V125.85L52.45 125.95V126.05H52.35H52.25V126.15V126.25V126.35V126.45V126.55H52.15L52.05 126.65L51.95 126.85V126.95H51.85V127.05L51.75 127.15L51.65 127.25H51.55L51.45 127.15H51.35V127.25L51.25 127.35V127.45H51.15H51.05H50.95L50.85 127.35L50.75 127.25V127.15H50.65V127.05V126.95V126.85L50.45 126.75H50.35V126.85L50.25 126.95V127.05H50.15L50.05 127.15H49.95L49.85 127.25H49.75H49.65V127.35V127.45V127.55V127.65H49.75V127.75V127.85V127.95V128.05V128.15H49.85L49.75 128.25L49.65 128.35L49.45 128.55L49.35 128.65L49.25 128.75V128.85H49.15L48.95 129.05H48.85V129.15H48.75H48.65H48.55V129.25L48.45 129.35L48.35 129.45L48.25 129.55V129.65L48.15 129.85L48.05 129.95V130.05H47.95V130.15L47.85 130.25H47.75V130.35H47.65V130.45L47.55 130.55L47.45 130.65V130.75H47.35L47.25 130.85L47.15 130.95L47.05 131.05H46.95V131.15H46.85V131.25V131.35L46.95 131.45V131.55V131.65H47.05L47.15 131.75L47.35 131.85H47.45V131.95H47.55V132.05V132.15V132.25V132.35L47.65 132.45H47.75L47.85 132.55V132.65V132.85V133.05L47.75 133.25V133.35V133.45L47.65 133.55L47.55 133.75V133.85L47.45 134.05L47.35 134.25L47.25 134.45V134.55L47.05 134.85L46.95 135.35V135.45L46.85 135.55V135.65L46.75 135.75V135.85V136.05V136.15V136.25H46.85V136.35L46.95 136.55L47.05 136.75L47.15 136.85V136.95L47.25 137.05V137.15V137.25L47.15 137.35H47.25V137.45V137.55L47.35 137.75L47.45 137.85V137.95H47.55H47.65V138.05L47.95 138.15V138.25H48.05H48.15H48.25L48.35 138.15H48.45H48.65L48.85 138.25H48.95V138.35V138.45V138.55V138.65V138.85V138.95H48.55L48.45 139.05H48.35L48.25 139.15H48.15L47.95 139.05H47.85H47.75H47.65V139.15V139.25H47.55L47.45 139.35V139.45H47.35V139.55V139.65L47.25 139.85L47.15 140.05V140.25V140.35H47.05V140.45L47.15 140.65L47.25 140.95H47.35V141.05H47.25L47.15 141.15H47.05V141.25H46.95V141.35L47.05 141.45V141.55V141.65L46.95 141.95H46.85V142.05V142.25V142.35H46.75L46.55 142.55L46.35 142.65L46.15 142.85L46.35 142.95V143.05L46.45 143.15V143.25V143.45L46.55 143.55L46.65 143.65V143.75H46.75V143.85V143.95H46.85L46.95 144.05L47.05 144.15V144.25H47.15L47.05 144.35V144.45V144.55V144.65V144.75V144.85L47.15 145.05V145.15H47.25V145.25V145.35V145.45H47.35V145.55H47.45L47.55 145.65V145.75L47.45 145.85V145.95L47.35 146.05H47.45V146.15V146.25H47.35V146.35H47.25V146.45H47.15V146.55H47.05V146.65M47.05 146.65H46.95M47.05 146.65V146.75H46.95V146.85V146.95L46.85 147.05V147.15H46.75V147.25H46.65V147.35V147.45V147.55V147.65L46.55 147.75V147.85H46.45V147.95V148.05V148.15H46.35V148.25V148.35V148.45V148.55V148.65V148.75L46.25 148.85V148.95L46.15 149.05V149.15H46.05H45.95V149.05H45.85V149.15V149.25H45.95H46.05V149.35V149.45V149.55V149.65V149.75V149.85V149.95H45.95V150.05V150.15V150.25H45.85V150.35H45.75H45.65V150.45H45.55V150.35H45.45L45.35 150.25H45.25H45.15H45.05V150.15H44.95H44.85V150.05H44.75V149.95H44.65H44.55V149.85H44.45L44.35 149.75V149.65H44.25V149.55H44.15H44.05V149.65H43.95V149.75H43.85L43.75 149.85H43.65V149.95V150.05H43.55V150.15H43.45H43.35V150.25L43.25 150.35L43.15 150.45H43.05L42.95 150.55H42.85H42.75H42.65H42.55H42.45L42.35 150.65H42.25V150.75H42.15V150.85L42.05 150.75H41.95V150.65V150.55V150.45L41.85 150.35H41.75H41.65H41.55H41.45H41.35V150.25H41.25H41.15H41.05H40.95H40.85H40.75H40.65H40.55H40.45H40.35H40.25V150.15H40.15H40.05H39.95V150.05H39.85V149.95H39.75H39.65L39.55 149.85H39.45V149.75H39.35H39.25V149.65H39.15V149.55H39.05V149.45H38.95V149.55H38.85L38.75 149.65H38.65H38.55H38.45H38.35H38.25V149.55V149.45H38.15V149.35V149.25H38.05V149.15H37.95L37.85 149.05H37.75H37.65H37.55V148.95H37.45V148.85H37.35V148.75V148.65L37.25 148.55V148.45V148.35L37.35 148.25V148.15H37.25V148.05V147.95V147.85V147.65H37.15V147.55V147.45H37.05V147.35L36.95 147.25V147.15L36.85 147.05H36.75V146.95L36.65 146.85L36.55 146.75V146.65H36.45V146.75V146.85V146.95H36.35V147.05H36.25V147.15V147.25V147.35H36.15L36.05 147.45H35.95L35.85 147.55H35.75V147.65H35.65V147.75H35.55V147.85H35.45L35.35 147.95H35.25H35.15V148.05H35.05H34.95H34.85L34.75 148.15H34.65H34.55H34.45H34.35V148.05V147.95V147.85H34.25V147.75L34.15 147.65L34.05 147.55H33.95H33.85V147.45L33.65 147.35V147.25L33.55 147.15H33.45H33.35H33.25V147.05L33.15 146.85V146.75H33.05V146.65L32.95 146.55H32.85L32.75 146.45H32.65H32.55L32.45 146.55V146.75V146.85V146.95V147.05L32.35 147.15H32.25H32.15H32.05V147.25H31.95V147.35V147.45H31.85H31.75L31.65 147.55H31.55H31.45H31.35H31.25V147.45H31.15H31.05H30.95V147.55H30.85V147.65H30.75H30.65H30.55V147.75H30.45L30.35 147.65H30.25H30.15V147.55H30.05H29.95L29.85 147.45L29.75 147.35H29.65H29.55V147.45H29.45L29.25 147.55H29.15H28.95H28.85H28.75H28.65L28.55 147.65V147.55H28.45V147.45H28.35V147.35V147.25V147.15L28.25 147.05V146.95H28.15V146.85V146.75L28.05 146.65V146.55V146.45V146.35V146.25L27.95 146.15V146.05V145.95H27.85V145.85L27.75 145.75L27.65 145.65L27.55 145.55V145.45L27.45 145.35V145.25H27.35V145.15V145.05V144.95V144.85V144.75V144.65V144.55V144.45V144.35L27.25 144.25V144.15H27.35V144.05H27.25L27.15 143.95H27.05H26.95V143.85V143.75V143.65V143.55L26.85 143.45V143.35V143.25H26.75L26.65 143.15V143.05L26.55 142.95V142.85H26.45V142.75V142.65H26.35V142.55L26.25 142.45L26.15 142.35H26.05V142.25V142.15L25.95 142.05H25.85L25.75 141.95H25.65H25.55H25.45H25.05L24.95 141.55V141.45L25.05 141.35V141.25L25.15 141.15H25.25L25.15 141.05V140.95L25.05 140.75L24.95 140.55H24.85L24.75 140.65H24.65H24.55V140.55V140.45L24.45 140.35H24.35H24.25H24.15V140.25H24.05V140.15H23.95H23.75H23.65V140.05H23.55L23.45 139.85L23.35 139.75H23.25H23.15H23.05V139.85H22.95H22.85H22.75V139.95H22.65V140.05V140.15V140.25V140.35H22.55H22.45H22.35L22.25 140.45H22.15H22.05V140.35H21.95H21.85L21.75 140.45H21.65V140.55H21.55V140.65H21.45V140.75H21.35V140.85L21.25 140.95H21.15V140.85H21.05V140.75H20.95V140.65H20.85H20.75H20.65H20.55H20.45H20.35V140.75H20.25L20.15 140.85H20.05L19.95 140.95H19.85L19.75 141.05L19.65 140.95H19.55H19.45H19.35L19.25 141.05L19.15 141.15L19.05 141.25L18.95 141.35V141.45V141.65L18.85 141.75L18.65 141.95V142.05H18.55L18.45 142.15V142.25H18.35V142.15H18.25L18.15 142.05L18.05 141.95L17.95 141.85H17.85H17.75L17.65 141.75L17.55 141.65L17.45 141.55H17.35V141.45L17.25 141.35V141.25H17.15V141.15H17.05V141.05V140.95H16.95V140.85V140.75V140.65V140.55V140.45V140.35V140.25V140.15V140.05V139.95H16.85V139.85V139.75V139.65V139.55V139.45V139.35V139.25V139.15H16.75V139.05H16.85V138.95V138.85H16.75V138.75H16.65L16.55 138.65H16.45V138.55L16.25 138.65V138.55H16.15H16.05L15.95 138.45H15.85V138.35H15.75L15.65 138.25H15.55H15.45L15.35 138.15H15.25V138.05H15.15V137.95H15.05H14.95V137.85H14.85H14.75V137.75V137.65H14.65V137.55H14.55L14.45 137.45H14.35V137.35H14.25V137.25H14.15H14.05V137.15H13.95V137.05H13.85V136.95H13.75V136.85H13.65H13.55V136.75H13.45L13.35 136.65H13.25V136.55H13.15V136.45H13.05V136.35L12.95 136.25V136.15L12.85 136.05V135.95V135.85V135.75V135.65H12.75V135.45V135.35L12.65 135.25V135.15V135.05L12.55 134.95V134.85H12.45V134.75H12.35V134.65V134.55H12.25V134.45H12.15V134.35V134.25V134.15V134.05H12.05V133.95V133.85H11.95V133.75V133.65L11.85 133.55V133.45V133.35H11.95V133.25V133.15V133.05V132.95V132.85V132.75V132.65V132.55V132.45H12.05L12.15 132.35L12.25 132.25H12.35H12.45V132.15H12.55V132.05H12.65H12.75V131.95H12.85H12.95V131.85H13.05L13.15 131.75V131.65H13.25V131.55H13.35L13.45 131.75H13.55V131.85H13.65H13.75H13.85H13.95V131.75H14.05H14.15V131.65L14.25 131.55V131.45V131.35H14.15V131.25V131.15L14.05 131.05V130.95H14.15V130.85V130.75L14.25 130.65V130.55H14.15V130.45L14.05 130.35V130.25V130.15V130.05H13.95V129.95L13.85 129.85V129.75H13.75V129.65H13.65V129.55L13.55 129.45V129.35H13.45L13.35 129.15V129.05H13.25V128.95V128.85H13.15H13.05L12.95 128.95H12.85H12.75H12.65V129.05H12.55L12.45 129.15H12.35V129.25H12.25H12.15V129.15H12.05H11.95L11.85 129.05L11.75 128.95V128.85L11.85 128.95H11.95H12.05V128.85H12.15L12.25 128.75H12.35V128.65H12.45H12.55H12.65H12.75H12.85V128.55V128.45V128.35H12.75V128.25V128.15V128.05H12.85V127.95H12.95V127.85V127.75H12.85H12.75V127.65H12.65M12.65 127.65V127.75H12.55V127.65H12.65ZM12.65 127.65L12.55 127.55H12.45V127.45H12.35V127.35H12.25V127.25V127.15H12.15V127.05V126.95H12.05V126.85H11.95V126.75M11.95 126.75H12.05M11.95 126.75V126.65M11.95 126.65H12.05M11.95 126.65L12.05 126.55H12.15V126.45L12.25 126.35H12.35V126.25H12.25V126.15H12.15H12.05V126.25V126.35H11.95V126.25H11.85H11.75V126.15H11.65V126.05V125.95H11.75V125.85V125.75H11.85V125.65H11.75V125.55H11.85H11.95V125.45V125.35H12.05V125.25H11.95V125.15H12.05L11.95 125.05H12.05V124.95H11.95H11.85V124.85V124.75M11.85 124.75L11.75 124.85M11.85 124.75H11.75M11.85 124.75V124.65H11.75H11.65M11.75 124.85V124.75M11.75 124.85H11.65V124.75M11.75 124.75H11.65M11.65 124.65V124.75M11.65 124.65H11.55V124.55H11.65V124.45M11.65 124.45H11.75M11.65 124.45V124.35V124.25V124.15H11.55M11.55 124.15V124.25M11.55 124.15V124.05V123.95M11.55 123.95H11.65M11.55 123.95V123.85H11.65M11.65 123.85H11.75V123.75M11.65 123.85V123.75H11.75M11.75 123.75H11.85V123.65V123.55H11.75M11.75 123.55V123.65M11.75 123.55H11.65V123.45V123.35V123.25H11.75V123.15H11.85H11.95H12.05V123.05H12.15H12.25H12.35L12.45 122.95V122.85V122.75H12.35M12.35 122.75V122.85M12.35 122.75H12.25M12.35 122.75V122.65H12.45H12.55V122.55V122.45H12.65V122.35V122.25H12.75V122.15L12.85 122.05V121.95M12.85 121.95H12.95M12.85 121.95V121.85V121.75H12.75H12.65H12.55V121.65H12.45H12.35V121.75M12.35 121.75H12.45M12.35 121.75H12.25V121.65H12.15V121.75H12.05H11.95V121.65H11.85V121.55H11.75V121.65H11.65V121.55V121.45H11.55H11.45M11.45 121.45V121.55M11.45 121.45H11.35V121.35H11.25V121.25H11.15H11.05V121.15V121.05V120.95L11.15 120.85V120.75L11.25 120.65V120.55H11.15V120.65H11.05H10.95V120.55H10.85V120.45V120.35H10.75V120.45H10.65V120.55H10.55V120.65H10.45V120.75H10.35H10.25H10.15V120.65M10.15 120.65H10.05M10.15 120.65V120.55M10.05 120.65V120.75M10.05 120.65L10.15 120.55M10.05 120.65V120.55H10.15M10.05 120.65H9.95H9.85H9.75V120.55V120.45V120.35V120.25V120.15V120.05H9.65V119.95H9.55H9.45V119.85L9.35 119.75H9.25V119.65V119.55H9.15L9.05 119.65V119.75H8.95V119.65H8.85V119.55V119.45H8.95H9.05V119.35V119.25V119.15H8.95H8.85V119.25H8.75H8.65M8.65 119.25V119.35M8.65 119.25H8.55M8.65 119.25V119.15H8.55V119.05H8.65V118.95H8.55H8.45M8.45 118.95V118.85M8.45 118.95H8.35H8.25V118.85V118.75H8.15V118.65H8.05H7.95V118.55H7.85V118.45V118.35V118.25H7.95V118.15H7.85V118.05V117.95V117.85H7.75V117.75H7.65V117.65H7.75V117.55V117.45H7.85V117.35V117.25V117.15H7.75V117.05H7.65H7.55H7.45V117.15H7.35V117.25H7.25H7.15L7.05 117.35V117.45H6.95H6.85V117.35H6.95V117.25H6.85H6.75V117.35H6.65H6.55H6.45H6.35V117.45H6.25H6.15H6.05V117.35H5.95L5.85 117.45H5.75V117.35H5.65V117.25V117.15H5.55M5.55 117.15V117.25M5.55 117.15H5.45V117.05H5.35H5.25H5.15V116.95V116.85V116.75H5.25V116.65V116.55L5.35 116.45V116.35V116.25V116.15H5.45V116.05H5.55V115.95H5.65V115.85V115.75V115.65H5.75V115.55V115.45H5.85H5.95V115.35H6.05V115.25V115.15H5.95V115.25H5.85H5.75V115.15V115.05H5.65H5.55H5.45V115.15H5.35L5.25 115.05H5.15V115.15H5.05H4.95H4.85V115.25V115.35V115.45V115.55H4.75V115.65V115.75H4.65H4.55H4.45V115.85V115.95V116.05V116.15V116.25L4.35 116.35L4.25 116.45L4.15 116.55H4.05V116.45H3.95V116.35V116.25V116.15V116.05H3.85L3.75 115.95H3.65V115.85H3.55V115.75V115.65V115.55L3.65 115.45V115.35V115.25H3.75H3.85V115.15H3.95L4.05 115.05V114.95V114.85H4.15V114.75H4.25V114.65H4.15V114.55V114.45H4.25V114.35H4.35V114.25V114.15V114.05H4.45H4.55H4.65L4.75 113.95V113.85H4.65V113.75V113.65V113.55V113.45H4.75V113.35H4.85H4.95V113.25V113.15H4.85V113.05V112.95H4.95V112.85H5.05V112.95H5.15H5.25V112.85H5.35V112.75H5.45V112.65H5.55H5.65V112.55H5.55V112.45H5.45M5.45 112.45V112.55" stroke="white" stroke-width="0.5" stroke-linecap="round" stroke-linejoin="round"/>
</svg>
