<svg width="151" height="139" viewBox="0 0 151 139" fill="none" xmlns="http://www.w3.org/2000/svg">
<path d="M79.05 137.75V137.85H78.95V137.75H78.85H78.75H78.65V137.85V137.95H78.75V138.05H78.85V138.15H78.95V138.25H79.05H79.15V138.15H79.05V138.05H79.15V138.15H79.25V138.25V138.35L79.35 138.45V138.55H79.45V138.65H79.35H79.25L79.15 138.55H79.05V138.45H78.95L78.85 138.35H78.75V138.45H78.85V138.55H78.95V138.65L78.85 138.55L78.75 138.45L78.65 138.35L78.45 138.15L78.35 137.95V137.85L78.25 137.75L78.15 137.65V137.55L78.05 137.45V137.35V137.25H77.95V137.15H77.85V137.05V136.95L77.75 136.85V136.75V136.65V136.55H77.65V136.45V136.35L77.55 136.25V136.15L77.45 136.05V135.95L77.35 135.85V135.75V135.65L77.25 135.55V135.45L77.15 135.35V135.25H77.05V135.15V135.05V134.95V134.85H77.15V134.95H77.25V135.05V135.15V135.25V135.35L77.35 135.45V135.55V135.65H77.45V135.75H77.55V135.85H77.65V135.95H77.75L77.85 136.05V136.15L77.95 136.25H78.05L78.15 136.45L78.25 136.55V136.65H78.35L78.45 136.75L78.55 136.85V136.95L78.65 137.05V137.15L78.75 137.25V137.35L78.85 137.45L78.95 137.55V137.65L79.05 137.75ZM76.95 134.75H76.85H76.75V134.65L76.65 134.55V134.45L76.75 134.55V134.65H76.85L76.95 134.75ZM68.55 124.15H68.65V124.25H68.55L68.45 124.05V123.85H68.55V124.05V124.15ZM83.55 128.05L83.05 129.35L82.95 129.45H82.75L82.45 129.35H82.35H82.25H82.15L81.85 129.45V129.55H81.65V129.65L81.35 129.85L81.25 130.05V130.15L81.15 130.45L81.05 130.75L80.95 130.85L80.65 130.75L80.45 130.65H80.25L80.15 130.55H80.05H79.95H79.85V130.45H79.65H79.55L79.45 130.35H79.35H79.25L79.15 130.25H79.05H78.85H78.75V130.15H78.65H78.55H78.45H78.25H78.15H78.05H77.95H77.85H77.75V130.25H77.65H77.55H77.45L77.35 130.35H77.25H77.15H77.05L76.95 130.45L76.85 130.55H76.75L76.65 130.65H76.55H76.45V130.75H76.35H76.25L76.15 130.85V130.95H76.05V131.05H75.95V131.15H75.85V131.25H75.75V131.35V131.45H75.65V131.55L75.55 131.65V131.75H75.45V131.85V131.95V132.05V132.15V132.25L75.35 132.35V132.45V132.55V132.65V132.75V132.85V132.95V133.05V133.15V133.25H75.45V133.35H75.55V133.45H75.65H75.75V133.55L75.85 133.65V133.75V133.85H75.95H76.05V133.95V134.05H75.95V133.95H75.85H75.75V133.85H75.65V133.75H75.55V133.65H75.45H75.35V133.55H75.25L75.35 133.65H75.45V133.75H75.55V133.85V133.95H75.65H75.75V134.05H75.85V134.15V134.25H75.95V134.35H76.05V134.45H75.95V134.35H75.85L75.75 134.15L75.55 133.95L75.45 133.75H75.35V133.65L75.25 133.55L75.15 133.45H75.05V133.35L74.95 133.25L74.85 133.15V133.05H74.75V132.95H74.65V132.85H74.55V132.75H74.45V132.65L74.35 132.55H74.25V132.45V132.35H74.15V132.25L74.05 132.15L73.95 132.05L73.85 131.95L73.75 131.85V131.75H73.65V131.65H73.55V131.55L73.45 131.45L73.35 131.35L73.25 131.25V131.15H73.15V131.05H73.05V130.95H72.95V130.85H72.85V130.75H72.75V130.65H72.65V130.55H72.55V130.45V130.35H72.45V130.25H72.35V130.15H72.25V130.05L72.15 129.95H72.05L71.95 129.85V129.75H71.85V129.65H71.75V129.55H71.65V129.45H71.55H71.45V129.35H71.35V129.25H71.25V129.15H71.15V129.05H71.05V128.95H70.95V128.85H70.85V128.75H70.75V128.65H70.65V128.55H70.55H70.45V128.45H70.35V128.35H70.25V128.25H70.15V128.15H70.05H69.95V128.05H69.85V127.95H69.75V127.85H69.65L69.55 127.75H69.45V127.65H69.35V127.55H69.25L69.15 127.45H69.05V127.35H68.95V127.25H68.85V127.15H68.75V127.05H68.65L68.55 126.95L68.45 126.85L68.35 126.75L68.25 126.65H68.15V126.55H68.05V126.45H67.95V126.35L67.85 126.25H67.75V126.15L67.65 126.05V125.95H67.55L67.45 125.85L67.35 125.75V125.65H67.25V125.55L67.15 125.45L67.05 125.35L66.95 125.25V125.15L66.85 125.05L66.75 124.95V124.85H66.65V124.75H66.55V124.65V124.55L66.45 124.45V124.35V124.25H66.35V124.15V124.05V123.95H66.25V123.85H66.15V123.75L66.25 123.85L66.35 123.95V124.05L66.45 124.15V124.25V124.35H66.55V124.45V124.55L66.65 124.65V124.75H66.75V124.85L66.85 124.95L67.05 125.15L67.15 125.25L67.35 125.45H67.45L67.55 125.55L67.75 125.75L67.85 125.85L68.15 125.95L68.35 126.15H68.55L68.65 126.25L68.75 126.35H68.85L68.95 126.45H69.05L69.15 126.55H69.25H69.35H69.45V126.65H69.55H69.65H69.75H69.85H69.95L70.05 126.55H70.15H70.25H70.35H70.45H70.55H70.65H70.75L70.85 126.45H70.95H71.05H71.15H71.25H71.35H71.45H71.55H71.65H71.75H72.15H72.25H72.35H72.45H72.55H72.65L72.75 126.55H72.85H72.95H73.05H73.15L73.35 126.65H73.45H73.55H73.65H73.75H73.85V126.55H73.95H74.05V126.65H74.15V126.55H74.25V126.65V126.75H74.35V126.65V126.55V126.45H74.45H74.55V126.35H74.65H74.75H74.85H74.95H75.05V126.25H75.15H75.25H75.35V126.15H75.45H75.55H75.65H75.75V126.05H75.85H75.95H76.05H76.15H76.25H76.35V126.15L76.45 126.05H76.55H76.65H76.75H76.85H76.95H77.05H77.15V125.95H77.25H77.35H77.45H77.55H77.65H77.75H77.85H77.95H78.05H78.15H78.25H78.35H78.45H78.55V126.05H78.65H78.75V126.15H78.85H78.95V126.25H79.05H79.15L79.25 126.35H79.35V126.45H79.25V126.55H79.35V126.65H79.45V126.75H79.55H79.65V126.85H79.75H79.85H79.95V126.95H80.05H80.15H80.25V127.05L80.35 127.15H80.45V127.25H80.55H80.65V127.35H80.75H80.85H80.95V127.45H81.05H81.15H81.25V127.35H81.35H81.45V127.45H81.55H81.65V127.55H81.75V127.65H81.85H81.95H82.05H82.15V127.75V127.85H82.25H82.35V127.75V127.65H82.45V127.75H82.55H82.65V127.85H82.75H82.85H82.95H83.05V127.95H83.15V128.05H83.25H83.35H83.45H83.55ZM61.05 121.85V121.95H61.15V122.05V122.15V122.25V122.35V122.45H61.05V122.35V122.25H60.95V122.15V122.05H60.85V121.95V121.85H60.95H61.05ZM141.35 18.65V18.75H141.25L141.15 18.85H141.05H140.95V18.95L140.85 19.35V19.45L140.95 20.25H141.15H141.25V20.35V20.55L141.35 21.25V21.65L141.45 21.75V22.05L141.55 22.65H141.45H141.35L140.95 22.75H140.85V22.85V22.95H140.95V23.05V23.15H141.05V23.25V23.35V23.45V23.55V23.65H141.15V23.75V23.85H141.25V23.95V24.05V24.15H141.35V24.25H141.45V24.35H141.55V24.45H141.65V24.55H141.75H141.85H142.15L142.65 24.35L143.45 24.25L143.55 24.15H143.85L144.15 24.05L144.45 23.95H144.55H144.75L144.85 23.85H145.15V23.95V24.15V24.35L145.25 24.65L145.45 25.95L145.55 26.45L144.75 26.65H144.65L144.75 27.05V27.35L144.95 28.55L145.15 29.45L145.25 30.15V30.25L144.75 30.35L144.05 30.45L144.15 31.15L144.25 32.15L144.35 32.55L144.45 33.35L144.55 33.75V34.15H144.25L143.65 34.25L143.75 34.55V35.05L143.85 35.55L143.95 35.75L144.55 35.65V36.05L144.65 36.45L144.75 37.45L144.65 37.55H144.25L143.75 37.65L143.25 37.75H142.85L141.55 37.95V38.25V38.45L140.85 38.55H140.45L139.85 38.65H139.75V38.75L139.85 39.25L140.05 40.95L140.15 41.55L140.25 42.25L140.35 42.35L140.45 43.15L140.55 43.85L140.65 44.35V44.75L140.75 44.85L140.85 45.45V45.85V45.95V46.05V46.15H140.95V46.25V46.45V46.55L141.05 46.65H140.85H140.75H140.65L140.55 46.75V46.85H140.45V46.95H140.55V47.05V47.15V47.25H140.65V47.35V47.45H140.55L140.45 47.55H140.35V47.65H140.25V47.55H140.15V47.45V47.35H140.05V47.45L139.95 47.55V47.65H139.85V47.55H139.75V47.45H139.65V47.55V47.65V47.75H139.55L139.45 47.85H139.35V47.95H139.25L139.15 48.05V48.15V48.25V48.35V48.45V48.55L139.25 48.65L139.65 48.55H140.45L141.05 48.45L142.15 48.35H142.85H142.95L143.25 48.25H144.35L145.25 48.15L145.95 48.05V48.45L145.85 48.95V49.45V49.55L145.75 50.35V50.85L145.65 51.05V51.45L145.75 51.85L145.85 52.45L145.95 53.15V53.25V53.35L146.95 52.75L148.25 52.15V52.35L148.35 52.95L148.45 53.45L148.55 54.25L147.85 54.55L147.45 54.75H147.35L147.55 55.85L147.65 56.45L147.75 56.85H147.55L147.65 57.15H147.55L147.65 57.65L147.75 58.65V59.45L147.85 59.95L148.15 61.35L147.65 61.45L146.95 61.55L146.15 61.75L145.35 61.85L144.75 61.95V61.35V60.65V59.95V59.55V58.75V58.65V58.05V57.65L144.65 57.25L144.45 57.35L143.55 57.75L143.75 58.65L143.85 59.25V59.35V59.55L142.85 59.75L142.95 60.15L143.05 60.95L142.65 61.05V61.35L142.75 61.75V62.15L142.85 62.35V62.65L142.95 62.95H142.85L142.95 63.35L143.05 63.65V63.85L143.15 64.25V64.35L145.15 63.95H145.45L146.25 63.75L147.25 63.55L147.35 63.95L147.45 64.45L147.55 64.85L147.65 65.65L147.75 66.35L147.85 66.75V66.85V66.95V67.05H147.95V67.15V67.35V67.45V67.55H148.05L148.15 67.85H147.85V67.95V68.05V68.15L147.75 68.25H147.55L147.45 68.35L147.15 68.45L146.35 68.65L146.45 69.25L146.65 70.05H146.75V70.15L146.65 70.65V70.75L146.45 70.85L146.25 70.95L146.35 71.05L146.45 71.55V71.75L147.15 71.65L147.25 71.85V71.95L147.85 72.15L147.95 72.25L148.25 72.35L148.05 72.65L148.55 73.15L148.95 73.55L149.75 74.25L149.95 74.45L150.45 74.85H150.35V74.95H150.25H150.15V74.85H150.05V74.95H149.95V75.05V75.15H149.85H149.75H149.65H149.55L149.45 75.25V75.35H149.35H149.25V75.25V75.15H149.35V75.05V74.95H149.25V75.05H149.15H149.05H148.95H148.85V75.15H148.75V75.25L148.65 75.35V75.45H148.55H148.45H148.35L148.25 75.35H148.15L148.05 75.25H147.95H147.85H147.75V75.35H147.65H147.55V75.45V75.55V75.65V75.75V75.85V75.95V76.05L147.65 76.15V76.25V76.35H147.75V76.45L147.85 76.65L147.95 76.75L148.05 76.85H148.25H148.35V76.95V77.05H148.25L148.15 77.15V77.25H148.05H147.95L147.85 77.35V77.45H147.75H147.65H147.55H147.45H147.35V77.35H147.25H147.15V77.45H147.05V77.35H146.95V77.25H146.85L146.75 77.15V77.05H146.65L146.55 76.95L146.45 76.85V76.75V76.65V76.55H146.55V76.45H146.45V76.35L146.35 76.15H146.25V76.05L146.15 75.95H146.05H145.95H145.85H145.75H145.65H145.55H145.45V76.05L145.35 76.15H145.25H145.15H145.05V76.05H144.95V75.95H144.85H144.75V76.05V76.15H144.85V76.25H144.95V76.35H144.85H144.75H144.65V76.25L144.55 76.15H144.45V76.25V76.35V76.45V76.55H144.35V76.65H144.45V76.75V76.85V76.95V77.05H144.55V77.15V77.25L144.45 77.35V77.45H144.55V77.55V77.65H144.45V77.75H144.35V77.85H144.25V77.95H144.15V78.05H144.05V78.15H143.95V78.25H143.85V78.35H143.75H143.65H143.55H143.45V78.45H143.35H143.25H143.15L143.05 78.55H142.95V78.65V78.75V78.85V78.95V79.05L143.05 79.15V79.25V79.35H142.95H142.85H142.75H142.65L142.55 79.45H142.45V79.35H142.35L142.25 79.25H142.15L142.05 79.15H141.95L141.85 79.05V78.95H141.75V78.85V78.75H141.85V78.65V78.55V78.45L141.75 78.35V78.25L141.65 78.15L141.55 78.05V77.95H141.45H141.35H141.25H141.15V78.05V78.15V78.25H141.25V78.35H141.35V78.45H141.25H141.15V78.35H141.05H140.95H140.85H140.75V78.45H140.65H140.55V78.35H140.65V78.25H140.75L140.65 78.15H140.55H140.45V78.25H140.35H140.25V78.35H140.15H140.05L139.15 78.45V78.75V78.85L139.05 78.95V79.15L138.95 79.45L138.85 79.65L138.75 80.05L138.65 80.15V80.25L138.55 80.35V80.45L138.45 80.55L138.35 80.65L138.25 80.85L138.05 80.95L137.95 81.15L137.75 81.35V81.45H137.65H137.55V81.55H137.45H137.35H137.25V81.65H137.15L137.05 81.75V81.85L136.95 81.95V82.05L137.05 82.15V82.25V82.35V82.45H137.15V82.55V82.65H137.05V82.75V82.85H136.95L136.85 82.95L136.75 83.05V83.15H136.65V83.25V83.35V83.45H136.55V83.55L136.45 83.65L136.55 83.85L136.65 83.95V84.05V84.15L136.75 84.25V84.35V84.55L136.85 84.65V84.75V84.85L136.75 84.95V85.05H136.65V85.15V85.25L136.55 85.35V85.45V85.55H136.65V85.65V85.75L136.75 85.85V85.95H136.85V86.05L136.95 86.15H137.05V86.25H137.15H137.25H137.35V86.35L137.45 86.45H137.55L138.65 87.15L138.85 87.35L139.25 87.55L139.35 87.65L141.15 88.75L141.75 89.05V89.15L142.05 89.35L142.55 89.55L142.75 89.15L143.05 88.65L143.35 87.95L143.75 87.25L144.85 87.85L145.15 87.35L145.25 87.05L145.65 86.45L145.95 85.85L146.15 85.45L146.25 85.35L146.35 85.15L146.25 85.05L145.95 84.85L145.65 84.75L145.35 84.55H145.25L145.35 84.45L145.45 84.15L145.65 83.85L145.85 83.45L146.45 82.35L146.65 82.45L146.75 82.55L146.85 82.65L147.35 82.85L147.65 83.05L147.85 83.15L148.45 83.45L149.05 83.75V83.85H149.15L148.75 84.55L147.55 86.65L146.45 88.55L145.85 89.65L145.65 89.45L144.75 91.05L144.65 90.95L144.55 90.85L143.75 92.25L143.25 93.05L142.45 94.35L142.25 94.55L140.65 93.55L139.45 92.75L138.65 92.25L138.05 93.25L137.85 93.45V93.55V93.75L138.25 94.65L138.45 95.75L138.55 96.05V96.55L139.35 96.45L139.75 96.35L139.95 96.25L140.05 96.75L140.15 97.45H140.05H139.65L138.65 97.65L137.65 97.85L137.25 97.95V98.25L137.35 98.75L137.45 98.95V99.15H137.35L136.25 99.35L135.15 99.55L133.95 99.85L133.35 99.95H133.25L133.15 100.15L133.05 100.25H133.15V100.35V100.45V100.55V100.65V100.75H133.05V100.85L132.95 100.95L132.85 101.05L133.45 101.45H133.55H133.65H133.75V101.55H133.85V101.65H133.95H134.05L134.35 101.55H134.75L135.15 101.45L135.75 101.35L136.05 101.25H136.45L136.95 101.15V101.25V101.55L137.05 101.95L137.15 102.45L137.45 102.35L138.45 102.25V102.35L138.55 103.05H138.45L137.55 103.25L137.05 103.35L136.35 103.45L135.75 103.55L135.65 103.65H135.55L134.75 103.85L133.85 103.95L132.85 104.15L132.45 104.25L131.75 104.35L131.85 104.75H131.65L130.15 104.95L129.85 105.05V105.15L129.95 105.25L130.05 105.45H129.95L129.85 105.55H129.75V105.65V105.75H129.65H129.55V105.85H129.45L129.35 105.55V105.45H129.25V105.25L128.85 105.35L128.35 105.45V105.35V105.25H128.25L127.65 105.35L126.75 105.55H126.45L126.35 105.75H126.15H126.05H125.95V105.65L125.85 105.15L125.75 104.75L125.45 102.85V102.65L123.45 103.05H123.05L122.55 103.15L121.85 103.25H121.75H121.65L121.55 102.95L120.55 103.15L120.25 103.25L120.15 102.85L119.85 102.95V102.65H119.55V102.35V102.25V101.95L118.95 102.05L118.35 102.15L118.25 101.55L118.15 101.15L117.65 101.25V101.35L117.75 101.45V101.75L117.85 102.25V102.35L118.05 103.55L117.15 103.75H117.25V103.85V104.15L117.35 104.55L117.45 105.05L117.55 105.55H117.45L117.15 105.65H117.05H116.95H116.85L116.45 105.75L115.95 105.85H115.85H115.65L115.55 105.95H115.25H114.95L114.35 106.05L114.25 105.55L114.15 104.65L114.05 104.35V104.25L113.45 104.35L112.65 104.45L112.55 104.55H112.15L111.95 104.65H111.85H111.65L111.25 104.75L110.55 104.85L109.15 105.05V105.15L109.25 105.75L109.35 106.25L109.45 106.65V107.05L109.55 107.35H109.35L108.95 107.45L108.45 107.55H108.25L107.95 107.65L107.85 107.55L107.75 107.45H107.65L107.35 107.25H107.25H107.15V107.15L106.85 106.95L106.65 106.85L106.15 106.55L105.95 106.35H105.85L105.65 106.25L105.35 106.05L105.15 105.85L104.55 105.45L103.95 105.05L103.15 104.55L102.95 104.45L102.65 104.25L102.55 104.15L102.25 103.95V104.05H102.35V104.15V104.25V104.35V104.45L102.45 104.55L102.55 104.75L102.85 105.05L102.95 105.15V105.25L103.15 105.45L103.45 105.75V105.85L103.25 106.05L102.75 106.35L102.65 106.45L102.35 106.65H102.25H102.15L101.95 106.75L101.45 106.85H101.25L101.35 107.35L101.45 107.95L101.65 108.75V109.05L101.75 109.35L101.25 109.55L100.45 109.65L99.25 109.95L99.35 110.75L99.15 110.85L97.85 111.05L97.35 111.15L96.45 111.25V111.05H96.25V110.95V110.75H96.15L95.65 110.85L95.05 111.05L93.55 111.35L93.75 112.55L94.55 112.45V112.75L94.65 112.95L94.75 113.65L94.85 114.05V114.45L95.05 115.65V115.85L94.35 115.95V115.85L93.85 115.95H93.65L93.15 116.05L92.65 116.15L92.05 116.25H91.95H91.75L92.25 116.95L92.35 117.05L91.95 117.15H91.55L91.15 117.05L90.65 117.15L90.05 117.25L90.15 117.65H89.85L89.75 117.75L87.75 118.25V118.15H86.85L85.85 118.25L85.75 118.35V118.45L85.65 118.55L85.55 118.75L85.45 118.85L85.35 119.05L85.15 119.15L85.05 119.25L84.95 119.35L84.85 119.45L84.65 119.55H84.55L84.35 119.65H84.25H84.15L83.95 119.75L83.75 119.85H83.55L83.35 119.95L83.05 120.05H82.95L82.85 120.15H82.75H82.55H82.45L82.35 120.25H82.15V120.35H82.05L81.85 120.45L81.55 120.55L81.35 120.75L81.15 120.85H81.05L80.95 120.95H80.85L80.55 121.25H80.45V121.35L80.35 121.25V121.15H80.25V121.05V120.95H80.15V120.85H80.05V120.75H79.95V120.65H79.85V120.55H79.75V120.45H79.65H79.55V120.35H79.45V120.25H79.35H79.25V120.15H79.15H79.05H78.95H78.85V120.05H78.75H78.65H78.55H78.45H78.35H78.25H78.15V119.95H78.05H77.95V120.05H77.85H77.75H77.65H77.55H77.45L77.35 119.95H77.25H77.15H77.05V119.85H76.95H76.85V119.75H76.75H76.65V119.65H76.55L76.45 119.55H76.35V119.45H76.25H76.15V119.35H76.05L75.95 119.25H75.85V119.15H75.75L75.65 119.05H75.55H75.45L75.35 118.95H75.25H75.15L75.05 118.85H74.95H74.85H74.75V118.75H74.65H74.55H74.45V118.65H74.35H74.25H74.15L74.05 118.55H73.95H73.85H73.75V118.45H73.65H73.55H73.45V118.35H73.35H73.25H73.15H73.05H72.95H72.85H72.75H72.65H72.55H72.45H72.35H72.25H72.15H72.05H71.95H71.85V118.45H71.75H71.65H71.55H71.45H71.35L71.15 118.55H71.05H70.95L70.85 118.65H70.75H70.65V118.75H70.55H70.45V118.85H70.35L70.25 118.95H70.15V119.05H70.05V119.15V119.25V119.35H69.95V119.45H69.85V119.55H69.75L69.65 119.65H69.55V119.75H69.45H69.35L69.25 119.85V119.95H69.15V120.05H69.05V120.15H68.95V120.25H68.85V120.35L68.75 120.45V120.55V120.65H68.85L68.95 120.95L68.85 120.75V120.65H68.75H68.65V120.75H68.55V120.85V120.95H68.45V121.05V121.15V121.25V121.35H68.35V121.45V121.55V121.65V121.75H68.25H68.15H68.05H67.95L68.05 121.85V121.95H67.95V121.85H67.85V121.75H67.75V121.65L67.65 121.55L67.55 121.45H67.45V121.35H67.35V121.25H67.25H67.15L67.05 121.15V121.05H66.95V120.95H66.85V120.85H66.75H66.65L66.55 120.75V120.65H66.45L66.35 120.55H66.25L66.15 120.45H66.05H65.95V120.35H65.85H65.75H65.65V120.25H65.55H65.45H65.35L65.25 120.15H65.15H65.05H64.95L64.85 120.05H64.75H64.65H64.55H64.45H64.35H64.25H64.15H64.05H63.95H63.85L63.75 119.95H63.65H63.55H63.45H63.35H63.25H63.15H63.05H62.95V120.05H62.85H62.75H62.65H62.55H62.45H62.35H62.25V120.15H62.15H62.05H61.95H61.85H61.75H61.65V120.05V119.95H61.55H61.45H61.35V120.05L61.25 120.15V120.25L61.15 120.35V120.45H61.05V120.55H60.95V120.65H60.85L60.75 120.55H60.65V120.45H60.55H60.45L60.35 120.35H60.25H60.15H60.05V120.25H59.95H59.85H59.75H59.65H59.55H59.45H59.35H59.25H59.15H59.05H58.95H58.85V120.35H58.75H58.65L58.55 120.45H58.45V120.55H58.35V120.65H58.25V120.75H58.15V120.85V120.95V121.05V121.15V121.25V121.35H58.05V121.45V121.55V121.65V121.75V121.85V121.95H57.95H57.85V121.85H57.75H57.65V121.75H57.55H57.45H57.35H57.25V121.65H57.15V121.55H57.05H56.95H56.85H56.75H56.65H56.55H56.45H56.35V121.45H56.25H56.15H56.05H55.95V121.35H55.85H55.75H55.65V121.25H55.55H55.35L55.15 121.15H55.05H54.95H54.85L54.75 121.05H54.65H54.55H54.45H54.35H54.25H54.15H54.05H53.95V121.15H53.85H53.75H53.65H53.55L53.45 121.25H53.35H53.25H53.05H52.95H52.85H52.75H52.55H52.35H52.25V121.15H52.15H52.05L51.95 121.05L51.85 120.95L51.65 120.85L51.55 120.75H51.45L51.35 120.65L51.15 120.55H51.05L50.95 120.45H50.85L50.75 120.35L50.55 120.25H50.45H50.25L50.15 120.15H50.05L49.55 120.05L49.15 119.95V119.85V119.75V119.65V119.55H49.25V119.45H49.35V119.35H49.45L49.55 119.25L49.65 119.15H49.75V119.05H49.85V118.95V118.85H49.75V118.75V118.65H49.85V118.55V118.45H49.75H49.65H49.55H49.35H49.25H49.15V118.35V118.25V118.15L49.35 118.05L49.55 117.95H49.65L49.95 117.85H50.05V117.75L50.15 117.65H50.25V117.55H50.15L49.75 117.35H49.65L49.55 117.15V117.05V116.95L49.45 116.75V116.45L49.35 116.25V116.05L49.25 115.75V115.45V115.15V114.85L49.35 114.35L49.25 113.95L48.65 113.55L48.45 113.45L48.35 113.35L48.25 113.15L48.15 112.85V112.65L48.05 112.35V112.05L47.95 111.65V111.45L48.05 111.35V111.25L48.25 111.05L48.55 110.75L48.85 110.45V110.35L48.95 110.15L49.15 109.85L49.25 109.75V109.65V109.55L49.15 109.45L49.05 109.35L48.85 109.15L48.75 108.85L48.55 108.55L48.25 108.15L48.05 107.95V107.85L47.95 107.65V107.45V107.35V107.15V107.05V106.75V106.65L48.05 106.35L48.15 105.85L48.25 105.35V105.15V105.05L48.15 104.75V104.65L48.05 104.55L47.95 104.35L47.75 104.15H47.65L47.45 104.05L47.25 103.95H46.95H46.65H46.45H46.25L46.05 104.05H45.95V103.95V103.85L45.85 103.75V103.55V103.45L45.75 103.35L45.65 103.25V103.05V102.85V102.65V102.55V102.45L45.55 102.25V102.05L45.45 101.85H45.35V101.75L45.25 101.65L45.15 101.45L45.05 101.25L44.95 101.15L44.75 101.05L44.65 100.95L44.35 100.75L43.95 100.45L43.75 100.25L43.65 100.15H43.55L43.45 100.05H43.25H43.05L42.85 99.95H42.75L42.55 100.05H42.45L42.35 99.95V99.85V99.65V99.55V99.15V98.95V98.65V98.55V98.45V98.35L42.25 98.25V98.05L42.15 97.85L42.05 97.65L41.95 97.55L41.85 97.45L41.65 97.35L41.55 97.25L41.45 97.15L41.35 96.95L41.15 96.65L41.05 96.45L40.95 96.35V96.25V96.15V95.95L41.05 95.75V95.55V95.45L41.15 95.35V95.25V95.15H41.25H41.35H41.45H41.55H41.65L41.95 94.95L42.25 94.85L42.75 94.75L44.45 94.55L44.85 94.45L44.65 93.85L45.65 93.65L45.75 93.55L46.55 93.45L47.15 93.35L47.35 94.15L47.85 94.05L48.05 93.95L50.05 93.65H50.25L50.35 93.55L50.85 93.45H51.15L51.55 93.35L52.35 93.15H52.45H52.55V93.05L52.45 92.95L52.35 92.75L52.25 92.55V92.35L52.15 91.95L51.95 91.15L51.85 91.05V90.95L52.15 90.85V90.75L53.65 90.45L53.75 90.95L54.05 90.85H54.25L54.95 90.65L54.85 90.25L55.35 90.15L55.25 89.65L55.15 89.25V89.15L55.65 89.05V88.95V88.75L55.55 88.35L55.45 88.25V88.15L55.35 87.75V87.65L55.25 87.35V86.95L55.15 86.65L55.05 86.45L55.55 86.35L55.35 86.15L55.15 85.75L55.05 85.65V85.45L54.95 85.15V85.05V84.95L54.75 84.15L54.65 83.65L54.45 82.55L54.05 80.75V80.65L53.95 80.25L53.85 79.85L53.35 79.95L52.85 80.05L52.75 79.35L51.45 79.65L50.45 79.85L50.35 80.75L50.25 81.05H50.15H49.95L49.65 80.95H49.15H48.95H48.65L48.55 80.85H48.45L48.25 80.95L47.65 81.05L46.85 81.25L46.75 80.85L46.05 81.05H45.75V80.85L45.65 80.25H46.15L45.95 79.65L45.75 78.65L46.25 78.55L46.45 79.45L47.15 79.35L48.15 79.05L48.05 78.65L47.95 77.95L47.75 77.15L47.65 76.35L48.85 76.15L49.25 76.05V75.85L49.05 74.85V74.75V74.65H48.95V74.55L48.85 74.15L48.75 73.55L49.15 73.45L48.85 72.75L48.75 72.85L48.25 72.95L47.45 73.05L46.35 73.35H46.25L45.85 73.45L45.35 73.55L44.75 73.65L44.25 73.75L44.35 74.15L43.75 74.25L43.45 74.35L42.65 74.45V74.55H42.55L41.25 74.75L41.15 74.45L40.95 73.75L40.75 73.05L40.65 72.45L40.25 72.55L39.95 72.65L39.85 72.55H39.75L40.05 71.75L40.25 71.05H39.85L38.95 71.25L37.95 71.45L36.85 71.75L36.15 71.85H36.05L35.65 71.95H35.55V71.85V71.75L35.45 71.35L35.35 71.05V70.65L35.25 70.15L34.85 68.75H34.75L34.25 68.85L33.85 68.95L33.75 68.65L33.65 68.25L33.55 67.75L33.95 67.65L34.75 67.45L34.65 67.15L35.35 67.05L35.65 66.95L35.25 65.85H35.15H34.55L34.45 65.35L34.35 65.25V65.05L34.25 64.75V64.55V64.35L34.15 64.15V64.05V63.95V63.75L34.05 63.25L33.95 62.75L34.85 62.55V62.25L34.75 61.75L34.65 61.45V61.35V61.15L34.55 60.85L34.05 61.05H33.85L32.75 61.25V61.05V60.85L32.65 60.25V59.85V59.55H33.05H33.15H33.45H33.55L33.35 58.65L32.95 56.65H33.15L33.05 56.05L32.95 55.55L32.85 55.15L33.65 54.95L34.35 54.85V54.65L34.25 54.45L34.15 53.95L34.05 53.05V52.95L33.95 52.85H34.15V52.75L34.05 52.05L33.75 52.15L32.95 52.35H32.85L32.35 52.45L32.15 52.55L31.95 52.65L31.85 52.45L31.65 51.85V51.65L31.35 51.75H30.95H30.85L30.45 51.85L30.35 51.35H30.15L29.65 51.65L29.45 51.75L29.35 51.85L28.85 51.95L28.75 51.75V51.65V51.45V51.35H28.65H28.55L28.45 51.45H28.35V51.35H28.25V51.25H28.15H28.05V51.15L27.95 50.95V50.85H27.85V50.95H27.75V50.85L27.65 50.25L27.45 49.75V49.45H27.65L27.85 49.35H28.05L28.35 49.25H28.45H28.55L28.75 49.15H28.95L29.15 49.05L29.05 48.75L28.95 48.45L28.85 48.05H29.15L29.05 47.85V47.65V47.45L28.85 46.85V46.65L28.95 46.55V46.45V46.15L29.25 46.05L29.15 45.65V45.55V45.45L29.25 45.35V45.25H29.65L29.85 45.15H29.75V44.85V44.75L29.65 44.55L29.55 44.25H29.35L29.05 44.35L28.25 44.45L28.05 44.55H27.95L27.25 44.75L26.45 44.85H26.05L25.65 44.95V45.05L25.85 45.85L26.05 46.65L26.15 47.25H26.05L25.95 47.35L25.75 47.45L25.45 47.55L25.25 47.65V47.75H24.75L23.55 47.85H23.15V47.55L23.05 47.45V46.95V46.65L23.45 46.55V46.35V46.15V45.85L23.35 45.35H23.15L22.55 45.55L21.95 45.75L21.65 45.85L21.05 46.05L20.85 45.75V45.55L20.75 45.25L20.05 45.45H19.95L19.45 45.65L18.95 45.85H18.85H18.45L18.05 45.95V45.55L17.75 45.65L16.55 45.85L15.05 46.25L13.55 46.55L13.45 45.95L13.35 45.25L13.25 45.05V44.85L12.35 45.05L11.85 45.15L11.25 45.25L11.05 45.35L10.95 44.85L10.85 44.25L10.75 43.75L10.65 43.15L10.55 42.65L10.75 42.55V42.45L10.65 42.25L10.55 41.75L10.45 41.15L10.15 39.95V39.85L10.05 39.35L9.95001 38.85L9.85001 38.35H9.75V38.15L9.64999 37.65L9.54999 37.05V36.95L9.45001 36.65V36.45H9.54999L9.75 36.35H9.85001L9.95001 36.05H10.25L10.35 35.95H10.65L10.95 35.85H11.25L11.15 35.55L11.05 34.95L10.85 34.15V33.85H11.05H11.35H11.45H11.55L11.65 33.75H11.85H12.05V33.65L11.95 33.55L11.85 32.95V32.85L11.45 32.95L11.35 32.75V32.25L11.15 31.35V31.25L10.95 31.35L10.45 31.45L9.54999 31.65L9.04999 31.75H8.95001L7.95001 31.95L7.35001 32.05L7.14999 32.15H6.85001H6.64999V32.25L6.54999 32.15L6.35001 31.55L6.25 31.15L6.14999 30.95V30.85V30.65L6.04999 30.55V30.35V30.25V30.15L5.95001 29.95V29.75L5.85001 29.45V28.95L5.75 28.85V28.75V28.65V28.55L5.64999 28.35V28.15L5.54999 27.95V27.85V27.55L5.45001 27.05L5.35001 26.45V26.35L5.25 25.95V25.85L5.04999 24.55L4.95001 24.35V24.25V24.15V23.95L4.85001 23.75V23.65V23.55H4.95001V23.45H5.04999V23.35H5.14999V23.25H5.25V23.15H5.35001L5.14999 22.95L5.04999 22.75L4.64999 22.25L4.04999 21.55L3.75 21.35L3.45001 21.15L2.85001 20.65L2.54999 20.55L2.45001 20.45L2.25 20.35V20.05V19.75V19.65V19.55H2.35001L2.25 19.45V19.35V19.25H2.35001L2.25 19.05L2.04999 18.55L1.85001 18.15H1.75V18.05L1.64999 17.85L1.45001 17.45V17.35L1.35001 17.15L1.25 17.05V16.95L1.35001 16.85L1.95001 16.65L2.25 16.55L2.64999 16.35L2.85001 16.25V16.15L2.75 16.05L2.64999 15.75H2.75V15.65L2.54999 15.25L2.25 14.55H2.14999L2.04999 14.15L1.64999 13.35H1.54999V13.45L1.45001 13.55L1.25 13.65L0.649994 13.15L0.25 12.75L0.350006 12.65L0.450012 12.55H0.549988L0.649994 12.45L0.75 12.35V12.45V12.55H0.850006H0.950012V12.65H1.04999L1.25 12.55H1.45001H1.54999H1.64999V12.45V12.35L1.75 12.25H1.85001H1.95001L2.04999 12.05L2.14999 11.95V11.85L2.35001 11.45L2.45001 11.35V11.25V11.15H2.35001V11.05L2.85001 11.15H3.25L3.35001 11.25L3.64999 11.35L4.04999 11.45L4.14999 10.95V10.85L4.45001 10.55H4.54999H4.64999H4.85001H4.95001H5.04999H5.14999H5.25L5.54999 10.65H5.75L6.14999 10.75L6.25 10.55L6.14999 10.45H6.04999H5.95001V10.35H5.85001H5.75L5.64999 10.25V10.15V9.95001V9.85001H5.75L5.85001 9.95001H5.95001H6.04999V10.05H6.14999H6.25V10.15H6.35001V10.25H6.45001V10.35H6.35001V10.55L7.64999 10.25L7.75 10.15H7.85001V10.05V9.35001L6.75 9.15002L5.75 9.05002L5.54999 8.35001L5.45001 7.75V7.55002V7.45001L5.35001 7.35001V7.25V7.15002H5.45001H5.54999H5.64999V7.25H5.75H5.85001V7.15002H5.95001L6.04999 7.05002L6.14999 6.95001L6.35001 6.75L6.45001 6.65002V6.55002L6.35001 6.45001V6.35001V6.25V6.15002V6.05002V5.95001V5.85001V5.75H6.45001L6.54999 5.65002H6.64999H6.75H6.85001H6.95001L7.04999 5.55002H7.14999V5.45001H7.25V5.35001L7.35001 5.25L7.45001 5.15002H7.54999H7.64999H7.75H7.85001V5.05002H7.95001H8.04999V4.95001H8.14999V4.85001V4.75H8.25V4.65002H8.35001H8.45001H8.54999H8.64999L8.85001 4.75L8.95001 4.65002H9.04999H9.14999H9.25V4.75H9.35001V4.85001V4.95001V5.05002V5.15002H9.45001V5.25L9.54999 5.35001H9.64999L9.75 5.45001H9.85001H9.95001H10.15H10.25H10.35H10.45V5.55002H10.55H10.65H10.75H10.85H10.95L11.05 5.45001H11.15H11.25H11.35V5.35001H11.45V5.25H11.55V5.15002L11.65 5.05002V4.95001H11.75V4.85001H11.85H11.95L12.05 4.95001H12.15V5.05002H12.25H12.35H12.45H12.55L12.65 5.15002H12.75L12.85 5.25H12.95L13.05 5.35001H13.15H13.25V5.45001H13.35V5.55002H13.45H13.55H13.65V5.45001V5.35001L13.75 5.25H13.85H13.95H14.05H14.15L14.25 5.15002H14.35H14.45L14.55 5.05002H14.65H14.75H14.85H14.95L15.05 5.15002V5.25V5.35001V5.45001V5.55002L15.15 5.65002V5.75L15.25 5.85001V5.95001L15.35 5.75L15.75 5.25L16.15 4.65002L16.35 4.35001L16.45 4.25L16.55 4.45001L17.15 4.95001L17.55 5.35001L17.65 5.45001L17.75 5.55002V5.65002L17.85 6.05002H18.45L19.15 6.15002V6.05002H19.35V5.95001H19.45H19.55H19.65H19.75H19.95H20.25H20.55L20.65 6.05002H20.75H20.95H21.05V5.95001H21.15V5.75V5.65002V5.55002H21.05V5.45001V5.35001L21.15 5.25H21.25H21.35H21.65H21.95L22.15 5.15002H22.25L22.45 5.05002L22.85 4.95001L22.95 4.85001L22.85 4.75L22.75 4.65002L22.65 4.45001L22.55 4.35001V4.25V4.05002L22.45 3.85001H22.55H22.75L22.85 3.75H23.15H23.35H23.45L23.75 3.65002H24.05H24.15H24.35L24.55 3.55002H24.65L25.05 3.35001L25.35 3.25L25.75 3.15002L25.95 3.05002L26.05 3.15002V3.25V3.35001V3.55002L26.15 3.75L26.75 3.65002H27.05H27.15L27.65 3.55002H27.85H28.25L28.55 3.45001H28.75L29.45 3.35001L29.55 3.65002L29.65 4.05002V4.15002V4.25V4.35001L29.75 4.45001V4.65002L29.85 5.15002H30.15L30.75 5.05002H30.95V4.95001V4.85001H30.85V4.75V4.65002V4.55002L30.95 4.45001V4.35001L31.05 4.25H31.15V4.15002V4.05002H31.25V3.95001L31.15 3.85001V3.75V3.65002V3.55002H31.25V3.45001H31.35V3.55002H31.45V3.65002L31.55 3.95001V4.15002L31.85 4.05002H31.95H32.15L32.35 3.95001H32.65L32.75 4.35001V4.65002L32.85 5.25L32.95 5.65002H33.15H33.45L33.75 5.55002V5.65002H33.85H33.95V5.55002H34.05V5.45001H34.15H34.25L34.35 5.35001H34.45H34.55H34.65H34.75H34.85H34.95L35.05 5.45001V5.55002L35.15 5.65002V5.75V5.85001H35.25V5.75H35.35V5.65002H35.45V5.55002V5.45001H35.55H35.65H35.75H35.85L35.95 5.35001H36.05H36.15V5.25V5.15002V5.05002H36.25H36.35H36.45V5.15002H36.55V5.25H36.65H36.75V5.15002V5.05002V4.95001V4.85001V4.75V4.65002V4.55002V4.45001V4.35001V4.25V4.15002V4.05002V3.95001H36.85H36.95H37.05H37.15H37.25H37.35H37.45H37.55H37.65L37.75 4.05002H37.85V4.15002H37.95H38.05H38.15L38.25 4.05002H38.35V3.95001H38.45V3.85001H38.55H38.65H38.75H38.85H38.95H39.05V3.95001H39.15H39.25H39.35H39.45H39.55H39.65H39.75V3.65002L39.65 3.45001V3.25V3.15002H39.75L39.65 2.85001L39.55 2.25L39.45 1.75L39.35 1.25V1.05002L39.75 0.950013H40.05L40.65 0.75H40.75L40.85 0.650025H40.95H41.05H41.15L41.55 0.550019H41.75L41.95 0.450013H42.15H42.35L42.95 0.25L43.05 0.75L43.15 1.25L43.35 1.15002L44.25 1.05002L44.85 0.950013H44.95L45.85 0.75L46.65 0.650025L47.05 0.550019H47.25V0.75L47.35 1.15002L47.85 1.05002H48.25L48.45 0.950013V1.05002H48.55V1.15002V1.25H48.65L48.75 1.35001H48.85L48.75 1.45001V1.55002V1.65002H48.85H48.95V1.75V1.85001V1.95001H49.05V2.05002H49.15V2.15002H49.25V2.25H49.35V2.35001H49.45V2.45001H49.55V2.55002V2.65002H49.65V2.75V2.85001V2.95001V3.05002H49.75L49.85 3.15002H49.95V3.25V3.35001H49.85V3.45001V3.55002L49.75 3.65002H49.65H49.55H49.45V3.75H49.35V3.85001V3.95001V4.05002V4.15002V4.25H49.45V4.35001H49.55V4.45001H49.65V4.55002H49.75L49.85 4.65002H49.95V4.75L50.05 4.85001H50.15L50.25 5.05002L50.45 5.15002L51.35 4.95001L51.55 5.55002V5.65002L51.65 6.15002L51.85 7.15002L51.95 7.75L52.05 8.35001L52.15 9.05002L52.55 8.85001L53.15 8.65002L53.85 8.45001L54.25 8.25L55.05 7.95001H55.15L55.55 7.85001L56.45 7.45001L56.55 8.25L56.65 9.15002L56.75 9.25H56.85H56.95H57.05H57.15V9.15002H57.25H57.35V9.05002H57.45H57.55V8.95001H57.65H57.75H57.85V8.85001H57.95H58.05H58.15H58.25H58.35H58.45H58.55H58.65H58.75H58.85V8.75H58.95V8.65002H59.05V8.55002H59.15V8.45001H59.25V8.35001H59.35V8.25V8.15002H59.45V8.05002V7.95001H59.55H59.65H59.75H59.85V8.05002L59.95 8.25V8.35001L60.05 8.95001L60.15 9.15002V9.25L60.25 9.65002H60.45L60.65 9.55002H60.95L61.35 9.45001H61.45L61.35 8.85001V8.75L61.95 8.65002L62.95 8.45001L63.75 8.25H63.95L64.05 8.15002H64.45L64.85 8.05002V8.35001L65.05 9.35001L65.25 10.45V10.55L65.35 10.95L65.45 11.25L64.85 11.45L64.25 11.55V11.65L64.15 11.75V11.85V11.95H64.05V12.05V12.15V12.25L63.95 13.05H64.05L64.45 12.95H64.85L64.95 13.15L65.05 13.65L65.15 14.05L65.35 13.95H65.45H65.55H65.65V13.85L65.75 13.75L65.85 13.65L65.95 13.45L66.05 13.35V13.25H66.15V13.15H66.05V13.05V12.95V12.85V12.65H66.95H67.35H67.65L68.05 12.55V12.45L67.95 11.95L67.75 10.85L67.65 10.05L67.55 9.75L67.95 9.65002L68.25 9.55002H68.35H68.45L68.65 9.75L68.75 10.15L68.85 10.25L68.95 10.35V10.25V10.15V10.05H69.05H69.15H69.25H69.35V9.95001H69.45L69.65 9.85001H69.75L69.65 9.35001V9.15002V9.05002V8.95001V8.85001V8.75V8.65002L69.75 8.55002L69.65 8.15002L70.15 8.05002H70.45L70.65 7.95001H70.75H70.85L71.35 7.75H71.65L71.75 7.65002H71.95V7.75L72.25 7.65002L72.35 8.15002V8.25L72.45 8.45001H72.55V8.75L72.65 9.15002L72.95 9.05002L73.55 8.95001L73.95 8.85001L74.55 8.75H74.85V8.85001H74.75V8.95001H74.65L74.75 9.05002V9.15002H74.85L74.95 9.05002V9.25L75.15 10.25L75.25 10.75H75.35H75.45H75.65H75.75L75.95 10.65H76.05H76.15H76.25L76.35 10.55H76.65L77.45 10.45L77.95 10.35L78.95 10.15L79.05 10.65L79.15 11.25L79.25 12.05L79.35 12.45L79.45 13.05L79.55 13.65L79.65 14.05V14.15L79.75 14.45V14.55V14.65L79.05 14.75H78.95L78.75 14.85L77.65 15.05L77.05 15.15V15.45L77.15 15.75L77.25 16.05V16.15L77.35 16.85L77.45 17.35L77.55 18.35L77.65 18.85L77.75 19.35L77.85 19.65V19.85V20.15L77.95 20.55L78.05 20.95L78.15 21.35V21.95V22.05H78.25V22.15H78.35V22.05H78.45H78.55H78.65V21.95H78.75H78.85V22.05H78.95V21.95V21.85H79.05V21.75H79.15V21.65V21.55V21.45H79.25H79.35V21.35H79.25V21.25H79.35H79.45V21.15H79.55V21.05H79.45V20.95H79.55V20.85H79.65L79.75 20.95V21.25H79.85H79.95L80.05 21.15H80.35L80.55 21.05H80.65V20.85H80.75H80.85H80.95H81.05H81.15H81.25L81.35 20.75H81.45H81.55H81.65H81.75H81.85H81.95H82.05H82.15L82.45 20.65H82.65L82.85 20.55L82.95 20.95L83.05 22.15L83.25 23.05L83.45 24.15H83.55L83.65 24.05H83.75H83.95L84.25 23.95H84.35H84.45H84.55V24.15V24.25V24.35V24.55V24.65V24.75V24.85V24.95L84.65 25.05V25.15L84.75 25.25V25.35V25.45H84.85V25.55V25.65V25.75V25.85H84.75H84.65V26.05V26.15V26.35V26.65H84.75V26.75H84.95V26.85V26.95V27.05L85.05 27.15V27.25V27.35V27.45H85.15V27.55V27.65V27.75H85.25V27.85H85.15V27.95H85.05H84.75L83.55 28.05L83.45 28.15V28.25V28.45L83.55 28.95L83.65 29.15L83.35 29.25V29.45V29.55L83.45 29.95H83.65V30.05V30.15L83.75 30.25V30.35V30.45H83.85V30.55H83.95V30.65H84.05V30.75H84.15V30.85H84.25V30.95H84.15V31.05V31.15H84.05L83.95 31.25L83.35 31.35L82.75 31.45L82.25 31.55L82.05 31.65V32.15L82.15 32.45L82.25 32.75L82.35 33.15V33.35V33.45L82.45 33.95L82.55 34.15V34.25L83.25 34.15L83.85 34.05L84.35 33.95V33.85L85.25 33.65L86.15 33.45H86.55L87.35 33.25L87.95 33.15L88.75 33.05L88.85 32.95L88.65 32.15L89.25 32.05H89.45L89.65 31.95H90.15L90.65 31.85H90.75L90.95 31.75H91.05H91.15H91.25L91.35 31.65H91.45V31.75V31.85V31.95H91.65L92.05 31.85L92.35 31.75H92.75L92.95 31.65L93.45 31.55L93.55 31.95L93.65 32.15V32.35L93.75 32.55L94.05 32.45H94.45L94.55 32.35L94.75 33.15H95.05V33.25L95.15 33.65V33.95L95.25 34.15V34.25L95.85 34.15L96.25 34.05L96.35 34.65L96.45 35.05V35.45L96.55 36.05L96.65 36.15H96.75H97.15L97.25 36.05H97.55V36.15H97.45V36.25H97.55V36.35H97.65V36.45L97.75 36.55V36.65V36.75H97.85V36.65H97.95H98.05V36.55L98.15 36.45H98.05V36.35H98.15H98.25V36.25H98.35H98.45V36.15V36.05H98.55V35.95H98.45V35.85H98.55H98.65V36.05L98.75 36.35V36.45V36.55H98.85H99.05L99.55 36.45L100.05 36.35L100.65 36.25L101.25 36.05L101.85 35.95L102.35 35.85L102.25 35.05L102.15 34.45L102.05 33.85L101.95 33.55L102.55 33.35H102.85L102.75 32.85V32.45L102.65 32.05V31.75H102.75H103.05L103.35 31.65L104.15 31.45H104.55L105.25 31.25H105.45H105.55L105.85 31.15H105.95H106.05V31.25H106.15V31.35H106.25L106.15 31.45H106.25H106.35V31.55H106.45V31.45H106.55L106.65 31.55H106.75H106.85V31.45L106.95 31.85V31.75H107.05V31.85H107.15H107.25V31.95V32.05V32.15V32.25H107.35V32.35L107.45 32.55H107.55V32.65L107.65 32.75H107.75V32.85H107.85V32.95H107.95H108.05H108.15V33.05L108.25 33.15L108.35 33.25H108.45V33.35H108.55V33.45H108.65V33.55H108.75L108.85 33.65H108.95V33.75H109.05H109.15L109.25 33.65V33.55V33.45H109.35V33.35V33.25H109.45L109.65 33.35V33.25L109.75 33.15L109.85 33.05H109.95H110.05H110.15L110.25 32.95V33.05H110.35H110.45V32.95H110.55H110.65V32.85H110.75H110.85H110.95H111.05V32.95V33.05H110.95V32.95H110.85H110.75V33.05V33.15L110.85 33.25H110.95H111.05H111.15H111.25V33.15H111.35H111.45H111.55V33.05H111.65H111.75V32.95H111.85V32.85V32.75H111.95H112.05V32.85H112.15V32.95V33.15V33.35L112.25 33.65H112.35H112.45H112.55H112.65L112.75 33.55H112.95H113.15L113.55 33.45L113.75 33.35H114.05H114.15H114.35L114.45 33.25H114.65L114.85 33.15H115.05L115.75 33.05H115.95L116.55 32.95L117.85 32.65L118.35 32.55L119.35 32.45L119.55 32.35H119.65L120.15 32.25L120.65 32.15H120.95H121.05V32.05H121.55L122.05 31.95L122.25 31.85L122.15 31.75V31.65H122.25H122.65L123.45 31.45L123.85 31.35V30.95V30.75L123.95 30.65L124.25 29.95L124.55 29.75L124.65 29.65L124.75 29.45L124.85 29.05L124.95 28.95L124.85 28.85V28.75L124.75 28.65V28.55L124.65 28.75L124.45 28.95V28.75V28.65L124.35 28.15L124.25 27.55L125.25 27.45L125.15 26.25L125.05 26.05V25.95V25.85L124.95 25.75V25.65V25.45L124.85 24.85L124.45 24.95H124.15L123.85 25.05L123.75 24.75L123.65 24.35L123.55 23.75H123.65L124.65 23.55L125.35 23.45H125.45L125.75 23.35H125.85L126.25 23.25L126.95 23.15L127.55 23.05L128.35 22.95V22.85H128.25V22.75V22.65V22.55L128.15 22.45L128.05 22.35V22.25L127.95 22.15L127.85 22.05L127.95 21.95V21.85V21.75V21.65V21.55L127.85 21.45L125.85 21.85V21.65L125.75 20.85L125.65 20.45L125.55 19.85V19.35L125.45 19.25L126.55 19.05L129.25 18.55H129.35H129.75L129.85 18.45H129.95H130.05H130.25L130.55 18.35H130.75L130.85 18.75V18.95V19.15L130.95 19.25H131.15V19.35V19.75L131.35 19.65H131.45L131.55 19.75L131.65 19.45H131.75L132.35 19.35L132.65 19.25H132.75L133.65 19.05L134.25 18.95H134.35L134.45 19.05V19.15H134.75L135.45 18.95H135.85L135.55 17.55L135.45 16.85V16.65L135.35 16.35L135.25 16.25H135.15H135.05V16.15H134.95H134.85V16.05H134.75L134.65 15.45L135.15 15.25V15.35L135.25 15.75L135.85 15.65L136.95 15.45L136.75 15.05L137.75 14.85H137.85L138.25 14.75H138.35V14.65H138.45V14.75L138.55 14.85V14.95L138.75 15.15H138.85L139.05 15.05L139.35 14.85L139.55 14.75L139.85 14.65L140.25 14.35L140.65 14.25L140.75 14.95L140.95 16.05L141.05 16.75L141.25 17.75L141.35 18.55V18.65Z" fill="#220F0F"/>
<path d="M79.05 137.85V137.75L78.95 137.65V137.55L78.85 137.45L78.75 137.35V137.25L78.65 137.15V137.05L78.55 136.95V136.85L78.45 136.75L78.35 136.65H78.25V136.55L78.15 136.45L78.05 136.25H77.95L77.85 136.15V136.05L77.75 135.95H77.65V135.85H77.55V135.75H77.45V135.65H77.35M79.05 137.85V137.95M79.05 137.85H78.95V137.75H78.85H78.75H78.65V137.85V137.95H78.75V138.05H78.85V138.15H78.95V138.25H79.05M79.05 138.25V138.15M79.05 138.25H79.15V138.15M79.05 138.15H79.15M79.05 138.15V138.05H79.15V138.15M79.15 138.15H79.25V138.25V138.35L79.35 138.45V138.55H79.45V138.65H79.35H79.25L79.15 138.55H79.05V138.45H78.95L78.85 138.35H78.75M78.75 138.35V138.25M78.75 138.35V138.45M78.75 138.45H78.85V138.55M78.75 138.45L78.85 138.55M78.75 138.45L78.65 138.35L78.45 138.15L78.35 137.95V137.85L78.25 137.75L78.15 137.65V137.55L78.05 137.45V137.35V137.25H77.95V137.15H77.85V137.05V136.95L77.75 136.85V136.75V136.65V136.55H77.65V136.45V136.35L77.55 136.25V136.15L77.45 136.05V135.95L77.35 135.85V135.75V135.65M78.85 138.55H78.95V138.65M78.85 138.55L78.95 138.65M78.95 138.65H79.05M77.35 135.65L77.25 135.55V135.45L77.15 135.35V135.25H77.05V135.15V135.05V134.95V134.85H77.15V134.95H77.25V135.05V135.15V135.25V135.35L77.35 135.45V135.55V135.65ZM76.75 134.65V134.75H76.85H76.95L76.85 134.65H76.75ZM76.75 134.65L76.65 134.55V134.45L76.75 134.55V134.65ZM75.75 133.95H75.85H75.95V134.05H76.05V133.95V133.85H75.95H75.85V133.75V133.65L75.75 133.55V133.45H75.65H75.55V133.35H75.45V133.25H75.35V133.15V133.05V132.95V132.85V132.75V132.65V132.55V132.45V132.35L75.45 132.25V132.15V132.05V131.95V131.85V131.75H75.55V131.65L75.65 131.55V131.45H75.75V131.35V131.25H75.85V131.15H75.95V131.05H76.05V130.95H76.15V130.85L76.25 130.75H76.35H76.45V130.65H76.55H76.65L76.75 130.55H76.85L76.95 130.45L77.05 130.35H77.15H77.25H77.35L77.45 130.25H77.55H77.65H77.75V130.15H77.85H77.95H78.05H78.15H78.25H78.45H78.55H78.65H78.75V130.25H78.85H79.05H79.15L79.25 130.35H79.35H79.45L79.55 130.45H79.65H79.85V130.55H79.95H80.05H80.15L80.25 130.65H80.45L80.65 130.75L80.95 130.85L81.05 130.75L81.15 130.45L81.25 130.15V130.05L81.35 129.85L81.65 129.65V129.55H81.85V129.45L82.15 129.35H82.25H82.35H82.45L82.75 129.45H82.95L83.05 129.35L83.55 128.05H83.45H83.35H83.25M75.75 133.95V133.85H75.65V133.75H75.55M75.75 133.95H75.65H75.55M75.75 133.95V134.05H75.85V134.15V134.25H75.95V134.35M75.55 133.75V133.65H75.45M75.55 133.75H75.45M75.55 133.75V133.85V133.95M75.45 133.65H75.35M75.45 133.65V133.75M75.35 133.65V133.55H75.25M75.35 133.65L75.25 133.55M75.35 133.65V133.75H75.45M75.25 133.55V133.45H75.15M75.25 133.55L75.15 133.45M75.15 133.45H75.05V133.35L74.95 133.25L74.85 133.15V133.05H74.75V132.95H74.65V132.85H74.55V132.75H74.45V132.65L74.35 132.55H74.25V132.45V132.35H74.15V132.25L74.05 132.15L73.95 132.05L73.85 131.95L73.75 131.85V131.75H73.65V131.65H73.55V131.55L73.45 131.45L73.35 131.35L73.25 131.25V131.15H73.15V131.05H73.05V130.95H72.95V130.85H72.85V130.75H72.75V130.65H72.65V130.55H72.55V130.45V130.35H72.45V130.25H72.35V130.15H72.25V130.05L72.15 129.95H72.05L71.95 129.85V129.75H71.85V129.65H71.75V129.55H71.65V129.45H71.55H71.45V129.35H71.35V129.25H71.25V129.15H71.15V129.05H71.05V128.95H70.95V128.85H70.85V128.75H70.75V128.65H70.65V128.55H70.55H70.45V128.45H70.35V128.35H70.25V128.25H70.15V128.15H70.05H69.95V128.05H69.85V127.95H69.75V127.85H69.65L69.55 127.75H69.45V127.65H69.35V127.55H69.25L69.15 127.45H69.05V127.35H68.95V127.25H68.85V127.15H68.75V127.05H68.65L68.55 126.95L68.45 126.85L68.35 126.75L68.25 126.65H68.15V126.55H68.05V126.45H67.95V126.35L67.85 126.25H67.75V126.15L67.65 126.05V125.95H67.55L67.45 125.85L67.35 125.75V125.65H67.25V125.55L67.15 125.45L67.05 125.35L66.95 125.25V125.15L66.85 125.05L66.75 124.95V124.85M75.45 133.75L75.55 133.95M75.55 133.95L75.75 134.15L75.85 134.35H75.95M75.95 134.35H76.05V134.45M75.95 134.35V134.45H76.05M76.05 134.45H76.15M76.05 134.45V134.55M66.75 124.85H66.65V124.75M66.75 124.85V124.75H66.65M66.75 124.85L66.85 124.95L67.05 125.15L67.15 125.25L67.35 125.45H67.45L67.55 125.55L67.75 125.75L67.85 125.85L68.15 125.95L68.35 126.15H68.55L68.65 126.25L68.75 126.35H68.85L68.95 126.45H69.05L69.15 126.55H69.25H69.35H69.45V126.65H69.55H69.65H69.75H69.85H69.95L70.05 126.55H70.15H70.25H70.35H70.45H70.55H70.65H70.75L70.85 126.45H70.95H71.05H71.15H71.25H71.35H71.45H71.55H71.65H71.75H72.15H72.25H72.35H72.45H72.55H72.65L72.75 126.55H72.85H72.95H73.05H73.15L73.35 126.65H73.45H73.55H73.65H73.75H73.85V126.55H73.95H74.05M66.65 124.75H66.55V124.65V124.55M66.65 124.75V124.65L66.55 124.55M66.55 124.55L66.45 124.45V124.35M66.55 124.55V124.45V124.35H66.45M66.45 124.35V124.25M66.45 124.25H66.35V124.15V124.05M66.45 124.25V124.15L66.35 124.05M66.35 124.05V123.95M66.35 123.95H66.25V123.85M66.35 123.95L66.25 123.85M66.25 123.85H66.15V123.75M66.25 123.85L66.15 123.75M66.15 123.75V123.65H66.05M74.05 126.55V126.65H74.15V126.55M74.05 126.55H74.15M74.15 126.55H74.25M74.25 126.55V126.65V126.75H74.35V126.65V126.55M74.25 126.55H74.35M74.35 126.55H74.45M74.35 126.55V126.45H74.45H74.55V126.35H74.65H74.75H74.85H74.95H75.05M75.05 126.35V126.45M75.05 126.35V126.25H75.15H75.25H75.35V126.15H75.45H75.55H75.65H75.75V126.05H75.85H75.95H76.05H76.15H76.25H76.35V126.15L76.45 126.05H76.55H76.65H76.75H76.85H76.95H77.05H77.15V125.95H77.25H77.35H77.45H77.55H77.65H77.75H77.85H77.95H78.05H78.15H78.25H78.35H78.45H78.55V126.05H78.65H78.75V126.15H78.85H78.95V126.25H79.05H79.15L79.25 126.35M79.25 126.35H79.15M79.25 126.35H79.35V126.45H79.25V126.55H79.35V126.65H79.45V126.75H79.55H79.65V126.85H79.75H79.85H79.95V126.95H80.05H80.15M80.15 126.95V126.85M80.15 126.95H80.25V127.05L80.35 127.15H80.45V127.25H80.55H80.65V127.35H80.75H80.85H80.95V127.45H81.05H81.15H81.25V127.35H81.35H81.45V127.45H81.55H81.65V127.55H81.75V127.65H81.85H81.95H82.05H82.15V127.75V127.85H82.25H82.35V127.75V127.65H82.45V127.75H82.55H82.65V127.85H82.75H82.85H82.95M82.95 127.85V127.75M82.95 127.85H83.05V127.95H83.15V128.05H83.25M83.25 128.05V127.95M60.95 122.15V122.25H61.05V122.35V122.45H61.15V122.35V122.25V122.15V122.05V121.95H61.05V121.85H60.95H60.85V121.95M60.95 122.15H61.05M60.95 122.15V122.05H60.85V121.95M60.85 121.95H60.75M149.25 75.25V75.35H149.35H149.45V75.25L149.55 75.15H149.65H149.75H149.85H149.95V75.05V74.95H150.05V74.85H150.15V74.95H150.25H150.35V74.85H150.45L149.95 74.45L149.75 74.25L148.95 73.55L148.55 73.15L148.05 72.65L148.25 72.35L147.95 72.25L147.85 72.15L147.25 71.95V71.85L147.15 71.65L146.45 71.75V71.55L146.35 71.05L146.25 70.95L146.45 70.85L146.65 70.75V70.65L146.75 70.15V70.05H146.65L146.45 69.25L146.35 68.65L147.15 68.45L147.45 68.35L147.55 68.25H147.75L147.85 68.15V68.05V67.95V67.85H148.15L148.05 67.55H147.95V67.45V67.35V67.15V67.05H147.85V66.95V66.85V66.75L147.75 66.35L147.65 65.65L147.55 64.85L147.45 64.45L147.35 63.95L147.25 63.55L146.25 63.75L145.45 63.95H145.15L143.15 64.35V64.25L143.05 63.85V63.65L142.95 63.35L142.85 62.95H142.95L142.85 62.65V62.35L142.75 62.15V61.75L142.65 61.35V61.05L143.05 60.95L142.95 60.15L142.85 59.75L143.85 59.55V59.35V59.25L143.75 58.65L143.55 57.75L144.45 57.35L144.65 57.25L144.75 57.65V58.05V58.65V58.75V59.55V59.95V60.65V61.35V61.95L145.35 61.85L146.15 61.75L146.95 61.55L147.65 61.45L148.15 61.35L147.85 59.95L147.75 59.45V58.65L147.65 57.65L147.55 57.15H147.65L147.55 56.85H147.75L147.65 56.45L147.55 55.85L147.35 54.75H147.45L147.85 54.55L148.55 54.25L148.45 53.45L148.35 52.95L148.25 52.35V52.15L146.95 52.75L145.95 53.35V53.25V53.15L145.85 52.45L145.75 51.85L145.65 51.45V51.05L145.75 50.85V50.35L145.85 49.55V49.45V48.95L145.95 48.45V48.05L145.25 48.15L144.35 48.25H143.25L142.95 48.35H142.85H142.15L141.05 48.45L140.45 48.55H139.65L139.25 48.65L139.15 48.55V48.45V48.35V48.25V48.15V48.05L139.25 47.95H139.35V47.85H139.45L139.55 47.75H139.65V47.65V47.55V47.45H139.75V47.55H139.85V47.65H139.95V47.55L140.05 47.45V47.35H140.15V47.45V47.55H140.25V47.65H140.35V47.55H140.45L140.55 47.45H140.65V47.35V47.25H140.55V47.15V47.05V46.95H140.45V46.85H140.55V46.75L140.65 46.65H140.75H140.85H141.05L140.95 46.55V46.45V46.25V46.15H140.85V46.05V45.95V45.85V45.45L140.75 44.85L140.65 44.75V44.35L140.55 43.85L140.45 43.15L140.35 42.35L140.25 42.25L140.15 41.55L140.05 40.95L139.85 39.25L139.75 38.75V38.65H139.85L140.45 38.55H140.85L141.55 38.45V38.25V37.95L142.85 37.75H143.25L143.75 37.65L144.25 37.55H144.65L144.75 37.45L144.65 36.45L144.55 36.05V35.65L143.95 35.75L143.85 35.55L143.75 35.05V34.55L143.65 34.25L144.25 34.15H144.55V33.75L144.45 33.35L144.35 32.55L144.25 32.15L144.15 31.15L144.05 30.45L144.75 30.35L145.25 30.25V30.15L145.15 29.45L144.95 28.55L144.75 27.35V27.05L144.65 26.65H144.75L145.55 26.45L145.45 25.95L145.25 24.65L145.15 24.35V24.15V23.95V23.85H144.85L144.75 23.95H144.55H144.45L144.15 24.05L143.85 24.15H143.55L143.45 24.25L142.65 24.35L142.15 24.55H141.85H141.75H141.65V24.45H141.55V24.35H141.45V24.25H141.35V24.15H141.25V24.05V23.95V23.85H141.15V23.75V23.65H141.05V23.55V23.45V23.35V23.25V23.15H140.95V23.05V22.95H140.85V22.85V22.75H140.95L141.35 22.65H141.45H141.55L141.45 22.05V21.75L141.35 21.65V21.25L141.25 20.55V20.35V20.25H141.15H140.95L140.85 19.45V19.35L140.95 18.95V18.85H141.05H141.15L141.25 18.75H141.35V18.65V18.55L141.25 17.75L141.05 16.75L140.95 16.05L140.75 14.95L140.65 14.25L140.25 14.35L139.85 14.65L139.55 14.75L139.35 14.85L139.05 15.05L138.85 15.15H138.75L138.55 14.95V14.85L138.45 14.75V14.65H138.35V14.75H138.25L137.85 14.85H137.75L136.75 15.05L136.95 15.45L135.85 15.65L135.25 15.75L135.15 15.35V15.25L134.65 15.45L134.75 16.05H134.85V16.15H134.95H135.05V16.25H135.15H135.25L135.35 16.35L135.45 16.65V16.85L135.55 17.55L135.85 18.95H135.45L134.75 19.15H134.45V19.05L134.35 18.95H134.25L133.65 19.05L132.75 19.25H132.65L132.35 19.35L131.75 19.45H131.65L131.55 19.75L131.45 19.65H131.35L131.15 19.75V19.35V19.25H130.95L130.85 19.15V18.95V18.75L130.75 18.35H130.55L130.25 18.45H130.05H129.95H129.85L129.75 18.55H129.35H129.25L126.55 19.05L125.45 19.25L125.55 19.35V19.85L125.65 20.45L125.75 20.85L125.85 21.65V21.85L127.85 21.45L127.95 21.55V21.65V21.75V21.85V21.95L127.85 22.05L127.95 22.15L128.05 22.25V22.35L128.15 22.45L128.25 22.55V22.65V22.75V22.85H128.35V22.95L127.55 23.05L126.95 23.15L126.25 23.25L125.85 23.35H125.75L125.45 23.45H125.35L124.65 23.55L123.65 23.75H123.55L123.65 24.35L123.75 24.75L123.85 25.05L124.15 24.95H124.45L124.85 24.85L124.95 25.45V25.65V25.75L125.05 25.85V25.95V26.05L125.15 26.25L125.25 27.45L124.25 27.55L124.35 28.15L124.45 28.65V28.75V28.95L124.65 28.75L124.75 28.55V28.65L124.85 28.75V28.85L124.95 28.95L124.85 29.05L124.75 29.45L124.65 29.65L124.55 29.75L124.25 29.95L123.95 30.65L123.85 30.75V30.95V31.35L123.45 31.45L122.65 31.65H122.25H122.15V31.75L122.25 31.85L122.05 31.95L121.55 32.05H121.05V32.15H120.95H120.65L120.15 32.25L119.65 32.35H119.55L119.35 32.45L118.35 32.55L117.85 32.65L116.55 32.95L115.95 33.05H115.75L115.05 33.15H114.85L114.65 33.25H114.45L114.35 33.35H114.15H114.05H113.75L113.55 33.45L113.15 33.55H112.95H112.75L112.65 33.65H112.55H112.45H112.35H112.25L112.15 33.35V33.15V32.95V32.85H112.05V32.75H111.95H111.85V32.85V32.95H111.75V33.05H111.65H111.55V33.15H111.45H111.35H111.25V33.25H111.15H111.05H110.95H110.85L110.75 33.15V33.05M149.25 75.25H149.15M149.25 75.25V75.15H149.35V75.05M149.35 75.05H149.45M149.35 75.05V74.95H149.25V75.05H149.15H149.05H148.95H148.85V75.15H148.75V75.25L148.65 75.35V75.45H148.55H148.45H148.35L148.25 75.35H148.15L148.05 75.25H147.95H147.85H147.75V75.35H147.65H147.55V75.45V75.55V75.65V75.75V75.85V75.95V76.05L147.65 76.15V76.25V76.35H147.75V76.45L147.85 76.65L147.95 76.75L148.05 76.85H148.25H148.35V76.95V77.05H148.25L148.15 77.15V77.25H148.05H147.95L147.85 77.35V77.45H147.75H147.65H147.55H147.45H147.35V77.35H147.25H147.15V77.45H147.05V77.35H146.95V77.25H146.85L146.75 77.15V77.05H146.65L146.55 76.95L146.45 76.85V76.75V76.65V76.55H146.55V76.45H146.45V76.35L146.35 76.15H146.25V76.05L146.15 75.95H146.05H145.95H145.85H145.75H145.65H145.55H145.45V76.05L145.35 76.15H145.25H145.15H145.05V76.05H144.95V75.95H144.85H144.75V76.05V76.15H144.85V76.25H144.95V76.35H144.85H144.75H144.65V76.25L144.55 76.15H144.45V76.25V76.35V76.45V76.55H144.35V76.65H144.45V76.75V76.85V76.95V77.05H144.55V77.15V77.25L144.45 77.35V77.45H144.55V77.55V77.65H144.45V77.75H144.35V77.85H144.25V77.95H144.15V78.05H144.05V78.15H143.95V78.25H143.85V78.35H143.75H143.65H143.55H143.45V78.45H143.35H143.25H143.15L143.05 78.55H142.95V78.65V78.75V78.85V78.95V79.05L143.05 79.15V79.25V79.35H142.95H142.85H142.75H142.65L142.55 79.45H142.45V79.35H142.35L142.25 79.25H142.15L142.05 79.15H141.95L141.85 79.05V78.95H141.75V78.85V78.75H141.85V78.65V78.55V78.45L141.75 78.35V78.25L141.65 78.15L141.55 78.05V77.95H141.45H141.35H141.25H141.15V78.05V78.15V78.25H141.25V78.35H141.35V78.45H141.25H141.15V78.35H141.05H140.95H140.85H140.75V78.45H140.65H140.55V78.35H140.65V78.25H140.75L140.65 78.15H140.55H140.45V78.25H140.35H140.25V78.35H140.15H140.05L139.15 78.45V78.75V78.85L139.05 78.95V79.15L138.95 79.45L138.85 79.65L138.75 80.05L138.65 80.15V80.25L138.55 80.35V80.45L138.45 80.55L138.35 80.65L138.25 80.85L138.05 80.95L137.95 81.15L137.75 81.35V81.45H137.65H137.55V81.55H137.45H137.35H137.25V81.65H137.15L137.05 81.75V81.85L136.95 81.95V82.05L137.05 82.15V82.25V82.35V82.45H137.15V82.55V82.65H137.05V82.75V82.85H136.95L136.85 82.95L136.75 83.05V83.15H136.65V83.25V83.35V83.45H136.55V83.55L136.45 83.65L136.55 83.85L136.65 83.95V84.05V84.15L136.75 84.25V84.35V84.55L136.85 84.65V84.75V84.85L136.75 84.95V85.05H136.65V85.15V85.25L136.55 85.35V85.45V85.55H136.65V85.65V85.75L136.75 85.85V85.95H136.85V86.05L136.95 86.15H137.05V86.25H137.15H137.25H137.35V86.35L137.45 86.45H137.55L138.65 87.15L138.85 87.35L139.25 87.55L139.35 87.65L141.15 88.75L141.75 89.05V89.15L142.05 89.35L142.55 89.55L142.75 89.15L143.05 88.65L143.35 87.95L143.75 87.25L144.85 87.85L145.15 87.35L145.25 87.05L145.65 86.45L145.95 85.85L146.15 85.45L146.25 85.35L146.35 85.15L146.25 85.05L145.95 84.85L145.65 84.75L145.35 84.55H145.25L145.35 84.45L145.45 84.15L145.65 83.85L145.85 83.45L146.45 82.35L146.65 82.45L146.75 82.55L146.85 82.65L147.35 82.85L147.65 83.05L147.85 83.15L148.45 83.45L149.05 83.75V83.85H149.15L148.75 84.55L147.55 86.65L146.45 88.55L145.85 89.65L145.65 89.45L144.75 91.05L144.65 90.95L144.55 90.85L143.75 92.25L143.25 93.05L142.45 94.35L142.25 94.55L140.65 93.55L139.45 92.75L138.65 92.25L138.05 93.25L137.85 93.45V93.55V93.75L138.25 94.65L138.45 95.75L138.55 96.05V96.55L139.35 96.45L139.75 96.35L139.95 96.25L140.05 96.75L140.15 97.45H140.05H139.65L138.65 97.65L137.65 97.85L137.25 97.95V98.25L137.35 98.75L137.45 98.95V99.15H137.35L136.25 99.35L135.15 99.55L133.95 99.85L133.35 99.95H133.25L133.15 100.15L133.05 100.25H133.15V100.35V100.45V100.55V100.65V100.75H133.05V100.85L132.95 100.95L132.85 101.05L133.45 101.45H133.55H133.65H133.75V101.55H133.85V101.65H133.95H134.05L134.35 101.55H134.75L135.15 101.45L135.75 101.35L136.05 101.25H136.45L136.95 101.15V101.25V101.55L137.05 101.95L137.15 102.45L137.45 102.35L138.45 102.25V102.35L138.55 103.05H138.45L137.55 103.25L137.05 103.35L136.35 103.45L135.75 103.55L135.65 103.65H135.55L134.75 103.85L133.85 103.95L132.85 104.15L132.45 104.25L131.75 104.35L131.85 104.75H131.65L130.15 104.95L129.85 105.05V105.15L129.95 105.25L130.05 105.45H129.95L129.85 105.55H129.75V105.65V105.75H129.65H129.55V105.85H129.45L129.35 105.55V105.45H129.25V105.25L128.85 105.35L128.35 105.45V105.35V105.25H128.25L127.65 105.35L126.75 105.55H126.45L126.35 105.75H126.15H126.05H125.95V105.65L125.85 105.15L125.75 104.75L125.45 102.85V102.65L123.45 103.05H123.05L122.55 103.15L121.85 103.25H121.75H121.65L121.55 102.95L120.55 103.15L120.25 103.25L120.15 102.85L119.85 102.95V102.65H119.55V102.35V102.25V101.95L118.95 102.05L118.35 102.15L118.25 101.55L118.15 101.15L117.65 101.25V101.35L117.75 101.45V101.75L117.85 102.25V102.35L118.05 103.55L117.15 103.75H117.25V103.85V104.15L117.35 104.55L117.45 105.05L117.55 105.55H117.45L117.15 105.65H117.05H116.95H116.85L116.45 105.75L115.95 105.85H115.85H115.65L115.55 105.95H115.25H114.95L114.35 106.05L114.25 105.55L114.15 104.65L114.05 104.35V104.25L113.45 104.35L112.65 104.45L112.55 104.55H112.15L111.95 104.65H111.85H111.65L111.25 104.75L110.55 104.85L109.15 105.05V105.15L109.25 105.75L109.35 106.25L109.45 106.65V107.05L109.55 107.35H109.35L108.95 107.45L108.45 107.55H108.25L107.95 107.65L107.85 107.55L107.75 107.45H107.65L107.35 107.25H107.25H107.15V107.15L106.85 106.95L106.65 106.85L106.15 106.55L105.95 106.35H105.85L105.65 106.25L105.35 106.05L105.15 105.85L104.55 105.45L103.95 105.05L103.15 104.55L102.95 104.45L102.65 104.25L102.55 104.15L102.25 103.95V104.05H102.35V104.15V104.25V104.35V104.45L102.45 104.55L102.55 104.75L102.85 105.05L102.95 105.15V105.25L103.15 105.45L103.45 105.75V105.85L103.25 106.05L102.75 106.35L102.65 106.45L102.35 106.65H102.25H102.15L101.95 106.75L101.45 106.85H101.25L101.35 107.35L101.45 107.95L101.65 108.75V109.05L101.75 109.35L101.25 109.55L100.45 109.65L99.25 109.95L99.35 110.75L99.15 110.85L97.85 111.05L97.35 111.15L96.45 111.25V111.05H96.25V110.95V110.75H96.15L95.65 110.85L95.05 111.05L93.55 111.35L93.75 112.55L94.55 112.45V112.75L94.65 112.95L94.75 113.65L94.85 114.05V114.45L95.05 115.65V115.85L94.35 115.95V115.85L93.85 115.95H93.65L93.15 116.05L92.65 116.15L92.05 116.25H91.95H91.75L92.25 116.95L92.35 117.05L91.95 117.15H91.55L91.15 117.05L90.65 117.15L90.05 117.25L90.15 117.65H89.85L89.75 117.75L87.75 118.25V118.15H86.85L85.85 118.25L85.75 118.35V118.45L85.65 118.55L85.55 118.75L85.45 118.85L85.35 119.05L85.15 119.15L85.05 119.25L84.95 119.35L84.85 119.45L84.65 119.55H84.55L84.35 119.65H84.25H84.15L83.95 119.75L83.75 119.85H83.55L83.35 119.95L83.05 120.05H82.95L82.85 120.15H82.75H82.55H82.45L82.35 120.25H82.15V120.35H82.05L81.85 120.45L81.55 120.55L81.35 120.75L81.15 120.85H81.05L80.95 120.95H80.85L80.55 121.25H80.45V121.35L80.35 121.25V121.15H80.25V121.05V120.95H80.15V120.85H80.05V120.75H79.95V120.65H79.85V120.55H79.75V120.45H79.65H79.55V120.35H79.45V120.25H79.35H79.25V120.15H79.15H79.05H78.95H78.85V120.05H78.75H78.65H78.55H78.45H78.35H78.25H78.15V119.95H78.05H77.95V120.05H77.85H77.75H77.65H77.55H77.45L77.35 119.95H77.25H77.15H77.05V119.85H76.95H76.85V119.75H76.75H76.65V119.65H76.55L76.45 119.55H76.35V119.45H76.25H76.15V119.35H76.05L75.95 119.25H75.85V119.15H75.75L75.65 119.05H75.55H75.45L75.35 118.95H75.25H75.15L75.05 118.85H74.95H74.85H74.75V118.75H74.65H74.55H74.45V118.65H74.35H74.25H74.15L74.05 118.55H73.95H73.85H73.75V118.45H73.65H73.55H73.45V118.35H73.35H73.25H73.15H73.05H72.95H72.85H72.75H72.65H72.55H72.45H72.35H72.25H72.15H72.05H71.95H71.85V118.45H71.75H71.65H71.55H71.45H71.35L71.15 118.55H71.05H70.95L70.85 118.65H70.75H70.65V118.75H70.55H70.45V118.85H70.35L70.25 118.95H70.15V119.05H70.05V119.15V119.25V119.35H69.95V119.45H69.85V119.55H69.75L69.65 119.65H69.55V119.75H69.45H69.35L69.25 119.85V119.95H69.15V120.05H69.05V120.15H68.95V120.25H68.85V120.35L68.75 120.45V120.55V120.65M68.75 120.65H68.85M68.75 120.65H68.65V120.75H68.55V120.85M68.85 120.65L68.95 120.95L68.85 120.75V120.65ZM68.55 120.85H68.65M68.55 120.85V120.95H68.45V121.05V121.15V121.25V121.35H68.35V121.45V121.55V121.65V121.75H68.25H68.15H68.05H67.95L68.05 121.85M68.05 121.85H68.15M68.05 121.85V121.95H67.95V121.85H67.85V121.75H67.75V121.65L67.65 121.55L67.55 121.45H67.45V121.35H67.35V121.25H67.25H67.15L67.05 121.15V121.05H66.95V120.95H66.85V120.85H66.75H66.65L66.55 120.75V120.65H66.45L66.35 120.55H66.25L66.15 120.45H66.05H65.95V120.35H65.85H65.75H65.65V120.25H65.55H65.45H65.35L65.25 120.15H65.15H65.05H64.95L64.85 120.05H64.75H64.65H64.55H64.45H64.35H64.25H64.15H64.05H63.95H63.85L63.75 119.95H63.65H63.55H63.45H63.35H63.25H63.15H63.05H62.95V120.05H62.85H62.75H62.65H62.55H62.45H62.35H62.25V120.15H62.15H62.05H61.95H61.85H61.75H61.65V120.05M61.65 120.05H61.55M61.65 120.05V119.95H61.55H61.45H61.35V120.05L61.25 120.15V120.25L61.15 120.35V120.45H61.05V120.55H60.95V120.65H60.85L60.75 120.55H60.65V120.45H60.55H60.45L60.35 120.35H60.25H60.15H60.05V120.25H59.95H59.85H59.75H59.65H59.55H59.45H59.35H59.25H59.15H59.05H58.95H58.85V120.35H58.75H58.65L58.55 120.45H58.45V120.55H58.35V120.65H58.25V120.75H58.15V120.85V120.95V121.05V121.15V121.25V121.35H58.05V121.45V121.55M58.05 121.55H58.15M58.05 121.55V121.65V121.75V121.85V121.95H57.95H57.85V121.85H57.75H57.65V121.75H57.55H57.45H57.35H57.25V121.65H57.15V121.55H57.05H56.95H56.85H56.75H56.65H56.55H56.45H56.35V121.45H56.25H56.15H56.05H55.95V121.35H55.85H55.75H55.65V121.25H55.55H55.35L55.15 121.15H55.05H54.95H54.85L54.75 121.05H54.65H54.55H54.45H54.35H54.25H54.15H54.05H53.95V121.15H53.85H53.75H53.65H53.55L53.45 121.25H53.35H53.25H53.05H52.95H52.85H52.75H52.55H52.35H52.25V121.15H52.15H52.05L51.95 121.05L51.85 120.95L51.65 120.85L51.55 120.75H51.45L51.35 120.65L51.15 120.55H51.05L50.95 120.45H50.85L50.75 120.35L50.55 120.25H50.45H50.25L50.15 120.15H50.05L49.55 120.05L49.15 119.95V119.85V119.75V119.65V119.55H49.25V119.45H49.35V119.35H49.45L49.55 119.25L49.65 119.15H49.75V119.05H49.85V118.95V118.85H49.75V118.75V118.65H49.85V118.55V118.45H49.75H49.65H49.55H49.35H49.25H49.15V118.35V118.25V118.15L49.35 118.05L49.55 117.95H49.65L49.95 117.85H50.05V117.75L50.15 117.65H50.25V117.55H50.15L49.75 117.35H49.65L49.55 117.15V117.05V116.95L49.45 116.75V116.45L49.35 116.25V116.05L49.25 115.75V115.45V115.15V114.85L49.35 114.35L49.25 113.95L48.65 113.55L48.45 113.45L48.35 113.35L48.25 113.15L48.15 112.85V112.65L48.05 112.35V112.05L47.95 111.65V111.45L48.05 111.35V111.25L48.25 111.05L48.55 110.75L48.85 110.45V110.35L48.95 110.15L49.15 109.85L49.25 109.75V109.65V109.55L49.15 109.45L49.05 109.35L48.85 109.15L48.75 108.85L48.55 108.55L48.25 108.15L48.05 107.95V107.85L47.95 107.65V107.45V107.35V107.15V107.05V106.75V106.65L48.05 106.35L48.15 105.85L48.25 105.35V105.15V105.05L48.15 104.75V104.65L48.05 104.55L47.95 104.35L47.75 104.15H47.65L47.45 104.05L47.25 103.95H46.95H46.65H46.45H46.25L46.05 104.05H45.95V103.95V103.85L45.85 103.75V103.55V103.45L45.75 103.35L45.65 103.25V103.05V102.85V102.65V102.55V102.45L45.55 102.25V102.05L45.45 101.85H45.35V101.75L45.25 101.65L45.15 101.45L45.05 101.25L44.95 101.15L44.75 101.05L44.65 100.95L44.35 100.75L43.95 100.45L43.75 100.25L43.65 100.15H43.55L43.45 100.05H43.25H43.05L42.85 99.95H42.75L42.55 100.05H42.45L42.35 99.95V99.85V99.65V99.55V99.15V98.95V98.65V98.55V98.45V98.35L42.25 98.25V98.05L42.15 97.85L42.05 97.65L41.95 97.55L41.85 97.45L41.65 97.35L41.55 97.25L41.45 97.15L41.35 96.95L41.15 96.65L41.05 96.45L40.95 96.35V96.25V96.15V95.95L41.05 95.75V95.55V95.45L41.15 95.35V95.25V95.15H41.25H41.35H41.45H41.55H41.65L41.95 94.95L42.25 94.85L42.75 94.75L44.45 94.55L44.85 94.45L44.65 93.85L45.65 93.65L45.75 93.55L46.55 93.45L47.15 93.35L47.35 94.15L47.85 94.05L48.05 93.95L50.05 93.65H50.25L50.35 93.55L50.85 93.45H51.15L51.55 93.35L52.35 93.15H52.45H52.55V93.05L52.45 92.95L52.35 92.75L52.25 92.55V92.35L52.15 91.95L51.95 91.15L51.85 91.05V90.95L52.15 90.85V90.75L53.65 90.45L53.75 90.95L54.05 90.85H54.25L54.95 90.65L54.85 90.25L55.35 90.15L55.25 89.65L55.15 89.25V89.15L55.65 89.05V88.95V88.75L55.55 88.35L55.45 88.25V88.15L55.35 87.75V87.65L55.25 87.35V86.95L55.15 86.65L55.05 86.45L55.55 86.35L55.35 86.15L55.15 85.75L55.05 85.65V85.45L54.95 85.15V85.05V84.95L54.75 84.15L54.65 83.65L54.45 82.55L54.05 80.75V80.65L53.95 80.25L53.85 79.85L53.35 79.95L52.85 80.05L52.75 79.35L51.45 79.65L50.45 79.85L50.35 80.75L50.25 81.05H50.15H49.95L49.65 80.95H49.15H48.95H48.65L48.55 80.85H48.45L48.25 80.95L47.65 81.05L46.85 81.25L46.75 80.85L46.05 81.05H45.75V80.85L45.65 80.25H46.15L45.95 79.65L45.75 78.65L46.25 78.55L46.45 79.45L47.15 79.35L48.15 79.05L48.05 78.65L47.95 77.95L47.75 77.15L47.65 76.35L48.85 76.15L49.25 76.05V75.85L49.05 74.85V74.75V74.65H48.95V74.55L48.85 74.15L48.75 73.55L49.15 73.45L48.85 72.75L48.75 72.85L48.25 72.95L47.45 73.05L46.35 73.35H46.25L45.85 73.45L45.35 73.55L44.75 73.65L44.25 73.75L44.35 74.15L43.75 74.25L43.45 74.35L42.65 74.45V74.55H42.55L41.25 74.75L41.15 74.45L40.95 73.75L40.75 73.05L40.65 72.45L40.25 72.55L39.95 72.65L39.85 72.55H39.75L40.05 71.75L40.25 71.05H39.85L38.95 71.25L37.95 71.45L36.85 71.75L36.15 71.85H36.05L35.65 71.95H35.55V71.85V71.75L35.45 71.35L35.35 71.05V70.65L35.25 70.15L34.85 68.75H34.75L34.25 68.85L33.85 68.95L33.75 68.65L33.65 68.25L33.55 67.75L33.95 67.65L34.75 67.45L34.65 67.15L35.35 67.05L35.65 66.95L35.25 65.85H35.15H34.55L34.45 65.35L34.35 65.25V65.05L34.25 64.75V64.55V64.35L34.15 64.15V64.05V63.95V63.75L34.05 63.25L33.95 62.75L34.85 62.55V62.25L34.75 61.75L34.65 61.45V61.35V61.15L34.55 60.85L34.05 61.05H33.85L32.75 61.25V61.05V60.85L32.65 60.25V59.85V59.55H33.05H33.15H33.45H33.55L33.35 58.65L32.95 56.65H33.15L33.05 56.05L32.95 55.55L32.85 55.15L33.65 54.95L34.35 54.85V54.65L34.25 54.45L34.15 53.95L34.05 53.05V52.95L33.95 52.85H34.15V52.75L34.05 52.05L33.75 52.15L32.95 52.35H32.85L32.35 52.45L32.15 52.55L31.95 52.65L31.85 52.45L31.65 51.85V51.65L31.35 51.75H30.95H30.85L30.45 51.85L30.35 51.35H30.15L29.65 51.65L29.45 51.75L29.35 51.85L28.85 51.95L28.75 51.75V51.65V51.45V51.35H28.65H28.55L28.45 51.45H28.35V51.35H28.25V51.25H28.15H28.05V51.15L27.95 50.95V50.85H27.85V50.95H27.75V50.85L27.65 50.25L27.45 49.75V49.45H27.65L27.85 49.35H28.05L28.35 49.25H28.45H28.55L28.75 49.15H28.95L29.15 49.05L29.05 48.75L28.95 48.45L28.85 48.05H29.15L29.05 47.85V47.65V47.45L28.85 46.85V46.65L28.95 46.55V46.45V46.15L29.25 46.05L29.15 45.65V45.55V45.45L29.25 45.35V45.25H29.65L29.85 45.15H29.75V44.85V44.75L29.65 44.55L29.55 44.25H29.35L29.05 44.35L28.25 44.45L28.05 44.55H27.95L27.25 44.75L26.45 44.85H26.05L25.65 44.95V45.05L25.85 45.85L26.05 46.65L26.15 47.25H26.05L25.95 47.35L25.75 47.45L25.45 47.55L25.25 47.65V47.75H24.75L23.55 47.85H23.15V47.55L23.05 47.45V46.95V46.65L23.45 46.55V46.35V46.15V45.85L23.35 45.35H23.15L22.55 45.55L21.95 45.75L21.65 45.85L21.05 46.05L20.85 45.75V45.55L20.75 45.25L20.05 45.45H19.95L19.45 45.65L18.95 45.85H18.85H18.45L18.05 45.95V45.55L17.75 45.65L16.55 45.85L15.05 46.25L13.55 46.55L13.45 45.95L13.35 45.25L13.25 45.05V44.85L12.35 45.05L11.85 45.15L11.25 45.25L11.05 45.35L10.95 44.85L10.85 44.25L10.75 43.75L10.65 43.15L10.55 42.65L10.75 42.55V42.45L10.65 42.25L10.55 41.75L10.45 41.15L10.15 39.95V39.85L10.05 39.35L9.95001 38.85L9.85001 38.35H9.75V38.15L9.64999 37.65L9.54999 37.05V36.95L9.45001 36.65V36.45H9.54999L9.75 36.35H9.85001L9.95001 36.05H10.25L10.35 35.95H10.65L10.95 35.85H11.25L11.15 35.55L11.05 34.95L10.85 34.15V33.85H11.05H11.35H11.45H11.55L11.65 33.75H11.85H12.05V33.65L11.95 33.55L11.85 32.95V32.85L11.45 32.95L11.35 32.75V32.25L11.15 31.35V31.25L10.95 31.35L10.45 31.45L9.54999 31.65L9.04999 31.75H8.95001L7.95001 31.95L7.35001 32.05L7.14999 32.15H6.85001H6.64999V32.25L6.54999 32.15L6.35001 31.55L6.25 31.15L6.14999 30.95V30.85V30.65L6.04999 30.55V30.35V30.25V30.15L5.95001 29.95V29.75L5.85001 29.45V28.95L5.75 28.85V28.75V28.65V28.55L5.64999 28.35V28.15L5.54999 27.95V27.85V27.55L5.45001 27.05L5.35001 26.45V26.35L5.25 25.95V25.85L5.04999 24.55L4.95001 24.35V24.25V24.15V23.95L4.85001 23.75V23.65V23.55H4.95001V23.45H5.04999V23.35H5.14999V23.25H5.25V23.15H5.35001L5.14999 22.95L5.04999 22.75L4.64999 22.25L4.04999 21.55L3.75 21.35L3.45001 21.15L2.85001 20.65L2.54999 20.55L2.45001 20.45L2.25 20.35V20.05V19.75V19.65V19.55H2.35001L2.25 19.45V19.35V19.25H2.35001L2.25 19.05L2.04999 18.55L1.85001 18.15H1.75V18.05L1.64999 17.85L1.45001 17.45V17.35L1.35001 17.15L1.25 17.05V16.95L1.35001 16.85L1.95001 16.65L2.25 16.55L2.64999 16.35L2.85001 16.25V16.15L2.75 16.05L2.64999 15.75H2.75V15.65L2.54999 15.25L2.25 14.55H2.14999L2.04999 14.15L1.64999 13.35H1.54999V13.45L1.45001 13.55L1.25 13.65L0.649994 13.15L0.25 12.75L0.350006 12.65L0.450012 12.55H0.549988L0.649994 12.45L0.75 12.35V12.45V12.55H0.850006H0.950012V12.65H1.04999L1.25 12.55H1.45001H1.54999H1.64999V12.45V12.35L1.75 12.25H1.85001H1.95001L2.04999 12.05L2.14999 11.95V11.85L2.35001 11.45L2.45001 11.35V11.25V11.15H2.35001V11.05L2.85001 11.15H3.25L3.35001 11.25L3.64999 11.35L4.04999 11.45L4.14999 10.95V10.85L4.45001 10.55H4.54999H4.64999H4.85001H4.95001H5.04999H5.14999H5.25L5.54999 10.65H5.75L6.14999 10.75L6.25 10.55L6.14999 10.45H6.04999H5.95001V10.35H5.85001H5.75L5.64999 10.25V10.15V9.95001V9.85001H5.75L5.85001 9.95001H5.95001H6.04999V10.05H6.14999H6.25V10.15H6.35001V10.25H6.45001V10.35H6.35001V10.55L7.64999 10.25L7.75 10.15H7.85001V10.05V9.35001L6.75 9.15002L5.75 9.05002L5.54999 8.35001L5.45001 7.75V7.55002V7.45001L5.35001 7.35001V7.25V7.15002H5.45001H5.54999H5.64999V7.25H5.75H5.85001V7.15002H5.95001L6.04999 7.05002L6.14999 6.95001L6.35001 6.75L6.45001 6.65002V6.55002L6.35001 6.45001V6.35001V6.25V6.15002V6.05002V5.95001V5.85001V5.75H6.45001L6.54999 5.65002H6.64999H6.75H6.85001H6.95001L7.04999 5.55002H7.14999V5.45001H7.25V5.35001L7.35001 5.25L7.45001 5.15002H7.54999H7.64999H7.75H7.85001V5.05002H7.95001H8.04999V4.95001H8.14999V4.85001V4.75H8.25V4.65002H8.35001H8.45001H8.54999H8.64999L8.85001 4.75L8.95001 4.65002H9.04999H9.14999H9.25V4.75H9.35001V4.85001V4.95001V5.05002V5.15002H9.45001V5.25L9.54999 5.35001H9.64999L9.75 5.45001H9.85001H9.95001H10.15H10.25H10.35H10.45V5.55002H10.55H10.65H10.75H10.85H10.95L11.05 5.45001H11.15H11.25H11.35V5.35001H11.45V5.25H11.55V5.15002L11.65 5.05002V4.95001H11.75V4.85001H11.85H11.95L12.05 4.95001H12.15V5.05002H12.25H12.35H12.45H12.55L12.65 5.15002H12.75L12.85 5.25H12.95L13.05 5.35001H13.15H13.25V5.45001H13.35V5.55002H13.45H13.55H13.65V5.45001V5.35001L13.75 5.25H13.85H13.95M13.95 5.25V5.35001M13.95 5.25H14.05H14.15L14.25 5.15002H14.35H14.45L14.55 5.05002H14.65H14.75H14.85H14.95L15.05 5.15002V5.25V5.35001V5.45001V5.55002L15.15 5.65002V5.75L15.25 5.85001V5.95001L15.35 5.75L15.75 5.25L16.15 4.65002L16.35 4.35001L16.45 4.25L16.55 4.45001L17.15 4.95001L17.55 5.35001L17.65 5.45001L17.75 5.55002V5.65002L17.85 6.05002H18.45L19.15 6.15002V6.05002H19.35V5.95001H19.45H19.55H19.65H19.75H19.95H20.25H20.55L20.65 6.05002H20.75H20.95H21.05V5.95001H21.15V5.75V5.65002V5.55002H21.05V5.45001V5.35001L21.15 5.25H21.25H21.35H21.65H21.95L22.15 5.15002H22.25L22.45 5.05002L22.85 4.95001L22.95 4.85001L22.85 4.75L22.75 4.65002L22.65 4.45001L22.55 4.35001V4.25V4.05002L22.45 3.85001H22.55H22.75L22.85 3.75H23.15H23.35H23.45L23.75 3.65002H24.05H24.15H24.35L24.55 3.55002H24.65L25.05 3.35001L25.35 3.25L25.75 3.15002L25.95 3.05002L26.05 3.15002V3.25V3.35001V3.55002L26.15 3.75L26.75 3.65002H27.05H27.15L27.65 3.55002H27.85H28.25L28.55 3.45001H28.75L29.45 3.35001L29.55 3.65002L29.65 4.05002V4.15002V4.25V4.35001L29.75 4.45001V4.65002L29.85 5.15002H30.15L30.75 5.05002H30.95V4.95001V4.85001H30.85V4.75V4.65002V4.55002L30.95 4.45001V4.35001L31.05 4.25H31.15V4.15002V4.05002H31.25V3.95001L31.15 3.85001V3.75V3.65002V3.55002H31.25V3.45001H31.35V3.55002H31.45V3.65002L31.55 3.95001V4.15002L31.85 4.05002H31.95H32.15L32.35 3.95001H32.65L32.75 4.35001V4.65002L32.85 5.25L32.95 5.65002H33.15H33.45L33.75 5.55002V5.65002H33.85H33.95V5.55002H34.05V5.45001H34.15H34.25L34.35 5.35001H34.45H34.55H34.65H34.75H34.85H34.95L35.05 5.45001V5.55002L35.15 5.65002V5.75V5.85001H35.25V5.75H35.35V5.65002H35.45V5.55002V5.45001M35.45 5.45001H35.35M35.45 5.45001V5.35001M35.45 5.45001H35.55H35.65H35.75H35.85L35.95 5.35001H36.05H36.15V5.25V5.15002V5.05002H36.25H36.35H36.45V5.15002H36.55V5.25H36.65M36.65 5.25V5.35001M36.65 5.25H36.75V5.15002V5.05002V4.95001V4.85001V4.75V4.65002V4.55002V4.45001V4.35001V4.25V4.15002V4.05002V3.95001H36.85H36.95H37.05H37.15H37.25H37.35H37.45H37.55H37.65L37.75 4.05002H37.85V4.15002H37.95H38.05H38.15L38.25 4.05002H38.35V3.95001H38.45V3.85001H38.55H38.65H38.75H38.85H38.95H39.05V3.95001H39.15H39.25H39.35H39.45H39.55H39.65H39.75V3.65002L39.65 3.45001V3.25V3.15002H39.75L39.65 2.85001L39.55 2.25L39.45 1.75L39.35 1.25V1.05002L39.75 0.950013H40.05L40.65 0.75H40.75L40.85 0.650025H40.95H41.05H41.15L41.55 0.550019H41.75L41.95 0.450013H42.15H42.35L42.95 0.25L43.05 0.75L43.15 1.25L43.35 1.15002L44.25 1.05002L44.85 0.950013H44.95L45.85 0.75L46.65 0.650025L47.05 0.550019H47.25V0.75L47.35 1.15002L47.85 1.05002H48.25L48.45 0.950013V1.05002H48.55V1.15002V1.25H48.65L48.75 1.35001H48.85L48.75 1.45001V1.55002V1.65002H48.85H48.95V1.75V1.85001V1.95001H49.05V2.05002H49.15V2.15002H49.25V2.25H49.35V2.35001H49.45V2.45001H49.55V2.55002V2.65002H49.65V2.75V2.85001V2.95001V3.05002H49.75L49.85 3.15002H49.95V3.25V3.35001H49.85V3.45001V3.55002L49.75 3.65002H49.65H49.55H49.45V3.75H49.35V3.85001V3.95001V4.05002V4.15002V4.25H49.45V4.35001H49.55V4.45001H49.65V4.55002H49.75L49.85 4.65002H49.95V4.75L50.05 4.85001H50.15L50.25 5.05002L50.45 5.15002L51.35 4.95001L51.55 5.55002V5.65002L51.65 6.15002L51.85 7.15002L51.95 7.75L52.05 8.35001L52.15 9.05002L52.55 8.85001L53.15 8.65002L53.85 8.45001L54.25 8.25L55.05 7.95001H55.15L55.55 7.85001L56.45 7.45001L56.55 8.25L56.65 9.15002L56.75 9.25H56.85H56.95H57.05H57.15V9.15002H57.25H57.35V9.05002H57.45H57.55V8.95001H57.65H57.75H57.85V8.85001H57.95H58.05H58.15H58.25H58.35H58.45H58.55H58.65H58.75H58.85V8.75H58.95V8.65002H59.05V8.55002H59.15V8.45001H59.25V8.35001H59.35V8.25V8.15002H59.45V8.05002V7.95001H59.55H59.65H59.75H59.85V8.05002L59.95 8.25V8.35001L60.05 8.95001L60.15 9.15002V9.25L60.25 9.65002H60.45L60.65 9.55002H60.95L61.35 9.45001H61.45L61.35 8.85001V8.75L61.95 8.65002L62.95 8.45001L63.75 8.25H63.95L64.05 8.15002H64.45L64.85 8.05002V8.35001L65.05 9.35001L65.25 10.45V10.55L65.35 10.95L65.45 11.25L64.85 11.45L64.25 11.55V11.65L64.15 11.75V11.85V11.95H64.05V12.05V12.15V12.25L63.95 13.05H64.05L64.45 12.95H64.85L64.95 13.15L65.05 13.65L65.15 14.05L65.35 13.95H65.45H65.55H65.65V13.85L65.75 13.75L65.85 13.65L65.95 13.45L66.05 13.35V13.25H66.15V13.15H66.05V13.05V12.95V12.85V12.65H66.95H67.35H67.65L68.05 12.55V12.45L67.95 11.95L67.75 10.85L67.65 10.05L67.55 9.75L67.95 9.65002L68.25 9.55002H68.35H68.45L68.65 9.75L68.75 10.15L68.85 10.25L68.95 10.35M68.95 10.35V10.45M68.95 10.35V10.25V10.15V10.05H69.05H69.15H69.25H69.35V9.95001H69.45L69.65 9.85001H69.75L69.65 9.35001V9.15002V9.05002V8.95001V8.85001V8.75V8.65002L69.75 8.55002L69.65 8.15002L70.15 8.05002H70.45L70.65 7.95001H70.75H70.85L71.35 7.75H71.65L71.75 7.65002H71.95V7.75L72.25 7.65002L72.35 8.15002V8.25L72.45 8.45001H72.55V8.75L72.65 9.15002L72.95 9.05002L73.55 8.95001L73.95 8.85001L74.55 8.75H74.85V8.85001H74.75V8.95001H74.65L74.75 9.05002V9.15002M74.75 9.15002V9.25M74.75 9.15002H74.85L74.95 9.05002V9.25L75.15 10.25L75.25 10.75H75.35H75.45H75.65H75.75L75.95 10.65H76.05H76.15H76.25L76.35 10.55H76.65L77.45 10.45L77.95 10.35L78.95 10.15L79.05 10.65L79.15 11.25L79.25 12.05L79.35 12.45L79.45 13.05L79.55 13.65L79.65 14.05V14.15L79.75 14.45V14.55V14.65L79.05 14.75H78.95L78.75 14.85L77.65 15.05L77.05 15.15V15.45L77.15 15.75L77.25 16.05V16.15L77.35 16.85L77.45 17.35L77.55 18.35L77.65 18.85L77.75 19.35L77.85 19.65V19.85V20.15L77.95 20.55L78.05 20.95L78.15 21.35V21.95V22.05H78.25V22.15H78.35V22.05H78.45H78.55H78.65V21.95H78.75H78.85V22.05H78.95V21.95V21.85H79.05V21.75H79.15V21.65V21.55V21.45H79.25H79.35V21.35H79.25V21.25H79.35H79.45V21.15H79.55V21.05H79.45V20.95H79.55V20.85H79.65L79.75 20.95V21.25H79.85H79.95L80.05 21.15H80.35L80.55 21.05H80.65V20.85H80.75H80.85H80.95H81.05H81.15H81.25L81.35 20.75H81.45H81.55H81.65H81.75H81.85H81.95H82.05H82.15L82.45 20.65H82.65L82.85 20.55L82.95 20.95L83.05 22.15L83.25 23.05L83.45 24.15H83.55L83.65 24.05H83.75H83.95L84.25 23.95H84.35H84.45H84.55V24.15V24.25V24.35V24.55V24.65V24.75V24.85V24.95L84.65 25.05V25.15L84.75 25.25V25.35V25.45H84.85V25.55V25.65V25.75V25.85H84.75H84.65V26.05V26.15V26.35V26.65H84.75V26.75H84.95V26.85V26.95V27.05L85.05 27.15V27.25V27.35V27.45H85.15V27.55V27.65V27.75H85.25V27.85H85.15V27.95H85.05H84.75L83.55 28.05L83.45 28.15V28.25V28.45L83.55 28.95L83.65 29.15L83.35 29.25V29.45V29.55L83.45 29.95H83.65V30.05V30.15L83.75 30.25V30.35V30.45H83.85V30.55H83.95V30.65H84.05V30.75H84.15V30.85H84.25V30.95H84.15V31.05V31.15H84.05L83.95 31.25L83.35 31.35L82.75 31.45L82.25 31.55L82.05 31.65V32.15L82.15 32.45L82.25 32.75L82.35 33.15V33.35V33.45L82.45 33.95L82.55 34.15V34.25L83.25 34.15L83.85 34.05L84.35 33.95V33.85L85.25 33.65L86.15 33.45H86.55L87.35 33.25L87.95 33.15L88.75 33.05L88.85 32.95L88.65 32.15L89.25 32.05H89.45L89.65 31.95H90.15L90.65 31.85H90.75L90.95 31.75H91.05H91.15H91.25L91.35 31.65H91.45V31.75V31.85V31.95H91.65L92.05 31.85L92.35 31.75H92.75L92.95 31.65L93.45 31.55L93.55 31.95L93.65 32.15V32.35L93.75 32.55L94.05 32.45H94.45L94.55 32.35L94.75 33.15H95.05V33.25L95.15 33.65V33.95L95.25 34.15V34.25L95.85 34.15L96.25 34.05L96.35 34.65L96.45 35.05V35.45L96.55 36.05L96.65 36.15H96.75H97.15L97.25 36.05H97.55V36.15H97.45V36.25H97.55V36.35H97.65V36.45L97.75 36.55V36.65V36.75H97.85V36.65H97.95H98.05V36.55L98.15 36.45H98.05V36.35H98.15H98.25V36.25H98.35H98.45V36.15V36.05H98.55V35.95H98.45V35.85H98.55H98.65V36.05L98.75 36.35V36.45V36.55H98.85H99.05L99.55 36.45L100.05 36.35L100.65 36.25L101.25 36.05L101.85 35.95L102.35 35.85L102.25 35.05L102.15 34.45L102.05 33.85L101.95 33.55L102.55 33.35H102.85L102.75 32.85V32.45L102.65 32.05V31.75H102.75H103.05L103.35 31.65L104.15 31.45H104.55L105.25 31.25H105.45H105.55L105.85 31.15H105.95H106.05V31.25H106.15V31.35H106.25L106.15 31.45H106.25H106.35V31.55H106.45V31.45H106.55L106.65 31.55H106.75H106.85V31.45L106.95 31.85V31.75H107.05V31.85H107.15H107.25V31.95V32.05V32.15V32.25H107.35V32.35L107.45 32.55H107.55V32.65L107.65 32.75H107.75V32.85H107.85V32.95H107.95H108.05H108.15V33.05M108.15 33.05H108.25M108.15 33.05L108.25 33.15L108.35 33.25H108.45V33.35H108.55V33.45H108.65V33.55H108.75L108.85 33.65H108.95V33.75H109.05H109.15L109.25 33.65V33.55V33.45H109.35V33.35V33.25H109.45L109.65 33.35V33.25L109.75 33.15L109.85 33.05H109.95H110.05H110.15L110.25 32.95V33.05H110.35H110.45V32.95H110.55H110.65V32.85H110.75M110.75 32.85V32.95M110.75 32.85H110.85H110.95H111.05V32.95V33.05H110.95V32.95H110.85H110.75M110.75 32.95V33.05M110.75 33.05H110.65M68.55 124.15H68.65V124.25H68.55L68.45 124.05V123.85H68.55V124.05V124.15Z" stroke="white" stroke-width="0.5" stroke-linecap="round" stroke-linejoin="round"/>
</svg>
