<svg width="173" height="144" viewBox="0 0 173 144" fill="none" xmlns="http://www.w3.org/2000/svg">
<path d="M148.15 109.95V110.05H148.05L147.95 110.15H147.85V110.05V109.95H147.95V109.85V109.75V109.65H147.85H147.75V109.55H147.65H147.55L147.65 109.25H147.55L147.45 109.15H147.35L147.05 108.95H146.95V108.85V108.75L146.65 108.55L146.55 108.65L146.05 107.95L146.15 107.75V107.65H146.05H145.95L145.85 107.55H145.75H145.65H145.55H145.45V107.45H145.35V107.35V107.25V107.15L145.25 107.25V107.35H145.15V107.25H145.05V107.15H145.15V107.05V106.95H145.25V106.85H145.15L145.05 106.75H144.95H144.85H144.75V106.85H144.65V106.75H144.55L144.25 107.25L144.15 107.35L143.95 107.65L143.75 107.45L143.65 107.35H143.55V107.45H143.45V107.55V107.65L143.35 107.75V107.85V107.95L143.25 108.05V108.15V108.25V108.35V108.45V108.55V108.65V108.85L143.15 109.05V109.25V109.35L143.25 109.45H143.15V109.55V109.65H143.05H142.95L142.85 109.75H142.75V109.65H142.65V109.55H142.55V109.65V109.75H142.45H142.35V109.85L142.15 110.05L141.65 109.85V109.65L141.05 109.45L140.75 109.35L140.65 109.25V109.35H140.55H140.45V109.25V109.15V108.85H140.55V108.75H140.65V108.65H140.75H140.85H140.95L141.05 108.55H141.15H141.25L141.45 108.65H141.65V108.75H141.75V108.65H141.85H141.95V108.55H142.05V108.45L142.15 108.35V108.25H142.25V108.15V108.05V107.95H142.35L142.25 107.85H142.15H142.05H141.95V107.95H141.85V107.85H141.75H141.65H141.55V107.75H141.45H141.35H141.25H141.15H141.05L140.95 107.65H140.85H140.75H140.65H140.55H140.45H140.35V107.55H140.25H140.15V107.45H140.05V107.35H139.95V107.25H140.05L139.95 107.15V107.05H140.05V106.95H139.95H139.85H139.75H139.65V106.85H139.55H139.45V106.95H139.35H139.25H139.15L139.05 107.05H138.95H138.85H138.75H138.65V107.15H138.55H138.45H138.35L138.45 107.05H138.35H138.25V107.15H138.15V107.25H138.05V107.35H138.15V107.45H138.25V107.55V107.65H138.35H138.45V107.75H138.35V107.85H138.25V107.95V108.05H138.35L138.45 107.95H138.55V108.05V108.15H138.45H138.35V108.25H138.25H138.15H138.05L137.95 108.35V108.45V108.55V108.65H137.85V108.75H137.75H137.65L137.55 108.85V108.75H137.45V108.65V108.55V108.45V108.35V108.25H137.55V108.15H137.45V108.25H137.35H137.25V108.15V108.05H137.35H137.45V107.95H137.35V107.85H137.25H137.15H137.05V107.95H136.95H136.85V108.05H136.75H136.65H136.55H136.45V108.15H136.35V108.05L136.45 107.95H136.35L136.25 108.05H136.15H136.05H135.95H135.85L135.95 108.15H135.85V108.25V108.35H135.75V108.45H135.65H135.55V108.55H135.45V108.45H135.35V108.55V108.65H135.15H135.05V108.75H134.95V108.85H135.05V108.95V109.05H135.15V109.15V109.25V109.35V109.45H135.25V109.55H135.35V109.65H135.45V109.85L135.35 109.95V110.05L135.45 110.25V110.45L135.25 110.55H135.05L134.65 110.45V110.55V110.65V110.75H134.55H134.45L134.35 110.65V110.55H134.25V110.45H134.15H134.05V110.55V110.65H133.95V110.75L133.85 110.85L133.75 110.95L133.65 111.05L133.55 111.15H133.45H133.35H133.25V111.05H133.15V111.15H133.05L132.95 111.25V111.35H132.85L132.75 111.45H132.65V111.55H132.55H132.45V111.65H132.35H132.25H132.15H132.05V111.55H131.95V111.45H131.85V111.35H131.95L131.85 111.25L131.75 111.35H131.65H131.55H131.45V111.45H131.35H131.25V111.55H131.15V111.65V111.75V111.85V112.25L130.25 112.45L130.15 112.35L130.05 112.25V112.15H129.95V112.05H129.85H129.75V112.15H129.65V112.05V111.95V111.85V111.75V111.65H129.55V111.55V111.45H129.45V111.55H129.35H129.25V111.65H129.35V111.75H129.25H129.15H129.05V111.85H128.95H128.85V111.95H128.95V112.05H128.85H128.75V111.95H128.65H128.55V112.05H128.45H128.35V112.15H128.25L128.15 112.25V112.35H128.05L127.75 112.55L127.45 112.75V112.95L127.35 113.05H127.25H127.15V113.15L127.05 113.25H126.95V113.15V113.05L127.05 112.95H126.95V113.05H126.85V112.95H126.75H126.65H126.55V113.05L126.45 113.15V113.25V113.35H126.55L126.65 113.45L126.55 113.55V113.65V113.75V113.85V113.95V114.05H126.65V114.15V114.25H126.75V114.35V114.45H126.65H126.55L126.45 114.35H126.35H126.25H126.15L126.05 114.25L125.95 114.35L125.85 114.15L125.65 114.25L125.75 114.35V114.45V114.55V114.65H125.65L125.55 114.75V114.85V114.95H125.65V115.05V115.15H125.55H125.45V115.25H125.35V115.35L125.45 115.55L125.25 115.95L125.45 116.15L125.55 116.35H125.65L125.55 116.45L125.65 116.65L125.75 116.75L125.25 117.15V117.05L125.05 117.25L124.95 117.35L124.85 117.25H124.75H124.55L124.45 117.35H124.35H124.25L123.95 117.15L123.85 117.05H123.75V116.95L123.65 116.85L123.45 116.65H123.35V116.55L123.25 116.45H123.15V116.35H123.05L122.95 116.25L122.85 116.05L122.55 116.15L122.45 116.25L122.35 116.45L122.25 116.55L122.15 116.75L121.95 116.85L121.85 116.75L121.75 116.65L121.55 116.55L121.15 116.25L120.75 115.95L120.65 116.15L120.45 116.35L120.25 116.55L120.35 116.65H120.25L120.15 116.55L119.95 116.45L119.75 116.25L119.45 116.05L118.95 115.75L118.35 115.25L117.95 114.95L117.65 114.65H117.55V114.55H117.45L117.35 114.45H117.15L117.05 114.35V114.45H117.15V114.65L117.25 115.05V115.15V115.25V115.35V115.45L117.35 115.55L117.15 115.85L117.45 116.25V116.35L117.55 116.65L117.65 117.05L117.75 117.35L117.55 117.45L117.15 117.55L116.75 117.65L116.45 117.75L116.55 117.95L116.65 118.15L116.75 118.25L116.45 118.45L116.05 118.65L115.55 118.75L115.15 118.95L114.95 119.05L115.05 119.15L115.15 119.45L114.95 119.65L114.75 119.75L114.55 119.95V120.05L114.65 120.35H114.15L114.05 120.45L113.75 120.65L113.65 120.85L113.55 120.95V121.05L113.35 121.35V121.45L113.25 121.55V121.75H113.35L113.55 121.85L113.75 121.95H113.85H113.95L114.05 122.05H114.15V122.15H114.25L114.15 122.45L114.45 122.75L114.55 122.85L114.45 123.15L114.15 123.65L113.95 123.85V123.95L113.85 124.05V124.15L113.75 124.25L113.55 124.55L113.35 124.85L113.15 125.15L112.95 125.55L112.55 126.15L112.45 126.75L112.35 127.05V127.35L112.25 127.65V127.75V127.85V127.95L112.15 128.05V128.45V128.55L112.05 128.65V128.95V129.05L111.95 129.35V129.55V129.65L112.15 129.75V129.85H112.25L112.35 129.95V130.05L112.55 130.15L112.35 130.35L112.25 130.45L112.45 130.55L112.55 130.65L112.85 130.85L113.15 131.05L113.35 131.15L113.85 131.45L113.75 131.65V131.75V132.05V132.45L113.65 132.65H113.75H113.85H113.95H114.05H114.25H114.45V132.85V132.95V133.05V133.15V133.25V133.35V133.45H114.35V133.55H114.25V133.65L114.15 133.75H114.05H113.95V133.85H113.85V133.75V133.65V133.55H113.75V133.65H113.65V133.55H113.55H113.45H113.35H113.15V133.65V134.05V134.25V134.35V134.65L113.05 134.75H113.15H113.25H113.35H113.45V134.85H113.55H113.65H113.75L113.85 134.95H113.95V135.05H114.05H114.15H113.95V135.15L113.85 135.25L113.75 135.35H113.65H113.55V135.25H113.45H113.35L113.25 135.35H112.45H111.75V136.15L111.85 136.25V136.65V137.45V137.85V138.15H112.45H112.55H112.65V138.05H112.75L112.95 137.75L113.15 137.55L113.25 137.65L113.55 137.85L113.65 137.95H113.75V138.05L113.95 138.15H114.05V138.25V138.35H113.95H113.85V138.45H113.75V138.55H113.65V138.65H113.55V138.75H113.45L113.35 138.85H113.25L113.15 138.95V139.05H113.05V139.15V139.25V139.35H112.95V139.45H112.85H112.75H112.65L112.55 139.55H112.45H112.35V139.65V139.75V139.85H112.45V139.95V140.05V140.15H112.55H112.65H112.75V140.25V140.35V140.45V140.55L112.65 140.65V140.75V140.85V140.95V141.05H112.55H112.45L112.35 141.15V141.25H112.45V141.35V141.45L112.55 141.55V141.65H112.45H112.35H112.25V141.75H112.35V141.85H112.25H112.15L112.05 141.95V142.05V142.15L112.25 142.35V142.45V142.55H112.15L112.05 142.65H111.95L111.85 142.75V142.85H111.75L111.55 142.75V142.55L111.65 142.35L111.75 142.05L111.85 141.85V141.75L111.75 141.65V141.55L111.55 141.45L111.35 141.25H111.15L110.95 141.15H110.55H110.45L110.15 141.25L109.95 141.35H109.85L109.55 141.25L109.35 141.15L109.05 140.85L108.55 140.45L108.45 140.25H108.35L108.15 140.15L107.95 140.05H107.75L107.45 140.15L107.25 140.05L107.05 139.95L106.85 139.75L106.45 139.35L106.25 139.15L106.15 139.05L105.95 138.95L105.85 138.85L105.65 138.75H105.55H105.35L105.15 138.85L104.95 138.95L104.75 139.05H104.65H104.45L103.95 138.95H103.75L103.35 138.75L103.15 138.55L103.05 138.45L102.85 138.25L102.75 137.95V137.65L102.65 137.35L102.75 137.15V136.95L102.85 136.75V136.65L103.15 136.45V136.25L103.25 136.15V136.05L103.15 135.85L103.05 135.75L102.95 135.55L102.75 135.35L102.55 135.25L102.45 135.15H102.25L101.95 135.05H101.75L101.65 135.15H101.45L101.25 135.25H100.95H100.75H100.65L100.45 135.15L100.25 135.05L100.15 134.85L99.85 134.55L99.65 134.35L99.35 134.15L99.05 134.05L98.75 133.85L98.55 133.75L98.45 133.55L98.35 133.45V133.35V133.15V132.95V132.55V132.45L98.25 132.35L98.05 132.15H97.95L97.65 132.05L96.95 131.95H96.65H96.25H96.05H95.85L95.75 131.85L95.45 131.65L94.95 131.35H94.85L94.45 131.05L94.15 130.95H94.05L93.95 130.85H93.85H93.75H93.55H93.45H93.35L93.05 130.75L92.85 130.55L92.65 130.45L92.45 130.25V130.15L92.35 130.05L92.25 129.95L91.95 129.75V129.65L91.85 129.55L91.65 129.45V129.35L91.55 129.25L91.45 129.15L91.25 128.95H91.15L91.05 128.85L90.85 128.75H90.65L90.45 128.65L90.25 128.55L90.05 128.35L89.85 128.25L89.75 128.15L89.35 127.85L88.95 127.35L88.75 127.15L88.65 127.05L88.55 126.95L88.35 126.75L87.95 126.55H87.85L87.65 126.45L87.25 126.35L87.05 126.25H86.95H86.75H86.55H86.45H86.35H86.25H86.15H85.95L85.65 126.15H85.45L85.25 126.05L85.05 125.95L84.75 125.85H84.65H84.55L84.15 125.95H84.05L83.55 126.15H83.35H83.15H83.05H82.95L82.65 126.25H82.55H82.45H82.25L82.15 126.15L81.75 125.85L81.65 125.75H81.55L81.35 125.65L81.25 125.55V125.35L81.15 125.25L81.05 125.15H80.95V125.05H80.85H80.75V124.95L80.65 124.85L80.55 124.65L80.45 124.55L80.25 124.05L80.05 123.75L79.95 123.25H79.85H79.75L79.65 123.35H79.35H79.05L78.85 123.45L78.55 123.65V123.75V123.95L78.45 124.15V124.25V124.35V124.45V124.55L77.65 124.95V125.05L77.25 125.65L76.95 125.45L76.85 125.75L76.75 125.95H76.65V126.05L76.95 126.25L77.15 126.35L76.95 126.55L76.45 127.35L76.05 127.95L75.75 128.05L75.65 127.75L74.95 127.85L75.05 128.15H75.35V128.25V128.35V128.45L74.65 128.35L74.45 128.25H74.35L74.25 128.35H74.15H73.95V127.85H73.85H73.75H73.65L73.45 126.85L72.35 127.05L71.45 127.25V127.55H71.35H71.25L71.15 127.65H71.05V127.75L70.85 127.95V128.05V128.15H70.75H70.65H70.55V128.05H70.45V128.15H70.35V128.25H70.25L70.45 126.65L70.15 126.35L70.35 125.35L70.25 125.25L69.25 125.15L69.05 125.05H68.95L68.15 124.95L68.05 125.25L67.95 125.35H67.85L67.65 125.55L67.55 125.45L67.35 125.35V125.25L67.55 125.35L67.65 125.45L67.75 125.15V125.05L67.55 124.85H67.35H67.25H67.15H67.05L66.85 124.55L66.65 124.75L66.75 124.95L66.55 125.15L66.45 125.25V125.35L66.55 125.85V126.85L66.65 127.15V127.25L66.45 127.15L65.25 126.35L64.25 125.65L64.15 125.55V125.35V125.15H64.05H63.95L63.65 125.25L63.15 125.55L63.05 125.35L62.45 125.55L62.35 125.15L62.15 124.85L62.75 124.55L62.55 124.05L62.35 123.65L62.05 123.05H62.15V122.95V122.85H62.05L61.95 122.45L61.75 122.05L61.65 121.85L61.55 121.65L61.35 121.25V121.05V120.95H61.45V121.05V120.75H61.55H61.65L61.75 120.65H61.85V120.55H61.95V120.45L62.05 120.35V120.25H62.15L62.25 120.15H62.35L62.45 120.05H62.55L62.65 119.95L62.75 119.85L62.85 119.75L62.95 119.65H63.05H63.15L63.25 119.55L63.15 119.45L62.95 119.05L62.85 118.95L62.75 118.65L62.65 118.55V118.45V118.35L62.55 118.25L62.45 118.35H62.35V118.15V118.05V117.95L62.15 117.45L61.75 116.95L61.65 116.85L61.55 116.65L61.45 116.55V116.45V116.35L61.55 116.25V116.15L61.85 115.55L61.45 115.35L61.25 115.15H61.15H60.85L60.35 115.25V115.15L60.45 115.05V114.95V114.85H60.35H60.25H60.15H60.05L59.95 114.75V114.65L60.05 114.55H59.95H59.85H59.75H59.65H59.55L59.65 114.35H59.75L59.85 114.25H59.95L60.15 114.15H60.25V114.05L60.35 114.15H60.45H60.55H60.65H60.75H60.85H60.95L61.35 113.25L61.45 112.95L61.75 112.45L61.35 112.35L61.05 112.25L60.85 112.15L60.75 112.05L60.65 111.95V111.85L60.35 111.55L60.25 111.35L60.15 111.25L59.85 111.35V110.75L59.75 110.55V110.45V110.35V110.25L59.65 109.95L59.55 109.85L59.45 109.75L59.15 109.45L59.05 109.35L58.75 109.05L58.65 108.95L58.45 108.75H58.35L58.45 108.85V108.95V109.05L58.55 109.35L58.65 109.55V109.75L58.75 109.85V110.05L58.85 110.25V110.35V110.45V110.55V110.65V110.85V110.95V111.25V111.35V111.55V111.95V112.05V112.65V112.85V113.55V113.65V114.35V114.55V114.65V114.95V115.05L58.75 115.45V115.55H58.65H58.55L58.15 115.25L57.95 115.15L57.85 115.05H57.75L57.65 115.15V115.55V115.65H57.55L57.15 115.75L57.05 115.85L56.95 115.95H56.85H56.65H56.55H56.45L56.35 115.85L56.25 115.55V115.45H56.15L55.95 115.35V115.25L56.35 114.85L56.25 114.75L55.85 114.25L55.75 114.15H55.65H55.45H55.35L54.85 114.25H54.75L54.65 114.35L54.55 114.25H54.35L54.25 114.15V114.05L54.15 113.95V113.85L54.25 113.65L54.35 113.25V113.05L54.25 112.85V112.65L53.95 112.35V112.25V112.15L54.25 111.85L54.35 111.75V111.65V111.55L54.25 111.45L54.15 111.25L53.85 110.95L53.75 110.75L53.45 110.35L53.15 109.75L52.95 109.45V109.35L52.85 109.25L52.55 109.05L52.45 108.95V108.85L52.35 108.75V108.65V108.45V108.35L52.25 108.25L52.15 108.05L51.95 107.75L51.75 107.65L51.65 107.55H51.55H51.35H51.05L50.85 107.45L50.65 107.35H50.45L50.35 107.25H50.25H49.85L49.25 107.45H49.05L48.85 107.35H48.55L48.35 107.45H48.05H47.95L47.85 107.35L47.75 107.25L47.55 107.05L47.35 106.55L47.25 106.45L46.85 106.25L46.45 106.05L46.05 105.95H45.95L45.85 105.75L45.65 105.65L45.55 105.55V105.35L45.45 105.25V105.05V104.95L45.55 104.75V104.65L45.65 104.45L45.75 104.25V104.15V103.95V103.75V103.55L45.65 103.45V103.25L45.55 103.15V103.05H45.45L45.35 102.95L45.25 102.85L44.95 102.75H44.85H44.75L44.45 102.85L44.25 102.95H44.15L43.95 103.05L43.55 103.35L43.35 103.45H43.25H43.15L43.05 103.55H42.95L42.75 103.65H42.65L42.45 103.55H42.35H41.95L40.75 103.45L39.65 102.95L39.15 102.65H39.05L38.95 102.55L38.85 102.45H38.75L38.65 102.35H38.55H38.45L38.25 102.45L38.15 102.55H38.05H37.85H37.65H37.55L37.35 102.45H37.25H37.15H37.05H36.95H36.85L36.75 102.55V102.65L36.65 102.75L36.55 102.85L36.45 102.95L36.25 103.15L36.05 103.25H35.75H35.35H35.15L35.05 103.35H34.95L34.85 103.45L34.65 103.55L34.55 103.65H34.45H34.35L34.25 103.55H34.15V103.45V103.35H34.05V103.25H34.15V103.05V102.95L34.05 102.85H33.95H33.75H33.65V102.75H33.55L33.35 102.45L33.25 102.35L33.05 102.15L32.95 102.05H32.85H32.45H32.35H32.25V101.95L32.15 101.85L32.05 101.75H31.95H31.85H31.55L31.15 101.85H30.85L30.65 101.95H30.55H30.35L30.25 101.85H30.15V101.95H30.05H29.95L29.85 102.15V102.25H29.75L29.65 102.35L29.35 102.45L29.15 102.55H28.95L28.85 102.45L28.65 102.35L28.45 102.15L28.15 101.75L28.05 101.65L27.95 101.55H27.85H27.65H27.55H27.45H27.35L27.25 101.65L26.85 101.95L26.75 102.05H26.65H26.55L26.45 101.95V101.85L26.35 101.65V101.45L26.25 101.05L26.15 100.75V100.65L26.05 100.45V100.35H25.95L25.85 100.25L25.55 100.15L25.25 99.95H24.95L24.65 99.85H24.55L24.45 99.75L24.35 99.65L24.15 99.45L24.05 99.35L23.75 99.05H23.65L23.45 98.85L22.95 98.55L22.75 98.35L22.65 98.25H22.45V98.15H22.35H22.05L21.75 98.05L21.55 97.95L21.35 97.85L21.15 97.75L21.05 97.65L20.45 97.15L19.85 96.65L19.55 96.35H19.45V96.25V96.15L19.55 96.05L19.75 95.75L19.85 95.65L19.95 95.55H20.05V95.45V95.35V95.25H19.95L19.75 95.35H19.65H19.55H19.35H19.25V95.25L19.15 95.15V95.05V94.95V94.85L19.25 94.65H19.35V94.55L19.85 94.25L19.95 94.15L20.05 94.05V93.95V93.85V93.55V93.45V93.35L20.15 93.25L20.45 92.75L20.55 92.65V92.55L20.65 92.45V92.25V92.15L20.85 91.85V91.75L20.95 91.35V91.25L21.05 91.05V90.95L21.25 90.85H21.35L21.45 90.35L21.55 90.25V90.15H21.65H21.75V90.25H21.85L21.95 90.35H22.05L22.15 90.45H22.25V90.55L22.35 90.65V90.75V90.85H22.45V90.95H22.35V91.05H22.45V91.15V91.25V91.35H22.55V91.45V91.55H22.65L22.75 91.65L22.85 91.75V91.85H22.95H23.05L23.15 91.95V92.05H23.25L23.35 92.15H23.45H23.55L23.65 92.25H23.75H23.85H23.95V92.15H24.05H24.15V92.05H24.25H24.35L24.45 92.15H24.55H24.65V92.25H24.75V92.35H24.85H24.95H25.05H25.15H25.25V92.45H25.35H25.45H25.55H25.65H25.75H25.85H25.95L26.05 92.55H26.15H26.25V92.65H26.35H26.45V92.75H26.55V92.85H26.65H26.75V92.95H26.85V93.05H26.95H27.05L27.15 93.15H27.25V93.25H27.35H27.45L27.55 93.35L27.65 93.45H27.75H27.85L27.95 93.55H28.05V93.65H28.15V93.75H28.25V93.85H28.35L28.45 93.95H28.55L28.65 94.05H28.75H28.85H28.95V94.15H29.05H29.15H29.25H29.35H29.45H29.55H29.65V94.25H29.75V94.35H29.85H29.95H30.05V94.45H30.15H30.25H30.35H30.45H30.55H30.65L30.75 94.35H30.85H30.95H31.05H31.15H31.25L31.35 94.25H31.45H31.55H31.65H31.75H31.85H31.95V94.35H32.05H32.15H32.35H32.45L32.55 94.45H32.65H32.75H32.85H33.05V94.35H33.15V94.25V94.15V94.05L33.05 93.95V93.85V93.75V93.65V93.55L32.95 93.45H33.05V93.35V93.25V93.15V93.05V92.95V92.85H32.95H32.85L32.75 92.75H32.65L32.55 92.65L32.45 92.55L32.35 92.45H32.25V92.35L32.15 92.25L32.05 92.15L31.95 92.05V91.95H31.85H31.75H31.65H31.55V92.05H31.45H31.35H31.25H31.15V92.15L31.05 92.05H30.95H30.85V91.95H30.75V91.85H30.65V91.75V91.65H30.55V91.55V91.45H30.45V91.35L30.35 91.25V91.15H30.25V91.05V90.95H30.15V90.85V90.75L30.05 90.65V90.55H30.15V90.45V90.35V90.25L30.25 90.15V90.05V89.85V89.75V89.65V89.55V89.45V89.35V89.25V89.15V89.05V88.95V88.85H30.15V88.75H30.05H29.95H29.85H29.75H29.65L29.55 88.65H29.35V88.55H29.25H29.15V88.45V88.35V88.25H29.05L28.95 88.15H28.85L28.75 88.05V87.95V87.85V87.75L28.85 87.65V87.55H28.95L29.05 87.45H29.15L29.25 87.35H29.35H29.45H29.55V87.25H29.65L29.75 87.15L29.85 87.05V86.95V86.85L29.75 86.75V86.65V86.55V86.45H29.65V86.35L29.55 86.25V86.15H29.45V86.05H29.55V85.95V85.85V85.75V85.65V85.55V85.45V85.35V85.25V85.15L29.65 85.05H29.75L29.65 84.95H29.75V84.85V84.75L29.65 84.65H29.75V84.55V84.45V84.35L29.65 84.15V84.05V83.95H29.75V83.85V83.75V83.65H29.85V83.55V83.45H29.95V83.35L30.05 83.25V83.15V83.05L30.15 82.95H30.25H30.35H30.65H30.95L31.35 83.05L31.45 83.15H31.55H31.65L31.75 83.05L31.95 82.85L32.95 81.75H33.05L33.15 81.65L33.25 81.55L33.35 81.45L33.45 81.35H33.55V81.25V81.15H33.65H33.75V79.95V79.75V79.65H33.85V79.55H33.75H33.65V79.45V79.35V79.25H33.75V78.75V78.65H33.85V78.55V78.45H33.75V78.35V78.25H33.85V78.15V78.05H33.75L33.85 77.95H33.95V77.85H33.85V77.75H33.75V77.65H33.85V77.55H33.75V77.65L33.65 77.55L33.75 77.45V77.35H33.85V77.25H33.95L34.05 77.15H34.15V77.05H34.05H33.95H33.85H33.75V77.15V77.25H33.65V77.15L33.55 76.95L33.45 76.75L33.25 76.45L33.15 76.35L33.05 76.25L32.35 75.55H32.25H32.15H32.05L31.95 75.65H31.85L31.55 75.35L31.45 75.25L31.35 75.15L31.25 75.05H31.15H31.05V74.95L31.35 74.85L31.45 74.75H31.55L31.65 74.65V74.55L31.75 74.45V74.35H31.85V74.25H31.95V74.15V74.05H31.85H31.75H31.65L31.55 73.95H31.65V73.85H31.75V73.75H31.85H31.95H32.05V73.65H31.95V73.55V73.45H31.85H31.75V73.35V73.25H31.85V73.15V73.05V72.95V72.85H31.95V72.75H31.85H31.75V72.85H31.65V72.75V72.65V72.55L31.55 72.45H31.45V72.35L31.55 72.25V72.15V72.05V71.95L31.45 71.85H31.35V71.75V71.65V71.55H31.25V71.45H31.35H31.45H31.55H31.65V71.35V71.25H31.55H31.45V71.15H31.55H31.65V71.05V70.95H31.55V70.85H31.65V70.75H31.55V70.85H31.45H31.35H31.25V70.75V70.65H31.15V70.55H31.05V70.65H30.95H30.85H30.75V70.55H30.65V70.45H30.55V70.35H30.45L30.35 70.25V70.15H30.25V70.05V69.95V69.85H30.15H30.05L29.95 69.75L29.85 69.65L30.05 69.55L29.95 69.35L29.85 69.25H29.75H29.65H29.55H29.45H29.35H29.25L29.45 68.95L27.45 68.15L26.55 67.85L25.85 67.55L24.85 67.25V66.75V66.65L24.75 66.15V65.85L24.65 64.45L24.55 63.65H24.65V63.55H24.75V63.45V63.35V63.25V63.15L24.45 62.65L24.25 62.35L23.95 61.65H23.55H23.35H22.95H22.15H21.95H21.85L21.75 61.25L21.65 60.85L21.55 60.35L21.45 59.85L21.35 59.65V59.45V59.25L21.05 59.35L18.55 59.85L18.35 59.05L18.15 58.55V58.45L17.95 58.05V57.95L17.75 57.75V57.65L17.55 57.45V57.35L17.25 57.15L17.15 56.95L17.25 56.85L17.15 56.75L17.05 56.65H16.95V56.55L16.85 56.45L16.75 56.35V56.25L16.65 56.05L16.55 55.85V55.75L16.45 55.65L16.15 55.35L15.85 55.05V54.95H15.75V54.85L15.45 54.55L15.25 54.25L15.05 54.05L14.95 53.95L14.85 53.85L14.75 53.75L15.15 53.45L15.25 53.35L15.75 52.95L16.15 53.55L16.25 53.75L16.35 53.65L16.75 53.45L17.05 53.25L17.35 53.05L17.65 52.85L17.85 52.75V52.65L17.65 52.45L17.45 52.35L17.35 52.25L17.25 52.15L17.05 51.95L16.95 51.75L16.85 51.55V51.35V51.15L16.95 50.75V50.55L17.05 50.45V50.35V50.15V49.55L17.35 49.65H17.55L17.65 49.35L17.35 49.15L17.05 49.05V48.75L17.15 48.65V48.45L17.25 48.15L17.35 47.95V47.85V47.75V47.65L17.45 47.55V47.45V47.35L17.55 47.05H17.45L17.35 46.95L17.25 46.85L16.65 46.45L16.35 46.25L15.75 45.95L15.05 45.45V45.05L14.95 43.85H14.65L14.55 43.75L14.45 43.45V42.85V42.45L14.35 42.15V41.85L14.25 41.35L13.35 41.15L13.45 40.75V40.65V40.55V40.45L13.55 40.35L13.65 40.25H13.55V40.15H13.45L13.35 40.05V39.95H13.25V39.85L13.15 39.75H13.05V39.65L12.85 39.45L12.75 39.35L12.65 39.45L12.45 39.75L12.35 39.85V39.95L12.25 40.35L12.15 40.65V40.75V40.85L11.75 40.95V40.85L11.55 40.65H11.45L11.35 40.55V40.45L11.25 40.35L11.05 40.15L10.75 39.85L10.65 39.75L10.55 39.55L10.35 39.35L10.25 39.25L10.15 39.15L10.05 39.05L9.95001 38.95V38.85H9.85004V38.75V38.65H9.75L9.65002 38.45L9.54999 38.25L9.45001 38.15V38.05V37.95L9.35004 37.85L9.25 37.75L9.15002 37.45L9.25 37.15V37.05H9.35004L9.65002 36.65L9.75 36.35H9.85004V36.25H9.75V36.15H9.65002L9.54999 36.05H9.45001L9.35004 35.95V35.85H9.25V35.75H9.15002H9.04999H8.95001V35.65H8.85004V35.55V35.45L8.75 35.35L8.65002 35.25L8.54999 35.15V35.05V34.95L8.65002 34.85H8.85004L10.35 34.45L11.25 34.55L11.15 33.85L10.95 32.75L10.65 32.65L10.05 32.45L9.35004 32.25L8.04999 31.85L7.04999 31.65L6.95001 31.55L6.45001 31.45L5.35004 31.15L5.25 31.05L4.85004 30.95V30.85H4.75V30.75L4.65002 30.65V30.55L4.54999 30.45L4.45001 30.25V30.15H4.35004L4.25 29.95L4.15002 29.75V29.65V29.55V29.45V29.25L4.04999 29.15H3.75L3.25 28.65H3.15002L3.04999 28.55L2.95001 28.45L2.65002 28.15L1.54999 27.25L1.75 27.05L2.25 26.25L1.85004 25.95L1.15002 25.45L0.75 25.15L0.950012 24.95L0.75 24.75L0.650024 24.65L0.450012 24.55V24.35L0.75 23.35V23.15L0.950012 22.45V22.25L0.75 22.15L0.950012 22.05L0.450012 21.75L0.25 21.65L0.450012 21.55V21.45H0.549988V21.35H0.650024H0.75H0.850037L1.54999 20.95L1.85004 20.75L2.04999 20.55L2.35004 20.35L2.45001 20.25H2.54999L2.75 20.05L2.95001 19.95L2.65002 19.35L2.45001 19.05L2.65002 18.95L3.04999 18.65H3.15002V18.55L3.35004 18.05L3.54999 17.35L3.45001 17.05L3.25 16.75L3.15002 16.55L3.25 16.45H3.35004L4.04999 16.25L4.35004 16.15L4.85004 16.05L5.35004 15.95L6.25 15.85L6.75 15.75H6.85004H6.95001V15.85H7.04999V15.95H7.15002V16.05H7.25V16.15V16.25H7.35004L7.45001 16.35H7.54999L7.65002 16.25L7.75 16.15L7.85004 16.05L8.04999 16.15V16.25H7.95001V16.35L8.65002 16.55L8.75 16.65L9.25 16.35L9.45001 16.25V16.15L9.35004 16.05H9.25L8.75 16.25V16.15L8.85004 15.75H8.95001L9.04999 15.65L9.25 15.55V15.35L9.04999 15.25V15.15V15.05L8.75 14.95V14.75L8.65002 14.45H8.75H9.95001V13.95L10.55 14.05L10.65 13.75L10.75 12.95L10.85 12.55L11.15 12.65L11.35 12.25H11.45L12.35 12.15L12.25 12.05V11.95L12.05 11.45L11.85 11.15V11.05V10.95L12.05 10.65V10.55H12.15V10.45H12.25H12.35H12.45V10.35H12.55H12.65H12.75H12.85V10.25H12.95V10.15H13.05V10.25H13.25H13.75L14.35 10.35V10.45L14.45 10.95L14.55 11.05V11.15V11.25L15.95 11.85L16.15 11.45L17.15 11.95L17.85 12.25L18.45 12.55L19.25 12.65H19.55H19.95L20.35 12.35L20.55 12.65L20.85 12.45V12.55V12.65H20.75V12.75L20.85 12.85L20.75 13.05L20.65 12.95H20.55L20.65 13.05L20.75 13.25V13.35V14.25V14.35H20.45V14.45H20.35V14.55V14.65H20.45V14.85V14.95L20.85 15.05V15.25L21.15 15.35L21.35 15.45L21.65 15.65L22.15 16.45L22.35 16.65V16.75H22.45H22.55L22.85 16.55H22.95V16.45L23.25 16.25L23.35 16.15V16.05L23.55 16.15L23.65 16.05H23.75H23.95L24.05 15.95V15.85L24.15 15.75H24.25V15.65H24.35H24.55H24.65H24.75H24.85H24.95V15.75H25.05H25.15H25.25L25.35 15.85V15.95H25.45H25.55H25.65H26.05L26.85 15.85H27.25H27.35H27.75H27.85H27.95L27.85 15.45V15.05H27.95H28.25H28.35H28.45H28.55L28.65 14.95H28.85H29.35L29.55 14.85H29.65H29.75V14.75V14.95V15.75H29.95H30.05H30.65L31.15 15.85H31.25H31.35H31.45H31.95H32.55L32.75 15.95L32.85 15.85H32.95L33.25 15.75H33.35V15.85V15.95H33.25V16.05L33.35 16.25H33.45V16.05L33.55 15.75L33.65 15.65H33.75V15.75L33.85 15.85H33.95V15.95L34.05 16.15L34.15 16.35H34.25V16.45H34.35H34.45L34.55 16.25H34.65V16.15H34.75L35.95 16.65V16.55L36.05 16.35L36.15 16.15L36.25 15.95L36.35 15.85L36.05 15.75H35.95L35.75 15.55L35.55 15.45H35.65V15.35H35.75H35.85V15.25L35.75 15.15H35.65V15.05L35.55 14.95H35.65H35.75V14.85V14.75H35.95H36.05V14.65H36.15H36.25H36.35L36.45 14.55L36.75 14.45H36.85H37.55H38.15L38.75 13.95L39.45 13.35H39.55L40.05 12.85L40.75 12.35L41.15 12.05L41.25 11.95H41.95H42.05V11.85H42.15V11.75V11.65H42.05V11.55V11.45V11.35V11.15L41.95 10.95V10.65V10.55H42.05L42.35 10.45V10.15L42.85 10.05V10.15H42.95H43.05V10.05H43.15H43.25L43.35 10.15V10.05H43.25V9.95001V9.85001H43.15V9.75V9.65001H43.05H42.95V9.55V9.45001L43.25 9.25L43.65 8.95001V8.85001L43.75 8.75L43.85 8.85001H43.95L44.05 8.95001L44.25 9.05L44.55 8.85001H44.65V8.75L44.75 8.65001V8.55H44.85V8.45001V8.35001H44.75V8.25L44.65 8.15001V8.05H44.75V7.95001V7.85001V7.75H44.85L45.15 7.65001L45.25 7.45001V7.35001L45.05 7.05V6.95001L44.85 6.55L44.95 6.45001H45.15H45.25V6.55H45.35H45.65H45.75L45.85 6.25L46.25 6.45001L46.45 6.55H46.55L46.85 6.65001L46.95 6.75L47.15 6.85001L47.05 6.05L47.15 5.85001L47.35 5.55L47.55 5.15001L47.65 5.05V4.95001H47.55V4.85001H47.45V4.75V4.65001H47.55V4.55V4.45001V4.35001H47.65V4.25H47.75H47.85H47.95V4.35001H48.05H48.15H48.25L48.35 4.25L48.55 4.35001L48.65 4.15001L48.85 3.85001L49.05 3.55L49.25 3.25V3.15001L49.35 3.05H49.45H49.55L49.65 2.95001L49.85 3.15001L49.95 3.05H50.05H50.15H50.25H50.45H50.75L51.45 3.15001L51.75 3.45001L52.15 3.95001L52.25 4.05H52.35L52.45 3.95001L52.55 3.85001H52.65L52.75 3.75V3.65001L52.85 3.55H52.95H53.05V3.65001H53.15V3.75L53.75 3.55L54.05 2.75H54.15L54.25 2.85001V2.75L54.35 2.85001L54.45 2.75V2.85001H54.55H54.65H54.75L54.85 2.75H54.95V2.65001H55.05V2.75H55.15H55.25H55.35V2.85001L55.45 2.95001V3.05V3.15001H55.55V3.25H55.65V3.35001V3.45001H55.75L55.85 3.55V3.65001L56.15 3.85001H56.65H56.75L56.95 3.95001V3.85001L57.05 3.95001H57.15L57.35 4.05L57.45 4.15001L57.75 3.85001L57.85 3.75H58.05H58.25H58.35L58.15 3.45001V3.35001V3.25L58.35 3.15001L58.45 3.05L58.55 2.55V2.45001V2.35001L58.65 2.25V1.95001V1.85001V1.75V1.65001V1.55V1.45001V1.35001H58.75V1.25H58.85H58.95V1.15001H59.05L59.25 1.05L59.35 0.950012L59.45 0.850006V0.75H59.55H59.65V0.850006H59.75V0.75H59.65V0.650009H59.75V0.550003L59.85 0.25H59.95H60.25H60.35L60.75 0.550003L60.65 0.850006H60.75L61.05 0.950012L61.15 1.15001L61.35 1.45001L61.55 1.75L62.15 1.85001H62.35L62.45 2.45001V2.85001H62.75H63.35H64.15H65.25V3.75V4.65001H65.75H66.05H66.25L66.85 4.55H67.05H67.15V4.85001L67.25 5.05V5.15001H67.55V5.75L67.45 5.85001L67.85 6.15001H67.95L68.25 6.45001L68.45 6.35001V6.25L68.35 6.15001V6.05V5.95001H68.25V5.85001L68.15 5.75L68.25 5.65001L68.95 5.45001L69.45 5.25L69.75 5.05L70.05 5.15001L70.35 5.25H70.45V5.35001L70.55 5.45001L70.45 5.85001L70.85 5.95001L70.95 5.85001H71.05V5.75V5.65001H71.15L71.25 5.55V5.45001V5.35001V5.25V5.15001H71.35V5.05H71.45V4.95001L71.55 4.85001L71.65 4.75H71.75V4.95001L71.95 5.15001V5.25V5.35001H72.05V5.45001H72.15V5.55H72.25V5.65001V5.75L72.35 5.85001H72.45L72.55 5.95001L72.65 6.05H72.75H72.85L73.05 5.95001V6.05H73.15H73.25L73.15 5.95001H73.25L73.35 5.85001V5.75H73.45L73.55 5.65001V5.35001H74.15L74.75 5.25V5.15001L74.95 5.05L75.15 4.95001H75.25L75.65 5.25L75.85 5.15001H75.95H76.05H76.15L76.25 5.25H76.45L77.05 5.45001L77.25 5.55L77.35 5.75V5.85001H77.45L77.65 5.95001L77.95 6.05L78.85 6.25L79.35 6.35001L80.25 6.55L80.75 6.65001L81.15 6.75L81.65 6.85001L82.35 7.05H82.55V7.15001H82.65L83.45 7.75H83.65L84.85 7.65001L86.05 7.55H85.95V7.45001V7.35001H86.05V7.25H86.15V7.15001V7.05V6.95001L86.05 6.85001V6.65001V6.25H86.45H86.95H87.05L87.25 6.15001L87.75 6.05L88.15 5.95001H88.25L88.15 5.65001L88.05 5.45001H87.95L88.25 5.25L88.65 5.05L88.75 5.15001L88.95 5.25L89.25 4.65001V4.55V4.35001H89.15L89.05 4.25V4.15001L88.75 4.05L88.25 3.95001L87.95 3.85001H87.75H87.45L87.35 3.55V3.35001L87.25 3.25L87.65 3.05V3.15001L87.75 3.25L88.05 3.15001L88.55 3.05L88.65 2.95001H88.85L88.65 2.75V2.65001L88.95 2.55L89.65 2.25L90.05 2.05L90.45 1.95001L90.65 1.85001V2.05L90.95 1.95001L91.35 1.85001L91.55 2.35001V2.45001V2.55H91.65V2.65001H91.75L91.95 2.75V2.85001V2.95001H92.05V3.05L92.15 3.15001L92.35 3.25L92.45 3.35001L92.65 3.25L92.75 3.05L92.85 2.95001L92.95 2.75L93.15 2.55L93.75 1.75L94.55 0.75L95.35 1.35001L96.15 2.05L96.45 2.25L97.25 2.85001L97.15 2.95001L97.65 3.35001V3.45001L97.85 3.65001L98.05 3.55H98.25L98.35 3.65001V3.75H98.45L98.35 3.95001V4.05L98.15 4.55H98.25L98.45 4.15001H98.55H98.65H98.75H98.85L99.35 3.75L99.65 4.05L99.75 3.85001L99.55 3.75L99.65 3.65001H99.55V3.55L99.65 3.45001V3.35001H99.75V3.25H99.85H99.95V3.15001L100.05 3.25H100.15H100.25H100.35V3.35001H100.55L100.65 3.45001L101.15 3.55L101.25 3.75H101.35H101.45V3.85001H101.55V3.95001H101.65L101.95 4.15001L102.15 4.25L101.65 4.85001L101.45 5.25L101.25 5.15001V5.25H101.05L100.95 5.45001H101.05H101.15L101.25 5.55L101.75 6.05L102.05 5.95001L102.15 6.05H102.25V5.95001H102.35V5.85001L102.45 5.65001V5.55L102.55 5.25L102.75 5.05V4.95001V4.75V4.65001V4.55L102.85 4.05V3.85001V3.65001L103.95 3.45001L104.35 3.05H104.45L104.55 2.85001L104.65 2.95001L104.85 2.75L105.65 2.45001L106.25 2.55H106.35L106.55 2.65001H106.65L107.05 2.55H107.15L107.35 2.45001L107.85 1.85001L108.35 2.45001L108.45 2.35001L108.95 2.65001H109.15L109.25 2.75V2.95001H109.35V3.05V3.15001L109.45 3.75L109.55 4.65001L109.65 5.25L109.55 5.85001L109.45 6.95001L109.35 7.65001V7.75V7.95001L109.45 8.15001V8.45001V8.85001L109.55 9.05L109.65 9.25L109.75 9.45001L109.85 9.55V9.65001L109.95 9.75L110.15 9.85001H110.25H110.35H110.45H110.55V10.05L110.75 10.25L110.95 10.85L111.05 10.95L111.25 11.35L111.55 11.55L112.55 12.25L113.25 12.75L113.75 13.05L113.85 13.15H113.95H114.05L114.15 13.25L114.65 13.75L114.95 14.05L115.25 14.25H115.35L115.45 14.15V14.25L115.55 14.35L115.65 14.45V14.55V14.65L116.25 14.95L116.45 15.05H116.55L115.85 15.65L116.15 15.85V16.35L116.55 16.75L117.45 17.35L117.55 17.55L117.45 17.85L117.15 18.35L116.95 18.85L117.65 19.45L119.05 20.75L119.65 21.15V21.25L119.95 21.45L120.25 21.25H120.55L122.35 21.55H122.45L122.95 21.85H123.05L122.85 22.05L122.65 22.25V22.35L122.75 22.45V22.55V22.65V22.75L122.95 22.95L123.05 23.15V23.25L123.15 23.35L122.95 23.55V23.65L123.05 23.75H123.15V23.85H123.05H122.95V24.05L122.85 23.85H122.65V24.05V24.25L122.75 24.45L122.95 24.65L123.05 24.75H123.15L123.35 24.85V25.05H123.45H123.55V24.95L123.75 24.85V24.75L123.65 24.55H123.55H123.45V24.45V24.35H123.55L123.65 24.25V24.35L123.75 24.45H123.95H124.05H124.25V24.55V24.65H124.35H124.45L124.55 24.55H124.65L124.75 24.65L124.65 24.75V24.85L124.75 24.95V25.15L124.85 25.55L125.05 25.95L125.15 25.85V25.65L125.05 25.55H124.95L125.05 25.45L125.15 25.35L125.55 26.05L125.65 26.15L125.55 26.25L125.15 27.45L125.05 27.75H124.75L124.15 28.55L123.75 29.15L123.35 29.75L123.25 29.95L123.15 30.05L123.35 30.45H123.75L123.45 31.45L123.35 31.85L123.95 31.75V32.85H124.35V33.35V33.55H124.55L125.25 34.05L125.55 34.15V34.25L125.65 34.35V34.45H125.75H125.85V34.35V34.25H125.95V34.15H126.05V34.05V33.85H126.15H126.25L126.35 33.95L126.45 33.85H126.55L126.75 33.95V34.05L126.95 34.15H126.85V34.25H126.95V34.35H127.05H127.15L127.35 34.45L127.45 34.35L127.55 34.45V34.55H127.65H127.75V34.65H127.85H127.95H128.05H128.15H128.25V34.75L128.35 34.85L128.45 34.95L128.55 35.05L128.65 35.15H128.75H128.85L128.95 35.05L129.05 34.95H129.15H129.25L129.35 35.05L129.55 35.15L129.65 35.05L129.75 34.85L129.85 34.95H129.95L129.85 35.15L129.95 35.25H130.05H130.15H130.35L130.45 35.15H130.25L130.15 35.05L130.25 34.95V34.85L130.45 34.75V34.65L130.55 34.55L130.45 34.45L130.55 34.35V34.25V34.15V34.05L130.65 33.95V33.85H130.75L130.85 33.75V33.65V33.55H130.75L130.95 33.45L131.15 33.65L131.05 33.75V33.85H130.95V33.95H130.85V34.05V34.25V34.35V34.45V34.65H130.95V34.75L131.05 34.85V34.95L130.95 35.05V35.25H131.25H131.35H131.45L131.55 35.35H131.65L131.75 35.25H131.85L131.95 35.15V35.25H132.05V35.15V35.05V34.95H131.95V34.85V34.75H132.05V34.65L131.95 34.55H132.05V34.45H132.15L132.05 34.35V34.25L131.95 34.15V33.55H132.25V33.35V33.25V33.15H132.15L132.05 32.45V32.35V32.25L132.15 32.15H132.25L132.35 32.05L132.45 31.95L132.75 32.05H132.95H133.15V31.95V31.85L133.25 31.75V31.65L133.35 31.55H133.45L133.85 31.35L134.35 31.45H134.45L134.65 31.55L134.55 31.75H134.65V31.85L134.55 31.95L134.45 32.05L134.35 32.25L134.15 32.55H134.45H134.55H134.65H134.75L135.25 32.45H135.35L135.45 32.35L135.75 32.15L136.25 31.85L137.15 31.75L137.05 31.35H137.45H138.25H138.35L138.45 31.45H138.55L138.75 31.65L139.25 31.45L139.55 30.95L139.85 31.15L140.35 31.25L142.25 31.45L143.35 31.75L143.75 31.85L144.25 31.95L144.05 32.85L143.85 33.45V33.75L143.95 34.15V34.45V34.95V35.45L144.05 36.15V36.45H144.45L144.65 36.35V36.45V36.55H144.75L145.05 36.65V36.85V37.25V37.45L145.35 37.55V38.05V38.15L145.15 38.35L144.55 38.75L144.05 39.15V39.45L143.95 39.65L143.05 40.65L142.65 41.05L142.35 41.45H142.25L141.95 42.05V42.15L141.75 42.45L141.25 43.45H141.15L140.85 44.05L140.45 44.55L140.35 44.65L140.25 44.75L140.15 44.85L140.05 44.95H139.95L140.05 45.25L140.15 45.75L140.25 46.05L140.35 46.55L140.45 46.75V46.85L140.55 47.15H140.65V47.25H140.75V47.35V47.45H140.65V47.55H140.55L140.45 47.65H140.35L140.25 47.75V47.85H140.15V47.95H140.25H140.35H140.45H140.55H140.65L140.85 48.15V48.25L141.05 48.35H141.15V48.45L141.25 48.55L141.65 49.05L141.75 49.15L141.85 49.25H141.95L142.45 49.15L142.85 49.05V49.15L142.95 49.35L143.05 49.55L143.25 49.85L143.35 50.05L143.65 50.55L143.95 51.15L144.05 51.35V51.45L144.35 51.75L144.45 51.85V51.95L144.55 52.05L144.65 52.15H144.75H144.85V52.25L145.05 52.45L145.25 52.65H145.35V52.75H145.45L145.75 52.95H145.85L145.95 52.75L146.25 52.65H146.35L146.45 52.75L146.65 52.85L146.75 52.95L146.85 53.05L147.15 53.15L148.05 53.65L148.25 53.45L148.35 53.35L148.45 53.25L148.55 53.05L148.65 52.95L148.95 52.65L149.45 52.75L150.15 52.85H150.45V53.25H150.05L149.95 53.35L150.05 53.75H149.95L149.85 53.85H149.75H149.65H149.55V53.95V54.05H149.65L149.75 54.15V54.25V54.35H149.85V54.25H149.95V54.35L150.05 54.45H150.15L150.25 54.55L150.35 54.65H150.45V54.75L150.55 54.85V54.95L150.65 55.05H150.75H150.85H150.95H151.15L151.45 54.95L151.55 54.85L151.75 54.95L152.15 55.05H152.45L152.55 55.15H152.65L152.85 55.35L153.25 55.55L153.45 55.45L153.65 55.35H153.75H153.85V55.25H153.95L154.25 55.05V54.95L154.45 55.05L154.85 55.15L155.45 55.45L155.75 55.85H155.85L156.75 56.25L157.15 56.35L157.25 56.45V56.65L157.15 56.85H157.35H157.45H157.65L157.75 56.95H157.85H157.95H158.05V57.15H158.15L158.25 57.25H158.35V57.35V57.45L158.25 57.55L158.15 57.95L158.05 58.05V58.15L158.15 58.45V58.65L158.25 58.75V58.85L158.45 59.05L158.35 59.25L158.15 59.35H158.05L157.95 59.25H157.85L157.75 59.15V59.25H157.65L157.55 59.45L157.35 59.55L157.55 59.85L157.45 59.95V60.05L157.55 60.15H157.65V60.25H157.75L157.85 60.35H157.95V60.45L157.65 60.95L157.75 61.35L157.85 61.65L157.95 61.85L157.85 62.05V62.15H157.75L157.85 62.25L157.65 62.45V62.75V62.95V63.05L157.85 63.15V63.25V63.35V63.45V63.55V63.65H157.95L157.75 63.75L157.85 63.85L158.15 64.15L158.45 64.45L158.55 64.55H158.85H159.05H159.25H159.35L159.55 64.65L159.95 64.75H160.15H160.35L160.45 65.35V65.45L160.55 65.75L160.65 66.25L160.55 66.35H160.45H160.35H160.25H160.15H160.05L159.95 66.45L159.85 66.35L159.75 66.25L159.65 66.35L159.45 66.45H159.55V66.55L159.65 66.65L159.85 66.55L159.95 66.45L160.05 66.55H160.15V66.75L159.85 67.25L159.55 67.75V67.95H159.65H159.75V68.05H159.85L159.95 68.15L160.25 68.35H160.35H160.45V68.45H160.55H160.65V68.55H160.75L160.85 68.45H160.95L161.05 68.55H161.15V68.45L161.25 68.55H161.35H161.55V68.45H161.65H161.75H161.85H161.95H162.05H162.15V68.55H162.25H162.35H162.45H162.55L162.85 68.65H162.95H163.05H163.15H163.25H163.35H163.55H163.65L163.75 68.75H163.85H163.95L164.05 69.05L164.25 69.45L164.65 70.15L165.75 70.05L166.95 69.95V69.75L167.75 69.65H168.45H168.65H168.75V69.55L169.15 69.45V69.95V70.05L168.65 70.25V70.75V70.85H168.75L168.95 71.15L169.15 71.35L169.25 71.45L169.35 71.65L169.45 71.85L169.55 71.95H169.65V72.05L169.75 72.35L169.85 72.45L169.95 72.65V72.75L170.15 73.15L170.25 73.55V73.75L170.35 73.85L170.45 74.25L170.55 74.65L170.65 75.05L170.85 75.25V75.45L170.95 75.55V75.75L171.05 75.85L171.15 76.15L171.25 76.25L171.35 76.45L171.45 76.65L171.55 76.95L171.65 77.25L171.75 77.35V77.45L171.45 77.55L171.35 77.65H171.25H171.15V77.75V77.85H171.05H170.95H170.85H170.75V77.95H170.65H170.55H170.45H170.35H170.15H169.85L169.75 78.05H169.65H169.55H169.45H169.05H168.95L168.85 78.15H168.55H168.25L167.75 78.25L167.65 78.45V78.55V78.65L167.75 78.85L167.85 78.95L168.75 79.15V79.65L168.65 79.85H169.05L168.95 80.45L168.85 80.95L169.45 81.05L169.95 81.15V81.25L170.35 81.35L170.95 81.55L171.65 81.65L171.75 81.75V81.85V81.95L171.85 82.05L171.95 82.25V82.35V82.75L171.85 83.15L171.55 84.25L171.25 84.15L170.85 84.05L170.55 83.95V84.25H170.45L170.35 84.15L169.85 84.05H169.65L169.55 83.95L169.15 83.85L168.75 83.75L168.35 83.65L167.05 83.35L166.55 83.25H166.45L166.05 83.15L165.75 83.05L165.45 82.95L165.05 82.85H164.65L164.35 82.75H164.25L163.95 82.65L163.75 83.25L163.95 83.35L163.85 83.75L163.75 83.85L163.65 84.25L163.45 85.15V85.25L163.35 85.55L163.25 86.15L163.15 86.45L163.45 86.55L164.25 86.65L164.75 86.85L165.15 87.25L165.25 87.15H165.35H165.45V87.05H165.55L165.45 87.55V87.65L165.05 89.25V89.35L164.95 89.85L164.85 90.25V90.35L166.15 90.85H166.25V90.95H166.15V91.05L165.95 91.25L165.65 91.75L165.25 92.25L165.05 92.55L164.65 93.05V93.15L164.35 93.35L164.25 93.55V93.65H164.15L164.05 93.75L163.25 94.75L163.15 94.85L163.05 95.05H162.95L162.65 95.45L162.45 95.75L161.95 96.25L161.45 96.85L161.35 97.05L161.85 98.85L161.55 99.05L161.45 99.15H161.35V99.25V99.35V99.45H161.25V99.55V99.65L161.05 100.05L160.95 100.25L160.65 100.05L160.25 99.85L160.45 99.55L160.55 99.35L160.05 99.05L159.65 98.85L159.45 98.75H159.35L159.05 98.65L158.15 98.55V98.65L158.05 98.75L157.85 98.85H157.05L156.65 98.75L156.05 98.85V98.75H155.95L155.85 98.85V98.75H155.75H155.45L155.05 98.65L154.65 98.55L154.45 98.45H154.35H154.25L154.05 98.35H153.95H153.85H153.75L153.55 98.25L153.05 98.35H152.95H152.85H152.75V98.45H152.65V98.35H152.55L152.45 98.45H152.35H152.25V98.35H152.15H152.05H151.95L151.85 98.45H151.75V98.35H151.65V98.25H151.55L151.45 98.15V98.05H151.35V97.95H151.25V97.85V97.75V97.65H151.15V97.55V97.45V97.35V97.25H151.25V97.15L150.75 96.95L150.15 96.65L149.85 96.45L149.05 96.05L148.95 96.15H148.85L148.55 96.45V96.55H148.45V96.65H148.35L148.25 96.95V97.05L148.45 97.15L148.35 97.35V97.45H148.25L148.15 97.65V97.75L148.05 97.85V97.95L147.95 98.05H148.05V98.15L147.85 98.45L147.55 98.35L147.45 98.75L147.35 98.85V98.95V99.15L147.25 99.25V99.35V99.45H147.15V99.55V99.65L146.85 100.65L146.65 100.95L146.55 101.45L146.45 101.65V101.75L146.35 101.95L146.25 102.35L146.45 103.05L146.55 103.55V103.65L146.65 103.85V103.95L146.75 104.15V104.45L146.95 105.05L147.05 105.55L147.25 106.15L147.35 106.95L147.55 107.55L147.65 108.15L147.85 108.85V108.95L147.95 109.25L148.05 109.65L148.15 109.95Z" fill="#220F0F"/>
<path d="M147.65 109.55H147.75V109.65H147.85H147.95V109.75V109.85V109.95H147.85V110.05V110.15H147.95L148.05 110.05H148.15V109.95L148.05 109.65L147.95 109.25L147.85 108.95V108.85L147.65 108.15L147.55 107.55L147.35 106.95L147.25 106.15L147.05 105.55L146.95 105.05L146.75 104.45V104.15L146.65 103.95V103.85L146.55 103.65V103.55L146.45 103.05L146.25 102.35L146.35 101.95L146.45 101.75V101.65L146.55 101.45L146.65 100.95L146.85 100.65L147.15 99.65V99.55V99.45H147.25V99.35V99.25L147.35 99.15V98.95V98.85L147.45 98.75L147.55 98.35L147.85 98.45L148.05 98.15V98.05H147.95L148.05 97.95V97.85L148.15 97.75V97.65L148.25 97.45H148.35V97.35L148.45 97.15L148.25 97.05V96.95L148.35 96.65H148.45V96.55H148.55V96.45L148.85 96.15H148.95L149.05 96.05L149.85 96.45L150.15 96.65L150.75 96.95L151.25 97.15V97.25H151.15V97.35V97.45V97.55V97.65H151.25V97.75V97.85V97.95H151.35V98.05H151.45V98.15L151.55 98.25H151.65V98.35H151.75V98.45H151.85L151.95 98.35H152.05H152.15H152.25V98.45H152.35H152.45L152.55 98.35H152.65V98.45H152.75V98.35H152.85H152.95H153.05L153.55 98.25L153.75 98.35H153.85H153.95H154.05L154.25 98.45H154.35H154.45L154.65 98.55L155.05 98.65L155.45 98.75H155.75H155.85V98.85L155.95 98.75H156.05V98.85L156.65 98.75L157.05 98.85H157.85L158.05 98.75L158.15 98.65V98.55L159.05 98.65L159.35 98.75H159.45L159.65 98.85L160.05 99.05L160.55 99.35L160.45 99.55L160.25 99.85L160.65 100.05L160.95 100.25L161.05 100.05L161.25 99.65V99.55V99.45H161.35V99.35V99.25V99.15H161.45L161.55 99.05L161.85 98.85L161.35 97.05L161.45 96.85L161.95 96.25L162.45 95.75L162.65 95.45L162.95 95.05H163.05L163.15 94.85L163.25 94.75L164.05 93.75L164.15 93.65H164.25V93.55L164.35 93.35L164.65 93.15V93.05L165.05 92.55L165.25 92.25L165.65 91.75L165.95 91.25L166.15 91.05V90.95H166.25V90.85H166.15L164.85 90.35V90.25L164.95 89.85L165.05 89.35V89.25L165.45 87.65V87.55L165.55 87.05H165.45V87.15H165.35H165.25L165.15 87.25L164.75 86.85L164.25 86.65L163.45 86.55L163.15 86.45L163.25 86.15L163.35 85.55L163.45 85.25V85.15L163.65 84.25L163.75 83.85L163.85 83.75L163.95 83.35L163.75 83.25L163.95 82.65L164.25 82.75H164.35L164.65 82.85H165.05L165.45 82.95L165.75 83.05L166.05 83.15L166.45 83.25H166.55L167.05 83.35L168.35 83.65L168.75 83.75L169.15 83.85L169.55 83.95L169.65 84.05H169.85L170.35 84.15L170.45 84.25H170.55V83.95L170.85 84.05L171.25 84.15L171.55 84.25L171.85 83.15L171.95 82.75V82.35V82.25L171.85 82.05L171.75 81.95V81.85V81.75L171.65 81.65L170.95 81.55L170.35 81.35L169.95 81.25V81.15L169.45 81.05L168.85 80.95L168.95 80.45L169.05 79.85H168.65L168.75 79.65V79.15L167.85 78.95L167.75 78.85L167.65 78.65V78.55V78.45L167.75 78.25L168.25 78.15H168.55H168.85L168.95 78.05H169.05H169.45H169.55H169.65H169.75L169.85 77.95H170.15H170.35H170.45H170.55H170.65H170.75V77.85H170.85H170.95H171.05H171.15V77.75V77.65H171.25H171.35L171.45 77.55L171.75 77.45V77.35L171.65 77.25L171.55 76.95L171.45 76.65L171.35 76.45L171.25 76.25L171.15 76.15L171.05 75.85L170.95 75.75V75.55L170.85 75.45V75.25L170.65 75.05L170.55 74.65L170.45 74.25L170.35 73.85L170.25 73.75V73.55L170.15 73.15L169.95 72.75V72.65L169.85 72.45L169.75 72.35L169.65 72.05V71.95H169.55L169.45 71.85L169.35 71.65L169.25 71.45L169.15 71.35L168.95 71.15L168.75 70.85H168.65V70.75V70.25L169.15 70.05V69.95V69.45L168.75 69.55V69.65H168.65H168.45H167.75L166.95 69.75V69.95L165.75 70.05L164.65 70.15L164.25 69.45L164.05 69.05L163.95 68.75H163.85H163.75L163.65 68.65H163.55H163.35H163.25H163.15H163.05H162.95H162.85L162.55 68.55H162.45H162.35H162.25H162.15V68.45H162.05H161.95H161.85H161.75H161.65H161.55V68.55H161.35H161.25L161.15 68.45V68.55H161.05L160.95 68.45H160.85L160.75 68.55H160.65V68.45H160.55H160.45V68.35H160.35H160.25L159.95 68.15L159.85 68.05H159.75V67.95H159.65H159.55V67.75L159.85 67.25L160.15 66.75V66.55H160.05L159.95 66.45M147.65 109.55V109.65M147.65 109.55H147.55L147.65 109.25H147.55L147.45 109.15H147.35L147.05 108.95H146.95V108.85V108.75L146.65 108.55L146.55 108.65L146.05 107.95L146.15 107.75V107.65H146.05H145.95L145.85 107.55H145.75H145.65H145.55H145.45V107.45H145.35V107.35V107.25V107.15M145.35 107.15V107.05V106.95M145.35 107.15L145.25 107.25V107.35H145.15V107.25H145.05V107.15H145.15V107.05V106.95H145.25V106.85H145.15L145.05 106.75H144.95H144.85M144.85 106.75V106.85M144.85 106.75H144.75V106.85H144.65V106.75H144.55L144.25 107.25L144.15 107.35L143.95 107.65L143.75 107.45L143.65 107.35H143.55V107.45H143.45V107.55V107.65L143.35 107.75V107.85V107.95L143.25 108.05V108.15V108.25V108.35V108.45V108.55V108.65V108.85L143.15 109.05V109.25V109.35L143.25 109.45H143.15V109.55V109.65H143.05H142.95L142.85 109.75H142.75V109.65H142.65V109.55H142.55V109.65V109.75H142.45H142.35V109.85L142.15 110.05L141.65 109.85V109.65L141.05 109.45L140.75 109.35L140.65 109.25V109.35H140.55H140.45V109.25V109.15V108.85H140.55V108.75H140.65V108.65H140.75H140.85H140.95L141.05 108.55H141.15H141.25L141.45 108.65H141.65V108.75H141.75V108.65H141.85H141.95V108.55H142.05V108.45L142.15 108.35V108.25H142.25V108.15V108.05V107.95H142.35L142.25 107.85H142.15H142.05H141.95V107.95H141.85V107.85H141.75H141.65M141.65 107.85V107.95M141.65 107.85H141.55V107.75H141.45H141.35H141.25H141.15H141.05L140.95 107.65H140.85H140.75H140.65H140.55H140.45H140.35V107.55H140.25M140.25 107.55V107.45M140.25 107.55H140.15V107.45H140.05V107.35H139.95V107.25H140.05L139.95 107.15V107.05H140.05V106.95H139.95H139.85H139.75H139.65V106.85H139.55M139.55 106.85V106.95M139.55 106.85H139.45V106.95H139.35H139.25H139.15L139.05 107.05H138.95H138.85H138.75H138.65V107.15H138.55H138.45H138.35L138.45 107.05H138.35H138.25V107.15H138.15V107.25H138.05V107.35H138.15V107.45H138.25V107.55V107.65H138.35H138.45V107.75H138.35V107.85H138.25V107.95V108.05H138.35L138.45 107.95H138.55V108.05V108.15H138.45H138.35V108.25H138.25H138.15H138.05L137.95 108.35V108.45M137.95 108.45H137.85M137.95 108.45V108.55V108.65H137.85V108.75H137.75H137.65L137.55 108.85V108.75H137.45V108.65V108.55V108.45V108.35V108.25M137.45 108.25H137.55V108.15M137.45 108.25V108.15H137.55M137.45 108.25H137.35H137.25V108.15V108.05H137.35H137.45V107.95H137.35V107.85H137.25H137.15H137.05V107.95H136.95M137.55 108.15H137.65M137.55 108.15V108.05M136.95 107.95V107.85M136.95 107.95H136.85V108.05H136.75H136.65H136.55H136.45V108.15H136.35V108.05L136.45 107.95H136.35M136.35 107.95V107.85M136.35 107.95L136.25 108.05H136.15H136.05H135.95H135.85L135.95 108.15H135.85V108.25V108.35H135.75V108.45M135.75 108.45H135.85M135.75 108.45H135.65M135.65 108.45V108.55M135.65 108.45H135.55V108.55H135.45V108.45H135.35V108.55V108.65H135.15H135.05V108.75H134.95V108.85H135.05V108.95V109.05H135.15V109.15V109.25V109.35V109.45H135.25V109.55H135.35V109.65H135.45V109.85L135.35 109.95V110.05L135.45 110.25V110.45L135.25 110.55H135.05L134.65 110.45V110.55V110.65V110.75H134.55H134.45L134.35 110.65V110.55H134.25V110.45H134.15H134.05V110.55V110.65H133.95V110.75L133.85 110.85L133.75 110.95L133.65 111.05L133.55 111.15H133.45H133.35H133.25V111.05H133.15V111.15H133.05L132.95 111.25V111.35H132.85L132.75 111.45H132.65V111.55H132.55H132.45V111.65H132.35H132.25H132.15H132.05V111.55H131.95V111.45H131.85V111.35H131.95L131.85 111.25L131.75 111.35H131.65H131.55H131.45V111.45H131.35H131.25V111.55H131.15V111.65V111.75V111.85V112.25L130.25 112.45L130.15 112.35L130.05 112.25V112.15H129.95V112.05H129.85H129.75V112.15H129.65V112.05V111.95V111.85M129.65 111.85H129.55M129.65 111.85V111.75V111.65H129.55V111.55V111.45H129.45V111.55H129.35H129.25V111.65H129.35V111.75H129.25H129.15H129.05V111.85H128.95H128.85V111.95H128.95V112.05H128.85H128.75V111.95H128.65M128.65 111.95V112.05M128.65 111.95V111.85H128.75M128.65 111.95H128.55V112.05H128.45H128.35V112.15H128.25L128.15 112.25V112.35H128.05L127.75 112.55L127.45 112.75V112.95L127.35 113.05H127.25H127.15V113.15L127.05 113.25H126.95V113.15V113.05M126.95 113.05L127.05 112.95H126.95V113.05ZM126.95 113.05H126.85V112.95H126.75H126.65H126.55V113.05L126.45 113.15V113.25V113.35H126.55L126.65 113.45L126.55 113.55V113.65V113.75V113.85V113.95V114.05H126.65V114.15V114.25H126.75V114.35V114.45H126.65H126.55L126.45 114.35H126.35H126.25H126.15L126.05 114.25L125.95 114.35L125.85 114.15L125.65 114.25L125.75 114.35V114.45V114.55V114.65H125.65L125.55 114.75V114.85M125.55 114.85H125.45M125.55 114.85V114.95H125.65V115.05V115.15H125.55H125.45V115.25H125.35V115.35L125.45 115.55L125.25 115.95L125.45 116.15L125.55 116.35H125.65L125.55 116.45L125.65 116.65L125.75 116.75L125.25 117.15V117.05L125.05 117.25L124.95 117.35L124.85 117.25H124.75H124.55L124.45 117.35H124.35H124.25L123.95 117.15L123.85 117.05H123.75V116.95L123.65 116.85L123.45 116.65H123.35V116.55L123.25 116.45H123.15V116.35H123.05L122.95 116.25L122.85 116.05L122.55 116.15L122.45 116.25L122.35 116.45L122.25 116.55L122.15 116.75L121.95 116.85L121.85 116.75L121.75 116.65L121.55 116.55L121.15 116.25L120.75 115.95L120.65 116.15L120.45 116.35L120.25 116.55L120.35 116.65H120.25L120.15 116.55L119.95 116.45L119.75 116.25L119.45 116.05L118.95 115.75L118.35 115.25L117.95 114.95L117.65 114.65H117.55V114.55H117.45L117.35 114.45H117.15M117.15 114.45L117.05 114.35V114.45H117.15ZM117.15 114.45V114.65L117.25 115.05V115.15V115.25V115.35V115.45L117.35 115.55L117.15 115.85L117.45 116.25V116.35L117.55 116.65L117.65 117.05L117.75 117.35L117.55 117.45L117.15 117.55L116.75 117.65L116.45 117.75L116.55 117.95L116.65 118.15L116.75 118.25L116.45 118.45L116.05 118.65L115.55 118.75L115.15 118.95L114.95 119.05L115.05 119.15L115.15 119.45L114.95 119.65L114.75 119.75L114.55 119.95V120.05L114.65 120.35H114.15L114.05 120.45L113.75 120.65L113.65 120.85L113.55 120.95V121.05L113.35 121.35V121.45L113.25 121.55V121.75H113.35L113.55 121.85L113.75 121.95H113.85H113.95L114.05 122.05H114.15V122.15H114.25L114.15 122.45L114.45 122.75L114.55 122.85L114.45 123.15L114.15 123.65L113.95 123.85V123.95L113.85 124.05V124.15L113.75 124.25L113.55 124.55L113.35 124.85L113.15 125.15L112.95 125.55L112.55 126.15L112.45 126.75L112.35 127.05V127.35L112.25 127.65V127.75V127.85V127.95L112.15 128.05V128.45V128.55L112.05 128.65V128.95V129.05L111.95 129.35V129.55V129.65L112.15 129.75V129.85H112.25L112.35 129.95V130.05L112.55 130.15L112.35 130.35L112.25 130.45L112.45 130.55L112.55 130.65L112.85 130.85L113.15 131.05L113.35 131.15L113.85 131.45L113.75 131.65V131.75V132.05V132.45L113.65 132.65H113.75H113.85H113.95H114.05H114.25H114.45V132.85V132.95V133.05V133.15V133.25V133.35V133.45H114.35V133.55H114.25V133.65L114.15 133.75H114.05H113.95V133.85H113.85V133.75V133.65V133.55H113.75V133.65H113.65V133.55H113.55H113.45H113.35H113.15V133.65V134.05V134.25V134.35V134.65L113.05 134.75H113.15H113.25H113.35H113.45V134.85H113.55H113.65H113.75L113.85 134.95H113.95V135.05M113.95 135.05H114.05H114.15H113.95ZM113.95 135.05V135.15L113.85 135.25L113.75 135.35H113.65H113.55V135.25H113.45H113.35L113.25 135.35H112.45H111.75V136.15L111.85 136.25V136.65V137.45V137.85V138.15H112.45H112.55H112.65V138.05H112.75L112.95 137.75L113.15 137.55L113.25 137.65L113.55 137.85L113.65 137.95H113.75V138.05L113.95 138.15H114.05V138.25V138.35H113.95H113.85V138.45H113.75V138.55H113.65V138.65H113.55V138.75H113.45L113.35 138.85H113.25L113.15 138.95V139.05H113.05V139.15V139.25V139.35H112.95V139.45H112.85H112.75H112.65L112.55 139.55H112.45H112.35V139.65V139.75V139.85H112.45V139.95V140.05V140.15H112.55H112.65H112.75V140.25V140.35V140.45V140.55L112.65 140.65V140.75V140.85V140.95V141.05H112.55H112.45L112.35 141.15V141.25H112.45V141.35V141.45L112.55 141.55V141.65H112.45H112.35H112.25V141.75H112.35V141.85H112.25H112.15L112.05 141.95V142.05V142.15L112.25 142.35V142.45V142.55H112.15L112.05 142.65H111.95L111.85 142.75V142.85H111.75L111.55 142.75V142.55L111.65 142.35L111.75 142.05L111.85 141.85V141.75L111.75 141.65V141.55L111.55 141.45L111.35 141.25H111.15L110.95 141.15H110.55H110.45L110.15 141.25L109.95 141.35H109.85L109.55 141.25L109.35 141.15L109.05 140.85L108.55 140.45L108.45 140.25H108.35L108.15 140.15L107.95 140.05H107.75L107.45 140.15L107.25 140.05L107.05 139.95L106.85 139.75L106.45 139.35L106.25 139.15L106.15 139.05L105.95 138.95L105.85 138.85L105.65 138.75H105.55H105.35L105.15 138.85L104.95 138.95L104.75 139.05H104.65H104.45L103.95 138.95H103.75L103.35 138.75L103.15 138.55L103.05 138.45L102.85 138.25L102.75 137.95V137.65L102.65 137.35L102.75 137.15V136.95L102.85 136.75V136.65L103.15 136.45V136.25L103.25 136.15V136.05L103.15 135.85L103.05 135.75L102.95 135.55L102.75 135.35L102.55 135.25L102.45 135.15H102.25L101.95 135.05H101.75L101.65 135.15H101.45L101.25 135.25H100.95H100.75H100.65L100.45 135.15L100.25 135.05L100.15 134.85L99.85 134.55L99.65 134.35L99.35 134.15L99.05 134.05L98.75 133.85L98.55 133.75L98.45 133.55L98.35 133.45V133.35V133.15V132.95V132.55V132.45L98.25 132.35L98.05 132.15H97.95L97.65 132.05L96.95 131.95H96.65H96.25H96.05H95.85L95.75 131.85L95.45 131.65L94.95 131.35H94.85L94.45 131.05L94.15 130.95H94.05L93.95 130.85H93.85H93.75H93.55H93.45H93.35L93.05 130.75L92.85 130.55L92.65 130.45L92.45 130.25V130.15L92.35 130.05L92.25 129.95L91.95 129.75V129.65L91.85 129.55L91.65 129.45V129.35L91.55 129.25L91.45 129.15L91.25 128.95H91.15L91.05 128.85L90.85 128.75H90.65L90.45 128.65L90.25 128.55L90.05 128.35L89.85 128.25L89.75 128.15L89.35 127.85L88.95 127.35L88.75 127.15L88.65 127.05L88.55 126.95L88.35 126.75L87.95 126.55H87.85L87.65 126.45L87.25 126.35L87.05 126.25H86.95H86.75H86.55H86.45H86.35H86.25H86.15H85.95L85.65 126.15H85.45L85.25 126.05L85.05 125.95L84.75 125.85H84.65H84.55L84.15 125.95H84.05L83.55 126.15H83.35H83.15H83.05H82.95L82.65 126.25H82.55H82.45H82.25L82.15 126.15L81.75 125.85L81.65 125.75H81.55L81.35 125.65L81.25 125.55V125.35L81.15 125.25L81.05 125.15H80.95V125.05H80.85H80.75V124.95L80.65 124.85L80.55 124.65L80.45 124.55L80.25 124.05L80.05 123.75L79.95 123.25H79.85H79.75L79.65 123.35H79.35H79.05L78.85 123.45L78.55 123.65V123.75V123.95L78.45 124.15V124.25V124.35V124.45V124.55L77.65 124.95V125.05L77.25 125.65L76.95 125.45L76.85 125.75L76.75 125.95H76.65V126.05L76.95 126.25L77.15 126.35L76.95 126.55L76.45 127.35L76.05 127.95L75.75 128.05L75.65 127.75L74.95 127.85L75.05 128.15H75.35V128.25V128.35V128.45L74.65 128.35L74.45 128.25H74.35L74.25 128.35H74.15H73.95V127.85H73.85H73.75H73.65L73.45 126.85L72.35 127.05L71.45 127.25V127.55H71.35H71.25L71.15 127.65H71.05V127.75L70.85 127.95V128.05V128.15H70.75H70.65H70.55V128.05H70.45V128.15H70.35V128.25H70.25L70.45 126.65L70.15 126.35L70.35 125.35L70.25 125.25L69.25 125.15L69.05 125.05H68.95L68.15 124.95L68.05 125.25L67.95 125.35H67.85L67.65 125.55L67.55 125.45L67.35 125.35V125.25L67.55 125.35L67.65 125.45L67.75 125.15V125.05L67.55 124.85H67.35H67.25H67.15H67.05L66.85 124.55L66.65 124.75L66.75 124.95L66.55 125.15L66.45 125.25V125.35L66.55 125.85V126.85L66.65 127.15V127.25L66.45 127.15L65.25 126.35L64.25 125.65L64.15 125.55V125.35V125.15H64.05H63.95L63.65 125.25L63.15 125.55L63.05 125.35L62.45 125.55L62.35 125.15L62.15 124.85L62.75 124.55L62.55 124.05L62.35 123.65L62.05 123.05H62.15V122.95V122.85H62.05L61.95 122.45L61.75 122.05L61.65 121.85L61.55 121.65L61.35 121.25V121.05V120.95H61.45V121.05V120.75H61.55H61.65L61.75 120.65H61.85V120.55H61.95V120.45L62.05 120.35V120.25H62.15L62.25 120.15H62.35L62.45 120.05H62.55L62.65 119.95L62.75 119.85L62.85 119.75L62.95 119.65H63.05H63.15L63.25 119.55L63.15 119.45L62.95 119.05L62.85 118.95L62.75 118.65L62.65 118.55V118.45V118.35L62.55 118.25L62.45 118.35H62.35V118.15V118.05V117.95L62.15 117.45L61.75 116.95L61.65 116.85L61.55 116.65L61.45 116.55V116.45V116.35L61.55 116.25V116.15L61.85 115.55L61.45 115.35L61.25 115.15H61.15H60.85L60.35 115.25V115.15L60.45 115.05V114.95V114.85H60.35H60.25H60.15H60.05L59.95 114.75V114.65L60.05 114.55H59.95H59.85M59.85 114.55V114.65M59.85 114.55H59.75H59.65H59.55L59.65 114.35H59.75L59.85 114.25H59.95L60.15 114.15H60.25V114.05L60.35 114.15H60.45H60.55H60.65H60.75H60.85H60.95L61.35 113.25L61.45 112.95L61.75 112.45L61.35 112.35L61.05 112.25L60.85 112.15L60.75 112.05L60.65 111.95V111.85L60.35 111.55L60.25 111.35L60.15 111.25L59.85 111.35V110.75L59.75 110.55V110.45V110.35V110.25L59.65 109.95L59.55 109.85L59.45 109.75L59.15 109.45L59.05 109.35L58.75 109.05L58.65 108.95L58.45 108.75H58.35L58.45 108.85V108.95V109.05L58.55 109.35L58.65 109.55V109.75L58.75 109.85V110.05L58.85 110.25V110.35V110.45V110.55V110.65V110.85V110.95V111.25V111.35V111.55V111.95V112.05V112.65V112.85V113.55V113.65V114.35V114.55V114.65V114.95V115.05L58.75 115.45V115.55H58.65H58.55L58.15 115.25L57.95 115.15L57.85 115.05H57.75L57.65 115.15V115.55V115.65H57.55L57.15 115.75L57.05 115.85L56.95 115.95H56.85H56.65H56.55H56.45L56.35 115.85L56.25 115.55V115.45H56.15L55.95 115.35V115.25L56.35 114.85L56.25 114.75L55.85 114.25L55.75 114.15H55.65H55.45H55.35L54.85 114.25H54.75L54.65 114.35L54.55 114.25H54.35L54.25 114.15V114.05L54.15 113.95V113.85L54.25 113.65L54.35 113.25V113.05L54.25 112.85V112.65L53.95 112.35V112.25V112.15L54.25 111.85L54.35 111.75V111.65V111.55L54.25 111.45L54.15 111.25L53.85 110.95L53.75 110.75L53.45 110.35L53.15 109.75L52.95 109.45V109.35L52.85 109.25L52.55 109.05L52.45 108.95V108.85L52.35 108.75V108.65V108.45V108.35L52.25 108.25L52.15 108.05L51.95 107.75L51.75 107.65L51.65 107.55H51.55H51.35H51.05L50.85 107.45L50.65 107.35H50.45L50.35 107.25H50.25H49.85L49.25 107.45H49.05L48.85 107.35H48.55L48.35 107.45H48.05H47.95L47.85 107.35L47.75 107.25L47.55 107.05L47.35 106.55L47.25 106.45L46.85 106.25L46.45 106.05L46.05 105.95H45.95L45.85 105.75L45.65 105.65L45.55 105.55V105.35L45.45 105.25V105.05V104.95L45.55 104.75V104.65L45.65 104.45L45.75 104.25V104.15V103.95V103.75V103.55L45.65 103.45V103.25L45.55 103.15V103.05H45.45L45.35 102.95L45.25 102.85L44.95 102.75H44.85H44.75L44.45 102.85L44.25 102.95H44.15L43.95 103.05L43.55 103.35L43.35 103.45H43.25H43.15L43.05 103.55H42.95L42.75 103.65H42.65L42.45 103.55H42.35H41.95L40.75 103.45L39.65 102.95L39.15 102.65H39.05L38.95 102.55L38.85 102.45H38.75L38.65 102.35H38.55H38.45L38.25 102.45L38.15 102.55H38.05H37.85H37.65H37.55L37.35 102.45H37.25H37.15H37.05H36.95H36.85L36.75 102.55V102.65L36.65 102.75L36.55 102.85L36.45 102.95L36.25 103.15L36.05 103.25H35.75H35.35H35.15L35.05 103.35H34.95L34.85 103.45L34.65 103.55L34.55 103.65H34.45H34.35L34.25 103.55H34.15V103.45V103.35H34.05V103.25H34.15V103.05V102.95L34.05 102.85H33.95H33.75H33.65V102.75H33.55L33.35 102.45L33.25 102.35L33.05 102.15L32.95 102.05H32.85H32.45H32.35H32.25V101.95L32.15 101.85L32.05 101.75H31.95H31.85H31.55L31.15 101.85H30.85L30.65 101.95H30.55H30.35L30.25 101.85H30.15V101.95H30.05H29.95L29.85 102.15V102.25H29.75L29.65 102.35L29.35 102.45L29.15 102.55H28.95L28.85 102.45L28.65 102.35L28.45 102.15L28.15 101.75L28.05 101.65L27.95 101.55H27.85H27.65H27.55H27.45H27.35L27.25 101.65L26.85 101.95L26.75 102.05H26.65H26.55L26.45 101.95V101.85L26.35 101.65V101.45L26.25 101.05L26.15 100.75V100.65L26.05 100.45V100.35H25.95L25.85 100.25L25.55 100.15L25.25 99.95H24.95L24.65 99.85H24.55L24.45 99.75L24.35 99.65L24.15 99.45L24.05 99.35L23.75 99.05H23.65L23.45 98.85L22.95 98.55L22.75 98.35L22.65 98.25H22.45V98.15H22.35H22.05L21.75 98.05L21.55 97.95L21.35 97.85L21.15 97.75L21.05 97.65L20.45 97.15L19.85 96.65L19.55 96.35H19.45V96.25V96.15L19.55 96.05L19.75 95.75L19.85 95.65L19.95 95.55H20.05V95.45V95.35V95.25H19.95L19.75 95.35H19.65H19.55H19.35H19.25V95.25L19.15 95.15V95.05V94.95V94.85L19.25 94.65H19.35V94.55L19.85 94.25L19.95 94.15L20.05 94.05V93.95V93.85V93.55V93.45V93.35L20.15 93.25L20.45 92.75L20.55 92.65V92.55L20.65 92.45V92.25V92.15L20.85 91.85V91.75L20.95 91.35V91.25L21.05 91.05V90.95L21.25 90.85H21.35L21.45 90.35L21.55 90.25V90.15H21.65H21.75V90.25H21.85L21.95 90.35H22.05L22.15 90.45H22.25V90.55L22.35 90.65V90.75V90.85H22.45V90.95H22.35V91.05H22.45V91.15V91.25V91.35H22.55V91.45V91.55H22.65L22.75 91.65L22.85 91.75V91.85H22.95H23.05L23.15 91.95V92.05H23.25L23.35 92.15H23.45H23.55L23.65 92.25H23.75H23.85H23.95V92.15H24.05H24.15V92.05H24.25H24.35L24.45 92.15H24.55H24.65V92.25H24.75V92.35H24.85H24.95H25.05H25.15H25.25V92.45H25.35H25.45H25.55H25.65H25.75H25.85H25.95L26.05 92.55H26.15H26.25V92.65H26.35H26.45V92.75H26.55V92.85H26.65H26.75V92.95H26.85V93.05H26.95H27.05L27.15 93.15H27.25V93.25H27.35H27.45L27.55 93.35L27.65 93.45H27.75H27.85L27.95 93.55H28.05V93.65H28.15V93.75H28.25V93.85H28.35L28.45 93.95H28.55L28.65 94.05H28.75H28.85H28.95V94.15H29.05H29.15H29.25H29.35M29.35 94.15V94.05M29.35 94.15H29.45H29.55H29.65V94.25H29.75V94.35H29.85H29.95H30.05V94.45H30.15H30.25H30.35H30.45H30.55H30.65L30.75 94.35H30.85H30.95H31.05H31.15H31.25L31.35 94.25H31.45H31.55H31.65H31.75H31.85H31.95V94.35H32.05H32.15H32.35H32.45L32.55 94.45H32.65H32.75H32.85H33.05V94.35H33.15V94.25V94.15V94.05L33.05 93.95V93.85V93.75V93.65V93.55L32.95 93.45H33.05V93.35V93.25V93.15V93.05V92.95V92.85H32.95H32.85L32.75 92.75H32.65L32.55 92.65L32.45 92.55L32.35 92.45H32.25V92.35L32.15 92.25L32.05 92.15L31.95 92.05V91.95H31.85H31.75H31.65H31.55V92.05H31.45H31.35H31.25H31.15V92.15L31.05 92.05H30.95H30.85V91.95H30.75V91.85H30.65V91.75V91.65H30.55V91.55V91.45H30.45V91.35L30.35 91.25V91.15H30.25V91.05V90.95H30.15V90.85V90.75L30.05 90.65V90.55H30.15V90.45V90.35V90.25L30.25 90.15V90.05V89.85V89.75V89.65V89.55V89.45V89.35V89.25V89.15V89.05V88.95V88.85H30.15V88.75H30.05M30.05 88.75V88.65M30.05 88.75H29.95H29.85H29.75H29.65L29.55 88.65H29.35V88.55H29.25H29.15V88.45V88.35V88.25H29.05L28.95 88.15H28.85L28.75 88.05V87.95V87.85V87.75L28.85 87.65V87.55H28.95L29.05 87.45H29.15L29.25 87.35H29.35H29.45H29.55V87.25H29.65L29.75 87.15L29.85 87.05V86.95V86.85L29.75 86.75V86.65V86.55V86.45H29.65V86.35L29.55 86.25V86.15H29.45V86.05H29.55V85.95V85.85V85.75V85.65V85.55V85.45V85.35V85.25V85.15L29.65 85.05H29.75L29.65 84.95H29.75V84.85V84.75L29.65 84.65H29.75V84.55V84.45V84.35L29.65 84.15V84.05V83.95H29.75V83.85V83.75V83.65H29.85V83.55V83.45H29.95V83.35L30.05 83.25V83.15V83.05L30.15 82.95H30.25H30.35H30.65H30.95L31.35 83.05L31.45 83.15H31.55H31.65L31.75 83.05L31.95 82.85L32.95 81.75H33.05L33.15 81.65L33.25 81.55L33.35 81.45L33.45 81.35H33.55V81.25V81.15H33.65H33.75V79.95V79.75V79.65H33.85V79.55H33.75H33.65V79.45V79.35V79.25H33.75V78.75V78.65H33.85V78.55V78.45H33.75V78.35V78.25H33.85V78.15M33.85 78.15H33.95M33.85 78.15V78.05H33.75L33.85 77.95H33.95V77.85H33.85V77.75M33.85 77.75H33.95M33.85 77.75H33.75V77.65M33.75 77.65H33.85V77.55H33.75V77.65ZM33.75 77.65L33.65 77.55L33.75 77.45V77.35H33.85V77.25H33.95L34.05 77.15H34.15V77.05H34.05H33.95H33.85H33.75V77.15V77.25H33.65V77.15L33.55 76.95L33.45 76.75L33.25 76.45L33.15 76.35L33.05 76.25L32.35 75.55H32.25H32.15H32.05L31.95 75.65H31.85L31.55 75.35L31.45 75.25L31.35 75.15L31.25 75.05H31.15H31.05V74.95L31.35 74.85L31.45 74.75H31.55L31.65 74.65V74.55L31.75 74.45V74.35H31.85V74.25H31.95V74.15V74.05H31.85H31.75H31.65L31.55 73.95H31.65V73.85H31.75V73.75H31.85H31.95H32.05V73.65H31.95V73.55V73.45H31.85H31.75V73.35V73.25H31.85V73.15V73.05V72.95V72.85H31.95V72.75H31.85H31.75V72.85H31.65V72.75V72.65V72.55L31.55 72.45H31.45V72.35L31.55 72.25V72.15V72.05V71.95L31.45 71.85H31.35V71.75V71.65V71.55H31.25V71.45H31.35H31.45H31.55H31.65V71.35M31.65 71.35H31.75M31.65 71.35V71.25H31.55H31.45V71.15H31.55H31.65V71.05V70.95H31.55V70.85M31.55 70.85H31.65V70.75H31.55V70.85ZM31.55 70.85H31.45M31.45 70.85V70.95M31.45 70.85H31.35H31.25V70.75V70.65H31.15V70.55H31.05V70.65H30.95H30.85M30.85 70.65V70.75M30.85 70.65H30.75V70.55H30.65V70.45H30.55V70.35H30.45L30.35 70.25V70.15H30.25V70.05V69.95V69.85H30.15H30.05L29.95 69.75L29.85 69.65L30.05 69.55L29.95 69.35L29.85 69.25H29.75H29.65H29.55H29.45H29.35H29.25L29.45 68.95L27.45 68.15L26.55 67.85L25.85 67.55L24.85 67.25V66.75V66.65L24.75 66.15V65.85L24.65 64.45L24.55 63.65H24.65V63.55H24.75V63.45V63.35V63.25V63.15L24.45 62.65L24.25 62.35L23.95 61.65H23.55H23.35H22.95H22.15H21.95H21.85L21.75 61.25L21.65 60.85L21.55 60.35L21.45 59.85L21.35 59.65V59.45V59.25L21.05 59.35L18.55 59.85L18.35 59.05L18.15 58.55V58.45L17.95 58.05V57.95L17.75 57.75V57.65L17.55 57.45V57.35L17.25 57.15L17.15 56.95L17.25 56.85L17.15 56.75L17.05 56.65H16.95V56.55L16.85 56.45L16.75 56.35V56.25L16.65 56.05L16.55 55.85V55.75L16.45 55.65L16.15 55.35L15.85 55.05V54.95H15.75V54.85L15.45 54.55L15.25 54.25L15.05 54.05L14.95 53.95L14.85 53.85L14.75 53.75L15.15 53.45L15.25 53.35L15.75 52.95L16.15 53.55L16.25 53.75L16.35 53.65L16.75 53.45L17.05 53.25L17.35 53.05L17.65 52.85L17.85 52.75V52.65L17.65 52.45L17.45 52.35L17.35 52.25L17.25 52.15L17.05 51.95L16.95 51.75L16.85 51.55V51.35V51.15L16.95 50.75V50.55L17.05 50.45V50.35V50.15V49.55L17.35 49.65H17.55L17.65 49.35L17.35 49.15L17.05 49.05V48.75L17.15 48.65V48.45L17.25 48.15L17.35 47.95V47.85V47.75V47.65L17.45 47.55V47.45V47.35L17.55 47.05H17.45L17.35 46.95L17.25 46.85L16.65 46.45L16.35 46.25L15.75 45.95L15.05 45.45V45.05L14.95 43.85H14.65L14.55 43.75L14.45 43.45V42.85V42.45L14.35 42.15V41.85L14.25 41.35L13.35 41.15L13.45 40.75V40.65V40.55V40.45L13.55 40.35L13.65 40.25H13.55V40.15H13.45L13.35 40.05V39.95H13.25V39.85L13.15 39.75H13.05V39.65L12.85 39.45L12.75 39.35L12.65 39.45L12.45 39.75L12.35 39.85V39.95L12.25 40.35L12.15 40.65V40.75V40.85L11.75 40.95V40.85L11.55 40.65H11.45L11.35 40.55V40.45L11.25 40.35L11.05 40.15L10.75 39.85L10.65 39.75L10.55 39.55L10.35 39.35L10.25 39.25L10.15 39.15L10.05 39.05L9.95001 38.95V38.85H9.85004V38.75V38.65H9.75L9.65002 38.45L9.54999 38.25L9.45001 38.15V38.05V37.95L9.35004 37.85L9.25 37.75L9.15002 37.45L9.25 37.15V37.05H9.35004L9.65002 36.65L9.75 36.35H9.85004V36.25H9.75V36.15H9.65002L9.54999 36.05H9.45001L9.35004 35.95V35.85H9.25V35.75H9.15002H9.04999H8.95001V35.65H8.85004V35.55V35.45L8.75 35.35L8.65002 35.25L8.54999 35.15V35.05V34.95L8.65002 34.85H8.85004L10.35 34.45L11.25 34.55L11.15 33.85L10.95 32.75L10.65 32.65L10.05 32.45L9.35004 32.25L8.04999 31.85L7.04999 31.65L6.95001 31.55L6.45001 31.45L5.35004 31.15L5.25 31.05L4.85004 30.95V30.85H4.75V30.75L4.65002 30.65V30.55L4.54999 30.45L4.45001 30.25V30.15H4.35004L4.25 29.95L4.15002 29.75V29.65V29.55V29.45V29.25L4.04999 29.15H3.75L3.25 28.65H3.15002L3.04999 28.55L2.95001 28.45L2.65002 28.15L1.54999 27.25L1.75 27.05L2.25 26.25L1.85004 25.95L1.15002 25.45L0.75 25.15L0.950012 24.95L0.75 24.75L0.650024 24.65L0.450012 24.55V24.35L0.75 23.35V23.15L0.950012 22.45V22.25L0.75 22.15L0.950012 22.05M0.950012 22.05H1.04999M0.950012 22.05L0.450012 21.75L0.25 21.65L0.450012 21.55V21.45H0.549988V21.35H0.650024H0.75H0.850037L1.54999 20.95L1.85004 20.75L2.04999 20.55L2.35004 20.35L2.45001 20.25H2.54999L2.75 20.05L2.95001 19.95L2.65002 19.35L2.45001 19.05L2.65002 18.95L3.04999 18.65H3.15002V18.55L3.35004 18.05L3.54999 17.35L3.45001 17.05L3.25 16.75L3.15002 16.55L3.25 16.45H3.35004L4.04999 16.25L4.35004 16.15L4.85004 16.05L5.35004 15.95L6.25 15.85L6.75 15.75H6.85004H6.95001V15.85H7.04999V15.95H7.15002V16.05H7.25V16.15V16.25H7.35004L7.45001 16.35H7.54999L7.65002 16.25L7.75 16.15L7.85004 16.05L8.04999 16.15V16.25H7.95001V16.35L8.65002 16.55L8.75 16.65L9.25 16.35L9.45001 16.25V16.15L9.35004 16.05H9.25L8.75 16.25V16.15L8.85004 15.75H8.95001L9.04999 15.65L9.25 15.55V15.35L9.04999 15.25V15.15V15.05L8.75 14.95V14.75L8.65002 14.45H8.75H9.95001V13.95L10.55 14.05L10.65 13.75L10.75 12.95L10.85 12.55L11.15 12.65L11.35 12.25H11.45L12.35 12.15L12.25 12.05V11.95L12.05 11.45L11.85 11.15V11.05V10.95L12.05 10.65V10.55H12.15V10.45H12.25H12.35H12.45V10.35H12.55H12.65M12.65 10.35V10.25M12.65 10.35H12.75H12.85V10.25H12.95V10.15H13.05V10.25H13.25H13.75L14.35 10.35V10.45L14.45 10.95L14.55 11.05V11.15V11.25L15.95 11.85L16.15 11.45L17.15 11.95L17.85 12.25L18.45 12.55L19.25 12.65H19.55H19.95L20.35 12.35L20.55 12.65L20.85 12.45V12.55V12.65H20.75V12.75L20.85 12.85L20.75 13.05L20.65 12.95H20.55L20.65 13.05L20.75 13.25V13.35V14.25V14.35H20.45V14.45H20.35V14.55V14.65H20.45V14.85V14.95L20.85 15.05V15.25L21.15 15.35L21.35 15.45L21.65 15.65L22.15 16.45L22.35 16.65V16.75H22.45H22.55L22.85 16.55H22.95V16.45L23.25 16.25L23.35 16.15V16.05L23.55 16.15L23.65 16.05H23.75H23.95L24.05 15.95V15.85L24.15 15.75H24.25V15.65H24.35H24.55H24.65H24.75H24.85H24.95V15.75H25.05H25.15H25.25L25.35 15.85V15.95H25.45H25.55H25.65H26.05L26.85 15.85H27.25H27.35H27.75H27.85H27.95L27.85 15.45V15.05H27.95H28.25H28.35H28.45H28.55L28.65 14.95H28.85H29.35L29.55 14.85H29.65H29.75V14.75V14.95V15.75H29.95H30.05H30.65L31.15 15.85H31.25H31.35H31.45H31.95H32.55L32.75 15.95L32.85 15.85H32.95L33.25 15.75H33.35V15.85V15.95H33.25V16.05L33.35 16.25H33.45V16.05L33.55 15.75L33.65 15.65H33.75V15.75L33.85 15.85H33.95V15.95L34.05 16.15L34.15 16.35H34.25V16.45H34.35H34.45L34.55 16.25H34.65V16.15H34.75L35.95 16.65V16.55L36.05 16.35L36.15 16.15L36.25 15.95L36.35 15.85L36.05 15.75H35.95L35.75 15.55L35.55 15.45H35.65V15.35H35.75H35.85V15.25L35.75 15.15H35.65V15.05L35.55 14.95H35.65H35.75V14.85V14.75H35.95H36.05V14.65H36.15H36.25H36.35L36.45 14.55L36.75 14.45H36.85H37.55H38.15L38.75 13.95L39.45 13.35H39.55L40.05 12.85L40.75 12.35L41.15 12.05L41.25 11.95H41.95H42.05V11.85H42.15V11.75V11.65H42.05V11.55V11.45V11.35V11.15L41.95 10.95V10.65V10.55H42.05L42.35 10.45V10.15L42.85 10.05V10.15H42.95H43.05V10.05H43.15H43.25M43.25 10.05L43.35 10.15V10.05H43.25ZM43.25 10.05V9.95001V9.85001H43.15V9.75V9.65001H43.05H42.95V9.55V9.45001L43.25 9.25L43.65 8.95001V8.85001L43.75 8.75L43.85 8.85001H43.95L44.05 8.95001L44.25 9.05L44.55 8.85001H44.65V8.75L44.75 8.65001V8.55H44.85V8.45001V8.35001H44.75V8.25L44.65 8.15001V8.05H44.75V7.95001V7.85001V7.75H44.85L45.15 7.65001L45.25 7.45001V7.35001L45.05 7.05V6.95001L44.85 6.55L44.95 6.45001H45.15H45.25V6.55H45.35H45.65H45.75L45.85 6.25L46.25 6.45001L46.45 6.55H46.55L46.85 6.65001L46.95 6.75L47.15 6.85001L47.05 6.05L47.15 5.85001L47.35 5.55L47.55 5.15001L47.65 5.05V4.95001H47.55V4.85001H47.45V4.75V4.65001H47.55V4.55V4.45001V4.35001H47.65V4.25H47.75H47.85H47.95V4.35001H48.05H48.15H48.25L48.35 4.25L48.55 4.35001L48.65 4.15001L48.85 3.85001L49.05 3.55L49.25 3.25V3.15001L49.35 3.05H49.45H49.55L49.65 2.95001L49.85 3.15001L49.95 3.05H50.05H50.15H50.25H50.45H50.75L51.45 3.15001L51.75 3.45001L52.15 3.95001L52.25 4.05H52.35L52.45 3.95001L52.55 3.85001H52.65L52.75 3.75V3.65001L52.85 3.55H52.95H53.05V3.65001H53.15V3.75L53.75 3.55L54.05 2.75H54.15L54.25 2.85001V2.75L54.35 2.85001L54.45 2.75V2.85001H54.55H54.65H54.75L54.85 2.75H54.95V2.65001H55.05V2.75H55.15H55.25H55.35V2.85001L55.45 2.95001V3.05V3.15001H55.55V3.25H55.65V3.35001V3.45001H55.75L55.85 3.55V3.65001L56.15 3.85001H56.65H56.75L56.95 3.95001V3.85001L57.05 3.95001H57.15L57.35 4.05L57.45 4.15001L57.75 3.85001L57.85 3.75H58.05H58.25H58.35L58.15 3.45001V3.35001V3.25L58.35 3.15001L58.45 3.05L58.55 2.55V2.45001V2.35001L58.65 2.25V1.95001V1.85001V1.75V1.65001V1.55V1.45001V1.35001H58.75V1.25H58.85H58.95V1.15001H59.05L59.25 1.05L59.35 0.950012L59.45 0.850006V0.75H59.55M59.55 0.75V0.650009M59.55 0.75H59.65M59.65 0.75V0.850006H59.75V0.75H59.65ZM59.65 0.75V0.650009H59.75V0.550003L59.85 0.25H59.95H60.25H60.35L60.75 0.550003L60.65 0.850006H60.75L61.05 0.950012L61.15 1.15001L61.35 1.45001L61.55 1.75L62.15 1.85001H62.35L62.45 2.45001V2.85001H62.75H63.35H64.15H65.25V3.75V4.65001H65.75H66.05H66.25L66.85 4.55H67.05H67.15V4.85001L67.25 5.05V5.15001H67.55V5.75L67.45 5.85001L67.85 6.15001H67.95L68.25 6.45001L68.45 6.35001V6.25L68.35 6.15001V6.05V5.95001H68.25V5.85001L68.15 5.75L68.25 5.65001L68.95 5.45001L69.45 5.25L69.75 5.05L70.05 5.15001L70.35 5.25H70.45V5.35001L70.55 5.45001L70.45 5.85001L70.85 5.95001L70.95 5.85001H71.05V5.75V5.65001H71.15L71.25 5.55V5.45001V5.35001V5.25V5.15001H71.35V5.05H71.45V4.95001L71.55 4.85001L71.65 4.75H71.75V4.95001L71.95 5.15001V5.25V5.35001H72.05V5.45001H72.15V5.55H72.25V5.65001V5.75L72.35 5.85001H72.45L72.55 5.95001L72.65 6.05H72.75H72.85L73.05 5.95001V6.05H73.15H73.25L73.15 5.95001H73.25L73.35 5.85001V5.75H73.45L73.55 5.65001V5.35001H74.15L74.75 5.25V5.15001L74.95 5.05L75.15 4.95001H75.25L75.65 5.25L75.85 5.15001H75.95H76.05H76.15L76.25 5.25H76.45L77.05 5.45001L77.25 5.55L77.35 5.75V5.85001H77.45L77.65 5.95001L77.95 6.05L78.85 6.25L79.35 6.35001L80.25 6.55L80.75 6.65001L81.15 6.75L81.65 6.85001L82.35 7.05H82.55V7.15001H82.65L83.45 7.75H83.65L84.85 7.65001L86.05 7.55H85.95V7.45001V7.35001H86.05V7.25H86.15V7.15001V7.05V6.95001L86.05 6.85001V6.65001V6.25H86.45H86.95H87.05L87.25 6.15001L87.75 6.05L88.15 5.95001H88.25L88.15 5.65001L88.05 5.45001H87.95L88.25 5.25L88.65 5.05L88.75 5.15001L88.95 5.25L89.25 4.65001V4.55V4.35001H89.15L89.05 4.25V4.15001L88.75 4.05L88.25 3.95001L87.95 3.85001H87.75H87.45L87.35 3.55V3.35001L87.25 3.25L87.65 3.05V3.15001L87.75 3.25L88.05 3.15001L88.55 3.05L88.65 2.95001H88.85L88.65 2.75V2.65001L88.95 2.55L89.65 2.25L90.05 2.05L90.45 1.95001L90.65 1.85001V2.05L90.95 1.95001L91.35 1.85001L91.55 2.35001V2.45001V2.55H91.65V2.65001H91.75L91.95 2.75V2.85001V2.95001H92.05V3.05L92.15 3.15001L92.35 3.25L92.45 3.35001L92.65 3.25L92.75 3.05L92.85 2.95001L92.95 2.75M92.95 2.75V2.85001M92.95 2.75L93.15 2.55L93.75 1.75L94.55 0.75L95.35 1.35001L96.15 2.05L96.45 2.25L97.25 2.85001L97.15 2.95001L97.65 3.35001V3.45001L97.85 3.65001L98.05 3.55H98.25L98.35 3.65001V3.75H98.45L98.35 3.95001V4.05L98.15 4.55H98.25L98.45 4.15001H98.55H98.65H98.75H98.85L99.35 3.75L99.65 4.05L99.75 3.85001L99.55 3.75L99.65 3.65001H99.55V3.55L99.65 3.45001V3.35001H99.75V3.25H99.85H99.95V3.15001L100.05 3.25H100.15H100.25H100.35V3.35001H100.55L100.65 3.45001L101.15 3.55L101.25 3.75H101.35H101.45V3.85001H101.55V3.95001H101.65L101.95 4.15001L102.15 4.25L101.65 4.85001L101.45 5.25L101.25 5.15001V5.25H101.05L100.95 5.45001H101.05H101.15L101.25 5.55L101.75 6.05L102.05 5.95001L102.15 6.05H102.25V5.95001H102.35V5.85001L102.45 5.65001V5.55L102.55 5.25L102.75 5.05V4.95001V4.75V4.65001V4.55L102.85 4.05V3.85001V3.65001L103.95 3.45001L104.35 3.05H104.45L104.55 2.85001L104.65 2.95001L104.85 2.75L105.65 2.45001L106.25 2.55H106.35L106.55 2.65001H106.65L107.05 2.55H107.15L107.35 2.45001L107.85 1.85001L108.35 2.45001L108.45 2.35001L108.95 2.65001H109.15L109.25 2.75V2.95001H109.35V3.05V3.15001L109.45 3.75L109.55 4.65001L109.65 5.25L109.55 5.85001L109.45 6.95001L109.35 7.65001V7.75V7.95001L109.45 8.15001V8.45001V8.85001L109.55 9.05L109.65 9.25L109.75 9.45001L109.85 9.55V9.65001L109.95 9.75L110.15 9.85001H110.25H110.35H110.45H110.55V10.05L110.75 10.25L110.95 10.85L111.05 10.95L111.25 11.35L111.55 11.55L112.55 12.25L113.25 12.75L113.75 13.05L113.85 13.15H113.95H114.05L114.15 13.25L114.65 13.75L114.95 14.05L115.25 14.25H115.35L115.45 14.15V14.25L115.55 14.35L115.65 14.45V14.55V14.65L116.25 14.95L116.45 15.05H116.55L115.85 15.65L116.15 15.85V16.35L116.55 16.75L117.45 17.35L117.55 17.55L117.45 17.85L117.15 18.35L116.95 18.85L117.65 19.45L119.05 20.75L119.65 21.15V21.25L119.95 21.45L120.25 21.25H120.55L122.35 21.55H122.45L122.95 21.85H123.05L122.85 22.05L122.65 22.25V22.35L122.75 22.45V22.55V22.65V22.75L122.95 22.95L123.05 23.15V23.25L123.15 23.35L122.95 23.55V23.65L123.05 23.75H123.15V23.85H123.05H122.95V24.05L122.85 23.85H122.65V24.05V24.25L122.75 24.45L122.95 24.65L123.05 24.75H123.15L123.35 24.85V25.05H123.45H123.55V24.95L123.75 24.85V24.75L123.65 24.55H123.55H123.45V24.45V24.35H123.55L123.65 24.25V24.35L123.75 24.45H123.95H124.05H124.25V24.55V24.65H124.35H124.45M124.45 24.65V24.55M124.45 24.65L124.55 24.55H124.65L124.75 24.65L124.65 24.75V24.85L124.75 24.95V25.15L124.85 25.55L125.05 25.95L125.15 25.85V25.65L125.05 25.55H124.95L125.05 25.45L125.15 25.35L125.55 26.05L125.65 26.15L125.55 26.25L125.15 27.45L125.05 27.75H124.75L124.15 28.55L123.75 29.15L123.35 29.75L123.25 29.95L123.15 30.05L123.35 30.45H123.75L123.45 31.45L123.35 31.85L123.95 31.75V32.85H124.35V33.35V33.55H124.55L125.25 34.05L125.55 34.15V34.25L125.65 34.35V34.45H125.75H125.85V34.35V34.25H125.95V34.15H126.05V34.05V33.85H126.15H126.25L126.35 33.95L126.45 33.85H126.55L126.75 33.95V34.05L126.95 34.15H126.85V34.25H126.95V34.35H127.05H127.15L127.35 34.45L127.45 34.35L127.55 34.45V34.55H127.65H127.75V34.65H127.85H127.95H128.05H128.15H128.25V34.75L128.35 34.85L128.45 34.95L128.55 35.05L128.65 35.15H128.75H128.85L128.95 35.05L129.05 34.95H129.15H129.25L129.35 35.05L129.55 35.15L129.65 35.05L129.75 34.85L129.85 34.95H129.95L129.85 35.15L129.95 35.25H130.05H130.15H130.35L130.45 35.15H130.25L130.15 35.05L130.25 34.95V34.85L130.45 34.75V34.65L130.55 34.55L130.45 34.45L130.55 34.35V34.25V34.15V34.05L130.65 33.95V33.85H130.75L130.85 33.75V33.65V33.55H130.75L130.95 33.45L131.15 33.65L131.05 33.75V33.85H130.95V33.95H130.85V34.05V34.25V34.35V34.45V34.65H130.95V34.75L131.05 34.85V34.95L130.95 35.05V35.25H131.25H131.35H131.45L131.55 35.35H131.65L131.75 35.25H131.85L131.95 35.15V35.25H132.05V35.15V35.05V34.95H131.95V34.85V34.75H132.05V34.65L131.95 34.55H132.05V34.45H132.15L132.05 34.35V34.25L131.95 34.15V33.55H132.25V33.35V33.25V33.15H132.15L132.05 32.45V32.35V32.25L132.15 32.15H132.25L132.35 32.05L132.45 31.95L132.75 32.05H132.95H133.15V31.95V31.85L133.25 31.75V31.65L133.35 31.55H133.45L133.85 31.35L134.35 31.45H134.45L134.65 31.55L134.55 31.75H134.65V31.85L134.55 31.95L134.45 32.05L134.35 32.25L134.15 32.55H134.45H134.55H134.65H134.75L135.25 32.45H135.35L135.45 32.35L135.75 32.15L136.25 31.85L137.15 31.75L137.05 31.35H137.45H138.25H138.35L138.45 31.45H138.55L138.75 31.65L139.25 31.45L139.55 30.95L139.85 31.15L140.35 31.25L142.25 31.45L143.35 31.75L143.75 31.85L144.25 31.95L144.05 32.85L143.85 33.45V33.75L143.95 34.15V34.45V34.95V35.45L144.05 36.15V36.45H144.45L144.65 36.35V36.45V36.55H144.75L145.05 36.65V36.85V37.25V37.45L145.35 37.55V38.05V38.15L145.15 38.35L144.55 38.75L144.05 39.15V39.45L143.95 39.65L143.05 40.65L142.65 41.05L142.35 41.45H142.25L141.95 42.05V42.15L141.75 42.45L141.25 43.45H141.15L140.85 44.05L140.45 44.55L140.35 44.65L140.25 44.75L140.15 44.85L140.05 44.95H139.95L140.05 45.25L140.15 45.75L140.25 46.05L140.35 46.55L140.45 46.75V46.85L140.55 47.15H140.65V47.25H140.75V47.35M140.75 47.35H140.85M140.75 47.35V47.45H140.65V47.55H140.55L140.45 47.65H140.35L140.25 47.75V47.85H140.15V47.95H140.25H140.35H140.45H140.55H140.65L140.85 48.15V48.25L141.05 48.35H141.15V48.45L141.25 48.55L141.65 49.05L141.75 49.15L141.85 49.25H141.95L142.45 49.15L142.85 49.05V49.15L142.95 49.35L143.05 49.55L143.25 49.85L143.35 50.05L143.65 50.55L143.95 51.15L144.05 51.35V51.45L144.35 51.75L144.45 51.85V51.95L144.55 52.05L144.65 52.15H144.75H144.85V52.25L145.05 52.45L145.25 52.65H145.35V52.75H145.45L145.75 52.95H145.85L145.95 52.75L146.25 52.65H146.35L146.45 52.75L146.65 52.85L146.75 52.95L146.85 53.05L147.15 53.15L148.05 53.65L148.25 53.45L148.35 53.35L148.45 53.25L148.55 53.05L148.65 52.95L148.95 52.65L149.45 52.75L150.15 52.85H150.45V53.25H150.05L149.95 53.35L150.05 53.75H149.95L149.85 53.85H149.75H149.65H149.55V53.95V54.05H149.65L149.75 54.15V54.25V54.35H149.85V54.25H149.95V54.35L150.05 54.45H150.15L150.25 54.55L150.35 54.65H150.45V54.75L150.55 54.85V54.95L150.65 55.05H150.75H150.85H150.95H151.15L151.45 54.95L151.55 54.85L151.75 54.95L152.15 55.05H152.45L152.55 55.15H152.65L152.85 55.35L153.25 55.55L153.45 55.45L153.65 55.35H153.75H153.85V55.25H153.95L154.25 55.05V54.95L154.45 55.05L154.85 55.15L155.45 55.45L155.75 55.85H155.85L156.75 56.25L157.15 56.35L157.25 56.45V56.65L157.15 56.85H157.35H157.45H157.65L157.75 56.95H157.85H157.95H158.05V57.15H158.15L158.25 57.25H158.35V57.35V57.45L158.25 57.55L158.15 57.95L158.05 58.05V58.15L158.15 58.45V58.65L158.25 58.75V58.85L158.45 59.05L158.35 59.25L158.15 59.35H158.05L157.95 59.25H157.85L157.75 59.15V59.25H157.65L157.55 59.45L157.35 59.55L157.55 59.85L157.45 59.95M157.45 59.95H157.35M157.45 59.95V60.05L157.55 60.15H157.65V60.25H157.75L157.85 60.35H157.95V60.45L157.65 60.95L157.75 61.35L157.85 61.65L157.95 61.85L157.85 62.05V62.15H157.75L157.85 62.25L157.65 62.45V62.75V62.95V63.05L157.85 63.15V63.25V63.35V63.45V63.55V63.65H157.95L157.75 63.75L157.85 63.85L158.15 64.15L158.45 64.45L158.55 64.55H158.85H159.05H159.25H159.35L159.55 64.65L159.95 64.75H160.15H160.35L160.45 65.35V65.45L160.55 65.75L160.65 66.25L160.55 66.35H160.45H160.35H160.25H160.15H160.05L159.95 66.45M159.95 66.45L159.85 66.35L159.75 66.25L159.65 66.35L159.45 66.45H159.55V66.55L159.65 66.65L159.85 66.55L159.95 66.45Z" stroke="white" stroke-width="0.5" stroke-linecap="round" stroke-linejoin="round"/>
</svg>
