<svg width="133" height="155" viewBox="0 0 133 155" fill="none" xmlns="http://www.w3.org/2000/svg">
<path d="M130.65 35.15L130.55 35.35L130.25 35.25L130.15 35.15H130.05H129.95L129.65 34.95L129.55 35.35L128.35 36.55L126.65 36.85H126.15V37.75V38.15V38.25V38.35V38.45V38.55L126.25 39.85V40.15V40.65V40.85L127.15 40.75V41.45L127.45 41.65L127.35 42.05L127.85 42.45V42.95L127.45 43.05H127.15L126.35 43.15V42.75V42.65L126.25 42.55L126.05 42.45L125.95 42.35H125.85V42.25H125.75L125.65 42.15L125.55 42.05V41.95L125.45 41.85L124.95 41.65H124.85L124.05 41.15L123.75 40.95V40.85V40.75V40.65V40.55V40.45V40.25H123.65V40.15V40.05L123.55 39.95L123.45 39.75L123.65 39.35L123.75 39.15L123.85 39.05V38.95H123.65H123.45H123.25H123.15H123.05H122.95L122.65 39.05H122.55H122.45H122.35V39.55V40.25V40.35L122.15 41.15L122.05 41.35V41.45V41.75L121.95 42.15L121.75 42.55L121.85 44.55V44.65V44.85V45.15V45.25V45.35H122.05L122.25 45.45H122.35L123.45 45.95L123.35 46.45L123.45 46.65L123.55 46.95L123.25 47.55V47.65V47.85V47.95L122.75 48.45H122.65L122.55 48.75L122.35 49.15L122.15 49.45V49.55H122.05L121.95 49.75L121.85 49.85L121.65 50.05H121.55H121.45H121.35V50.15H121.25H121.15L120.65 50.25H120.15L119.75 50.35H119.65L119.35 50.45H119.25H119.15L119.25 51.25L119.35 51.55L119.55 52.75L119.85 53.45L120.05 53.95V54.05L120.15 54.25L119.95 54.35H119.85H119.75L119.65 54.45L119.85 54.65H119.45L119.55 55.05L119.85 55.15V55.25V55.45V55.55H120.15H120.25L120.35 55.65V55.75L120.45 55.85H120.55L120.65 55.95L120.75 56.15V56.35L120.25 56.45V56.65V56.75L120.15 56.85V56.95V57.05L120.05 57.15V57.25V57.35V57.45L119.35 57.55H119.25L118.95 57.85L118.85 58.05L118.75 58.15L117.85 59.25L117.15 59.35V59.45V60.05L117.25 60.25L117.35 60.35L117.25 60.85L117.15 60.95L116.85 61.65L116.95 61.75V61.85L116.35 62.35L116.15 62.65L115.75 63.05L116.05 63.55V63.65L115.75 63.85H115.65V63.95H115.35H115.25V64.15L115.35 64.55V65.15L115.45 65.95L115.55 66.45L115.25 66.65L115.35 67.05L115.45 67.65L115.05 67.75H114.75L114.85 68.45H114.55L114.25 68.35H114.05H113.95H113.85L113.75 68.65V68.75L113.35 68.95L113.25 68.85L113.15 69.35L113.25 69.65V69.85V69.95V70.05L113.05 70.35V70.45V70.55L112.95 70.75V71.05V71.25V71.35L113.25 71.85L113.35 72.05L112.55 72.15H111.25L110.95 72.25L110.85 72.75V72.85H110.45H110.05L109.55 72.95H109.35H109.15H108.35L107.95 73.05H108.05V73.25L108.15 73.35L108.25 73.45V73.55L108.45 73.65V73.75V73.95L108.35 74.05V74.75V74.85L107.75 74.75L107.55 75.05L107.35 75.25L106.95 75.45L107.15 75.85V75.95V76.05V76.15V76.25V76.35H107.25V76.45L107.35 76.55L107.55 76.85V76.95L107.65 77.05L107.75 77.25V77.35L107.85 77.45V77.55H107.95L108.05 77.85L108.25 78.15V78.25H108.15V78.35L108.25 78.45V78.65V78.75V78.85V78.95H108.15V79.25L108.55 79.45L108.75 79.55H108.65V79.65L108.85 79.75L108.95 79.85L108.85 79.95V80.05L108.75 80.15V80.35V80.45H108.85H108.95L108.85 80.65L108.65 80.75L108.45 80.85L108.25 81.05L108.05 80.95L107.95 81.15L107.85 81.35H107.75V81.45L107.85 81.65V81.75V81.85V81.95V82.05H107.95L108.05 82.15V82.25V82.35V82.45H108.15V82.55H108.25V82.45H108.35V82.55L108.45 82.45H108.55H108.65V82.55L108.75 82.65V82.75V82.85V82.95L108.95 83.15L109.05 83.25H109.15L109.25 83.35H109.35L109.45 83.45L109.55 83.55H109.65V83.65L109.75 83.75H109.85V83.95H109.75L109.65 84.15V84.25L109.55 84.35L109.45 84.55L109.35 84.75L109.65 84.95L109.45 85.45L109.25 85.85L109.35 86.55L109.45 86.75V86.85V86.95H109.35V87.05H109.25V87.15H109.15V87.25V87.35H109.05V87.45H108.95V87.55V87.65H108.85V87.75V87.85H108.75V87.95V88.05V88.15V88.25H108.65V88.35V88.45V88.55H108.75H108.85V88.65V88.75H108.95V88.85V88.95V89.05H109.05V89.15H109.15L109.05 89.25V89.35L108.95 89.45V89.55V89.65V89.75V89.85V89.95V90.05V90.15V90.25V90.35L108.85 90.45H108.75V90.55V90.65V90.75H108.85V90.85V90.95V91.05H108.75V91.15V91.25V91.65V91.75L108.85 91.85L109.15 92.05L109.05 92.75V93.05V93.15V93.25V93.35V93.45V93.55H109.15V93.65V93.75H109.05L109.15 93.85H109.25H109.35H109.45V93.95H109.55H109.65H109.75V94.05H109.85H109.95V94.15V94.25V94.35H110.05V94.45H110.15V94.35H110.25H110.35H110.45H110.55V94.45V94.55V94.65V94.75V94.85V94.95V95.05V95.15H110.45V95.25V95.35H110.35V95.45H110.25V95.55V95.65V95.75H110.15V95.85H110.25V95.95V96.05V96.15H110.35V96.25V96.35H110.45V96.45H110.35V96.55H110.45H110.55V96.65H110.65V96.75V96.85H110.55V96.95V97.05V97.15H110.65V97.25H110.75V97.35V97.45V97.55H110.85V97.65L110.75 97.75V97.85H110.65V97.95V98.05V98.15V98.25V98.35V98.45H110.55H110.45V98.55H110.35V98.65H110.25L110.15 98.75V98.85V98.95H110.05V99.05H109.95V99.15V99.25V99.35H110.05V99.45V99.55H109.95V99.65H109.85H109.75V99.75V99.85H109.65H109.55V99.95H109.65V100.05V100.15H109.75L109.65 100.25V100.35H109.55V100.45V100.55L109.45 100.65V100.75V100.85V100.95L109.35 101.15V101.35L109.25 101.45V101.55L109.05 101.45L108.95 101.55H108.55L108.35 101.75L108.15 101.55L108.05 101.75H107.85V101.85H107.75V101.75H107.65V101.85H107.55H107.45V101.95H107.35V102.05H107.25H107.15V102.15V102.25V102.35H107.05V102.45H107.15V102.55V102.65H107.25H107.35H107.45L107.55 102.75H107.65V102.85V102.95V103.05V103.15H107.55V103.25H107.65V103.35V103.45V103.55V103.65H107.55V103.75H107.45V103.85H107.35V103.95H107.45V104.05V104.15H107.55H107.65V104.25H107.55V104.35H107.45H107.35V104.45L107.25 104.55V104.65H107.15H107.05V104.75V104.85V104.95H107.15H107.25V105.05V105.15H107.15H107.05V105.25H106.95H106.85H106.75H106.65V105.15H106.55H106.45V105.25H106.35V105.35L106.45 105.45V105.55V105.65V105.75H106.55H106.65H106.75H106.85V105.85L106.95 105.95L107.05 106.15L107.15 106.35H107.25H107.35H107.45V106.45L107.55 106.55H107.65V106.65H107.85L107.95 106.75L108.15 106.85H108.25V107.05H108.15V107.15V107.25V107.35V107.45L108.05 107.65L107.95 107.85H107.85V107.95V108.05V108.15H107.75V108.25V108.35L107.85 108.55L108.05 108.85L108.15 109.25L108.35 109.55L108.55 109.85V110.05H108.45H108.35H108.25H107.95L107.55 110.15V110.25H107.35H107.15H107.05L106.95 110.35H106.85H106.75H106.65L106.55 110.45H106.45H106.35H106.15H105.95H105.85H105.75H105.55H105.45H105.35V110.35H105.25H105.15H105.05H104.95H104.85L104.65 110.25H104.55L104.45 110.35H104.35H104.15H104.05L103.85 110.45H103.75H103.65H103.55H103.45V110.35V110.25V110.15L103.35 110.05V109.95V109.85L103.25 109.65L103.15 109.55V109.45H103.25V109.35H103.35L103.45 108.85H103.35L103.45 108.55V108.45V108.35V108.25H103.35H103.25H103.15V108.15H103.05H102.95V108.05H102.85V107.95V107.85V107.75L102.75 107.85H102.65H102.55V107.95H102.45L102.55 108.05H102.45H102.35V108.15V108.25V108.35L102.25 108.45V108.55H102.15V108.65H102.05V108.55H101.95L101.85 108.45H101.75H101.65V108.35H101.55H101.45V108.45V108.55V108.65L101.35 108.75V108.95H101.25L101.15 108.85L101.05 108.75L100.95 108.65L100.85 108.75V108.95L100.75 109.15L100.85 109.25H100.75H100.65H100.55V109.35V109.45L100.45 109.65V109.75V109.85V109.95H100.35V110.05V110.15H100.25V110.25L100.15 110.35L100.45 110.65V110.75H100.55L100.65 110.85L100.75 110.95L100.55 111.25H100.25H100.15H100.05H99.95H99.85H99.75H99.65L99.55 111.15H99.45H99.35H99.25L99.15 111.05H99.05L98.95 110.95H98.85H98.75L98.65 110.85H98.55H98.45L98.25 110.75H98.15H98.05L97.95 110.65H97.75V110.85L97.55 111.25V111.45L97.45 111.75L97.35 111.85V111.95V112.05L97.25 112.15L96.85 112.35L96.75 112.45H96.65L96.55 112.55L96.35 112.65L96.25 112.75V112.95L96.15 113.05V113.15V113.25L96.05 113.35V113.45L95.85 113.35H95.75V113.25H95.65V113.15H95.55H95.45V113.05H95.35H95.25V112.95H95.15H95.05H94.85H94.65H94.55H94.45H94.35H94.25V112.85H94.15H94.05L93.95 112.95V112.85H93.85H93.75L93.65 112.75H93.55V112.65H93.45L93.35 112.55L93.25 112.45H93.15L92.95 112.35H92.85H92.75H92.65V112.25L92.45 112.15L92.35 112.05H92.25V111.95L92.15 111.85L91.85 111.65L91.75 111.75L91.55 111.85L91.45 112.05H91.35V112.15H91.25V112.25H91.15L91.05 112.35V112.45H90.95V112.55H90.85V112.65V112.75L90.75 112.85L90.65 113.05V113.25L90.55 113.55L90.45 113.65L90.15 113.85H90.05V113.95L89.85 114.05V114.15L89.65 114.55H89.55L89.35 114.45L89.15 114.25H89.05L88.95 114.15L88.75 114.05L88.65 113.75L88.55 113.55V113.45H88.35H88.25H88.15V113.55V113.65L87.95 113.75L87.85 114.05L87.75 114.15V114.35L87.85 114.55V114.65L87.75 114.75V114.95V115.05H87.65H87.55H87.35H87.25V115.15H87.15H87.05H86.95H86.85H86.75L86.65 115.05H86.55H86.45H86.35H86.25H86.15L86.05 115.15H85.95H85.85H85.75V115.25L85.65 115.35H85.75L85.85 115.45V115.55V115.65V115.75L85.75 115.85L85.65 116.05H85.55H85.35V115.95H85.15V116.05L85.05 116.15L85.25 116.25L85.15 116.35L85.25 116.45L85.15 116.55L85.25 117.05H85.15L84.95 117.15H84.85V117.25V117.55V117.65H84.95L85.45 117.55H85.55V117.35H85.65H85.75H85.85L86.05 117.25H86.25V117.45H86.15V117.55V117.65V117.85H86.05V117.95H85.95H85.85H85.75H85.65L85.55 117.85V117.95L85.45 118.05V118.15H85.35V118.05L85.25 117.95V117.85H85.15V117.95V118.05L85.05 118.15V118.35L84.85 118.25H84.75V118.15L84.55 118.25H84.35L84.05 118.35H83.85V118.15H83.95V118.05V117.95L84.05 117.85V117.75V117.65L84.15 117.55V117.45V117.35V117.25L84.05 117.15V117.05V116.95H83.75V117.05H83.55V117.15V117.25V117.35V117.45L83.65 117.55H83.55V117.65V117.75V117.85V117.95V118.05V118.15V118.25L83.35 118.35H83.25V118.55L83.15 118.65H83.25V118.75H83.35L83.45 118.85H83.55L83.65 118.95V119.05H83.75V119.15L83.65 119.25V119.75H83.55H83.25H83.15H83.05H82.95L82.85 119.65H82.75H82.65L82.55 119.85V119.95V120.15V120.45V120.55V120.75V120.85V121.05V121.15V121.25V121.35L82.45 121.45V121.55V121.65V121.75V121.85H82.35H82.15L81.95 121.75H81.85H81.75H81.65V121.65H81.55H81.35V121.95H81.25V122.05V122.15V122.35V122.45L81.15 122.55V122.65V122.75V122.85L81.05 123.05V123.15V123.25V123.35L80.95 123.55V123.75V123.85V123.95L80.85 124.05H80.75H80.65V123.95H80.55H80.45H80.35H80.25H80.15H80.05H79.95V123.85H79.85H79.75V123.95L79.65 124.05V124.15V124.25V124.35L79.55 124.45V124.65V124.75L79.45 124.85V124.95V125.05L79.35 125.15V125.25V125.35V125.45L79.25 125.55V125.65V125.75V125.85H79.15V125.95V126.05L78.85 125.85L78.45 125.75H78.35V125.65H78.25H78.15V125.55H78.05H77.95H77.85V125.45L77.65 125.55H77.55H77.45L77.15 125.65H77.05H76.95L76.85 125.75L76.55 126.55L76.45 126.65V126.85L76.35 126.95V127.05H76.25V127.15V127.25H76.15V127.35V127.45V127.55V127.65V127.75L76.05 127.85V127.95H75.95L75.65 128.15L75.55 128.25L75.25 128.35L74.65 128.65H74.55L74.45 128.75H74.35L74.65 129.25L74.75 129.35H74.85V129.45V129.55L74.75 129.75H74.65H74.45H74.25H74.05L73.85 129.65L73.95 129.95L74.15 130.55H73.75H73.65L73.35 130.65L73.15 130.35L73.05 130.25L72.65 130.75L72.75 130.85L72.85 130.95V131.15V131.25L72.75 131.35H72.65H72.55L72.45 131.45V131.55V131.85V131.95L72.25 131.85L72.15 131.95V132.05V132.15L72.25 132.25H72.35L72.45 132.35V132.45V132.55L72.35 132.65L72.15 132.45L72.05 132.35H71.95L71.85 132.45V132.55H71.75V132.45H71.65H71.55L71.45 132.55L71.35 132.65V132.75V132.85L71.45 132.95H71.35V133.05L71.45 133.15L71.55 133.25L71.65 133.35L71.55 133.45L71.45 133.55L71.35 133.65L72.05 133.95L71.95 134.15H71.85L71.65 134.05H71.55H71.35V133.95L71.15 133.85H70.85H70.65L70.55 133.95L70.45 134.05L70.35 134.15L70.25 134.25H70.15H70.05H69.85H69.65H69.45H69.25V134.15H69.35V134.05H69.45L69.35 133.95H69.25H69.15V134.05H69.05V133.95H68.95V134.05H68.85H68.75V134.15V134.25H68.65H68.55H68.45V134.15H68.35V134.25H68.25H68.15H68.05V134.15V134.05H67.95V134.15H67.85H67.75H67.65V134.25H67.55V134.15H67.45V134.05H67.35V134.15H67.25V134.05H67.15H67.05H66.95H66.85L66.95 133.95H66.85V134.05H66.75V133.95H66.65H66.55V133.85H66.45V133.95H66.35V134.05H66.25H66.15H66.05V134.15V134.25H65.95H65.85H65.75V134.35H65.85V134.45H65.75V134.55H65.85V134.65H65.75V134.75V134.85H65.65H65.55V134.95H65.45V134.85H65.35V134.95H65.25V134.85H65.15H65.05H64.95H64.85V134.95H64.75H64.65V135.05V135.15V135.25V135.35L64.55 135.45H64.45V135.55H64.35V135.65H64.25V135.75H64.15V135.85V135.95H64.05H63.95H63.85H63.75V136.05V136.15H63.65H63.55V136.25H63.45H63.35H63.25V136.35H63.15V136.45H63.05V136.55H62.95H62.85V136.65H62.75V136.75L62.85 136.85V136.95V137.05H62.75V137.15H62.65V137.25H62.55V137.35V137.45H62.45H62.35V137.55V137.65V137.75H62.25V137.85H62.15H62.05V137.95H61.95H61.85V138.05V138.15V138.25V138.35H61.75V138.45V138.55H61.65V138.65H61.75V138.75H61.85V138.85V138.95V139.05V139.15L61.75 139.25H61.65V139.35V139.45L61.55 139.55H61.45V139.65H61.35V139.75V139.85L61.25 139.95H61.15V140.05H61.05V140.15V140.25V140.35V140.45H60.95H60.85H60.75H60.65V140.35H60.55L60.45 140.45H60.35V140.55H60.25V140.65H60.15V140.75H60.05H59.95H59.85H59.75V140.65H59.65V140.55H59.55H59.45V140.65H59.35H59.25H59.15V140.75H59.05V140.85H58.95H58.85V140.95V141.05H58.75H58.65L58.55 141.15H58.45H58.35H58.25H58.15H58.05V141.25L57.95 141.15V141.05H57.85V140.95V140.85H57.75V140.75H57.65V140.65H57.55L57.35 140.35H57.25V140.25H57.15L57.05 140.15H56.95H56.75H56.55V140.05H56.45L56.35 139.95L56.25 139.85L56.15 139.65L56.25 139.55L55.55 139.25L55.85 138.25L56.05 137.65L56.15 137.55L55.95 137.65H55.85V137.45V137.35V137.15V137.05V136.95V136.75V136.65H55.95L56.05 136.75L56.15 136.85H56.25H56.35V136.75H56.45L56.55 136.65H56.65H56.75V136.55L56.85 136.65H57.05H57.15H57.25H57.35H57.45V135.95V135.75V135.45H57.35V135.25H57.45V135.15V134.95V134.75V134.65V134.55H57.55L57.65 134.45V134.35V134.25V134.15V134.05V133.95V133.85V133.75H57.45H57.35L57.45 133.95L57.35 134.05H57.25H57.05H56.95H56.65H56.45H56.15L56.05 134.15L55.95 134.35H55.85L55.75 134.45V134.55L55.45 134.95L55.35 135.15L55.05 135.55V135.65H54.95V135.75H55.05V135.85L54.95 135.95V136.05L54.85 136.15V136.25V136.35L54.75 136.45H54.85V136.55H54.75H54.65L54.45 136.45H54.35L54.15 136.35H54.05H53.95L53.85 136.25H53.65H53.55V136.15H53.45H53.35H53.25V136.05H53.15L52.75 135.95L52.05 135.65L51.85 135.55L51.45 135.35L50.85 135.15L50.65 135.05H50.55H50.25V134.95H50.15L49.85 134.75H49.75L49.65 134.65H49.55H49.45V134.75H49.35L49.25 134.95H49.15L49.05 135.15L48.95 135.25L48.85 135.35L48.75 135.45L48.55 135.65L48.15 136.05L48.05 136.15L47.85 136.35L47.55 136.65L47.45 136.75H47.35H47.25H47.15H47.05H46.95H46.85V136.65V136.55V136.45V136.35V136.25L46.75 136.15L46.65 136.05V135.95L46.55 135.85H46.45L46.35 135.75L46.15 135.65H46.05V135.55V135.45V135.35H45.85V135.45H45.75H45.65H45.45H45.35H45.25H45.05L44.95 135.35V135.15H44.85V135.05V134.95L44.75 134.85V134.75H44.65V134.55H44.55H44.45L44.35 134.45H44.25L44.15 134.55H44.05L43.95 134.65L43.75 134.55H43.65L43.55 134.45L43.45 134.55H43.35H43.25H43.05L42.85 134.65H42.75L42.65 134.75H42.55V134.85V134.95V135.15V135.25L42.05 135.65L41.95 135.75L41.35 136.25L41.25 136.45L41.05 136.75L40.85 137.05L40.65 137.25V137.35H40.55L40.45 137.45H40.35H40.25V137.55L40.15 137.85V137.95H40.05L39.95 138.05V138.15V138.25H39.85V138.35H39.95V138.55V138.65L39.85 138.75L39.75 138.95L39.45 139.35L39.35 139.65H39.25V139.75H39.15V139.85H39.05H38.95H38.85V139.95H38.65H38.55V140.05H38.45H38.35H38.25L38.15 140.15H38.05V140.25H37.95H37.85L37.75 140.35H37.65H37.55H37.45V140.45H37.35H37.25V140.35H37.15V140.45L37.05 140.35H36.95H36.85L36.75 140.25H36.65H36.55H36.45H36.35H36.25V140.15H36.15L36.05 140.25L35.85 140.35H35.65L35.35 140.55H35.15H35.05H34.85H34.75L34.55 140.65H34.25H34.15L34.05 140.55L33.85 140.45L33.75 140.35H33.65L33.25 140.25V140.15L32.75 140.05L32.65 140.35L32.55 140.75V140.85H32.45L32.55 140.95H32.45V141.05V141.15H32.35H32.25H32.15H32.05H31.95L31.85 141.25H31.65H31.55H31.45L31.25 141.05L31.15 140.85L31.05 140.75H30.95V140.65L30.75 140.75H30.65L30.45 140.95L30.25 141.05L30.05 141.15L29.95 141.25H29.85L29.75 141.35H29.65V141.45H29.55V141.55L28.25 142.35L27.95 142.55L27.65 142.75H27.55L27.35 142.65L27.25 142.55V142.45L27.05 142.25L26.85 141.95H26.75L26.55 141.85L26.45 141.75L26.25 141.65L26.05 141.45L25.85 141.35L25.65 141.25L25.45 141.05H25.35V140.95H25.25L25.05 140.85V140.95L24.95 141.05V141.15H24.85V141.25V141.35L24.75 141.45V141.55H24.65V141.75L24.55 141.85L24.45 141.95V142.15L24.35 142.25L24.25 142.35V142.45L24.15 142.55L24.05 142.75V142.85H23.95H23.85H23.75L23.25 142.75L22.75 142.65H22.35L21.95 142.55H21.75L21.45 142.45H21.25V142.35V142.15L21.35 142.05H21.45V141.95L21.35 141.85H21.25L21.15 141.75H20.95H20.75H20.45L20.15 141.65H20.05L19.75 141.95L19.55 142.15L19.15 142.45L18.95 142.65L18.85 142.75L18.75 142.85L18.65 142.95V143.15V143.25V143.35V143.85V144.55V144.85V144.95V145.05L18.75 145.15L18.85 145.35L18.95 145.45V145.55H19.05H19.15H19.25L19.45 145.65H19.65H19.85L20.15 145.75H20.45V145.95L20.55 146.15V146.35L20.65 146.45V146.55V146.65V146.75L20.25 146.85L19.75 146.95L19.45 147.05L19.55 147.35H19.25H18.95V147.45V147.55L19.05 148.05V148.25L18.75 148.35V148.65V148.75V148.85L18.55 148.95H18.45H18.35V149.05H18.15V149.15V149.25H18.05V149.55L17.95 149.85V149.95L17.85 150.25V150.55H17.75L17.65 150.65H17.55L17.45 150.75H17.35H17.25H17.15V150.85H17.05H16.85H16.65H16.55H16.25H15.95H15.85V150.95H15.75V151.05H15.65H15.55H15.45V150.95V150.85L15.35 150.95H15.15L14.95 151.05H14.75H14.65L14.55 151.15H14.45L14.35 151.95L14.25 153.25V153.45H14.05H13.95L13.85 153.35L13.65 154.45V154.55L13.05 153.95L12.75 153.65L12.45 153.45L12.35 153.35H12.25L12.15 153.25L12.05 153.15H11.95L11.85 153.05L11.75 152.95V152.85L11.65 152.75L11.55 152.55V152.45L11.45 152.35V152.25H11.35L11.25 152.05L11.15 151.95L10.95 151.75V151.65L10.85 151.55V151.45L10.75 151.35L10.55 151.05L10.35 150.75L10.25 150.65L10.15 150.55L10.05 150.35L9.95 150.25H9.84999V150.15L9.75 150.05L9.64999 149.95V149.85H9.54999V149.75L9.45 149.65L9.34999 149.45V149.35H9.25L9.04999 149.05L8.95 148.85L8.75 148.65L8.64999 148.45L8.54999 148.35L8.34999 148.05L8.25 147.85L7.95 147.45L7.75 147.15L7.34999 146.65L7.14999 146.35L6.95 146.05L6.84999 145.95L6.64999 145.75V145.55L6.54999 145.45H6.45V145.35L6.25 144.95V144.85L6.04999 144.65V144.55L5.95 144.45V144.35L6.04999 144.15V144.05L6.14999 143.85L6.25 143.45V143.35V143.25L6.34999 143.05V142.95V142.75H6.45V142.65V142.55V142.35V142.25V142.15L6.34999 142.05V141.95H6.25V141.85H6.14999V141.75V141.65L6.34999 141.35L6.64999 141.25V141.05L6.75 140.95V140.85L6.84999 140.75V140.65V140.55L6.54999 140.25L6.45 140.15L6.34999 140.05L6.14999 139.95L6.04999 139.85L5.84999 139.65L5.64999 139.55H5.54999L5.45 139.45L5.34999 139.35H5.25L5.14999 139.25H5.04999V139.15H4.95L4.84999 139.05L4.75 138.95L4.64999 138.85H4.54999V138.75V138.65L4.45 138.55V138.45V138.35H4.34999V138.25V138.15H4.45V138.05V137.95V137.85V137.75V137.65V137.55L4.54999 137.35V137.15H4.75H5.25V137.05L5.14999 136.95L5.25 136.75H5.04999V136.55L4.95 136.45L5.04999 136.35L5.14999 136.15H5.25L5.45 135.75L5.54999 135.45V135.35V135.25L5.64999 135.15H5.84999L6.04999 135.25H6.45L6.34999 135.05V134.95V134.85H6.25V134.75V134.65V134.45V134.35V134.25V134.05L6.34999 133.75V133.55V133.45V133.35V133.25V133.15V133.05V132.95V132.85V132.75L6.14999 132.65L5.95 132.55L5.45 132.25L5.14999 132.15L5.04999 132.05H4.95L4.84999 131.95H4.75H4.64999H4.54999H4.45L4.34999 131.85H4.25H4.14999H4.04999V131.95H3.84999L3.64999 132.05L3.45 132.15H3.25L3.14999 132.25L2.84999 132.35L2.75 132.45L2.54999 132.55H2.45H2.34999L2.04999 132.45H1.95H1.84999L1.75 132.35V132.15L1.64999 131.55H1.45H1.14999V131.25L1.04999 131.05L1.45 131.15V130.65L1.54999 130.75V130.15H1.75L1.95 130.25H2.14999H2.45H2.54999L2.64999 130.15V130.05V129.85L2.54999 129.65L3.14999 129.35L3.34999 129.25L3.45 129.15L3.75 129.05L4.04999 128.85L4.25 128.75L4.34999 128.65H4.45L4.34999 128.55L4.14999 128.25L3.95 128.05L3.84999 127.95V127.85H3.75L3.64999 127.75H3.54999L3.45 127.65H3.34999V127.55L3.54999 127.25L3.64999 127.05V126.95L3.54999 126.75L3.45 126.55V126.45L3.34999 126.35L3.25 126.25L3.34999 126.15L3.45 125.95L3.14999 125.65H3.25V125.55H3.34999H3.45V125.45L3.54999 125.55H3.64999H3.75V125.45H3.84999H3.95V125.35H4.04999H4.14999V125.25L4.04999 125.15H4.14999H4.25V125.05V124.95L4.14999 124.85H4.25H4.34999H4.45H4.54999V124.95V125.05H4.64999H4.75V125.15V125.25V125.35V125.45V125.55H4.84999V125.65H4.95V125.75V125.85H5.04999V125.95H5.14999L5.04999 126.05V126.15V126.25H5.14999H5.25V126.15V126.05H5.34999H5.45V126.15H5.54999V126.05H5.64999H5.75V126.15H5.84999V126.05H5.95H6.04999V125.95H6.14999V125.85V125.75H6.25V125.85H6.34999V125.75H6.25V125.65L6.34999 125.55V125.45H6.45V125.35H6.34999V125.25H6.45V125.35H6.54999V125.25V125.15V125.05V124.95V124.85H6.45L6.54999 124.75H6.64999V124.65H6.54999L6.45 124.75H6.34999V124.65V124.55H6.45V124.45H6.34999V124.35H6.45V124.25H6.34999H6.25V124.15V124.05V123.95L6.14999 123.85H6.04999V123.75H5.95H5.84999V123.65H5.75L5.64999 123.55H5.54999H5.45H5.34999H5.25H5.14999V123.65H5.04999V123.75L4.95 123.85V123.75V123.65H4.84999V123.75H4.75V123.65H4.64999V123.55H4.54999V123.45V123.35V123.25V123.15H4.64999H4.75V123.05H4.64999V122.95V122.85V122.75V122.65V122.55V122.45H4.54999V122.35V122.25H4.45V122.15H4.54999V122.05H4.45V121.95L4.54999 121.85H4.45V121.75H4.34999H4.25L4.14999 121.65V121.55H4.04999V121.45H3.95V121.35H4.04999V121.25H3.95V121.15H4.04999V121.05H3.95L4.04999 120.95H3.95H3.84999H3.75V121.05H3.64999H3.54999V120.95H3.45V121.05H3.34999V120.95H3.25H3.14999V121.05H3.04999V120.95V120.85V120.75V120.65H2.95V120.55V120.45V120.35V120.25H3.04999H3.14999V120.15V120.05V119.95H3.25L3.34999 120.05V119.95H3.45V119.85L3.54999 119.75V119.65H3.64999V119.55V119.45L3.54999 119.05H3.14999H2.95L3.04999 118.95V118.85V118.75V118.65V118.55V118.45V118.35L2.95 118.45H2.84999H2.75H2.64999H2.54999H2.45H2.34999V118.35H2.25H2.14999L2.04999 118.25L1.84999 118.15L1.75 118.05H1.64999L1.34999 117.95L1.25 117.85H1.14999H1.04999H0.949997V117.75H0.849991H0.75V117.65H0.649994L0.549988 117.55L0.449997 117.45L0.349991 117.35L0.25 117.25H0.349991H0.449997H0.549988H0.649994V117.35H0.75L0.849991 117.45H0.949997L1.04999 117.55H1.14999V117.65H1.25L1.34999 117.55H1.45H1.64999H1.75H1.84999H1.95L2.14999 117.65H2.25L2.45 117.75H2.54999H2.64999L2.75 117.85H2.84999H2.95V117.75V117.65L3.04999 117.55L3.14999 117.65H3.25H3.34999V117.75V117.85H3.45L3.54999 117.95L3.64999 117.85V117.75V117.65V117.55L3.75 117.45V117.25L3.84999 117.05V116.95V116.85L3.95 116.75L4.04999 116.65V116.45V116.35V116.05V115.95V115.65L4.14999 115.45V115.35L4.25 115.25L4.14999 115.15V115.05H4.04999V114.95V114.85V114.75V114.65H3.95V114.55H3.84999L3.75 114.45V114.25V114.15H3.64999V114.05L3.54999 113.95L3.45 113.85L3.34999 113.65H3.25V113.55H3.14999H3.04999L2.95 113.45H2.84999L2.75 113.35H2.64999L2.54999 113.25H2.45L2.34999 113.15H2.25V113.05H2.14999V112.95V112.85V112.75V112.65L1.95 112.35L2.04999 112.25V112.15H2.14999V112.05V111.85L2.25 111.75V111.65V111.45V111.05H2.34999V111.15L2.45 111.25H2.54999V111.35H2.75V111.45H2.84999H2.95H3.04999H3.25H3.34999L3.54999 111.55H3.64999H3.75L3.95 111.45H4.14999L4.34999 111.35H4.45H4.54999H4.64999H4.84999H4.95L5.04999 111.25H5.14999H5.34999H5.54999H5.64999V111.35L5.54999 111.45V111.55V111.65V111.75V111.85H5.64999L5.75 111.95H5.84999H5.95H6.04999H6.25H6.34999L6.54999 112.05H6.84999H7.04999H7.34999H7.45H7.54999H7.64999H7.84999V112.15H7.95H8.04999L8.14999 112.25H8.25L8.34999 112.35H8.45L8.34999 112.65H8.45H8.54999H8.64999H8.95V112.75L9.04999 112.65H9.34999H9.45H9.54999H9.64999H9.75V112.55H9.84999V112.45H9.95H10.05L10.15 112.35H10.25H10.35H10.45L10.55 112.25H10.65H10.75H10.95H11.05H11.15L11.25 112.15V112.05V111.95H11.35V111.85H11.45V111.75H11.55V111.65H11.65H11.75V111.55V111.45V110.75H11.85H11.95L12.05 110.45L12.15 110.05L12.25 109.85V109.65L12.15 109.25V108.95V108.85V108.65L11.75 108.75L11.45 108.85L11.15 108.95V108.85L11.35 108.15V107.95V107.85V107.65L11.45 107.55V107.35L11.35 107.15V107.05H11.25H11.15V106.95V106.85V106.75V106.65L11.25 106.55H11.15L10.75 106.35V106.25V105.85V105.45V104.95H10.95H11.15H11.25H11.35H11.45H11.55H11.65L11.75 105.05L11.85 105.15V105.25L11.95 105.35V105.45L12.05 105.55L12.15 105.65L12.25 105.75L12.35 105.95L12.45 106.25L12.55 106.35H12.75H12.85H12.95H13.05L13.15 106.25H13.25H13.45H13.65V106.35V106.45V106.55H13.75H13.85H14.15H14.25L14.35 106.65L14.65 106.55H14.75V106.45H15.35V106.55V106.65H15.45H15.55H15.65H15.75V106.75H15.85H15.95H16.05H16.15V106.65H16.25V106.55H16.35L16.45 106.45V106.35L16.35 106.25H16.25V106.15H16.15V106.05H16.05H15.95H15.85V106.15H15.75H15.65V106.05V105.95H15.55L15.45 105.85L15.35 105.75V105.65V105.55H15.45V105.45H15.35V105.35V105.25V105.15V105.05H15.45V104.95L15.35 104.85H15.25H15.15H15.05L15.15 104.75V104.65H14.95H14.85H14.75L14.65 104.55L14.35 104.35V104.25H14.25V104.15V104.05L14.35 103.95H14.25H14.15V104.05H14.05V104.15V104.25H13.95V104.15H13.85H13.75V104.05V103.95V103.85H13.85V103.75H13.75V103.65V103.55V103.45H13.85H13.95V103.55V103.65H14.05V103.55V103.45H14.15V103.35H14.25V103.25H14.35V103.15H14.45H14.55H14.65V103.05H14.75H14.85V103.15H14.75V103.25H14.85H14.95H15.05H15.15V103.15H15.25V103.05L15.35 102.95H15.45V102.85L15.55 102.75V102.65V102.55V102.45V102.35H15.45V102.25V102.15H15.55V102.25L15.65 102.15V102.05H15.55V101.95H15.65V101.85L15.55 101.75V101.65V101.55V101.45V101.35V101.25H15.45V101.15L15.35 101.05L15.25 100.95V100.85H15.15H15.05H14.95V100.75H15.05L15.15 100.65V100.55L15.25 100.45L15.45 100.25V100.35V100.45H15.55V100.55H15.65V100.65V100.75H15.75V100.85V100.95H15.85L15.75 101.05H15.85V101.15H15.95V101.25V101.35H16.05V101.45V101.55H16.15V101.65H16.25H16.35V101.75H16.45V101.85H16.55V101.95L16.65 101.85H16.75V101.95H16.85H16.95V102.05H17.05H17.15H17.25H17.35H17.45H17.55H17.65H17.75H17.85V102.15H17.95V102.25L18.05 102.15H18.15H18.25L18.35 102.25H18.45L18.55 102.35H18.65H18.75H18.85H18.95H19.05L19.15 102.15L19.45 101.85L19.15 101.45L19.35 101.25L19.45 101.15L19.65 100.95H19.75V101.05L19.85 101.15V101.25H19.95V101.35V101.45V101.55H20.05H20.15L20.55 101.35H20.65L20.85 101.25L21.45 101.05L21.35 100.95L21.55 100.85L21.65 100.75L21.85 100.65H22.05H22.25H22.35H22.45V100.55H22.55H22.65H22.75H22.85L23.05 100.45L23.25 100.35L23.45 100.25L23.75 100.15L23.95 100.05L24.35 99.85L24.45 100.05L24.55 99.95H24.65H24.75V99.85H24.85V99.75H24.95V99.65H25.05V99.55H25.15V99.45H25.25V99.35H25.35H25.45H25.55H25.65H25.75H25.85L25.95 99.45L26.05 99.55V99.65H26.15V99.75H26.25H26.35V99.45L26.25 99.35V99.25V99.15V99.05V98.95V98.75V98.65V98.55L26.15 98.45V98.35V98.25H26.25V98.15H26.35H26.45V98.05H26.55H26.65H26.75H26.85L26.95 98.15H27.05H27.15H27.25H27.35L27.45 98.25H27.55H27.65H27.75L28.15 98.15H28.25H28.35L28.75 98.05L29.15 97.95L29.45 97.85L29.85 97.75H30.05L30.35 97.65L30.65 97.55L31.05 97.45V97.75L31.15 98.45L31.25 98.75V98.95V99.05H31.15H31.05L31.15 99.15V99.25L31.25 99.35H31.35H31.45L31.55 99.45V99.55L31.65 99.65V99.75V99.85V99.95H31.75V100.05H31.85V100.15L31.95 100.25L32.05 100.35L32.15 100.45V100.55H32.25H32.35V100.65L32.45 100.75H32.35V100.85H32.25H32.15V100.95H32.05L31.95 101.05H31.85H31.75V101.25V101.35V101.45V101.55V101.65H31.85H31.95H32.15H32.25H32.35H32.45H32.55H32.65H32.75L32.85 101.75H32.95H33.05H33.15L33.35 101.85H33.45L33.55 101.75L33.65 101.65H33.75H33.85H33.95L34.05 101.55H34.15H34.25H34.45V101.45H34.55H34.65V101.35L35.05 101.25L35.35 101.55L35.65 101.85H36.15L36.05 101.95V102.05V102.15L36.15 102.35L36.25 102.55L36.35 102.75V102.85L36.45 102.95L36.55 103.05V103.15L36.65 103.25L36.75 103.45V103.65L36.85 103.75L36.95 103.85V104.05L37.05 104.15V104.25H37.15V104.35V104.45L37.25 104.65L37.35 104.75V104.85L37.25 105.15H37.35V105.25V105.35H37.45V105.45H37.55V105.55L37.65 105.65V105.75H37.75H37.85L37.95 105.65L38.15 105.45L38.35 105.15L38.45 105.05L38.55 104.85L38.45 104.75L38.35 104.65L38.25 104.55L38.05 104.45V104.35H37.95V104.25L37.85 104.15L37.75 104.05H37.65V103.85L37.55 103.65L37.65 103.45L37.75 103.35L37.85 103.25L37.95 103.05L38.15 102.85L38.25 102.75L38.35 102.65L38.45 102.55L38.55 102.45L38.65 102.25L38.85 101.95L38.95 101.85V101.75V101.65V101.55L39.05 101.45V101.35V101.25H39.15L39.25 101.15L39.35 100.95L39.45 100.85H39.55V100.75L39.65 100.65L39.75 100.55V100.45H39.85V100.35H39.95V100.25V100.15V100.05V99.95V99.85V99.75V99.65V99.55H40.05V99.45V99.35H40.15V99.25V99.05H40.25V98.95V98.85H40.35V98.75V98.65H40.25V98.55V98.35L40.35 98.25L40.25 98.15V98.05H40.15V97.85L40.25 97.75V97.65V97.45L40.15 97.35V97.25V97.05L40.05 96.85V96.75V96.65V96.55V96.45L39.95 96.35H40.05V96.25V96.15V96.05V95.95V95.85L40.25 95.15L40.35 95.05H40.45V94.95L40.55 94.75V94.65H40.65V94.55V94.45L40.75 94.35V94.25V93.95V93.65V93.45V93.15V92.95V92.85V92.75V92.55V92.45H40.85L40.95 92.15V91.95V91.85V91.55V91.45V91.35L41.05 91.25V91.15L41.35 90.55L41.55 90.35L41.85 90.15V89.85L41.75 89.45V89.05V88.95H41.85V88.85H41.95H42.05V88.95V89.05H42.15H42.25H42.35H42.45V88.95H42.55V88.85H42.65V88.95H42.75H42.85V89.05H42.95H43.05V88.95H43.15V89.05H43.25H43.35H43.45H43.55L43.65 89.15H43.55V89.25H43.65H43.75L43.85 89.35V89.25H43.95V89.15H44.05V89.05H44.15L44.25 89.15V89.25V89.35V89.45H44.35V89.55H44.45V89.45H44.55V89.35H44.65H44.75H44.85H44.95H45.05V89.45H45.15V89.55V89.65H45.25V89.75H45.35H45.45V89.65H45.55H45.65V89.55H45.75H45.85H45.95H46.05L46.15 89.65H46.05L46.15 89.75L46.25 89.85H46.45L46.65 89.75H46.75V89.65H46.85V89.55H46.95L47.05 89.65V89.55H47.15L47.25 89.65H47.35H47.45L47.55 89.75L47.65 89.65L47.75 89.55V89.45V89.35V89.15V89.05V88.85L47.85 88.75V88.65L47.95 88.75V88.55H47.85V88.45L47.95 88.35V88.25V88.15L48.05 88.25V88.15H48.25H48.35H48.45V88.05H48.35V87.95V87.85V87.75V87.65V87.55V87.45V87.35L48.05 87.25L48.15 87.15L48.05 87.05H47.95L47.75 86.75L47.55 86.65L47.45 86.55L47.35 86.45L47.25 86.35V86.25L47.15 86.15H46.95H46.85L46.75 86.25V86.35L46.55 86.45H46.45L46.05 86.15V85.75L46.15 85.25V84.65L46.25 83.85L46.35 82.45L46.45 81.75L46.55 80.65L46.35 80.45L46.25 80.35L45.05 79.15L44.75 78.85H44.85L45.35 78.65H45.45L45.55 78.55H45.65H45.75H45.85H45.95H46.05L46.15 78.45V78.35H46.25H46.35L46.45 78.25H46.55H46.65L46.75 78.35H46.95H47.15H47.25H47.45H47.55V78.25H47.65L47.75 78.15H47.85H47.95V78.05H48.05H48.15V77.95H48.25H48.35V77.85H48.45H48.55L48.65 77.75H48.75H48.85V77.65H48.95H49.05H49.15V77.75H49.25H49.35H49.45L49.55 77.85H49.65L49.75 77.75H49.85L49.95 77.65H50.15L50.25 77.75H50.35H50.45H50.55L50.65 77.65V77.55V77.15L50.55 76.95V76.85L50.45 76.25V76.15L50.55 75.75L50.65 75.45H50.75V75.25L50.95 75.05H51.35H51.55H51.85V74.75L51.75 74.65V74.35L51.65 73.85L51.45 73.35L51.35 72.55L51.25 72.35V72.25V72.05L51.15 71.95V71.75L51.05 71.35L50.75 71.15L50.15 70.75L49.55 70.25L49.05 69.95L48.65 69.65L48.15 69.35L47.55 68.95L47.35 68.75L47.05 68.85L46.75 68.95L46.55 69.05L46.35 69.15H46.25H46.15H46.05H45.95H45.85H45.75H45.65L45.55 69.25H45.45L45.35 69.15H45.25H45.15L45.05 69.05H44.85H44.75L44.65 68.95H44.45L44.15 68.85L43.85 68.75H43.75H43.65L43.55 68.65V68.55L43.65 68.65L43.75 68.45V68.35V68.25V68.15V68.05H43.65V67.95V67.85H43.75H43.85V67.75L43.95 67.65V67.15V67.05L43.85 66.95L43.75 66.85L43.65 66.75L43.55 66.55L43.45 66.45H43.35V66.35V66.25L43.55 65.85H43.65L43.85 65.75V65.65L44.45 65.35H44.55H44.75H44.95H45.05L45.35 65.55H45.45H45.95H46.15V65.05V64.25H46.35H46.45L46.85 64.15L46.95 64.55V64.65V64.75L47.05 64.95L47.35 64.85L47.65 64.75L47.75 64.65H47.85L47.95 64.55L48.05 64.45H48.15H48.25L48.35 64.35H48.45L48.55 64.25H48.65L48.75 64.05H48.85H49.05L49.45 63.95L49.55 63.85L49.75 63.65L49.85 63.55V63.45L49.95 63.25V63.15V63.05L50.05 62.95V62.75L49.95 62.65L49.85 62.55H49.75V62.45V62.35L49.65 62.25L49.55 62.15V62.05V61.95H49.45V61.85V61.75V61.65H49.35V61.55H49.45H49.55V61.45V61.35H49.65H49.75L49.85 61.25V61.15L49.75 61.05L49.65 60.95V60.85H49.55L49.45 60.75V60.65V60.55H49.35L49.15 60.25L48.95 60.05L48.65 59.75L48.45 59.45L48.35 59.35L48.05 59.05L47.85 58.85L47.65 58.65L47.35 58.35L47.15 58.15L46.95 57.95L46.75 57.65L46.45 57.35L46.25 57.15H46.15L45.65 57.05L45.15 56.95H45.05L44.45 56.85H44.15H44.05L43.85 56.75H43.75V56.65V56.55V56.45H43.65V56.35V56.25H43.75V56.15V56.05H43.65L43.75 55.95L43.85 55.85H43.75V55.75V55.65V55.55H43.85V55.45V55.35V55.25H43.75H43.65H43.55V55.15L43.45 55.05V54.95L43.35 54.85V54.75V54.65L43.25 54.75V54.85H43.15V54.75V54.65H43.05V54.55V54.45V54.35L42.95 54.25H43.05V54.35H43.15H43.25V54.25H43.35V54.15H43.25H43.15V54.05H43.05V53.95H43.15H43.25V53.85V53.75H43.15V53.65H43.05V53.75H42.95V53.65L43.05 53.55H43.15L43.25 53.65V53.55V53.45H43.15L43.05 53.35H43.15V53.25H43.25L43.35 53.15V53.05H43.25V53.15H43.15V53.25H43.05V53.15H42.95V53.05H42.85H42.75V52.95H42.65H42.55V52.85V52.75H42.45V52.65H42.35V52.55V52.45H42.45V52.35H42.35V52.45H42.25V52.35V52.25H42.15H42.05H41.95H41.85H41.75V52.15L41.65 52.05L41.55 51.95V51.85H41.45L41.35 52.05L41.25 51.95H41.15L41.25 51.75V51.65L41.35 51.55V51.35V51.25H41.25H41.05L40.85 51.45H40.75V51.35L40.85 51.25H40.75H40.65V51.15H40.75H40.85V51.05H40.75V50.95H40.85V50.85H40.75L40.65 50.95H40.55H40.15V50.85L40.25 50.55L40.35 50.45V50.35V50.25H40.25V50.15H40.15V50.05L40.05 50.15V50.05H39.95H39.85V49.95V49.85H39.75V49.95V50.05H39.65H39.55V49.95H39.65V49.85H39.55H39.45V49.75H39.35V49.85H39.25V49.75H39.35V49.65H39.25H39.15V49.75L38.95 49.85L38.85 49.75L38.75 49.65L38.55 49.55V49.45V49.35L38.65 49.15V49.05V48.95V48.85H38.55V48.95H38.45L38.35 48.85V48.75H38.45V48.65H38.35V48.55H38.25V48.65H38.15V48.55H38.05H37.95L37.85 47.95L37.55 47.85V47.75H37.45V47.65V47.55H37.55V47.45V47.35V47.25H37.65V47.35H37.75V47.25L37.95 46.85L37.85 46.75L37.95 46.65L38.05 46.45V46.35H38.15V46.25V46.15H38.05H37.95H37.85V46.05H37.75V45.95H37.85V45.85V45.75V45.65V45.55H37.95L38.05 45.45L38.15 45.55V45.45H38.25V45.35H38.35V45.45H38.45V45.35V45.25H38.55V45.15L38.45 45.05L38.35 44.95L38.25 44.75L38.15 44.55L38.05 44.45V44.35L37.95 44.25L37.65 44.55L37.15 44.95L36.75 45.25L36.45 45.15H36.35L35.85 44.95L35.45 45.35L34.35 44.85L34.15 44.75V44.35V44.25L34.25 43.75L34.35 43.25H33.95H32.55L32.65 43.55L32.55 43.75L32.45 43.85L32.25 44.15L32.55 44.45V44.85H32.35H32.25V44.75H32.15H32.05H31.95V44.65L31.55 44.85V45.05L31.35 45.15L31.15 44.65L31.35 44.55H31.45H31.55L31.35 44.35H31.45L31.55 44.25V44.15V43.95L31.45 43.75L30.85 43.95V43.75L30.75 43.55V42.85L30.35 42.35L29.75 42.05L29.25 42.25L29.05 41.75L28.65 41.85L28.55 41.75L28.45 41.05L28.25 40.55L28.15 40.15L28.65 39.65L28.45 37.55L28.35 36.85V36.75H28.25L28.15 36.85H27.95L27.35 36.95H27.15L27.25 36.55L27.45 35.65H27.25H26.85H26.75H26.45L26.85 34.55L26.05 34.75L25.35 34.85L24.05 35.05L23.85 34.05L25.45 33.55L25.85 33.35H26.05V33.25L26.15 33.15V33.05V32.85L26.05 32.75H25.95L25.75 32.55L25.45 32.45L25.35 32.35L25.05 32.15L24.75 32.05L24.55 31.95L24.95 30.75L25.05 30.65L25.25 30.45L25.45 30.25H25.55V30.15H25.65H25.75H25.85H25.95L26.05 30.05L26.15 29.75L26.25 29.15L26.35 28.65L26.45 28.45H26.35L25.95 27.85L25.65 27.55H25.55L25.45 27.45V26.95L25.35 26.55L24.85 26.65L24.45 26.75L24.35 26.25L24.15 25.65L24.05 25.05L23.35 25.45L23.45 25.65L22.85 25.85L22.95 25.35V24.45L24.65 24.35V24.85L25.15 25.05L25.25 24.65L25.35 24.45L25.65 23.65L25.75 23.45L26.15 23.55L26.75 23.65L26.85 23.35V23.25L26.95 23.15L27.05 22.95V22.85H27.15V22.75L27.25 22.65V22.55V22.45V22.35V22.25H27.35V22.15H27.45V22.05L27.65 21.75V21.65V21.55V21.45V21.35H27.55V21.25V21.15H27.65H27.75V21.05H27.85H27.95H28.05V20.95V20.85H28.15V20.75V20.65L28.25 20.55V20.45H28.35V20.35H28.25V20.25V20.15V20.05H28.15V19.95V19.85V19.75H28.25H28.35V19.65H28.45H28.55V19.55H28.65V19.45H28.75V19.35V19.25V19.15H28.85V19.05V18.95V18.85V18.75V18.65V18.55V18.45V18.35L28.75 18.25L28.85 18.15V18.05L28.95 17.95L29.25 17.65L29.45 17.45L29.55 17.25H29.65V17.15V16.95L29.55 16.85V16.65L29.45 16.55V16.45V16.35H29.55V16.25L29.65 16.15L29.75 16.05V15.95V15.85H29.85V15.75L29.95 15.65H30.05V15.55V15.45V15.25L30.15 14.95L30.35 14.35H30.45L30.35 14.15L30.25 13.95L30.15 13.75L30.05 13.65L29.95 13.35L29.85 13.05H29.75V13.15L29.55 13.25L29.35 13.55V13.65H29.25H29.15H29.05V13.55H28.95V13.45H28.75H28.85V13.05L28.95 12.75L29.05 12.25L29.25 12.15V11.95L29.05 11.65H28.85H28.75L28.65 11.25V11.15L27.85 10.45V10.35H27.95V10.25H27.85V10.15H27.95H28.05H28.15V10.05V9.95H28.05V9.85V9.75V9.65H28.15V9.55H28.25H28.35H28.45V9.45V9.35H28.55H28.65V9.45H28.75V9.35V9.25H28.85V9.15H28.75V9.05V8.95L28.85 8.85V8.75H28.75V8.65V8.55V8.45H28.65H28.55V8.35V8.25H28.45V8.15V8.05H28.35V7.95V7.85V7.75H28.25V7.65L28.35 7.55V7.35V7.25H28.25V7.15L28.35 7.05V6.85V6.75L28.45 6.55L28.55 6.45L28.65 6.35L28.75 6.15L28.85 5.85L29.05 5.65H29.15V5.55H29.25V5.45V5.35V5.05L29.65 4.85L29.85 4.75L29.95 4.65L30.15 4.45L30.25 4.35H30.35H30.45H30.55H30.65V4.25H30.75L31.65 2.95L31.25 2.85L30.75 2.65H30.65L30.55 2.55H30.35V2.45H30.25H30.15V2.35L29.65 2.45H29.35H29.25H28.65H28.35H27.95H27.85H27.75H27.65V2.35L27.55 2.25L27.45 2.15L27.35 2.05H27.25L26.95 1.75L26.65 1.55L26.25 1.35H26.15L26.05 1.25L26.15 1.05H26.05L30.15 1.15H30.45L34.75 0.25L35.25 0.349998L45.55 2.35L49.05 2.15L50.55 2.55L53.75 5.45L55.35 6.15L66.45 6.55V6.65V7.05V7.35V7.45V7.75V8.05V8.25L66.65 8.15H66.85H67.05H67.25H67.45H67.55L67.45 8.25L67.65 9.05L68.25 9.95L68.95 10.25L70.15 10.35V10.55V10.75H70.25H70.35L71.95 10.85L74.05 11.05L74.45 10.45L80.05 10.65L84.55 12.65L84.95 12.85H85.05L87.55 13.95L89.55 14.85L92.95 15.45L93.15 15.35L93.45 15.45L93.65 15.65L94.15 15.85L94.25 15.95H94.35V15.85L94.75 15.55L95.05 15.05L95.25 14.85L95.55 14.55V14.45L97.95 13.65L102.45 13.85L104.55 14.25L105.85 15.05L106.15 16.35L106.05 18.05V20.25L106.45 21.85L107.15 22.55L108.15 22.65L109.45 22.55L110.65 22.85V23.15V23.25L110.55 23.35L110.45 23.55L109.85 24.35L109.45 24.95L109.25 25.35L109.35 25.65L109.45 26.05V26.15V26.25L109.25 26.45L109.15 26.75L109.05 26.85H109.45H109.85L109.75 27.45L110.35 28.05L111.45 27.95L113.55 27.25L116.45 27.75H117.55L118.65 27.15L119.85 25.85V26.15L120.25 26.35L120.55 26.55L120.65 26.45L120.85 26.25L120.95 26.15L121.25 25.85L121.45 26.05L121.55 26.15V26.25H121.45V26.35H121.35V26.45V26.55V26.65H121.25V26.75H121.15V26.85V26.95V27.05V27.15V27.25H121.25V27.35V27.45V27.55V27.65L121.55 27.75L121.65 27.85H121.85L122.05 27.95L122.25 28.05H122.35L122.45 27.95L122.75 27.75H122.85V27.65L123.05 27.35L123.15 27.15L123.25 26.85L123.55 26.45H123.15H122.75L122.65 25.95V25.55L122.55 25.25V25.15H122.75L128.25 27.35L131.05 27.45L131.85 27.95L132.45 29.55L132.25 30.95H132.15L132.05 31.05L131.95 31.15H131.85V31.25L131.65 31.45L131.55 31.55L131.45 31.65L131.35 31.75H131.25L131.15 31.85L131.05 31.95V32.05V32.25V32.45V32.95L131.15 33.25V33.55L130.75 33.65L130.35 33.75L130.45 34.25V34.35L130.55 34.55L130.65 35.15Z" fill="#220F0F"/>
<path d="M108.65 88.35V88.25H108.75V88.15V88.05V87.95V87.85H108.85V87.75V87.65H108.95V87.55V87.45H109.05V87.35H109.15V87.25V87.15H109.25V87.05H109.35V86.95H109.45V86.85V86.75L109.35 86.55L109.25 85.85L109.45 85.45L109.65 84.95L109.35 84.75L109.45 84.55L109.55 84.35L109.65 84.25V84.15L109.75 83.95H109.85V83.75H109.75L109.65 83.65V83.55H109.55L109.45 83.45L109.35 83.35H109.25L109.15 83.25H109.05L108.95 83.15L108.75 82.95V82.85V82.75V82.65L108.65 82.55V82.45H108.55H108.45L108.35 82.55V82.45H108.25V82.55H108.15V82.45H108.05V82.35V82.25V82.15L107.95 82.05H107.85V81.95V81.85V81.75V81.65L107.75 81.45V81.35H107.85L107.95 81.15L108.05 80.95L108.25 81.05L108.45 80.85L108.65 80.75L108.85 80.65L108.95 80.45H108.85H108.75V80.35V80.15L108.85 80.05V79.95L108.95 79.85L108.85 79.75L108.65 79.65V79.55H108.75L108.55 79.45L108.15 79.25V78.95H108.25V78.85V78.75V78.65V78.45L108.15 78.35V78.25H108.25V78.15L108.05 77.85L107.95 77.55H107.85V77.45L107.75 77.35V77.25L107.65 77.05L107.55 76.95V76.85L107.35 76.55L107.25 76.45V76.35H107.15V76.25V76.15V76.05V75.95V75.85L106.95 75.45L107.35 75.25L107.55 75.05L107.75 74.75L108.35 74.85V74.75V74.05L108.45 73.95V73.75V73.65L108.25 73.55V73.45L108.15 73.35L108.05 73.25V73.05H107.95L108.35 72.95H109.15H109.35H109.55L110.05 72.85H110.45H110.85V72.75L110.95 72.25L111.25 72.15H112.55L113.35 72.05L113.25 71.85L112.95 71.35V71.25V71.05V70.75L113.05 70.55V70.45V70.35L113.25 70.05V69.95V69.85V69.65L113.15 69.35L113.25 68.85L113.35 68.95L113.75 68.75V68.65L113.85 68.35H113.95H114.05H114.25L114.55 68.45H114.85L114.75 67.75H115.05L115.45 67.65L115.35 67.05L115.25 66.65L115.55 66.45L115.45 65.95L115.35 65.15V64.55L115.25 64.15V63.95H115.35H115.65V63.85H115.75L116.05 63.65V63.55L115.75 63.05L116.15 62.65L116.35 62.35L116.95 61.85V61.75L116.85 61.65L117.15 60.95L117.25 60.85L117.35 60.35L117.25 60.25L117.15 60.05V59.45V59.35L117.85 59.25L118.75 58.15L118.85 58.05L118.95 57.85L119.25 57.55H119.35L120.05 57.45V57.35V57.25V57.15L120.15 57.05V56.95V56.85L120.25 56.75V56.65V56.45L120.75 56.35V56.15L120.65 55.95L120.55 55.85H120.45L120.35 55.75V55.65L120.25 55.55H120.15H119.85V55.45V55.25V55.15L119.55 55.05L119.45 54.65H119.85L119.65 54.45L119.75 54.35H119.85H119.95L120.15 54.25L120.05 54.05V53.95L119.85 53.45L119.55 52.75L119.35 51.55L119.25 51.25L119.15 50.45H119.25H119.35L119.65 50.35H119.75L120.15 50.25H120.65L121.15 50.15H121.25H121.35V50.05H121.45H121.55H121.65L121.85 49.85L121.95 49.75L122.05 49.55H122.15V49.45L122.35 49.15L122.55 48.75L122.65 48.45H122.75L123.25 47.95V47.85V47.65V47.55L123.55 46.95L123.45 46.65L123.35 46.45L123.45 45.95L122.35 45.45H122.25L122.05 45.35H121.85V45.25V45.15V44.85V44.65V44.55L121.75 42.55L121.95 42.15L122.05 41.75V41.45V41.35L122.15 41.15L122.35 40.35V40.25V39.55V39.05H122.45H122.55H122.65L122.95 38.95H123.05H123.15H123.25H123.45H123.65H123.85V39.05L123.75 39.15L123.65 39.35L123.45 39.75L123.55 39.95L123.65 40.05V40.15V40.25H123.75V40.45V40.55V40.65V40.75V40.85V40.95L124.05 41.15L124.85 41.65H124.95L125.45 41.85L125.55 41.95V42.05L125.65 42.15L125.75 42.25H125.85V42.35H125.95L126.05 42.45L126.25 42.55L126.35 42.65V42.75V43.15L127.15 43.05H127.45L127.85 42.95V42.45L127.35 42.05L127.45 41.65L127.15 41.45V40.75L126.25 40.85V40.65V40.15V39.85L126.15 38.55V38.45V38.35V38.25V38.15V37.75V36.85H126.65L128.35 36.55L129.55 35.35L129.65 34.95L129.95 35.15H130.05H130.15L130.25 35.25L130.55 35.35L130.65 35.15L130.55 34.55L130.45 34.35V34.25L130.35 33.75L130.75 33.65L131.15 33.55V33.25L131.05 32.95V32.45V32.25V32.05V31.95L131.15 31.85L131.25 31.75H131.35L131.45 31.65L131.55 31.55L131.65 31.45L131.85 31.25V31.15H131.95L132.05 31.05L132.15 30.95H132.25L132.45 29.55L131.85 27.95L131.05 27.45L128.25 27.35L122.75 25.15H122.55V25.25L122.65 25.55V25.95L122.75 26.45H123.15H123.55L123.25 26.85L123.15 27.15L123.05 27.35L122.85 27.65V27.75H122.75L122.45 27.95L122.35 28.05H122.25L122.05 27.95L121.85 27.85H121.65L121.55 27.75L121.25 27.65V27.55V27.45V27.35V27.25H121.15V27.15V27.05V26.95V26.85V26.75H121.25V26.65M108.65 88.35H108.55M108.65 88.35V88.45V88.55H108.75H108.85V88.65M108.85 88.65H108.75M108.85 88.65V88.75H108.95V88.85M108.95 88.85H108.85M108.95 88.85V88.95V89.05H109.05V89.15M109.05 89.15H109.15L109.05 89.25M109.05 89.15V89.25M109.05 89.25V89.35L108.95 89.45V89.55V89.65M108.95 89.65H108.85M108.95 89.65V89.75V89.85V89.95V90.05V90.15V90.25V90.35L108.85 90.45H108.75V90.55V90.65V90.75H108.85V90.85V90.95V91.05H108.75V91.15V91.25V91.65V91.75L108.85 91.85L109.15 92.05L109.05 92.75V93.05V93.15V93.25V93.35V93.45V93.55H109.15V93.65V93.75H109.05L109.15 93.85H109.25H109.35H109.45V93.95H109.55H109.65H109.75V94.05H109.85H109.95V94.15V94.25V94.35H110.05V94.45H110.15V94.35H110.25H110.35H110.45H110.55V94.45V94.55V94.65V94.75V94.85V94.95M110.55 94.95H110.45M110.55 94.95V95.05M110.55 95.05H110.45M110.55 95.05V95.15H110.45V95.25V95.35H110.35V95.45H110.25V95.55V95.65V95.75H110.15V95.85H110.25V95.95V96.05V96.15H110.35V96.25V96.35H110.45V96.45H110.35V96.55H110.45H110.55V96.65H110.65V96.75V96.85H110.55V96.95V97.05V97.15H110.65V97.25H110.75V97.35V97.45V97.55H110.85V97.65L110.75 97.75V97.85H110.65V97.95V98.05V98.15V98.25V98.35V98.45H110.55H110.45V98.55H110.35V98.65H110.25L110.15 98.75V98.85V98.95H110.05V99.05H109.95V99.15V99.25V99.35H110.05V99.45V99.55H109.95V99.65H109.85H109.75V99.75V99.85H109.65H109.55V99.95M109.55 99.95H109.65V100.05M109.55 99.95V100.05H109.65M109.65 100.05V100.15H109.75L109.65 100.25M109.65 100.25H109.75M109.65 100.25H109.55M109.65 100.25V100.35H109.55V100.45V100.55L109.45 100.65V100.75V100.85V100.95L109.35 101.15V101.35L109.25 101.45V101.55L109.05 101.45L108.95 101.55H108.55L108.35 101.75L108.15 101.55L108.05 101.75H107.85V101.85H107.75V101.75H107.65V101.85H107.55M107.55 101.85H107.45V101.95M107.55 101.85V101.95H107.45M107.45 101.95H107.35V102.05H107.25M107.25 102.05V101.95M107.25 102.05H107.15V102.15M107.15 102.15H107.25M107.15 102.15V102.25V102.35H107.05V102.45H107.15V102.55V102.65H107.25H107.35H107.45L107.55 102.75H107.65V102.85V102.95V103.05V103.15H107.55V103.25H107.65V103.35V103.45M107.65 103.45H107.55M107.65 103.45V103.55V103.65H107.55V103.75H107.45V103.85H107.35V103.95H107.45V104.05M107.45 104.05H107.55V104.15M107.45 104.05V104.15H107.55M107.55 104.15H107.65V104.25H107.55V104.35H107.45H107.35V104.45L107.25 104.55V104.65H107.15H107.05V104.75V104.85V104.95H107.15H107.25V105.05V105.15H107.15H107.05V105.25H106.95H106.85H106.75H106.65V105.15H106.55H106.45V105.25H106.35V105.35M106.35 105.35H106.45M106.35 105.35L106.45 105.45V105.55V105.65V105.75H106.55H106.65H106.75H106.85V105.85L106.95 105.95L107.05 106.15L107.15 106.35H107.25H107.35H107.45V106.45L107.55 106.55H107.65V106.65H107.85L107.95 106.75L108.15 106.85H108.25V107.05H108.15V107.15V107.25V107.35V107.45L108.05 107.65L107.95 107.85H107.85V107.95V108.05V108.15H107.75V108.25V108.35L107.85 108.55L108.05 108.85L108.15 109.25L108.35 109.55L108.55 109.85V110.05H108.45H108.35H108.25H107.95L107.55 110.15V110.25H107.35H107.15H107.05L106.95 110.35H106.85H106.75H106.65L106.55 110.45H106.45H106.35H106.15H105.95H105.85H105.75H105.55H105.45H105.35V110.35H105.25H105.15H105.05H104.95H104.85L104.65 110.25H104.55L104.45 110.35H104.35H104.15H104.05L103.85 110.45H103.75H103.65H103.55H103.45V110.35V110.25V110.15L103.35 110.05V109.95V109.85L103.25 109.65L103.15 109.55V109.45H103.25V109.35H103.35L103.45 108.85H103.35L103.45 108.55V108.45V108.35V108.25H103.35H103.25H103.15V108.15H103.05H102.95V108.05H102.85V107.95V107.85V107.75L102.75 107.85H102.65H102.55V107.95H102.45L102.55 108.05H102.45H102.35V108.15V108.25V108.35L102.25 108.45V108.55H102.15V108.65H102.05V108.55H101.95L101.85 108.45H101.75H101.65V108.35H101.55H101.45V108.45V108.55V108.65L101.35 108.75V108.95H101.25L101.15 108.85L101.05 108.75L100.95 108.65L100.85 108.75V108.95L100.75 109.15L100.85 109.25H100.75H100.65H100.55V109.35V109.45L100.45 109.65V109.75V109.85V109.95H100.35V110.05V110.15H100.25V110.25L100.15 110.35L100.45 110.65V110.75H100.55L100.65 110.85L100.75 110.95L100.55 111.25H100.25H100.15H100.05H99.95H99.85H99.75H99.65L99.55 111.15H99.45H99.35H99.25L99.15 111.05H99.05L98.95 110.95H98.85H98.75L98.65 110.85H98.55H98.45L98.25 110.75H98.15H98.05L97.95 110.65H97.75V110.85L97.55 111.25V111.45L97.45 111.75L97.35 111.85V111.95V112.05L97.25 112.15L96.85 112.35L96.75 112.45H96.65L96.55 112.55L96.35 112.65L96.25 112.75V112.95L96.15 113.05V113.15V113.25L96.05 113.35V113.45L95.85 113.35H95.75V113.25H95.65V113.15H95.55H95.45V113.05H95.35H95.25V112.95H95.15H95.05H94.85H94.65H94.55H94.45H94.35H94.25V112.85H94.15H94.05L93.95 112.95V112.85H93.85H93.75L93.65 112.75H93.55V112.65H93.45L93.35 112.55L93.25 112.45H93.15L92.95 112.35H92.85H92.75H92.65V112.25L92.45 112.15L92.35 112.05H92.25V111.95L92.15 111.85L91.85 111.65L91.75 111.75L91.55 111.85L91.45 112.05H91.35V112.15H91.25V112.25H91.15L91.05 112.35V112.45H90.95V112.55H90.85V112.65V112.75L90.75 112.85L90.65 113.05V113.25L90.55 113.55L90.45 113.65L90.15 113.85H90.05V113.95L89.85 114.05V114.15L89.65 114.55H89.55L89.35 114.45L89.15 114.25H89.05L88.95 114.15L88.75 114.05L88.65 113.75L88.55 113.55V113.45H88.35H88.25H88.15V113.55V113.65L87.95 113.75L87.85 114.05L87.75 114.15V114.35L87.85 114.55V114.65L87.75 114.75V114.95V115.05H87.65H87.55H87.35H87.25V115.15H87.15H87.05H86.95H86.85H86.75L86.65 115.05H86.55H86.45H86.35H86.25H86.15L86.05 115.15H85.95H85.85H85.75V115.25L85.65 115.35H85.75L85.85 115.45V115.55V115.65V115.75L85.75 115.85L85.65 116.05H85.55H85.35V115.95H85.15V116.05L85.05 116.15L85.25 116.25L85.15 116.35L85.25 116.45L85.15 116.55L85.25 117.05H85.15L84.95 117.15H84.85V117.25V117.55V117.65H84.95L85.45 117.55H85.55V117.35H85.65H85.75H85.85L86.05 117.25H86.25V117.45H86.15V117.55V117.65V117.85H86.05V117.95H85.95H85.85H85.75H85.65L85.55 117.85V117.95L85.45 118.05V118.15H85.35V118.05L85.25 117.95V117.85H85.15V117.95V118.05L85.05 118.15V118.35L84.85 118.25H84.75V118.15L84.55 118.25H84.35L84.05 118.35H83.85V118.15H83.95V118.05V117.95L84.05 117.85V117.75V117.65L84.15 117.55V117.45V117.35V117.25L84.05 117.15V117.05V116.95H83.75V117.05H83.55V117.15V117.25V117.35V117.45L83.65 117.55H83.55V117.65V117.75V117.85V117.95V118.05V118.15V118.25L83.35 118.35H83.25V118.55L83.15 118.65H83.25V118.75H83.35L83.45 118.85H83.55L83.65 118.95V119.05H83.75V119.15L83.65 119.25V119.75H83.55H83.25H83.15H83.05H82.95L82.85 119.65H82.75H82.65M82.65 119.65V119.55M82.65 119.65L82.55 119.85V119.95V120.15V120.45V120.55V120.75V120.85V121.05V121.15V121.25V121.35L82.45 121.45V121.55V121.65V121.75V121.85H82.35H82.15L81.95 121.75H81.85H81.75H81.65V121.65H81.55H81.35V121.95H81.25V122.05V122.15V122.35V122.45L81.15 122.55V122.65V122.75V122.85L81.05 123.05V123.15V123.25V123.35L80.95 123.55V123.75V123.85V123.95L80.85 124.05H80.75H80.65V123.95H80.55H80.45H80.35H80.25H80.15H80.05H79.95V123.85H79.85H79.75V123.95L79.65 124.05V124.15V124.25V124.35L79.55 124.45V124.65V124.75L79.45 124.85V124.95V125.05L79.35 125.15V125.25V125.35V125.45L79.25 125.55V125.65V125.75V125.85H79.15V125.95V126.05L78.85 125.85L78.45 125.75H78.35V125.65H78.25H78.15V125.55H78.05H77.95H77.85V125.45L77.65 125.55H77.55H77.45L77.15 125.65H77.05H76.95L76.85 125.75L76.55 126.55L76.45 126.65V126.85L76.35 126.95V127.05H76.25V127.15V127.25H76.15V127.35V127.45V127.55V127.65V127.75L76.05 127.85V127.95H75.95L75.65 128.15L75.55 128.25L75.25 128.35L74.65 128.65H74.55L74.45 128.75H74.35L74.65 129.25L74.75 129.35H74.85V129.45V129.55L74.75 129.75H74.65H74.45H74.25H74.05L73.85 129.65L73.95 129.95L74.15 130.55H73.75H73.65L73.35 130.65L73.15 130.35L73.05 130.25L72.65 130.75L72.75 130.85L72.85 130.95V131.15V131.25L72.75 131.35H72.65H72.55L72.45 131.45V131.55V131.85V131.95L72.25 131.85L72.15 131.95V132.05V132.15L72.25 132.25H72.35L72.45 132.35V132.45V132.55L72.35 132.65L72.15 132.45L72.05 132.35H71.95L71.85 132.45V132.55H71.75V132.45H71.65H71.55L71.45 132.55L71.35 132.65V132.75V132.85L71.45 132.95H71.35V133.05L71.45 133.15L71.55 133.25L71.65 133.35L71.55 133.45L71.45 133.55L71.35 133.65L72.05 133.95L71.95 134.15H71.85L71.65 134.05H71.55H71.35V133.95L71.15 133.85H70.85H70.65L70.55 133.95L70.45 134.05L70.35 134.15L70.25 134.25H70.15H70.05H69.85H69.65H69.45H69.25V134.15H69.35V134.05H69.45L69.35 133.95H69.25H69.15V134.05H69.05V133.95H68.95V134.05H68.85H68.75V134.15M68.75 134.15H68.65M68.75 134.15V134.25H68.65H68.55H68.45V134.15H68.35V134.25H68.25H68.15M68.15 134.25V134.15M68.15 134.25H68.05V134.15V134.05H67.95V134.15H67.85M67.85 134.15V134.25M67.85 134.15H67.75H67.65M67.65 134.15V134.25H67.55V134.15M67.65 134.15H67.55M67.55 134.15H67.45V134.05M67.45 134.05H67.55M67.45 134.05H67.35V134.15H67.25V134.05H67.15M67.15 134.05V134.15H67.05M67.15 134.05H67.05H66.95M66.95 134.05V133.95M66.95 134.05H66.85M66.95 133.95L66.85 134.05M66.95 133.95H66.85M66.85 134.05V133.95M66.85 134.05H66.75V133.95M66.85 133.95H66.75M66.75 133.95H66.65H66.55V133.85H66.45V133.95H66.35V134.05H66.25M66.25 134.05V133.95M66.25 134.05H66.15H66.05V134.15V134.25H65.95M65.95 134.25V134.15M65.95 134.25H65.85H65.75V134.35H65.85V134.45H65.75M65.75 134.45H65.65M65.75 134.45V134.55H65.85V134.65H65.75V134.75V134.85H65.65H65.55V134.95H65.45V134.85H65.35V134.95H65.25V134.85H65.15H65.05H64.95H64.85V134.95H64.75H64.65V135.05V135.15V135.25V135.35L64.55 135.45H64.45V135.55H64.35V135.65H64.25V135.75H64.15V135.85V135.95H64.05H63.95H63.85M63.85 135.95V136.05M63.85 135.95H63.75V136.05M63.75 136.05H63.65M63.75 136.05V136.15H63.65M63.65 136.15V136.25M63.65 136.15H63.55V136.25H63.45H63.35H63.25V136.35H63.15V136.45H63.05V136.55H62.95H62.85V136.65H62.75V136.75M62.75 136.75H62.85M62.75 136.75L62.85 136.85M62.85 136.85H62.75M62.85 136.85V136.95V137.05H62.75V137.15H62.65V137.25M62.65 137.25V137.35M62.65 137.25H62.55V137.35V137.45H62.45M62.45 137.45V137.55M62.45 137.45H62.35V137.55V137.65V137.75H62.25V137.85H62.15H62.05V137.95H61.95H61.85V138.05V138.15V138.25V138.35H61.75V138.45V138.55H61.65V138.65H61.75V138.75H61.85V138.85V138.95V139.05V139.15L61.75 139.25H61.65V139.35V139.45L61.55 139.55H61.45V139.65H61.35V139.75V139.85L61.25 139.95H61.15V140.05H61.05V140.15V140.25V140.35V140.45H60.95M60.95 140.45V140.55M60.95 140.45H60.85H60.75H60.65V140.35M60.65 140.35H60.75M60.65 140.35H60.55L60.45 140.45H60.35V140.55H60.25V140.65H60.15V140.75H60.05H59.95H59.85H59.75V140.65H59.65V140.55H59.55H59.45V140.65H59.35H59.25H59.15V140.75M59.15 140.75V140.85M59.15 140.75H59.05V140.85H58.95H58.85V140.95V141.05H58.75H58.65L58.55 141.15M58.55 141.15V141.05M58.55 141.15H58.45H58.35H58.25H58.15H58.05V141.25L57.95 141.15V141.05H57.85V140.95V140.85H57.75V140.75H57.65V140.65H57.55L57.35 140.35H57.25V140.25H57.15L57.05 140.15H56.95H56.75H56.55V140.05H56.45L56.35 139.95L56.25 139.85L56.15 139.65L56.25 139.55L55.55 139.25L55.85 138.25L56.05 137.65L56.15 137.55L55.95 137.65H55.85V137.45V137.35V137.15V137.05V136.95V136.75V136.65H55.95L56.05 136.75L56.15 136.85H56.25H56.35V136.75H56.45L56.55 136.65H56.65H56.75V136.55L56.85 136.65H57.05H57.15H57.25H57.35H57.45V135.95V135.75V135.45H57.35V135.25H57.45V135.15V134.95V134.75V134.65V134.55H57.55L57.65 134.45V134.35V134.25V134.15V134.05V133.95V133.85V133.75H57.45H57.35L57.45 133.95L57.35 134.05H57.25H57.05H56.95H56.65H56.45H56.15L56.05 134.15L55.95 134.35H55.85L55.75 134.45V134.55L55.45 134.95L55.35 135.15L55.05 135.55V135.65H54.95V135.75H55.05V135.85L54.95 135.95V136.05L54.85 136.15V136.25V136.35L54.75 136.45H54.85V136.55H54.75H54.65L54.45 136.45H54.35L54.15 136.35H54.05H53.95L53.85 136.25H53.65H53.55V136.15H53.45H53.35H53.25V136.05H53.15L52.75 135.95L52.05 135.65L51.85 135.55L51.45 135.35L50.85 135.15L50.65 135.05H50.55H50.25V134.95H50.15L49.85 134.75H49.75L49.65 134.65H49.55H49.45V134.75H49.35L49.25 134.95H49.15L49.05 135.15L48.95 135.25L48.85 135.35L48.75 135.45L48.55 135.65L48.15 136.05L48.05 136.15L47.85 136.35L47.55 136.65L47.45 136.75H47.35H47.25H47.15H47.05H46.95H46.85V136.65V136.55V136.45V136.35V136.25L46.75 136.15L46.65 136.05V135.95L46.55 135.85H46.45L46.35 135.75L46.15 135.65H46.05V135.55V135.45V135.35H45.85V135.45H45.75H45.65H45.45H45.35H45.25H45.05L44.95 135.35V135.15H44.85V135.05V134.95L44.75 134.85V134.75H44.65V134.55H44.55H44.45L44.35 134.45H44.25L44.15 134.55H44.05L43.95 134.65L43.75 134.55H43.65L43.55 134.45L43.45 134.55H43.35H43.25H43.05L42.85 134.65H42.75L42.65 134.75H42.55V134.85V134.95V135.15V135.25L42.05 135.65L41.95 135.75L41.35 136.25L41.25 136.45L41.05 136.75L40.85 137.05L40.65 137.25V137.35H40.55L40.45 137.45H40.35H40.25V137.55L40.15 137.85V137.95H40.05L39.95 138.05V138.15V138.25H39.85V138.35H39.95V138.55V138.65L39.85 138.75L39.75 138.95L39.45 139.35L39.35 139.65H39.25V139.75H39.15V139.85H39.05H38.95H38.85V139.95H38.65H38.55V140.05H38.45H38.35H38.25L38.15 140.15H38.05V140.25H37.95H37.85M37.85 140.25V140.35M37.85 140.25L37.75 140.35H37.65H37.55H37.45V140.45H37.35H37.25V140.35H37.15V140.45L37.05 140.35H36.95H36.85L36.75 140.25H36.65H36.55H36.45H36.35H36.25V140.15H36.15L36.05 140.25L35.85 140.35H35.65L35.35 140.55H35.15H35.05H34.85H34.75L34.55 140.65H34.25H34.15L34.05 140.55L33.85 140.45L33.75 140.35H33.65L33.25 140.25V140.15L32.75 140.05L32.65 140.35L32.55 140.75V140.85H32.45L32.55 140.95H32.45V141.05V141.15H32.35H32.25H32.15H32.05H31.95L31.85 141.25H31.65H31.55H31.45L31.25 141.05L31.15 140.85L31.05 140.75H30.95V140.65L30.75 140.75H30.65L30.45 140.95L30.25 141.05L30.05 141.15L29.95 141.25H29.85L29.75 141.35H29.65V141.45H29.55V141.55L28.25 142.35L27.95 142.55L27.65 142.75H27.55L27.35 142.65L27.25 142.55V142.45L27.05 142.25L26.85 141.95H26.75L26.55 141.85L26.45 141.75L26.25 141.65L26.05 141.45L25.85 141.35L25.65 141.25L25.45 141.05H25.35V140.95H25.25L25.05 140.85V140.95L24.95 141.05V141.15H24.85V141.25V141.35L24.75 141.45V141.55H24.65V141.75L24.55 141.85L24.45 141.95V142.15L24.35 142.25L24.25 142.35V142.45L24.15 142.55L24.05 142.75V142.85H23.95M23.95 142.85V142.95M23.95 142.85H23.85H23.75L23.25 142.75L22.75 142.65H22.35L21.95 142.55H21.75L21.45 142.45H21.25V142.35V142.15L21.35 142.05H21.45V141.95L21.35 141.85H21.25L21.15 141.75H20.95H20.75H20.45L20.15 141.65H20.05L19.75 141.95L19.55 142.15L19.15 142.45L18.95 142.65L18.85 142.75L18.75 142.85L18.65 142.95V143.15V143.25V143.35V143.85V144.55V144.85V144.95V145.05L18.75 145.15L18.85 145.35L18.95 145.45V145.55H19.05H19.15H19.25L19.45 145.65H19.65H19.85L20.15 145.75H20.45V145.95L20.55 146.15V146.35L20.65 146.45V146.55V146.65V146.75L20.25 146.85L19.75 146.95L19.45 147.05L19.55 147.35H19.25H18.95V147.45V147.55L19.05 148.05V148.25L18.75 148.35V148.65V148.75V148.85L18.55 148.95H18.45H18.35V149.05H18.15V149.15V149.25H18.05V149.55L17.95 149.85V149.95L17.85 150.25V150.55H17.75L17.65 150.65H17.55L17.45 150.75H17.35H17.25H17.15V150.85H17.05H16.85H16.65H16.55H16.25H15.95H15.85V150.95H15.75V151.05H15.65H15.55H15.45V150.95V150.85L15.35 150.95H15.15L14.95 151.05H14.75H14.65L14.55 151.15H14.45L14.35 151.95L14.25 153.25V153.45H14.05H13.95L13.85 153.35L13.65 154.45V154.55L13.05 153.95L12.75 153.65L12.45 153.45L12.35 153.35H12.25L12.15 153.25L12.05 153.15H11.95L11.85 153.05L11.75 152.95V152.85L11.65 152.75L11.55 152.55V152.45L11.45 152.35V152.25H11.35L11.25 152.05L11.15 151.95L10.95 151.75V151.65L10.85 151.55V151.45L10.75 151.35L10.55 151.05L10.35 150.75L10.25 150.65L10.15 150.55L10.05 150.35L9.95 150.25H9.84999V150.15L9.75 150.05L9.64999 149.95V149.85H9.54999V149.75L9.45 149.65L9.34999 149.45V149.35H9.25L9.04999 149.05L8.95 148.85L8.75 148.65L8.64999 148.45L8.54999 148.35L8.34999 148.05L8.25 147.85L7.95 147.45L7.75 147.15L7.34999 146.65L7.14999 146.35L6.95 146.05L6.84999 145.95L6.64999 145.75V145.55L6.54999 145.45H6.45V145.35L6.25 144.95V144.85L6.04999 144.65V144.55L5.95 144.45V144.35L6.04999 144.15V144.05L6.14999 143.85L6.25 143.45V143.35V143.25L6.34999 143.05V142.95V142.75H6.45V142.65V142.55V142.35V142.25V142.15L6.34999 142.05V141.95H6.25V141.85H6.14999V141.75V141.65L6.34999 141.35L6.64999 141.25V141.05L6.75 140.95V140.85L6.84999 140.75V140.65V140.55L6.54999 140.25L6.45 140.15L6.34999 140.05L6.14999 139.95L6.04999 139.85L5.84999 139.65L5.64999 139.55H5.54999L5.45 139.45L5.34999 139.35H5.25L5.14999 139.25H5.04999V139.15H4.95L4.84999 139.05L4.75 138.95L4.64999 138.85H4.54999V138.75V138.65L4.45 138.55V138.45V138.35H4.34999V138.25V138.15H4.45V138.05V137.95V137.85V137.75V137.65V137.55L4.54999 137.35V137.15H4.75H5.25V137.05L5.14999 136.95L5.25 136.75H5.04999V136.55L4.95 136.45L5.04999 136.35L5.14999 136.15H5.25L5.45 135.75L5.54999 135.45V135.35V135.25L5.64999 135.15H5.84999L6.04999 135.25H6.45L6.34999 135.05V134.95V134.85H6.25V134.75V134.65V134.45V134.35V134.25V134.05L6.34999 133.75V133.55V133.45V133.35V133.25V133.15V133.05V132.95V132.85V132.75L6.14999 132.65L5.95 132.55L5.45 132.25L5.14999 132.15L5.04999 132.05H4.95L4.84999 131.95H4.75H4.64999H4.54999H4.45L4.34999 131.85H4.25H4.14999H4.04999V131.95H3.84999L3.64999 132.05L3.45 132.15H3.25L3.14999 132.25L2.84999 132.35L2.75 132.45L2.54999 132.55H2.45H2.34999L2.04999 132.45H1.95H1.84999L1.75 132.35V132.15L1.64999 131.55H1.45H1.14999V131.25L1.04999 131.05L1.45 131.15V130.65L1.54999 130.75V130.15H1.75L1.95 130.25H2.14999H2.45H2.54999L2.64999 130.15V130.05V129.85L2.54999 129.65L3.14999 129.35L3.34999 129.25L3.45 129.15L3.75 129.05L4.04999 128.85L4.25 128.75L4.34999 128.65H4.45L4.34999 128.55L4.14999 128.25L3.95 128.05L3.84999 127.95V127.85H3.75L3.64999 127.75H3.54999L3.45 127.65H3.34999V127.55L3.54999 127.25L3.64999 127.05V126.95L3.54999 126.75L3.45 126.55V126.45L3.34999 126.35L3.25 126.25L3.34999 126.15L3.45 125.95L3.14999 125.65H3.25V125.55H3.34999H3.45V125.45L3.54999 125.55H3.64999H3.75V125.45H3.84999H3.95V125.35H4.04999H4.14999V125.25L4.04999 125.15H4.14999H4.25V125.05V124.95L4.14999 124.85H4.25H4.34999H4.45H4.54999V124.95V125.05H4.64999H4.75V125.15V125.25V125.35V125.45V125.55H4.84999V125.65H4.95V125.75V125.85H5.04999V125.95H5.14999L5.04999 126.05V126.15V126.25H5.14999H5.25V126.15V126.05H5.34999M5.34999 126.05V126.15M5.34999 126.05H5.45M5.45 126.05V125.95M5.45 126.05V126.15H5.54999V126.05H5.64999H5.75V126.15H5.84999V126.05H5.95H6.04999M6.04999 126.05V126.15M6.04999 126.05V125.95H6.14999V125.85V125.75H6.25M6.25 125.75V125.85H6.34999V125.75M6.25 125.75H6.34999M6.25 125.75V125.65L6.34999 125.55V125.45H6.45V125.35M6.34999 125.75H6.45M6.45 125.35H6.34999V125.25H6.45V125.35ZM6.45 125.35H6.54999V125.25V125.15V125.05V124.95V124.85H6.45L6.54999 124.75H6.64999V124.65H6.54999L6.45 124.75H6.34999V124.65V124.55H6.45V124.45H6.34999V124.35M6.34999 124.35H6.45V124.25H6.34999M6.34999 124.35V124.25M6.34999 124.25H6.25M6.25 124.25V124.35M6.25 124.25V124.15V124.05V123.95L6.14999 123.85H6.04999V123.75H5.95H5.84999V123.65H5.75L5.64999 123.55H5.54999H5.45H5.34999H5.25H5.14999V123.65H5.04999V123.75L4.95 123.85V123.75V123.65H4.84999V123.75H4.75V123.65H4.64999V123.55H4.54999V123.45V123.35V123.25V123.15H4.64999H4.75V123.05H4.64999V122.95V122.85V122.75V122.65M4.64999 122.65H4.54999M4.64999 122.65V122.55V122.45H4.54999V122.35V122.25H4.45V122.15H4.54999V122.05H4.45V121.95L4.54999 121.85H4.45V121.75H4.34999H4.25L4.14999 121.65V121.55H4.04999V121.45H3.95V121.35H4.04999V121.25H3.95V121.15H4.04999V121.05H3.95L4.04999 120.95H3.95H3.84999H3.75V121.05H3.64999H3.54999V120.95H3.45V121.05H3.34999V120.95H3.25M3.25 120.95V121.05M3.25 120.95H3.14999V121.05H3.04999V120.95V120.85V120.75V120.65H2.95V120.55M2.95 120.55H2.84999M2.95 120.55V120.45V120.35V120.25H3.04999H3.14999V120.15V120.05V119.95H3.25L3.34999 120.05M3.34999 120.05V120.15M3.34999 120.05V119.95H3.45V119.85L3.54999 119.75V119.65H3.64999V119.55V119.45L3.54999 119.05H3.14999H2.95L3.04999 118.95V118.85V118.75V118.65V118.55V118.45V118.35L2.95 118.45H2.84999H2.75H2.64999H2.54999H2.45H2.34999V118.35H2.25H2.14999L2.04999 118.25L1.84999 118.15L1.75 118.05H1.64999L1.34999 117.95L1.25 117.85H1.14999H1.04999H0.949997V117.75H0.849991H0.75V117.65H0.649994L0.549988 117.55L0.449997 117.45L0.349991 117.35L0.25 117.25H0.349991H0.449997H0.549988H0.649994V117.35H0.75L0.849991 117.45H0.949997L1.04999 117.55H1.14999V117.65H1.25L1.34999 117.55H1.45H1.64999H1.75H1.84999H1.95L2.14999 117.65H2.25L2.45 117.75H2.54999H2.64999L2.75 117.85H2.84999H2.95V117.75V117.65L3.04999 117.55L3.14999 117.65H3.25H3.34999V117.75V117.85H3.45L3.54999 117.95L3.64999 117.85V117.75V117.65V117.55L3.75 117.45V117.25L3.84999 117.05V116.95V116.85L3.95 116.75L4.04999 116.65V116.45V116.35V116.05V115.95V115.65L4.14999 115.45V115.35L4.25 115.25L4.14999 115.15V115.05H4.04999V114.95V114.85V114.75V114.65H3.95V114.55H3.84999L3.75 114.45V114.25V114.15H3.64999V114.05L3.54999 113.95L3.45 113.85L3.34999 113.65H3.25V113.55H3.14999H3.04999L2.95 113.45H2.84999L2.75 113.35H2.64999L2.54999 113.25H2.45L2.34999 113.15H2.25V113.05H2.14999V112.95V112.85V112.75V112.65L1.95 112.35L2.04999 112.25V112.15H2.14999V112.05V111.85L2.25 111.75V111.65V111.45V111.05H2.34999V111.15L2.45 111.25H2.54999V111.35H2.75V111.45H2.84999H2.95H3.04999H3.25H3.34999L3.54999 111.55H3.64999H3.75L3.95 111.45H4.14999L4.34999 111.35H4.45H4.54999H4.64999H4.84999H4.95L5.04999 111.25H5.14999H5.34999H5.54999H5.64999V111.35L5.54999 111.45V111.55V111.65V111.75V111.85H5.64999L5.75 111.95H5.84999H5.95H6.04999H6.25H6.34999L6.54999 112.05H6.84999H7.04999H7.34999H7.45H7.54999H7.64999H7.84999V112.15H7.95H8.04999L8.14999 112.25H8.25L8.34999 112.35H8.45L8.34999 112.65H8.45H8.54999H8.64999H8.95V112.75L9.04999 112.65H9.34999H9.45H9.54999H9.64999H9.75V112.55H9.84999V112.45H9.95H10.05L10.15 112.35H10.25H10.35H10.45L10.55 112.25H10.65H10.75H10.95H11.05H11.15L11.25 112.15V112.05V111.95H11.35V111.85H11.45V111.75H11.55V111.65H11.65H11.75V111.55V111.45V110.75H11.85H11.95L12.05 110.45L12.15 110.05L12.25 109.85V109.65L12.15 109.25V108.95V108.85V108.65L11.75 108.75L11.45 108.85L11.15 108.95V108.85L11.35 108.15V107.95V107.85V107.65L11.45 107.55V107.35L11.35 107.15V107.05H11.25H11.15V106.95V106.85V106.75V106.65L11.25 106.55H11.15L10.75 106.35V106.25V105.85V105.45V104.95H10.95H11.15H11.25H11.35H11.45H11.55H11.65L11.75 105.05L11.85 105.15V105.25L11.95 105.35V105.45L12.05 105.55L12.15 105.65L12.25 105.75L12.35 105.95L12.45 106.25L12.55 106.35H12.75H12.85H12.95H13.05L13.15 106.25H13.25H13.45H13.65V106.35V106.45V106.55H13.75H13.85H14.15H14.25L14.35 106.65L14.65 106.55H14.75V106.45H15.35V106.55V106.65H15.45H15.55H15.65H15.75V106.75H15.85M15.85 106.75V106.85H15.75V106.95M15.85 106.75H15.95H16.05H16.15V106.65H16.25V106.55H16.35L16.45 106.45V106.35L16.35 106.25H16.25V106.15H16.15V106.05H16.05H15.95H15.85V106.15H15.75H15.65V106.05V105.95H15.55L15.45 105.85L15.35 105.75V105.65V105.55H15.45V105.45H15.35V105.35V105.25V105.15V105.05H15.45M15.45 105.05H15.55M15.45 105.05V104.95L15.35 104.85H15.25H15.15H15.05L15.15 104.75V104.65H14.95H14.85H14.75L14.65 104.55L14.35 104.35V104.25H14.25V104.15V104.05L14.35 103.95H14.25H14.15V104.05H14.05V104.15V104.25H13.95V104.15H13.85H13.75V104.05V103.95V103.85H13.85V103.75H13.75V103.65V103.55V103.45H13.85H13.95V103.55V103.65H14.05M14.05 103.65V103.75M14.05 103.65V103.55V103.45H14.15V103.35H14.25V103.25H14.35V103.15H14.45H14.55H14.65V103.05H14.75H14.85V103.15H14.75V103.25H14.85H14.95H15.05H15.15V103.15H15.25V103.05L15.35 102.95H15.45V102.85L15.55 102.75V102.65V102.55V102.45V102.35H15.45V102.25V102.15H15.55V102.25L15.65 102.15V102.05H15.55V101.95H15.65V101.85L15.55 101.75V101.65V101.55V101.45V101.35V101.25H15.45V101.15L15.35 101.05L15.25 100.95V100.85H15.15H15.05H14.95V100.75H15.05L15.15 100.65V100.55L15.25 100.45L15.45 100.25V100.35V100.45H15.55V100.55H15.65V100.65V100.75H15.75V100.85V100.95H15.85L15.75 101.05H15.85V101.15H15.95V101.25V101.35H16.05V101.45V101.55H16.15V101.65H16.25H16.35V101.75H16.45V101.85H16.55V101.95L16.65 101.85H16.75V101.95H16.85H16.95V102.05H17.05H17.15H17.25H17.35H17.45H17.55H17.65H17.75H17.85V102.15H17.95V102.25L18.05 102.15H18.15H18.25L18.35 102.25H18.45L18.55 102.35H18.65H18.75H18.85H18.95H19.05L19.15 102.15L19.45 101.85L19.15 101.45L19.35 101.25L19.45 101.15L19.65 100.95H19.75V101.05L19.85 101.15V101.25H19.95V101.35V101.45V101.55H20.05H20.15L20.55 101.35H20.65L20.85 101.25L21.45 101.05L21.35 100.95L21.55 100.85L21.65 100.75L21.85 100.65H22.05H22.25H22.35H22.45V100.55H22.55H22.65H22.75H22.85L23.05 100.45L23.25 100.35L23.45 100.25L23.75 100.15L23.95 100.05L24.35 99.85L24.45 100.05L24.55 99.95H24.65H24.75V99.85H24.85V99.75H24.95V99.65H25.05V99.55H25.15V99.45H25.25V99.35H25.35H25.45H25.55H25.65H25.75H25.85L25.95 99.45L26.05 99.55V99.65H26.15V99.75H26.25H26.35V99.45L26.25 99.35V99.25V99.15V99.05V98.95V98.75V98.65V98.55L26.15 98.45V98.35V98.25H26.25V98.15H26.35H26.45V98.05H26.55H26.65H26.75H26.85L26.95 98.15H27.05H27.15H27.25H27.35L27.45 98.25H27.55H27.65H27.75L28.15 98.15H28.25H28.35L28.75 98.05L29.15 97.95L29.45 97.85L29.85 97.75H30.05L30.35 97.65L30.65 97.55L31.05 97.45V97.75L31.15 98.45L31.25 98.75V98.95V99.05H31.15H31.05L31.15 99.15V99.25L31.25 99.35H31.35H31.45L31.55 99.45V99.55L31.65 99.65V99.75V99.85V99.95H31.75V100.05H31.85V100.15L31.95 100.25L32.05 100.35L32.15 100.45V100.55H32.25H32.35V100.65L32.45 100.75H32.35V100.85H32.25H32.15V100.95H32.05L31.95 101.05H31.85H31.75V101.25V101.35V101.45V101.55V101.65H31.85H31.95H32.15H32.25H32.35H32.45H32.55H32.65H32.75L32.85 101.75H32.95H33.05H33.15L33.35 101.85H33.45L33.55 101.75L33.65 101.65H33.75H33.85H33.95L34.05 101.55H34.15H34.25H34.45V101.45H34.55H34.65V101.35L35.05 101.25L35.35 101.55L35.65 101.85H36.15L36.05 101.95V102.05V102.15L36.15 102.35L36.25 102.55L36.35 102.75V102.85L36.45 102.95L36.55 103.05V103.15L36.65 103.25L36.75 103.45V103.65L36.85 103.75L36.95 103.85V104.05L37.05 104.15V104.25H37.15V104.35V104.45L37.25 104.65L37.35 104.75V104.85L37.25 105.15H37.35V105.25V105.35H37.45V105.45H37.55V105.55L37.65 105.65V105.75H37.75H37.85L37.95 105.65L38.15 105.45L38.35 105.15L38.45 105.05L38.55 104.85L38.45 104.75L38.35 104.65L38.25 104.55L38.05 104.45V104.35H37.95V104.25L37.85 104.15L37.75 104.05H37.65V103.85L37.55 103.65L37.65 103.45L37.75 103.35L37.85 103.25L37.95 103.05L38.15 102.85L38.25 102.75L38.35 102.65L38.45 102.55L38.55 102.45L38.65 102.25L38.85 101.95L38.95 101.85V101.75V101.65V101.55L39.05 101.45V101.35V101.25H39.15L39.25 101.15L39.35 100.95L39.45 100.85H39.55V100.75L39.65 100.65L39.75 100.55V100.45H39.85V100.35H39.95V100.25V100.15V100.05V99.95V99.85V99.75V99.65V99.55H40.05V99.45V99.35H40.15V99.25V99.05H40.25V98.95V98.85H40.35V98.75V98.65H40.25V98.55V98.35L40.35 98.25L40.25 98.15V98.05H40.15V97.85L40.25 97.75V97.65V97.45L40.15 97.35V97.25V97.05L40.05 96.85V96.75V96.65V96.55V96.45L39.95 96.35H40.05V96.25V96.15V96.05V95.95V95.85L40.25 95.15L40.35 95.05H40.45V94.95L40.55 94.75V94.65H40.65V94.55V94.45L40.75 94.35V94.25V93.95V93.65V93.45V93.15V92.95V92.85V92.75V92.55V92.45H40.85L40.95 92.15V91.95V91.85V91.55V91.45V91.35L41.05 91.25V91.15L41.35 90.55L41.55 90.35L41.85 90.15V89.85L41.75 89.45V89.05V88.95H41.85V88.85H41.95H42.05V88.95V89.05H42.15H42.25M42.25 89.05V89.15M42.25 89.05H42.35H42.45V88.95H42.55V88.85H42.65V88.95H42.75H42.85V89.05H42.95H43.05V88.95H43.15V89.05H43.25H43.35H43.45H43.55L43.65 89.15H43.55V89.25H43.65H43.75L43.85 89.35V89.25H43.95V89.15H44.05V89.05H44.15L44.25 89.15V89.25V89.35V89.45H44.35V89.55H44.45V89.45H44.55V89.35H44.65H44.75H44.85H44.95H45.05V89.45H45.15V89.55V89.65H45.25V89.75H45.35H45.45V89.65H45.55H45.65V89.55H45.75M45.75 89.55V89.65M45.75 89.55H45.85H45.95H46.05L46.15 89.65H46.05L46.15 89.75L46.25 89.85H46.45L46.65 89.75H46.75V89.65H46.85V89.55H46.95L47.05 89.65V89.55H47.15L47.25 89.65H47.35H47.45L47.55 89.75L47.65 89.65L47.75 89.55V89.45V89.35V89.15V89.05V88.85L47.85 88.75V88.65L47.95 88.75V88.55H47.85V88.45L47.95 88.35V88.25V88.15L48.05 88.25V88.15H48.25H48.35H48.45V88.05H48.35V87.95V87.85V87.75V87.65V87.55V87.45V87.35L48.05 87.25L48.15 87.15L48.05 87.05H47.95L47.75 86.75L47.55 86.65L47.45 86.55L47.35 86.45L47.25 86.35V86.25L47.15 86.15H46.95H46.85L46.75 86.25V86.35L46.55 86.45H46.45L46.05 86.15V85.75L46.15 85.25V84.65L46.25 83.85L46.35 82.45L46.45 81.75L46.55 80.65L46.35 80.45L46.25 80.35L45.05 79.15L44.75 78.85H44.85L45.35 78.65H45.45L45.55 78.55H45.65H45.75H45.85H45.95H46.05L46.15 78.45V78.35H46.25H46.35L46.45 78.25H46.55H46.65L46.75 78.35H46.95H47.15H47.25H47.45H47.55V78.25H47.65L47.75 78.15H47.85H47.95V78.05H48.05H48.15V77.95H48.25H48.35V77.85H48.45H48.55L48.65 77.75H48.75H48.85V77.65H48.95H49.05H49.15V77.75H49.25H49.35H49.45L49.55 77.85H49.65L49.75 77.75H49.85L49.95 77.65H50.15L50.25 77.75H50.35H50.45H50.55L50.65 77.65V77.55V77.15L50.55 76.95V76.85L50.45 76.25V76.15L50.55 75.75L50.65 75.45H50.75V75.25L50.95 75.05H51.35H51.55H51.85V74.75L51.75 74.65V74.35L51.65 73.85L51.45 73.35L51.35 72.55L51.25 72.35V72.25V72.05L51.15 71.95V71.75L51.05 71.35L50.75 71.15L50.15 70.75L49.55 70.25L49.05 69.95L48.65 69.65L48.15 69.35L47.55 68.95L47.35 68.75L47.05 68.85L46.75 68.95L46.55 69.05L46.35 69.15H46.25H46.15H46.05H45.95H45.85H45.75H45.65L45.55 69.25H45.45L45.35 69.15H45.25H45.15L45.05 69.05H44.85H44.75L44.65 68.95H44.45L44.15 68.85L43.85 68.75H43.75H43.65L43.55 68.65V68.55L43.65 68.65L43.75 68.45V68.35V68.25V68.15V68.05H43.65V67.95V67.85H43.75H43.85V67.75L43.95 67.65V67.15V67.05L43.85 66.95L43.75 66.85L43.65 66.75L43.55 66.55L43.45 66.45H43.35V66.35V66.25L43.55 65.85H43.65L43.85 65.75V65.65L44.45 65.35H44.55H44.75H44.95H45.05L45.35 65.55H45.45H45.95H46.15V65.05V64.25H46.35H46.45L46.85 64.15L46.95 64.55V64.65V64.75L47.05 64.95L47.35 64.85L47.65 64.75L47.75 64.65H47.85L47.95 64.55L48.05 64.45H48.15H48.25L48.35 64.35H48.45L48.55 64.25H48.65L48.75 64.05H48.85H49.05L49.45 63.95L49.55 63.85L49.75 63.65L49.85 63.55V63.45L49.95 63.25V63.15V63.05L50.05 62.95V62.75L49.95 62.65L49.85 62.55H49.75V62.45V62.35L49.65 62.25L49.55 62.15V62.05V61.95H49.45V61.85V61.75V61.65H49.35V61.55H49.45H49.55V61.45V61.35H49.65H49.75L49.85 61.25V61.15L49.75 61.05L49.65 60.95V60.85H49.55L49.45 60.75V60.65V60.55H49.35L49.15 60.25L48.95 60.05L48.65 59.75L48.45 59.45L48.35 59.35L48.05 59.05L47.85 58.85L47.65 58.65L47.35 58.35L47.15 58.15L46.95 57.95L46.75 57.65L46.45 57.35L46.25 57.15H46.15L45.65 57.05L45.15 56.95H45.05L44.45 56.85H44.15H44.05L43.85 56.75H43.75V56.65V56.55V56.45H43.65V56.35V56.25H43.75V56.15V56.05H43.65L43.75 55.95L43.85 55.85H43.75V55.75M43.75 55.75H43.65M43.75 55.75V55.65V55.55H43.85V55.45V55.35V55.25H43.75H43.65H43.55V55.15L43.45 55.05V54.95L43.35 54.85V54.75V54.65L43.25 54.75V54.85H43.15V54.75V54.65H43.05V54.55V54.45V54.35M43.05 54.35L42.95 54.25H43.05V54.35ZM43.05 54.35H43.15H43.25V54.25H43.35V54.15H43.25H43.15V54.05H43.05V53.95H43.15H43.25V53.85V53.75H43.15V53.65H43.05V53.75H42.95V53.65L43.05 53.55H43.15L43.25 53.65V53.55M43.25 53.55H43.35M43.25 53.55V53.45H43.15L43.05 53.35H43.15V53.25M43.15 53.25H43.25L43.35 53.15V53.05H43.25V53.15H43.15V53.25ZM43.15 53.25H43.05V53.15H42.95V53.05H42.85M42.85 53.05V52.95M42.85 53.05H42.75V52.95H42.65H42.55V52.85V52.75H42.45V52.65H42.35V52.55V52.45M42.35 52.45H42.45M42.35 52.45V52.35H42.45V52.45M42.35 52.45H42.25V52.35V52.25H42.15H42.05H41.95H41.85M42.45 52.45V52.55M41.85 52.25V52.15M41.85 52.25H41.75V52.15L41.65 52.05L41.55 51.95V51.85H41.45L41.35 52.05L41.25 51.95H41.15L41.25 51.75V51.65L41.35 51.55V51.35V51.25H41.25H41.05L40.85 51.45H40.75V51.35L40.85 51.25H40.75H40.65V51.15H40.75H40.85V51.05H40.75V50.95H40.85V50.85H40.75L40.65 50.95H40.55H40.15V50.85L40.25 50.55L40.35 50.45V50.35V50.25H40.25V50.15H40.15V50.05L40.05 50.15V50.05H39.95H39.85V49.95V49.85H39.75V49.95V50.05H39.65H39.55V49.95H39.65V49.85H39.55H39.45V49.75H39.35M39.35 49.75V49.85H39.25V49.75H39.35ZM39.35 49.75V49.65H39.25H39.15V49.75L38.95 49.85L38.85 49.75L38.75 49.65L38.55 49.55V49.45V49.35L38.65 49.15V49.05V48.95V48.85H38.55V48.95H38.45L38.35 48.85V48.75H38.45V48.65H38.35V48.55H38.25V48.65H38.15V48.55H38.05H37.95L37.85 47.95L37.55 47.85V47.75H37.45V47.65V47.55H37.55V47.45V47.35V47.25H37.65V47.35H37.75V47.25L37.95 46.85L37.85 46.75L37.95 46.65L38.05 46.45V46.35H38.15V46.25V46.15H38.05H37.95H37.85V46.05H37.75V45.95H37.85V45.85V45.75V45.65V45.55H37.95L38.05 45.45L38.15 45.55V45.45H38.25V45.35M38.25 45.35H38.15M38.25 45.35V45.25M38.25 45.35H38.35V45.45H38.45V45.35V45.25H38.55V45.15L38.45 45.05L38.35 44.95L38.25 44.75L38.15 44.55L38.05 44.45V44.35L37.95 44.25L37.65 44.55L37.15 44.95L36.75 45.25L36.45 45.15H36.35L35.85 44.95L35.45 45.35L34.35 44.85L34.15 44.75V44.35V44.25L34.25 43.75L34.35 43.25H33.95H32.55L32.65 43.55L32.55 43.75L32.45 43.85L32.25 44.15L32.55 44.45V44.85H32.35H32.25V44.75H32.15H32.05H31.95V44.65L31.55 44.85V45.05L31.35 45.15L31.15 44.65L31.35 44.55H31.45H31.55L31.35 44.35H31.45L31.55 44.25V44.15V43.95L31.45 43.75L30.85 43.95V43.75L30.75 43.55V42.85L30.35 42.35L29.75 42.05L29.25 42.25L29.05 41.75L28.65 41.85L28.55 41.75L28.45 41.05L28.25 40.55L28.15 40.15L28.65 39.65L28.45 37.55L28.35 36.85V36.75H28.25L28.15 36.85H27.95L27.35 36.95H27.15L27.25 36.55L27.45 35.65H27.25H26.85H26.75H26.45L26.85 34.55L26.05 34.75L25.35 34.85L24.05 35.05L23.85 34.05L25.45 33.55L25.85 33.35H26.05V33.25L26.15 33.15V33.05V32.85L26.05 32.75H25.95L25.75 32.55L25.45 32.45L25.35 32.35L25.05 32.15L24.75 32.05L24.55 31.95L24.95 30.75L25.05 30.65L25.25 30.45L25.45 30.25H25.55V30.15H25.65H25.75H25.85H25.95L26.05 30.05L26.15 29.75L26.25 29.15L26.35 28.65L26.45 28.45H26.35L25.95 27.85L25.65 27.55H25.55L25.45 27.45V26.95L25.35 26.55L24.85 26.65L24.45 26.75L24.35 26.25L24.15 25.65L24.05 25.05L23.35 25.45L23.45 25.65L22.85 25.85L22.95 25.35V24.45L24.65 24.35V24.85L25.15 25.05L25.25 24.65L25.35 24.45L25.65 23.65L25.75 23.45L26.15 23.55L26.75 23.65L26.85 23.35V23.25L26.95 23.15L27.05 22.95V22.85H27.15V22.75L27.25 22.65V22.55V22.45V22.35V22.25H27.35V22.15H27.45V22.05L27.65 21.75V21.65V21.55V21.45V21.35H27.55V21.25V21.15H27.65H27.75V21.05H27.85H27.95H28.05V20.95V20.85H28.15V20.75V20.65L28.25 20.55V20.45H28.35V20.35H28.25V20.25V20.15V20.05H28.15V19.95V19.85V19.75H28.25H28.35V19.65H28.45H28.55V19.55H28.65V19.45H28.75V19.35V19.25V19.15H28.85V19.05V18.95V18.85M28.85 18.85H28.75M28.85 18.85V18.75V18.65V18.55V18.45V18.35L28.75 18.25L28.85 18.15V18.05L28.95 17.95L29.25 17.65L29.45 17.45L29.55 17.25H29.65V17.15V16.95L29.55 16.85V16.65L29.45 16.55V16.45M29.45 16.45H29.35M29.45 16.45V16.35H29.55V16.25L29.65 16.15L29.75 16.05V15.95V15.85H29.85V15.75L29.95 15.65H30.05V15.55V15.45V15.25L30.15 14.95L30.35 14.35H30.45L30.35 14.15L30.25 13.95L30.15 13.75L30.05 13.65L29.95 13.35L29.85 13.05H29.75V13.15L29.55 13.25L29.35 13.55V13.65H29.25H29.15H29.05V13.55H28.95V13.45H28.75H28.85V13.05L28.95 12.75L29.05 12.25L29.25 12.15V11.95L29.05 11.65H28.85H28.75L28.65 11.25V11.15L27.85 10.45V10.35H27.95V10.25H27.85V10.15H27.95H28.05M28.05 10.15V10.25M28.05 10.15H28.15V10.05V9.95H28.05V9.85V9.75V9.65H28.15V9.55H28.25H28.35H28.45V9.45V9.35H28.55H28.65V9.45H28.75V9.35V9.25H28.85V9.15H28.75M28.75 9.15H28.65M28.75 9.15V9.05V8.95L28.85 8.85V8.75H28.75V8.65V8.55V8.45M28.75 8.45V8.35M28.75 8.45H28.65H28.55V8.35V8.25H28.45V8.15V8.05H28.35V7.95V7.85V7.75H28.25V7.65L28.35 7.55V7.35V7.25H28.25V7.15L28.35 7.05V6.85V6.75L28.45 6.55L28.55 6.45L28.65 6.35L28.75 6.15L28.85 5.85L29.05 5.65H29.15V5.55H29.25V5.45V5.35V5.05L29.65 4.85L29.85 4.75L29.95 4.65L30.15 4.45L30.25 4.35H30.35H30.45H30.55H30.65V4.25H30.75L31.65 2.95L31.25 2.85L30.75 2.65H30.65L30.55 2.55H30.35V2.45H30.25H30.15V2.35L29.65 2.45H29.35H29.25H28.65H28.35H27.95H27.85H27.75H27.65V2.35L27.55 2.25L27.45 2.15L27.35 2.05H27.25L26.95 1.75L26.65 1.55L26.25 1.35H26.15L26.05 1.25L26.15 1.05H26.05L30.15 1.15H30.45L34.75 0.25L35.25 0.349998L45.55 2.35L49.05 2.15L50.55 2.55L53.75 5.45L55.35 6.15L66.45 6.55V6.65V7.05V7.35V7.45V7.75V8.05V8.25L66.65 8.15H66.85H67.05H67.25H67.45H67.55L67.45 8.25L67.65 9.05L68.25 9.95L68.95 10.25L70.15 10.35V10.55V10.75H70.25H70.35L71.95 10.85L74.05 11.05L74.45 10.45L80.05 10.65L84.55 12.65L84.95 12.85H85.05L87.55 13.95L89.55 14.85L92.95 15.45L93.15 15.35L93.45 15.45L93.65 15.65L94.15 15.85L94.25 15.95H94.35V15.85L94.75 15.55L95.05 15.05L95.25 14.85L95.55 14.55V14.45L97.95 13.65L102.45 13.85L104.55 14.25L105.85 15.05L106.15 16.35L106.05 18.05V20.25L106.45 21.85L107.15 22.55L108.15 22.65L109.45 22.55L110.65 22.85V23.15V23.25L110.55 23.35L110.45 23.55L109.85 24.35L109.45 24.95L109.25 25.35L109.35 25.65L109.45 26.05V26.15V26.25L109.25 26.45L109.15 26.75L109.05 26.85H109.45H109.85L109.75 27.45L110.35 28.05L111.45 27.95L113.55 27.25L116.45 27.75H117.55L118.65 27.15L119.85 25.85V26.15L120.25 26.35L120.55 26.55L120.65 26.45L120.85 26.25L120.95 26.15L121.25 25.85L121.45 26.05L121.55 26.15V26.25H121.45V26.35H121.35V26.45V26.55V26.65H121.25M121.25 26.65H121.15" stroke="white" stroke-width="0.5" stroke-linecap="round" stroke-linejoin="round"/>
</svg>
