<svg width="140" height="182" viewBox="0 0 140 182" fill="none" xmlns="http://www.w3.org/2000/svg">
<path d="M138.95 163.15V163.25L138.75 163.85H138.45V163.95V164.15H138.25V164.25L138.05 164.45V164.55H137.55H137.35V164.75L137.25 165.15L137.15 165.65H137.05H136.85V165.85L136.15 165.55V165.45L135.85 165.25H135.75L135.65 165.15L135.55 165.05L135.65 164.85L135.75 164.75L135.85 164.65H135.75L135.35 164.55H135.15H134.95H134.85L134.75 164.45H134.65L134.35 164.35H134.25L134.15 164.25L133.95 164.15L133.85 164.35L133.65 164.55L133.35 164.75L132.95 165.05H132.65L132.45 164.95H132.35H132.25H132.15L131.45 165.05L130.75 165.15L130.35 165.25H130.25H130.05L130.45 165.75L130.95 166.35L131.05 166.45V166.55L130.95 166.75H130.85L130.75 166.95V167.05L130.85 167.15L130.75 167.25L130.65 167.05L130.55 167.25L130.45 167.45L130.15 167.15L129.45 166.65V166.75H129.35L129.25 166.95L129.15 167.05L129.05 167.25L128.65 166.95L128.25 166.65L127.75 166.25L127.25 165.95L127.15 165.85L127.25 165.45L126.25 165.35L126.15 165.25L126.05 164.95V164.85L125.45 163.95L125.35 163.85V163.95H125.25V164.05V164.15L125.15 164.25H125.05V164.35H124.95V164.45V164.55L124.85 164.65V164.75H124.75V164.85V164.95H124.55V165.05L124.05 165.15L123.15 165.05L123.25 165.75L123.35 166.05L123.45 166.15V166.45L123.35 167.05L122.65 166.55L122.45 166.45L121.85 166.05L121.75 165.95L121.65 165.85L121.55 165.75H121.45V165.65H121.35L121.25 165.55L120.65 165.15L120.15 165.55L120.25 165.75L120.15 165.85L120.05 165.95L119.65 166.55L118.95 167.45L119.25 167.65L120.45 168.35L120.75 168.45L120.65 168.65V168.75L120.15 168.85L119.95 168.95L119.45 169.35L119.15 169.55L118.15 169.45H118.05L117.45 169.35V169.45V169.55L117.35 169.65H117.25V169.75L117.15 169.85V170.05L117.25 170.15V170.25V170.35V170.45V170.55V170.65V170.75V170.85H117.15V170.95V171.05V171.15V171.35V171.45V171.55H117.25V171.65H117.15V171.75H116.45L116.05 171.65L115.85 172.25H115.75L115.35 172.15L114.65 171.85L114.05 171.75L114.15 171.65V171.55L114.05 171.45L113.95 171.65L113.85 171.95V172.05V172.15L113.75 172.25L113.25 172.05L112.05 171.45L111.55 171.15L111.15 171.65L110.85 172.05L110.55 172.35L110.45 172.45L110.25 172.65L109.75 173.05L109.45 173.25L109.35 173.35L109.25 173.45H108.85H108.75V173.55H108.65H108.55H108.45L107.85 173.85L107.75 173.95L107.55 174.05L107.65 174.15L107.95 174.45L107.55 174.75L107.65 174.85V174.95L107.55 175.05V175.15V175.25L107.35 175.45H107.25L107.15 175.65L107.25 175.75L107.15 175.85L106.95 175.65L106.85 175.95L106.35 176.75L106.15 177.15L106.05 177.25L105.55 177.15L105.65 176.65V176.25V176.15V176.05H105.55L105.15 175.95L104.45 175.75L104.35 176.25H104.15L104.25 176.15V176.05H104.15V175.95V175.85H103.75H103.55H103.25L102.85 175.95L102.25 175.75H102.15L102.25 176.05L102.55 176.95L102.65 177.45L102.75 177.75L102.45 177.85L102.25 178.05L101.05 178.25L100.55 178.15L100.15 178.05L99.05 177.75L97.15 177.55L96.65 177.45L96.35 177.25L96.05 177.75L95.55 177.95L95.35 177.75H95.25L95.15 177.65H95.05H94.25H93.85L93.95 178.05L93.05 178.15L92.55 178.45L92.25 178.65L92.15 178.75H92.05L91.55 178.85H91.45H91.35H91.25H90.95L91.15 178.55L91.25 178.35L91.35 178.25L91.45 178.15V178.05H91.35L91.45 177.85L91.25 177.75H91.15L90.65 177.65L90.25 177.85H90.15L90.05 177.95V178.05L89.95 178.15V178.25V178.35H89.75H89.55L89.25 178.25L89.15 178.35L89.05 178.45H88.95L88.85 178.55V178.65V178.75L88.95 179.45H89.05V179.55V179.65V179.85H88.75V180.45L88.85 180.55V180.65L88.95 180.75H88.85V180.85H88.75L88.85 180.95V181.05H88.75V181.15V181.25H88.85V181.35V181.45V181.55H88.75V181.45L88.65 181.55H88.55L88.45 181.65H88.35L88.25 181.55H88.15H88.05H87.75V181.35L87.85 181.25V181.15L87.75 181.05V180.95H87.65V180.75V180.65V180.55V180.35V180.25H87.75V180.15H87.85V180.05L87.95 179.95L87.75 179.75L87.55 179.85H87.65V179.95V180.05L87.55 180.15H87.45V180.25L87.35 180.35V180.45V180.55V180.65L87.25 180.75L87.35 180.85L87.25 180.95V181.05L87.05 181.15V181.25L86.95 181.35L87.05 181.45H87.25L87.15 181.55H86.95H86.85H86.75L86.65 181.45L86.75 181.25H86.65L86.55 181.15L86.45 181.35L86.35 181.45L86.15 181.35L86.05 181.25H85.95H85.85L85.75 181.35L85.65 181.45H85.55H85.45L85.35 181.35L85.25 181.25L85.15 181.15L85.05 181.05V180.95H84.95H84.85H84.75H84.65H84.55V180.85H84.45H84.35V180.75L84.25 180.65L84.15 180.75L83.95 180.65H83.85H83.75V180.55H83.65V180.45H83.75L83.55 180.35V180.25L83.35 180.15H83.25L83.15 180.25L83.05 180.15H82.95H82.85V180.35V180.45H82.75V180.55H82.65V180.65V180.75H82.55H82.45V180.65L82.35 180.55V180.45L82.05 180.35L81.35 179.85H81.15V179.65V179.15H80.75V178.05L80.15 178.15L80.25 177.75L80.55 176.75H80.15L79.95 176.35L80.05 176.25L80.15 176.05L80.55 175.45L80.95 174.85L81.55 174.05H81.85L81.95 173.75L82.35 172.55L82.45 172.45L82.35 172.35L81.95 171.65L81.85 171.75L81.75 171.85H81.85L81.95 171.95V172.15L81.85 172.25L81.65 171.85L81.55 171.45V171.25L81.45 171.15V171.05L81.55 170.95L81.45 170.85H81.35L81.25 170.95H81.15H81.05V170.85V170.75H80.85H80.75H80.55L80.45 170.65V170.55L80.35 170.65H80.25V170.75V170.85H80.35H80.45L80.55 171.05V171.15L80.35 171.25V171.35H80.25H80.15V171.15L79.95 171.05H79.85L79.75 170.95L79.55 170.75L79.45 170.55V170.35V170.15H79.65L79.75 170.35V170.15H79.85H79.95V170.05H79.85L79.75 169.95V169.85L79.95 169.65L79.85 169.55V169.45L79.75 169.25L79.55 169.05V168.95V168.85V168.75L79.45 168.65V168.55L79.65 168.35L79.85 168.15H79.75L79.25 167.85H79.15L77.35 167.55H77.05L76.75 167.75L76.45 167.55V167.45L75.85 167.05L74.45 165.75L73.75 165.15L73.95 164.65L74.25 164.15L74.35 163.85L74.25 163.65L73.35 163.05L72.95 162.65V162.15L72.65 161.95L73.35 161.35H73.25L73.05 161.25L72.45 160.95V160.85V160.75L72.35 160.65L72.25 160.55V160.45L72.15 160.55H72.05L71.75 160.35L71.45 160.05L70.95 159.55L70.85 159.45H70.75H70.65L70.55 159.35L70.05 159.05L69.35 158.55L68.35 157.85L68.05 157.65L67.85 157.25L67.75 157.15L67.55 156.55L67.35 156.35V156.15H67.25H67.15H67.05H66.95L66.75 156.05L66.65 155.95V155.85L66.55 155.75L66.45 155.55L66.35 155.35L66.25 155.15V154.75V154.45L66.15 154.25V154.05V153.95L66.25 153.25L66.35 152.15L66.45 151.55L66.35 150.95L66.25 150.05L66.15 149.45V149.35V149.25H66.05V149.05L65.95 148.95H65.75L65.25 148.65L65.15 148.75L64.65 148.15L64.15 148.75L63.95 148.85H63.85L63.45 148.95H63.35L63.15 148.85H63.05L62.45 148.75L61.65 149.05L61.45 149.25L61.35 149.15L61.25 149.35H61.15L60.75 149.75L59.65 149.95V150.15V150.35L59.55 150.85V150.95V151.05V151.25V151.35L59.35 151.55L59.25 151.85V151.95L59.15 152.15V152.25H59.05V152.35H58.95L58.85 152.25L58.55 152.35L58.05 151.85L57.95 151.75H57.85H57.75L57.85 151.55H58.05V151.45L58.25 151.55L58.45 151.15L58.95 150.55L58.75 150.45L58.45 150.25H58.35V150.15H58.25V150.05H58.15H58.05L57.95 149.85L57.45 149.75L57.35 149.65H57.15V149.55H57.05H56.95H56.85L56.75 149.45V149.55H56.65H56.55V149.65H56.45V149.75L56.35 149.85V149.95H56.45L56.35 150.05L56.55 150.15L56.45 150.35L56.15 150.05L55.65 150.45H55.55H55.45H55.35H55.25L55.05 150.85H54.95L55.15 150.35V150.25L55.25 150.05H55.15V149.95L55.05 149.85H54.85L54.65 149.95L54.45 149.75V149.65L53.95 149.25L54.05 149.15L53.25 148.55L52.95 148.35L52.15 147.65L51.35 147.05L50.55 148.05L49.95 148.85L49.75 149.05L49.65 149.25L49.55 149.35L49.45 149.55L49.25 149.65L49.15 149.55L48.95 149.45L48.85 149.35V149.25H48.75V149.15V149.05L48.55 148.95H48.45V148.85H48.35V148.75V148.65L48.15 148.15L47.75 148.25L47.45 148.35V148.15L47.25 148.25L46.85 148.35L46.45 148.55L45.75 148.85L45.45 148.95V149.05L45.65 149.25H45.45L45.35 149.35L44.85 149.45L44.55 149.55L44.45 149.45V149.35L44.05 149.55L44.15 149.65V149.85L44.25 150.15H44.55H44.75L45.05 150.25L45.55 150.35L45.85 150.45V150.55L45.95 150.65H46.05V150.85V150.95L45.75 151.55L45.55 151.45L45.45 151.35L45.05 151.55L44.75 151.75H44.85L44.95 151.95L45.05 152.25H44.95L44.55 152.35L44.05 152.45L43.85 152.55H43.75H43.25H42.85V152.95V153.15L42.95 153.25V153.35V153.45V153.55H42.85V153.65H42.75V153.75V153.85H42.85L41.65 153.95L40.45 154.05H40.25L39.45 153.45H39.35V153.35H39.15L38.45 153.15L37.95 153.05L37.55 152.95L37.05 152.85L36.15 152.65L35.65 152.55L34.75 152.35L34.45 152.25L34.25 152.15H34.15V152.05L34.05 151.85L33.85 151.75L33.25 151.55H33.05L32.95 151.45H32.85H32.75H32.65L32.45 151.55L32.05 151.25H31.95L31.75 151.35L31.55 151.45V151.55L30.95 151.65H30.35V151.95L30.25 152.05H30.15V152.15L30.05 152.25H29.95L30.05 152.35H29.95H29.85V152.25L29.65 152.35H29.55H29.45L29.35 152.25L29.25 152.15H29.15L29.05 152.05V151.95V151.85H28.95V151.75H28.85V151.65H28.75V151.55V151.45L28.55 151.25V151.05H28.45L28.35 151.15L28.25 151.25V151.35H28.15V151.45H28.05V151.55V151.65V151.75V151.85L27.95 151.95H27.85V152.05V152.15H27.75L27.65 152.25L27.25 152.15L27.35 151.75L27.25 151.65V151.55H27.15L26.85 151.45L26.55 151.35L26.25 151.55L25.75 151.75L25.05 151.95L24.95 152.05L25.05 152.15V152.25H25.15V152.35V152.45L25.25 152.55V152.65L25.05 152.75L24.75 152.45H24.65L24.25 152.15L24.35 152.05V151.45H24.05V151.35L23.95 151.15V150.85H23.85H23.65L23.05 150.95H22.85H22.55H22.05V150.05V149.15H20.95H20.15H19.55H19.25V148.75L19.15 148.15H18.95L18.35 148.05L18.15 147.75L17.95 147.45L17.85 147.25L17.55 147.15H17.45L17.55 146.85L17.15 146.55H17.05H16.75H16.65L16.55 146.85V146.95H16.45V147.05H16.55V147.15H16.45V147.05H16.35H16.25V147.15L16.15 147.25L16.05 147.35L15.85 147.45H15.75V147.55H15.65H15.55V147.65H15.45V147.75V147.85V147.95V148.05V148.15V148.25V148.55L15.35 148.65V148.75V148.85L15.25 149.35L15.15 149.45L14.95 149.55V149.65V149.75L15.15 150.05H15.05H14.85H14.65L14.55 150.15L14.25 150.45L14.15 150.35L13.95 150.25H13.85L13.75 150.15V150.25L13.55 150.15H13.45H12.95L12.65 149.95V149.85L12.55 149.75H12.45V149.65V149.55H12.35V149.45H12.25V149.35V149.25L12.15 149.15V149.05H12.05H11.95H11.85V148.95H11.75V149.05H11.65L11.55 149.15H11.45H11.35H11.25V149.05L11.15 149.15L11.05 149.05V149.15L10.95 149.05H10.85L10.55 149.85L9.95001 150.05V149.95H9.84998V149.85H9.75H9.65002L9.54999 149.95V150.05L9.45001 150.15H9.34998L9.25 150.25L9.15002 150.35H9.04999L8.95001 150.25L8.54999 149.75L8.25 149.45L7.54999 149.35H7.25H7.04999H6.95001H6.84998H6.75L6.65002 149.45L6.45001 149.25L6.25 149.05V148.75V148.65L5.84998 147.85L5.75 147.65L5.65002 147.55V147.45H5.75L5.95001 147.25V147.15H6.04999V147.05H6.15002V146.95L6.25 146.85L6.54999 146.65L6.75 146.45L6.84998 146.35V146.25H6.95001V146.05L7.04999 145.75V145.65L7.15002 145.55L7.25 145.35L7.45001 145.05L7.65002 144.85L7.84998 144.65L7.95001 144.55L8.04999 144.45L7.95001 144.25L7.84998 144.15V144.05L7.95001 143.85L8.15002 143.65L8.25 143.55L8.45001 143.35L9.04999 143.45L9.15002 143.55V143.45H9.25V143.35L9.34998 143.25V143.15V143.05V142.95L9.25 142.85H9.15002H9.04999L8.65002 142.75L8.34998 142.65L8.45001 142.45L8.54999 142.35V142.25L8.65002 142.05H8.75V141.95V141.75L8.84998 141.65L8.95001 140.95L9.04999 140.55L9.25 139.85V139.75V139.65H9.15002V139.55V139.45L9.04999 139.35V139.25V139.15V139.05H9.15002H9.25V138.95H9.34998L9.45001 138.85H9.54999H9.65002L9.75 138.95H9.84998H9.95001H10.05H10.15V138.85L10.45 138.65L10.55 138.55V138.45V138.05V137.75V137.45V137.35L10.65 136.75L10.75 136.35V136.05V135.85V135.45V135.35V135.25L10.65 135.15L10.55 135.05V134.95L10.45 134.85V134.75L10.25 134.45L10.15 134.25L10.05 134.05L10.15 133.95L10.25 134.05H10.35H10.45L10.55 134.15H10.65H10.75H10.85H10.95L11.05 134.05V133.95V133.85V133.75H11.15V133.65L11.25 133.75H11.35L11.45 133.65H11.55H11.65H11.85V133.55H11.95H12.05H12.15V133.45H12.25H12.35V133.35H12.45H12.55H12.65H12.75L12.85 133.25V133.15H12.95H13.05H13.15H13.25H13.35H13.45H13.55H13.65V133.25H13.75L13.95 133.15V132.75L14.25 132.65H14.35L14.55 132.55H14.65L14.95 132.45H15.05L15.25 132.35L15.05 132.05L14.85 132.15V132.05V131.95L14.75 131.85L14.05 132.05H13.85V131.85L13.75 131.45L13.65 131.25V131.15H13.55H13.05H12.75V131.05L12.65 130.85H12.55L12.35 130.45L12.15 129.95L11.75 129.25L11.45 128.85L11.15 128.05L10.85 127.45H10.95H11.05H11.15L11.45 127.55L11.65 126.95L11.55 126.85H11.45V126.75V126.65V126.55L11.55 126.35V126.05V125.75H11.45H11.35V125.65V125.55H11.25V125.45V125.35V125.25H11.15H11.05V125.15H10.95V125.05V124.95V124.85V124.75V124.65H11.05H11.15H11.25L11.35 124.55L11.55 124.45V124.35V124.25L11.65 124.05L11.75 123.85V123.75V123.65H11.85V123.55H11.95V123.45H12.05V123.35H12.15V123.45H12.25V123.35H12.35V123.25H12.45V123.15L12.55 123.05L12.45 122.95H11.95L11.65 122.85H11.75V122.65L11.85 122.55V122.45V122.35L11.95 121.65L12.15 121.55H12.05V121.45V121.35V121.25H11.95V121.15H12.05L11.95 121.05H11.85L11.95 120.95H11.85H11.75V120.85V120.75V120.65V120.55H11.65V120.45V120.35V120.25V120.15L11.75 120.05V119.95V119.85H11.85V119.75L11.95 119.65L12.05 119.55L12.15 119.45L12.25 119.35L12.45 119.55V119.45L12.55 119.35H12.65V119.45V119.55V119.65H12.75H12.85V119.55H12.95H13.05V119.65H13.15H13.25V119.55L13.15 119.45V119.35V119.25H13.25V119.35V119.45H13.35H13.45V119.55H13.55V119.45H13.65L13.35 119.05L13.55 118.95V118.85H13.65H13.75V118.75L13.65 118.55L13.55 118.35L13.35 117.85L13.05 117.35V117.05V116.45L13.25 116.15V115.65V115.05V114.15V114.05L13.15 113.95H13.05H12.95H12.85H12.75H12.65V114.05V114.15L12.55 114.25H12.45H12.35L11.85 114.15H11.65L11.25 114.05L10.65 113.95H10.45H10.25H10.15L10.05 114.05L10.15 113.65V113.55L10.05 113.25V113.05L9.75 112.35L9.54999 111.95L9.34998 111.45V111.35V111.25L9.25 111.15L9.34998 111.05H9.45001V110.95L9.54999 110.85L9.45001 110.75L9.34998 110.65L9.25 110.55L9.15002 110.45V110.35L8.84998 110.55H8.75L8.65002 110.65L8.25 110.85L8.04999 110.95L7.34998 111.45L7.04999 111.55L7.15002 111.85V111.95V112.15V112.35V112.45H7.04999V112.35H6.95001H6.84998H6.75V112.25H6.65002H6.54999L6.45001 112.15H6.34998H6.25V112.05H6.15002V111.95H6.04999H5.95001H5.84998H5.75V111.85H5.65002L5.54999 111.75V111.65H5.45001L5.25 111.55L5.04999 111.45L5.15002 111.35V111.25H5.25V111.15V111.05H5.34998V110.95V110.85V110.75H5.45001V110.65L5.54999 110.55L5.65002 110.35L5.75 110.05V109.95L5.95001 109.85L6.04999 109.75V109.65L6.15002 109.55H6.04999V109.45L6.15002 109.35V109.25V109.15L6.25 109.05L6.34998 109.15L6.65002 108.75L6.84998 108.35L7.04999 108.55V108.45L7.45001 107.85L7.34998 107.75L6.75 107.45L6.15002 106.95L6.54999 106.35L6.75 105.85L6.65002 105.45V105.35H6.25L5.84998 105.25H5.25L5.04999 105.15L5.25 104.35H4.84998L3.65002 104.15L2.95001 104.05L2.34998 103.95L1.54999 103.85H1.25L0.849976 104.15L0.549988 103.95V103.85L0.25 103.75L0.549988 103.15L0.650024 102.95L1.25 102.05L1.34998 101.95L1.54999 101.65L1.65002 101.35L1.95001 100.85L2.54999 99.85L2.75 99.45V99.35H2.65002L2.34998 99.05L2.25 98.95L1.84998 98.65L1.75 98.45L1.15002 97.85L1.34998 97.55H1.45001L1.95001 96.85L2.34998 96.35L2.45001 96.15L2.34998 96.05L2.04999 95.85L2.54999 95.15L2.65002 95.05H2.84998H3.04999H3.25L3.45001 94.95H3.75L4.34998 94.85H4.65002V94.45H5.25V94.15V93.95H5.15002V93.25L4.84998 93.05L4.65002 92.65L4.84998 92.35L5.25 91.95L5.54999 91.55L6.45001 90.65L6.65002 90.45L6.45001 90.35H6.34998L6.25 90.25L6.15002 90.05L6.04999 89.55L6.54999 89.35L6.45001 89.15V89.05V88.85H6.84998V88.75V88.15H6.75H6.65002L6.54999 88.25L6.45001 88.15H6.54999H6.65002V88.05H6.84998H6.95001L6.84998 87.95V87.85H6.75L7.04999 87.75V87.65H6.95001L6.84998 87.75H6.75V87.65V87.55H6.65002V87.65H6.54999V87.75V87.85H6.45001L6.34998 87.95L6.25 87.85H6.15002V87.75L6.25 87.85V87.75H6.34998V87.65V87.55L6.45001 87.45L6.25 87.55L5.95001 87.65H5.84998L5.75 87.75H5.65002H5.54999H5.45001H5.34998L5.25 87.65V87.55L5.34998 87.15L5.45001 87.25H5.54999L5.65002 87.15H5.75L5.84998 87.25V87.15H5.95001H6.04999H6.15002V87.05H6.25V86.95H6.15002L6.25 86.85H6.15002H6.04999H5.95001V86.95H5.84998V87.05H5.75V86.95V86.85L5.45001 86.65V86.55L5.54999 86.45H5.65002V86.55H5.95001L6.15002 86.35L6.34998 86.15V86.25V86.35H6.45001H6.54999L6.65002 86.25L6.75 86.15V86.05L6.65002 85.95V85.85L7.04999 85.75H6.95001L6.84998 85.65V85.35L7.15002 85.05V84.95H7.04999V84.85H6.95001V84.75V84.65H6.84998V84.55H6.75V84.45L6.65002 84.35V84.25V84.15V84.05L6.95001 83.55L6.34998 83.05L6.45001 82.95H6.15002V83.05H6.04999L5.95001 83.15H5.84998H5.75V83.25H5.65002L5.54999 83.05L5.34998 83.25L5.54999 83.35H5.45001V83.45H5.34998V83.35H5.25V83.25H5.15002L5.04999 83.15L4.95001 82.75V82.55V81.95L5.15002 81.55V81.45L5.25 81.35L5.15002 81.25L4.84998 81.15V80.95H4.75V80.85L4.45001 80.25L4.34998 80.05V79.95L4.15002 79.55L3.95001 79.05L4.34998 78.95L5.15002 78.65V78.45L5.34998 78.35V78.25V78.15V78.05V77.95L5.45001 77.85L5.54999 77.95L6.04999 78.45L5.95001 78.75L5.75 78.95L5.84998 79.05H5.75L5.45001 79.15L5.34998 79.05L5.15002 79.15V79.25H5.25V79.35L5.15002 79.45L5.34998 79.65L5.45001 79.85H5.65002L5.75 79.95L5.84998 80.05H5.95001H6.04999L6.15002 80.15L6.25 80.25L6.34998 80.35L6.25 80.65H6.15002V80.75V80.95V81.05V81.15H6.25H6.34998H6.45001H6.54999H6.75L6.84998 81.25H6.95001H7.25H7.34998V81.05V80.95H7.45001V81.05V81.15V81.25H7.54999V81.35H7.65002L7.84998 81.15L7.95001 81.35H8.15002L8.25 81.45H8.34998L8.54999 81.55L8.75 81.15L8.54999 80.95V80.85L8.65002 80.75L8.45001 80.55L8.54999 80.35L8.65002 80.45L8.75 80.35L8.65002 80.25V80.15H8.54999L8.45001 80.05H8.25V79.95H8.15002H8.04999H7.95001L7.84998 79.85L7.65002 79.75L7.75 79.55H7.84998H7.95001L8.04999 79.65V79.55H8.15002H8.25H8.34998H8.45001H8.54999H8.65002L8.75 79.65H8.84998L8.95001 79.85H9.04999V80.05L9.15002 80.15L9.25 80.25H9.34998H9.45001H9.54999H9.65002H9.75V80.15H9.84998V80.05V79.75V79.25L10.05 79.15L9.95001 78.75H9.75L9.45001 78.65H9.15002V78.45H9.34998L9.54999 78.25L9.84998 77.55L9.95001 77.45V77.35L9.75 77.25L8.84998 76.45V76.35L9.15002 75.15V74.95L9.34998 74.35L9.45001 73.85L9.95001 73.35V73.25L9.75 72.55V72.45V72.35V72.15V72.05V71.75L9.84998 71.55L9.95001 71.25L10.05 71.05V70.95H10.15H10.25H10.35V70.85H10.45H10.65L10.75 70.95L10.65 71.05L10.55 71.15H10.65V71.25H10.75H10.85L10.95 71.15H11.05L11.25 71.05L11.55 70.85V70.75L11.95 70.65V70.55L12.15 70.05H12.25L12.85 70.15V69.95V69.65L12.95 69.35V68.95V68.85L12.85 68.75V68.65L12.75 68.55L12.65 68.45V68.35L12.55 68.25V68.05V67.65L12.45 67.55L12.35 67.45L11.95 67.25L11.55 67.05V66.65L11.45 66.55V66.45V66.35V66.25L11.05 66.15V65.85V65.45V65.35H11.15L11.25 65.25V65.15L11.15 64.85L11.55 64.95H11.65H11.85L12.55 64.75H12.65H12.75H12.95L13.65 64.95V64.85L13.75 64.75L13.95 64.35V64.25H14.05L14.35 64.15L14.05 64.05L13.55 63.95L12.85 63.85L12.65 63.55L12.45 63.35L12.25 63.05L12.15 62.85L12.05 62.75L11.35 62.15L11.05 61.95H10.95V60.85V60.25V60.05V59.45V59.15H10.85L10.25 59.25L9.84998 58.95L9.65002 59.05H9.54999V58.95V58.85L9.45001 58.75V58.65V58.55V58.45L9.54999 58.35V58.25V58.05H9.65002V57.95L9.75 57.85L9.84998 57.75V57.65L9.95001 57.55H10.05H10.15L10.25 57.35L10.35 57.25L10.45 57.05L10.55 56.85V56.75H10.45V56.65H10.35V56.55H10.25H10.15L10.25 56.45V56.35H10.15V56.25L10.25 56.15V56.05H10.35H10.45L10.55 56.15H10.65H10.85H10.95H11.15H11.25H11.35L11.45 56.05V55.95V55.85H11.35H11.15H11.05L10.95 55.95L10.85 55.85H10.75H10.65L10.55 55.75V55.65L10.45 55.35V55.25V55.15V55.05H10.55V55.15H10.65V55.25H10.75H10.85L10.95 55.35L11.05 55.25H11.15L11.35 55.15L11.55 55.05L11.65 54.95V54.85L11.75 54.75V54.65L11.85 54.55V54.45L11.75 54.35L11.65 54.25H11.55L11.45 54.35H11.35H11.25H11.15L11.05 54.25L10.95 54.15V54.05L10.85 53.95V53.85V53.75L10.75 53.65L10.65 53.45V53.35L10.55 53.25L10.45 53.15L10.35 53.05H10.25L10.15 52.95L10.05 52.85L9.84998 52.65L10.05 52.35L10.15 52.25H10.05L9.95001 52.05H9.84998V51.95H9.75L9.65002 51.85L9.54999 51.75H9.45001V51.65V51.55H9.34998L9.25 51.45L9.15002 51.35H9.04999V51.25H8.95001L8.84998 51.15L8.75 51.05H8.65002V50.95H8.54999V50.85L8.45001 50.75V50.65H8.34998V50.55L8.25 50.45V50.35H8.15002V50.25V50.15V50.05V49.95H8.04999V49.85L7.95001 49.75V49.65V49.55V49.45H8.04999V49.35V49.25H7.95001V49.15H7.84998V49.05V48.95V48.85V48.75V48.55L7.75 48.35H7.65002V48.45H7.54999V48.55V48.65L7.45001 48.75H7.34998V48.65V48.55L7.25 48.45V48.35H7.15002V48.25L7.04999 48.15H7.15002H7.25V48.05H7.34998L7.45001 47.85V47.75H7.54999H7.65002H7.75H7.84998V47.65H7.75V47.55H7.84998L7.95001 47.65H8.04999L8.15002 47.75H8.25H8.34998V47.65L8.25 47.55V47.45V47.35V47.15V47.05H8.34998V46.95L8.45001 46.85L8.54999 46.75V46.65H8.65002L8.75 46.55L8.84998 46.45V46.35L8.95001 46.25L9.04999 46.15L9.15002 45.95L9.25 45.75V45.65V45.55V45.45L9.34998 45.35H9.45001V45.25H9.54999L9.75 45.05L9.84998 44.95H9.95001H10.05L10.15 45.05V45.15H10.25H10.35L10.45 45.05H10.55V44.95V44.85V44.75V44.65V44.55V44.45L10.45 44.35L10.35 44.15L10.25 43.95V43.85L10.15 43.65H10.05V43.55H9.95001L9.75 43.45H9.65002L9.54999 43.35L9.65002 42.85L9.54999 42.75H9.65002H9.75V42.65L9.65002 42.55V42.45H9.54999V42.55L9.45001 42.65H9.34998V42.55V42.45V42.35L9.45001 42.15V42.05V41.95V41.85V41.75H9.54999H9.65002H9.75H9.84998V41.65L9.75 41.55L9.65002 41.45L9.45001 41.35L9.34998 41.25V41.15V41.05L9.45001 40.95H9.54999H9.65002V41.05H9.75V41.15V41.25H9.84998H9.95001V41.15V41.05V40.95V40.85V40.65V40.55V40.45L9.84998 40.35H9.95001L10.05 40.25L10.15 40.35H10.25L10.35 40.45V40.35H10.45L10.55 40.25V40.15H10.45V40.05V39.95L10.65 39.85H10.75H10.85L10.95 39.75H11.05L11.15 39.65H11.25H11.45H11.55H11.65H11.75L11.85 39.55L11.95 39.45H12.05L12.15 39.35L12.25 39.25V39.15V39.05V38.95V38.85V38.75V38.65V38.55L12.15 38.45V38.35V38.25H12.05V38.15H11.95H11.85H11.75V38.05V37.95H11.85V37.85H11.95V37.75V37.65H12.05H12.15H12.25V37.75L12.35 37.85H12.45V37.75V37.65H12.55V37.55V37.45V37.25V37.15V37.05H12.65H12.75L12.85 37.15H12.95V37.25H13.05L13.15 37.35H13.25V37.25H13.35H13.45L13.55 37.15H13.65V37.05H13.75H13.85H13.95H14.05V37.15V37.25V37.35V37.45V37.55V37.65H14.15H14.25H14.35H14.45V37.55V37.45H14.35V37.35H14.25V37.25V37.15V37.05V36.95H14.35V37.05H14.45L14.55 37.15V37.25L14.65 37.35H14.75H14.85H14.95L15.05 37.25H15.15V37.15V37.05V36.95V36.85H15.25H15.35V36.75H15.45H15.55H15.65L15.75 36.65H15.65V36.55H15.55V36.45V36.35H15.65H15.75H15.85V36.25H15.95V36.15V36.05H15.85V35.95H15.95L16.15 36.05V36.15L16.25 36.25L16.35 36.45H16.45V36.55L16.55 36.45L16.65 36.35V36.25H16.75L16.85 36.15H16.95H17.05L17.35 36.25H17.45H17.55H17.65H17.75V36.15H17.85V36.05H17.95V35.95V35.85V35.75L18.05 35.65V35.55L18.15 35.35V35.25L18.35 35.35H18.45L18.75 35.25H18.85L19.15 35.05V35.15V35.25V35.35H19.25H19.75V35.45L19.85 35.65H20.45H20.75H20.85H21.05V35.55H21.15V35.45V35.35L21.25 35.25V35.05L21.15 34.85L21.35 34.75V34.65V34.45V34.35V34.25H21.45L21.55 34.35H21.65H21.75H21.85V34.25V34.15L21.75 34.05V33.95V33.85H21.85V33.75L21.95 33.65H22.05L22.15 33.55H22.25V33.65H22.35H22.45V33.75H22.55H22.65H22.75H22.85H22.95V33.65H23.05L23.15 33.55V33.45V33.35V33.25V33.05V32.95H23.05V32.85V32.75L22.95 32.65L22.85 32.55L22.75 32.45V32.35H22.65V32.25L22.55 32.15H22.45H22.35H22.25L22.15 32.25H22.05H21.95V32.15V32.05V31.95L22.05 31.85V31.75L21.95 31.65L21.85 31.55L21.65 31.45V31.65H21.55L21.45 31.55H21.35V31.45H21.25H21.15V31.35H21.05H20.95H20.85V31.25V31.15H20.75V31.05V30.95V30.85V30.75H20.85L20.75 30.65V30.55V30.45H20.65V30.35H20.75V30.25V30.15V30.05L20.65 29.95H20.55L20.45 29.85V29.75L20.35 29.65L20.15 29.35H20.05H19.95H19.75V29.25H19.65H19.55L19.45 29.15H19.25V29.05H19.15L19.05 28.95L18.95 28.85H18.85H18.75H18.65H18.55V28.75H18.45V28.65H18.55V28.55V28.45H18.65V28.55V28.65H18.75H18.85H18.95H19.05L19.15 28.55V28.45V28.35V28.25L19.05 28.15V28.05L18.95 27.95V27.85V27.75V27.65V27.55V27.45L19.05 27.35L19.15 27.25L19.45 27.35H19.55H19.85H19.95H20.05V27.45H20.15H20.25H20.35H20.45H20.55H20.65L20.75 27.35H20.85H20.95H21.05H21.15V27.25L21.25 27.15V27.05L21.35 26.95V26.85H21.45V26.75L21.55 26.65L21.65 26.55L21.85 26.45L22.05 26.35L22.15 26.25L22.85 25.85H22.95L23.15 25.75H23.25H23.45L23.65 26.45L23.85 26.95L23.95 27.15L24.65 27.65L24.85 27.75H24.95L25.05 27.65V27.55V27.45H25.15L25.25 27.35V27.25H25.35L25.45 27.15H25.55H25.75L25.95 27.05L26.05 26.95H26.15H26.25V26.85H26.35H26.45V26.75H26.55H26.65H26.75H26.85H26.95H27.35H28.35H28.45V25.05L28.35 24.25V23.15V22.65V22.55H28.25V22.65L28.15 22.75H27.95V23.05L27.85 23.15L26.95 22.85L26.35 22.75V22.55H26.25H26.15H26.05H25.95H25.85H25.75H25.65H25.55L25.45 22.65H25.35L25.25 22.75V22.65V22.55L25.35 22.45L25.45 22.35V22.25H25.55V22.15V22.05L25.65 21.85H25.55L25.45 21.75V21.65L25.25 21.25L25.05 20.95L24.25 20.65L23.85 20.45L24.25 19.85L23.65 19.55L23.55 19.45L22.95 19.15L22.45 18.95L22.15 18.75L21.85 18.55L21.45 18.45L20.75 18.05L20.65 17.95H20.55H20.45H20.35L20.25 18.05L20.05 18.15L19.75 18.25V18.35V18.45H19.85V18.55H19.95H20.05H20.15H20.25H20.35H20.45V18.65V18.75H19.45V18.65V18.55V18.45V18.35V18.15L19.55 17.85V17.75V17.55L19.65 17.15H20.15V17.05V16.95V16.65V16.55H19.95L19.85 16.45V16.35L19.95 16.25L19.75 15.95H19.65H19.55V16.05H19.45L19.35 15.75H19.25V15.65V15.55H19.15V15.45H19.05L19.15 15.35V15.25V15.15H19.25V15.05H19.15V14.95H19.05V14.85V14.75H18.95V14.85H18.85V14.75H18.75V14.65H18.85H18.95V14.55V14.45H18.85V14.35V14.25V14.15H18.95H19.05H19.15V14.25H19.25V14.35H19.35V14.25V14.05V13.95V13.85H19.45V13.95H19.55V13.85H19.65V13.75V13.65H19.75V13.55V13.45H19.85V13.35V13.25V13.15H19.75V13.05L19.55 12.75V12.65V12.55V12.45H19.45H19.35H19.25H19.15L19.05 12.35V12.25L19.25 11.95L19.35 11.75H19.45V11.65H19.55V11.75H19.65V11.85V11.95V12.05V12.15H19.75V12.25H19.85H19.95L20.05 12.15H20.15V12.05L20.25 11.95V11.85H20.35V11.75H20.45H20.55H20.65H20.75V11.85H20.85L20.95 11.75V11.65H21.05V11.45V11.35V11.25H21.15V11.15V11.05H21.25L21.35 10.95L21.45 10.85H21.55H21.65V10.75V10.65H21.55L21.45 10.55V10.45H21.35V10.35H21.45L21.55 10.15L21.65 10.05V9.95V9.85V9.75H21.55H21.45H21.35V9.65V9.55V9.45V9.35V9.25H21.25V9.15V9.05H21.15V8.95H21.25V8.85V8.75V8.65H21.35L21.45 8.95L21.75 8.65H21.95L22.35 8.05H22.45L22.65 7.65V7.55V7.45H22.55V7.55H22.45V7.45H22.55V7.35H22.45H22.35H22.25H22.15V7.25L22.25 7.15H22.35V7.05H22.45V7.15L22.55 7.05H22.65V6.95V6.85L22.55 6.95H22.45V6.85H22.55L22.65 6.75V6.65H22.55V6.55V6.45V6.35H22.65V6.25H22.55V6.15H22.65V6.05L22.75 5.95L22.85 6.05H22.95H23.05V5.95V5.85H22.95V5.75L22.65 5.45L23.05 5.05L23.35 5.35V5.25H23.45V5.05H23.35V4.95V4.85V4.75V4.65H23.25V4.55L22.75 4.35V4.25V4.15V4.05H22.65V3.95V3.85H22.75H22.85L22.95 3.95L23.05 4.05L23.15 4.15H23.25H23.35V4.05L23.45 3.95V3.85L23.55 3.65V3.55V3.45H23.65H23.75L23.85 3.35L23.95 3.25L24.05 3.15V3.05V2.95H24.15V2.85V2.75H24.25V2.65L24.55 2.05H25.25L25.65 1.75V1.65L25.95 1.55L26.65 0.85L27.35 0.449999L28.35 1.85L28.25 2.65H28.05H27.95V2.75H27.85V2.85V3.15V3.25V3.35L27.75 3.45L27.65 3.55H27.55V3.65L27.45 3.75V3.85L27.55 4.15L27.85 4.35H28.05V4.95L28.85 6.25L29.95 6.15L31.15 5.05L31.65 4.45L32.05 4.05L32.35 3.85L32.65 3.45L32.75 3.35H32.85V3.25L33.15 3.05L33.45 2.65L34.85 2.05L37.35 0.85L37.85 0.65L39.45 0.35L40.15 0.25H40.95H42.45L43.75 0.75L44.25 1.55L44.65 2.65L45.45 4.05L46.45 5.05L48.55 6.45L49.55 7.75L50.75 10.55L51.45 11.45L54.75 13.65L55.55 14.55L56.35 15.85L56.45 15.95V16.05L56.85 16.85L57.15 17.65L57.35 18.45V19.35L56.45 21.25V21.65L56.65 23.05L56.75 25.75L57.05 27.35L57.65 28.75L58.65 30.55L58.85 31.95L58.45 33.15V33.85H60.95L61.95 34.65L63.85 37.05L64.15 37.35L64.85 37.85L65.15 38.15L65.25 38.55L65.45 39.65V39.85L66.05 40.05L66.65 39.75L66.95 39.65H67.55L68.45 40.25L70.15 42.15L71.15 42.85L72.35 44.05L73.05 44.85L74.25 47.65V47.75L74.45 48.05V51.45L73.15 53.05H73.05H72.95V53.15H72.85H72.75H72.65V53.25H72.55H72.45H72.35H72.25V53.35H72.15H72.05H71.95V53.45H71.85V53.35H71.75V53.25H71.65L71.55 53.35H71.45V53.25H71.35H71.25V53.15H71.15H71.05V53.25H70.95H70.85L70.75 53.35V53.25H70.65H70.55H70.45H70.35V53.15H70.25H70.15H70.05H69.95L70.05 53.05H69.95V53.15H69.85V53.05H69.75V53.15H69.65V53.05H69.55H69.45V52.95V52.85H69.35V52.75L69.25 52.85V52.75H69.15L69.05 52.85V52.95L68.95 53.05L68.85 53.15V53.25V53.35H68.75V53.45H68.65V53.55V53.65V53.75H68.55V53.85H68.45H68.35V53.95H68.25L60.05 55.95L58.05 57.15L57.95 57.45L57.65 59.05L58.15 59.85L59.95 60.35L60.65 60.85L60.85 61.45L61.15 63.05L61.35 63.85L61.65 64.45L63.85 66.85L64.45 68.05L64.85 69.45L64.95 71.25L64.85 72.05L64.45 73.55L64.25 74.25L64.35 75.15L64.55 75.85L64.65 76.55L64.55 77.35L64.15 77.85L63.05 78.05L62.75 78.55L62.95 79.25L63.45 79.85L64.45 80.85L65.25 81.35L66.05 81.65L66.95 81.85H67.75L68.75 81.25L69.15 83.95L69.05 83.85H68.95V83.95H68.85V84.05H68.75H68.65L68.55 83.95L68.45 83.85H68.35V83.75L68.25 83.65H68.15H68.05L67.95 83.85L67.85 83.95L67.75 84.05L67.85 84.25H67.95V84.45L68.05 84.65L68.15 84.75V85.05H68.05L67.95 85.15L67.85 85.25V85.35H67.75V85.65V85.75V85.85H67.85V85.95L67.75 86.05H67.65V85.95H67.55V85.85V85.75H67.45V85.65H67.35L67.25 85.75V85.85V85.95V86.25V86.35L67.15 86.55L67.05 86.65V86.75V86.85V86.95H66.95V86.85H66.85L66.75 86.75V86.65H66.65H66.55V86.75H66.45V86.85H66.35H66.25V86.95L66.15 87.05L66.05 87.15H65.95V87.25L65.85 87.35H65.75V87.45L65.85 87.75V87.85H65.95V87.95V88.05H66.05L66.45 88.25L66.05 88.75L65.95 88.95L65.35 89.25L62.95 90.95L66.65 92.45L67.85 92.75L68.75 92.35L69.35 91.75L70.55 90.75L71.35 90.55L72.35 90.25L74.25 90.55L77.85 91.85L79.45 92.45L82.55 91.95H82.75H83.05L84.25 92.15L84.95 92.85L85.35 93.95L85.55 95.25L86.05 96.45L86.75 97.15L87.65 97.45L91.35 97.75L94.35 97.05H94.45V97.15H94.55H94.65H94.75V97.25H94.85V97.35H94.95H95.15H95.45H95.55H95.65H95.75V97.25V97.15V96.85V96.75V96.65H95.65V96.55L98.55 95.35L98.95 95.15L99.25 95.05L100.15 94.45L100.95 93.95L101.35 93.75L102.15 93.65L103.05 94.15L104.05 94.75L104.95 94.55L105.95 94.05L106.85 93.95L107.05 93.85L108.05 94.25L108.65 95.05L109.05 96.25L110.25 103.65L111.25 106.25L112.75 107.65L114.45 107.85L117.85 107.05L119.65 107.15L120.65 107.45L121.55 107.95L121.95 108.85L121.55 110.25L121.45 110.35L120.85 110.85V110.95L118.05 111.55L118.25 112.45V114.05V114.55L118.45 115.35L118.85 115.95L120.05 116.25L120.65 116.65L121.25 117.65L121.35 118.65L121.25 119.55V120.85L121.65 121.85L122.65 123.25L123.05 124.25L123.15 125.35L123.05 126.35L123.15 127.15L123.85 127.85L125.15 128.65L125.65 129.15L126.15 129.95L126.55 132.15L126.45 134.15L126.55 135.85L127.65 137.45L125.35 138.45L123.85 139.15H123.75L123.05 140.15V141.15L123.85 144.25L123.95 144.65L125.45 150.75L126.55 152.65L128.25 153.45L129.35 153.65L130.45 154.05L131.35 154.75L132.05 156.05L132.45 157.95V159.35L132.75 160.55L133.95 161.85L134.85 162.55L135.85 163.05L136.95 163.35L137.95 163.45L138.95 163.15Z" fill="#220F0F"/>
<path d="M81.25 170.95L81.35 170.85H81.45L81.55 170.95L81.45 171.05V171.15L81.55 171.25V171.45L81.65 171.85L81.85 172.25L81.95 172.15V171.95L81.85 171.85H81.75L81.85 171.75L81.95 171.65L82.35 172.35L82.45 172.45L82.35 172.55L81.95 173.75L81.85 174.05H81.55L80.95 174.85L80.55 175.45L80.15 176.05L80.05 176.25L79.95 176.35L80.15 176.75H80.55L80.25 177.75L80.15 178.15L80.75 178.05V179.15H81.15V179.65V179.85H81.35L82.05 180.35L82.35 180.45V180.55L82.45 180.65V180.75H82.55H82.65V180.65V180.55H82.75V180.45H82.85V180.35V180.15H82.95H83.05L83.15 180.25L83.25 180.15H83.35L83.55 180.25V180.35L83.75 180.45H83.65V180.55H83.75V180.65H83.85H83.95L84.15 180.75L84.25 180.65L84.35 180.75V180.85H84.45H84.55V180.95H84.65H84.75H84.85H84.95H85.05V181.05L85.15 181.15L85.25 181.25L85.35 181.35L85.45 181.45H85.55H85.65L85.75 181.35L85.85 181.25H85.95H86.05L86.15 181.35L86.35 181.45L86.45 181.35L86.55 181.15L86.65 181.25H86.75L86.65 181.45L86.75 181.55H86.85H86.95H87.15L87.25 181.45H87.05L86.95 181.35L87.05 181.25V181.15L87.25 181.05V180.95L87.35 180.85L87.25 180.75L87.35 180.65V180.55V180.45V180.35L87.45 180.25V180.15H87.55L87.65 180.05V179.95V179.85H87.55L87.75 179.75L87.95 179.95L87.85 180.05V180.15H87.75V180.25H87.65V180.35V180.55V180.65V180.75V180.95H87.75V181.05L87.85 181.15V181.25L87.75 181.35V181.55H88.05H88.15H88.25L88.35 181.65H88.45L88.55 181.55H88.65L88.75 181.45V181.55H88.85V181.45V181.35V181.25H88.75V181.15V181.05H88.85V180.95L88.75 180.85H88.85V180.75H88.95L88.85 180.65V180.55L88.75 180.45V179.85H89.05V179.65V179.55V179.45H88.95L88.85 178.75V178.65V178.55L88.95 178.45H89.05L89.15 178.35L89.25 178.25L89.55 178.35H89.75H89.95V178.25V178.15L90.05 178.05V177.95L90.15 177.85H90.25L90.65 177.65L91.15 177.75H91.25L91.45 177.85L91.35 178.05H91.45V178.15L91.35 178.25L91.25 178.35L91.15 178.55L90.95 178.85H91.25H91.35H91.45H91.55L92.05 178.75H92.15L92.25 178.65L92.55 178.45L93.05 178.15L93.95 178.05L93.85 177.65H94.25H95.05H95.15L95.25 177.75H95.35L95.55 177.95L96.05 177.75L96.35 177.25L96.65 177.45L97.15 177.55L99.05 177.75L100.15 178.05L100.55 178.15L101.05 178.25L102.25 178.05L102.45 177.85L102.75 177.75L102.65 177.45L102.55 176.95L102.25 176.05L102.15 175.75H102.25L102.85 175.95L103.25 175.85H103.55H103.75H104.15V175.95V176.05H104.25V176.15L104.15 176.25H104.35L104.45 175.75L105.15 175.95L105.55 176.05H105.65V176.15V176.25V176.65L105.55 177.15L106.05 177.25L106.15 177.15L106.35 176.75L106.85 175.95L106.95 175.65L107.15 175.85L107.25 175.75L107.15 175.65L107.25 175.45H107.35L107.55 175.25V175.15V175.05L107.65 174.95V174.85L107.55 174.75L107.95 174.45L107.65 174.15L107.55 174.05L107.75 173.95L107.85 173.85L108.45 173.55H108.55H108.65H108.75V173.45H108.85H109.25L109.35 173.35L109.45 173.25L109.75 173.05L110.25 172.65L110.45 172.45L110.55 172.35L110.85 172.05L111.15 171.65L111.55 171.15L112.05 171.45L113.25 172.05L113.75 172.25L113.85 172.15V172.05V171.95L113.95 171.65L114.05 171.45L114.15 171.55V171.65L114.05 171.75L114.65 171.85L115.35 172.15L115.75 172.25H115.85L116.05 171.65L116.45 171.75H117.15V171.65H117.25V171.55H117.15V171.45V171.35V171.15V171.05V170.95V170.85H117.25V170.75V170.65V170.55V170.45V170.35V170.25V170.15L117.15 170.05V169.85L117.25 169.75V169.65H117.35L117.45 169.55V169.45V169.35L118.05 169.45H118.15L119.15 169.55L119.45 169.35L119.95 168.95L120.15 168.85L120.65 168.75V168.65L120.75 168.45L120.45 168.35L119.25 167.65L118.95 167.45L119.65 166.55L120.05 165.95L120.15 165.85L120.25 165.75L120.15 165.55L120.65 165.15L121.25 165.55L121.35 165.65H121.45V165.75H121.55L121.65 165.85L121.75 165.95L121.85 166.05L122.45 166.45L122.65 166.55L123.35 167.05L123.45 166.45V166.15L123.35 166.05L123.25 165.75L123.15 165.05L124.05 165.15L124.55 165.05V164.95H124.75V164.85V164.75H124.85V164.65L124.95 164.55V164.45V164.35H125.05V164.25H125.15L125.25 164.15V164.05V163.95H125.35V163.85L125.45 163.95L126.05 164.85V164.95L126.15 165.25L126.25 165.35L127.25 165.45L127.15 165.85L127.25 165.95L127.75 166.25L128.25 166.65L128.65 166.95L129.05 167.25L129.15 167.05L129.25 166.95L129.35 166.75H129.45V166.65L130.15 167.15L130.45 167.45L130.55 167.25L130.65 167.05L130.75 167.25L130.85 167.15L130.75 167.05V166.95L130.85 166.75H130.95L131.05 166.55V166.45L130.95 166.35L130.45 165.75L130.05 165.25H130.25H130.35L130.75 165.15L131.45 165.05L132.15 164.95H132.25H132.35H132.45L132.65 165.05H132.95L133.35 164.75L133.65 164.55L133.85 164.35L133.95 164.15L134.15 164.25L134.25 164.35H134.35L134.65 164.45H134.75L134.85 164.55H134.95H135.15H135.35L135.75 164.65H135.85L135.75 164.75L135.65 164.85L135.55 165.05L135.65 165.15L135.75 165.25H135.85L136.15 165.45V165.55L136.85 165.85V165.65H137.05H137.15L137.25 165.15L137.35 164.75V164.55H137.55H138.05V164.45L138.25 164.25V164.15H138.45V163.95V163.85H138.75L138.95 163.25V163.15L137.95 163.45L136.95 163.35L135.85 163.05L134.85 162.55L133.95 161.85L132.75 160.55L132.45 159.35V157.95L132.05 156.05L131.35 154.75L130.45 154.05L129.35 153.65L128.25 153.45L126.55 152.65L125.45 150.75L123.95 144.65L123.85 144.25L123.05 141.15V140.15L123.75 139.15H123.85L125.35 138.45L127.65 137.45L126.55 135.85L126.45 134.15L126.55 132.15L126.15 129.95L125.65 129.15L125.15 128.65L123.85 127.85L123.15 127.15L123.05 126.35L123.15 125.35L123.05 124.25L122.65 123.25L121.65 121.85L121.25 120.85V119.55L121.35 118.65L121.25 117.65L120.65 116.65L120.05 116.25L118.85 115.95L118.45 115.35L118.25 114.55V114.05V112.45L118.05 111.55L120.85 110.95V110.85L121.45 110.35L121.55 110.25L121.95 108.85L121.55 107.95L120.65 107.45L119.65 107.15L117.85 107.05L114.45 107.85L112.75 107.65L111.25 106.25L110.25 103.65L109.05 96.25L108.65 95.05L108.05 94.25L107.05 93.85L106.85 93.95L105.95 94.05L104.95 94.55L104.05 94.75L103.05 94.15L102.15 93.65L101.35 93.75L100.95 93.95L100.15 94.45L99.25 95.05L98.95 95.15L98.55 95.35L95.65 96.55V96.65H95.75V96.75V96.85V97.15V97.25V97.35H95.65H95.55H95.45H95.15H94.95H94.85V97.25H94.75V97.15H94.65H94.55H94.45V97.05H94.35L91.35 97.75L87.65 97.45L86.75 97.15L86.05 96.45L85.55 95.25L85.35 93.95L84.95 92.85L84.25 92.15L83.05 91.95H82.75H82.55L79.45 92.45L77.85 91.85L74.25 90.55L72.35 90.25L71.35 90.55L70.55 90.75L69.35 91.75L68.75 92.35L67.85 92.75L66.65 92.45L62.95 90.95L65.35 89.25L65.95 88.95L66.05 88.75L66.45 88.25L66.05 88.05H65.95V87.95V87.85H65.85V87.75L65.75 87.45V87.35H65.85L65.95 87.25V87.15H66.05L66.15 87.05M81.25 170.95V170.85M81.25 170.95H81.15H81.05V170.85V170.75H80.85H80.75H80.55L80.45 170.65V170.55L80.35 170.65H80.25V170.75V170.85H80.35H80.45L80.55 171.05V171.15L80.35 171.25V171.35H80.25H80.15V171.15L79.95 171.05H79.85L79.75 170.95L79.55 170.75L79.45 170.55V170.35V170.15H79.65L79.75 170.35V170.15H79.85H79.95V170.05H79.85L79.75 169.95V169.85L79.95 169.65L79.85 169.55V169.45L79.75 169.25L79.55 169.05V168.95V168.85V168.75L79.45 168.65V168.55L79.65 168.35L79.85 168.15H79.75L79.25 167.85H79.15L77.35 167.55H77.05L76.75 167.75L76.45 167.55V167.45L75.85 167.05L74.45 165.75L73.75 165.15L73.95 164.65L74.25 164.15L74.35 163.85L74.25 163.65L73.35 163.05L72.95 162.65V162.15L72.65 161.95L73.35 161.35H73.25L73.05 161.25L72.45 160.95V160.85V160.75L72.35 160.65L72.25 160.55V160.45L72.15 160.55H72.05L71.75 160.35L71.45 160.05L70.95 159.55L70.85 159.45H70.75H70.65L70.55 159.35L70.05 159.05L69.35 158.55L68.35 157.85L68.05 157.65L67.85 157.25L67.75 157.15L67.55 156.55L67.35 156.35V156.15H67.25H67.15H67.05H66.95L66.75 156.05L66.65 155.95V155.85L66.55 155.75L66.45 155.55L66.35 155.35L66.25 155.15V154.75V154.45L66.15 154.25V154.05V153.95L66.25 153.25L66.35 152.15L66.45 151.55L66.35 150.95L66.25 150.05L66.15 149.45V149.35V149.25H66.05V149.05L65.95 148.95H65.75L65.25 148.65L65.15 148.75L64.65 148.15L64.15 148.75L63.95 148.85H63.85L63.45 148.95H63.35L63.15 148.85H63.05L62.45 148.75L61.65 149.05L61.45 149.25L61.35 149.15L61.25 149.35H61.15L60.75 149.75L59.65 149.95V150.15V150.35L59.55 150.85V150.95V151.05V151.25V151.35L59.35 151.55L59.25 151.85V151.95L59.15 152.15V152.25H59.05V152.35H58.95L58.85 152.25L58.55 152.35L58.05 151.85L57.95 151.75H57.85H57.75L57.85 151.55H58.05V151.45L58.25 151.55L58.45 151.15L58.95 150.55L58.75 150.45L58.45 150.25H58.35V150.15H58.25V150.05H58.15H58.05L57.95 149.85L57.45 149.75L57.35 149.65H57.15V149.55H57.05H56.95H56.85L56.75 149.45V149.55H56.65H56.55V149.65H56.45V149.75L56.35 149.85V149.95H56.45L56.35 150.05L56.55 150.15L56.45 150.35L56.15 150.05L55.65 150.45H55.55H55.45H55.35H55.25L55.05 150.85H54.95L55.15 150.35V150.25L55.25 150.05H55.15V149.95L55.05 149.85H54.85L54.65 149.95L54.45 149.75V149.65L53.95 149.25L54.05 149.15L53.25 148.55L52.95 148.35L52.15 147.65L51.35 147.05L50.55 148.05L49.95 148.85L49.75 149.05M49.75 149.05V149.15M49.75 149.05L49.65 149.25L49.55 149.35L49.45 149.55L49.25 149.65L49.15 149.55L48.95 149.45L48.85 149.35V149.25H48.75V149.15V149.05L48.55 148.95H48.45V148.85H48.35V148.75V148.65L48.15 148.15L47.75 148.25L47.45 148.35V148.15L47.25 148.25L46.85 148.35L46.45 148.55L45.75 148.85L45.45 148.95V149.05L45.65 149.25H45.45L45.35 149.35L44.85 149.45L44.55 149.55L44.45 149.45V149.35L44.05 149.55L44.15 149.65V149.85L44.25 150.15H44.55H44.75L45.05 150.25L45.55 150.35L45.85 150.45V150.55L45.95 150.65H46.05V150.85V150.95L45.75 151.55L45.55 151.45L45.45 151.35L45.05 151.55L44.75 151.75H44.85L44.95 151.95L45.05 152.25H44.95L44.55 152.35L44.05 152.45L43.85 152.55H43.75H43.25H42.85V152.95V153.15L42.95 153.25V153.35V153.45V153.55H42.85V153.65H42.75V153.75V153.85H42.85L41.65 153.95L40.45 154.05H40.25L39.45 153.45H39.35V153.35H39.15L38.45 153.15L37.95 153.05L37.55 152.95L37.05 152.85L36.15 152.65L35.65 152.55L34.75 152.35L34.45 152.25L34.25 152.15H34.15V152.05L34.05 151.85L33.85 151.75L33.25 151.55H33.05L32.95 151.45H32.85H32.75H32.65L32.45 151.55L32.05 151.25H31.95L31.75 151.35L31.55 151.45V151.55L30.95 151.65H30.35V151.95L30.25 152.05H30.15V152.15L30.05 152.25H29.95L30.05 152.35H29.95H29.85V152.25L29.65 152.35H29.55H29.45L29.35 152.25L29.25 152.15H29.15L29.05 152.05V151.95V151.85H28.95V151.75H28.85V151.65H28.75V151.55V151.45L28.55 151.25V151.05H28.45L28.35 151.15L28.25 151.25V151.35H28.15V151.45H28.05V151.55V151.65V151.75V151.85L27.95 151.95H27.85V152.05V152.15H27.75L27.65 152.25L27.25 152.15L27.35 151.75L27.25 151.65V151.55H27.15L26.85 151.45L26.55 151.35L26.25 151.55L25.75 151.75L25.05 151.95L24.95 152.05L25.05 152.15V152.25H25.15V152.35V152.45L25.25 152.55V152.65L25.05 152.75L24.75 152.45H24.65L24.25 152.15L24.35 152.05V151.45H24.05V151.35L23.95 151.15V150.85H23.85H23.65L23.05 150.95H22.85H22.55H22.05V150.05V149.15H20.95H20.15H19.55H19.25V148.75L19.15 148.15H18.95L18.35 148.05L18.15 147.75L17.95 147.45L17.85 147.25L17.55 147.15H17.45L17.55 146.85L17.15 146.55H17.05H16.75H16.65L16.55 146.85V146.95H16.45V147.05M16.45 147.05H16.55V147.15H16.45V147.05ZM16.45 147.05H16.35M16.35 147.05V146.95M16.35 147.05H16.25V147.15L16.15 147.25L16.05 147.35L15.85 147.45H15.75V147.55H15.65H15.55V147.65H15.45V147.75V147.85V147.95V148.05V148.15V148.25V148.55L15.35 148.65V148.75V148.85L15.25 149.35L15.15 149.45L14.95 149.55V149.65V149.75L15.15 150.05H15.05H14.85H14.65L14.55 150.15L14.25 150.45L14.15 150.35L13.95 150.25H13.85L13.75 150.15V150.25L13.55 150.15H13.45H12.95L12.65 149.95V149.85L12.55 149.75H12.45V149.65V149.55H12.35V149.45H12.25V149.35V149.25L12.15 149.15V149.05H12.05H11.95H11.85V148.95H11.75V149.05H11.65L11.55 149.15H11.45H11.35H11.25V149.05L11.15 149.15L11.05 149.05V149.15L10.95 149.05H10.85L10.55 149.85L9.95001 150.05V149.95H9.84998V149.85H9.75H9.65002L9.54999 149.95V150.05L9.45001 150.15H9.34998L9.25 150.25L9.15002 150.35H9.04999L8.95001 150.25L8.54999 149.75L8.25 149.45L7.54999 149.35H7.25H7.04999H6.95001H6.84998H6.75L6.65002 149.45L6.45001 149.25L6.25 149.05V148.75V148.65L5.84998 147.85L5.75 147.65L5.65002 147.55V147.45H5.75L5.95001 147.25V147.15H6.04999V147.05H6.15002V146.95L6.25 146.85L6.54999 146.65L6.75 146.45L6.84998 146.35V146.25H6.95001V146.05L7.04999 145.75V145.65L7.15002 145.55L7.25 145.35L7.45001 145.05L7.65002 144.85L7.84998 144.65L7.95001 144.55L8.04999 144.45L7.95001 144.25L7.84998 144.15V144.05L7.95001 143.85L8.15002 143.65L8.25 143.55L8.45001 143.35L9.04999 143.45L9.15002 143.55V143.45H9.25V143.35L9.34998 143.25V143.15V143.05V142.95L9.25 142.85H9.15002H9.04999L8.65002 142.75L8.34998 142.65L8.45001 142.45L8.54999 142.35V142.25L8.65002 142.05H8.75V141.95V141.75L8.84998 141.65L8.95001 140.95L9.04999 140.55L9.25 139.85V139.75V139.65H9.15002V139.55V139.45L9.04999 139.35V139.25V139.15V139.05H9.15002H9.25V138.95H9.34998L9.45001 138.85H9.54999H9.65002L9.75 138.95H9.84998H9.95001H10.05H10.15V138.85L10.45 138.65L10.55 138.55V138.45V138.05V137.75V137.45V137.35L10.65 136.75L10.75 136.35V136.05V135.85V135.45V135.35V135.25L10.65 135.15L10.55 135.05V134.95L10.45 134.85V134.75L10.25 134.45L10.15 134.25L10.05 134.05L10.15 133.95L10.25 134.05H10.35H10.45L10.55 134.15H10.65H10.75H10.85H10.95L11.05 134.05V133.95V133.85V133.75H11.15V133.65L11.25 133.75H11.35L11.45 133.65H11.55H11.65H11.85V133.55H11.95H12.05H12.15V133.45H12.25H12.35V133.35H12.45H12.55H12.65H12.75L12.85 133.25V133.15H12.95H13.05H13.15H13.25H13.35H13.45H13.55H13.65V133.25H13.75L13.95 133.15V132.75L14.25 132.65H14.35L14.55 132.55H14.65L14.95 132.45H15.05L15.25 132.35L15.05 132.05L14.85 132.15V132.05V131.95L14.75 131.85L14.05 132.05H13.85V131.85L13.75 131.45L13.65 131.25V131.15H13.55H13.05H12.75V131.05L12.65 130.85H12.55L12.35 130.45L12.15 129.95L11.75 129.25L11.45 128.85L11.15 128.05L10.85 127.45H10.95H11.05H11.15L11.45 127.55L11.65 126.95L11.55 126.85H11.45V126.75V126.65V126.55L11.55 126.35V126.05V125.75H11.45H11.35V125.65V125.55H11.25V125.45V125.35V125.25H11.15H11.05V125.15H10.95V125.05V124.95V124.85V124.75V124.65H11.05H11.15H11.25L11.35 124.55L11.55 124.45V124.35V124.25L11.65 124.05L11.75 123.85V123.75V123.65H11.85V123.55H11.95V123.45H12.05V123.35H12.15V123.45H12.25V123.35H12.35V123.25H12.45V123.15L12.55 123.05L12.45 122.95H11.95L11.65 122.85H11.75V122.65L11.85 122.55V122.45V122.35L11.95 121.65L12.15 121.55M12.15 121.55H12.25M12.15 121.55H12.05V121.45V121.35V121.25H11.95M11.95 121.25V121.35M11.95 121.25V121.15H12.05L11.95 121.05H11.85L11.95 120.95H11.85H11.75V120.85V120.75V120.65V120.55H11.65V120.45V120.35V120.25V120.15L11.75 120.05V119.95V119.85H11.85V119.75L11.95 119.65L12.05 119.55L12.15 119.45L12.25 119.35L12.45 119.55V119.45L12.55 119.35H12.65V119.45M12.65 119.45H12.55M12.65 119.45V119.55V119.65H12.75H12.85V119.55H12.95H13.05V119.65H13.15H13.25V119.55L13.15 119.45V119.35V119.25H13.25V119.35V119.45H13.35H13.45V119.55H13.55V119.45H13.65L13.35 119.05L13.55 118.95V118.85H13.65H13.75V118.75L13.65 118.55L13.55 118.35L13.35 117.85L13.05 117.35V117.05V116.45L13.25 116.15V115.65V115.05V114.15V114.05L13.15 113.95H13.05H12.95H12.85H12.75H12.65V114.05V114.15L12.55 114.25H12.45H12.35L11.85 114.15H11.65L11.25 114.05L10.65 113.95H10.45H10.25H10.15L10.05 114.05L10.15 113.65V113.55L10.05 113.25V113.05L9.75 112.35L9.54999 111.95L9.34998 111.45V111.35V111.25L9.25 111.15L9.34998 111.05H9.45001V110.95L9.54999 110.85L9.45001 110.75L9.34998 110.65L9.25 110.55L9.15002 110.45V110.35L8.84998 110.55H8.75L8.65002 110.65L8.25 110.85L8.04999 110.95L7.34998 111.45L7.04999 111.55L7.15002 111.85V111.95V112.15V112.35V112.45M7.15002 112.45V112.55M7.15002 112.45H7.04999V112.35H6.95001H6.84998H6.75V112.25H6.65002H6.54999L6.45001 112.15H6.34998H6.25V112.05H6.15002V111.95H6.04999H5.95001H5.84998H5.75V111.85H5.65002L5.54999 111.75V111.65H5.45001L5.25 111.55L5.04999 111.45L5.15002 111.35V111.25H5.25V111.15V111.05H5.34998V110.95V110.85V110.75H5.45001V110.65L5.54999 110.55L5.65002 110.35L5.75 110.05V109.95L5.95001 109.85L6.04999 109.75V109.65L6.15002 109.55H6.04999V109.45L6.15002 109.35V109.25V109.15L6.25 109.05L6.34998 109.15L6.65002 108.75L6.84998 108.35L7.04999 108.55V108.45L7.45001 107.85L7.34998 107.75L6.75 107.45L6.15002 106.95L6.54999 106.35L6.75 105.85L6.65002 105.45V105.35H6.25L5.84998 105.25H5.25L5.04999 105.15L5.25 104.35H4.84998L3.65002 104.15L2.95001 104.05L2.34998 103.95L1.54999 103.85H1.25L0.849976 104.15L0.549988 103.95V103.85L0.25 103.75L0.549988 103.15L0.650024 102.95L1.25 102.05L1.34998 101.95L1.54999 101.65L1.65002 101.35L1.95001 100.85L2.54999 99.85L2.75 99.45V99.35H2.65002L2.34998 99.05L2.25 98.95L1.84998 98.65L1.75 98.45L1.15002 97.85L1.34998 97.55H1.45001L1.95001 96.85L2.34998 96.35L2.45001 96.15L2.34998 96.05L2.04999 95.85L2.54999 95.15L2.65002 95.05H2.84998H3.04999H3.25L3.45001 94.95H3.75L4.34998 94.85H4.65002V94.45H5.25V94.15V93.95H5.15002V93.25L4.84998 93.05L4.65002 92.65L4.84998 92.35L5.25 91.95L5.54999 91.55L6.45001 90.65L6.65002 90.45L6.45001 90.35H6.34998L6.25 90.25L6.15002 90.05L6.04999 89.55L6.54999 89.35L6.45001 89.15V89.05V88.85H6.84998V88.75V88.15H6.75H6.65002M6.65002 88.15L6.54999 88.25L6.45001 88.15H6.54999H6.65002ZM6.65002 88.15V88.05H6.84998H6.95001L6.84998 87.95V87.85H6.75L7.04999 87.75V87.65H6.95001L6.84998 87.75H6.75V87.65V87.55H6.65002V87.65H6.54999V87.75V87.85H6.45001L6.34998 87.95L6.25 87.85M6.25 87.85H6.15002V87.75L6.25 87.85ZM6.25 87.85V87.75H6.34998V87.65V87.55L6.45001 87.45L6.25 87.55L5.95001 87.65H5.84998L5.75 87.75H5.65002H5.54999H5.45001H5.34998L5.25 87.65V87.55L5.34998 87.15L5.45001 87.25H5.54999L5.65002 87.15H5.75L5.84998 87.25V87.15H5.95001H6.04999H6.15002V87.05H6.25V86.95H6.15002L6.25 86.85H6.15002H6.04999H5.95001V86.95H5.84998V87.05H5.75V86.95V86.85L5.45001 86.65V86.55L5.54999 86.45H5.65002V86.55H5.95001L6.15002 86.35L6.34998 86.15V86.25V86.35H6.45001H6.54999L6.65002 86.25L6.75 86.15V86.05L6.65002 85.95V85.85L7.04999 85.75H6.95001L6.84998 85.65V85.35L7.15002 85.05V84.95H7.04999V84.85H6.95001V84.75V84.65H6.84998V84.55H6.75V84.45L6.65002 84.35V84.25V84.15V84.05L6.95001 83.55L6.34998 83.05L6.45001 82.95H6.15002V83.05H6.04999L5.95001 83.15H5.84998H5.75V83.25H5.65002L5.54999 83.05L5.34998 83.25L5.54999 83.35H5.45001V83.45H5.34998V83.35H5.25V83.25H5.15002L5.04999 83.15L4.95001 82.75V82.55V81.95L5.15002 81.55V81.45L5.25 81.35L5.15002 81.25L4.84998 81.15V80.95H4.75V80.85L4.45001 80.25L4.34998 80.05V79.95L4.15002 79.55L3.95001 79.05L4.34998 78.95L5.15002 78.65V78.45L5.34998 78.35V78.25V78.15V78.05V77.95L5.45001 77.85L5.54999 77.95L6.04999 78.45L5.95001 78.75L5.75 78.95L5.84998 79.05H5.75L5.45001 79.15L5.34998 79.05L5.15002 79.15V79.25H5.25V79.35L5.15002 79.45L5.34998 79.65L5.45001 79.85H5.65002L5.75 79.95L5.84998 80.05H5.95001H6.04999L6.15002 80.15L6.25 80.25L6.34998 80.35L6.25 80.65H6.15002V80.75V80.95V81.05V81.15H6.25H6.34998H6.45001H6.54999H6.75L6.84998 81.25H6.95001H7.25H7.34998M7.34998 81.25V81.35M7.34998 81.25V81.05V80.95H7.45001V81.05V81.15V81.25H7.54999V81.35H7.65002L7.84998 81.15L7.95001 81.35H8.15002L8.25 81.45H8.34998L8.54999 81.55L8.75 81.15L8.54999 80.95V80.85L8.65002 80.75L8.45001 80.55L8.54999 80.35L8.65002 80.45L8.75 80.35L8.65002 80.25V80.15H8.54999L8.45001 80.05H8.25V79.95H8.15002H8.04999H7.95001L7.84998 79.85L7.65002 79.75L7.75 79.55H7.84998H7.95001L8.04999 79.65V79.55H8.15002H8.25H8.34998H8.45001H8.54999H8.65002L8.75 79.65H8.84998L8.95001 79.85H9.04999V80.05L9.15002 80.15L9.25 80.25H9.34998H9.45001H9.54999H9.65002H9.75V80.15H9.84998V80.05V79.75V79.25L10.05 79.15L9.95001 78.75H9.75L9.45001 78.65H9.15002V78.45H9.34998L9.54999 78.25L9.84998 77.55L9.95001 77.45V77.35L9.75 77.25L8.84998 76.45V76.35L9.15002 75.15V74.95L9.34998 74.35L9.45001 73.85L9.95001 73.35V73.25L9.75 72.55V72.45V72.35V72.15V72.05V71.75L9.84998 71.55L9.95001 71.25L10.05 71.05V70.95H10.15H10.25H10.35V70.85H10.45H10.65L10.75 70.95L10.65 71.05L10.55 71.15H10.65V71.25H10.75H10.85L10.95 71.15H11.05L11.25 71.05L11.55 70.85V70.75L11.95 70.65V70.55L12.15 70.05H12.25L12.85 70.15V69.95V69.65L12.95 69.35V68.95V68.85L12.85 68.75V68.65L12.75 68.55L12.65 68.45V68.35L12.55 68.25V68.05V67.65L12.45 67.55L12.35 67.45L11.95 67.25L11.55 67.05V66.65L11.45 66.55V66.45V66.35V66.25L11.05 66.15V65.85V65.45V65.35H11.15L11.25 65.25V65.15L11.15 64.85L11.55 64.95H11.65H11.85L12.55 64.75H12.65H12.75H12.95L13.65 64.95V64.85L13.75 64.75L13.95 64.35V64.25H14.05L14.35 64.15L14.05 64.05L13.55 63.95L12.85 63.85L12.65 63.55L12.45 63.35L12.25 63.05L12.15 62.85L12.05 62.75L11.35 62.15L11.05 61.95H10.95V60.85V60.25V60.05V59.45V59.15H10.85L10.25 59.25L9.84998 58.95L9.65002 59.05H9.54999V58.95V58.85L9.45001 58.75V58.65V58.55V58.45L9.54999 58.35V58.25V58.05H9.65002V57.95L9.75 57.85L9.84998 57.75V57.65L9.95001 57.55H10.05H10.15L10.25 57.35L10.35 57.25L10.45 57.05L10.55 56.85V56.75H10.45V56.65H10.35V56.55H10.25H10.15L10.25 56.45V56.35H10.15V56.25L10.25 56.15V56.05H10.35H10.45L10.55 56.15H10.65H10.85H10.95H11.15H11.25H11.35L11.45 56.05V55.95V55.85H11.35H11.15H11.05L10.95 55.95L10.85 55.85H10.75H10.65L10.55 55.75V55.65L10.45 55.35V55.25V55.15V55.05H10.55V55.15H10.65V55.25H10.75H10.85L10.95 55.35L11.05 55.25H11.15L11.35 55.15L11.55 55.05L11.65 54.95V54.85L11.75 54.75V54.65L11.85 54.55V54.45L11.75 54.35L11.65 54.25H11.55L11.45 54.35H11.35H11.25H11.15L11.05 54.25L10.95 54.15V54.05L10.85 53.95V53.85V53.75L10.75 53.65L10.65 53.45V53.35L10.55 53.25L10.45 53.15L10.35 53.05H10.25L10.15 52.95L10.05 52.85L9.84998 52.65L10.05 52.35L10.15 52.25H10.05L9.95001 52.05H9.84998V51.95H9.75L9.65002 51.85L9.54999 51.75H9.45001V51.65V51.55H9.34998L9.25 51.45L9.15002 51.35H9.04999V51.25H8.95001L8.84998 51.15L8.75 51.05H8.65002V50.95H8.54999V50.85L8.45001 50.75V50.65H8.34998V50.55L8.25 50.45V50.35H8.15002V50.25V50.15V50.05V49.95H8.04999V49.85L7.95001 49.75V49.65V49.55V49.45H8.04999V49.35V49.25H7.95001V49.15H7.84998V49.05V48.95V48.85V48.75V48.55L7.75 48.35H7.65002V48.45H7.54999V48.55V48.65L7.45001 48.75H7.34998V48.65V48.55L7.25 48.45V48.35H7.15002V48.25L7.04999 48.15H7.15002H7.25V48.05H7.34998L7.45001 47.85V47.75H7.54999H7.65002H7.75H7.84998V47.65H7.75V47.55H7.84998L7.95001 47.65H8.04999L8.15002 47.75H8.25H8.34998V47.65L8.25 47.55V47.45V47.35V47.15V47.05H8.34998V46.95L8.45001 46.85L8.54999 46.75V46.65H8.65002L8.75 46.55L8.84998 46.45V46.35L8.95001 46.25L9.04999 46.15L9.15002 45.95L9.25 45.75V45.65V45.55V45.45L9.34998 45.35H9.45001V45.25H9.54999L9.75 45.05L9.84998 44.95H9.95001H10.05L10.15 45.05V45.15H10.25H10.35L10.45 45.05H10.55V44.95V44.85V44.75V44.65V44.55V44.45L10.45 44.35L10.35 44.15L10.25 43.95V43.85L10.15 43.65H10.05V43.55H9.95001L9.75 43.45H9.65002L9.54999 43.35L9.65002 42.85L9.54999 42.75H9.65002H9.75V42.65L9.65002 42.55V42.45H9.54999V42.55L9.45001 42.65H9.34998V42.55V42.45V42.35L9.45001 42.15V42.05V41.95V41.85V41.75H9.54999H9.65002H9.75H9.84998V41.65L9.75 41.55L9.65002 41.45L9.45001 41.35L9.34998 41.25V41.15V41.05L9.45001 40.95H9.54999H9.65002V41.05H9.75V41.15V41.25H9.84998H9.95001V41.15V41.05V40.95V40.85V40.65V40.55V40.45L9.84998 40.35H9.95001L10.05 40.25L10.15 40.35H10.25L10.35 40.45V40.35H10.45L10.55 40.25V40.15H10.45V40.05V39.95L10.65 39.85H10.75H10.85L10.95 39.75H11.05L11.15 39.65H11.25H11.45H11.55H11.65H11.75L11.85 39.55L11.95 39.45H12.05L12.15 39.35L12.25 39.25V39.15V39.05V38.95V38.85V38.75V38.65V38.55L12.15 38.45V38.35V38.25H12.05V38.15H11.95H11.85H11.75V38.05V37.95H11.85V37.85H11.95V37.75V37.65H12.05H12.15H12.25V37.75L12.35 37.85H12.45V37.75V37.65H12.55V37.55V37.45V37.25V37.15V37.05H12.65H12.75L12.85 37.15H12.95V37.25H13.05L13.15 37.35H13.25V37.25H13.35H13.45L13.55 37.15H13.65V37.05H13.75H13.85H13.95H14.05V37.15V37.25V37.35V37.45V37.55V37.65H14.15H14.25M14.25 37.65V37.75M14.25 37.65H14.35H14.45V37.55V37.45H14.35V37.35H14.25V37.25V37.15V37.05V36.95H14.35V37.05H14.45L14.55 37.15V37.25L14.65 37.35H14.75H14.85H14.95L15.05 37.25H15.15V37.15V37.05V36.95V36.85H15.25H15.35V36.75H15.45H15.55H15.65L15.75 36.65H15.65V36.55H15.55V36.45V36.35H15.65H15.75H15.85V36.25H15.95V36.15V36.05H15.85V35.95H15.95L16.15 36.05V36.15L16.25 36.25L16.35 36.45H16.45V36.55L16.55 36.45L16.65 36.35V36.25H16.75L16.85 36.15H16.95H17.05L17.35 36.25H17.45H17.55H17.65H17.75V36.15H17.85V36.05H17.95V35.95V35.85V35.75L18.05 35.65V35.55L18.15 35.35V35.25L18.35 35.35H18.45L18.75 35.25H18.85L19.15 35.05V35.15V35.25V35.35H19.25H19.75V35.45L19.85 35.65H20.45H20.75H20.85H21.05V35.55H21.15V35.45V35.35L21.25 35.25V35.05L21.15 34.85L21.35 34.75V34.65V34.45V34.35V34.25H21.45L21.55 34.35H21.65H21.75H21.85V34.25V34.15L21.75 34.05V33.95V33.85H21.85V33.75L21.95 33.65H22.05L22.15 33.55H22.25V33.65H22.35H22.45V33.75H22.55H22.65H22.75H22.85H22.95V33.65H23.05L23.15 33.55V33.45V33.35V33.25V33.05V32.95H23.05V32.85V32.75L22.95 32.65L22.85 32.55L22.75 32.45V32.35H22.65V32.25L22.55 32.15H22.45H22.35H22.25L22.15 32.25H22.05H21.95V32.15V32.05V31.95L22.05 31.85V31.75L21.95 31.65L21.85 31.55L21.65 31.45V31.65H21.55L21.45 31.55H21.35V31.45H21.25H21.15V31.35H21.05H20.95H20.85V31.25V31.15H20.75V31.05V30.95V30.85V30.75H20.85L20.75 30.65V30.55V30.45H20.65V30.35H20.75V30.25V30.15V30.05L20.65 29.95H20.55L20.45 29.85V29.75L20.35 29.65L20.15 29.35H20.05H19.95H19.75V29.25H19.65H19.55L19.45 29.15H19.25V29.05H19.15L19.05 28.95L18.95 28.85H18.85H18.75H18.65H18.55V28.75H18.45V28.65H18.55V28.55V28.45H18.65V28.55V28.65H18.75H18.85H18.95H19.05L19.15 28.55V28.45V28.35V28.25L19.05 28.15V28.05L18.95 27.95V27.85V27.75V27.65V27.55V27.45L19.05 27.35L19.15 27.25L19.45 27.35H19.55H19.85H19.95H20.05V27.45H20.15H20.25H20.35H20.45H20.55H20.65L20.75 27.35H20.85H20.95H21.05H21.15V27.25L21.25 27.15V27.05L21.35 26.95V26.85H21.45V26.75L21.55 26.65L21.65 26.55L21.85 26.45L22.05 26.35L22.15 26.25L22.85 25.85H22.95L23.15 25.75H23.25H23.45L23.65 26.45L23.85 26.95L23.95 27.15L24.65 27.65L24.85 27.75H24.95L25.05 27.65V27.55V27.45H25.15L25.25 27.35V27.25H25.35L25.45 27.15H25.55H25.75L25.95 27.05L26.05 26.95H26.15H26.25V26.85H26.35H26.45V26.75H26.55H26.65H26.75H26.85H26.95H27.35H28.35H28.45V25.05L28.35 24.25V23.15V22.65V22.55H28.25V22.65L28.15 22.75H27.95V23.05L27.85 23.15L26.95 22.85L26.35 22.75V22.55H26.25H26.15H26.05H25.95H25.85H25.75H25.65H25.55L25.45 22.65H25.35L25.25 22.75V22.65V22.55L25.35 22.45L25.45 22.35V22.25H25.55V22.15V22.05L25.65 21.85H25.55L25.45 21.75V21.65L25.25 21.25L25.05 20.95L24.25 20.65L23.85 20.45L24.25 19.85L23.65 19.55L23.55 19.45L22.95 19.15L22.45 18.95L22.15 18.75L21.85 18.55L21.45 18.45L20.75 18.05L20.65 17.95H20.55H20.45H20.35L20.25 18.05L20.05 18.15L19.75 18.25V18.35V18.45H19.85V18.55H19.95H20.05H20.15H20.25H20.35H20.45V18.65V18.75H19.45V18.65V18.55V18.45V18.35V18.15L19.55 17.85V17.75V17.55L19.65 17.15H20.15V17.05V16.95V16.65V16.55H19.95L19.85 16.45V16.35L19.95 16.25L19.75 15.95H19.65H19.55V16.05H19.45L19.35 15.75H19.25V15.65V15.55H19.15V15.45H19.05L19.15 15.35V15.25V15.15H19.25V15.05H19.15V14.95H19.05V14.85V14.75H18.95V14.85H18.85V14.75H18.75V14.65H18.85H18.95V14.55V14.45H18.85V14.35V14.25V14.15H18.95H19.05H19.15V14.25H19.25V14.35H19.35V14.25M19.35 14.25H19.45M19.35 14.25V14.05V13.95V13.85H19.45V13.95H19.55V13.85H19.65V13.75V13.65H19.75M19.75 13.65H19.85M19.75 13.65V13.55V13.45H19.85V13.35V13.25V13.15H19.75V13.05L19.55 12.75V12.65V12.55V12.45H19.45H19.35H19.25H19.15L19.05 12.35V12.25L19.25 11.95L19.35 11.75H19.45V11.65H19.55V11.75H19.65V11.85V11.95V12.05V12.15H19.75V12.25H19.85H19.95L20.05 12.15H20.15V12.05L20.25 11.95V11.85H20.35V11.75H20.45H20.55H20.65H20.75V11.85H20.85L20.95 11.75V11.65H21.05V11.45V11.35V11.25H21.15V11.15V11.05H21.25L21.35 10.95L21.45 10.85H21.55H21.65V10.75V10.65H21.55L21.45 10.55V10.45H21.35V10.35H21.45L21.55 10.15L21.65 10.05V9.95V9.85M21.65 9.85H21.75M21.65 9.85V9.75H21.55H21.45H21.35V9.65V9.55V9.45V9.35V9.25H21.25V9.15V9.05H21.15V8.95H21.25V8.85V8.75V8.65H21.35L21.45 8.95L21.75 8.65H21.95L22.35 8.05H22.45L22.65 7.65V7.55V7.45H22.55M22.55 7.45V7.55H22.45M22.55 7.45H22.45V7.55M22.55 7.45V7.35H22.45M22.45 7.55H22.35M22.35 7.55V7.65M22.35 7.55H22.25M22.35 7.55V7.45M22.45 7.35V7.25V7.15M22.45 7.35H22.35H22.25H22.15V7.25L22.25 7.15H22.35V7.05H22.45V7.15M22.45 7.15L22.55 7.05H22.65V6.95V6.85L22.55 6.95H22.45V6.85H22.55L22.65 6.75V6.65H22.55M22.55 6.65V6.75M22.55 6.65V6.55V6.45V6.35H22.65V6.25H22.55V6.15H22.65V6.05L22.75 5.95L22.85 6.05H22.95H23.05V5.95V5.85H22.95V5.75L22.65 5.45L23.05 5.05L23.35 5.35V5.25H23.45V5.05H23.35M23.35 5.05V5.15M23.35 5.05V4.95V4.85V4.75V4.65H23.25V4.55L22.75 4.35V4.25V4.15V4.05H22.65V3.95V3.85H22.75H22.85L22.95 3.95L23.05 4.05L23.15 4.15H23.25H23.35V4.05L23.45 3.95V3.85L23.55 3.65V3.55V3.45H23.65H23.75L23.85 3.35L23.95 3.25L24.05 3.15V3.05V2.95H24.15V2.85V2.75H24.25V2.65L24.55 2.05H25.25L25.65 1.75V1.65L25.95 1.55L26.65 0.85L27.35 0.449999L28.35 1.85L28.25 2.65H28.05H27.95V2.75H27.85V2.85V3.15V3.25V3.35L27.75 3.45L27.65 3.55M27.65 3.55V3.65M27.65 3.55H27.55V3.65L27.45 3.75V3.85L27.55 4.15L27.85 4.35H28.05V4.95L28.85 6.25L29.95 6.15L31.15 5.05L31.65 4.45L32.05 4.05L32.35 3.85L32.65 3.45L32.75 3.35H32.85V3.25L33.15 3.05L33.45 2.65L34.85 2.05L37.35 0.85L37.85 0.65L39.45 0.35L40.15 0.25H40.95H42.45L43.75 0.75L44.25 1.55L44.65 2.65L45.45 4.05L46.45 5.05L48.55 6.45L49.55 7.75L50.75 10.55L51.45 11.45L54.75 13.65L55.55 14.55L56.35 15.85L56.45 15.95V16.05L56.85 16.85L57.15 17.65L57.35 18.45V19.35L56.45 21.25V21.65L56.65 23.05L56.75 25.75L57.05 27.35L57.65 28.75L58.65 30.55L58.85 31.95L58.45 33.15V33.85H60.95L61.95 34.65L63.85 37.05L64.15 37.35L64.85 37.85L65.15 38.15L65.25 38.55L65.45 39.65V39.85L66.05 40.05L66.65 39.75L66.95 39.65H67.55L68.45 40.25L70.15 42.15L71.15 42.85L72.35 44.05L73.05 44.85L74.25 47.65V47.75L74.45 48.05V51.45L73.15 53.05H73.05H72.95V53.15H72.85M72.85 53.15V53.05M72.85 53.15H72.75H72.65V53.25H72.55H72.45H72.35H72.25V53.35H72.15H72.05M72.05 53.35V53.45M72.05 53.35H71.95V53.45H71.85V53.35H71.75V53.25H71.65M71.65 53.25V53.35M71.65 53.25L71.55 53.35H71.45V53.25H71.35H71.25V53.15H71.15H71.05V53.25H70.95H70.85L70.75 53.35V53.25H70.65M70.65 53.25V53.35M70.65 53.25H70.55H70.45H70.35V53.15H70.25H70.15H70.05H69.95M69.95 53.15L70.05 53.05H69.95V53.15ZM69.95 53.15H69.85M69.85 53.15H69.75M69.85 53.15V53.05H69.75V53.15M69.75 53.15H69.65V53.05H69.55H69.45V52.95V52.85H69.35V52.75L69.25 52.85V52.75H69.15L69.05 52.85V52.95L68.95 53.05L68.85 53.15V53.25V53.35H68.75V53.45H68.65V53.55V53.65V53.75H68.55V53.85H68.45H68.35V53.95H68.25L60.05 55.95L58.05 57.15L57.95 57.45L57.65 59.05L58.15 59.85L59.95 60.35L60.65 60.85L60.85 61.45L61.15 63.05L61.35 63.85L61.65 64.45L63.85 66.85L64.45 68.05L64.85 69.45L64.95 71.25L64.85 72.05L64.45 73.55L64.25 74.25L64.35 75.15L64.55 75.85L64.65 76.55L64.55 77.35L64.15 77.85L63.05 78.05L62.75 78.55L62.95 79.25L63.45 79.85L64.45 80.85L65.25 81.35L66.05 81.65L66.95 81.85H67.75L68.75 81.25L69.15 83.95L69.05 83.85H68.95V83.95H68.85V84.05H68.75H68.65L68.55 83.95L68.45 83.85H68.35V83.75L68.25 83.65H68.15H68.05L67.95 83.85L67.85 83.95L67.75 84.05L67.85 84.25H67.95V84.45L68.05 84.65L68.15 84.75V85.05H68.05L67.95 85.15L67.85 85.25V85.35H67.75V85.65V85.75V85.85H67.85V85.95L67.75 86.05H67.65V85.95H67.55V85.85V85.75H67.45V85.65H67.35L67.25 85.75V85.85V85.95V86.25V86.35L67.15 86.55L67.05 86.65V86.75V86.85V86.95H66.95V86.85H66.85L66.75 86.75V86.65H66.65H66.55V86.75H66.45V86.85H66.35H66.25V86.95L66.15 87.05M66.15 87.05H66.25" stroke="white" stroke-width="0.5" stroke-linecap="round" stroke-linejoin="round"/>
</svg>
