<svg width="88" height="137" viewBox="0 0 88 137" fill="none" xmlns="http://www.w3.org/2000/svg">
<path d="M46.25 123.95H46.15L46.05 123.85H45.95V123.75L45.85 123.65V123.55V123.45V123.35L45.95 123.25L46.05 123.15L46.15 123.05L46.25 122.95L46.45 122.85L46.65 122.75L46.85 122.55H46.95L47.05 122.45L47.15 122.35L47.25 122.15L47.35 122.05V121.95L47.45 121.85V121.75V121.65V121.55V121.45V121.35L47.35 121.25L47.25 121.15L47.15 121.05L46.95 120.95H46.75L46.55 120.85L46.35 120.75H46.05H45.85L45.65 120.65H45.55L45.45 120.55L45.35 120.45V120.35L45.25 120.15V120.05L45.35 119.95V119.85V119.75L45.55 119.65L45.95 119.25H46.15L46.35 119.15L46.45 119.05H46.55V118.95L46.65 118.85L46.75 118.75L46.85 118.65V118.55V118.45V118.35V118.25L46.75 118.15V118.05H46.65L46.55 117.85L46.35 117.75H46.25L45.95 117.55L45.85 117.45L45.75 117.35L45.55 117.25H45.45L45.25 117.15H45.15V117.05H45.05H44.95L44.85 116.95L44.75 116.85L44.65 116.75L44.45 116.55L44.35 116.45L44.15 116.15L43.95 115.95L43.85 115.85L43.75 115.65H43.65V115.55H43.55L43.45 115.35L43.35 115.25L43.25 115.05L43.15 114.95L42.95 114.75L42.85 114.65L42.75 114.55H42.65L42.45 114.35H42.35V114.25H42.25L42.15 114.15H42.05V114.05H41.95H41.85H41.65H41.55H41.35H41.15H41.05H40.95L40.85 113.95H40.75H40.65L40.55 113.85H40.45H40.35H40.25L40.05 113.75H39.95L39.85 113.65L39.75 113.55L39.65 113.45H39.55V113.35L39.45 113.15L39.35 113.05V112.95H39.25V112.85H39.15L39.05 112.75L38.95 112.65L38.85 112.55H38.75L38.65 112.45H38.55L38.35 112.35L38.25 112.25L38.15 112.15H38.05H37.95L37.85 112.05H37.75L37.55 111.95L37.45 111.85L37.35 111.75L37.25 111.65V111.45V111.35V111.25V111.15L37.35 111.05H37.45V110.95H37.55L37.75 110.75V110.65L37.85 110.55L37.95 110.45L38.05 110.35L38.15 110.15V110.05L38.25 109.95H38.15V109.85V109.75H38.05V109.65H37.95V109.55H37.85L37.75 109.45H37.65L37.55 109.35L37.45 109.15H37.35L37.25 109.05H37.05L36.95 108.95H36.85L36.75 108.85L36.65 108.75H36.55H36.45H36.35L36.25 108.85H36.15V108.95H36.05V109.05V109.15V109.25V109.35V109.45L36.15 109.55L36.25 109.75L36.35 109.85L36.55 110.05L36.65 110.35V110.45V110.55V110.65V110.75H36.55L36.45 110.85V110.95H36.25H36.15H36.05H35.95H35.75L35.65 110.85H35.55L35.35 110.75L35.05 110.65H34.85L34.65 110.55L34.55 110.45L34.45 110.35H34.35H34.25H34.15L34.05 110.25L33.95 110.15L33.75 110.05H33.65H33.55L33.45 109.95H33.25L33.15 109.85L33.05 109.75H32.95H32.85H32.75H32.65H32.55L32.45 109.65L32.35 109.75H32.15H32.05L31.95 109.85H31.85V109.95H31.75V110.05V110.15V110.25V110.35V110.45V110.55V110.65V110.75V110.85L31.85 110.95V111.05V111.25L31.95 111.35H31.55H31.15H31.05H30.95V111.15V111.05V110.95V110.85L30.85 110.75H30.75V110.65H30.65H30.55H30.45H30.35L30.25 110.75H30.15L29.95 110.85H29.85L29.75 110.95H29.65L29.55 110.85H29.45H29.35H29.25V110.75H29.15V110.65L29.05 110.55V110.45V110.35V110.25V110.15V110.05V109.95H28.95V109.85V109.75L28.85 109.65V109.55V109.45H28.75H28.65L28.55 109.35L28.35 109.25H28.25L28.05 109.15H27.85H27.75H27.65H27.55H27.35H27.25H27.15H27.05H26.85H26.65H26.55V109.25H26.45V109.35L26.35 109.45V109.55L26.25 109.65V109.75V109.95L26.15 110.25V110.45L26.05 110.55L25.95 110.65L25.85 110.75H25.65H25.45H25.35H25.25H25.15V110.65H25.05V110.55V110.45V110.35L25.15 110.15V109.95L25.25 109.85L25.35 109.65L25.45 109.55V109.45L25.55 109.25L25.65 109.15V108.95L25.75 108.75L25.85 108.65V108.55L25.95 108.35V108.25L26.05 108.05V107.95V107.75L26.15 107.65V107.55V107.45V107.35V107.25V107.05V106.95V106.85V106.75V106.65V106.45V106.35V106.25V106.15V106.05V105.95V105.85V105.75L26.25 105.65V105.55L26.35 105.45L26.45 105.35V105.25V105.15L26.55 104.95V104.85V104.75V104.65V104.55V104.45L26.45 104.35V104.25L26.35 104.15H26.25H26.15H26.05H25.95L25.85 104.25L25.75 104.35L25.65 104.45L25.55 104.55L25.45 104.65V104.75H25.35V104.85H25.25H25.15V104.95H25.05L24.95 104.85H24.85L24.75 104.75L24.65 104.65H24.55L24.45 104.55L24.35 104.45H24.25H24.15V104.55V104.65V104.75V104.85L24.25 104.95V105.05L24.35 105.15H24.45V105.25L24.55 105.35V105.45L24.45 105.55V105.65H24.35V105.75H24.25V105.85L23.95 106.05L23.75 106.25L23.55 106.55L23.45 106.65H23.35H23.25L23.15 106.75V106.85V106.95H23.05V107.05H22.95V107.15V107.25V107.35L23.05 107.45V107.55H23.15L23.25 107.65V107.75V107.85V108.05V108.15V108.25V108.35V108.45V108.55V108.65L23.15 108.75V108.95L23.05 109.05H22.95L22.85 109.25H22.75H22.65H22.55L22.35 109.15L22.25 109.05L22.15 108.95L22.05 108.85H21.95L21.85 108.75V108.65H21.75L21.65 108.55H21.45V108.45V108.35V108.25V108.15V108.05V107.95L21.35 107.85V107.75V107.65V107.55V107.45V107.35V107.25V107.15L21.25 107.05L21.15 106.75L21.05 106.65V106.45V106.35V106.25L20.95 106.05V105.95V105.85L20.85 105.75L20.75 105.55L20.65 105.45L20.55 105.25V105.05L20.45 104.95V104.85V104.75V104.65H20.55V104.55L20.65 104.45L20.75 104.35L21.05 104.25L21.15 104.15L21.35 104.05L21.45 103.95L21.55 103.85L21.65 103.75L21.75 103.65L21.85 103.55V103.45H21.95V103.35V103.25V103.15L21.85 103.05L21.75 102.95L21.55 102.85L21.45 102.75H21.35L21.25 102.65V102.55V102.45L21.15 102.35H21.05L20.95 102.25L20.85 102.15H20.65L20.55 102.05H20.45L20.25 101.95V101.85L20.15 101.75H20.05V101.65L19.95 101.55H20.05L20.15 101.45V101.35V101.25L20.05 101.15V101.05V100.95H19.95V100.85V100.75V100.65V100.55V100.45V100.35V100.15L20.05 100.05V99.95L20.15 99.85V99.75L20.35 99.55L20.45 99.45V99.35L20.35 99.25L20.25 99.15H20.15H20.05V99.25H19.95V99.35H19.85L19.75 99.45V99.55L19.65 99.65V99.75L19.75 99.85L19.65 99.95H19.55L19.45 100.05V100.15H19.35L19.45 100.25H19.35V100.35H19.25H19.15V100.45H19.05H18.95V100.15H18.85H18.55H18.45L18.35 100.05H18.45V99.95H18.35V99.85H18.25H18.15L18.05 99.75L17.85 99.65H17.75H17.65H17.55V99.55H17.45H17.35L17.25 99.45H17.15L17.05 99.35V99.25V99.15H16.95L16.85 99.05H16.75H16.65H16.55V98.95H16.45V98.85H16.35H16.25V98.75V98.65H16.15V98.55H16.05L15.95 98.45L15.85 98.35L15.75 98.25H15.65V98.15H15.55L15.45 98.05H15.35V98.15H15.25L15.15 98.25L15.05 98.35H14.95V98.45H14.85V98.55H14.75L14.65 98.65L14.45 98.75L14.15 98.95H14.05H13.95L13.65 99.15L13.35 99.25L13.15 99.35L12.85 99.45L12.75 99.55V99.35V99.25V99.15V99.05H12.85L12.95 98.95L13.05 98.85V98.75L13.15 98.65V98.55V98.45V98.35L13.05 98.25V98.15L12.95 98.05L12.85 97.95L12.75 97.85L12.65 97.75L12.55 97.65V97.55V97.45L12.45 97.35L12.35 97.25H12.25L12.15 97.15L12.05 97.05H11.95L11.85 96.95L11.75 96.85L11.65 96.75H11.55V96.65H11.45H11.35V96.55H11.25V96.45L11.15 96.35V96.25V96.15H11.05L10.95 96.05H10.85V95.95H10.75L10.65 95.75L10.45 95.65L10.35 95.55V95.45H10.25V95.35L10.15 95.25V95.15L10.05 95.05H9.95H9.84999H9.75L9.64999 94.95V94.85V94.75V94.65V94.55H9.75V94.45V94.35V94.25V94.15V94.05V93.95V93.85H9.84999V93.75H9.95H10.05H10.15V93.65V93.55V93.45V93.35H10.25V93.25V93.15L10.15 92.85H10.05L10.15 92.75L10.25 92.65L10.35 92.55L10.55 92.65V92.55H10.65L11.05 92.65L11.55 92.75L11.65 92.95L11.75 92.75L11.95 92.85H12.05L12.45 93.05H12.55V93.15L12.65 93.05L12.75 93.15V93.35H12.95H13.05H13.15L13.55 93.45H13.65L13.75 93.35L13.85 93.45H13.95H14.05V93.35L14.15 93.15V93.05V92.95V92.85H13.95V92.55H13.85V92.65V92.85H13.65L13.55 92.75L13.35 92.65L13.15 92.55L13.25 92.45V92.35V92.25H13.35L13.45 92.15V92.05H13.55L13.45 91.95V91.85V91.75V91.65L13.35 91.55L13.25 91.45V91.35L13.35 91.25V91.15V91.05V90.95V90.85H13.45V90.75V90.65H13.55V90.55V90.45L13.65 90.35V90.25V90.15V90.05V89.95V89.85H13.45V89.75L13.25 89.65H13.15L13.05 89.55H12.95V89.45L12.45 89.15H12.35V89.05L12.25 89.15L12.15 89.25H12.05H11.95H11.85L11.65 89.15H11.55H11.35H11.25H11.15H10.95H10.85V89.05H10.75H10.55H10.45H10.35H10.05H9.84999H9.64999V88.95H9.54999H9.45V88.85L9.34999 88.75V88.65V88.55H9.25V88.45L9.14999 88.35V88.25V88.15H9.04999L8.84999 87.95L8.75 87.85H8.64999V87.75H8.54999V87.65H8.45V87.55L8.34999 87.35V87.25H8.25L8.14999 86.95L8.04999 86.85L7.95 86.75L7.84999 86.65V86.55V86.45H7.75L7.64999 86.55L7.54999 86.65V86.55H7.45V86.45V86.35H7.34999H7.25V86.25L7.34999 86.15V86.05V85.95H7.25V85.85V85.75L7.34999 85.65V85.55V85.45V85.35V85.25V85.15L7.45 85.05L7.64999 84.85L7.75 84.75L7.84999 84.65L7.95 84.55L8.04999 84.45L8.14999 84.35L8.34999 84.05L8.64999 83.85L8.75 83.75L8.84999 83.65V83.55L8.95 83.35V83.25H9.04999V83.15L9.25 82.65L9.45 82.35L9.75 82.15L10.05 81.85L10.15 81.75H10.25V81.65H10.45L10.55 81.55L10.65 81.45L10.85 81.35L11.15 81.25V81.05V80.95V80.85V80.75L11.05 80.65H10.95L10.85 80.55H10.65H10.55H10.45H10.35H10.25L10.15 80.45H10.05H9.95L9.84999 80.35H9.75L9.64999 80.25H9.54999V80.15H9.45L9.34999 79.95H9.25V79.85H9.14999V79.75H9.04999H8.95V79.65L8.84999 79.55H8.75V79.45H8.64999H8.54999L8.34999 79.35V79.25H8.25L8.14999 79.15L8.04999 79.05H7.95H7.84999H7.75H7.64999H7.54999H7.45L7.34999 78.95H7.25L7.14999 78.85H7.04999L6.95 78.75H6.84999H6.75V78.65H6.64999V78.55V78.45V78.35V78.15V78.05V77.95V77.85L6.54999 77.55V77.35L6.45 77.05H6.34999H6.25L6.14999 76.95H6.04999H5.95H5.84999V76.85V76.55V76.35L5.95 76.25V76.15V75.95V75.75V75.55V75.45H6.04999V75.35V75.25H5.95V75.15V75.05L5.84999 74.95V74.85V74.75V74.55V74.35V74.15L6.14999 74.25L6.25 74.05V73.95L6.34999 73.85L6.45 73.95V73.85V73.75L6.54999 73.65V73.55V73.45L6.64999 73.35V73.25V73.15V72.95L6.95 73.05V72.85V72.55L7.04999 72.35V72.25H7.14999H7.25H7.34999H7.45V72.15L7.34999 72.05L7.25 71.95L7.14999 71.85L7.04999 71.75H6.95V71.65H6.75L6.64999 71.55V71.45H6.54999L6.45 71.35L6.34999 71.25L6.25 71.15V71.05L6.14999 70.95V70.85L6.04999 70.75V70.65V70.45V70.35H5.95V70.25L6.04999 70.15V70.05L5.95 69.95V69.85V69.75L5.84999 69.55V69.45V69.35H5.95V69.25V69.15H5.84999L5.75 69.05H5.45H5.25L5.04999 68.75H4.95L4.34999 69.35L4.25 69.45H4.04999H3.75H3.54999H3.34999V69.35H3.45V69.25L3.34999 69.15H3.25V69.05L3.14999 68.95V68.75V68.65V68.55H3.04999V68.45L3.14999 68.25V68.15V68.05V67.95V67.85V67.75V67.65L3.04999 67.55V67.45V67.35H3.14999V67.25V67.15V67.05V66.95H3.04999V66.85V66.75V66.65H2.95V66.55V66.45V66.35H2.84999V66.25L2.75 66.15V66.05H2.84999L2.95 65.95V65.85V65.75V65.65V65.55L2.84999 65.45L2.75 65.35V65.25V65.15H2.64999V65.05L2.54999 64.95V64.85L2.45 64.75V64.65H2.34999L2.25 64.55L2.14999 64.45L2.04999 64.35V64.25H1.95V64.15V64.05V63.95L1.84999 63.85V63.75V63.65H1.75V63.55V63.45H1.64999V63.35V63.25V63.15L1.75 63.05L1.64999 62.95V62.85H1.54999V62.75H1.45L1.34999 62.65V62.55L1.25 62.45L1.14999 62.25H1.04999V62.15V62.05L0.949997 61.95V61.85H0.849991V61.75H0.75H0.649994V61.65V61.55L0.849991 61.45V61.35V61.15V61.05H0.949997V60.95H0.849991V60.85H0.75V60.75H0.649994L0.549988 60.65H0.449997V60.55V60.45V60.35V60.25V60.15V59.95V59.85L0.549988 59.75V59.65V59.55H0.449997V59.45V59.15V59.05V58.95L0.349991 58.75V58.65V58.55V58.45V58.25V58.15V58.05V57.95L0.25 57.85H0.349991V57.75H0.449997H0.549988V57.65V57.55V57.45V57.35V57.25V57.15V57.05H0.649994V56.95V56.85H0.75V56.75V56.65H0.849991V56.55L0.75 56.45V56.25V56.15L0.649994 56.05V55.95V55.85V55.75V55.65H0.549988V55.55V55.45V55.35V55.25V55.15H0.449997V55.05V54.95L0.349991 54.85H0.25L0.349991 54.75H0.449997L0.549988 54.65H0.649994H0.75H0.849991V54.75V54.85L1.04999 54.75H1.25H1.45H1.64999H1.84999L2.04999 54.65H2.25H2.34999L2.45 54.75V54.65V54.55H2.54999H2.64999V54.65H2.75H2.95H3.25H3.45H3.64999H3.95H4.04999V54.45L4.14999 54.25V54.05L4.25 53.85V53.75L4.34999 53.65V53.55H4.45V53.45H4.54999L4.95 53.55H5.14999H5.25V53.45H5.34999V53.35H5.45V53.25H5.54999V53.15H5.64999L5.75 53.05H5.84999H5.95V53.15L6.04999 53.25V53.35V53.45V53.55V53.65V53.75V53.85L6.14999 54.05H6.25H6.34999L6.45 53.95V53.85V53.75V53.65V53.55V53.45L6.34999 53.35L6.25 53.25L6.34999 53.15L6.25 52.85L6.14999 52.75V52.55H6.64999V52.45H6.75H6.84999H7.04999L7.25 52.55H7.34999H7.64999H7.75V52.15V52.05L7.84999 52.15H7.95H8.04999V52.05H7.95V51.95V51.85H8.04999V51.75H8.14999H8.25L8.45 51.85H8.54999H8.64999V51.95V52.05V52.15L8.75 52.25V52.35H8.84999L8.95 52.45H9.04999H9.25H9.34999L9.45 52.55H9.54999H9.64999L9.75 52.35H9.64999V52.25V52.15H9.54999V52.05V51.95H9.64999V51.85H9.54999V51.75H9.45H9.34999V51.65H9.45L9.54999 51.55L9.64999 51.45H9.75V51.35H9.84999H9.95H10.05H10.25L10.35 51.45H10.45L10.65 51.65L10.75 51.75H10.95L11.15 51.85H11.45H11.55V51.75V51.55L11.45 51.45V51.35L11.25 51.25H11.15H11.05L10.95 51.15H11.25H11.55H11.65H11.75H11.85H11.95V51.25L11.85 51.35H12.05H12.15L12.25 51.25V51.15V51.05H12.35V50.95V50.85L12.45 50.75V50.65V50.55V50.45H12.65V50.35V50.25V50.15V50.05H12.75V49.95V49.85V49.75V49.65V49.55L12.85 49.35H12.95L13.25 49.45L13.65 49.65V49.55L13.75 49.45V49.35L13.85 49.25V49.15H13.95L14.05 48.95L13.95 48.85V48.75L13.85 48.65V48.55V48.45L13.95 48.15V47.95V47.75L14.05 47.65H14.15H14.25H14.35L14.25 47.55V47.45V47.35V47.15V46.95V46.75L14.35 46.25V46.05L14.45 45.85V45.55V45.35V45.25V45.15L14.55 45.05L14.45 44.75L14.55 44.65V44.55L14.65 44.35L14.75 44.15L14.95 43.65V43.55L15.15 43.25L15.25 42.95L15.35 42.65L15.45 42.45L15.55 42.25V42.15L15.65 41.95V41.85L15.75 41.95H15.95L16.05 42.05H16.15V42.15H16.25L16.35 42.25H16.45L16.65 42.35H16.75V42.45H16.85V42.55L17.15 42.85L17.35 43.15L17.55 43.35V43.45V43.55H17.65V43.65H17.75L17.85 43.75H17.95L18.25 43.55L18.15 43.35L18.45 43.15L18.55 43.05L18.65 42.85L18.85 42.65L19.25 42.35L19.35 42.45L19.45 42.25L19.55 42.15L19.85 41.85L20.05 41.55L20.15 41.45L20.25 41.35V41.25L20.35 41.15V41.05H20.25V40.95L20.15 40.85V40.75H20.05L19.85 40.45L19.75 40.35V40.25L19.45 40.15H19.25L19.15 40.05L19.05 39.95H18.95V39.85V39.75H18.85L18.65 39.55L18.55 39.45H18.45L18.35 39.35L18.15 39.25L18.25 39.15L18.35 39.05V38.85V38.55L18.85 38.65L18.95 38.55V38.45L19.05 38.35V38.25V38.15V38.05V37.95V37.85V37.75H18.95V37.65V37.55L18.85 37.45V37.35V37.25V37.15H18.75V36.95V36.85V36.65V36.55V36.45V36.15V35.95V35.85V35.75L18.65 35.55V35.35V35.15L18.75 34.85V34.75H18.85H19.05V34.85H19.15L19.35 35.15L19.45 35.25H19.65H19.75L19.85 35.35H19.95V35.45H20.05H20.15H20.25H20.35H20.45H20.55H20.65H20.75H20.85H20.95V35.55L21.05 35.45V35.55H21.15H21.25H21.35V35.65H21.45V35.75L21.55 35.65H21.65L21.75 35.55V35.45V35.35V35.25V35.15L21.85 35.05V34.95V34.85V34.75H21.95H22.05H22.15V34.65L22.25 34.55V34.45L22.15 34.35V34.25H22.25H22.35H22.45H22.55H22.65H22.75L22.85 34.35H22.95H23.05H23.15H23.25L23.65 33.95H23.75V34.05H23.85L24.05 34.15H24.15H24.25L24.35 34.25H24.45L24.55 34.35H24.65H24.75L24.85 34.45H24.95L25.05 34.55H25.15V34.65V34.75V34.85H25.25H25.35H25.45H25.55H25.65L25.75 34.95H25.85H25.95H26.05H26.25L26.45 35.05H26.55L26.65 34.95H26.85L26.95 34.85L27.05 34.75V34.65V34.55V34.25H27.45V34.05H27.75V34.25V34.35H27.85L27.95 34.45L28.05 34.35H28.15V34.45V34.55H28.25H28.35H28.45V34.65H28.55H28.65H28.75H28.85V34.75H28.95V34.65H29.05V34.55H29.15V34.45L29.25 34.35L29.35 34.25V34.15V34.05V33.95H29.25V33.85H29.15V33.75H29.25V33.55L29.35 33.45H29.45L29.55 33.35H29.65V33.25V33.15V33.05H29.55H29.45L29.55 32.95V32.85L29.65 32.75H29.75H29.85H29.95H30.05H30.15L30.25 32.65H30.35V32.55H30.45H30.55H30.65L31.05 32.45L31.45 32.25V31.95H31.55H31.65H31.75H31.85H31.95H32.05V32.05H32.15V31.95H32.25H32.35L32.45 31.85H32.55H32.65L32.85 31.75H32.95H33.15H33.25L33.45 31.65V31.55V31.45V31.35H33.35V31.25V31.15H33.25V31.05V30.95H33.35L33.45 30.85H33.55H33.65H33.75V30.75V30.65V30.55V30.45V30.35V30.25L33.85 30.15V30.05L33.95 29.95V29.85V29.75L34.05 29.65V29.45L34.15 29.35V29.25V29.15L34.05 29.05V28.95L33.95 28.85V28.75H33.85V28.65H33.75V28.55V28.45H33.65V28.35V28.25H33.55V28.15V28.05V27.95L33.65 27.75V27.65L33.75 27.55L33.85 27.45V27.35L33.95 27.25V27.15V27.05H34.05V26.95V26.85V26.75V26.65V26.55V26.45H34.15V26.35H34.25H34.35V26.45L34.45 26.35H34.55L34.65 26.25L34.75 26.15H34.85L34.95 26.25H35.05H35.15H35.25L35.35 26.35H35.45H35.55L35.65 26.25V26.15H35.75V26.05H35.85H35.95H36.05V25.95V25.75H35.95L35.85 25.65L35.65 25.45H35.55L35.45 25.55H35.35V25.45H35.25H35.15H35.05V25.35H34.95H34.85V25.25V25.15V25.05L34.75 24.95V24.85V24.75L34.85 24.65L34.95 24.45V24.25L35.05 24.05H35.15L35.25 23.75L35.35 23.65L35.25 23.55V23.35L35.15 23.25V23.15L35.05 23.05V22.95V22.85L34.95 22.75V22.65V22.55H34.85V22.35H34.75L34.55 22.25L34.35 22.15H34.15L33.95 22.05H33.75L33.55 21.95H33.45L33.35 21.85L33.25 21.75H33.15L33.05 21.65H32.85V21.55H32.75L32.65 21.45L32.55 21.35L32.45 21.25L32.15 21.05V20.95L32.35 19.85L32.45 19.95H32.55H32.75V19.75L32.85 18.45L32.95 17.65H33.05L33.15 17.55H33.25H33.45L33.65 17.45H33.85L33.95 17.35V17.45V17.55H34.05H34.15H34.25V17.45H34.35V17.35H34.45H34.75H35.05H35.15H35.35H35.55H35.65V17.25H35.75H35.85H35.95L36.05 17.15H36.15L36.25 17.05H36.35V16.75L36.45 16.45V16.35L36.55 16.05V15.75H36.65V15.65V15.55H36.85V15.45H36.95H37.05L37.25 15.35V15.25V15.15V14.85L37.55 14.75V14.55L37.45 14.05V13.95V13.85H37.75H38.05L37.95 13.55L38.25 13.45L38.75 13.35L39.15 13.25V13.15V13.05V12.95L39.05 12.85V12.65L38.95 12.45V12.25H38.65L38.35 12.15H38.15H37.95L37.75 12.05H37.65H37.55H37.45V11.95L37.35 11.85L37.25 11.65L37.15 11.55V11.45V11.35V11.05V10.35V9.84999V9.75V9.64999V9.45L37.25 9.34999L37.35 9.25L37.45 9.14999L37.65 8.95L38.05 8.64999L38.25 8.45L38.55 8.14999H38.65L38.95 8.25H39.25H39.45H39.65L39.75 8.34999H39.85L39.95 8.45V8.54999H39.85L39.75 8.64999V8.84999V8.95H39.95L40.25 9.04999H40.45L40.85 9.14999H41.25L41.75 9.25L42.25 9.34999H42.35H42.45H42.55V9.25L42.65 9.04999L42.75 8.95V8.84999L42.85 8.75L42.95 8.64999V8.45L43.05 8.34999L43.15 8.25V8.04999H43.25V7.95L43.35 7.84999V7.75V7.64999H43.45V7.54999L43.55 7.45V7.34999L43.75 7.45H43.85V7.54999H43.95L44.15 7.75L44.35 7.84999L44.55 7.95L44.75 8.14999L44.95 8.25L45.05 8.34999L45.25 8.45H45.35L45.55 8.75L45.75 8.95V9.04999L45.85 9.14999L46.05 9.25H46.15L46.45 9.04999L46.75 8.84999L48.05 8.04999V7.95H48.15V7.84999H48.25L48.35 7.75H48.45L48.55 7.64999L48.75 7.54999L48.95 7.45L49.15 7.25H49.25L49.45 7.14999V7.25H49.55L49.65 7.34999L49.75 7.54999L49.95 7.75H50.05H50.15H50.35L50.45 7.64999H50.55H50.65H50.75H50.85H50.95V7.54999V7.45H51.05L50.95 7.34999H51.05V7.25L51.15 6.84999L51.25 6.54999L51.75 6.64999V6.75L52.15 6.84999H52.25L52.35 6.95L52.55 7.04999L52.65 7.14999H52.75H53.05L53.25 7.04999H53.35H53.55H53.65H53.85L54.15 6.84999H54.35L54.55 6.75L54.65 6.64999H54.75V6.75H54.85H54.95H55.05H55.15H55.25L55.35 6.84999H55.45H55.55L55.65 6.95V6.84999H55.75V6.95H55.85H55.95V6.84999H56.05H56.15H56.25L56.35 6.75H56.45H56.55V6.64999H56.65L56.75 6.54999H56.85H56.95H57.05V6.45H57.15H57.35V6.34999H57.45H57.55H57.65V6.25H57.75V6.14999H57.85L57.95 5.84999L58.25 5.45L58.35 5.25L58.45 5.14999V5.04999V4.84999H58.35V4.75H58.45V4.64999V4.54999L58.55 4.45H58.65V4.34999L58.75 4.04999V3.95H58.85H58.95L59.05 3.84999H59.15V3.75L59.35 3.54999L59.55 3.25L59.75 2.95L59.85 2.75L60.45 2.25L60.55 2.14999L61.05 1.75V1.64999V1.45V1.34999V1.25H61.15L61.25 1.14999H61.35L61.55 1.04999H61.75H61.85H61.95L62.05 0.949997L62.15 1.04999H62.25L62.45 1.14999L62.55 1.04999H62.65L62.75 0.949997H62.85L62.95 1.04999H63.05H63.15V1.25H63.25V1.34999L63.35 1.45V1.54999V1.64999H63.45V1.84999L63.55 1.95H63.75H63.85H63.95H64.15H64.25H64.35V1.84999H64.55V1.95V2.04999V2.14999H64.65L64.85 2.25L64.95 2.34999H65.05L65.15 2.45V2.54999L65.25 2.64999L65.35 2.75V2.84999V2.95V3.04999V3.14999V3.25H65.45H65.55H65.65H65.75H65.85H65.95L66.05 3.14999L66.35 2.84999L66.55 2.64999L66.65 2.54999L67.05 2.14999L67.25 1.95L67.35 1.84999L67.45 1.75L67.55 1.64999L67.65 1.45H67.75L67.85 1.25H67.95V1.14999H68.05H68.15L68.25 1.25H68.35L68.65 1.45H68.75V1.54999H69.05H69.15L69.35 1.64999L69.95 1.84999L70.35 2.04999L70.55 2.14999L71.25 2.45L71.65 2.54999H71.75V2.64999H71.85H71.95H72.05V2.75H72.15H72.35L72.45 2.84999H72.55H72.65L72.85 2.95H72.95L73.15 3.04999H73.25H73.35V2.95H73.25L73.35 2.84999V2.75V2.64999L73.45 2.54999V2.45L73.55 2.34999V2.25H73.45V2.14999H73.55V2.04999L73.85 1.64999L73.95 1.45L74.25 1.04999V0.949997L74.35 0.849991H74.45L74.55 0.649994L74.65 0.549988H74.95H75.15H75.45H75.55H75.75H75.85L75.95 0.449997L75.85 0.25H75.95H76.15V0.349991V0.449997V0.549988V0.649994V0.75V0.849991V0.949997L76.05 1.04999H75.95V1.14999V1.25V1.45V1.64999V1.75H75.85V1.95H75.95V2.25V2.45V3.14999H75.85H75.75H75.65H75.55H75.35L75.25 3.04999V3.14999H75.15H75.05L74.95 3.25H74.85V3.34999H74.75H74.65L74.55 3.25L74.45 3.14999H74.35V3.25V3.45V3.54999V3.64999V3.84999V3.95V4.14999H74.45L74.65 4.04999L74.55 4.14999L74.35 4.75L74.05 5.75L74.75 6.04999L74.65 6.14999L74.75 6.34999L74.85 6.45L74.95 6.54999H75.05V6.64999H75.25H75.45H75.55L75.65 6.75H75.75V6.84999H75.85L76.05 7.14999V7.25H75.95L75.75 7.34999L75.65 7.45V7.54999V7.64999H75.75V7.75L75.85 7.84999L75.95 8.04999L76.05 8.14999L76.15 8.25L76.05 8.34999H75.95V8.45H75.85V8.54999V8.64999L75.95 8.75V8.84999L75.55 8.95H75.45V9.04999V9.14999H75.55V9.25H75.65V9.34999H75.75V9.45H75.85V9.54999H75.95V9.64999H76.05L76.15 9.75H76.25V9.84999V9.95V10.05H76.35H76.45H76.55H76.65V9.95H76.75L76.85 9.84999H76.95H77.05L77.15 9.95H77.25L76.95 10.65L76.85 10.75V10.85V10.95L77.05 11.05L77.15 11.15H77.25L77.35 11.25L77.45 11.35L77.65 11.45L77.75 11.55L77.85 11.65L77.95 11.75L78.25 11.95V12.05H78.35L78.45 12.15L78.55 12.25L78.75 12.35V12.55V12.65V12.75V12.85V12.95V13.15L78.25 13.25H78.15H78.05H77.75H77.65H77.55H77.45H77.25L77.05 13.35H76.95H76.85H76.75H76.45H76.35L76.15 13.45H76.05H75.95H75.55L75.35 13.55H75.15H75.05V13.65H75.15V13.75V13.85V13.95H75.25V14.05V14.15V14.25V14.35V14.45L75.15 14.55V14.65V14.75L75.05 14.95V15.05L75.35 15.25L75.15 15.75V15.95V16.05L75.35 16.15H75.65L75.75 16.25L75.85 16.35H75.95V16.45H76.05V16.55H76.15V16.65V16.85V16.95H76.25V17.05H76.35V17.15L76.25 17.25H76.35V17.35V17.45H76.45V17.55H76.35V17.65H76.25H76.05H75.95V17.75V17.85V18.05V18.15L75.85 18.35H75.75H75.65H75.55H75.45H75.35H75.25H75.15H75.05V18.45H74.95L74.85 18.55L74.75 18.65H74.65V18.75H74.55V18.85H74.45L74.35 18.95H74.25V19.05H74.15H74.05V19.15H73.95L73.85 19.25V19.35L73.95 19.45V19.35H74.05L74.15 19.45H74.25H74.35V19.55H74.45V19.65H74.55H74.65H74.75H74.85H74.95H75.05V19.75H75.15H75.25H75.35L75.25 19.95H75.35H75.45H75.55V20.05V20.15L75.45 20.25V20.35V20.45V20.55L75.35 20.65V20.85L75.25 20.95V21.05V21.15V21.35V21.45V21.55H75.15V21.65V21.75V21.85H75.05H74.95H74.85H74.65H74.55H74.45H74.35H74.25H74.15H74.05L73.95 21.75H73.85H73.75H73.65H73.55V21.85V21.95H73.45V22.05L73.55 22.25H73.45V22.35H73.35L73.25 22.45H73.15H73.05H72.95L72.85 22.55V22.65L72.75 22.75V22.85V22.95V23.05H72.65H72.55L72.45 23.15V23.25V23.65V23.75V23.85V23.95V24.05L72.35 24.15L72.25 24.25V24.35L72.35 24.65L72.55 25.05V25.15L72.65 25.65V25.75H72.75L72.85 26.25V26.45L72.95 26.55L73.05 26.85L73.25 27.15L73.35 27.35H73.25H73.15L73.05 27.45L72.95 27.55H72.85H72.75V27.65H72.65L72.55 27.75H72.45V27.85H72.25L72.15 27.95H72.05V28.05H71.95V28.15V28.25V28.35H71.85V28.45L71.75 28.55V28.65L71.65 28.75V28.95V29.15V29.25L71.75 29.35L71.95 29.45H72.15H72.25L72.55 29.55L72.65 29.65V29.75H72.75H72.85H72.95V29.85L73.15 29.95V30.05V30.15V30.25V30.35V30.45V30.55H73.25L73.35 30.65V30.75H73.45H73.55V30.85H73.65V30.95H73.75H73.85V31.05H73.95H74.05H74.15H74.25H74.35V31.15H74.45L74.55 31.25H74.65L74.75 31.35H74.85V31.45L74.95 31.65H75.05V31.75L74.95 31.95L74.75 32.05V32.15L74.65 32.25V32.35H74.55V32.45L74.45 32.55L74.35 32.65L74.15 32.95H74.05V33.05H73.95V33.15V33.25H74.05H74.15H74.25H74.35V33.35L74.25 33.45V33.55V33.65V33.75H74.35V33.85L74.25 33.95V34.05H74.35V34.15H74.45L74.55 34.25V34.35V34.45V34.55V34.65H74.65L74.75 34.75V34.85H74.85V34.95L74.95 35.05V35.15V35.25H75.05H75.15H75.25H75.35H75.45V35.35V35.45V35.55V35.65V35.75V35.85H75.55V35.95V36.05H75.65H75.75V36.15H75.85V36.25V36.35H75.95V36.45L76.05 36.55V36.65H75.95V36.75V36.85V36.95V37.05H76.05V37.15H76.15H76.25V37.25L76.35 37.35V37.45H76.45V37.55V37.65L76.25 38.15V38.25V38.35V38.45H76.35V38.55H76.45V38.65H76.55H76.65L76.75 38.75H76.95H77.05L77.15 38.85H77.05V38.95V39.05H76.95H76.85V39.15V39.25L76.95 39.35V39.45V39.55V39.65V39.75L77.05 39.85V39.95L77.15 40.05V40.15V40.25V40.35V40.45V40.55V40.65V40.75V40.85V40.95L77.25 41.05V41.15L77.15 41.25H77.05L76.95 41.35L76.75 41.55H76.65V41.65H76.55H76.45V41.75H76.35H76.25L76.15 41.85H76.05H75.95H75.85V41.95H75.75V42.05V42.15L75.65 42.25V42.35L75.55 42.45L75.45 42.55L75.35 42.65H75.25V42.75V42.85H75.15V42.95L75.05 43.05V43.15H74.95V43.25L74.85 43.35V43.45H74.75V43.55H74.65L74.55 43.65H74.65V43.75V43.85L74.75 43.95H74.85L74.95 44.05H75.05H75.15H75.25H75.35L75.45 44.15H75.55L75.65 44.25H75.75H75.85L75.95 44.35H76.05V44.45H76.15H76.25V44.55V44.65L76.35 44.75L76.45 44.85L76.55 44.95H76.65H76.75L76.85 45.05L77.05 45.15H77.15V45.25L77.25 45.35L77.35 45.65V45.75L77.45 45.85V46.05H77.55V46.15H77.65V46.25L77.75 46.35L77.85 46.45L77.95 46.55V46.65H78.05L78.15 46.75H78.25L78.35 46.85V46.95H78.45V47.05L78.55 47.15V47.25V47.35V47.45V47.55V47.65V47.75L78.65 47.85V47.95L78.75 48.05L78.65 48.15H78.55V48.25H78.45H78.35H78.25H78.15L78.05 48.35V48.45V48.55L78.15 48.65V48.75L78.25 48.85V48.95L78.35 49.15V49.25V49.35H78.25V49.45V49.55L78.15 49.65H78.05L77.95 49.75L77.85 49.85V49.95H77.75L77.65 49.85H77.55L77.45 49.75H77.35L77.25 49.65H77.15V49.55H77.05H76.95H76.85V49.65H76.75H76.65L76.55 49.75V49.85V49.95V50.05V50.15V50.25H76.45V50.35V50.45H76.35V50.55V50.65H76.25V50.75H76.15V50.85H76.05L75.95 50.95H75.85V51.05V51.15V51.25H75.75V51.35H75.65V51.45H75.55V51.55V51.65H75.45V51.75H75.35H75.25H75.15H75.05V51.85V51.95V52.05V52.15H75.15V52.25V52.35V52.45H75.25V52.55H75.35V52.65V52.75L75.45 52.85V52.95H75.55L75.65 53.05L75.75 53.15V53.25V53.35V53.45V53.55V53.65V53.75V53.85H75.65H75.55V53.95H75.45V54.05V54.15V54.25V54.35L75.55 54.45L75.65 54.55V54.65H75.75V54.75V54.85V54.95H75.85V55.05L75.75 55.15V55.25V55.35V55.45V55.55H75.85V55.65V55.75V55.85V55.95H75.95V56.05H76.05V56.15V56.25V56.35H75.95H75.85V56.45H75.75V56.55H75.65H75.55V56.65H75.45H75.35H75.25H75.15V56.55V56.45H75.05V56.35V56.25H75.15V56.15V56.05L75.05 55.95H74.95H74.85H74.75H74.65V55.85H74.55V55.95H74.45V56.05V56.15V56.25H74.35H74.25V56.35H74.15H74.05H73.95V56.45H73.85H73.75V56.55V56.65L73.65 56.75V56.85V56.95L73.55 57.05V57.15H73.45V57.25L73.35 57.35V57.45H73.25L73.05 57.65V57.75H72.95V57.85V57.95V58.05V58.15V58.35L72.85 58.45V58.55H72.95V58.65L72.85 58.75L72.75 58.85H72.65V58.95H72.55V59.05H72.45L72.35 59.15L72.25 59.25V59.35L72.15 59.45V59.55V59.65H72.25H72.35H72.45V59.75H72.55H72.65V59.85V59.95V60.05H72.75L72.85 60.15V60.25H72.95V60.35L73.05 60.45L73.15 60.55L73.25 60.65V60.75H73.35V60.85V60.95H73.45H73.55V61.05H73.65H73.75V61.15H73.85L73.95 61.25H74.05V61.35H74.15V61.45L74.25 61.55L74.35 61.65H74.45V61.75V61.85V61.95V62.05V62.15L74.55 62.25V62.35V62.45V62.55V62.65V62.75V62.85V62.95V63.05V63.15V63.25V63.35V63.45V63.65V63.75H74.45V63.85H74.55V63.95L74.65 64.05V64.15H74.75V64.25V64.35L74.85 64.45V64.55L75.05 64.65V64.75H75.15V64.85V64.95L75.05 65.05V65.15H74.95L74.65 65.45H74.75V65.55H74.65V65.65L74.75 65.75V65.85L74.85 66.05L74.95 66.15L75.05 66.25L75.15 66.35V66.45H75.25L75.35 66.55L75.45 66.65L75.55 66.75L75.75 66.65H75.85V66.75L75.95 66.95L76.15 67.15V67.25H76.25L76.35 67.15V67.25L76.45 67.35L76.55 67.45H76.45V67.55H76.35L76.25 67.65H76.35V67.75L76.45 67.85H76.55H76.65V67.95H76.75H76.85V68.05V68.15H76.75V68.25H76.65V68.35V68.45V68.55V68.65V68.75V68.85H76.55V68.95V69.05H76.45V69.15H76.55V69.25V69.35L76.45 69.45L76.35 69.55L76.25 69.65H76.15H76.05V69.75V69.85H76.15V69.95H76.25H76.35L76.45 70.05H76.55L76.65 70.15H76.75L76.85 70.25H76.95H77.05L77.15 70.35H77.25H77.35V70.45H77.25V70.55L77.15 70.65L77.05 70.75V70.85L76.95 70.95V71.05H76.85V71.15H76.75V71.25H76.65V71.35L76.75 71.45H76.85H76.95H77.05H77.15V71.55H77.25V71.65V71.75V71.85V71.95V72.05V72.15V72.25H77.15H77.05V72.15H76.95V72.05H76.85V71.95V71.85H76.75H76.65H76.55V71.95H76.45V72.05V72.15V72.25V72.35H76.35V72.45V72.85V73.45V73.55V73.65V73.75L76.45 73.85L76.55 73.95L76.65 74.05L76.75 74.15H76.85L76.95 74.35L77.15 74.45H77.25L77.35 74.65L77.45 74.75L77.65 74.95V75.05V75.15V75.25L77.55 75.35V75.45V75.55H77.45V75.65H77.35V75.75L77.45 75.85V75.95H77.55V76.05H77.65V76.15H77.75V76.25H77.85L77.95 76.35V76.45H78.05V76.55V76.65H77.95H77.85V76.75H77.75H77.65H77.55V76.85V76.95V77.05H77.65V77.15H77.75V77.25L77.85 77.35H77.95V77.45V77.55H77.85V77.65H77.75V77.55H77.65H77.55V77.45H77.45H77.35H77.25H77.15V77.55V77.65V77.75V77.85H77.25V77.95H77.35V78.05H77.45V78.15H77.55H77.65V78.25H77.75V78.35H77.85L77.95 78.45V78.55V78.65V78.75H77.85V78.85H77.75L77.65 78.95V79.05H77.55L77.45 79.15V79.05H77.35V79.15L77.25 79.25H77.15V79.35L77.25 79.45V79.55H77.35V79.65V79.75H77.45L77.35 79.85V79.95V80.05H77.25V80.15V80.25H77.15V80.15H77.05V80.05H76.95H76.85H76.75L76.65 79.95H76.55H76.45H76.35H76.25H76.15H76.05H75.95V80.05H75.85L75.75 79.95H75.65H75.55H75.45H75.35H75.25V80.05H75.15V80.15V80.25H75.05V80.35V80.45H75.15V80.55V80.65V80.75L75.25 80.85H75.35V80.95H75.45V81.05H75.35V81.15H75.25H75.15V81.25H75.05V81.35H74.95L75.05 81.45V81.55H75.15V81.65H75.25V81.75H75.15V81.85V81.95H75.05H74.95H74.85L74.75 81.85H74.65V81.95H74.55V82.05H74.65V82.15V82.25H74.75V82.35H74.85V82.45V82.55H74.75V82.65V82.75H74.65V82.85H74.55V82.95V83.05L74.45 83.15V83.25L74.35 83.35V83.45H74.25V83.55V83.65V83.75V83.85V83.95V84.05L74.35 84.15V84.25H74.45V84.35H74.55V84.45V84.55H74.65V84.65H74.75V84.75H74.85V84.85V84.95V85.05V85.15H74.75V85.25V85.35H74.65V85.45H74.55V85.55H74.45V85.65H74.55V85.75H74.65H74.75H74.85V85.85H74.95H75.05H75.15H75.25V85.95H75.35H75.45V86.05H75.55V86.15H75.45V86.25H75.55V86.35V86.45V86.55H75.45V86.65H75.35H75.25V86.75H75.15V86.65H75.05V86.55H74.95V86.45V86.35H74.85H74.75V86.45H74.65V86.55V86.65H74.55V86.75V86.85V86.95H74.65V87.05V87.15V87.25H74.75V87.35H74.85V87.45V87.55H74.95V87.65V87.75V87.85V87.95H74.85V88.05V88.15V88.25H74.75V88.35V88.45H74.85H74.95H75.05L75.15 88.55H75.25V88.65H75.35V88.75L75.25 88.65V88.75L75.15 88.85H75.05V88.95H74.95H74.85V89.05V89.15L74.95 89.25V89.35L75.05 89.45H74.95V89.55H75.05V89.65V89.75V89.85V89.95V90.05V90.15L75.15 90.05V90.15H75.25V90.25V90.35V90.45V90.55V90.65V90.75V90.85V90.95V91.05V91.15V91.25V91.35V91.45V91.55H75.15H75.05V91.65V91.75H74.95V91.85H75.05V91.95H74.95H74.85V92.05H74.95V92.15H74.85V92.25H74.95V92.35V92.45V92.55V92.65H74.85L74.75 92.75V92.85L74.65 92.95V93.05V93.15H74.75V93.25H74.85H74.95L75.05 93.35H75.15L75.25 93.25H75.35H75.45H75.55H75.65H75.75H75.85V93.35V93.45H75.75V93.55H75.65L75.55 93.65L75.45 93.75H75.35L75.25 93.85H75.15H75.05H74.95H74.85V93.95H74.75L74.55 94.05L74.45 94.15H74.35V94.25L74.25 94.35V94.45V94.55V94.65V94.75V94.85L74.35 94.95V95.05L74.45 95.15L74.55 95.25L74.75 95.45L74.85 95.55L74.95 95.65L75.15 95.85L75.25 95.95H75.35V96.05H75.45V96.15V96.25V96.35V96.45V96.55L75.35 96.65H75.25H75.15H75.05H74.95V96.75H75.05V96.85H74.95V96.95V97.05V97.15L75.05 97.25V97.35H75.15V97.45H75.25V97.55V97.65H75.35V97.75H75.45H75.55V97.85H75.65H75.75V97.95H75.85V98.05V98.15V98.25V98.35V98.45V98.55H75.75V98.65V98.75H75.85L75.75 98.85H75.65V98.95H75.55H75.45V98.85H75.35L75.25 98.95L75.15 98.85H75.05H74.95H74.85H74.75V98.75H74.85V98.65H74.75H74.65H74.55V98.75H74.45H74.35H74.25L74.15 98.85H74.05V98.95L73.95 99.05V99.15H73.85V99.25V99.35H73.95V99.45L74.05 99.55L74.15 99.65V99.75H74.25H74.35V99.85H74.45H74.55H74.65H74.75H74.85H74.95H75.05H75.15V99.75H75.25H75.35V99.85H75.45H75.55V99.95L75.65 100.05V100.15V100.25V100.35H75.55V100.45H75.45V100.55V100.65H75.35L75.25 100.75H75.15V100.85H75.05H74.95H74.85H74.75V100.75H74.65L74.55 100.65H74.45H74.35V100.55H74.25H74.15V100.65V100.75H74.05H73.95V100.85V100.95L73.85 101.05H73.95V101.15H73.85V101.25H73.95V101.35V101.45H74.05V101.55H74.15V101.65H74.25H74.35H74.45V101.75H74.55H74.65V101.85H74.75H74.85L74.95 101.95H75.05H75.15V102.05H75.25H75.35V102.15H75.45V102.25V102.35V102.45V102.55V102.65V102.75V102.85H75.35V102.95V103.05H75.25V103.15V103.25H75.15V103.35V103.45L75.05 103.55V103.65H74.95V103.75H74.85V103.85V103.95H74.75V104.05V104.15V104.25V104.35V104.45V104.55V104.65H74.85V104.75V104.85H74.95V104.95H75.05V105.05H74.95V105.15V105.25H74.85H74.75H74.65H74.55H74.45H74.35H74.25V105.35V105.45H74.35V105.55H74.25V105.65L74.35 105.75V105.85L74.45 105.95H74.55V106.05H74.65V106.15L74.75 106.25H74.85V106.35H74.95H75.05V106.25H75.15L75.25 106.15L75.35 106.05V105.95L75.45 105.85V105.75L75.55 105.65V105.55H75.65H75.75H75.85H75.95L76.05 105.65H76.15L76.25 105.75V105.85V105.95H76.35V106.05V106.15V106.25H76.25V106.35H76.15H76.05V106.45H75.95V106.55H75.85H75.75H75.65V106.65H75.55H75.45H75.35V106.75L75.25 106.85V106.95V107.05H75.35V107.15V107.25V107.35V107.45H75.45V107.55H75.55V107.65V107.75L75.65 107.85V107.95H75.75V108.05V108.15L75.65 108.25V108.15H75.55V108.25V108.35H75.45V108.45H75.35V108.55V108.65H75.45V108.75L75.55 108.85V108.95H75.65V109.05V109.15V109.25V109.35H75.55V109.45H75.45H75.35H75.25H75.15V109.55H75.05V109.65V109.75V109.85H75.15V109.95V110.05H75.25L75.35 110.15L75.55 110.25H75.65H75.75H75.85H75.95V110.35V110.45H76.05V110.55H76.15V110.65V110.75V110.85V110.95V111.05V111.15L76.05 111.25V111.35L75.95 111.45V111.55H76.05V111.65V111.75H76.15V111.85H76.25H76.35V111.95H76.45H76.55V112.05H76.65V112.15L76.75 112.25V112.35V112.45V112.55V112.65V112.75V112.85H76.85V112.95H76.95H77.05V112.85H77.15L77.25 112.75V112.65L77.45 112.55H77.55H77.65H77.75L77.85 112.65H77.95V112.75V112.85V112.95V113.05H78.05V113.15H77.95V113.25H77.85V113.35V113.45H77.75V113.55V113.65H77.65H77.55H77.45H77.35L77.25 113.55H77.15H77.05V113.45V113.35L76.95 113.25L76.85 113.15H76.75V113.25H76.65L76.55 113.15H76.45H76.35V113.25V113.35H76.25V113.45V113.55V113.65H76.35H76.45V113.75L76.55 113.85V113.95H76.45V114.05H76.55V114.15H76.65V114.25V114.35H76.75V114.45V114.55H76.85V114.65V114.75V114.85V114.95H76.75V115.05H76.65V114.95H76.55H76.45H76.35V114.85H76.25H76.15H76.05L75.95 114.75V114.65V114.55V114.45V114.35V114.25V114.15H75.85H75.75H75.65H75.55V114.25V114.35V114.45H75.45V114.55V114.65V114.75L75.55 114.85V114.95V115.05V115.15H75.65V115.25V115.35V115.45V115.55V115.65H75.75V115.75H75.85V115.85H75.95H76.05H76.15H76.25V115.75L76.35 115.85H76.45H76.55V115.75H76.65V115.85H76.75H76.85V115.95L76.95 116.05V116.15V116.25L77.05 116.35H76.95V116.45V116.55V116.65H76.85V116.75L76.75 116.85V116.95H76.65L76.55 117.05V117.15V117.25H76.65V117.35H76.75L76.85 117.45H76.95L77.05 117.55H77.15H77.25H77.35V117.65V117.75V117.85H77.25V117.95V118.05H77.15V118.15H77.05H76.95H76.85L76.75 118.05H76.65V117.95H76.55V117.85V117.75H76.45V117.65H76.35V117.75H76.25V117.85V117.95V118.05V118.15V118.25H76.35L76.45 118.35H76.55L76.65 118.45H76.75V118.55V118.65H76.85L76.95 118.75H77.05H77.15V118.85H77.25V118.95V119.05V119.15V119.25V119.35L77.15 119.45H77.05V119.55H76.95L76.85 119.65V119.75V119.85L76.95 120.05L77.05 120.25V120.35V120.45L76.95 120.55L76.85 120.65L76.75 120.75V120.85H76.65V120.95V121.05L76.55 121.15V121.25V121.35V121.45H76.65V121.55H76.75V121.65H76.65V121.75V121.85H76.75H76.85H76.95V121.95V122.05V122.15V122.25H76.85V122.35V122.45H76.75H76.65H76.55H76.45H76.35H76.25H76.15V122.55H76.05V122.65V122.75V122.85L76.15 122.95V123.05L76.25 123.15H76.35V123.25H76.45H76.55H76.65H76.75V123.35H76.85H76.95V123.25H77.05H77.15V123.15H77.25H77.35V123.25V123.35H77.25V123.45H77.15V123.55V123.65V123.75V123.85H77.25V123.95V124.05V124.15H77.35V124.25L77.45 124.35H77.55H77.65H77.75H77.85H77.95H78.05L78.15 124.25H78.25L78.35 124.05L78.45 123.95L78.55 123.85H78.65H78.75H78.85H78.95V123.95H79.05V124.05V124.15H79.15V124.25V124.35V124.45H79.05V124.55H78.95V124.65V124.75V124.85V124.95V125.05H78.85V125.15V125.25H78.75V125.35V125.45L78.65 125.55H78.55L78.45 125.65V125.75H78.55L78.65 125.85L78.75 125.95H78.85V125.85H78.95H79.05V125.95H79.15H79.25V125.85V125.75H79.35V125.85H79.45H79.55V125.75H79.65L79.75 125.65L79.85 125.55H79.95V125.45V125.35V125.25H80.05V125.15H80.15H80.25V125.05L80.35 125.15H80.45V125.25H80.55V125.35V125.45V125.55V125.65V125.75L80.45 125.85H80.35V125.95L80.25 126.05H80.15H80.05V126.15L79.95 126.25H79.85L79.75 126.35V126.25H79.65V126.35H79.55L79.45 126.45L79.55 126.55H79.65V126.65H79.75V126.75V126.85H79.85H79.95H80.05H80.15H80.25H80.35H80.45V126.75H80.55H80.75L80.85 126.65H80.95H81.05V126.75H81.15V126.85L81.25 126.95V127.05V127.15L81.35 127.25H81.25V127.35V127.45L81.15 127.55H81.05V127.65H80.95H80.85H80.75H80.65H80.55H80.45H80.35L80.25 127.55H80.15V127.45H80.05V127.35H79.95V127.45H79.85L79.75 127.55V127.65V127.75V127.85H79.85L79.95 127.95V128.05H80.05H80.15H80.25V128.15H80.35L80.45 128.25V128.35H80.55H80.65H80.75H80.85H80.95H81.05V128.45H81.15V128.55H81.25V128.65H81.35H81.45V128.75V128.85V128.95V129.05L81.35 129.15V129.25V129.35V129.45L81.25 129.55H81.35V129.65H81.45H81.55L81.65 129.75H81.75V129.85H81.85H81.95H82.05V129.75H82.15H82.25V129.85V129.95L82.35 130.05V130.15H82.25V130.25V130.35V130.45H82.15V130.55L82.25 130.65H82.35H82.45H82.55H82.65V130.55H82.75V130.45H82.85H82.95L83.05 130.35V130.45H83.15V130.55V130.65V130.75V130.85V130.95H83.05V131.05H82.95V131.15H82.85V131.25H82.75H82.65L82.55 131.35H82.45H82.35V131.45H82.25L82.15 131.55H82.05V131.65V131.75H81.95V131.85V131.95V132.05L82.05 132.15V132.25H82.15V132.35H82.25L82.35 132.45H82.45H82.55V132.55H82.65H82.75H82.85H82.95H83.05H83.15H83.25V132.65H83.35V132.75L83.45 132.85V132.95V133.05V133.15V133.25V133.35H83.35L83.25 133.45V133.55H83.15L83.05 133.65V133.75V133.85L83.15 133.95V134.05L83.25 133.95H83.35H83.45H83.55H83.65V133.85H83.75H83.85V133.75L83.95 133.65V133.55L84.05 133.45V133.35V133.25V133.15V133.05V132.95V132.85V132.75V132.65H83.95V132.55H83.85V132.45V132.35H83.95L84.05 132.25H84.15H84.25H84.35V132.35H84.45V132.45H84.55V132.55H84.65L84.75 132.65V132.75H84.85V132.85H84.95V132.95V133.05H85.05V133.15V133.25L85.15 133.35V133.45L85.25 133.55L85.35 133.65V133.75H85.45V133.85H85.55V133.95L85.65 134.05H85.75H85.85H86.05H86.15V133.95H86.25L86.35 133.85L86.45 133.65L86.55 133.55H86.65H86.75H86.85H86.95L87.05 133.65H87.15L87.25 133.75V133.85V133.95L87.35 134.05V134.25H87.25V134.35L87.05 134.45H86.95H86.75L86.65 134.55L86.45 134.45H86.35L85.95 134.35H85.85H85.75H85.65H85.55H85.35H85.05L84.85 134.45H84.75L84.55 134.55L84.45 134.65L84.35 134.75L84.25 134.85V135.05L84.15 135.25L84.05 135.35L83.95 135.45V135.55L83.85 135.65L83.75 135.85L83.65 136.05L83.55 136.15L83.45 136.25L83.35 136.35H83.25L83.05 136.55H82.95H82.85H82.75H82.65L82.25 136.45L82.15 136.35H82.05L81.85 136.15L81.65 135.95H81.55L81.45 135.85H81.35H81.25L81.15 135.95L81.05 136.05L80.75 136.35L80.65 136.45H80.55L80.45 136.55H80.35H80.25V136.45L80.05 136.35L79.95 136.25L79.85 136.15L79.75 135.95L79.55 135.35L79.35 135.05L79.25 134.85V134.75L79.15 134.55L79.05 134.35L78.95 134.25L78.85 134.15H78.65H78.45H78.35H78.25L77.95 134.25H77.75L77.65 134.35H77.55L77.35 134.45L77.15 134.55L77.05 134.65L76.75 134.75L76.55 134.85H76.45H76.35H76.25L76.15 134.95H76.05H75.95L75.85 135.05H75.65H75.45H75.35L75.25 135.15H75.05V135.25H74.85H74.65H74.55H74.45L74.35 135.15H74.25L74.15 135.05H74.05H73.95H73.85H73.75H73.65H73.55H73.45L73.35 134.95L73.25 134.85L73.15 134.75H73.05L72.95 134.65V134.55H72.85L72.75 134.45V134.35L72.65 134.25L72.55 134.15V134.05L72.45 133.95V133.85L72.35 133.75V133.65V133.45V133.35V133.25V133.15V133.05L72.25 132.95V132.85V132.75V132.45V132.25V132.05L72.15 131.95V131.85V131.75V131.55L72.25 131.35V131.15V130.95V130.85V130.75V130.55V130.25V130.15L72.35 130.05L72.25 129.95V129.85V129.75V129.65L72.15 129.55V129.45L72.05 129.35L71.95 129.25L71.85 129.15L71.75 129.05L71.65 128.85L71.45 128.55L71.35 128.35L71.25 128.15L71.15 128.05H71.05H70.95H70.85H70.75H70.65H70.55L70.35 128.15L70.25 128.25L70.15 128.35H70.05V128.45L69.95 128.55V128.65L69.85 128.75V128.95V129.05V129.15V129.35V129.45V129.55V129.65V129.75L69.95 129.85L70.05 129.95L70.15 130.05V130.15L70.25 130.25V130.35V130.45V130.65V130.75V130.85V130.95L70.35 131.05L70.45 131.15L70.55 131.25L70.65 131.35L70.75 131.45H70.85V131.55H70.95L71.05 131.65L71.15 131.75V131.85L71.25 131.95V132.05L71.35 132.25V132.35V132.45V132.55L71.45 132.65V132.75V132.85L71.35 133.05V133.15L71.25 133.35V133.45L71.15 133.55L71.05 133.65H70.95V133.75H70.85V133.85H70.75L70.65 133.95L70.55 134.05L70.45 134.15H70.25L70.15 134.25H70.05H69.85H69.75H69.65H69.55V134.15H69.45V134.05V133.95V133.85L69.35 133.75V133.65V133.55V133.45L69.25 133.35V133.25L69.15 133.15V133.05L69.05 132.95V132.85H68.95V132.75L68.75 132.55L68.65 132.45L68.55 132.35L68.45 132.25L68.25 132.15V132.05L68.15 131.95H68.05L67.95 131.85H67.85V131.75L67.75 131.65V131.55L67.65 131.45V131.35H67.55V131.25L67.45 131.05L67.35 130.95V130.85H67.25V130.75V130.65L67.15 130.55V130.45L67.25 130.35V130.25L67.35 130.15L67.45 129.95L67.55 129.85L67.65 129.75L67.85 129.65L67.95 129.55L68.05 129.45L68.15 129.35L68.25 129.25V129.15V129.05V128.95V128.85V128.75V128.65L68.15 128.55V128.45L68.05 128.25V128.15H67.95V128.05V127.95V127.85V127.75V127.65V127.55V127.45L68.05 127.35V127.25V127.15L68.15 127.05V126.95V126.85L68.05 126.75V126.65V126.45L67.95 126.35V126.25L67.85 126.15V126.05H67.75L67.65 125.95L67.55 125.85H67.45H67.35L67.25 125.75L67.05 125.85H66.95L66.85 125.95H66.75L66.65 126.15L66.55 126.25L66.45 126.45V126.65V126.75V126.85V126.95V127.25V127.45V127.75V127.85V127.95V128.05V128.15L66.35 128.25L66.15 128.55L66.05 128.75H65.95L65.85 128.85H65.75H65.65L65.55 128.75H65.45H65.35L65.25 128.65L65.15 128.55L64.85 128.35L64.75 128.25L64.65 128.15L64.35 128.05H64.25V127.95H64.15H64.05H63.95H63.85H63.75H63.65L63.55 128.05H63.45L63.35 128.15L63.25 128.25L63.15 128.45L63.05 128.55L62.95 128.75H62.85L62.65 129.05L62.55 129.15H62.45V129.25L62.35 129.35L62.25 129.45V129.55L62.15 129.75H62.05V129.85L61.85 130.05H61.75V130.15H61.65V130.25L61.45 130.35H61.35V130.45H61.25H61.05L60.95 130.55H60.75H60.65H60.55H60.45H60.35H60.25L60.15 130.45H60.05H59.95L59.85 130.35L59.75 130.25H59.65L59.55 130.15H59.45V130.05H59.35L59.25 129.95L59.15 129.85H59.05V129.75H58.95L58.85 129.65L58.75 129.55H58.65H58.55H58.45L58.35 129.65H58.25L58.15 129.75H58.05H57.85H57.75L57.65 129.85H57.55H57.45L57.35 129.75V129.65H57.25V129.55V129.45V129.35V129.25L57.35 129.15L57.45 128.95L57.65 128.65L57.75 128.55V128.45V128.35V128.25L57.65 128.05V127.95L57.55 127.85L57.45 127.65L57.25 127.55L57.15 127.45L57.05 127.35L56.95 127.25V127.15H56.85V127.05V126.95H56.75V126.85L56.65 126.75V126.65H56.55V126.55L56.45 126.45L56.35 126.35L56.25 126.25L56.15 126.15V126.05H56.05V125.95H55.95V125.85V125.75V125.65V125.55H55.85V125.45L55.75 125.35L55.35 124.75L55.25 124.65L55.15 124.45L55.05 124.35L54.95 124.25H54.75V124.15L54.65 124.05H54.55L54.35 123.95L54.25 123.85L54.15 123.75H54.05H53.95L53.75 123.85H53.65L53.55 123.95L53.35 124.05L53.25 124.15H53.15L53.05 124.25L52.95 124.45L52.75 124.75L52.65 124.95L52.55 125.15L52.35 125.35V125.45V125.55L52.25 125.75V125.85V125.95H52.15V126.05V126.15L52.25 126.35L52.15 126.55V126.65V126.75V126.85H52.05L51.95 126.95H51.85L51.75 127.05H51.65L51.55 126.95H51.45L51.35 126.85H51.25V126.75L51.15 126.65V126.55V126.45L51.05 126.35V126.25V126.05V125.95V125.85V125.75V125.65L50.95 125.55V125.45V125.35H50.85V125.25L50.75 125.05L50.65 124.95V124.85H50.55L50.45 124.75H50.35V124.65H50.15H50.05L49.85 124.55H49.75L49.55 124.65H49.45H49.35H49.25H49.05H48.95H48.85H48.75H48.65L48.55 124.55H48.35H48.25L48.15 124.45H48.05H47.95H47.85H47.75H47.55H47.45L47.35 124.35L47.15 124.25H47.05H46.95H46.85H46.75V124.15H46.55L46.45 124.05H46.25V123.95Z" fill="#220F0F"/>
<path d="M10.05 95.05L10.15 95.15V95.25L10.25 95.35V95.45H10.35V95.55L10.45 95.65L10.65 95.75L10.75 95.95H10.85V96.05H10.95L11.05 96.15H11.15V96.25V96.35L11.25 96.45V96.55H11.35V96.65H11.45H11.55V96.75H11.65L11.75 96.85L11.85 96.95L11.95 97.05H12.05L12.15 97.15L12.25 97.25H12.35L12.45 97.35L12.55 97.45V97.55V97.65L12.65 97.75L12.75 97.85L12.85 97.95L12.95 98.05L13.05 98.15V98.25L13.15 98.35V98.45V98.55V98.65L13.05 98.75V98.85L12.95 98.95L12.85 99.05H12.75V99.15V99.25V99.35V99.55L12.85 99.45L13.15 99.35L13.35 99.25L13.65 99.15L13.95 98.95H14.05H14.15L14.45 98.75L14.65 98.65L14.75 98.55H14.85V98.45H14.95V98.35H15.05L15.15 98.25L15.25 98.15H15.35V98.05H15.45L15.55 98.15H15.65V98.25H15.75L15.85 98.35L15.95 98.45L16.05 98.55H16.15V98.65H16.25V98.75V98.85H16.35H16.45V98.95H16.55V99.05H16.65H16.75H16.85L16.95 99.15H17.05V99.25V99.35L17.15 99.45H17.25L17.35 99.55H17.45H17.55V99.65H17.65H17.75H17.85L18.05 99.75L18.15 99.85H18.25H18.35V99.95H18.45V100.05H18.35L18.45 100.15H18.55H18.85H18.95V100.45H19.05H19.15V100.35H19.25H19.35V100.25H19.45L19.35 100.15H19.45V100.05L19.55 99.95H19.65L19.75 99.85L19.65 99.75V99.65L19.75 99.55V99.45L19.85 99.35H19.95V99.25H20.05V99.15H20.15H20.25L20.35 99.25L20.45 99.35V99.45L20.35 99.55L20.15 99.75V99.85L20.05 99.95V100.05L19.95 100.15V100.35V100.45V100.55V100.65V100.75V100.85V100.95H20.05V101.05V101.15L20.15 101.25V101.35V101.45L20.05 101.55H19.95L20.05 101.65V101.75H20.15L20.25 101.85V101.95L20.45 102.05H20.55L20.65 102.15H20.85L20.95 102.25L21.05 102.35H21.15L21.25 102.45V102.55V102.65L21.35 102.75H21.45L21.55 102.85L21.75 102.95L21.85 103.05L21.95 103.15V103.25V103.35V103.45H21.85V103.55L21.75 103.65L21.65 103.75L21.55 103.85L21.45 103.95L21.35 104.05L21.15 104.15L21.05 104.25L20.75 104.35L20.65 104.45L20.55 104.55V104.65H20.45V104.75V104.85V104.95L20.55 105.05V105.25L20.65 105.45L20.75 105.55L20.85 105.75L20.95 105.85V105.95V106.05L21.05 106.25V106.35V106.45V106.65L21.15 106.75L21.25 107.05L21.35 107.15V107.25V107.35V107.45V107.55V107.65V107.75V107.85L21.45 107.95V108.05V108.15V108.25V108.35V108.45V108.55H21.65L21.75 108.65H21.85V108.75L21.95 108.85H22.05L22.15 108.95L22.25 109.05L22.35 109.15L22.55 109.25H22.65H22.75H22.85L22.95 109.05H23.05L23.15 108.95V108.75L23.25 108.65V108.55V108.45V108.35V108.25V108.15V108.05V107.85V107.75V107.65L23.15 107.55H23.05V107.45L22.95 107.35V107.25V107.15V107.05H23.05V106.95H23.15V106.85V106.75L23.25 106.65H23.35H23.45L23.55 106.55L23.75 106.25L23.95 106.05L24.25 105.85V105.75H24.35V105.65H24.45V105.55L24.55 105.45V105.35L24.45 105.25V105.15H24.35L24.25 105.05V104.95L24.15 104.85V104.75V104.65V104.55V104.45H24.25H24.35L24.45 104.55L24.55 104.65H24.65L24.75 104.75L24.85 104.85H24.95L25.05 104.95H25.15V104.85H25.25H25.35V104.75H25.45V104.65L25.55 104.55L25.65 104.45L25.75 104.35L25.85 104.25L25.95 104.15H26.05H26.15H26.25H26.35L26.45 104.25V104.35L26.55 104.45V104.55V104.65V104.75V104.85V104.95L26.45 105.15V105.25V105.35L26.35 105.45L26.25 105.55V105.65L26.15 105.75V105.85V105.95V106.05V106.15V106.25V106.35V106.45V106.65V106.75V106.85V106.95V107.05V107.25V107.35V107.45V107.55V107.65L26.05 107.75V107.95V108.05L25.95 108.25V108.35L25.85 108.55V108.65L25.75 108.75L25.65 108.95V109.15L25.55 109.25L25.45 109.45V109.55L25.35 109.65L25.25 109.85L25.15 109.95V110.15L25.05 110.35V110.45V110.55V110.65H25.15V110.75H25.25H25.35H25.45H25.65H25.85L25.95 110.65L26.05 110.55L26.15 110.45V110.25L26.25 109.95V109.75V109.65L26.35 109.55V109.45L26.45 109.35V109.25H26.55V109.15H26.65H26.85H27.05H27.15H27.25H27.35H27.55H27.65H27.75H27.85H28.05L28.25 109.25H28.35L28.55 109.35L28.65 109.45H28.75H28.85V109.55V109.65L28.95 109.75V109.85V109.95H29.05V110.05V110.15V110.25V110.35V110.45V110.55L29.15 110.65V110.75H29.25V110.85H29.35H29.45H29.55L29.65 110.95H29.75L29.85 110.85H29.95L30.15 110.75H30.25L30.35 110.65H30.45H30.55H30.65H30.75V110.75H30.85L30.95 110.85V110.95V111.05V111.15V111.35H31.05H31.15H31.55H31.95L31.85 111.25V111.05V110.95L31.75 110.85V110.75V110.65V110.55V110.45V110.35V110.25V110.15V110.05V109.95H31.85V109.85H31.95L32.05 109.75H32.15H32.35L32.45 109.65L32.55 109.75H32.65H32.75H32.85H32.95H33.05L33.15 109.85L33.25 109.95H33.45L33.55 110.05H33.65H33.75L33.95 110.15L34.05 110.25L34.15 110.35H34.25H34.35H34.45L34.55 110.45L34.65 110.55L34.85 110.65H35.05L35.35 110.75L35.55 110.85H35.65L35.75 110.95H35.95H36.05H36.15H36.25H36.45V110.85L36.55 110.75H36.65V110.65V110.55V110.45V110.35L36.55 110.05L36.35 109.85L36.25 109.75L36.15 109.55L36.05 109.45V109.35V109.25V109.15V109.05V108.95H36.15V108.85H36.25L36.35 108.75H36.45H36.55H36.65L36.75 108.85L36.85 108.95H36.95L37.05 109.05H37.25L37.35 109.15H37.45L37.55 109.35L37.65 109.45H37.75L37.85 109.55H37.95V109.65H38.05V109.75H38.15V109.85V109.95H38.25L38.15 110.05V110.15L38.05 110.35L37.95 110.45L37.85 110.55L37.75 110.65V110.75L37.55 110.95H37.45V111.05H37.35L37.25 111.15V111.25V111.35V111.45V111.65L37.35 111.75L37.45 111.85L37.55 111.95L37.75 112.05H37.85L37.95 112.15H38.05H38.15L38.25 112.25L38.35 112.35L38.55 112.45H38.65L38.75 112.55H38.85L38.95 112.65L39.05 112.75L39.15 112.85H39.25V112.95H39.35V113.05L39.45 113.15L39.55 113.35V113.45H39.65L39.75 113.55L39.85 113.65L39.95 113.75H40.05L40.25 113.85H40.35H40.45H40.55L40.65 113.95H40.75H40.85L40.95 114.05H41.05H41.15H41.35H41.55H41.65H41.85H41.95H42.05V114.15H42.15L42.25 114.25H42.35V114.35H42.45L42.65 114.55H42.75L42.85 114.65L42.95 114.75L43.15 114.95L43.25 115.05L43.35 115.25L43.45 115.35L43.55 115.55H43.65V115.65H43.75L43.85 115.85L43.95 115.95L44.15 116.15L44.35 116.45L44.45 116.55L44.65 116.75L44.75 116.85L44.85 116.95L44.95 117.05H45.05H45.15V117.15H45.25L45.45 117.25H45.55L45.75 117.35L45.85 117.45L45.95 117.55L46.25 117.75H46.35L46.55 117.85L46.65 118.05H46.75V118.15L46.85 118.25V118.35V118.45V118.55V118.65L46.75 118.75L46.65 118.85L46.55 118.95V119.05H46.45L46.35 119.15L46.15 119.25H45.95L45.55 119.65L45.35 119.75V119.85V119.95L45.25 120.05V120.15L45.35 120.35V120.45L45.45 120.55L45.55 120.65H45.65L45.85 120.75H46.05H46.35L46.55 120.85L46.75 120.95H46.95L47.15 121.05L47.25 121.15L47.35 121.25L47.45 121.35V121.45V121.55V121.65V121.75V121.85L47.35 121.95V122.05L47.25 122.15L47.15 122.35L47.05 122.45L46.95 122.55H46.85L46.65 122.75L46.45 122.85L46.25 122.95L46.15 123.05L46.05 123.15L45.95 123.25L45.85 123.35V123.45V123.55V123.65L45.95 123.75V123.85H46.05L46.15 123.95H46.25V124.05H46.45L46.55 124.15H46.75V124.25H46.85H46.95H47.05H47.15L47.35 124.35L47.45 124.45H47.55H47.75H47.85H47.95H48.05H48.15L48.25 124.55H48.35H48.55L48.65 124.65H48.75H48.85H48.95H49.05H49.25H49.35H49.45H49.55L49.75 124.55H49.85L50.05 124.65H50.15H50.35V124.75H50.45L50.55 124.85H50.65V124.95L50.75 125.05L50.85 125.25V125.35H50.95V125.45V125.55L51.05 125.65V125.75V125.85V125.95V126.05V126.25V126.35L51.15 126.45V126.55V126.65L51.25 126.75V126.85H51.35L51.45 126.95H51.55L51.65 127.05H51.75L51.85 126.95H51.95L52.05 126.85H52.15V126.75V126.65V126.55L52.25 126.35L52.15 126.15V126.05V125.95H52.25V125.85V125.75L52.35 125.55V125.45V125.35L52.55 125.15L52.65 124.95L52.75 124.75L52.95 124.45L53.05 124.25L53.15 124.15H53.25L53.35 124.05L53.55 123.95L53.65 123.85H53.75L53.95 123.75H54.05H54.15L54.25 123.85L54.35 123.95L54.55 124.05H54.65L54.75 124.15V124.25H54.95L55.05 124.35L55.15 124.45L55.25 124.65L55.35 124.75L55.75 125.35L55.85 125.45V125.55H55.95V125.65V125.75V125.85V125.95H56.05V126.05H56.15V126.15L56.25 126.25L56.35 126.35L56.45 126.45L56.55 126.55V126.65H56.65V126.75L56.75 126.85V126.95H56.85V127.05V127.15H56.95V127.25L57.05 127.35L57.15 127.45L57.25 127.55L57.45 127.65L57.55 127.85L57.65 127.95V128.05L57.75 128.25V128.35V128.45V128.55L57.65 128.65L57.45 128.95L57.35 129.15L57.25 129.25V129.35V129.45V129.55V129.65H57.35V129.75L57.45 129.85H57.55H57.65L57.75 129.75H57.85H58.05H58.15L58.25 129.65H58.35L58.45 129.55H58.55H58.65H58.75L58.85 129.65L58.95 129.75H59.05V129.85H59.15L59.25 129.95L59.35 130.05H59.45V130.15H59.55L59.65 130.25H59.75L59.85 130.35L59.95 130.45H60.05H60.15L60.25 130.55H60.35H60.45H60.55H60.65H60.75H60.95L61.05 130.45H61.25H61.35V130.35H61.45L61.65 130.25V130.15H61.75V130.05H61.85L62.05 129.85V129.75H62.15L62.25 129.55V129.45L62.35 129.35L62.45 129.25V129.15H62.55L62.65 129.05L62.85 128.75H62.95L63.05 128.55L63.15 128.45L63.25 128.25L63.35 128.15L63.45 128.05H63.55L63.65 127.95H63.75H63.85H63.95H64.05H64.15H64.25V128.05H64.35L64.65 128.15L64.75 128.25L64.85 128.35L65.15 128.55L65.25 128.65L65.35 128.75H65.45H65.55L65.65 128.85H65.75H65.85L65.95 128.75H66.05L66.15 128.55L66.35 128.25L66.45 128.15V128.05V127.95V127.85V127.75V127.45V127.25V126.95V126.85V126.75V126.65V126.45L66.55 126.25L66.65 126.15L66.75 125.95H66.85L66.95 125.85H67.05L67.25 125.75L67.35 125.85H67.45H67.55L67.65 125.95L67.75 126.05H67.85V126.15L67.95 126.25V126.35L68.05 126.45V126.65V126.75L68.15 126.85V126.95V127.05L68.05 127.15V127.25V127.35L67.95 127.45V127.55V127.65V127.75V127.85V127.95V128.05V128.15H68.05V128.25L68.15 128.45V128.55L68.25 128.65V128.75V128.85V128.95V129.05V129.15V129.25L68.15 129.35L68.05 129.45L67.95 129.55L67.85 129.65L67.65 129.75L67.55 129.85L67.45 129.95L67.35 130.15L67.25 130.25V130.35L67.15 130.45V130.55L67.25 130.65V130.75V130.85H67.35V130.95L67.45 131.05L67.55 131.25V131.35H67.65V131.45L67.75 131.55V131.65L67.85 131.75V131.85H67.95L68.05 131.95H68.15L68.25 132.05V132.15L68.45 132.25L68.55 132.35L68.65 132.45L68.75 132.55L68.95 132.75V132.85H69.05V132.95L69.15 133.05V133.15L69.25 133.25V133.35L69.35 133.45V133.55V133.65V133.75L69.45 133.85V133.95V134.05V134.15H69.55V134.25H69.65H69.75H69.85H70.05H70.15L70.25 134.15H70.45L70.55 134.05L70.65 133.95L70.75 133.85H70.85V133.75H70.95V133.65H71.05L71.15 133.55L71.25 133.45V133.35L71.35 133.15V133.05L71.45 132.85V132.75V132.65L71.35 132.55V132.45V132.35V132.25L71.25 132.05V131.95L71.15 131.85V131.75L71.05 131.65L70.95 131.55H70.85V131.45H70.75L70.65 131.35L70.55 131.25L70.45 131.15L70.35 131.05L70.25 130.95V130.85V130.75V130.65V130.45V130.35V130.25L70.15 130.15V130.05L70.05 129.95L69.95 129.85L69.85 129.75V129.65V129.55V129.45V129.35V129.15V129.05V128.95V128.75L69.95 128.65V128.55L70.05 128.45V128.35H70.15L70.25 128.25L70.35 128.15L70.55 128.05H70.65H70.75H70.85H70.95H71.05H71.15L71.25 128.15L71.35 128.35L71.45 128.55L71.65 128.85L71.75 129.05L71.85 129.15L71.95 129.25L72.05 129.35L72.15 129.45V129.55L72.25 129.65V129.75V129.85V129.95L72.35 130.05L72.25 130.15V130.25V130.55V130.75V130.85V130.95V131.15V131.35L72.15 131.55V131.75V131.85V131.95L72.25 132.05V132.25V132.45V132.75V132.85V132.95L72.35 133.05V133.15V133.25V133.35V133.45V133.65V133.75L72.45 133.85V133.95L72.55 134.05V134.15L72.65 134.25L72.75 134.35V134.45L72.85 134.55H72.95V134.65L73.05 134.75H73.15L73.25 134.85L73.35 134.95L73.45 135.05H73.55H73.65H73.75H73.85H73.95H74.05H74.15L74.25 135.15H74.35L74.45 135.25H74.55H74.65H74.85H75.05V135.15H75.25L75.35 135.05H75.45H75.65H75.85L75.95 134.95H76.05H76.15L76.25 134.85H76.35H76.45H76.55L76.75 134.75L77.05 134.65L77.15 134.55L77.35 134.45L77.55 134.35H77.65L77.75 134.25H77.95L78.25 134.15H78.35H78.45H78.65H78.85L78.95 134.25L79.05 134.35L79.15 134.55L79.25 134.75V134.85L79.35 135.05L79.55 135.35L79.75 135.95L79.85 136.15L79.95 136.25L80.05 136.35L80.25 136.45V136.55H80.35H80.45L80.55 136.45H80.65L80.75 136.35L81.05 136.05L81.15 135.95L81.25 135.85H81.35H81.45L81.55 135.95H81.65L81.85 136.15L82.05 136.35H82.15L82.25 136.45L82.65 136.55H82.75H82.85H82.95H83.05L83.25 136.35H83.35L83.45 136.25L83.55 136.15L83.65 136.05L83.75 135.85L83.85 135.65L83.95 135.55V135.45L84.05 135.35L84.15 135.25L84.25 135.05V134.85L84.35 134.75L84.45 134.65L84.55 134.55L84.75 134.45H84.85L85.05 134.35H85.35H85.55H85.65H85.75H85.85H85.95L86.35 134.45H86.45L86.65 134.55L86.75 134.45H86.95H87.05L87.25 134.35V134.25H87.35V134.05L87.25 133.95V133.85V133.75L87.15 133.65H87.05L86.95 133.55H86.85H86.75H86.65H86.55L86.45 133.65L86.35 133.85L86.25 133.95H86.15V134.05H86.05H85.85H85.75H85.65L85.55 133.95V133.85H85.45V133.75H85.35V133.65L85.25 133.55L85.15 133.45V133.35L85.05 133.25V133.15V133.05H84.95V132.95V132.85H84.85V132.75H84.75V132.65L84.65 132.55H84.55V132.45H84.45V132.35H84.35V132.25H84.25H84.15H84.05L83.95 132.35H83.85V132.45V132.55H83.95V132.65H84.05V132.75V132.85V132.95V133.05V133.15V133.25V133.35V133.45L83.95 133.55V133.65L83.85 133.75V133.85H83.75H83.65V133.95H83.55H83.45H83.35H83.25L83.15 134.05V133.95L83.05 133.85V133.75V133.65L83.15 133.55H83.25V133.45L83.35 133.35H83.45V133.25V133.15V133.05V132.95V132.85L83.35 132.75V132.65H83.25V132.55H83.15H83.05H82.95H82.85H82.75H82.65H82.55V132.45H82.45H82.35L82.25 132.35H82.15V132.25H82.05V132.15L81.95 132.05V131.95V131.85V131.75H82.05V131.65V131.55H82.15L82.25 131.45H82.35V131.35H82.45H82.55L82.65 131.25H82.75H82.85V131.15H82.95V131.05H83.05V130.95H83.15V130.85V130.75V130.65V130.55V130.45H83.05V130.35L82.95 130.45H82.85H82.75M10.05 95.05V94.95M10.05 95.05H9.95H9.84999H9.75L9.64999 94.95V94.85V94.75V94.65V94.55H9.75V94.45V94.35V94.25V94.15V94.05V93.95V93.85H9.84999V93.75H9.95H10.05H10.15V93.65V93.55V93.45V93.35H10.25V93.25V93.15L10.15 92.85H10.05L10.15 92.75L10.25 92.65L10.35 92.55L10.55 92.65V92.55H10.65L11.05 92.65L11.55 92.75L11.65 92.95L11.75 92.75L11.95 92.85H12.05L12.45 93.05H12.55V93.15L12.65 93.05L12.75 93.15V93.35H12.95H13.05H13.15L13.55 93.45H13.65L13.75 93.35L13.85 93.45H13.95H14.05V93.35L14.15 93.15V93.05V92.95V92.85H13.95V92.55H13.85V92.65V92.85H13.65L13.55 92.75L13.35 92.65L13.15 92.55L13.25 92.45V92.35V92.25H13.35L13.45 92.15V92.05H13.55L13.45 91.95V91.85V91.75V91.65L13.35 91.55L13.25 91.45V91.35L13.35 91.25V91.15V91.05V90.95V90.85H13.45V90.75V90.65H13.55V90.55V90.45L13.65 90.35V90.25M13.65 90.25H13.75M13.65 90.25V90.15V90.05V89.95M13.65 89.95H13.75M13.65 89.95V89.85H13.45V89.75L13.25 89.65H13.15L13.05 89.55H12.95V89.45L12.45 89.15H12.35V89.05L12.25 89.15L12.15 89.25H12.05H11.95H11.85L11.65 89.15H11.55H11.35H11.25H11.15H10.95H10.85V89.05H10.75H10.55H10.45H10.35H10.05H9.84999H9.64999V88.95H9.54999H9.45V88.85L9.34999 88.75V88.65V88.55H9.25V88.45L9.14999 88.35V88.25V88.15H9.04999L8.84999 87.95L8.75 87.85H8.64999V87.75H8.54999V87.65H8.45V87.55L8.34999 87.35V87.25H8.25L8.14999 86.95L8.04999 86.85L7.95 86.75L7.84999 86.65V86.55V86.45H7.75L7.64999 86.55L7.54999 86.65V86.55H7.45V86.45V86.35H7.34999H7.25V86.25L7.34999 86.15V86.05V85.95H7.25V85.85V85.75L7.34999 85.65V85.55V85.45V85.35V85.25V85.15L7.45 85.05L7.64999 84.85L7.75 84.75L7.84999 84.65L7.95 84.55L8.04999 84.45L8.14999 84.35L8.34999 84.05L8.64999 83.85L8.75 83.75L8.84999 83.65V83.55L8.95 83.35V83.25H9.04999V83.15L9.25 82.65L9.45 82.35L9.75 82.15L10.05 81.85L10.15 81.75H10.25V81.65H10.45L10.55 81.55L10.65 81.45L10.85 81.35L11.15 81.25V81.05V80.95V80.85V80.75L11.05 80.65H10.95L10.85 80.55H10.65H10.55H10.45H10.35H10.25L10.15 80.45H10.05H9.95L9.84999 80.35H9.75L9.64999 80.25H9.54999V80.15H9.45L9.34999 79.95H9.25V79.85H9.14999V79.75H9.04999H8.95V79.65L8.84999 79.55H8.75V79.45H8.64999H8.54999L8.34999 79.35V79.25H8.25L8.14999 79.15L8.04999 79.05H7.95H7.84999H7.75H7.64999H7.54999H7.45L7.34999 78.95H7.25L7.14999 78.85H7.04999L6.95 78.75H6.84999H6.75V78.65H6.64999V78.55V78.45V78.35V78.15V78.05V77.95V77.85L6.54999 77.55V77.35L6.45 77.05H6.34999H6.25L6.14999 76.95H6.04999H5.95H5.84999V76.85V76.55V76.35L5.95 76.25V76.15V75.95V75.75V75.55V75.45H6.04999V75.35V75.25H5.95V75.15V75.05L5.84999 74.95V74.85V74.75V74.55V74.35V74.15L6.14999 74.25L6.25 74.05V73.95L6.34999 73.85L6.45 73.95V73.85V73.75L6.54999 73.65V73.55V73.45L6.64999 73.35V73.25V73.15V72.95L6.95 73.05V72.85V72.55L7.04999 72.35V72.25H7.14999H7.25H7.34999H7.45V72.15L7.34999 72.05L7.25 71.95L7.14999 71.85L7.04999 71.75H6.95V71.65H6.75L6.64999 71.55V71.45H6.54999L6.45 71.35L6.34999 71.25L6.25 71.15V71.05L6.14999 70.95V70.85L6.04999 70.75V70.65V70.45V70.35H5.95V70.25L6.04999 70.15V70.05L5.95 69.95V69.85V69.75L5.84999 69.55V69.45V69.35H5.95V69.25V69.15H5.84999L5.75 69.05H5.45H5.25L5.04999 68.75H4.95L4.34999 69.35L4.25 69.45H4.04999H3.75H3.54999H3.34999V69.35H3.45V69.25L3.34999 69.15H3.25V69.05L3.14999 68.95V68.75V68.65V68.55H3.04999V68.45L3.14999 68.25V68.15V68.05V67.95V67.85V67.75V67.65L3.04999 67.55V67.45V67.35H3.14999V67.25V67.15V67.05V66.95H3.04999V66.85V66.75V66.65H2.95V66.55V66.45V66.35H2.84999V66.25L2.75 66.15V66.05H2.84999L2.95 65.95V65.85V65.75V65.65V65.55L2.84999 65.45L2.75 65.35V65.25V65.15H2.64999V65.05L2.54999 64.95V64.85L2.45 64.75V64.65H2.34999L2.25 64.55L2.14999 64.45L2.04999 64.35V64.25H1.95V64.15V64.05V63.95L1.84999 63.85V63.75V63.65H1.75V63.55V63.45H1.64999V63.35V63.25V63.15L1.75 63.05L1.64999 62.95V62.85H1.54999V62.75H1.45L1.34999 62.65V62.55L1.25 62.45L1.14999 62.25H1.04999V62.15V62.05L0.949997 61.95V61.85H0.849991V61.75H0.75H0.649994V61.65V61.55L0.849991 61.45V61.35V61.15V61.05H0.949997V60.95H0.849991V60.85H0.75V60.75H0.649994L0.549988 60.65H0.449997V60.55V60.45V60.35V60.25V60.15V59.95V59.85L0.549988 59.75V59.65V59.55H0.449997V59.45V59.15V59.05V58.95L0.349991 58.75V58.65V58.55V58.45V58.25V58.15V58.05V57.95L0.25 57.85H0.349991V57.75H0.449997H0.549988V57.65V57.55V57.45V57.35V57.25V57.15V57.05H0.649994V56.95V56.85H0.75V56.75V56.65H0.849991V56.55L0.75 56.45V56.25V56.15L0.649994 56.05V55.95V55.85V55.75V55.65H0.549988V55.55V55.45V55.35V55.25V55.15H0.449997V55.05V54.95L0.349991 54.85H0.25L0.349991 54.75H0.449997L0.549988 54.65H0.649994H0.75H0.849991V54.75V54.85L1.04999 54.75H1.25H1.45H1.64999H1.84999L2.04999 54.65H2.25H2.34999L2.45 54.75V54.65V54.55H2.54999H2.64999V54.65H2.75H2.95H3.25H3.45H3.64999H3.95H4.04999V54.45L4.14999 54.25V54.05L4.25 53.85V53.75L4.34999 53.65V53.55H4.45V53.45H4.54999L4.95 53.55H5.14999H5.25V53.45H5.34999V53.35H5.45V53.25H5.54999V53.15H5.64999L5.75 53.05H5.84999H5.95V53.15L6.04999 53.25V53.35V53.45V53.55V53.65V53.75V53.85L6.14999 54.05H6.25H6.34999L6.45 53.95V53.85V53.75V53.65V53.55V53.45L6.34999 53.35L6.25 53.25L6.34999 53.15L6.25 52.85L6.14999 52.75V52.55H6.64999V52.45H6.75H6.84999H7.04999L7.25 52.55H7.34999H7.64999H7.75V52.15V52.05L7.84999 52.15H7.95H8.04999V52.05H7.95V51.95V51.85H8.04999V51.75H8.14999H8.25L8.45 51.85H8.54999H8.64999V51.95V52.05V52.15L8.75 52.25V52.35H8.84999L8.95 52.45H9.04999H9.25H9.34999L9.45 52.55H9.54999H9.64999L9.75 52.35H9.64999V52.25V52.15H9.54999V52.05V51.95H9.64999V51.85H9.54999V51.75H9.45H9.34999V51.65H9.45L9.54999 51.55L9.64999 51.45H9.75V51.35H9.84999H9.95H10.05H10.25L10.35 51.45H10.45L10.65 51.65L10.75 51.75H10.95L11.15 51.85H11.45H11.55V51.75V51.55L11.45 51.45V51.35L11.25 51.25H11.15H11.05L10.95 51.15H11.25H11.55H11.65H11.75H11.85H11.95V51.25L11.85 51.35H12.05H12.15L12.25 51.25V51.15V51.05H12.35V50.95V50.85L12.45 50.75V50.65V50.55V50.45H12.65V50.35V50.25V50.15V50.05H12.75V49.95V49.85V49.75V49.65V49.55L12.85 49.35H12.95L13.25 49.45L13.65 49.65V49.55L13.75 49.45V49.35L13.85 49.25V49.15H13.95L14.05 48.95L13.95 48.85V48.75L13.85 48.65V48.55V48.45L13.95 48.15V47.95V47.75L14.05 47.65H14.15H14.25H14.35L14.25 47.55V47.45V47.35V47.15V46.95V46.75L14.35 46.25V46.05L14.45 45.85V45.55V45.35V45.25V45.15L14.55 45.05L14.45 44.75L14.55 44.65V44.55L14.65 44.35L14.75 44.15L14.95 43.65V43.55L15.15 43.25L15.25 42.95L15.35 42.65L15.45 42.45L15.55 42.25V42.15L15.65 41.95V41.85L15.75 41.95H15.95L16.05 42.05H16.15V42.15H16.25L16.35 42.25H16.45L16.65 42.35H16.75V42.45H16.85V42.55L17.15 42.85L17.35 43.15L17.55 43.35V43.45V43.55H17.65V43.65H17.75L17.85 43.75H17.95M17.95 43.75V43.85M17.95 43.75L18.25 43.55L18.15 43.35L18.45 43.15L18.55 43.05L18.65 42.85L18.85 42.65L19.25 42.35L19.35 42.45L19.45 42.25L19.55 42.15L19.85 41.85L20.05 41.55L20.15 41.45L20.25 41.35V41.25L20.35 41.15V41.05H20.25V40.95L20.15 40.85V40.75H20.05L19.85 40.45L19.75 40.35V40.25L19.45 40.15H19.25L19.15 40.05L19.05 39.95H18.95V39.85V39.75H18.85L18.65 39.55L18.55 39.45H18.45L18.35 39.35L18.15 39.25L18.25 39.15L18.35 39.05V38.85V38.55L18.85 38.65L18.95 38.55V38.45L19.05 38.35V38.25V38.15V38.05V37.95V37.85V37.75H18.95V37.65V37.55L18.85 37.45V37.35V37.25V37.15H18.75V36.95V36.85V36.65V36.55V36.45V36.15V35.95V35.85V35.75L18.65 35.55V35.35V35.15L18.75 34.85V34.75H18.85H19.05V34.85H19.15L19.35 35.15L19.45 35.25H19.65H19.75L19.85 35.35H19.95V35.45H20.05H20.15H20.25H20.35H20.45H20.55H20.65H20.75H20.85H20.95V35.55L21.05 35.45V35.55H21.15H21.25H21.35V35.65H21.45V35.75L21.55 35.65H21.65L21.75 35.55V35.45V35.35V35.25V35.15L21.85 35.05V34.95V34.85V34.75M21.85 34.75H21.75M21.85 34.75H21.95H22.05H22.15V34.65L22.25 34.55V34.45L22.15 34.35V34.25H22.25H22.35H22.45H22.55H22.65H22.75L22.85 34.35H22.95H23.05H23.15H23.25L23.65 33.95H23.75V34.05H23.85L24.05 34.15H24.15H24.25L24.35 34.25H24.45L24.55 34.35H24.65H24.75L24.85 34.45H24.95L25.05 34.55H25.15V34.65V34.75V34.85H25.25H25.35H25.45H25.55H25.65L25.75 34.95H25.85H25.95H26.05H26.25L26.45 35.05H26.55L26.65 34.95H26.85L26.95 34.85L27.05 34.75V34.65V34.55V34.25H27.45V34.05H27.75V34.25V34.35H27.85L27.95 34.45L28.05 34.35H28.15V34.45V34.55H28.25H28.35H28.45V34.65H28.55H28.65H28.75H28.85V34.75H28.95V34.65H29.05V34.55H29.15V34.45L29.25 34.35L29.35 34.25V34.15V34.05V33.95H29.25V33.85H29.15V33.75H29.25V33.55L29.35 33.45H29.45L29.55 33.35H29.65V33.25V33.15V33.05H29.55H29.45L29.55 32.95V32.85L29.65 32.75H29.75H29.85H29.95H30.05H30.15L30.25 32.65H30.35V32.55H30.45H30.55H30.65L31.05 32.45L31.45 32.25V31.95H31.55H31.65H31.75H31.85H31.95H32.05V32.05H32.15V31.95H32.25H32.35L32.45 31.85H32.55H32.65L32.85 31.75H32.95H33.15H33.25L33.45 31.65V31.55V31.45V31.35H33.35V31.25V31.15H33.25V31.05V30.95H33.35L33.45 30.85H33.55H33.65H33.75V30.75V30.65V30.55V30.45V30.35V30.25L33.85 30.15V30.05L33.95 29.95V29.85V29.75L34.05 29.65V29.45L34.15 29.35V29.25V29.15L34.05 29.05V28.95L33.95 28.85V28.75H33.85V28.65H33.75V28.55V28.45H33.65V28.35V28.25H33.55V28.15V28.05V27.95L33.65 27.75V27.65L33.75 27.55L33.85 27.45V27.35L33.95 27.25V27.15V27.05H34.05V26.95V26.85V26.75V26.65V26.55V26.45H34.15V26.35H34.25H34.35V26.45L34.45 26.35H34.55L34.65 26.25L34.75 26.15H34.85L34.95 26.25H35.05H35.15H35.25L35.35 26.35H35.45H35.55L35.65 26.25V26.15H35.75V26.05H35.85H35.95H36.05V25.95V25.75H35.95L35.85 25.65L35.65 25.45H35.55L35.45 25.55H35.35V25.45H35.25H35.15H35.05V25.35H34.95H34.85V25.25V25.15V25.05L34.75 24.95V24.85V24.75L34.85 24.65L34.95 24.45V24.25L35.05 24.05H35.15L35.25 23.75L35.35 23.65L35.25 23.55V23.35L35.15 23.25V23.15L35.05 23.05V22.95V22.85L34.95 22.75V22.65V22.55H34.85V22.35H34.75L34.55 22.25L34.35 22.15H34.15L33.95 22.05H33.75L33.55 21.95H33.45L33.35 21.85L33.25 21.75H33.15L33.05 21.65H32.85V21.55H32.75L32.65 21.45L32.55 21.35L32.45 21.25L32.15 21.05V20.95L32.35 19.85L32.45 19.95H32.55H32.75V19.75L32.85 18.45L32.95 17.65H33.05L33.15 17.55H33.25H33.45L33.65 17.45H33.85L33.95 17.35V17.45V17.55H34.05H34.15H34.25V17.45H34.35V17.35H34.45H34.75H35.05H35.15H35.35H35.55H35.65V17.25H35.75H35.85H35.95L36.05 17.15H36.15L36.25 17.05H36.35V16.75L36.45 16.45V16.35L36.55 16.05V15.75H36.65V15.65V15.55H36.85V15.45H36.95H37.05L37.25 15.35V15.25V15.15V14.85L37.55 14.75V14.55L37.45 14.05V13.95V13.85H37.75H38.05L37.95 13.55L38.25 13.45L38.75 13.35L39.15 13.25V13.15V13.05V12.95L39.05 12.85V12.65L38.95 12.45V12.25H38.65L38.35 12.15H38.15H37.95L37.75 12.05H37.65H37.55H37.45V11.95L37.35 11.85L37.25 11.65L37.15 11.55V11.45V11.35V11.05V10.35V9.84999V9.75V9.64999V9.45L37.25 9.34999L37.35 9.25L37.45 9.14999L37.65 8.95L38.05 8.64999L38.25 8.45L38.55 8.14999H38.65L38.95 8.25H39.25H39.45H39.65L39.75 8.34999H39.85L39.95 8.45V8.54999H39.85L39.75 8.64999V8.84999V8.95H39.95L40.25 9.04999H40.45L40.85 9.14999H41.25L41.75 9.25L42.25 9.34999H42.35H42.45M42.45 9.34999V9.45M42.45 9.34999H42.55V9.25L42.65 9.04999L42.75 8.95V8.84999L42.85 8.75L42.95 8.64999V8.45L43.05 8.34999L43.15 8.25V8.04999H43.25V7.95L43.35 7.84999V7.75V7.64999H43.45V7.54999L43.55 7.45V7.34999L43.75 7.45H43.85V7.54999H43.95L44.15 7.75L44.35 7.84999L44.55 7.95L44.75 8.14999L44.95 8.25L45.05 8.34999L45.25 8.45H45.35L45.55 8.75L45.75 8.95V9.04999L45.85 9.14999L46.05 9.25H46.15L46.45 9.04999L46.75 8.84999L48.05 8.04999V7.95H48.15V7.84999H48.25L48.35 7.75H48.45L48.55 7.64999L48.75 7.54999L48.95 7.45L49.15 7.25H49.25L49.45 7.14999V7.25H49.55L49.65 7.34999L49.75 7.54999L49.95 7.75H50.05H50.15H50.35L50.45 7.64999H50.55H50.65H50.75H50.85H50.95V7.54999V7.45H51.05L50.95 7.34999H51.05V7.25L51.15 6.84999L51.25 6.54999L51.75 6.64999V6.75L52.15 6.84999H52.25L52.35 6.95L52.55 7.04999L52.65 7.14999H52.75H53.05L53.25 7.04999H53.35H53.55H53.65H53.85L54.15 6.84999H54.35L54.55 6.75L54.65 6.64999H54.75V6.75H54.85H54.95H55.05H55.15H55.25L55.35 6.84999H55.45H55.55L55.65 6.95V6.84999H55.75V6.95H55.85H55.95V6.84999H56.05H56.15H56.25L56.35 6.75M56.35 6.75V6.84999M56.35 6.75H56.45H56.55V6.64999H56.65L56.75 6.54999H56.85H56.95H57.05V6.45H57.15H57.35V6.34999H57.45H57.55H57.65V6.25H57.75V6.14999H57.85L57.95 5.84999L58.25 5.45L58.35 5.25L58.45 5.14999V5.04999V4.84999H58.35V4.75H58.45V4.64999V4.54999L58.55 4.45H58.65V4.34999L58.75 4.04999V3.95H58.85H58.95L59.05 3.84999H59.15V3.75L59.35 3.54999L59.55 3.25L59.75 2.95L59.85 2.75L60.45 2.25L60.55 2.14999L61.05 1.75V1.64999V1.45V1.34999V1.25H61.15L61.25 1.14999H61.35L61.55 1.04999H61.75H61.85H61.95L62.05 0.949997L62.15 1.04999H62.25L62.45 1.14999L62.55 1.04999H62.65L62.75 0.949997H62.85L62.95 1.04999H63.05H63.15V1.25H63.25V1.34999L63.35 1.45V1.54999V1.64999H63.45V1.84999L63.55 1.95H63.75H63.85H63.95H64.15H64.25H64.35V1.84999H64.55V1.95V2.04999V2.14999H64.65L64.85 2.25L64.95 2.34999H65.05L65.15 2.45V2.54999L65.25 2.64999L65.35 2.75V2.84999V2.95V3.04999V3.14999V3.25H65.45H65.55H65.65H65.75H65.85H65.95L66.05 3.14999L66.35 2.84999L66.55 2.64999L66.65 2.54999L67.05 2.14999L67.25 1.95L67.35 1.84999L67.45 1.75L67.55 1.64999L67.65 1.45H67.75L67.85 1.25H67.95V1.14999H68.05H68.15L68.25 1.25H68.35L68.65 1.45H68.75V1.54999H69.05H69.15L69.35 1.64999L69.95 1.84999L70.35 2.04999L70.55 2.14999L71.25 2.45L71.65 2.54999H71.75V2.64999H71.85H71.95H72.05V2.75H72.15H72.35L72.45 2.84999H72.55H72.65L72.85 2.95H72.95L73.15 3.04999H73.25H73.35V2.95H73.25L73.35 2.84999V2.75V2.64999L73.45 2.54999V2.45L73.55 2.34999V2.25H73.45V2.14999H73.55V2.04999L73.85 1.64999L73.95 1.45L74.25 1.04999V0.949997L74.35 0.849991H74.45L74.55 0.649994L74.65 0.549988H74.95H75.15H75.45H75.55H75.75H75.85L75.95 0.449997L75.85 0.25H75.95H76.15V0.349991V0.449997V0.549988V0.649994V0.75V0.849991V0.949997L76.05 1.04999H75.95V1.14999V1.25V1.45V1.64999V1.75H75.85V1.95H75.95V2.25V2.45V3.14999H75.85H75.75H75.65H75.55H75.35L75.25 3.04999V3.14999H75.15H75.05L74.95 3.25H74.85V3.34999H74.75H74.65L74.55 3.25L74.45 3.14999H74.35V3.25V3.45V3.54999V3.64999V3.84999V3.95V4.14999H74.45L74.65 4.04999L74.55 4.14999L74.35 4.75L74.05 5.75L74.75 6.04999L74.65 6.14999L74.75 6.34999L74.85 6.45L74.95 6.54999H75.05V6.64999H75.25H75.45H75.55L75.65 6.75H75.75V6.84999H75.85L76.05 7.14999V7.25H75.95L75.75 7.34999L75.65 7.45V7.54999V7.64999H75.75V7.75L75.85 7.84999L75.95 8.04999L76.05 8.14999L76.15 8.25L76.05 8.34999H75.95V8.45H75.85V8.54999V8.64999L75.95 8.75V8.84999L75.55 8.95H75.45V9.04999V9.14999H75.55V9.25H75.65V9.34999H75.75V9.45H75.85V9.54999H75.95V9.64999H76.05L76.15 9.75H76.25V9.84999V9.95V10.05H76.35H76.45H76.55H76.65V9.95H76.75L76.85 9.84999H76.95H77.05L77.15 9.95H77.25L76.95 10.65L76.85 10.75V10.85V10.95L77.05 11.05L77.15 11.15H77.25L77.35 11.25L77.45 11.35L77.65 11.45L77.75 11.55L77.85 11.65L77.95 11.75L78.25 11.95V12.05H78.35L78.45 12.15L78.55 12.25L78.75 12.35V12.55V12.65V12.75V12.85V12.95V13.15L78.25 13.25H78.15H78.05H77.75H77.65H77.55H77.45H77.25L77.05 13.35H76.95H76.85H76.75H76.45H76.35L76.15 13.45H76.05H75.95H75.55L75.35 13.55H75.15H75.05V13.65H75.15V13.75V13.85V13.95H75.25V14.05V14.15V14.25V14.35V14.45L75.15 14.55V14.65V14.75L75.05 14.95V15.05L75.35 15.25L75.15 15.75V15.95M75.15 15.95H75.05M75.15 15.95V16.05L75.35 16.15H75.65L75.75 16.25L75.85 16.35H75.95V16.45H76.05V16.55H76.15V16.65V16.85V16.95H76.25V17.05H76.35V17.15L76.25 17.25H76.35V17.35V17.45H76.45V17.55H76.35V17.65H76.25H76.05H75.95V17.75V17.85V18.05V18.15L75.85 18.35H75.75H75.65H75.55H75.45H75.35H75.25H75.15H75.05V18.45H74.95L74.85 18.55L74.75 18.65H74.65V18.75H74.55V18.85H74.45L74.35 18.95H74.25V19.05H74.15H74.05V19.15H73.95L73.85 19.25V19.35L73.95 19.45V19.35H74.05L74.15 19.45H74.25H74.35V19.55H74.45V19.65H74.55H74.65H74.75H74.85H74.95H75.05V19.75H75.15H75.25H75.35L75.25 19.95H75.35H75.45H75.55V20.05V20.15L75.45 20.25V20.35V20.45V20.55L75.35 20.65V20.85L75.25 20.95V21.05V21.15V21.35V21.45V21.55H75.15V21.65V21.75V21.85H75.05H74.95H74.85H74.65H74.55H74.45H74.35H74.25H74.15H74.05L73.95 21.75H73.85H73.75H73.65H73.55V21.85M73.55 21.85H73.45M73.55 21.85V21.95H73.45V22.05L73.55 22.25H73.45V22.35H73.35L73.25 22.45H73.15H73.05H72.95L72.85 22.55V22.65L72.75 22.75V22.85V22.95V23.05H72.65H72.55L72.45 23.15V23.25V23.65V23.75V23.85V23.95V24.05L72.35 24.15L72.25 24.25V24.35L72.35 24.65L72.55 25.05V25.15L72.65 25.65V25.75H72.75L72.85 26.25V26.45L72.95 26.55L73.05 26.85L73.25 27.15L73.35 27.35H73.25H73.15L73.05 27.45L72.95 27.55H72.85H72.75V27.65H72.65L72.55 27.75H72.45V27.85H72.25L72.15 27.95H72.05V28.05H71.95V28.15V28.25M71.95 28.25H71.85M71.95 28.25V28.35H71.85V28.45L71.75 28.55V28.65L71.65 28.75V28.95V29.15V29.25L71.75 29.35L71.95 29.45H72.15H72.25L72.55 29.55L72.65 29.65V29.75H72.75H72.85H72.95V29.85L73.15 29.95V30.05V30.15V30.25V30.35V30.45V30.55H73.25L73.35 30.65V30.75H73.45H73.55V30.85H73.65V30.95H73.75H73.85V31.05H73.95H74.05H74.15H74.25H74.35V31.15H74.45L74.55 31.25H74.65L74.75 31.35H74.85V31.45L74.95 31.65H75.05V31.75M75.05 31.75H75.15M75.05 31.75L74.95 31.95L74.75 32.05V32.15L74.65 32.25V32.35H74.55V32.45L74.45 32.55L74.35 32.65L74.15 32.95H74.05V33.05H73.95V33.15V33.25H74.05H74.15H74.25M74.25 33.25V33.35M74.25 33.25H74.35V33.35L74.25 33.45V33.55V33.65V33.75H74.35V33.85L74.25 33.95V34.05H74.35V34.15H74.45L74.55 34.25V34.35V34.45V34.55V34.65H74.65L74.75 34.75V34.85H74.85V34.95L74.95 35.05V35.15V35.25H75.05H75.15H75.25H75.35H75.45V35.35V35.45V35.55V35.65V35.75V35.85H75.55V35.95V36.05H75.65H75.75V36.15H75.85V36.25V36.35H75.95V36.45L76.05 36.55V36.65H75.95V36.75V36.85V36.95V37.05H76.05V37.15H76.15H76.25V37.25L76.35 37.35V37.45H76.45V37.55V37.65L76.25 38.15V38.25V38.35V38.45H76.35V38.55H76.45V38.65H76.55H76.65L76.75 38.75H76.95H77.05L77.15 38.85H77.05V38.95V39.05H76.95H76.85V39.15V39.25L76.95 39.35V39.45V39.55V39.65V39.75L77.05 39.85V39.95L77.15 40.05V40.15V40.25V40.35V40.45V40.55V40.65V40.75V40.85V40.95L77.25 41.05V41.15L77.15 41.25H77.05L76.95 41.35L76.75 41.55H76.65V41.65H76.55H76.45V41.75H76.35H76.25L76.15 41.85H76.05H75.95H75.85V41.95H75.75V42.05V42.15L75.65 42.25V42.35L75.55 42.45L75.45 42.55L75.35 42.65H75.25V42.75V42.85H75.15V42.95L75.05 43.05V43.15H74.95V43.25L74.85 43.35V43.45H74.75V43.55H74.65L74.55 43.65H74.65V43.75V43.85L74.75 43.95H74.85L74.95 44.05H75.05H75.15H75.25H75.35L75.45 44.15H75.55L75.65 44.25H75.75H75.85L75.95 44.35H76.05V44.45H76.15H76.25V44.55V44.65L76.35 44.75L76.45 44.85L76.55 44.95H76.65H76.75L76.85 45.05L77.05 45.15H77.15V45.25L77.25 45.35L77.35 45.65V45.75L77.45 45.85V46.05H77.55V46.15H77.65V46.25L77.75 46.35L77.85 46.45L77.95 46.55V46.65H78.05L78.15 46.75H78.25L78.35 46.85V46.95H78.45V47.05L78.55 47.15V47.25V47.35V47.45V47.55V47.65V47.75L78.65 47.85V47.95L78.75 48.05L78.65 48.15H78.55V48.25H78.45H78.35H78.25H78.15L78.05 48.35V48.45V48.55L78.15 48.65V48.75L78.25 48.85V48.95L78.35 49.15V49.25V49.35H78.25V49.45V49.55L78.15 49.65H78.05L77.95 49.75L77.85 49.85V49.95H77.75L77.65 49.85H77.55L77.45 49.75H77.35L77.25 49.65H77.15V49.55H77.05H76.95H76.85V49.65H76.75H76.65L76.55 49.75V49.85V49.95V50.05V50.15V50.25H76.45V50.35V50.45H76.35V50.55V50.65H76.25V50.75H76.15V50.85H76.05L75.95 50.95H75.85V51.05V51.15V51.25H75.75V51.35H75.65V51.45H75.55V51.55V51.65H75.45V51.75H75.35H75.25H75.15H75.05V51.85V51.95V52.05V52.15H75.15V52.25V52.35V52.45H75.25V52.55H75.35V52.65V52.75L75.45 52.85V52.95H75.55L75.65 53.05L75.75 53.15V53.25V53.35V53.45V53.55V53.65V53.75V53.85H75.65H75.55V53.95H75.45V54.05V54.15V54.25V54.35L75.55 54.45L75.65 54.55V54.65H75.75V54.75V54.85V54.95H75.85V55.05L75.75 55.15V55.25V55.35V55.45V55.55H75.85V55.65V55.75V55.85V55.95H75.95V56.05H76.05V56.15V56.25M76.05 56.25H75.95M76.05 56.25V56.35H75.95H75.85V56.45H75.75V56.55H75.65H75.55V56.65H75.45H75.35H75.25H75.15V56.55V56.45H75.05V56.35V56.25H75.15V56.15V56.05L75.05 55.95H74.95H74.85H74.75H74.65V55.85H74.55V55.95H74.45V56.05V56.15V56.25H74.35H74.25V56.35H74.15H74.05H73.95V56.45H73.85H73.75V56.55V56.65L73.65 56.75V56.85V56.95L73.55 57.05V57.15H73.45V57.25L73.35 57.35V57.45H73.25L73.05 57.65V57.75H72.95V57.85V57.95V58.05V58.15V58.35L72.85 58.45V58.55H72.95V58.65L72.85 58.75L72.75 58.85H72.65V58.95H72.55V59.05H72.45L72.35 59.15L72.25 59.25V59.35L72.15 59.45V59.55V59.65H72.25H72.35H72.45V59.75H72.55H72.65V59.85V59.95V60.05H72.75L72.85 60.15V60.25H72.95V60.35L73.05 60.45L73.15 60.55L73.25 60.65V60.75H73.35V60.85V60.95H73.45H73.55V61.05H73.65H73.75V61.15H73.85L73.95 61.25H74.05V61.35H74.15V61.45L74.25 61.55L74.35 61.65H74.45V61.75V61.85V61.95V62.05V62.15L74.55 62.25V62.35V62.45V62.55V62.65V62.75V62.85V62.95V63.05V63.15V63.25V63.35V63.45V63.65V63.75H74.45V63.85H74.55V63.95L74.65 64.05V64.15H74.75V64.25V64.35L74.85 64.45V64.55L75.05 64.65V64.75H75.15V64.85V64.95L75.05 65.05V65.15H74.95L74.65 65.45H74.75V65.55H74.65V65.65L74.75 65.75V65.85L74.85 66.05L74.95 66.15L75.05 66.25L75.15 66.35V66.45H75.25L75.35 66.55L75.45 66.65L75.55 66.75L75.75 66.65H75.85V66.75L75.95 66.95L76.15 67.15V67.25H76.25L76.35 67.15V67.25L76.45 67.35L76.55 67.45H76.45V67.55H76.35L76.25 67.65H76.35V67.75M76.35 67.75H76.25M76.35 67.75L76.45 67.85H76.55H76.65V67.95H76.75H76.85V68.05V68.15H76.75V68.25H76.65V68.35V68.45M76.65 68.45H76.55M76.65 68.45V68.55V68.65V68.75V68.85H76.55M76.55 68.85V68.75M76.55 68.85V68.95V69.05H76.45V69.15H76.55V69.25V69.35L76.45 69.45L76.35 69.55L76.25 69.65H76.15H76.05V69.75V69.85H76.15V69.95H76.25H76.35L76.45 70.05H76.55L76.65 70.15H76.75L76.85 70.25H76.95H77.05L77.15 70.35H77.25H77.35V70.45H77.25V70.55L77.15 70.65L77.05 70.75V70.85L76.95 70.95V71.05H76.85V71.15H76.75V71.25H76.65V71.35L76.75 71.45H76.85H76.95H77.05H77.15V71.55H77.25V71.65V71.75V71.85V71.95V72.05V72.15V72.25H77.15H77.05V72.15H76.95V72.05H76.85V71.95V71.85H76.75H76.65H76.55V71.95H76.45V72.05V72.15V72.25V72.35H76.35V72.45V72.85V73.45V73.55V73.65V73.75L76.45 73.85L76.55 73.95L76.65 74.05L76.75 74.15H76.85L76.95 74.35L77.15 74.45H77.25L77.35 74.65L77.45 74.75L77.65 74.95V75.05V75.15V75.25L77.55 75.35V75.45V75.55H77.45V75.65H77.35V75.75L77.45 75.85V75.95H77.55V76.05H77.65V76.15H77.75V76.25H77.85L77.95 76.35V76.45H78.05V76.55V76.65H77.95M77.95 76.65V76.75M77.95 76.65H77.85V76.75H77.75H77.65H77.55V76.85V76.95V77.05H77.65V77.15H77.75V77.25L77.85 77.35H77.95V77.45V77.55H77.85V77.65H77.75V77.55H77.65H77.55V77.45H77.45M77.45 77.45V77.35M77.45 77.45H77.35H77.25H77.15V77.55V77.65V77.75V77.85H77.25V77.95H77.35V78.05H77.45V78.15H77.55H77.65V78.25H77.75V78.35H77.85L77.95 78.45V78.55V78.65V78.75H77.85V78.85H77.75L77.65 78.95V79.05H77.55L77.45 79.15V79.05H77.35V79.15L77.25 79.25H77.15V79.35L77.25 79.45V79.55H77.35V79.65V79.75H77.45L77.35 79.85V79.95V80.05H77.25V80.15V80.25H77.15V80.15H77.05V80.05H76.95H76.85H76.75L76.65 79.95H76.55H76.45H76.35H76.25H76.15H76.05H75.95V80.05H75.85L75.75 79.95H75.65H75.55H75.45H75.35H75.25V80.05H75.15V80.15V80.25H75.05V80.35V80.45H75.15V80.55V80.65V80.75L75.25 80.85H75.35V80.95H75.45V81.05H75.35V81.15H75.25H75.15V81.25H75.05V81.35H74.95L75.05 81.45V81.55H75.15V81.65H75.25V81.75H75.15V81.85V81.95H75.05H74.95H74.85L74.75 81.85H74.65V81.95H74.55V82.05H74.65V82.15V82.25H74.75V82.35H74.85V82.45V82.55H74.75V82.65M74.75 82.65H74.85M74.75 82.65V82.75H74.65V82.85H74.55V82.95V83.05L74.45 83.15V83.25L74.35 83.35V83.45H74.25V83.55V83.65V83.75V83.85V83.95V84.05L74.35 84.15M74.35 84.15V84.05M74.35 84.15V84.25H74.45M74.45 84.25V84.15M74.45 84.25V84.35H74.55V84.45M74.55 84.45H74.65M74.55 84.45V84.55H74.65V84.65H74.75V84.75H74.85V84.85V84.95V85.05V85.15H74.75V85.25V85.35H74.65V85.45H74.55V85.55H74.45V85.65H74.55V85.75H74.65H74.75H74.85V85.85H74.95H75.05H75.15H75.25V85.95H75.35H75.45V86.05H75.55V86.15H75.45V86.25H75.55V86.35V86.45M75.55 86.45H75.65M75.55 86.45V86.55H75.45V86.65H75.35H75.25V86.75H75.15V86.65H75.05V86.55H74.95V86.45V86.35H74.85H74.75V86.45H74.65V86.55V86.65H74.55V86.75V86.85V86.95H74.65V87.05V87.15V87.25H74.75V87.35H74.85V87.45V87.55H74.95V87.65M74.95 87.65H75.05M74.95 87.65V87.75V87.85V87.95H74.85V88.05V88.15V88.25H74.75V88.35V88.45H74.85H74.95H75.05L75.15 88.55H75.25V88.65M75.25 88.65H75.35V88.75L75.25 88.65ZM75.25 88.65V88.75L75.15 88.85H75.05M75.05 88.85H74.95M75.05 88.85V88.95H74.95M74.95 88.95V89.05M74.95 88.95H74.85V89.05V89.15L74.95 89.25V89.35L75.05 89.45H74.95V89.55H75.05V89.65M75.05 89.65H74.95M75.05 89.65V89.75V89.85V89.95V90.05V90.15L75.15 90.05V90.15H75.25V90.25V90.35M75.25 90.35H75.15M75.25 90.35V90.45V90.55V90.65V90.75V90.85V90.95V91.05V91.15V91.25V91.35V91.45V91.55H75.15H75.05V91.65V91.75H74.95V91.85H75.05V91.95H74.95H74.85V92.05H74.95V92.15H74.85V92.25H74.95V92.35V92.45V92.55V92.65H74.85L74.75 92.75V92.85L74.65 92.95V93.05V93.15H74.75V93.25H74.85H74.95L75.05 93.35H75.15L75.25 93.25H75.35H75.45H75.55H75.65H75.75H75.85V93.35V93.45H75.75V93.55H75.65L75.55 93.65L75.45 93.75H75.35L75.25 93.85H75.15H75.05H74.95H74.85V93.95H74.75L74.55 94.05L74.45 94.15H74.35V94.25L74.25 94.35V94.45V94.55V94.65V94.75V94.85L74.35 94.95V95.05L74.45 95.15L74.55 95.25L74.75 95.45L74.85 95.55L74.95 95.65L75.15 95.85L75.25 95.95H75.35V96.05H75.45V96.15V96.25V96.35V96.45V96.55L75.35 96.65H75.25H75.15H75.05H74.95V96.75H75.05V96.85H74.95V96.95V97.05V97.15L75.05 97.25V97.35H75.15V97.45H75.25V97.55V97.65H75.35V97.75H75.45H75.55V97.85H75.65H75.75V97.95H75.85V98.05V98.15V98.25V98.35V98.45V98.55H75.75V98.65M75.75 98.65H75.85M75.75 98.65V98.75H75.85L75.75 98.85H75.65V98.95H75.55H75.45V98.85H75.35L75.25 98.95L75.15 98.85H75.05H74.95H74.85H74.75V98.75H74.85V98.65H74.75H74.65H74.55V98.75H74.45H74.35H74.25L74.15 98.85H74.05V98.95L73.95 99.05V99.15H73.85V99.25V99.35H73.95V99.45L74.05 99.55L74.15 99.65V99.75H74.25H74.35V99.85H74.45H74.55H74.65H74.75H74.85H74.95H75.05H75.15V99.75H75.25H75.35V99.85H75.45H75.55V99.95L75.65 100.05V100.15V100.25V100.35H75.55V100.45H75.45V100.55V100.65H75.35L75.25 100.75H75.15V100.85H75.05H74.95H74.85H74.75V100.75H74.65L74.55 100.65H74.45H74.35V100.55H74.25H74.15V100.65M74.15 100.65H74.25M74.15 100.65V100.75H74.05H73.95V100.85V100.95L73.85 101.05H73.95V101.15H73.85V101.25H73.95V101.35V101.45H74.05V101.55H74.15V101.65H74.25H74.35H74.45V101.75H74.55H74.65V101.85H74.75H74.85L74.95 101.95H75.05H75.15V102.05H75.25H75.35V102.15H75.45V102.25V102.35V102.45V102.55V102.65V102.75V102.85H75.35V102.95V103.05H75.25V103.15V103.25H75.15V103.35V103.45L75.05 103.55V103.65H74.95V103.75H74.85V103.85V103.95H74.75V104.05V104.15V104.25V104.35V104.45V104.55V104.65H74.85V104.75V104.85H74.95V104.95H75.05V105.05H74.95V105.15V105.25H74.85H74.75H74.65H74.55H74.45H74.35H74.25V105.35V105.45H74.35V105.55H74.25V105.65L74.35 105.75V105.85L74.45 105.95H74.55V106.05H74.65V106.15L74.75 106.25H74.85V106.35H74.95H75.05V106.25H75.15L75.25 106.15L75.35 106.05V105.95L75.45 105.85V105.75L75.55 105.65V105.55H75.65H75.75H75.85H75.95L76.05 105.65H76.15L76.25 105.75V105.85V105.95H76.35V106.05V106.15V106.25H76.25V106.35H76.15H76.05V106.45H75.95V106.55H75.85H75.75H75.65V106.65H75.55H75.45H75.35V106.75L75.25 106.85V106.95V107.05H75.35V107.15V107.25M75.35 107.25H75.25M75.35 107.25V107.35V107.45H75.45V107.55H75.55V107.65V107.75L75.65 107.85V107.95H75.75V108.05V108.15L75.65 108.25V108.15H75.55V108.25V108.35H75.45V108.45H75.35V108.55V108.65H75.45V108.75L75.55 108.85V108.95H75.65V109.05V109.15V109.25V109.35H75.55V109.45H75.45H75.35H75.25H75.15V109.55H75.05V109.65V109.75V109.85H75.15V109.95V110.05H75.25L75.35 110.15L75.55 110.25H75.65H75.75H75.85H75.95V110.35V110.45H76.05V110.55H76.15V110.65V110.75V110.85V110.95V111.05V111.15L76.05 111.25V111.35L75.95 111.45V111.55H76.05V111.65V111.75H76.15V111.85H76.25H76.35V111.95H76.45H76.55V112.05H76.65V112.15L76.75 112.25V112.35V112.45V112.55V112.65V112.75V112.85H76.85V112.95H76.95H77.05V112.85H77.15L77.25 112.75V112.65L77.45 112.55H77.55H77.65H77.75L77.85 112.65H77.95V112.75V112.85V112.95V113.05H78.05V113.15H77.95V113.25H77.85V113.35V113.45H77.75V113.55V113.65H77.65H77.55H77.45H77.35L77.25 113.55H77.15H77.05V113.45V113.35L76.95 113.25L76.85 113.15H76.75V113.25H76.65L76.55 113.15H76.45H76.35V113.25V113.35H76.25V113.45V113.55V113.65H76.35H76.45V113.75L76.55 113.85V113.95H76.45V114.05H76.55V114.15H76.65V114.25V114.35H76.75V114.45V114.55H76.85V114.65V114.75V114.85V114.95H76.75V115.05H76.65V114.95H76.55H76.45H76.35V114.85H76.25H76.15H76.05L75.95 114.75V114.65V114.55V114.45V114.35V114.25V114.15H75.85H75.75H75.65H75.55V114.25V114.35V114.45H75.45V114.55V114.65V114.75L75.55 114.85V114.95V115.05V115.15H75.65V115.25V115.35V115.45V115.55V115.65H75.75V115.75H75.85V115.85H75.95H76.05H76.15H76.25V115.75L76.35 115.85H76.45H76.55V115.75H76.65V115.85H76.75H76.85V115.95L76.95 116.05V116.15V116.25L77.05 116.35H76.95V116.45V116.55V116.65H76.85V116.75L76.75 116.85V116.95H76.65L76.55 117.05V117.15V117.25H76.65V117.35H76.75L76.85 117.45H76.95L77.05 117.55H77.15H77.25H77.35V117.65V117.75V117.85H77.25V117.95V118.05H77.15V118.15H77.05H76.95H76.85L76.75 118.05H76.65V117.95H76.55V117.85V117.75H76.45V117.65H76.35V117.75H76.25V117.85V117.95V118.05V118.15V118.25H76.35L76.45 118.35H76.55L76.65 118.45H76.75V118.55V118.65H76.85L76.95 118.75H77.05H77.15V118.85H77.25V118.95V119.05V119.15V119.25V119.35L77.15 119.45H77.05V119.55H76.95L76.85 119.65V119.75V119.85L76.95 120.05L77.05 120.25V120.35V120.45L76.95 120.55L76.85 120.65L76.75 120.75V120.85H76.65V120.95V121.05L76.55 121.15V121.25V121.35V121.45H76.65V121.55H76.75V121.65H76.65V121.75V121.85H76.75M76.75 121.85V121.95M76.75 121.85H76.85H76.95V121.95V122.05V122.15V122.25H76.85V122.35V122.45H76.75H76.65H76.55H76.45H76.35H76.25H76.15V122.55H76.05V122.65V122.75V122.85L76.15 122.95V123.05L76.25 123.15H76.35V123.25H76.45H76.55H76.65H76.75V123.35H76.85H76.95V123.25H77.05H77.15V123.15H77.25H77.35V123.25V123.35H77.25V123.45H77.15V123.55V123.65V123.75V123.85H77.25V123.95V124.05V124.15H77.35V124.25L77.45 124.35H77.55H77.65M77.65 124.35V124.45M77.65 124.35H77.75H77.85H77.95H78.05L78.15 124.25H78.25L78.35 124.05L78.45 123.95L78.55 123.85H78.65H78.75H78.85H78.95V123.95H79.05V124.05V124.15H79.15V124.25V124.35V124.45H79.05V124.55H78.95V124.65V124.75V124.85V124.95V125.05H78.85V125.15V125.25H78.75V125.35V125.45L78.65 125.55H78.55L78.45 125.65V125.75H78.55L78.65 125.85L78.75 125.95H78.85V125.85H78.95H79.05V125.95H79.15H79.25V125.85V125.75H79.35V125.85H79.45H79.55V125.75H79.65L79.75 125.65L79.85 125.55H79.95V125.45V125.35V125.25H80.05V125.15H80.15H80.25V125.05L80.35 125.15H80.45V125.25H80.55V125.35V125.45V125.55V125.65V125.75L80.45 125.85H80.35V125.95L80.25 126.05H80.15H80.05V126.15L79.95 126.25H79.85L79.75 126.35V126.25H79.65V126.35H79.55L79.45 126.45L79.55 126.55H79.65V126.65H79.75V126.75V126.85H79.85H79.95H80.05H80.15H80.25H80.35H80.45V126.75H80.55H80.75L80.85 126.65H80.95H81.05V126.75H81.15V126.85L81.25 126.95V127.05V127.15L81.35 127.25H81.25V127.35V127.45L81.15 127.55H81.05V127.65H80.95H80.85H80.75H80.65H80.55H80.45H80.35L80.25 127.55H80.15V127.45H80.05V127.35H79.95V127.45H79.85L79.75 127.55V127.65V127.75V127.85H79.85L79.95 127.95V128.05H80.05H80.15H80.25V128.15H80.35L80.45 128.25V128.35H80.55H80.65H80.75H80.85H80.95H81.05V128.45H81.15V128.55H81.25V128.65H81.35H81.45V128.75V128.85V128.95V129.05L81.35 129.15V129.25M81.35 129.25H81.45M81.35 129.25V129.35V129.45L81.25 129.55H81.35V129.65H81.45H81.55L81.65 129.75H81.75V129.85H81.85H81.95H82.05V129.75H82.15H82.25V129.85V129.95L82.35 130.05V130.15H82.25V130.25V130.35V130.45H82.15V130.55L82.25 130.65H82.35H82.45H82.55H82.65V130.55H82.75V130.45M82.75 130.45H82.65" stroke="white" stroke-width="0.5" stroke-linecap="round" stroke-linejoin="round"/>
</svg>
