<svg width="164" height="151" viewBox="0 0 164 151" fill="none" xmlns="http://www.w3.org/2000/svg">
<path d="M160.05 43.55L160.15 43.75L160.45 44.15L160.55 44.25L160.65 44.45L160.95 44.85V44.95L161.45 45.85L161.55 45.95L161.75 46.35L161.95 46.65L162.05 46.75L162.25 47.05L162.45 47.25L162.65 47.45L162.85 47.75L163.05 47.85L163.25 48.15L163.45 48.35L163.55 48.45V48.55L163.15 48.95H163.05L162.85 49.15V49.25H162.75H162.65H162.55H162.45H162.25H161.85L161.65 49.15H161.55H161.45L161.35 49.05H161.25H161.15H160.95H160.85L159.95 49.15H159.85H159.75V49.25L159.85 49.35V49.45V49.65L159.75 49.75L159.65 50.05L159.55 50.55L159.45 50.75L159.35 50.95V51.05L160.25 51.85L160.45 51.95L160.55 52.05L160.75 52.35L160.85 52.45L160.95 52.55L161.25 52.65L161.65 52.75L161.55 53.35H160.95L160.75 53.45L160.65 53.65V53.75L160.15 54.05H160.05V54.25L159.75 54.45L159.65 54.65L159.45 54.85L159.35 55.35V55.45L159.15 55.55L158.75 55.75H158.35V55.65H158.25V55.55H158.15H158.05V55.45H157.95L157.85 54.85L157.75 54.75L157.65 54.65L157.45 55.05L157.25 55.35L157.15 55.65L156.85 56.25L156.55 57.15L156.45 57.25V57.35V57.45V57.55L156.65 57.95L156.85 58.45L157.05 58.75L157.25 58.95H157.35L157.55 59.25L158.35 58.65L158.55 58.75L158.65 58.85H158.75H159.05H159.35L159.75 58.95V59.05V59.45H159.65L159.45 59.65L158.85 59.85L159.15 60.25H159.55V60.55V60.85V60.95V61.05H159.45V61.15L159.55 61.25L159.65 61.55L159.45 61.65H159.85V61.85V61.95H159.95L160.05 62.15L160.15 62.25L160.25 62.35H160.45V62.45V62.55L160.35 62.65L160.25 62.75V62.85L160.35 62.95H160.45V63.05H160.55H160.65V62.95V62.85L160.85 62.95V63.05L161.15 63.25L160.75 63.35L158.85 63.95H158.75H158.65V64.05L158.35 64.35L158.25 64.45V64.65L158.35 64.95L158.45 65.05L158.55 65.25V65.35H158.65V65.45V65.55H158.55L157.95 65.65H157.85V65.75L157.75 65.95L157.65 66.05V66.15L157.75 66.35L157.65 66.45V66.55H157.55L157.65 66.75H157.55H156.95H156.45L156.25 66.85H156.05V67.35L155.95 68.15H155.55V68.45V68.55V68.65L155.65 68.75L155.75 68.95V69.05L155.85 69.15L156.05 69.45H156.15L156.25 69.55L156.35 69.65L156.45 69.75V69.85H156.55V69.95V70.05L156.45 70.15L156.05 70.05H155.55H155.25H155.05L154.95 70.25L154.75 70.15L154.55 70.05L154.35 69.95H154.05L153.85 69.75V69.85L153.65 70.35L153.15 71.55V71.65L154.25 71.75H155.15V72.15V72.25L154.85 72.55L154.75 72.85L154.55 72.95L154.25 73.05L153.85 73.35L153.55 73.55L153.45 73.65L153.15 73.95L153.05 74.05L152.45 73.95H152.15H151.75L151.45 73.85H151.15V73.95L151.05 74.25V74.35V74.45L150.95 74.55L150.85 74.75V74.85H150.95V74.95V75.15L151.05 75.25V75.35L150.95 75.45V75.55L150.85 75.65V75.75L150.75 75.85V75.95H150.65V76.05L150.95 76.15L151.05 76.25L151.35 76.45V76.75L151.25 76.95V77.75L151.15 78.25V78.55L151.05 78.85V79.25L150.95 79.75L151.95 79.65H152.65L152.55 80.35L152.75 80.45V80.85V81.45L152.65 81.75V81.85H152.75L152.85 81.95L152.75 82.05V82.15L152.85 82.05L153.25 82.55L153.65 82.95V83.05V83.25L153.55 83.35V83.65V84.05L153.45 84.35V84.65L153.35 85.05V85.45L153.25 85.85V85.95V86.15L153.15 86.25V86.45V86.85H153.05V86.95V87.15L153.15 87.35V87.55V87.75H153.05L152.95 87.85V88.05V88.15L152.75 88.45V88.55V88.65H152.65V88.75L152.75 88.85V88.95L152.85 89.15L152.95 89.35L153.05 89.65V89.75V89.95H153.15V90.05H153.25H153.35L153.85 90.15H153.95L154.25 90.25L154.65 90.35L155.45 90.55L155.85 90.65H155.95H156.05H156.15V90.75L156.25 91.05V91.15L156.35 91.25L156.45 91.55L156.55 91.75L156.75 92.15L156.55 92.25L156.45 92.35H156.35L156.05 92.45H155.75L155.25 92.55H155.05L154.85 92.65H154.75H154.55L154.45 92.75L154.25 92.85L153.85 93.25H153.75L154.45 94.05L154.25 94.15L154.15 94.25L153.75 94.35H153.55L153.65 94.45V94.55V94.65H153.55H153.45L153.35 94.75H153.15V94.85H153.05L152.95 94.95H152.75L152.65 95.05H152.55L152.15 95.15L152.25 95.35V95.45L152.45 95.75L152.35 95.85H152.25H152.15H152.05L151.95 95.95V96.05L151.85 96.15V96.25L151.65 96.45L151.55 96.65L151.45 96.95L151.35 97.05L151.25 97.35L151.15 98.25V98.35H151.05L150.95 98.55H150.65H150.55L150.05 98.45V98.25H149.85L149.55 98.15H149.45H149.35V98.25H149.25V98.15H149.15H149.05H148.95H148.85H148.75H148.65V98.25V98.45V98.55L148.15 98.35L147.65 98.25L146.95 97.95L146.05 97.75L144.85 97.35L144.45 97.15H144.35H144.15L143.95 97.05L143.25 96.95L142.45 96.75L141.85 96.65L141.15 96.45L140.45 96.35L139.75 96.25L139.55 96.15H139.45H139.35H139.25L139.05 96.25H138.95L138.75 96.35H138.65H138.55H138.35H138.25H137.85H137.75L137.65 96.25H137.45H137.35H137.15L137.05 96.35L136.85 96.45L136.75 96.55L136.45 97.05H136.35V97.15L136.25 97.25L136.05 97.55L135.95 97.65L135.75 97.85L135.35 98.15L134.25 98.85L134.15 98.95L134.05 99.05L133.95 99.25L133.85 99.35V99.55L133.75 99.65L133.65 100.05H133.55V100.15H133.65L133.75 100.25H133.85H133.95H134.05H134.15L134.25 100.35H134.35H134.45L134.65 100.45L134.85 100.55H134.95L135.15 100.65L135.25 100.75L135.45 100.85L135.65 100.95L135.95 101.15L136.15 101.25L136.25 101.35H136.35V101.45H136.45V101.55H136.55V101.65V101.75V101.95H136.65V102.05V102.15V102.25L136.75 102.35V102.55L136.85 102.65V102.75V102.85V102.95H136.75H136.65H136.55L136.35 102.75H136.25H136.15L135.95 102.85L135.75 102.95H135.85V103.05H135.95L136.05 103.15L136.25 103.25H136.35L136.45 103.35V103.45H136.55V103.55L136.75 103.85H136.85L137.05 103.65H137.15H137.25L137.35 103.75L137.45 103.85L137.55 104.05L137.65 104.15H137.75L137.95 104.35V104.45L137.35 104.75L135.95 105.45L135.35 105.65L133.85 106.05L133.55 106.15H133.45L133.35 106.05L133.15 106.35L132.95 106.45L133.15 106.65L133.25 106.75V106.85H133.35V106.95L133.55 107.05H133.65L133.55 107.35L133.65 107.45L133.75 107.55L133.85 107.65V107.75L133.95 107.85V107.95V108.05H134.05V108.15V108.25H133.95V108.35V108.45V108.55V108.65L133.85 108.75H133.75L133.65 108.85H133.55V108.95L133.45 109.05V109.15V109.25H133.35H133.15H132.85H132.75H132.65H132.55H132.45V109.35V109.45L132.35 109.65L132.15 109.75V109.85L132.05 109.95L131.95 109.85V109.75V109.65V109.55V109.45V109.35H131.85V109.45L131.75 109.55V109.65H131.65V109.75H131.55H131.45V109.85H131.35V109.95H131.25V110.05H131.15V109.95L131.05 109.85H131.15V109.75V109.65V109.55V109.45V109.35H131.05V109.45L130.95 109.55L130.85 109.65H130.75L130.65 109.55L130.55 109.45V109.35L130.35 109.45H130.25V109.55H130.15H130.05V109.45H129.95H129.75H129.65L129.55 109.35H129.45V109.45L129.35 109.55V109.65L129.25 109.75V109.85L129.15 109.95L129.05 110.05L128.95 110.15H128.85H128.75H128.65H128.55H128.45L128.35 110.25H128.25H128.15H128.05L127.95 110.35H127.85L127.75 110.45V110.55L127.85 110.65V110.75L127.95 110.95L128.05 111.15H127.95V111.25H127.85V111.35V111.45V111.55V111.65L127.95 111.75V111.85H128.05L128.15 111.95V112.05V112.15V112.25H128.05V112.15L127.95 112.25L127.85 112.15L127.35 112.05L127.25 112.55L127.15 112.85V113.25V113.75V113.85L127.25 114.15V114.45V114.55H127.15H127.05V114.65H126.85V114.75H126.75H126.65L126.55 114.65V114.45V114.25L126.45 114.15L126.25 114.05H126.15L126.05 113.95L125.85 113.85H125.75L125.65 114.05L125.55 114.25V114.35V114.45H125.45V114.55L125.05 114.75V114.65L124.75 114.85L124.65 114.95H124.55H124.25L124.15 115.15V115.25H124.25H124.35H124.55H124.65H124.75V115.35V115.45H124.65H124.55H124.45H124.35V115.55V115.65V115.85H124.25V115.75V115.65H124.15H124.05H123.95V115.55L123.85 115.65L123.75 115.75V115.85H123.65V115.95V116.05L123.55 115.95H123.45V116.05V116.15H123.55V116.25H123.45H123.35V116.35H123.25V116.45L123.35 116.55V116.65H123.45H123.55H123.65H123.75L123.95 116.55L124.05 116.65L124.15 116.75H124.05H123.95H123.85V116.85H123.75V116.95V117.05H123.85V117.15H123.95H124.05V117.25V117.35H124.15V117.45H124.25H124.35H124.45H124.55H124.65L124.55 117.55V117.65V117.75L124.35 117.85H124.05H123.95V118.15V118.25V118.35V118.45H124.05V118.55H124.15H124.25V118.65V118.75H124.35L124.45 118.85H124.55H124.65H124.75V118.95H124.85V118.85H124.95V118.55L125.15 118.65V118.75L124.95 118.95V119.05V119.15H125.05H125.15V119.45L125.05 119.75V119.85L124.95 120.15H124.85L124.55 120.05H124.25L123.85 120.25H123.65V120.35H123.55V120.25V120.15V120.05H123.35H122.95H122.75H121.95V120.85L121.85 121.25L120.75 121.15V121.25L120.05 121.15H119.95H119.75V121.25V121.35H119.65L119.75 121.45V121.55H119.65V121.65V121.75V121.85H119.55V121.95L119.45 122.05L119.35 122.15V122.25L119.25 122.35V122.45V122.55H119.15V122.65H119.05V122.75H118.95V122.85H118.85V122.95H118.75H118.65H118.55V123.05V123.15H118.45V123.25H118.35V123.15H118.25H118.15V123.25V123.45V123.55H118.05V123.65V123.75V123.85L117.95 123.95V124.05H118.05V124.25V124.35V124.65L118.15 125.05L118.25 125.45V125.65V125.75L118.15 128.05V128.35L117.35 128.05L117.15 127.95L117.05 127.85L116.85 127.75H116.75L116.65 127.65H116.55H116.45L116.35 127.55L116.25 127.45V127.35L116.15 127.25V127.15L116.05 126.95H115.55V126.85L115.65 126.55L115.75 126.45L115.85 126.25L115.45 126.15H115.35H115.25H115.15H115.05H114.95L114.45 125.95L114.05 125.85L113.95 125.75L113.45 125.55L112.75 127.15L112.35 128.15H112.25H111.85L111.75 128.35H111.45H110.85H110.65H110.55L110.45 128.25H110.35H110.25H110.15H110.05L109.95 128.15H109.85L109.65 128.05L109.45 128.65V128.95L109.35 129.35H109.25L109.15 129.25H109.05H108.75V129.45L108.65 129.65L108.45 129.95V130.05L108.15 130.45L108.45 130.65L108.75 130.85L109.05 131.05L109.15 131.15L109.35 131.25L109.55 131.35H109.65V131.45V131.65L109.55 131.95H109.65H110.15L110.65 132.05H110.55V132.35L110.45 132.85L110.35 133.15H110.25L110.05 133.35H109.95V133.25L109.85 133.15H109.75V133.05H109.65H109.55V132.95V132.85H109.45V132.75H109.35V132.65V132.55H109.25V132.45H109.15L109.05 132.35L108.95 132.25V132.15H108.85H108.75H108.65L108.55 132.05H108.45V131.95V131.85H108.35V131.75H108.25V131.65H108.15V131.55H108.05V131.45H107.95H107.85V131.35V131.25H107.75V131.15V131.05H107.65V130.95V130.85H107.55V130.75V130.65H107.45V130.55H107.35V130.45H107.25V130.35H107.15V130.25V130.15H107.05H106.95V130.05H106.85V129.95H106.75H106.65L105.95 129.85L105.85 129.75H105.75L105.65 130.05H105.55H105.05L104.75 129.95H104.55V129.85H104.45V129.75V129.65H104.25L103.15 129.55H102.45H102.25L101.85 129.45H101.05L100.85 129.95L100.65 130.45L100.55 130.85L100.45 131.15L100.35 131.25V131.35V131.45V131.55H100.15L99.65 131.65H99.45L99.35 131.45H99.25L99.15 131.15H98.95H98.85L98.65 131.05H98.35H98.25H98.05L97.85 130.95H97.75L97.85 130.65L97.95 130.55L97.55 130.25L97.65 129.95L97.85 129.35H97.75H97.65L97.55 129.45H97.35L97.25 129.55L96.95 129.65H96.85H96.75H96.65H96.55H96.45H96.35L96.15 129.55H95.95L95.65 129.35H95.55L95.35 129.25H95.25L95.15 129.15H95.05H94.95H94.85L94.75 129.05H94.55H94.45H94.35L94.15 129.35L94.05 129.65L93.85 129.95L93.75 130.15L93.65 130.25L93.55 130.45V130.55L93.45 130.65V130.75H93.35L93.25 130.85H93.15L93.05 130.95L92.95 131.15L92.75 131.25V131.45L92.85 131.75V131.85H92.95V131.75H93.05H93.15V131.85H93.25H93.35H93.45H93.55H93.65H93.75V131.95V132.05L93.85 132.45L93.95 132.85V132.95L93.85 133.05H93.95V133.15V133.25L94.05 133.35L94.15 133.45V133.65V133.75H94.05H93.95V133.85L94.15 134.55L94.35 135.25L94.55 135.95L94.65 136.05V136.15L94.75 136.25L94.85 136.35V136.45H94.95V136.55V136.65H95.05V136.75V136.95L94.95 137.15L94.85 137.25V137.35V137.45H94.75V137.55H94.65H94.55H94.45H94.35L94.25 137.65V137.55H94.15V137.65H94.05H93.95H93.85V137.75H93.95V137.85H94.05H94.15L94.25 137.95V138.05V138.15V138.25H94.35V138.35V138.45H94.25V138.35H94.15V138.45L94.25 138.55H94.15H94.05V138.65V138.75H94.15V138.85H94.25V138.95H94.15V139.05V139.15H94.25H94.35H94.45V139.25V139.35L94.55 139.45V139.55H94.65V139.65H94.55H94.45V139.75L94.35 139.85V139.95H94.45H94.55V140.05V140.15H94.65H94.75V140.25H94.85V140.35V140.45H94.75H94.65H94.55H94.45V140.55V140.65H94.55V140.75H94.65H94.75V140.85V140.95V141.05V141.15H94.85H94.95V141.25H95.05V141.35V141.45V141.55L95.15 141.85V141.95V142.05V142.15V142.25L95.25 142.45V142.75L94.05 142.95H93.85L93.45 143.05V142.65H93.25L92.55 142.75L92.15 142.85H91.95H91.85L91.95 143.35L90.95 143.55L91.05 143.85V144.05L90.25 144.15L89.45 144.25H89.35L89.15 144.35L87.75 144.55V144.15L87.25 144.25V144.15L87.15 143.55H86.65L86.55 143.45H86.35V143.35V143.25H86.25V143.15V143.05H86.35L86.25 142.95H86.15H86.05L85.95 142.85L85.45 142.45L84.75 141.85L84.45 141.65L84.15 141.35L83.95 141.25L83.75 141.05L83.45 140.85L83.15 140.55L82.95 140.35L82.45 139.95L82.35 139.85V139.95L82.05 140.35L81.65 140.75L81.05 141.55L80.85 141.95H80.75L80.55 142.25H80.45H80.35H80.25H80.15L79.65 142.15L79.55 142.05H79.35H79.15V142.15L79.45 142.35H79.65H79.85L80.05 142.45L80.25 142.55L80.15 142.75L79.85 143.25L79.55 143.55H79.65L79.75 143.65H79.85H79.95H80.05H80.15H80.25H80.35H80.45V143.75H80.35H80.25L80.15 143.85H80.05H79.95H79.85V143.75H79.75H79.65L79.55 143.65L79.45 143.75L79.35 143.95L79.25 144.05L79.15 144.15L78.75 144.65V144.75V144.85H78.65V144.95L78.25 145.45V145.55L78.05 145.85L77.85 146.05L77.55 146.55L77.25 147.05L77.75 147.45L76.95 148.45L76.65 148.95L76.45 149.15V149.25L75.95 149.85L75.85 149.95L75.65 149.65L75.85 149.35L75.45 149.05L74.75 148.45L74.55 148.25L74.35 148.15L73.85 148.65L73.55 149.05L73.35 149.35L73.05 149.75L72.95 149.95L71.65 149.05L71.75 148.85L72.25 148.25L72.45 147.95L72.55 147.85L72.75 147.45L73.25 146.85L73.45 146.55L73.75 146.15L73.95 145.85L74.05 145.75L72.95 144.85L71.95 144.15L71.45 143.85L71.35 143.75V143.65H71.25L70.65 143.15V143.05V142.95V142.85V142.75H70.75L70.85 142.85H70.95V142.95H71.05V142.85L71.15 142.75V142.65H71.25V142.55V142.45V142.35V142.25H71.35V142.15H71.45V142.05V141.95H71.55V141.85H71.45V141.75H71.35V141.65H71.45V141.75H71.55V141.65V141.55V141.45H71.45V141.35V141.25V141.15H71.35L71.45 141.05V140.95H71.55V140.85H71.65L71.95 140.55H72.05L72.35 140.25L71.75 139.85L71.55 139.65H71.45V139.75V139.85H71.55L71.45 139.95L71.05 139.65L70.75 139.35L70.55 139.25L70.15 138.95L69.35 138.45L68.55 137.75L67.75 137.15L66.75 136.45L65.95 135.85L65.15 135.25L65.65 134.25L66.15 133.35L65.75 133.05L65.05 132.05H65.25L65.35 131.95H65.45L65.95 131.85V131.75L65.85 131.45L65.75 131.25L65.65 130.95L65.75 130.85L65.95 130.65H66.05L65.75 130.45L65.15 129.75L64.75 129.35V129.25L64.65 129.15V129.05V128.95H64.55H64.45H64.35V129.05H64.25V128.95V128.85L63.55 128.75H63.35L63.25 128.95H63.15L63.05 128.85H62.95H62.85H62.75H62.65V128.75H62.55V128.85H62.45V128.75H62.35V128.85H62.25V128.75H62.15V128.85H62.05H61.95H61.85H61.75H61.65V128.75H61.55V128.85H61.45V128.75H61.35V128.65H61.25V128.55V128.45H61.35V128.35H61.45V128.25V128.15V128.05H61.55V127.95V127.85V127.75H61.45V127.65V127.55H61.55V127.45V127.35L61.65 127.25V127.15H61.75H61.85V127.05H61.75V126.95V126.85V126.75V126.65H61.65V126.55H61.55H61.45L61.35 126.45H61.25L61.15 126.35L61.05 126.25H60.95H60.85V126.15H60.75H60.65H60.45H60.35L60.25 126.05L60.15 126.15H60.05L59.75 125.85L59.35 125.55L59.15 125.45L58.95 125.25L59.55 124.45L59.95 123.95L60.05 123.85L59.65 123.55L59.45 123.45L59.35 123.35L59.15 123.15L58.55 122.75L58.95 122.25L59.15 122.05L60.15 120.65V120.55L60.05 120.45H59.95L59.65 120.25L59.25 119.85L59.05 119.75L58.05 118.95L57.75 118.75L58.15 118.25L57.95 118.05L56.85 117.25L57.45 116.55V116.45L57.05 116.15L56.75 115.75L56.45 115.55L56.35 115.45L55.95 115.15L55.55 114.75L54.95 114.15H54.85V114.25V114.35L54.75 114.45H54.65V114.55V114.65H54.75V114.75H54.85V114.85V114.95V115.05V115.15H54.75V115.25V115.35H54.65V115.45V115.55H54.55V115.65V115.75H54.65H54.75V115.65H54.85H54.95V115.75H55.05V115.85H55.15V115.95H55.05L54.95 116.05H54.85V116.15L54.55 116.05H54.45H54.35V116.15H54.25H54.15H54.05V116.25H53.95V116.35H53.85V116.45V116.55H53.75H53.65H53.55V116.45V116.35H53.45V116.25H53.35H53.25V116.15H53.15H53.05V116.25H52.95H52.85L52.15 116.05L51.85 116.95L51.45 117.05V117.15H51.35L50.65 117.35V117.45L50.75 118.25V118.35H50.65H50.55L50.45 118.25H50.35L49.85 118.15L49.75 118.45V118.35H49.65V118.25V118.15H49.55V118.05L49.45 117.95H49.35V118.05V118.15H49.25V118.25L49.15 118.35L49.05 118.45L48.95 118.55V118.65V118.75H48.85H48.75V118.65H48.65V118.55H48.55H48.45V118.65H48.35V118.75V118.85V118.95H48.45V119.05L48.55 119.25V119.35L48.65 119.45V119.55H48.55V119.65H48.45H48.35V119.75H48.25V119.65H48.15H48.05L47.95 119.75V119.65H47.85L47.75 119.55V119.45H47.65V119.35V119.25H47.55V119.15H47.45V119.05V118.95V118.85V118.75H47.55H47.75H47.85V118.65L47.95 118.55V118.45H47.85H47.75L47.55 118.35H47.45V118.25H47.35V118.15V118.05L47.45 117.95V117.85V117.75V117.65H47.35H47.25V117.55H47.15H47.05V117.65V117.75V117.85H46.95V117.95H46.85L46.75 118.05H46.65H46.55V117.95H46.45V117.85H46.35V117.75H46.25V117.65H46.15L46.05 117.55H45.95H45.85V117.65H45.75V117.75V117.85L45.85 117.95V118.05H45.75V118.15H45.65H45.55H45.45H45.35L45.25 118.05H45.15H45.05H44.95H44.85V117.95H44.75V117.85V117.75H44.85V117.65V117.55V117.45H44.75L44.65 117.35V117.25H44.75V117.15L44.85 117.05V116.95H44.75V116.85L44.65 116.75L44.55 116.65H44.45V116.75V116.85H44.35H44.25H44.15V116.75V116.65H44.05H43.95V116.75H43.85V116.85H43.75V116.95L43.65 117.05V117.15H43.55V117.25L43.45 117.35V117.45H43.55V117.55V117.65H43.65V117.75V117.85H43.55V117.95V118.05H43.45L43.35 118.15L43.25 118.25H43.15H43.05H42.95H42.85V118.15V118.05H42.75L42.65 118.15V118.25H42.75V118.35V118.45L42.65 118.55V118.45H42.55V118.35H42.45V118.25V118.15V118.05H42.35V117.95H42.45V117.85H42.55V117.75H42.65V117.65V117.55H42.55V117.45L42.45 117.35V117.25H42.55V117.15L42.65 117.05V116.95V116.85V116.75V116.65H42.55V116.55H42.45H42.35V116.45H42.25H42.15V116.35H42.05H41.95V116.25H41.85V116.35H41.75H41.65V116.25H41.55H41.45H41.35H41.25V116.35H41.15V116.45H41.05V116.55H40.95V116.45V116.35V116.25V116.15H40.85V116.05H40.75V116.15H40.65H40.55H40.45H40.35H40.25H40.15V116.25V116.35H40.05V116.45H39.95V116.55H40.05V116.65V116.95H39.95H39.85H39.75H39.65H39.35L39.15 116.65V116.55V116.45L39.05 116.35V116.25V116.15V116.05V115.95H39.15V115.85V115.75V115.65H39.25V115.55V115.45H39.15H39.05H38.95H38.85H38.75H38.65H38.55V115.55H38.45H38.35H38.25V115.45H38.15V115.55H38.05H37.95H37.85H37.75V115.45H37.65V115.35V115.25V115.15H37.55H37.45V115.25H37.35V115.35L37.25 115.25H37.15V115.15L37.05 115.05V115.15H36.95L37.05 115.25V115.35V115.45V115.55H36.95H36.85V115.65V115.75H36.75V115.85V115.95V116.05H36.65L36.55 116.15H36.45H36.35V116.05V115.95H36.45V115.85H36.35V115.75H36.25L36.15 115.85H36.05V115.95V116.05H35.95V116.15H35.85L35.75 116.05V115.95V115.85H35.65L35.55 115.95H35.45H35.35H35.25H35.15L35.05 115.85H34.95H34.85V115.75V115.65H34.75V115.55L34.65 115.45H34.55H34.45H34.35H34.25V115.55V115.65L34.35 115.75V115.85V115.95H34.25L33.85 115.85L33.55 115.75H33.45V115.65L33.35 115.45H33.15V115.55L33.05 115.65L32.95 115.75L32.85 115.85H32.75H32.65V115.75H32.55V115.85L32.45 115.95H32.35L32.25 116.05L32.15 116.15L32.05 116.25L31.95 116.15V116.05H32.05V115.95V115.85V115.75H32.15H32.25V115.65H32.15V115.55H32.05H31.95L31.85 115.65H31.75V115.75H31.65H31.55V115.65L31.45 115.55V115.45V115.35L31.35 115.25L31.25 115.15V115.05H31.15L31.05 114.95L30.95 115.05H30.85H30.75L30.65 114.95H30.55V114.85V114.75L30.75 114.55V114.45V114.35H30.65V114.25H30.55H30.45H30.35H30.25H30.15V114.15H30.05L29.95 114.05H29.85L29.75 113.95V113.85H29.65H29.55V113.75H29.45V113.65V113.55H29.55V113.45H29.65V113.35V113.25H29.55V113.15H29.45H29.35V113.05H29.25H29.15V113.15V113.25H29.05L28.95 113.15V113.05H28.85V113.15H28.75L28.65 113.05L28.55 112.95V113.05H28.45V113.15H28.35H28.25H28.15V113.05H28.05L27.95 112.95V112.85H27.85H27.75V112.75V112.65H27.65L27.75 112.55L27.85 112.65H27.95V112.55V112.45V112.35H27.85V112.25V112.15H27.95H28.05V112.05V111.95H27.95H27.85V111.85H27.75V111.75H27.65V111.85H27.55H27.45V111.95H27.35H27.25L27.15 112.05H27.05L26.95 111.95H26.85V111.85V111.75H26.75V111.65L26.65 111.55H26.55V111.45L26.45 111.35H26.35V111.25L26.25 111.15L26.15 111.05H25.95V110.95H25.85H25.75H25.65H25.55H25.45H25.35H25.25V110.85H25.15V110.75H25.05H24.95V110.65H24.85H24.75V110.55V110.45H24.65V110.35H24.55V110.25H24.65H24.75L24.85 110.15V110.05H24.95V109.95H24.85V109.85L24.75 109.75H24.65H24.55V109.65H24.45V109.55V109.45L24.35 109.35H24.25H24.15H24.05V109.25H23.95V109.35H23.85V109.25H23.75V109.15H23.65V109.05L23.55 108.95V108.85H23.45V108.95H23.35H23.25V108.85H23.15H23.05H22.95V108.75H22.85H22.75V108.65H22.85V108.55L22.95 108.45V108.55H23.05V108.45V108.35V108.25H23.15H23.25V108.15H23.35V108.05V107.95V107.85H23.25V107.75V107.65V107.55V107.45V107.35H23.15V107.25H23.05V107.15V107.05H22.95H22.85V107.15V107.25H22.75H22.65V107.15H22.55V107.05H22.45V106.95H22.35V106.85L22.25 106.75V106.85H22.15H22.05H21.95V106.95V107.05H21.85V107.15H21.75V107.05V106.95V106.85H21.85V106.75H21.75L21.65 106.65V106.75V106.85V106.95V107.05V107.15H21.55H21.45V107.05L21.35 106.95L21.25 106.85H21.15V106.75L21.05 106.65V106.55L21.15 106.45V106.35V106.25L21.05 106.15V106.05L20.95 105.95H20.85H20.75V106.05H20.65V105.95H20.55V105.85V105.75V105.65V105.55V105.45V105.35H20.45L20.35 105.45H20.25L20.15 105.55H20.05H19.95V105.45H19.85V105.35H19.75H19.65H19.55V105.45V105.55L19.45 105.65V105.75H19.35V105.85L19.25 105.95V106.05V106.15H19.15V106.25V106.35H19.05H18.95V106.25H18.85V106.35H18.75V106.25V106.15V106.05V105.95L18.65 105.85H18.55H18.25L18.15 105.75H18.05H17.95H17.85H17.75H17.65H17.55H17.45H17.35H17.25V105.65H17.15L17.05 105.55V105.45H17.15V105.35V105.25H17.25H17.35V105.15L17.45 105.05L17.55 104.95H17.65H17.85H17.95L18.15 105.05V104.85V104.75H18.05V104.65H18.15V104.55H18.25L18.35 104.45H18.45H18.55H18.65L18.85 104.55L18.95 104.45H19.05V104.35H18.95V104.25H18.85L18.75 104.15L18.55 104.05H18.45L18.35 103.95L17.95 103.65L17.85 103.55H17.75V103.65H17.65V103.55H17.55V103.45H17.45H17.35H17.25H17.15V103.35V103.25V103.15L17.05 103.25V103.15V103.05H17.15L17.05 102.95V102.85H17.15V102.75V102.65H17.25H17.35L17.45 102.55H17.55H17.65H17.75H17.95H18.05H18.15V102.45L18.05 102.35L17.95 102.25L17.85 102.15H17.75H17.65H17.55L17.45 102.05V101.95L17.35 101.85V101.75H17.25H17.15H17.05V101.65V101.55H16.95L16.85 101.65H16.75V101.75H16.65L16.55 101.85V101.75H16.45H16.35V101.65H16.25H16.15H15.95H15.85H15.65L15.55 101.75V101.85H15.45V101.95L15.35 102.05V102.15H15.25V102.25V102.35H15.15V102.45H15.05H14.95V102.55H14.85H14.75V102.45H14.65H14.55L14.45 102.35H14.35H14.25V102.25H14.15V102.15H14.25V102.05H14.35H14.45V101.95V101.85H14.35H14.25V101.75H14.15L14.05 101.65H13.95L14.05 101.75V101.85H13.95L13.85 101.75H13.75V101.65V101.55V101.45H13.65L13.55 101.55V101.65V101.75H13.45H13.35V101.85H13.25L13.15 101.95H13.05V102.05H12.95V101.95H12.85H12.75H12.65L12.55 102.05H12.45H12.35V102.15H12.25L12.15 102.25V102.35H12.05V102.45V102.55H11.95V102.65H11.85V102.75V102.85V102.95V103.05V103.15V103.25H11.75L11.65 103.15V103.05H11.55V102.95H11.45V102.85V102.75L11.35 102.65V102.55V102.45V102.35H11.45V102.25V102.15H11.55V102.05V101.95V101.85V101.75V101.65L11.35 101.75L11.15 101.85L11.05 101.25L11.25 101.05L11.15 100.95H11.05L10.95 100.85H10.85L10.75 100.75H10.65V100.65V100.55H10.55H10.45V100.65H10.35V100.55H10.25V100.45H10.15V100.55H10.05V100.65H9.95001V100.75V100.85L10.05 100.95V101.05V101.15V101.25V101.35V101.45L9.95001 101.55V101.65H9.84998V101.75V101.85V101.95L9.75 102.05V102.15H9.65002H9.54999H9.45001L9.34998 102.25H9.25L9.15002 102.35H9.04999H8.95001H8.84998L8.65002 102.45H8.54999H8.45001L8.34998 102.15L8.25 101.75L8.15002 101.45V101.35L7.95001 100.65L7.84998 100.05L7.65002 99.45L7.54999 98.65L7.34998 98.05L7.25 97.55L7.04999 96.95V96.65L6.95001 96.45V96.35L6.84998 96.15V96.05L6.75 95.55L6.54999 94.85L6.65002 94.45L6.75 94.25V94.15L6.84998 93.95L6.95001 93.45L7.15002 93.15L7.45001 92.15V92.05V91.95H7.54999V91.85V91.75L7.65002 91.65V91.45V91.35L7.75 91.25L7.84998 90.85L8.15002 90.95L8.34998 90.65V90.55H8.25L8.34998 90.45V90.35L8.45001 90.25V90.15L8.54999 89.95H8.65002V89.85L8.75 89.65L8.54999 89.55V89.45L8.65002 89.15H8.75V89.05H8.84998V88.95L9.15002 88.65H9.25L9.34998 88.55L10.15 88.95L10.45 89.15L11.05 89.45L11.55 89.65V89.75H11.45V89.85V89.95V90.05V90.15H11.55V90.25V90.35V90.45H11.65V90.55H11.75V90.65L11.85 90.75H11.95V90.85H12.05V90.95H12.15L12.25 90.85H12.35H12.45H12.55V90.95H12.65H12.75L12.85 90.85H12.95V90.95H13.05V90.85H13.15H13.25H13.35L13.85 90.75L14.05 90.85H14.15H14.25H14.35L14.55 90.95H14.65H14.75L14.95 91.05L15.35 91.15L15.75 91.25H16.05H16.15V91.35L16.25 91.25H16.35V91.35L16.95 91.25L17.35 91.35H18.15L18.35 91.25L18.45 91.15V91.05L19.35 91.15L19.65 91.25H19.75L19.95 91.35L20.35 91.55L20.85 91.85L20.75 92.05L20.55 92.35L20.95 92.55L21.25 92.75L21.35 92.55L21.55 92.15V92.05V91.95H21.65V91.85V91.75V91.65H21.75L21.85 91.55L22.15 91.35L21.65 89.55L21.75 89.35L22.25 88.75L22.75 88.25L22.95 87.95L23.25 87.55H23.35L23.45 87.35L23.55 87.25L24.35 86.25L24.45 86.15H24.55V86.05L24.65 85.85L24.95 85.65V85.55L25.35 85.05L25.55 84.75L25.95 84.25L26.25 83.75L26.45 83.55V83.45H26.55V83.35H26.45L25.15 82.85V82.75L25.25 82.35L25.35 81.85V81.75L25.75 80.15V80.05L25.85 79.55H25.75V79.65H25.65H25.55L25.45 79.75L25.05 79.35L24.55 79.15L23.75 79.05L23.45 78.95L23.55 78.65L23.65 78.05L23.75 77.75V77.65L23.95 76.75L24.05 76.35L24.15 76.25L24.25 75.85L24.05 75.75L24.25 75.15L24.55 75.25H24.65L24.95 75.35H25.35L25.75 75.45L26.05 75.55L26.35 75.65L26.75 75.75H26.85L27.35 75.85L28.65 76.15L29.05 76.25L29.45 76.35L29.85 76.45L29.95 76.55H30.15L30.65 76.65L30.75 76.75H30.85V76.45L31.15 76.55L31.55 76.65L31.85 76.75L32.15 75.65L32.25 75.25V74.85V74.75L32.15 74.55L32.05 74.45V74.35V74.25L31.95 74.15L31.25 74.05L30.65 73.85L30.25 73.75V73.65L29.75 73.55L29.15 73.45L29.25 72.95L29.35 72.35H28.95L29.05 72.15V71.65L28.15 71.45L28.05 71.35L27.95 71.15V71.05V70.95L28.05 70.75L28.55 70.65H28.85H29.15L29.25 70.55H29.35H29.75H29.85H29.95H30.05L30.15 70.45H30.45H30.65H30.75H30.85H30.95H31.05V70.35H31.15H31.25H31.35H31.45V70.25V70.15H31.55H31.65L31.75 70.05L32.05 69.95V69.85L31.95 69.75L31.85 69.45L31.75 69.15L31.65 68.95L31.55 68.75L31.45 68.65L31.35 68.35L31.25 68.25V68.05L31.15 67.95V67.75L30.95 67.55L30.85 67.15L30.75 66.75L30.65 66.35L30.55 66.25V66.05L30.45 65.65L30.25 65.25V65.15L30.15 64.95L30.05 64.85L29.95 64.55V64.45H29.85L29.75 64.35L29.65 64.15L29.55 63.95L29.45 63.85L29.25 63.65L29.05 63.35H28.95V63.25V62.75L29.45 62.55V62.45V61.95L29.05 62.05V62.15H28.95H28.75H28.05L27.25 62.25V62.45L26.05 62.55L24.95 62.65L24.55 61.95L24.35 61.55L24.25 61.25H24.15H24.05L23.95 61.15H23.85H23.65H23.55H23.45H23.35H23.25H23.15L22.85 61.05H22.75H22.65H22.55H22.45V60.95H22.35H22.25H22.15H22.05H21.95H21.85V61.05H21.65H21.55L21.45 60.95V61.05H21.35L21.25 60.95H21.15L21.05 61.05H20.95V60.95H20.85H20.75V60.85H20.65H20.55L20.25 60.65L20.15 60.55H20.05V60.45H19.95H19.85V60.25L20.15 59.75L20.45 59.25V59.05H20.35L20.25 58.95L20.15 59.05L19.95 59.15L19.85 59.05V58.95H19.75L19.95 58.85L20.05 58.75L20.15 58.85L20.25 58.95L20.35 58.85H20.45H20.55H20.65H20.75H20.85L20.95 58.75L20.85 58.25L20.75 57.95V57.85L20.65 57.25H20.45H20.25L19.85 57.15L19.65 57.05H19.55H19.35H19.15H18.85L18.75 56.95L18.45 56.65L18.15 56.35L18.05 56.25L18.25 56.15H18.15V56.05V55.95V55.85V55.75V55.65L17.95 55.55V55.45V55.25V54.95L18.15 54.75L18.05 54.65H18.15V54.55L18.25 54.35L18.15 54.15L18.05 53.85L17.95 53.45L18.25 52.95V52.85H18.15L18.05 52.75H17.95V52.65H17.85L17.75 52.55V52.45L17.85 52.35L17.65 52.05L17.85 51.95L17.95 51.75H18.05V51.65L18.15 51.75H18.25L18.35 51.85H18.45L18.65 51.75L18.75 51.55L18.55 51.35V51.25L18.45 51.15V50.95L18.35 50.65V50.55L18.45 50.45L18.55 50.05L18.65 49.95V49.85V49.75H18.55L18.45 49.65H18.35V49.45H18.25H18.15H18.05L17.95 49.35H17.75H17.65H17.45L17.55 49.15V48.95L17.45 48.85L17.05 48.75L16.15 48.35H16.05L15.75 47.95L15.15 47.65L14.75 47.55L14.55 47.45V47.55L14.25 47.75H14.15V47.85H14.05H13.95L13.75 47.95L13.55 48.05L13.15 47.85L12.95 47.65H12.85L12.75 47.55H12.45L12.05 47.45L11.85 47.35L11.75 47.45L11.45 47.55H11.25H11.15H11.05H10.95L10.85 47.45V47.35L10.75 47.25V47.15H10.65L10.55 47.05L10.45 46.95H10.35L10.25 46.85V46.75H10.15V46.85H10.05V46.75V46.65L9.95001 46.55H9.84998V46.45V46.35H9.95001H10.05H10.15L10.25 46.25H10.35L10.25 45.85L10.35 45.75H10.75V45.35H10.45L9.75 45.25L9.25 45.15L8.95001 45.45L8.84998 45.55L8.75 45.75L8.65002 45.85L8.54999 45.95L8.34998 46.15L7.45001 45.65L7.15002 45.55L7.04999 45.45L6.95001 45.35L6.75 45.25L6.65002 45.15H6.54999L6.25 45.25L6.15002 45.45H6.04999L5.75 45.25H5.65002V45.15H5.54999L5.34998 44.95L5.15002 44.75V44.65H5.04999H4.95001L4.84998 44.55L4.75 44.45V44.35L4.65002 44.25L4.34998 43.95V43.85L4.25 43.65L3.95001 43.05L3.65002 42.55L3.54999 42.35L3.34998 42.05L3.25 41.85L3.15002 41.65V41.55L2.75 41.65L2.25 41.75H2.15002L2.04999 41.65L1.95001 41.55L1.54999 41.05L1.45001 40.95V40.85H1.34998L1.15002 40.75V40.65L0.950012 40.45H0.849976H0.75H0.650024H0.549988H0.450012V40.35H0.549988V40.25L0.650024 40.15H0.75L0.849976 40.05H0.950012V39.95H1.04999V39.85V39.75H0.950012V39.65H0.849976L0.75 39.35V39.25L0.650024 39.05L0.549988 38.55L0.450012 38.25L0.349976 37.75L0.25 37.45H0.349976L0.450012 37.35L0.549988 37.25L0.650024 37.15L0.75 37.05L1.15002 36.55L1.45001 35.95H1.54999L2.04999 34.95L2.25 34.65V34.55L2.54999 33.95H2.65002L2.95001 33.55L3.34998 33.15L4.25 32.15L4.34998 31.95V31.65L4.84998 31.25L5.45001 30.85L5.65002 30.65V30.55V30.05L5.34998 29.95V29.75V29.35V29.15L5.04999 29.05H4.95001V28.95V28.85L4.75 28.95H4.34998V28.65L4.25 27.95V27.45V26.95V26.65L4.15002 26.25V25.95L4.34998 25.35L4.54999 24.45L5.75 24.25L5.95001 24.05L6.25 23.95L6.15002 23.65L6.04999 23.15L5.75 22.25L5.65002 21.95H5.75L6.34998 22.15L6.75 22.05H7.04999H7.25H7.65002V22.15V22.25H7.75V22.35L7.65002 22.45H7.84998L7.95001 21.95L8.65002 22.15L9.04999 22.25H9.15002V22.35V22.45V22.85L9.04999 23.35L9.54999 23.45L9.65002 23.35L9.84998 22.95L10.35 22.15L10.45 21.85L10.65 22.05L10.75 21.95L10.65 21.85L10.75 21.65H10.85L11.05 21.45V21.35V21.25L11.15 21.15V21.05L11.05 20.95L11.45 20.65L11.15 20.35L11.05 20.25L11.25 20.15L11.35 20.05L11.95 19.75H12.05H12.15H12.25V19.65H12.35H12.75L12.85 19.55L12.95 19.45L13.25 19.25L13.75 18.85L13.95 18.65L14.05 18.55L14.35 18.25L14.65 17.85L15.05 17.35L15.55 17.65L16.75 18.25L17.25 18.45L17.35 18.35V18.25V18.15L17.45 17.85L17.55 17.65L17.65 17.75V17.85L17.55 17.95L18.15 18.05L18.85 18.35L19.25 18.45H19.35L19.55 17.85L19.95 17.95H20.65V17.85H20.75V17.75H20.65V17.65V17.55V17.35V17.25V17.15V17.05H20.75V16.95V16.85V16.75V16.65V16.55V16.45V16.35L20.65 16.25V16.05L20.75 15.95V15.85H20.85L20.95 15.75V15.65V15.55L21.55 15.65H21.65L22.65 15.75L22.95 15.55L23.45 15.15L23.65 15.05L24.15 14.95V14.85L24.25 14.65L23.95 14.55L22.75 13.85L22.45 13.65L23.15 12.75L23.55 12.15L23.65 12.05L23.75 11.95L23.65 11.75L24.15 11.35L24.75 11.75L24.85 11.85H24.95V11.95H25.05L25.15 12.05L25.25 12.15L25.35 12.25L25.95 12.65L26.15 12.75L26.85 13.25L26.95 12.65V12.35L26.85 12.25L26.75 11.95L26.65 11.25L27.55 11.35L28.05 11.25V11.15H28.25V11.05V10.95H28.35V10.85L28.45 10.75V10.65V10.55H28.55V10.45H28.65L28.75 10.35V10.25V10.15H28.85V10.05L28.95 10.15L29.55 11.05V11.15L29.65 11.45L29.75 11.55L30.75 11.65L30.65 12.05L30.75 12.15L31.25 12.45L31.75 12.85L32.15 13.15L32.55 13.45L32.65 13.25L32.75 13.15L32.85 12.95H32.95V12.85L33.65 13.35L33.95 13.65L34.05 13.45L34.15 13.25L34.25 13.45L34.35 13.35L34.25 13.25V13.15L34.35 12.95H34.45L34.55 12.75V12.65L34.45 12.55L33.95 11.95L33.55 11.45H33.75H33.85L34.25 11.35L34.95 11.25L35.65 11.15H35.75H35.85H35.95L36.15 11.25H36.45L36.85 10.95L37.15 10.75L37.35 10.55L37.45 10.35L37.65 10.45L37.75 10.55H37.85L38.15 10.65H38.25L38.35 10.75H38.45H38.65H38.85L39.25 10.85H39.35L39.25 10.95L39.15 11.05L39.05 11.25L39.15 11.35L39.25 11.45H39.35L39.65 11.65V11.75L40.35 12.05V11.85H40.55H40.65L40.75 11.35L40.85 10.95V10.75H41.05H41.55V10.65L41.75 10.45V10.35H41.95V10.15V10.05H42.25L42.45 9.45001V9.35001V9.25L42.25 9.15001L41.95 9.05L41.85 9.45001L40.85 9.25L40.55 9.15001V8.95001L40.75 8.75H40.85H40.95L41.05 8.65001H41.15L41.25 8.55L41.45 8.45001H41.55H41.75H42.15H42.45H42.65H43.05L43.35 8.55H43.45H43.85H44.25H44.35H44.55H44.75H44.85L44.95 8.35001L45.05 8.25V8.15001L45.25 7.95001L45.45 7.75L45.65 7.45001H45.75L45.85 7.25L46.15 7.05L46.45 6.65001L46.65 6.55L46.95 6.25L47.15 6.15001V6.05L47.25 5.95001L47.45 5.85001V5.75H47.55V5.65001H47.65V5.55L47.75 5.45001L47.85 5.35001V5.25H47.95V5.15001H48.05V5.05V4.95001L48.15 4.85001V4.75V4.65001L48.25 4.55V4.45001V4.35001V4.25V4.15001V4.05H48.15H48.05H47.95H47.85H47.75V3.95001H47.65V3.85001V3.75H47.55V3.65001L48.25 3.15001L48.35 3.05H48.45V2.95001H48.55L48.65 2.85001H48.75V2.75H48.85L48.95 2.65001L49.05 2.55H49.15L49.25 2.45001L49.35 2.35001L49.45 2.25H49.55L49.65 2.95001L50.05 2.85001L50.25 2.75L50.65 2.55L50.85 2.75L51.25 2.95001L51.65 2.85001L51.75 2.75L51.85 2.65001V2.55L51.95 2.45001L52.05 2.25H52.15L52.25 2.15001L52.35 1.85001H52.45V1.95001H52.55H52.65V1.85001H52.75H52.85H52.95H53.05V1.95001H53.15V1.85001H53.25V1.95001H53.35V2.05V2.15001H53.45H53.55H53.65H53.75H53.85L53.95 2.05V1.95001H54.05V2.05H54.15L54.25 2.15001H54.35V2.25H54.45V2.35001H54.55V2.45001H54.65H54.75H54.85V2.35001V2.25H54.95H55.05H55.15H55.25H55.35V2.15001H55.45H55.55H55.65V2.25H55.75H55.85V2.15001H55.95H56.05L56.15 2.05H56.25H56.35H56.45L56.55 1.95001H56.65V1.85001L56.75 1.75L56.65 1.65001H57.05H57.15H57.25H57.35H57.45L57.55 1.55H57.65H57.75H57.85H57.95V1.45001H58.05V1.35001H58.15H58.25H58.35V1.25H58.45V1.35001H58.55H58.65H58.75H58.85H58.95V1.25H59.05L59.15 1.35001L59.25 1.25H59.35V1.15001H59.45H59.55H59.65H59.75H59.85V1.05H59.95H60.05H60.15H60.25V1.15001H60.35V1.05H60.45H60.55V0.950012H60.65H60.75H60.85L60.95 0.850006H61.05H61.25H61.35H61.45V0.950012V1.05V1.15001V1.25H61.55L61.65 1.15001H61.75H61.85H61.95H62.05V1.05H62.15H62.25H62.35V1.15001H62.45V1.25H62.55V1.35001H62.65L62.85 1.45001H62.95L63.05 1.55L63.25 1.65001H63.35H63.45L63.55 1.75H63.65V1.85001H63.75H63.85H63.95H64.05H64.15H64.25V1.95001H64.35H64.45H64.55H64.75H64.85H64.95L65.05 2.05H65.25L65.35 2.15001H65.45H65.55V2.25H65.65H65.75L65.85 2.35001V2.45001H65.95H66.05L66.15 2.55V2.65001V2.75V2.85001H66.25V2.95001V3.05V3.15001L66.35 3.25V3.35001V3.45001L66.45 3.55V3.65001V3.75V3.95001H66.55V4.05V4.15001V4.25H66.65V4.35001L66.75 4.45001V4.55L66.85 4.75H66.95L67.05 4.65001L67.15 4.55L67.25 4.45001H67.35H67.45L67.55 4.55L67.65 4.65001L67.75 4.75H67.85L67.95 4.85001L68.15 5.25H68.25V5.35001H68.35V5.45001H68.45V5.55H68.55V5.65001V5.75V5.85001V5.95001H68.65V6.05V6.15001H68.75V6.25H68.85V6.35001L68.95 6.45001L69.05 6.55V6.65001H69.15L69.25 6.75V6.85001L69.35 6.95001L69.45 7.05H69.55V7.15001H69.65V7.25V7.35001V7.45001V7.55L69.75 7.65001V7.75V7.85001H69.85L70.05 8.05V8.15001H70.15V8.25H70.25H70.35L70.45 8.35001H70.65L70.85 8.45001H70.95L71.05 8.55V8.65001L71.15 8.75V8.85001H71.25L71.35 8.95001L71.55 9.25L71.65 9.35001L71.75 9.45001L71.85 9.55L71.95 9.65001L72.15 9.75L72.25 9.95001V10.05V10.15L72.05 10.35V10.45L71.95 10.55L71.85 10.75V10.85L71.75 10.95H71.85H71.95H72.05L72.15 11.05H72.05V11.15V11.25L71.95 11.35V11.45V11.55V11.65L72.05 11.75V11.85H72.15V11.95V12.05L72.25 12.25H72.35V12.35V12.45V12.55V12.65V12.75V12.85H72.45V12.95H72.55L72.65 12.85H72.75H72.85H72.95H73.05V12.95V13.05V13.15V13.25H72.95V13.35V13.45H73.05H73.15H73.25H73.35H73.45H73.55L73.65 13.55H73.75H73.85H73.95H74.05H74.15L74.25 13.65H74.35H74.45H74.55H74.65H74.85H74.95H75.05H75.15H75.25L75.35 13.75H75.45H75.55H75.65H75.75H75.85L76.25 13.45L76.85 12.85V12.75H76.95H77.05V12.65H77.15H77.25H77.35L77.45 12.55L77.65 12.45H77.75L77.85 12.35H77.95H78.05L78.15 12.25V12.15H78.25L78.35 12.05H78.45V11.95H78.55L78.65 11.85L78.75 11.75V11.65H78.85V11.55V11.45L78.95 11.35L79.05 11.25L79.15 11.15V11.05L79.25 10.95V10.85V10.75H79.35V10.65H79.45V10.55L79.75 10.45H79.85L79.95 10.65V10.75V11.05L80.05 11.15V11.35V11.45V11.55L80.15 11.65V11.75V11.95H80.25H80.35H80.55L80.65 11.85H80.75H81.05H81.35H81.45H81.75V11.75H81.85L82.05 11.85H82.25H82.45L82.55 11.95H82.65V12.15V12.25V12.35H82.75V12.45H82.85V12.55H82.95L83.05 12.65H83.15V12.75L83.25 12.85V12.95H83.45L83.55 13.05L83.65 13.15H83.75H83.85H83.95H84.05V13.25L84.55 13.35V13.45H84.45V13.55V13.65H84.35V13.75V13.85L84.45 13.95H84.55H84.65H84.75V14.05H84.85H84.95H85.05H85.15H85.25V14.15H85.35H85.45L85.55 14.25H85.65H85.75H85.85H85.95H86.05H86.15V14.15H86.25V14.05H86.35H86.45L86.55 13.95H86.65H86.75H86.85H86.95H87.05H87.15H87.25H87.35H87.45H87.55V14.05H87.65V14.15V14.25V14.35L87.75 14.45L87.85 14.55H87.95V14.75H87.75H87.45H87.35H87.25H87.05V14.85H86.95L87.05 14.95V15.05V15.15V15.25V15.35L87.15 15.45V15.55L87.25 15.75L86.95 15.95H87.05L87.15 16.05L87.05 16.15L86.95 16.35V16.25H86.85H86.75V16.15H86.65V16.25L86.45 16.45L86.35 16.55L86.25 16.65V16.75H86.35V16.85H86.45V16.95L86.55 17.05L86.65 17.15L86.75 17.25H86.85L86.95 17.35H87.05V17.45V17.55H87.15V17.65H87.25L87.35 17.75V17.85H87.45L87.55 17.95H87.65L87.75 18.05L87.85 18.15H87.95L88.25 18.35H88.15H88.05L88.15 18.45H88.25V18.55H88.35L88.45 18.65H88.65V18.75H88.75L88.85 18.85H88.95V18.75V18.65V18.55H89.05H89.15H89.25L89.45 18.65L89.55 18.75H89.75L89.85 18.85H89.95H90.05L90.15 18.95H90.25L90.35 19.05H90.45L90.55 19.25H90.65V19.35L90.75 19.25H90.85H90.95L91.05 19.15L91.25 19.05H91.35L91.45 18.95L91.55 18.85V18.75H91.65V18.65L91.75 18.55L91.85 18.45V18.35V18.25H91.95V18.15H92.05V18.05L92.15 17.95V17.85H92.25V17.75V17.65V17.55H92.35V17.45V17.35V17.25V17.15L92.45 17.05V16.95V16.85V16.75V16.65V16.55V16.45V16.35V16.25V16.15V16.05H92.55V15.85L92.65 15.75V15.65V15.55L92.75 15.45L92.85 15.35H92.95V15.25H93.05V15.35H93.15V15.45L93.45 15.35V15.25L93.75 15.15V15.05H93.85L93.95 14.95L94.05 14.85L94.15 14.75L94.25 14.65H94.35H94.45H94.55H94.65L95.15 14.35L95.35 14.15L95.85 13.95V13.85H95.75V13.75H95.85L95.95 13.65H96.05H96.15H96.25L96.55 13.45L96.65 13.25V13.15V13.05L96.75 12.65H96.85L96.95 12.55H97.05H97.15H97.25H97.35H97.45H97.55V12.45H97.65H97.75H97.85L97.95 12.35H98.05H98.15H98.25H98.35L98.45 12.15L98.55 12.05L98.75 11.95H98.95L99.05 11.85H99.25H99.35L100.55 11.05L100.75 10.95L100.85 10.75L100.95 10.65L101.15 10.45L101.35 10.35H101.45L101.55 10.25L101.75 10.15L101.85 10.05H101.95L102.05 9.95001H102.15H102.25H102.35H102.45L102.65 9.85001H102.75L102.85 9.75H102.95L103.05 9.65001H103.15L103.35 9.55L103.45 9.45001H103.55L103.75 9.35001L103.85 9.25H104.05L104.15 9.15001H104.25H104.35V9.05H104.45H104.55L104.75 8.95001H104.95L105.15 8.85001H105.25H105.35H105.45H105.55H105.75L105.85 8.95001H105.95H106.05H106.15H106.25H106.75H106.95H107.05H107.15H107.35H107.45H107.65H107.75H108.05H108.15H108.25H108.45H108.55H108.65H108.75H108.85H108.95H109.05H109.15H109.25H109.35H109.45H109.55H109.65H109.75H109.85H109.95H110.05H110.15H110.25H110.35V9.05H110.45V9.15001H110.55L110.65 9.25H110.75H110.85L111.05 9.15001H111.15H111.25H111.35H111.45H111.55H111.65H111.85H111.95H112.05H112.15L112.25 9.05H112.35H112.45H112.55H112.65L112.75 8.95001H112.95H113.05L113.15 8.85001H113.25H113.45L113.65 8.75H113.75V8.65001V8.55V8.45001H113.65V8.35001V8.25H113.85H113.95H114.05H114.15L114.35 8.15001H114.45H114.55H114.65H114.75L114.85 8.05H114.95H115.05H115.15H115.25H115.35H115.45L115.55 8.15001H115.65L115.75 8.25L115.85 8.35001L115.95 8.45001L116.05 8.35001H116.15H116.25L116.35 8.25H116.45L116.55 8.15001H116.75L116.85 8.05L117.05 7.95001H117.25H117.35H117.45V7.85001H117.55H117.65V7.75H117.75L117.85 7.65001L118.05 7.55H118.15L118.35 7.35001H118.45V7.25H118.65L118.75 7.15001H118.85L118.95 7.05H119.05L119.15 6.95001H119.25L119.35 6.85001L119.55 6.75L119.65 6.65001V6.55L119.95 6.35001L120.05 6.25L120.25 6.15001L120.45 6.05L120.65 5.95001L120.75 5.85001L121.05 5.65001L121.35 5.45001L121.45 5.65001L121.55 5.55H121.65V5.45001L121.75 5.35001H121.85H121.95L122.05 5.25H122.15H122.25L122.35 5.15001H122.45L122.55 5.05H122.65L122.75 4.95001H122.85H122.95L123.05 4.85001H123.15L123.25 4.75L123.35 4.55H123.45L123.55 4.45001V4.35001L123.65 4.25V4.15001V4.05L123.75 3.95001V3.85001V3.75L123.85 3.65001V3.55V3.45001L123.95 3.35001V3.25V3.15001H124.05V3.05V2.95001V2.85001L124.15 2.75V2.65001H124.25L124.35 2.55L124.45 2.45001V2.35001H124.55V2.25H124.65H124.75L124.85 2.15001H124.95V2.05H125.05H125.15V1.95001H125.25H125.45H125.55H125.65H125.75H125.85H125.95H126.05H126.15H126.25H126.35V2.05H126.45L126.65 2.15001H126.75H126.85L126.95 2.25H127.05H127.25L127.35 2.35001H127.45H127.55H127.75L128.05 2.45001H128.25H128.35H128.45H128.55L128.65 2.35001H128.75H128.85H129.05H129.15L129.25 2.25H129.45H129.55L129.65 2.15001L129.75 2.05L129.85 1.95001L129.95 1.85001L130.05 1.75L130.15 1.65001V1.55L130.25 1.45001L130.35 1.35001H130.55L130.65 1.25H130.75L130.85 1.15001H131.05L131.15 1.05H131.25L131.55 0.850006H131.75L131.85 0.75H132.05V0.650009H132.15L132.25 0.550003L132.35 0.450012V0.350006L132.45 0.25H132.65H132.75H132.85V0.350006H132.95H133.15V0.450012L133.05 0.650009V0.75V0.850006V0.950012L132.95 1.05V1.15001V1.25H132.85V1.35001V1.45001V1.55V1.65001V1.75V1.85001V1.95001L132.95 2.05H132.85V2.15001L132.75 2.25V2.35001V2.45001H132.65H132.55H132.45H132.35H132.25H132.15H132.05L131.85 2.55V2.65001V2.85001V2.95001V3.05V3.15001V3.25V3.35001H131.95V3.45001V3.55L131.85 3.65001V3.75V3.85001V3.95001L131.95 4.05V4.15001V4.25V4.35001V4.45001V4.55V4.65001V4.85001V4.95001V5.05V5.25V5.55V5.65001V5.85001V6.05V6.25V6.35001V6.45001V6.55V6.65001H132.05V6.75H132.15V6.85001V6.95001V7.05V7.15001V7.25L132.25 7.35001V7.45001H132.35V7.55H132.45V7.65001L132.65 7.95001L132.85 8.25V8.35001H132.95L133.15 8.45001H133.25L133.45 8.55L133.75 8.65001H133.85L133.95 8.75V8.85001L134.05 9.05V9.15001L134.15 9.25L134.35 9.45001L134.45 9.55L134.65 9.85001V9.95001H134.75L134.95 10.05H135.05L135.35 10.15H135.45L135.65 10.25H135.75H135.85L135.95 10.35H136.05L136.25 10.45H136.45V10.55L136.55 10.65L136.65 10.75L136.75 10.95V11.05L136.85 11.25H136.95V11.35L137.05 11.45V11.55L137.15 11.65L137.25 11.85L137.35 12.05L137.55 12.35L137.65 12.15L137.75 12.05V11.95H137.85V11.85L137.95 11.75V11.65H138.05H138.15L138.25 11.55H138.35H138.45H138.55H138.75H138.95H139.15H139.25H139.45L139.75 11.65H139.85H139.95L140.05 11.75H140.15H140.25L140.35 11.85H140.45V11.95L140.55 12.15V12.35V12.55V12.65L140.45 12.75L140.35 12.95L140.15 13.05V13.15L140.05 13.25V13.35V13.55V14.25V14.35V14.55V14.65V14.75V14.85V14.95V15.05V15.35V15.45V15.55V15.65V15.75V16.15V16.35V16.45V16.55V16.65V16.75L139.95 16.85V16.95V17.05V17.15L140.05 17.25V17.35V17.45V17.55V17.65L139.95 17.75V17.85L139.85 17.95V18.05L139.75 18.15V18.35L139.65 18.45V18.55L139.55 18.65L139.45 18.95V19.05V19.15V19.25V19.35V19.45L139.55 19.55V19.65H139.65L139.75 19.75V19.85L139.85 19.95V20.05V20.15H139.95V20.25L140.05 20.35L140.15 20.45L140.25 20.55V20.65L140.45 20.75V20.85L140.55 20.95L140.65 21.05L140.75 21.25L140.85 21.45V21.55V21.65L140.75 21.75V21.85V21.95V22.05V22.15H140.65V22.25V22.35V22.45H140.75V22.55V22.65H140.85V22.75H140.95H141.05V22.85H141.15V22.95L141.25 23.05H141.35V23.15V23.25H141.45V23.35V23.45H141.55V23.55L141.65 23.65L141.75 23.75V23.85H141.85V23.95H141.95V24.05L142.05 24.15V24.25H142.15V24.35V24.45H142.25V24.55H142.35H142.45V24.65H142.55V24.75H142.65V24.85L142.75 24.95H142.85L142.95 25.05L143.05 25.15H143.15V25.25H143.25L143.35 25.35H143.45V25.45V25.55V25.65H143.55V25.75H143.65V25.85H143.75V25.95H143.85H143.95H144.05H144.15V26.05V26.15V26.25H144.05V26.35H144.15V26.45L144.25 26.55V26.75H144.35L144.45 26.95V27.05L144.55 27.15V27.25L144.65 27.35L144.75 27.55V27.65L144.85 27.75L144.95 27.85V27.95H145.05V28.05L145.25 28.25H145.35L145.45 28.35V28.45H145.55V28.55V28.65H145.65V28.75H145.75V28.85L145.85 28.95L145.95 29.05V29.15H146.05L146.15 29.35L146.35 29.75L146.55 30.25L146.85 30.15H147.25H147.35V30.05H147.45H147.75L148.05 29.95H148.15L148.25 29.85H148.45H148.65L148.75 29.95H148.85L148.95 30.15H149.05L149.15 30.25L149.25 30.35L149.35 30.45L149.45 30.55V30.65H149.55L149.65 30.85H149.75L149.95 31.05H150.05L150.15 31.15L150.25 31.25L150.55 31.35L150.65 31.45L150.75 31.55H150.95L151.05 31.65L151.35 31.85H151.45L151.55 31.95H151.65V32.05H151.75L151.85 32.15H152.05H152.15L152.25 32.25H152.45H152.55H152.65L152.85 32.35H152.95H153.15H153.25V32.45H153.35H153.45L153.55 32.55L153.75 32.65L153.85 32.75H153.95L154.05 32.85L154.15 32.95L154.25 33.05H154.35V33.15L154.55 33.25L154.65 33.35H154.75L154.85 33.45L154.95 33.55H155.05V33.65L155.15 33.75L155.25 33.95V34.15L155.35 34.25V34.35V34.45V34.55H155.45V34.65H155.55V34.75V34.85V34.95H155.65V35.05L155.85 35.35H155.95V35.45V35.55V35.65V35.75H156.05V35.85L156.15 35.95V36.05V36.15L156.25 36.25V36.35L156.35 36.45L156.45 36.65V36.75L156.55 36.85V36.95L156.65 37.05V37.15L156.75 37.25V37.35L156.85 37.55V37.65H156.95V37.75H157.05V37.85L157.15 37.95V38.05H157.25V38.15H157.35H157.55H157.65L157.75 38.25H157.85H157.95V38.35L158.05 38.45L158.25 38.65L158.35 38.75L158.45 38.95L158.65 39.05L158.75 39.25L158.85 39.35L159.05 39.05H159.15L159.25 39.15V39.25H159.35L159.25 39.35H159.35V39.45L159.45 39.55L159.55 39.65L159.65 39.75L159.75 39.85L159.85 39.95L159.95 40.05V40.15L160.05 40.25H160.15V40.35L160.25 40.45V40.55H160.35V40.65L160.45 40.85L160.55 40.95L160.65 41.05L160.75 41.15V41.25L160.95 41.45L161.05 41.65V41.75H160.95L160.85 41.85L160.65 41.95L160.45 42.05H160.35L160.15 42.15L160.05 42.25H159.95V42.35V42.45H160.05V42.55V42.65V42.75H160.15L159.85 43.05L160.05 43.55Z" fill="#220F0F"/>
<path d="M160.45 62.55V62.45V62.35H160.25L160.15 62.25L160.05 62.15L159.95 61.95H159.85V61.85V61.65H159.45L159.65 61.55L159.55 61.25L159.45 61.15V61.05H159.55V60.95V60.85V60.55V60.25H159.15L158.85 59.85L159.45 59.65L159.65 59.45H159.75V59.05V58.95L159.35 58.85H159.05H158.75H158.65L158.55 58.75L158.35 58.65L157.55 59.25L157.35 58.95H157.25L157.05 58.75L156.85 58.45L156.65 57.95L156.45 57.55V57.45V57.35V57.25L156.55 57.15L156.85 56.25L157.15 55.65L157.25 55.35L157.45 55.05L157.65 54.65L157.75 54.75L157.85 54.85L157.95 55.45H158.05V55.55H158.15H158.25V55.65H158.35V55.75H158.75L159.15 55.55L159.35 55.45V55.35L159.45 54.85L159.65 54.65L159.75 54.45L160.05 54.25V54.05H160.15L160.65 53.75V53.65L160.75 53.45L160.95 53.35H161.55L161.65 52.75L161.25 52.65L160.95 52.55L160.85 52.45L160.75 52.35L160.55 52.05L160.45 51.95L160.25 51.85L159.35 51.05V50.95L159.45 50.75L159.55 50.55L159.65 50.05L159.75 49.75L159.85 49.65V49.45V49.35L159.75 49.25V49.15H159.85H159.95L160.85 49.05H160.95H161.15H161.25H161.35L161.45 49.15H161.55H161.65L161.85 49.25H162.25H162.45H162.55H162.65H162.75H162.85V49.15L163.05 48.95H163.15L163.55 48.55V48.45L163.45 48.35L163.25 48.15L163.05 47.85L162.85 47.75L162.65 47.45L162.45 47.25L162.25 47.05L162.05 46.75L161.95 46.65L161.75 46.35L161.55 45.95L161.45 45.85L160.95 44.95V44.85L160.65 44.45L160.55 44.25L160.45 44.15L160.15 43.75L160.05 43.55L159.85 43.05L160.15 42.75H160.05V42.65V42.55V42.45H159.95V42.35V42.25H160.05L160.15 42.15L160.35 42.05H160.45L160.65 41.95L160.85 41.85L160.95 41.75H161.05V41.65L160.95 41.45L160.75 41.25V41.15L160.65 41.05L160.55 40.95L160.45 40.85L160.35 40.65V40.55H160.25V40.45L160.15 40.35V40.25H160.05L159.95 40.15V40.05L159.85 39.95L159.75 39.85L159.65 39.75L159.55 39.65L159.45 39.55L159.35 39.45V39.35H159.25L159.35 39.25H159.25V39.15L159.15 39.05H159.05L158.85 39.35L158.75 39.25L158.65 39.05L158.45 38.95L158.35 38.75L158.25 38.65L158.05 38.45L157.95 38.35V38.25H157.85H157.75L157.65 38.15H157.55H157.35H157.25V38.05H157.15V37.95L157.05 37.85V37.75H156.95V37.65H156.85V37.55L156.75 37.35V37.25L156.65 37.15V37.05L156.55 36.95V36.85L156.45 36.75V36.65L156.35 36.45L156.25 36.35V36.25L156.15 36.15V36.05V35.95L156.05 35.85V35.75H155.95V35.65V35.55V35.45V35.35H155.85L155.65 35.05V34.95H155.55V34.85V34.75V34.65H155.45V34.55H155.35V34.45V34.35V34.25L155.25 34.15V33.95L155.15 33.75L155.05 33.65V33.55H154.95L154.85 33.45L154.75 33.35H154.65L154.55 33.25L154.35 33.15V33.05H154.25L154.15 32.95L154.05 32.85L153.95 32.75H153.85L153.75 32.65L153.55 32.55L153.45 32.45H153.35H153.25V32.35H153.15H152.95H152.85L152.65 32.25H152.55H152.45H152.25L152.15 32.15H152.05H151.85L151.75 32.05H151.65V31.95H151.55L151.45 31.85H151.35L151.05 31.65L150.95 31.55H150.75L150.65 31.45L150.55 31.35L150.25 31.25L150.15 31.15L150.05 31.05H149.95L149.75 30.85H149.65L149.55 30.65H149.45V30.55L149.35 30.45L149.25 30.35L149.15 30.25L149.05 30.15H148.95L148.85 29.95H148.75L148.65 29.85H148.45H148.25L148.15 29.95H148.05L147.75 30.05H147.45H147.35V30.15H147.25H146.85L146.55 30.25L146.35 29.75L146.15 29.35L146.05 29.15H145.95V29.05L145.85 28.95L145.75 28.85V28.75H145.65V28.65H145.55V28.55V28.45H145.45V28.35L145.35 28.25H145.25L145.05 28.05V27.95H144.95V27.85L144.85 27.75L144.75 27.65V27.55L144.65 27.35L144.55 27.25V27.15L144.45 27.05V26.95L144.35 26.75H144.25V26.55L144.15 26.45V26.35H144.05V26.25H144.15V26.15V26.05V25.95H144.05H143.95H143.85H143.75V25.85H143.65V25.75H143.55V25.65H143.45V25.55V25.45V25.35H143.35L143.25 25.25H143.15V25.15H143.05L142.95 25.05L142.85 24.95H142.75L142.65 24.85V24.75H142.55V24.65H142.45V24.55H142.35H142.25V24.45H142.15V24.35V24.25H142.05V24.15L141.95 24.05V23.95H141.85V23.85H141.75V23.75L141.65 23.65L141.55 23.55V23.45H141.45V23.35V23.25H141.35V23.15V23.05H141.25L141.15 22.95V22.85H141.05V22.75H140.95H140.85V22.65H140.75V22.55V22.45H140.65V22.35V22.25V22.15H140.75V22.05V21.95V21.85V21.75L140.85 21.65V21.55V21.45L140.75 21.25L140.65 21.05L140.55 20.95L140.45 20.85V20.75L140.25 20.65V20.55L140.15 20.45L140.05 20.35L139.95 20.25V20.15H139.85V20.05V19.95L139.75 19.85V19.75L139.65 19.65H139.55V19.55L139.45 19.45V19.35V19.25V19.15V19.05V18.95L139.55 18.65L139.65 18.55V18.45L139.75 18.35V18.15L139.85 18.05V17.95L139.95 17.85V17.75L140.05 17.65V17.55V17.45V17.35V17.25L139.95 17.15V17.05V16.95V16.85L140.05 16.75V16.65V16.55V16.45V16.35V16.15V15.75V15.65V15.55V15.45V15.35V15.05V14.95V14.85V14.75V14.65V14.55V14.35V14.25V13.55V13.35V13.25L140.15 13.15V13.05L140.35 12.95L140.45 12.75L140.55 12.65V12.55M160.45 62.55H160.35M160.45 62.55L160.35 62.65L160.25 62.75V62.85L160.35 62.95H160.45V63.05H160.55H160.65V62.95V62.85L160.85 62.95V63.05L161.15 63.25L160.75 63.35L158.85 63.95H158.75H158.65V64.05L158.35 64.35L158.25 64.45V64.65L158.35 64.95L158.45 65.05L158.55 65.25V65.35H158.65V65.45V65.55H158.55L157.95 65.65H157.85V65.75L157.75 65.95L157.65 66.05V66.15L157.75 66.35L157.65 66.45V66.55H157.55L157.65 66.75H157.55H156.95H156.45L156.25 66.85H156.05V67.35L155.95 68.15H155.55V68.45V68.55V68.65L155.65 68.75L155.75 68.95V69.05L155.85 69.15L156.05 69.45H156.15L156.25 69.55L156.35 69.65L156.45 69.75V69.85H156.55V69.95V70.05L156.45 70.15L156.05 70.05H155.55H155.25H155.05L154.95 70.25L154.75 70.15L154.55 70.05L154.35 69.95H154.05L153.85 69.75V69.85L153.65 70.35L153.15 71.55V71.65L154.25 71.75H155.15V72.15V72.25L154.85 72.55L154.75 72.85L154.55 72.95L154.25 73.05L153.85 73.35L153.55 73.55L153.45 73.65L153.15 73.95L153.05 74.05L152.45 73.95H152.15H151.75L151.45 73.85H151.15V73.95L151.05 74.25V74.35V74.45L150.95 74.55L150.85 74.75V74.85H150.95V74.95V75.15L151.05 75.25V75.35L150.95 75.45V75.55L150.85 75.65V75.75L150.75 75.85V75.95H150.65V76.05L150.95 76.15L151.05 76.25L151.35 76.45V76.75L151.25 76.95V77.75L151.15 78.25V78.55L151.05 78.85V79.25L150.95 79.75L151.95 79.65H152.65L152.55 80.35L152.75 80.45V80.85V81.45L152.65 81.75V81.85H152.75L152.85 81.95L152.75 82.05V82.15M152.75 82.15V82.25M152.75 82.15L152.85 82.05L153.25 82.55L153.65 82.95V83.05V83.25L153.55 83.35V83.65V84.05L153.45 84.35V84.65L153.35 85.05V85.45L153.25 85.85V85.95V86.15L153.15 86.25V86.45V86.85H153.05V86.95V87.15L153.15 87.35V87.55V87.75H153.05L152.95 87.85V88.05V88.15L152.75 88.45V88.55V88.65H152.65V88.75L152.75 88.85V88.95L152.85 89.15L152.95 89.35L153.05 89.65V89.75V89.95H153.15V90.05H153.25H153.35L153.85 90.15H153.95L154.25 90.25L154.65 90.35L155.45 90.55L155.85 90.65H155.95H156.05H156.15V90.75L156.25 91.05V91.15L156.35 91.25L156.45 91.55L156.55 91.75L156.75 92.15L156.55 92.25L156.45 92.35H156.35L156.05 92.45H155.75L155.25 92.55H155.05L154.85 92.65H154.75H154.55L154.45 92.75L154.25 92.85L153.85 93.25H153.75L154.45 94.05L154.25 94.15L154.15 94.25L153.75 94.35H153.55L153.65 94.45V94.55V94.65H153.55H153.45L153.35 94.75H153.15V94.85H153.05L152.95 94.95H152.75L152.65 95.05H152.55L152.15 95.15L152.25 95.35V95.45L152.45 95.75L152.35 95.85H152.25H152.15H152.05L151.95 95.95V96.05L151.85 96.15V96.25L151.65 96.45L151.55 96.65L151.45 96.95L151.35 97.05L151.25 97.35L151.15 98.25V98.35H151.05L150.95 98.55H150.65H150.55L150.05 98.45V98.25H149.85L149.55 98.15H149.45H149.35V98.25H149.25V98.15H149.15H149.05H148.95H148.85H148.75H148.65V98.25V98.45V98.55L148.15 98.35L147.65 98.25L146.95 97.95L146.05 97.75L144.85 97.35L144.45 97.15H144.35H144.15L143.95 97.05L143.25 96.95L142.45 96.75L141.85 96.65L141.15 96.45L140.45 96.35L139.75 96.25L139.55 96.15H139.45H139.35H139.25L139.05 96.25H138.95L138.75 96.35H138.65H138.55H138.35H138.25H137.85H137.75L137.65 96.25H137.45H137.35H137.15L137.05 96.35L136.85 96.45L136.75 96.55L136.45 97.05H136.35V97.15L136.25 97.25L136.05 97.55L135.95 97.65L135.75 97.85L135.35 98.15L134.25 98.85L134.15 98.95L134.05 99.05L133.95 99.25L133.85 99.35V99.55L133.75 99.65L133.65 100.05H133.55V100.15H133.65L133.75 100.25H133.85H133.95H134.05H134.15L134.25 100.35H134.35H134.45L134.65 100.45L134.85 100.55H134.95L135.15 100.65L135.25 100.75L135.45 100.85L135.65 100.95L135.95 101.15L136.15 101.25L136.25 101.35H136.35V101.45H136.45V101.55H136.55V101.65V101.75V101.95H136.65V102.05V102.15V102.25L136.75 102.35V102.55L136.85 102.65V102.75V102.85V102.95H136.75H136.65H136.55L136.35 102.75H136.25H136.15L135.95 102.85L135.75 102.95H135.85V103.05H135.95L136.05 103.15L136.25 103.25H136.35L136.45 103.35V103.45H136.55V103.55L136.75 103.85H136.85L137.05 103.65H137.15H137.25L137.35 103.75L137.45 103.85L137.55 104.05L137.65 104.15H137.75L137.95 104.35V104.45L137.35 104.75L135.95 105.45L135.35 105.65L133.85 106.05L133.55 106.15H133.45L133.35 106.05L133.15 106.35L132.95 106.45L133.15 106.65L133.25 106.75V106.85H133.35V106.95L133.55 107.05H133.65L133.55 107.35L133.65 107.45L133.75 107.55L133.85 107.65V107.75L133.95 107.85V107.95V108.05H134.05V108.15V108.25H133.95V108.35V108.45V108.55V108.65L133.85 108.75H133.75L133.65 108.85H133.55V108.95L133.45 109.05V109.15V109.25H133.35H133.15H132.85H132.75H132.65M132.65 109.25V109.35M132.65 109.25H132.55H132.45V109.35V109.45L132.35 109.65L132.15 109.75V109.85L132.05 109.95L131.95 109.85V109.75V109.65V109.55V109.45V109.35H131.85V109.45L131.75 109.55V109.65H131.65V109.75H131.55M131.55 109.75V109.85M131.55 109.75H131.45V109.85H131.35V109.95H131.25V110.05H131.15V109.95L131.05 109.85H131.15V109.75V109.65V109.55V109.45V109.35H131.05V109.45L130.95 109.55L130.85 109.65H130.75L130.65 109.55L130.55 109.45V109.35L130.35 109.45H130.25V109.55H130.15H130.05V109.45H129.95H129.75H129.65L129.55 109.35H129.45V109.45L129.35 109.55V109.65L129.25 109.75V109.85L129.15 109.95L129.05 110.05L128.95 110.15H128.85H128.75H128.65H128.55H128.45L128.35 110.25H128.25H128.15H128.05L127.95 110.35H127.85L127.75 110.45V110.55L127.85 110.65V110.75L127.95 110.95L128.05 111.15H127.95V111.25H127.85V111.35V111.45V111.55V111.65L127.95 111.75V111.85H128.05L128.15 111.95V112.05V112.15V112.25H128.05V112.15L127.95 112.25L127.85 112.15L127.35 112.05L127.25 112.55L127.15 112.85V113.25V113.75V113.85L127.25 114.15V114.45V114.55H127.15H127.05V114.65H126.85V114.75H126.75H126.65L126.55 114.65V114.45V114.25L126.45 114.15L126.25 114.05H126.15L126.05 113.95L125.85 113.85H125.75L125.65 114.05L125.55 114.25V114.35V114.45H125.45V114.55L125.05 114.75V114.65L124.75 114.85L124.65 114.95H124.55H124.25L124.15 115.15V115.25H124.25M124.25 115.25V115.15M124.25 115.25H124.35H124.55H124.65H124.75V115.35V115.45M124.75 115.45H124.85M124.75 115.45H124.65H124.55H124.45H124.35V115.55V115.65V115.85H124.25V115.75V115.65H124.15H124.05H123.95V115.55L123.85 115.65L123.75 115.75V115.85H123.65V115.95V116.05L123.55 115.95H123.45V116.05V116.15H123.55V116.25H123.45H123.35V116.35H123.25V116.45L123.35 116.55V116.65H123.45H123.55H123.65H123.75L123.95 116.55L124.05 116.65L124.15 116.75H124.05H123.95H123.85V116.85H123.75V116.95V117.05H123.85V117.15H123.95H124.05V117.25V117.35H124.15V117.45H124.25H124.35H124.45H124.55H124.65L124.55 117.55V117.65V117.75L124.35 117.85H124.05H123.95V118.15V118.25V118.35V118.45H124.05V118.55H124.15H124.25V118.65V118.75H124.35L124.45 118.85H124.55H124.65H124.75V118.95H124.85V118.85H124.95V118.55L125.15 118.65V118.75L124.95 118.95V119.05V119.15H125.05H125.15V119.45L125.05 119.75V119.85L124.95 120.15H124.85L124.55 120.05H124.25L123.85 120.25H123.65V120.35H123.55V120.25V120.15V120.05H123.35H122.95H122.75H121.95V120.85L121.85 121.25L120.75 121.15V121.25L120.05 121.15H119.95H119.75V121.25V121.35H119.65L119.75 121.45V121.55H119.65V121.65V121.75V121.85H119.55V121.95L119.45 122.05L119.35 122.15V122.25L119.25 122.35V122.45V122.55H119.15V122.65H119.05V122.75H118.95V122.85H118.85V122.95H118.75H118.65H118.55V123.05V123.15H118.45V123.25H118.35V123.15H118.25H118.15V123.25V123.45V123.55H118.05V123.65V123.75V123.85L117.95 123.95V124.05H118.05V124.25V124.35V124.65L118.15 125.05L118.25 125.45V125.65V125.75L118.15 128.05V128.35L117.35 128.05L117.15 127.95L117.05 127.85L116.85 127.75H116.75L116.65 127.65H116.55H116.45L116.35 127.55L116.25 127.45V127.35L116.15 127.25V127.15L116.05 126.95H115.55V126.85L115.65 126.55L115.75 126.45L115.85 126.25L115.45 126.15H115.35H115.25H115.15H115.05H114.95L114.45 125.95L114.05 125.85L113.95 125.75L113.45 125.55L112.75 127.15L112.35 128.15H112.25H111.85L111.75 128.35H111.45H110.85H110.65H110.55L110.45 128.25H110.35H110.25H110.15H110.05L109.95 128.15H109.85L109.65 128.05L109.45 128.65V128.95L109.35 129.35H109.25L109.15 129.25H109.05H108.75V129.45L108.65 129.65L108.45 129.95V130.05L108.15 130.45L108.45 130.65L108.75 130.85L109.05 131.05L109.15 131.15L109.35 131.25L109.55 131.35H109.65V131.45V131.65L109.55 131.95H109.65H110.15L110.65 132.05H110.55V132.35L110.45 132.85L110.35 133.15H110.25L110.05 133.35H109.95V133.25L109.85 133.15H109.75V133.05H109.65H109.55V132.95V132.85H109.45V132.75H109.35V132.65V132.55H109.25V132.45H109.15L109.05 132.35L108.95 132.25V132.15H108.85H108.75H108.65L108.55 132.05M108.55 132.05V132.15M108.55 132.05H108.45V131.95V131.85H108.35V131.75H108.25V131.65H108.15V131.55H108.05V131.45H107.95H107.85V131.35V131.25H107.75V131.15V131.05H107.65V130.95V130.85H107.55V130.75V130.65H107.45V130.55H107.35V130.45H107.25V130.35H107.15V130.25V130.15H107.05H106.95V130.05H106.85V129.95H106.75H106.65L105.95 129.85L105.85 129.75H105.75L105.65 130.05H105.55H105.05L104.75 129.95H104.55V129.85H104.45V129.75V129.65H104.25L103.15 129.55H102.45H102.25L101.85 129.45H101.05L100.85 129.95L100.65 130.45L100.55 130.85L100.45 131.15L100.35 131.25V131.35V131.45V131.55H100.15L99.65 131.65H99.45L99.35 131.45H99.25L99.15 131.15H98.95H98.85L98.65 131.05H98.35H98.25H98.05L97.85 130.95H97.75L97.85 130.65L97.95 130.55L97.55 130.25L97.65 129.95L97.85 129.35H97.75H97.65L97.55 129.45H97.35L97.25 129.55L96.95 129.65H96.85H96.75H96.65H96.55H96.45H96.35L96.15 129.55H95.95L95.65 129.35H95.55L95.35 129.25H95.25L95.15 129.15H95.05H94.95H94.85L94.75 129.05H94.55H94.45H94.35L94.15 129.35L94.05 129.65L93.85 129.95L93.75 130.15L93.65 130.25L93.55 130.45V130.55L93.45 130.65V130.75H93.35L93.25 130.85H93.15L93.05 130.95L92.95 131.15L92.75 131.25V131.45L92.85 131.75V131.85H92.95V131.75H93.05H93.15V131.85H93.25H93.35H93.45H93.55H93.65H93.75V131.95V132.05L93.85 132.45L93.95 132.85V132.95L93.85 133.05H93.95V133.15V133.25L94.05 133.35L94.15 133.45V133.65V133.75H94.05H93.95V133.85L94.15 134.55L94.35 135.25L94.55 135.95L94.65 136.05V136.15L94.75 136.25L94.85 136.35V136.45H94.95V136.55V136.65H95.05V136.75V136.95L94.95 137.15L94.85 137.25V137.35V137.45H94.75V137.55H94.65H94.55H94.45H94.35L94.25 137.65V137.55H94.15V137.65H94.05H93.95H93.85V137.75H93.95V137.85H94.05H94.15M94.15 137.85V137.75M94.15 137.85L94.25 137.95V138.05V138.15V138.25H94.35V138.35V138.45H94.25V138.35H94.15V138.45L94.25 138.55H94.15H94.05V138.65V138.75H94.15V138.85H94.25V138.95H94.15V139.05V139.15H94.25H94.35H94.45V139.25V139.35L94.55 139.45V139.55H94.65V139.65H94.55H94.45V139.75M94.45 139.75H94.55M94.45 139.75L94.35 139.85V139.95H94.45H94.55V140.05V140.15H94.65H94.75V140.25H94.85V140.35V140.45H94.75H94.65H94.55H94.45V140.55V140.65H94.55V140.75H94.65M94.65 140.75V140.65M94.65 140.75H94.75V140.85V140.95V141.05M94.75 141.05H94.65M94.75 141.05V141.15H94.85H94.95V141.25H95.05V141.35V141.45V141.55L95.15 141.85V141.95V142.05V142.15V142.25L95.25 142.45V142.75L94.05 142.95H93.85L93.45 143.05V142.65H93.25L92.55 142.75L92.15 142.85H91.95H91.85L91.95 143.35L90.95 143.55L91.05 143.85V144.05L90.25 144.15L89.45 144.25H89.35L89.15 144.35L87.75 144.55V144.15L87.25 144.25V144.15L87.15 143.55H86.65L86.55 143.45H86.35V143.35V143.25H86.25V143.15V143.05H86.35L86.25 142.95H86.15H86.05L85.95 142.85L85.45 142.45L84.75 141.85L84.45 141.65L84.15 141.35L83.95 141.25L83.75 141.05L83.45 140.85L83.15 140.55L82.95 140.35L82.45 139.95L82.35 139.85V139.95L82.05 140.35L81.65 140.75L81.05 141.55L80.85 141.95H80.75L80.55 142.25H80.45H80.35H80.25H80.15L79.65 142.15L79.55 142.05H79.35H79.15V142.15L79.45 142.35H79.65H79.85L80.05 142.45L80.25 142.55L80.15 142.75L79.85 143.25L79.55 143.55H79.65L79.75 143.65H79.85H79.95H80.05H80.15H80.25H80.35H80.45V143.75H80.35H80.25L80.15 143.85H80.05H79.95H79.85V143.75H79.75H79.65L79.55 143.65L79.45 143.75L79.35 143.95L79.25 144.05L79.15 144.15L78.75 144.65V144.75V144.85H78.65V144.95L78.25 145.45V145.55L78.05 145.85L77.85 146.05L77.55 146.55L77.25 147.05L77.75 147.45L76.95 148.45L76.65 148.95L76.45 149.15V149.25L75.95 149.85L75.85 149.95L75.65 149.65L75.85 149.35L75.45 149.05L74.75 148.45L74.55 148.25L74.35 148.15L73.85 148.65L73.55 149.05L73.35 149.35L73.05 149.75L72.95 149.95L71.65 149.05L71.75 148.85L72.25 148.25L72.45 147.95L72.55 147.85L72.75 147.45L73.25 146.85L73.45 146.55L73.75 146.15L73.95 145.85L74.05 145.75L72.95 144.85L71.95 144.15L71.45 143.85L71.35 143.75V143.65H71.25L70.65 143.15V143.05V142.95V142.85V142.75H70.75L70.85 142.85H70.95V142.95H71.05V142.85L71.15 142.75V142.65H71.25V142.55V142.45V142.35M71.25 142.35H71.15M71.25 142.35V142.25H71.35V142.15H71.45V142.05V141.95H71.55V141.85H71.45V141.75M71.45 141.75H71.35V141.65H71.45V141.75ZM71.45 141.75H71.55V141.65V141.55V141.45H71.45V141.35V141.25V141.15H71.35L71.45 141.05M71.45 141.05H71.55M71.45 141.05V140.95H71.55V140.85H71.65L71.95 140.55H72.05L72.35 140.25L71.75 139.85L71.55 139.65H71.45V139.75V139.85H71.55L71.45 139.95L71.05 139.65L70.75 139.35L70.55 139.25L70.15 138.95L69.35 138.45L68.55 137.75L67.75 137.15L66.75 136.45L65.95 135.85L65.15 135.25L65.65 134.25L66.15 133.35L65.75 133.05L65.05 132.05H65.25L65.35 131.95H65.45L65.95 131.85V131.75L65.85 131.45L65.75 131.25L65.65 130.95L65.75 130.85L65.95 130.65H66.05L65.75 130.45L65.15 129.75L64.75 129.35V129.25L64.65 129.15V129.05V128.95H64.55H64.45H64.35V129.05H64.25V128.95V128.85L63.55 128.75H63.35L63.25 128.95H63.15M63.15 128.95V129.05M63.15 128.95L63.05 128.85H62.95M62.95 128.85V128.95M62.95 128.85H62.85H62.75H62.65V128.75H62.55V128.85H62.45V128.75H62.35V128.85H62.25V128.75H62.15V128.85H62.05H61.95H61.85H61.75H61.65V128.75H61.55V128.85H61.45V128.75H61.35M61.35 128.75H61.25M61.35 128.75V128.65H61.25V128.55V128.45H61.35V128.35H61.45V128.25V128.15V128.05H61.55V127.95V127.85V127.75H61.45V127.65V127.55H61.55V127.45V127.35L61.65 127.25V127.15H61.75H61.85V127.05H61.75V126.95V126.85V126.75V126.65H61.65V126.55H61.55H61.45L61.35 126.45H61.25L61.15 126.35L61.05 126.25H60.95H60.85V126.15H60.75H60.65H60.45H60.35L60.25 126.05L60.15 126.15H60.05L59.75 125.85L59.35 125.55L59.15 125.45L58.95 125.25L59.55 124.45L59.95 123.95L60.05 123.85L59.65 123.55L59.45 123.45L59.35 123.35L59.15 123.15L58.55 122.75L58.95 122.25L59.15 122.05L60.15 120.65V120.55L60.05 120.45H59.95L59.65 120.25L59.25 119.85L59.05 119.75L58.05 118.95L57.75 118.75L58.15 118.25L57.95 118.05L56.85 117.25L57.45 116.55V116.45L57.05 116.15L56.75 115.75L56.45 115.55L56.35 115.45L55.95 115.15L55.55 114.75L54.95 114.15H54.85V114.25V114.35L54.75 114.45H54.65V114.55V114.65H54.75V114.75H54.85V114.85V114.95V115.05V115.15H54.75V115.25V115.35H54.65V115.45V115.55H54.55V115.65M54.55 115.65H54.45M54.55 115.65V115.75H54.65H54.75V115.65H54.85H54.95V115.75H55.05V115.85H55.15V115.95H55.05L54.95 116.05H54.85V116.15L54.55 116.05M54.55 116.05V116.15M54.55 116.05H54.45H54.35V116.15H54.25H54.15H54.05V116.25H53.95V116.35H53.85V116.45V116.55H53.75H53.65H53.55V116.45V116.35H53.45V116.25H53.35H53.25V116.15H53.15H53.05V116.25H52.95H52.85L52.15 116.05L51.85 116.95L51.45 117.05V117.15H51.35L50.65 117.35V117.45L50.75 118.25V118.35H50.65H50.55L50.45 118.25H50.35L49.85 118.15L49.75 118.45V118.35H49.65V118.25V118.15H49.55V118.05L49.45 117.95H49.35V118.05V118.15H49.25V118.25L49.15 118.35L49.05 118.45L48.95 118.55V118.65V118.75H48.85H48.75V118.65H48.65V118.55H48.55H48.45V118.65H48.35V118.75V118.85V118.95H48.45V119.05L48.55 119.25V119.35L48.65 119.45V119.55H48.55V119.65H48.45H48.35V119.75H48.25V119.65H48.15H48.05L47.95 119.75V119.65H47.85L47.75 119.55V119.45H47.65V119.35V119.25H47.55V119.15H47.45V119.05V118.95V118.85V118.75H47.55H47.75H47.85V118.65L47.95 118.55V118.45H47.85H47.75L47.55 118.35H47.45V118.25H47.35V118.15V118.05L47.45 117.95V117.85V117.75V117.65H47.35H47.25V117.55H47.15H47.05V117.65V117.75V117.85H46.95V117.95H46.85L46.75 118.05H46.65H46.55V117.95H46.45V117.85H46.35V117.75H46.25V117.65H46.15L46.05 117.55H45.95H45.85V117.65H45.75V117.75V117.85L45.85 117.95V118.05H45.75V118.15H45.65H45.55H45.45H45.35L45.25 118.05H45.15H45.05H44.95H44.85V117.95H44.75V117.85V117.75H44.85V117.65V117.55V117.45H44.75L44.65 117.35V117.25H44.75V117.15L44.85 117.05V116.95H44.75V116.85L44.65 116.75L44.55 116.65H44.45V116.75V116.85H44.35H44.25H44.15V116.75V116.65H44.05H43.95V116.75H43.85V116.85H43.75V116.95L43.65 117.05V117.15H43.55V117.25L43.45 117.35V117.45H43.55V117.55V117.65H43.65V117.75V117.85H43.55V117.95V118.05H43.45L43.35 118.15L43.25 118.25H43.15H43.05H42.95H42.85V118.15V118.05H42.75L42.65 118.15V118.25H42.75V118.35M42.75 118.35H42.65M42.75 118.35V118.45L42.65 118.55V118.45H42.55V118.35H42.45V118.25V118.15V118.05H42.35V117.95H42.45V117.85H42.55V117.75H42.65V117.65V117.55H42.55V117.45L42.45 117.35V117.25H42.55V117.15L42.65 117.05V116.95V116.85V116.75V116.65H42.55V116.55H42.45H42.35V116.45H42.25H42.15V116.35H42.05M42.05 116.35V116.25M42.05 116.35H41.95V116.25H41.85V116.35H41.75H41.65V116.25H41.55H41.45H41.35H41.25V116.35H41.15V116.45H41.05V116.55H40.95V116.45V116.35V116.25V116.15H40.85V116.05H40.75V116.15H40.65H40.55H40.45H40.35H40.25H40.15V116.25V116.35H40.05V116.45H39.95V116.55H40.05V116.65V116.95H39.95H39.85H39.75H39.65H39.35L39.15 116.65V116.55V116.45L39.05 116.35V116.25V116.15V116.05V115.95H39.15V115.85V115.75V115.65H39.25V115.55V115.45H39.15H39.05H38.95H38.85H38.75H38.65H38.55V115.55H38.45H38.35H38.25V115.45H38.15V115.55H38.05H37.95H37.85H37.75V115.45H37.65V115.35V115.25V115.15H37.55H37.45V115.25H37.35V115.35L37.25 115.25H37.15V115.15L37.05 115.05V115.15H36.95L37.05 115.25V115.35V115.45V115.55H36.95H36.85V115.65V115.75H36.75V115.85V115.95V116.05H36.65L36.55 116.15H36.45H36.35V116.05V115.95H36.45V115.85H36.35V115.75H36.25L36.15 115.85H36.05V115.95V116.05H35.95V116.15H35.85L35.75 116.05V115.95V115.85H35.65L35.55 115.95H35.45H35.35H35.25H35.15L35.05 115.85H34.95H34.85V115.75V115.65H34.75V115.55L34.65 115.45H34.55H34.45H34.35H34.25V115.55V115.65L34.35 115.75V115.85V115.95H34.25L33.85 115.85L33.55 115.75H33.45V115.65L33.35 115.45H33.15V115.55L33.05 115.65L32.95 115.75L32.85 115.85H32.75H32.65V115.75H32.55V115.85L32.45 115.95H32.35L32.25 116.05L32.15 116.15L32.05 116.25L31.95 116.15V116.05H32.05V115.95V115.85V115.75H32.15H32.25V115.65H32.15V115.55H32.05H31.95L31.85 115.65H31.75V115.75H31.65H31.55V115.65L31.45 115.55V115.45V115.35L31.35 115.25L31.25 115.15V115.05H31.15L31.05 114.95L30.95 115.05H30.85H30.75L30.65 114.95H30.55V114.85V114.75L30.75 114.55V114.45V114.35H30.65V114.25H30.55H30.45H30.35H30.25H30.15V114.15H30.05L29.95 114.05H29.85L29.75 113.95V113.85H29.65H29.55V113.75H29.45V113.65V113.55H29.55V113.45H29.65V113.35V113.25H29.55V113.15H29.45H29.35V113.05H29.25H29.15V113.15V113.25H29.05L28.95 113.15V113.05H28.85V113.15H28.75L28.65 113.05L28.55 112.95V113.05H28.45V113.15H28.35M28.35 113.15V113.05M28.35 113.15H28.25H28.15V113.05H28.05L27.95 112.95V112.85H27.85H27.75V112.75M27.75 112.75H27.85M27.75 112.75V112.65H27.65L27.75 112.55L27.85 112.65H27.95V112.55V112.45V112.35H27.85V112.25V112.15H27.95H28.05V112.05V111.95H27.95H27.85V111.85H27.75V111.75H27.65V111.85H27.55H27.45V111.95H27.35H27.25L27.15 112.05H27.05L26.95 111.95H26.85V111.85V111.75H26.75V111.65L26.65 111.55H26.55V111.45L26.45 111.35H26.35V111.25L26.25 111.15L26.15 111.05H25.95V110.95H25.85H25.75H25.65H25.55H25.45H25.35H25.25V110.85H25.15V110.75H25.05H24.95V110.65H24.85H24.75V110.55V110.45H24.65V110.35H24.55V110.25H24.65H24.75L24.85 110.15V110.05H24.95V109.95H24.85V109.85L24.75 109.75H24.65H24.55V109.65H24.45V109.55V109.45L24.35 109.35H24.25H24.15H24.05V109.25H23.95V109.35H23.85V109.25H23.75V109.15H23.65V109.05L23.55 108.95V108.85H23.45V108.95H23.35H23.25V108.85H23.15H23.05H22.95V108.75H22.85H22.75V108.65H22.85V108.55L22.95 108.45V108.55H23.05V108.45V108.35V108.25H23.15H23.25V108.15H23.35V108.05V107.95V107.85H23.25V107.75V107.65V107.55V107.45V107.35H23.15V107.25H23.05V107.15V107.05H22.95H22.85V107.15V107.25H22.75H22.65V107.15H22.55V107.05H22.45V106.95H22.35V106.85L22.25 106.75V106.85H22.15H22.05H21.95V106.95V107.05H21.85V107.15H21.75V107.05V106.95V106.85H21.85V106.75H21.75L21.65 106.65V106.75V106.85V106.95V107.05V107.15H21.55H21.45V107.05L21.35 106.95L21.25 106.85H21.15V106.75L21.05 106.65V106.55L21.15 106.45V106.35V106.25L21.05 106.15V106.05L20.95 105.95H20.85H20.75V106.05H20.65V105.95H20.55V105.85V105.75V105.65V105.55V105.45V105.35H20.45L20.35 105.45H20.25L20.15 105.55H20.05H19.95V105.45H19.85V105.35H19.75H19.65H19.55V105.45V105.55L19.45 105.65V105.75H19.35V105.85L19.25 105.95V106.05V106.15H19.15V106.25V106.35H19.05H18.95V106.25M18.95 106.25H19.05M18.95 106.25H18.85V106.35H18.75V106.25V106.15V106.05V105.95L18.65 105.85H18.55H18.25L18.15 105.75H18.05H17.95H17.85H17.75H17.65H17.55H17.45H17.35H17.25V105.65H17.15L17.05 105.55V105.45H17.15V105.35V105.25H17.25M17.25 105.25V105.35M17.25 105.25H17.35V105.15L17.45 105.05L17.55 104.95H17.65H17.85H17.95L18.15 105.05V104.85V104.75H18.05V104.65H18.15V104.55H18.25L18.35 104.45H18.45H18.55M18.55 104.45V104.55M18.55 104.45H18.65L18.85 104.55L18.95 104.45H19.05V104.35H18.95V104.25H18.85L18.75 104.15L18.55 104.05H18.45L18.35 103.95L17.95 103.65L17.85 103.55H17.75V103.65H17.65V103.55H17.55V103.45H17.45H17.35H17.25H17.15M17.15 103.45V103.55M17.15 103.45V103.35V103.25V103.15L17.05 103.25V103.15V103.05H17.15L17.05 102.95V102.85H17.15V102.75M17.15 102.75H17.05M17.15 102.75H17.25V102.65M17.15 102.75V102.65H17.25M17.25 102.65H17.35L17.45 102.55H17.55H17.65H17.75H17.95H18.05H18.15V102.45L18.05 102.35L17.95 102.25L17.85 102.15H17.75H17.65H17.55L17.45 102.05V101.95L17.35 101.85V101.75H17.25H17.15H17.05V101.65V101.55H16.95L16.85 101.65H16.75V101.75H16.65L16.55 101.85V101.75H16.45M16.45 101.75V101.85M16.45 101.75H16.35M16.35 101.75V101.85M16.35 101.75V101.65H16.25H16.15H15.95H15.85H15.65L15.55 101.75V101.85H15.45V101.95L15.35 102.05V102.15H15.25V102.25V102.35H15.15V102.45H15.05H14.95V102.55H14.85H14.75V102.45H14.65H14.55L14.45 102.35H14.35H14.25V102.25H14.15V102.15H14.25V102.05H14.35H14.45V101.95V101.85H14.35H14.25V101.75H14.15L14.05 101.65H13.95L14.05 101.75V101.85H13.95L13.85 101.75H13.75V101.65V101.55V101.45H13.65L13.55 101.55V101.65V101.75H13.45H13.35V101.85H13.25L13.15 101.95H13.05V102.05H12.95V101.95H12.85H12.75M12.75 101.95V102.05M12.75 101.95H12.65L12.55 102.05H12.45H12.35V102.15H12.25L12.15 102.25V102.35H12.05V102.45V102.55H11.95V102.65H11.85M11.85 102.65V102.55M11.85 102.65V102.75V102.85V102.95M11.85 102.95H11.75M11.85 102.95V103.05V103.15V103.25H11.75L11.65 103.15V103.05H11.55V102.95H11.45V102.85V102.75L11.35 102.65V102.55V102.45V102.35H11.45V102.25M11.45 102.25H11.35M11.45 102.25V102.15H11.55V102.05V101.95V101.85V101.75V101.65L11.35 101.75L11.15 101.85L11.05 101.25L11.25 101.05L11.15 100.95H11.05L10.95 100.85H10.85L10.75 100.75H10.65V100.65V100.55H10.55H10.45M10.45 100.55V100.65H10.35V100.55M10.45 100.55H10.35M10.35 100.55H10.25V100.45H10.15V100.55M10.15 100.55V100.65M10.15 100.55H10.05V100.65H9.95001V100.75V100.85L10.05 100.95V101.05V101.15V101.25V101.35V101.45L9.95001 101.55V101.65H9.84998V101.75V101.85V101.95L9.75 102.05V102.15H9.65002H9.54999H9.45001L9.34998 102.25H9.25L9.15002 102.35H9.04999H8.95001H8.84998L8.65002 102.45H8.54999H8.45001L8.34998 102.15L8.25 101.75L8.15002 101.45V101.35L7.95001 100.65L7.84998 100.05L7.65002 99.45L7.54999 98.65L7.34998 98.05L7.25 97.55L7.04999 96.95V96.65L6.95001 96.45V96.35L6.84998 96.15V96.05L6.75 95.55L6.54999 94.85L6.65002 94.45L6.75 94.25V94.15L6.84998 93.95L6.95001 93.45L7.15002 93.15L7.45001 92.15V92.05V91.95H7.54999V91.85V91.75L7.65002 91.65V91.45V91.35L7.75 91.25L7.84998 90.85L8.15002 90.95L8.34998 90.65V90.55H8.25L8.34998 90.45V90.35L8.45001 90.25V90.15L8.54999 89.95H8.65002V89.85L8.75 89.65L8.54999 89.55V89.45L8.65002 89.15H8.75V89.05H8.84998V88.95L9.15002 88.65H9.25L9.34998 88.55L10.15 88.95L10.45 89.15L11.05 89.45L11.55 89.65V89.75H11.45V89.85V89.95V90.05V90.15H11.55V90.25V90.35V90.45H11.65V90.55H11.75V90.65L11.85 90.75H11.95V90.85H12.05V90.95H12.15L12.25 90.85H12.35H12.45H12.55V90.95H12.65H12.75L12.85 90.85H12.95V90.95H13.05V90.85H13.15H13.25H13.35L13.85 90.75L14.05 90.85H14.15H14.25H14.35L14.55 90.95H14.65H14.75L14.95 91.05L15.35 91.15L15.75 91.25H16.05H16.15V91.35L16.25 91.25H16.35V91.35L16.95 91.25L17.35 91.35H18.15L18.35 91.25L18.45 91.15V91.05L19.35 91.15L19.65 91.25H19.75L19.95 91.35L20.35 91.55L20.85 91.85L20.75 92.05L20.55 92.35L20.95 92.55L21.25 92.75L21.35 92.55L21.55 92.15V92.05V91.95H21.65V91.85V91.75V91.65H21.75L21.85 91.55L22.15 91.35L21.65 89.55L21.75 89.35L22.25 88.75L22.75 88.25L22.95 87.95L23.25 87.55H23.35L23.45 87.35L23.55 87.25L24.35 86.25L24.45 86.15H24.55V86.05L24.65 85.85L24.95 85.65V85.55L25.35 85.05L25.55 84.75L25.95 84.25L26.25 83.75L26.45 83.55V83.45H26.55V83.35H26.45L25.15 82.85V82.75L25.25 82.35L25.35 81.85V81.75L25.75 80.15V80.05L25.85 79.55H25.75V79.65H25.65H25.55L25.45 79.75L25.05 79.35L24.55 79.15L23.75 79.05L23.45 78.95L23.55 78.65L23.65 78.05L23.75 77.75V77.65L23.95 76.75L24.05 76.35L24.15 76.25L24.25 75.85L24.05 75.75L24.25 75.15L24.55 75.25H24.65L24.95 75.35H25.35L25.75 75.45L26.05 75.55L26.35 75.65L26.75 75.75H26.85L27.35 75.85L28.65 76.15L29.05 76.25L29.45 76.35L29.85 76.45L29.95 76.55H30.15L30.65 76.65L30.75 76.75H30.85V76.45L31.15 76.55L31.55 76.65L31.85 76.75L32.15 75.65L32.25 75.25V74.85V74.75L32.15 74.55L32.05 74.45V74.35V74.25L31.95 74.15L31.25 74.05L30.65 73.85L30.25 73.75V73.65L29.75 73.55L29.15 73.45L29.25 72.95L29.35 72.35H28.95L29.05 72.15V71.65L28.15 71.45L28.05 71.35L27.95 71.15V71.05V70.95L28.05 70.75L28.55 70.65H28.85H29.15L29.25 70.55H29.35H29.75H29.85H29.95H30.05L30.15 70.45H30.45H30.65H30.75H30.85H30.95H31.05V70.35H31.15H31.25H31.35H31.45V70.25V70.15H31.55H31.65L31.75 70.05L32.05 69.95V69.85L31.95 69.75L31.85 69.45L31.75 69.15L31.65 68.95L31.55 68.75L31.45 68.65L31.35 68.35L31.25 68.25V68.05L31.15 67.95V67.75L30.95 67.55L30.85 67.15L30.75 66.75L30.65 66.35L30.55 66.25V66.05L30.45 65.65L30.25 65.25V65.15L30.15 64.95L30.05 64.85L29.95 64.55V64.45H29.85L29.75 64.35L29.65 64.15L29.55 63.95L29.45 63.85L29.25 63.65L29.05 63.35H28.95V63.25V62.75L29.45 62.55V62.45V61.95L29.05 62.05V62.15H28.95H28.75H28.05L27.25 62.25V62.45L26.05 62.55L24.95 62.65L24.55 61.95L24.35 61.55L24.25 61.25H24.15H24.05L23.95 61.15H23.85H23.65H23.55H23.45H23.35H23.25H23.15L22.85 61.05H22.75H22.65H22.55H22.45V60.95H22.35H22.25H22.15H22.05H21.95H21.85V61.05H21.65H21.55L21.45 60.95V61.05H21.35L21.25 60.95H21.15L21.05 61.05H20.95V60.95H20.85H20.75V60.85H20.65H20.55L20.25 60.65L20.15 60.55H20.05V60.45H19.95H19.85V60.25L20.15 59.75L20.45 59.25V59.05H20.35L20.25 58.95M20.25 58.95L20.15 59.05L19.95 59.15L19.85 59.05V58.95H19.75L19.95 58.85L20.05 58.75L20.15 58.85L20.25 58.95ZM20.25 58.95L20.35 58.85H20.45H20.55H20.65H20.75H20.85L20.95 58.75L20.85 58.25L20.75 57.95V57.85L20.65 57.25H20.45H20.25L19.85 57.15L19.65 57.05H19.55H19.35H19.15H18.85L18.75 56.95L18.45 56.65L18.15 56.35L18.05 56.25L18.25 56.15H18.15V56.05V55.95V55.85V55.75V55.65L17.95 55.55V55.45V55.25V54.95L18.15 54.75L18.05 54.65H18.15V54.55L18.25 54.35L18.15 54.15L18.05 53.85L17.95 53.45L18.25 52.95V52.85H18.15L18.05 52.75H17.95V52.65H17.85L17.75 52.55V52.45M17.75 52.45H17.65M17.75 52.45L17.85 52.35L17.65 52.05L17.85 51.95L17.95 51.75H18.05V51.65L18.15 51.75H18.25L18.35 51.85H18.45L18.65 51.75L18.75 51.55L18.55 51.35V51.25L18.45 51.15V50.95L18.35 50.65V50.55L18.45 50.45L18.55 50.05L18.65 49.95V49.85V49.75H18.55L18.45 49.65H18.35V49.45H18.25H18.15H18.05L17.95 49.35H17.75H17.65H17.45L17.55 49.15V48.95L17.45 48.85L17.05 48.75L16.15 48.35H16.05L15.75 47.95L15.15 47.65L14.75 47.55L14.55 47.45V47.55L14.25 47.75H14.15V47.85H14.05H13.95L13.75 47.95L13.55 48.05L13.15 47.85L12.95 47.65H12.85L12.75 47.55H12.45L12.05 47.45L11.85 47.35L11.75 47.45L11.45 47.55H11.25H11.15H11.05H10.95L10.85 47.45V47.35L10.75 47.25V47.15H10.65L10.55 47.05L10.45 46.95H10.35L10.25 46.85V46.75H10.15V46.85H10.05V46.75V46.65L9.95001 46.55H9.84998V46.45V46.35H9.95001H10.05H10.15L10.25 46.25H10.35L10.25 45.85L10.35 45.75H10.75V45.35H10.45L9.75 45.25L9.25 45.15L8.95001 45.45L8.84998 45.55L8.75 45.75L8.65002 45.85L8.54999 45.95L8.34998 46.15L7.45001 45.65L7.15002 45.55L7.04999 45.45L6.95001 45.35L6.75 45.25L6.65002 45.15H6.54999L6.25 45.25L6.15002 45.45H6.04999L5.75 45.25H5.65002V45.15H5.54999L5.34998 44.95L5.15002 44.75V44.65H5.04999H4.95001L4.84998 44.55L4.75 44.45V44.35L4.65002 44.25L4.34998 43.95V43.85L4.25 43.65L3.95001 43.05L3.65002 42.55L3.54999 42.35L3.34998 42.05L3.25 41.85L3.15002 41.65V41.55L2.75 41.65L2.25 41.75H2.15002L2.04999 41.65L1.95001 41.55L1.54999 41.05L1.45001 40.95V40.85H1.34998L1.15002 40.75V40.65L0.950012 40.45H0.849976H0.75H0.650024H0.549988H0.450012V40.35H0.549988V40.25L0.650024 40.15H0.75L0.849976 40.05H0.950012V39.95H1.04999V39.85M1.04999 39.85H1.15002M1.04999 39.85V39.75H0.950012V39.65H0.849976L0.75 39.35V39.25L0.650024 39.05L0.549988 38.55L0.450012 38.25L0.349976 37.75L0.25 37.45H0.349976L0.450012 37.35L0.549988 37.25L0.650024 37.15L0.75 37.05L1.15002 36.55L1.45001 35.95H1.54999L2.04999 34.95L2.25 34.65V34.55L2.54999 33.95H2.65002L2.95001 33.55L3.34998 33.15L4.25 32.15L4.34998 31.95V31.65L4.84998 31.25L5.45001 30.85L5.65002 30.65V30.55V30.05L5.34998 29.95V29.75V29.35V29.15L5.04999 29.05H4.95001V28.95V28.85L4.75 28.95H4.34998V28.65L4.25 27.95V27.45V26.95V26.65L4.15002 26.25V25.95L4.34998 25.35L4.54999 24.45L5.75 24.25L5.95001 24.05L6.25 23.95L6.15002 23.65L6.04999 23.15L5.75 22.25L5.65002 21.95H5.75L6.34998 22.15L6.75 22.05H7.04999H7.25H7.65002V22.15V22.25H7.75V22.35L7.65002 22.45H7.84998L7.95001 21.95L8.65002 22.15L9.04999 22.25H9.15002V22.35V22.45V22.85L9.04999 23.35L9.54999 23.45L9.65002 23.35L9.84998 22.95L10.35 22.15L10.45 21.85L10.65 22.05L10.75 21.95L10.65 21.85L10.75 21.65H10.85L11.05 21.45V21.35V21.25L11.15 21.15V21.05L11.05 20.95L11.45 20.65L11.15 20.35L11.05 20.25L11.25 20.15L11.35 20.05L11.95 19.75H12.05H12.15H12.25V19.65H12.35H12.75L12.85 19.55L12.95 19.45L13.25 19.25L13.75 18.85L13.95 18.65L14.05 18.55L14.35 18.25L14.65 17.85L15.05 17.35L15.55 17.65L16.75 18.25L17.25 18.45L17.35 18.35V18.25V18.15L17.45 17.85L17.55 17.65L17.65 17.75V17.85L17.55 17.95L18.15 18.05L18.85 18.35L19.25 18.45H19.35L19.55 17.85L19.95 17.95H20.65V17.85H20.75V17.75H20.65V17.65V17.55V17.35V17.25V17.15V17.05H20.75V16.95V16.85V16.75V16.65V16.55V16.45V16.35L20.65 16.25V16.05L20.75 15.95V15.85H20.85L20.95 15.75V15.65V15.55L21.55 15.65H21.65L22.65 15.75L22.95 15.55L23.45 15.15L23.65 15.05L24.15 14.95V14.85L24.25 14.65L23.95 14.55L22.75 13.85L22.45 13.65L23.15 12.75L23.55 12.15L23.65 12.05L23.75 11.95L23.65 11.75L24.15 11.35L24.75 11.75L24.85 11.85H24.95V11.95H25.05L25.15 12.05L25.25 12.15L25.35 12.25L25.95 12.65L26.15 12.75L26.85 13.25L26.95 12.65V12.35L26.85 12.25L26.75 11.95L26.65 11.25L27.55 11.35L28.05 11.25V11.15H28.25V11.05V10.95H28.35V10.85L28.45 10.75V10.65V10.55H28.55V10.45H28.65L28.75 10.35V10.25V10.15H28.85V10.05L28.95 10.15L29.55 11.05V11.15L29.65 11.45L29.75 11.55L30.75 11.65L30.65 12.05L30.75 12.15L31.25 12.45L31.75 12.85L32.15 13.15L32.55 13.45L32.65 13.25L32.75 13.15L32.85 12.95H32.95V12.85L33.65 13.35L33.95 13.65L34.05 13.45L34.15 13.25L34.25 13.45L34.35 13.35L34.25 13.25V13.15L34.35 12.95H34.45L34.55 12.75V12.65L34.45 12.55L33.95 11.95L33.55 11.45H33.75H33.85L34.25 11.35L34.95 11.25L35.65 11.15H35.75H35.85H35.95L36.15 11.25H36.45L36.85 10.95L37.15 10.75L37.35 10.55L37.45 10.35L37.65 10.45L37.75 10.55H37.85L38.15 10.65H38.25L38.35 10.75H38.45H38.65H38.85L39.25 10.85H39.35L39.25 10.95L39.15 11.05L39.05 11.25L39.15 11.35L39.25 11.45H39.35L39.65 11.65V11.75L40.35 12.05V11.85H40.55H40.65L40.75 11.35L40.85 10.95V10.75H41.05H41.55V10.65L41.75 10.45V10.35H41.95V10.15V10.05H42.25L42.45 9.45001V9.35001V9.25L42.25 9.15001L41.95 9.05L41.85 9.45001L40.85 9.25L40.55 9.15001V8.95001L40.75 8.75H40.85H40.95L41.05 8.65001H41.15L41.25 8.55L41.45 8.45001H41.55H41.75H42.15H42.45H42.65H43.05L43.35 8.55H43.45H43.85H44.25H44.35H44.55H44.75H44.85L44.95 8.35001L45.05 8.25V8.15001L45.25 7.95001L45.45 7.75L45.65 7.45001H45.75L45.85 7.25L46.15 7.05L46.45 6.65001L46.65 6.55L46.95 6.25L47.15 6.15001V6.05L47.25 5.95001L47.45 5.85001V5.75H47.55V5.65001H47.65V5.55L47.75 5.45001L47.85 5.35001V5.25H47.95V5.15001H48.05V5.05V4.95001L48.15 4.85001V4.75V4.65001L48.25 4.55V4.45001V4.35001M48.25 4.35001H48.15M48.25 4.35001V4.25V4.15001V4.05H48.15M48.15 4.05V3.95001M48.15 4.05H48.05H47.95H47.85H47.75V3.95001H47.65V3.85001V3.75H47.55V3.65001L48.25 3.15001L48.35 3.05H48.45V2.95001H48.55L48.65 2.85001H48.75V2.75H48.85L48.95 2.65001L49.05 2.55H49.15L49.25 2.45001L49.35 2.35001L49.45 2.25H49.55L49.65 2.95001L50.05 2.85001L50.25 2.75L50.65 2.55L50.85 2.75L51.25 2.95001L51.65 2.85001L51.75 2.75L51.85 2.65001V2.55L51.95 2.45001L52.05 2.25H52.15L52.25 2.15001L52.35 1.85001H52.45V1.95001H52.55H52.65V1.85001H52.75H52.85H52.95H53.05V1.95001H53.15V1.85001H53.25V1.95001H53.35V2.05V2.15001H53.45H53.55H53.65H53.75H53.85L53.95 2.05V1.95001H54.05V2.05H54.15L54.25 2.15001H54.35V2.25H54.45V2.35001H54.55V2.45001H54.65H54.75H54.85V2.35001V2.25H54.95H55.05H55.15H55.25H55.35V2.15001H55.45H55.55H55.65V2.25H55.75H55.85V2.15001H55.95H56.05L56.15 2.05H56.25H56.35H56.45L56.55 1.95001H56.65V1.85001L56.75 1.75L56.65 1.65001H57.05H57.15H57.25H57.35H57.45L57.55 1.55H57.65H57.75H57.85H57.95V1.45001H58.05V1.35001H58.15H58.25H58.35V1.25H58.45V1.35001H58.55H58.65H58.75H58.85H58.95V1.25H59.05L59.15 1.35001L59.25 1.25H59.35V1.15001H59.45H59.55H59.65H59.75H59.85V1.05H59.95H60.05H60.15H60.25V1.15001H60.35V1.05H60.45H60.55V0.950012H60.65H60.75H60.85L60.95 0.850006H61.05H61.25H61.35H61.45V0.950012V1.05V1.15001V1.25H61.55L61.65 1.15001H61.75H61.85H61.95H62.05V1.05H62.15H62.25H62.35V1.15001H62.45V1.25H62.55V1.35001H62.65L62.85 1.45001H62.95L63.05 1.55L63.25 1.65001H63.35H63.45L63.55 1.75H63.65V1.85001H63.75H63.85H63.95M63.95 1.85001V1.95001M63.95 1.85001H64.05H64.15H64.25V1.95001H64.35H64.45H64.55H64.75H64.85H64.95L65.05 2.05H65.25L65.35 2.15001H65.45H65.55V2.25H65.65H65.75L65.85 2.35001V2.45001H65.95H66.05L66.15 2.55V2.65001V2.75V2.85001H66.25V2.95001V3.05V3.15001L66.35 3.25V3.35001V3.45001L66.45 3.55V3.65001V3.75V3.95001H66.55V4.05V4.15001V4.25H66.65V4.35001L66.75 4.45001V4.55L66.85 4.75H66.95L67.05 4.65001L67.15 4.55L67.25 4.45001H67.35H67.45L67.55 4.55L67.65 4.65001L67.75 4.75H67.85L67.95 4.85001L68.15 5.25H68.25V5.35001H68.35V5.45001H68.45V5.55H68.55V5.65001V5.75V5.85001M68.55 5.85001H68.65M68.55 5.85001V5.95001H68.65V6.05V6.15001H68.75V6.25H68.85V6.35001L68.95 6.45001L69.05 6.55V6.65001H69.15L69.25 6.75V6.85001L69.35 6.95001L69.45 7.05H69.55V7.15001H69.65V7.25V7.35001V7.45001V7.55L69.75 7.65001V7.75V7.85001H69.85L70.05 8.05V8.15001H70.15V8.25H70.25H70.35L70.45 8.35001H70.65L70.85 8.45001H70.95L71.05 8.55V8.65001L71.15 8.75V8.85001H71.25L71.35 8.95001L71.55 9.25L71.65 9.35001L71.75 9.45001L71.85 9.55L71.95 9.65001L72.15 9.75L72.25 9.95001V10.05V10.15L72.05 10.35V10.45L71.95 10.55L71.85 10.75V10.85L71.75 10.95H71.85H71.95H72.05L72.15 11.05H72.05V11.15V11.25L71.95 11.35V11.45V11.55V11.65L72.05 11.75V11.85H72.15V11.95V12.05L72.25 12.25H72.35V12.35V12.45V12.55V12.65V12.75V12.85H72.45V12.95H72.55L72.65 12.85H72.75H72.85H72.95H73.05V12.95V13.05V13.15V13.25H72.95V13.35V13.45H73.05H73.15H73.25H73.35H73.45H73.55L73.65 13.55H73.75H73.85H73.95H74.05H74.15L74.25 13.65H74.35H74.45H74.55H74.65H74.85H74.95H75.05H75.15H75.25L75.35 13.75H75.45H75.55H75.65H75.75H75.85L76.25 13.45L76.85 12.85V12.75H76.95H77.05V12.65H77.15H77.25H77.35L77.45 12.55L77.65 12.45H77.75L77.85 12.35H77.95H78.05L78.15 12.25V12.15H78.25L78.35 12.05H78.45V11.95H78.55L78.65 11.85L78.75 11.75V11.65H78.85V11.55V11.45L78.95 11.35L79.05 11.25L79.15 11.15V11.05L79.25 10.95V10.85V10.75H79.35V10.65H79.45V10.55L79.75 10.45H79.85L79.95 10.65V10.75V11.05L80.05 11.15V11.35V11.45V11.55L80.15 11.65V11.75V11.95H80.25H80.35H80.55L80.65 11.85H80.75H81.05H81.35H81.45H81.75V11.75H81.85L82.05 11.85H82.25H82.45L82.55 11.95H82.65V12.15V12.25V12.35H82.75V12.45H82.85V12.55H82.95L83.05 12.65H83.15V12.75L83.25 12.85V12.95H83.45L83.55 13.05L83.65 13.15H83.75H83.85H83.95H84.05V13.25L84.55 13.35V13.45H84.45V13.55V13.65H84.35V13.75V13.85M84.35 13.85H84.45M84.35 13.85L84.45 13.95H84.55H84.65H84.75V14.05H84.85H84.95H85.05H85.15H85.25V14.15H85.35H85.45L85.55 14.25H85.65H85.75H85.85H85.95H86.05H86.15V14.15H86.25V14.05H86.35H86.45L86.55 13.95H86.65H86.75H86.85H86.95H87.05H87.15H87.25H87.35H87.45H87.55V14.05H87.65V14.15V14.25V14.35L87.75 14.45L87.85 14.55H87.95V14.75H87.75H87.45H87.35H87.25H87.05V14.85H86.95L87.05 14.95V15.05V15.15V15.25V15.35L87.15 15.45V15.55L87.25 15.75L86.95 15.95H87.05L87.15 16.05L87.05 16.15L86.95 16.35V16.25H86.85H86.75V16.15H86.65V16.25L86.45 16.45L86.35 16.55L86.25 16.65V16.75H86.35V16.85H86.45V16.95L86.55 17.05L86.65 17.15L86.75 17.25H86.85L86.95 17.35H87.05V17.45V17.55H87.15V17.65H87.25L87.35 17.75V17.85H87.45L87.55 17.95H87.65L87.75 18.05L87.85 18.15H87.95L88.25 18.35H88.15H88.05L88.15 18.45H88.25V18.55H88.35L88.45 18.65H88.65V18.75H88.75L88.85 18.85H88.95V18.75V18.65V18.55H89.05H89.15H89.25L89.45 18.65L89.55 18.75H89.75L89.85 18.85H89.95H90.05L90.15 18.95H90.25L90.35 19.05H90.45L90.55 19.25H90.65V19.35L90.75 19.25H90.85H90.95L91.05 19.15L91.25 19.05H91.35L91.45 18.95L91.55 18.85V18.75H91.65V18.65L91.75 18.55L91.85 18.45V18.35V18.25H91.95V18.15H92.05V18.05L92.15 17.95V17.85H92.25V17.75V17.65V17.55H92.35V17.45V17.35V17.25V17.15L92.45 17.05V16.95V16.85V16.75V16.65V16.55V16.45V16.35V16.25V16.15V16.05H92.55V15.85L92.65 15.75V15.65V15.55L92.75 15.45L92.85 15.35H92.95V15.25H93.05V15.35H93.15V15.45L93.45 15.35V15.25L93.75 15.15V15.05H93.85L93.95 14.95L94.05 14.85L94.15 14.75L94.25 14.65H94.35H94.45H94.55H94.65L95.15 14.35L95.35 14.15L95.85 13.95V13.85H95.75V13.75H95.85L95.95 13.65H96.05H96.15H96.25L96.55 13.45L96.65 13.25V13.15V13.05L96.75 12.65H96.85L96.95 12.55H97.05H97.15H97.25H97.35H97.45H97.55V12.45H97.65H97.75H97.85L97.95 12.35H98.05H98.15H98.25H98.35L98.45 12.15L98.55 12.05L98.75 11.95H98.95L99.05 11.85H99.25H99.35L100.55 11.05L100.75 10.95L100.85 10.75L100.95 10.65L101.15 10.45L101.35 10.35H101.45L101.55 10.25L101.75 10.15L101.85 10.05H101.95L102.05 9.95001H102.15H102.25H102.35H102.45L102.65 9.85001H102.75L102.85 9.75H102.95L103.05 9.65001H103.15L103.35 9.55L103.45 9.45001H103.55L103.75 9.35001L103.85 9.25H104.05L104.15 9.15001H104.25H104.35V9.05H104.45H104.55L104.75 8.95001H104.95L105.15 8.85001H105.25H105.35H105.45H105.55H105.75L105.85 8.95001H105.95H106.05H106.15H106.25H106.75H106.95H107.05H107.15H107.35H107.45H107.65H107.75H108.05H108.15H108.25H108.45H108.55H108.65H108.75H108.85H108.95H109.05H109.15H109.25H109.35H109.45H109.55H109.65H109.75H109.85H109.95H110.05H110.15H110.25H110.35V9.05H110.45V9.15001H110.55L110.65 9.25H110.75H110.85L111.05 9.15001H111.15H111.25H111.35H111.45H111.55H111.65H111.85H111.95H112.05H112.15L112.25 9.05H112.35H112.45H112.55H112.65L112.75 8.95001H112.95H113.05L113.15 8.85001H113.25H113.45L113.65 8.75H113.75V8.65001V8.55V8.45001H113.65V8.35001V8.25H113.85H113.95H114.05H114.15L114.35 8.15001H114.45H114.55H114.65H114.75L114.85 8.05H114.95H115.05H115.15H115.25H115.35H115.45L115.55 8.15001H115.65L115.75 8.25L115.85 8.35001L115.95 8.45001L116.05 8.35001H116.15H116.25L116.35 8.25H116.45L116.55 8.15001H116.75L116.85 8.05L117.05 7.95001H117.25H117.35H117.45V7.85001H117.55H117.65V7.75H117.75L117.85 7.65001L118.05 7.55H118.15L118.35 7.35001H118.45V7.25H118.65L118.75 7.15001H118.85L118.95 7.05H119.05L119.15 6.95001H119.25L119.35 6.85001L119.55 6.75L119.65 6.65001V6.55L119.95 6.35001L120.05 6.25L120.25 6.15001L120.45 6.05L120.65 5.95001L120.75 5.85001L121.05 5.65001L121.35 5.45001L121.45 5.65001L121.55 5.55H121.65V5.45001L121.75 5.35001H121.85H121.95L122.05 5.25H122.15H122.25L122.35 5.15001H122.45L122.55 5.05H122.65L122.75 4.95001H122.85H122.95L123.05 4.85001H123.15L123.25 4.75L123.35 4.55H123.45L123.55 4.45001V4.35001L123.65 4.25V4.15001V4.05L123.75 3.95001V3.85001V3.75L123.85 3.65001V3.55V3.45001L123.95 3.35001V3.25V3.15001H124.05V3.05V2.95001V2.85001L124.15 2.75V2.65001H124.25L124.35 2.55L124.45 2.45001V2.35001H124.55V2.25H124.65H124.75L124.85 2.15001H124.95V2.05H125.05H125.15V1.95001H125.25H125.45H125.55H125.65H125.75H125.85H125.95H126.05H126.15H126.25H126.35V2.05H126.45L126.65 2.15001H126.75H126.85L126.95 2.25H127.05H127.25L127.35 2.35001H127.45H127.55H127.75L128.05 2.45001H128.25H128.35H128.45H128.55L128.65 2.35001H128.75H128.85H129.05H129.15L129.25 2.25H129.45H129.55L129.65 2.15001L129.75 2.05L129.85 1.95001L129.95 1.85001L130.05 1.75L130.15 1.65001V1.55L130.25 1.45001L130.35 1.35001H130.55L130.65 1.25H130.75L130.85 1.15001H131.05L131.15 1.05H131.25L131.55 0.850006H131.75L131.85 0.75H132.05V0.650009H132.15L132.25 0.550003L132.35 0.450012V0.350006L132.45 0.25H132.65H132.75H132.85V0.350006H132.95H133.15V0.450012L133.05 0.650009V0.75V0.850006V0.950012L132.95 1.05V1.15001V1.25H132.85V1.35001V1.45001V1.55V1.65001V1.75V1.85001V1.95001L132.95 2.05H132.85V2.15001L132.75 2.25V2.35001V2.45001H132.65H132.55H132.45H132.35H132.25H132.15H132.05L131.85 2.55V2.65001V2.85001V2.95001V3.05V3.15001V3.25V3.35001H131.95V3.45001V3.55L131.85 3.65001V3.75V3.85001V3.95001L131.95 4.05V4.15001V4.25V4.35001V4.45001V4.55V4.65001V4.85001V4.95001V5.05V5.25V5.55V5.65001V5.85001V6.05V6.25V6.35001V6.45001V6.55V6.65001H132.05V6.75H132.15V6.85001V6.95001V7.05V7.15001V7.25L132.25 7.35001V7.45001H132.35V7.55H132.45V7.65001L132.65 7.95001L132.85 8.25V8.35001H132.95L133.15 8.45001H133.25L133.45 8.55L133.75 8.65001H133.85L133.95 8.75V8.85001L134.05 9.05V9.15001L134.15 9.25L134.35 9.45001L134.45 9.55L134.65 9.85001V9.95001H134.75L134.95 10.05H135.05L135.35 10.15H135.45L135.65 10.25H135.75H135.85L135.95 10.35H136.05L136.25 10.45H136.45V10.55L136.55 10.65L136.65 10.75L136.75 10.95V11.05L136.85 11.25H136.95V11.35L137.05 11.45V11.55L137.15 11.65L137.25 11.85L137.35 12.05L137.55 12.35L137.65 12.15L137.75 12.05V11.95H137.85V11.85L137.95 11.75V11.65H138.05H138.15L138.25 11.55H138.35H138.45H138.55H138.75H138.95H139.15H139.25H139.45L139.75 11.65H139.85H139.95L140.05 11.75H140.15H140.25L140.35 11.85H140.45V11.95L140.55 12.15V12.35V12.55M140.55 12.55H140.65" stroke="white" stroke-width="0.5" stroke-linecap="round" stroke-linejoin="round"/>
</svg>
