<svg width="90" height="168" viewBox="0 0 90 168" fill="none" xmlns="http://www.w3.org/2000/svg">
<path d="M85.25 68.05H85.35V68.15H85.45L85.55 68.25H85.65H85.75H85.85L85.95 68.35H86.05H86.15H86.25V68.45H86.15L85.85 68.75L85.75 68.85L85.65 69.05H85.55V69.15L85.35 69.25L85.25 69.35V69.45L85.15 69.55H85.05L84.95 69.65L84.75 69.95V70.15L84.85 70.25V70.35L84.95 70.45V70.55H84.85L84.55 70.65H84.35H84.15H84.05L83.95 70.75H83.85L83.75 70.65H83.65V70.75H83.55H83.45H83.15L83.05 70.85H82.95H82.85H82.75L82.55 70.95H82.45L82.55 71.65V71.85V71.95V72.05H82.65V72.65V72.85V73.05V73.35L82.95 73.55L83.05 73.65L83.15 73.75L83.35 73.85H83.45L83.55 73.95L83.65 74.05L83.85 74.15L84.05 74.35L84.15 74.45L84.45 74.65L84.55 74.75L84.65 74.85H84.75V74.95H84.85L84.95 75.05H84.85V75.15H84.95V75.25V75.45V75.55V75.85V75.95V76.05V76.25V76.75V76.85V77.05V77.35L84.45 76.95L84.35 76.85L84.25 77.05V77.15L84.15 77.25V77.35V77.45H84.05V77.55V77.65V77.75H83.95V77.85V77.95V78.05V78.15L83.85 78.35L83.75 78.45L83.65 78.65L83.55 78.75H83.45H83.35H83.25H83.15H83.05L82.95 78.95V79.15V79.25V79.35L82.85 79.45H82.75V79.55L82.65 79.65H82.55L82.45 79.75L82.35 79.85V79.95V80.05V80.15H82.25V80.25V80.35V80.45V80.55V80.65H82.35H82.45H82.55V80.75H82.65V80.85H82.75H82.85V80.95H82.95L83.05 81.05L83.15 81.15V81.25H83.25L83.35 81.35L83.45 81.45H83.55V81.55H83.65H83.75V81.65L83.85 81.75V81.85L83.95 81.95V82.05L84.05 82.15V82.25L83.95 82.35L83.85 82.45H83.75V82.55V82.65H83.65V82.75V82.85V82.95V83.05H83.75V83.15H83.85H83.95V83.25V83.35L84.05 83.45V83.55V83.65V83.75V83.85V83.95H83.95H83.85L83.75 84.05L83.65 84.15V84.25H83.55L83.45 84.35V84.45H83.35V84.55L83.25 84.65H83.15H83.05V84.55H82.95H82.85L82.75 84.45V84.35V84.25H82.65V84.15L82.55 84.05V83.95H82.45H82.35V83.85H82.25V83.75H82.15H82.05L81.95 83.85H81.85V83.95H81.75H81.65H81.55V83.85H81.45V83.95L81.35 84.05V84.15V84.25V84.35V84.45V84.55V84.65H81.25V84.75V84.85L81.15 84.95V85.05V85.15V85.25V85.35H81.05V85.45V85.55H81.15V85.65V85.75V85.85V85.95V86.05V86.15V86.25H81.25V86.35V86.45L81.15 86.55H81.05V86.65H81.15V86.75H81.25V86.85H81.35H81.45H81.55H81.65H81.75H81.95H82.05H82.15H82.25H82.35H82.45H82.55L82.65 86.95L82.75 87.05H82.85H82.95L83.05 86.95H83.15H83.35H83.55L83.65 86.85H83.75V86.95H83.85V87.05L83.95 87.15V87.25H83.85H83.65H83.55V87.35L83.45 87.65L83.35 87.95L83.15 88.25L82.95 88.15H82.85L82.65 87.95H82.55L82.45 88.15V88.25V88.35V88.45L82.35 88.55V88.65L82.25 89.05V89.15H82.15L81.95 89.45L81.55 90.15L81.65 90.45L81.85 90.95L82.05 90.85H82.25L82.65 90.65L82.75 90.95L82.95 90.85L83.45 90.75L83.55 91.05L83.75 91.15L83.85 91.35L84.25 91.25L84.45 91.15L84.55 91.05H84.65V90.95H84.75V91.15L84.85 91.25L85.05 91.45V91.55H85.15V91.65H85.25V91.75L85.55 92.05L85.75 92.35L85.95 92.15H86.05V92.05H86.15L86.55 91.75L86.65 91.65H86.75V91.75H86.85V91.85L86.95 91.95L86.85 92.35V92.45L86.55 92.85L86.45 93.05L86.25 93.25L86.15 93.35H86.05V93.45V93.55H85.95V93.65V93.75V93.85V94.05L86.05 94.75H85.45V94.95H84.95V95.65H85.15L85.25 96.05L85.75 95.95L85.85 96.55H85.35H85.05H84.95V96.65V96.75V96.85L85.05 96.95V97.05V97.15V97.25V97.35L85.15 97.45L85.25 97.55H85.45L85.55 97.65L85.65 97.75L85.85 97.85H86.05H86.15H86.25V97.95L86.45 98.05V98.15H86.55L86.65 98.45L86.75 98.55L86.85 98.75V98.85H86.95V98.95V99.05H87.05V99.15V99.25H87.15V99.35L87.25 99.45V99.55L87.35 99.65H87.25L87.15 99.85L87.05 100.05L87.25 100.15V100.25V100.35V100.45H87.15V100.55L87.05 100.65V100.75L86.95 100.85V100.95V101.05H87.05V101.15L87.15 101.25L87.25 101.45L87.35 101.65L87.45 101.75V101.85V102.05L87.55 102.15V102.25V102.35L87.35 103.15V103.25L87.45 103.35V103.45H87.35H87.25V103.35L87.05 103.65V103.75L86.95 104.25L86.85 104.35V104.55L87.25 104.75V104.85V104.95V105.05V105.35H87.35L87.45 105.45L87.75 105.65L87.85 105.75L88.05 105.65V105.85V105.95V106.05L87.95 106.25H87.85H87.75L87.65 106.35H87.55H87.45H87.35V106.45H87.25V106.55L87.35 106.85L87.45 107.15V107.25V107.35L87.55 107.55L87.65 107.95V108.05L87.75 108.15H87.65V108.25L87.75 108.35V108.45H87.85H87.95H88.05H88.15H88.25H88.35L88.45 108.35L88.55 108.25L88.75 108.45L88.85 108.55V108.65H88.95V108.75H89.05L89.15 108.85V108.95V109.05V109.25V109.35L89.25 109.55V109.65V109.75V110.05V110.25L89.35 110.45V110.55L89.25 110.65H89.15H89.05H88.95L88.85 110.75H88.75V110.85H88.65V110.95L88.55 111.05V111.15V111.25H88.45H88.35L88.25 111.35H88.15H88.05H87.95H87.85L87.75 111.45V111.55H87.65H87.55V111.65H87.45H87.35V111.75H87.25H87.15H87.05L86.95 111.55V111.45V111.35H86.85V111.25H86.75V111.15H86.65H86.55L86.35 111.05H86.15H85.95H85.85H85.75V111.15H85.65L85.55 111.05V111.15H85.45V111.05V110.95V110.85L85.35 110.75V110.65V110.55V110.45H85.25V110.35H85.15H85.05V110.45H84.95V110.55H84.85H84.75H84.65H84.55V110.65V110.75H84.45V110.85V110.95V111.05V111.15H84.35V111.25L84.15 111.35L84.05 111.25L83.95 111.15L83.85 111.05L83.55 110.55L83.45 110.45V110.35V110.25H83.35H83.25H83.15V110.35V110.45L83.25 110.85L83.35 111.15V111.25L83.45 111.35L83.35 111.45V111.55V111.65H83.25V111.75L83.15 111.85L83.05 111.95L82.55 112.55V112.65L82.45 112.55L82.35 112.45H82.25L82.15 112.55V112.65H82.05L81.95 112.75L82.05 112.85V112.95H82.15H82.25V113.05V113.15L81.95 113.45L81.75 113.65H81.65V113.75L81.55 113.85H81.45V113.95H81.35L81.45 114.05V114.15V114.25L81.35 114.35V114.25V114.15H81.25V114.05H81.05L80.95 113.95H80.85H80.75H80.65L80.55 113.85H80.45V113.75H80.35V113.65H80.25L79.95 113.55L79.85 113.75L79.75 113.95V114.05H79.65L79.55 114.15L79.25 114.25H79.15L79.05 113.95V113.75H78.95V113.85H78.85L78.75 113.95L78.65 114.05L78.55 113.95V113.85H78.45V113.75L78.35 113.65L78.25 113.55L78.15 113.45L78.05 113.35L77.95 113.25H77.85V113.15H77.75L77.65 113.05H77.55V112.95H77.45V112.85H77.35H77.25V112.75H77.15L77.05 112.65V112.55H76.95L76.85 112.45V112.35L76.75 112.25L76.65 112.15H76.55H76.45L76.35 112.05H76.25L76.15 112.15L75.95 112.25H75.85L75.55 112.35H75.45H75.35L75.25 112.45H75.15H75.05H74.95H74.85H74.75H74.65H74.55H74.45H74.35V112.55H74.25V112.65V112.75H74.15L74.05 112.85V112.95H73.95V113.05V113.15H74.05V113.25V113.35V113.45V113.55V113.65V113.75V113.85H73.95V113.95V114.05H73.85L73.95 114.15V114.25H74.05V114.35H74.15V114.45V114.55L74.05 114.65L73.85 114.85L73.65 115.05L73.55 115.15L73.25 115.45L73.15 115.55H73.05H72.95H72.85H72.75V115.45H72.65L72.55 115.35L72.15 115.15L72.05 115.05H71.95L71.75 114.95L71.65 114.85L71.55 114.75V114.65H71.45V114.55H71.35V114.45L71.25 114.35L71.15 114.25L71.05 114.15H70.95V114.05H70.85L70.95 114.15V114.25V114.35L71.05 114.45V114.55V114.65V114.75V114.85V114.95H71.15V115.05V115.35L70.95 115.55H70.85H70.75H70.65V115.45H70.55H70.45V115.35V115.25H70.35L70.25 115.15H70.05H69.95V114.95L69.85 114.85H69.75H69.65V114.75L69.55 114.85V114.95V115.05V115.15H69.45H69.35V115.25H69.25H69.15L69.05 115.45L68.95 115.55H68.85L68.95 115.65L69.05 115.85L69.45 116.35V116.45H69.55L69.25 116.85L69.15 117.05L69.05 117.25L68.95 117.45V117.55H68.85V117.65H68.75V117.75H68.65L68.35 117.95L68.25 118.05H68.15L68.25 118.15V118.25L68.35 118.35V118.45L68.45 118.55L68.55 118.65L68.65 118.75H68.75L68.85 118.85L69.05 119.05H69.15V119.15H69.25V119.25L69.35 119.45V119.55H69.45V119.65V119.75L69.35 119.85H69.25V119.75H69.15H69.05H68.95L68.75 119.65L68.35 119.55H68.15H68.05L67.95 119.65L67.75 119.55H67.65H67.55L67.45 119.45H67.35H67.25V119.55H67.05H66.95H66.85H66.65H66.55H66.35H66.25H66.15H66.05V119.65V119.75H66.15V119.85L66.05 119.95H65.75H65.65H65.55V120.05V120.25V120.35V120.45V120.65V120.75V120.85L65.45 120.75H65.15H65.05H64.95V120.85V120.95L64.85 121.15V121.25V121.35V121.45H64.75V121.55V121.65V121.75H64.65V121.85V121.95V122.05L64.55 122.15V122.25V122.35V122.45H64.45V122.55V122.65L64.15 123.15L64.05 123.35L63.45 124.25H63.35V124.35H63.45V124.45L64.15 124.85L64.05 125.05L63.95 125.15V125.25V125.45V125.55V125.75H64.05V125.85V125.95L64.25 126.25V126.35V126.45H64.35V126.55L64.45 126.65L64.55 126.85H64.65V126.95H64.75L64.85 127.05H65.05L64.95 127.45V127.55L64.75 127.95L64.95 128.15L65.05 128.45L64.95 128.55L64.85 128.45L64.75 128.35V128.45V128.55V128.65H64.65H64.55V128.55H64.45H64.35L64.25 128.65L64.35 128.75V128.85V128.95H64.25V129.05V129.15L64.15 129.25L64.05 129.35H63.95V129.45H63.85V129.55L63.75 129.65L63.85 129.75L63.95 129.85V129.95V130.05H63.85V130.15H63.75L63.85 130.25V130.35H63.95H64.05V130.45H63.95V130.55H63.85L63.95 130.65H64.05L63.95 130.85V131.25V131.65V131.95L63.85 132.25V132.55L63.95 132.65L64.15 133.05L64.25 133.15V133.25H64.35L64.45 133.45L64.65 133.65L64.85 133.85L64.95 133.95V134.05V134.15V135.65L65.05 135.75V135.85V135.95L64.95 136.05V136.35L64.85 136.45V136.55V136.65H64.95V136.75V136.85L65.05 136.95V137.05V137.15V137.25V137.35L64.85 137.45V137.65L64.95 138.05L65.05 138.15V138.35V138.45V138.55V138.65V138.75L64.95 138.85V138.95H64.85L64.75 139.05V139.15V139.25V139.35V139.45V139.55H64.85V139.65H64.95V139.75H65.05V139.85V139.95H65.15V140.05V140.15V140.25L65.25 140.35H65.35V140.45H65.45H65.55V140.65L65.45 140.75V140.85H65.35H65.25V140.95V141.05H65.15H65.05L65.15 141.25L65.05 141.55L64.95 141.65V141.75L64.85 141.95L64.75 142.05L64.65 142.15H64.55L64.45 142.25H64.35V142.35H64.45V142.45H64.55L64.65 142.55V142.65V142.75H64.55V142.85H64.45H64.35L64.25 142.75H64.15H64.05L63.95 142.85H63.85H63.75V142.95H63.65V143.05H63.75V143.15V143.25V143.35V143.45V143.55V143.65L63.85 143.75V143.85H63.95L64.05 143.75H64.15V143.85V143.95H64.25V144.05L64.35 144.15V144.25L64.45 144.35V144.25H64.55V144.35V144.45H64.65H64.75V144.55L64.85 144.65V144.75V144.85H64.95L64.85 144.95V145.05H64.75H64.65V145.15L64.55 145.25L64.25 145.55L64.15 145.65V145.85L64.35 146.25V146.55L64.45 146.85L64.55 146.95L64.65 147.05L64.75 147.15V147.25L64.85 147.45L64.95 147.55V147.65V147.75V147.85V147.95L64.85 148.05V148.15V148.25H64.75V148.35L64.55 148.25L64.45 148.35L64.55 148.65V148.75V148.85V148.95H64.45L64.35 148.85H64.25H64.15V148.75L63.95 148.95V149.05H63.85V149.15V149.25H63.75V149.35H63.65V149.45V149.55V149.65V149.75V149.85V149.95H63.55V150.05V150.15V150.25L63.65 150.35V150.45V150.55H63.55V150.65H63.65V150.75V150.85L63.55 150.95V151.05L63.45 151.15V151.25V151.35L63.35 151.45L63.25 151.55L63.15 151.65V151.75V151.85V151.95V152.05L63.05 152.15V152.25H63.15L63.05 152.35V152.45V152.55V152.65H62.95V152.75V152.85V152.95L62.85 153.05V153.15V153.25H62.45H62.15H62.05H61.95L61.75 153.45L61.65 153.55V154.05V154.45L61.55 154.85L61.45 155.05L61.35 155.15L61.15 155.25L60.95 155.35L60.55 155.55L60.35 155.65H60.05L59.75 155.55L59.55 155.35L59.35 155.25V155.15L59.05 154.65L58.85 154.25L58.75 154.05L58.55 153.85L58.35 153.75L58.05 153.55H57.85L57.65 153.45L57.35 153.55L56.95 153.65L56.55 153.75L56.35 153.95L56.25 154.15L55.75 154.75V154.85L55.85 154.95L55.95 155.15H56.05L56.35 155.35H56.45L56.65 155.45L56.75 155.65L56.95 155.75L57.15 156.15L57.25 156.35L57.45 156.75V157.05L57.35 157.25V157.55L57.05 157.85L56.75 158.05L56.55 158.15L56.25 158.25H55.95H55.85H55.75V158.35H55.55H55.35L55.05 158.15L54.65 157.95L54.25 157.55L54.15 157.45L53.85 157.25L53.65 157.05L53.45 156.95L53.15 156.75L52.95 156.65H52.45L52.05 156.75L51.85 156.85L51.35 157.25L51.15 157.35L51.05 157.55L50.95 157.65L50.85 157.85L50.75 157.95L50.55 158.25L50.35 158.45L50.15 158.55L50.05 158.65L49.95 158.75L49.75 158.85H49.45L49.35 158.95H49.15H49.05L48.75 158.85L48.45 158.75L47.75 158.55L47.45 158.45L47.25 158.35L46.95 158.25H46.75L46.55 158.15H46.35H46.15H46.05H45.95L45.85 158.25L45.65 158.15H45.45L45.15 158.05H44.95L44.65 157.95H44.35L44.15 157.85L44.05 157.75H43.95L43.85 157.55L43.75 157.35V157.25L43.65 157.15V156.95L43.75 156.85V156.75L43.85 156.65V156.55V156.45H43.75H43.65H43.55H43.35L43.15 156.55L43.05 156.75L42.95 156.85L42.85 157.05L42.65 157.25L42.55 157.35L42.35 157.45H42.05H41.95H41.85H41.55L41.05 157.35H40.85H40.75L40.45 157.45L40.25 157.55L40.05 157.65L39.85 157.85L39.65 158.35L39.35 158.95L39.25 159.15L39.15 159.25V159.35L39.05 159.45H38.95V159.55L38.75 159.65H38.65L38.55 159.75L38.35 159.85L38.05 159.95H37.95H37.75L37.65 159.85H37.45L37.25 159.75L36.95 159.55H36.85L36.65 159.45V159.35H36.55L36.45 159.25L36.35 159.15L36.25 158.95L36.15 158.85H36.05V158.75H35.95L35.85 158.55L35.75 158.35L35.45 157.95L35.25 157.55L35.15 157.25L35.05 157.15L34.95 157.05V156.95V156.75V156.65V156.55V156.35L35.05 156.15L35.15 155.85V155.65L35.25 155.45L35.15 155.35V155.05L34.95 154.85L34.75 154.75H34.55H34.35H34.25L33.95 154.85L33.75 154.95L33.55 155.05L33.45 155.15L33.25 155.35L33.15 155.45L33.05 155.55L32.95 155.65V155.75L32.85 155.85V155.95V156.05V156.15V156.35V156.45L32.95 156.55V156.65L33.05 156.75L33.15 156.95L33.25 157.15L33.35 157.35L33.45 157.45L33.65 157.75V157.85V157.95V158.05V158.25V158.45L33.55 158.65L33.45 158.85L33.35 159.05L33.25 159.15L33.15 159.35L33.05 159.45L32.95 159.55H32.75H32.55L32.45 159.65L32.35 159.55H32.25H32.15H32.05V159.45H31.95L31.85 159.25L31.75 159.05V158.95L31.65 158.75V158.65V158.45V158.35L31.55 158.25V158.05V157.95L31.45 157.85V157.65L31.35 157.45V157.35V157.15L31.25 157.05L31.15 156.95L31.05 156.85L30.95 156.75H30.85V156.65H30.75L30.65 156.55H30.55H30.45H30.35H30.25H30.15H30.05H29.95V156.65L29.85 156.75V156.95V157.05V157.15L29.95 157.35L30.05 157.45L30.15 157.65H30.25L30.45 157.75L30.65 157.85V157.95L30.75 158.05L30.85 158.25L30.95 158.35V158.55V158.65L31.05 158.85V158.95V159.05V159.15V159.35L30.95 159.55V159.75V159.85V159.95L30.85 160.15L30.75 160.25L30.55 160.45L30.35 160.55L30.25 160.65L30.05 160.75H29.95H29.85H29.65H29.55L29.45 160.65H29.35H29.25L28.95 160.45L28.55 160.15L28.45 160.05L28.25 159.85L28.15 159.75L27.95 159.55L27.75 159.35L27.65 159.15L27.45 158.95L27.25 158.85L27.15 158.75L27.05 158.65L26.95 158.55H26.75H26.55L26.35 158.45H26.25H26.05H25.95H25.85L25.55 158.55L25.35 158.65L25.25 158.75L25.05 158.85L24.95 158.95L24.85 159.15L24.75 159.25V159.35V159.55V159.65V159.75V159.95L24.85 160.15L25.05 160.35H25.25H25.45L25.65 160.45L25.85 160.35L25.95 160.25H26.05H26.15L26.25 160.15H26.35L26.45 160.05H26.65H26.85L27.15 159.95L27.25 160.05H27.35H27.45L27.55 160.15L27.65 160.25L27.75 160.45V160.55V160.65V160.75V160.95L27.85 161.05V161.25L27.95 161.35L28.05 161.55L28.15 161.65L28.35 161.85H28.45V161.95L28.65 162.05L28.85 162.15L29.15 162.45L29.35 162.75L29.45 162.95L29.55 163.25V163.35V163.55V163.65L29.45 163.85L29.25 163.95L29.05 164.05V164.15H28.95H28.85L28.75 164.25H28.45H27.85H27.75H27.65H27.55H27.45H27.35H27.25H27.15L26.95 164.15L26.55 163.85L26.45 163.75L26.15 163.45L26.05 163.35L25.95 163.15L25.85 163.05L25.75 162.85H25.65V162.75H25.55L25.45 162.65L25.35 162.55H25.25H25.15L25.05 162.45H24.95L24.85 162.55H24.75H24.65L24.45 162.65L24.35 162.75L24.25 162.85L24.15 162.95V163.25V163.35H24.25V163.55V163.65H24.35V163.75V163.85L24.45 163.95V164.05L24.55 164.15L24.65 164.35V164.45L24.75 164.65L24.85 164.85V164.95L24.95 165.05V165.15V165.25L25.05 165.35V165.45L25.15 165.55V165.75V165.85V165.95L25.05 166.05L24.95 166.35L24.85 166.45L24.75 166.55L24.55 166.65L24.45 166.75H24.25L24.15 166.85H23.95H23.75H23.55H23.35H23.15H22.85L22.55 166.75H22.45L22.25 166.65H22.15L21.95 166.45L21.85 166.35L21.75 166.25L21.55 166.05L21.45 165.95L21.15 165.55V165.45L21.05 165.35L20.95 165.05L20.85 164.75L20.75 164.55L20.55 164.05H20.45L20.35 163.75L20.15 163.45L20.05 163.35L19.95 163.25V163.15H19.85V163.05L19.75 162.95V162.85L19.65 162.75V162.65L19.55 162.55L19.45 162.45V162.35H19.35V162.25L19.25 162.15V162.05L19.15 161.95V161.85L18.85 161.25L18.75 161.05V160.85L18.65 160.55L18.55 160.45V160.35L18.45 160.15L18.35 159.95L18.25 159.85L18.05 159.75L17.95 159.65H17.75H17.65H17.55H17.45H17.35H17.25H17.15L17.05 159.75H16.95L16.65 159.95H16.55L16.45 160.05L16.15 160.15H16.05H15.95V160.25V160.05L15.85 159.95V159.85V159.75L15.75 159.65H15.65L15.55 159.55H15.45H15.35H15.25H15.15L15.05 159.65L14.95 159.85L14.85 159.95H14.75V160.05H14.65H14.45H14.35H14.25L14.15 159.95V159.85H14.05V159.75H13.95V159.65L13.85 159.55L13.75 159.45V159.35L13.65 159.25V159.15V159.05H13.55V158.95V158.85H13.45V158.75H13.35V158.65L13.25 158.55H13.15V158.45H13.05V158.35H12.95V158.25H12.85H12.75H12.65L12.55 158.35H12.45V158.45V158.55H12.55V158.65H12.65V158.75V158.85V158.95V159.05V159.15V159.25V159.35V159.45L12.55 159.55V159.65L12.45 159.75V159.85H12.35H12.25V159.95H12.15H12.05H11.95H11.85L11.75 160.05V159.95L11.65 159.85V159.75V159.65L11.75 159.55H11.85V159.45L11.95 159.35H12.05V159.25V159.15V159.05V158.95V158.85L11.95 158.75V158.65H11.85V158.55H11.75H11.65H11.55H11.45H11.35H11.25H11.15V158.45H11.05H10.95L10.85 158.35H10.75V158.25H10.65V158.15L10.55 158.05V157.95V157.85V157.75H10.65V157.65V157.55H10.75L10.85 157.45H10.95V157.35H11.05H11.15L11.25 157.25H11.35H11.45V157.15H11.55V157.05H11.65V156.95H11.75V156.85V156.75V156.65V156.55V156.45H11.65V156.35L11.55 156.45H11.45H11.35V156.55H11.25V156.65H11.15H11.05H10.95H10.85L10.75 156.55V156.45H10.85V156.35V156.25V156.15H10.95V156.05L10.85 155.95V155.85V155.75H10.75H10.65V155.85H10.55H10.45H10.35V155.75H10.25L10.15 155.65H10.05H9.95001V155.55H9.85001L9.95001 155.45V155.35V155.25V155.15L10.05 155.05V154.95V154.85V154.75V154.65H9.95001H9.85001V154.55H9.75V154.45H9.64999V154.35H9.54999H9.45001H9.35001H9.25H9.14999H9.05V154.25L8.95 154.15H8.85001V154.05H8.75H8.64999H8.55V153.95L8.45 153.85H8.35001V153.75V153.65V153.55L8.45 153.45H8.55V153.35H8.64999V153.45H8.75V153.55H8.85001L8.95 153.65H9.05H9.14999H9.25H9.35001H9.45001H9.54999H9.64999V153.55H9.75L9.85001 153.45V153.35V153.25H9.95001L9.85001 153.15V153.05V152.95L9.75 152.85V152.75H9.64999V152.65H9.54999H9.45001L9.35001 152.75H9.14999H9.05V152.85H8.95H8.85001H8.75H8.64999H8.55H8.45H8.35001V152.75V152.65H8.25V152.55H8.14999L8.05 152.45L8.14999 152.35H8.25V152.25H8.35001V152.35L8.45 152.25H8.55L8.64999 152.15V152.05H8.75H8.85001L8.95 151.95V151.85H9.05L9.14999 151.75V151.65V151.55V151.45V151.35V151.25H9.05V151.15H8.95L8.85001 151.05V151.15H8.75H8.64999V151.25H8.55V151.35V151.45V151.55H8.45L8.35001 151.65L8.25 151.75H8.14999V151.85H8.05H7.95V151.75H7.85001V151.85V151.95H7.75H7.64999V151.85H7.55H7.45V151.95H7.35001L7.25 151.85L7.14999 151.75H7.05V151.65L7.14999 151.55H7.25L7.35001 151.45V151.35V151.25H7.45V151.15V151.05H7.55V150.95V150.85V150.75V150.65V150.55H7.64999V150.45H7.75V150.35V150.25V150.15H7.64999V150.05V149.95H7.55V149.85H7.45H7.35001H7.25H7.14999L7.05 149.95L6.95 150.05L6.85001 150.25H6.75L6.64999 150.35H6.55H6.45H6.35001H6.25H6.14999H6.05L5.95 150.25V150.15H5.85001V150.05V149.95V149.85H5.75V149.75V149.65V149.55V149.45H5.85001V149.35H5.95V149.25V149.15H5.85001H5.75V149.25H5.64999H5.55V149.35H5.45H5.35001V149.25H5.25H5.14999H5.05H4.95V149.15H4.85001L4.75 149.05V148.95L4.64999 148.85V148.75V148.65V148.55H4.75V148.45H4.85001H4.95H5.05H5.14999H5.25H5.35001H5.45V148.35V148.25H5.55V148.15V148.05V147.95V147.85H5.45H5.35001H5.25V147.75V147.65H5.35001V147.55H5.25V147.45H5.14999V147.35V147.25V147.15L5.25 147.05V146.95V146.85H5.35001V146.75L5.45 146.65L5.55 146.55L5.64999 146.45V146.35V146.25L5.55 146.05L5.45 145.85V145.75V145.65L5.55 145.55H5.64999V145.45H5.75L5.85001 145.35V145.25V145.15V145.05V144.95V144.85H5.75V144.75H5.64999H5.55L5.45 144.65H5.35001V144.55V144.45H5.25L5.14999 144.35H5.05L4.95 144.25H4.85001V144.15V144.05V143.95V143.85V143.75H4.95V143.65H5.05V143.75H5.14999V143.85V143.95H5.25V144.05H5.35001L5.45 144.15H5.55H5.64999H5.75V144.05H5.85001V143.95V143.85H5.95V143.75V143.65V143.55H5.85001H5.75H5.64999L5.55 143.45H5.45L5.35001 143.35H5.25V143.25H5.14999V143.15V143.05L5.25 142.95H5.35001V142.85L5.45 142.75V142.65H5.55V142.55V142.45V142.35H5.64999L5.55 142.25V142.15V142.05L5.45 141.95V141.85H5.35001H5.25V141.75H5.14999V141.85H5.05H4.95L4.85001 141.75V141.85H4.75H4.64999H4.55H4.45V141.75H4.35001V141.65H4.25V141.55V141.45V141.35V141.25V141.15H4.14999V141.05V140.95V140.85L4.05 140.75V140.65V140.55V140.45H4.14999V140.35V140.25V140.15H4.25H4.35001H4.45H4.55V140.25V140.35V140.45V140.55V140.65V140.75L4.64999 140.85H4.75H4.85001H4.95V140.95H5.05H5.14999H5.25V141.05H5.35001V140.95H5.45V140.85V140.75V140.65V140.55H5.35001V140.45V140.35H5.25V140.25V140.15H5.14999V140.05H5.05V139.95H5.14999V139.85L5.05 139.75V139.65H4.95H4.85001V139.55V139.45V139.35H4.95V139.25V139.15H5.05H5.14999L5.25 139.25H5.35001V139.15H5.45L5.55 139.25L5.64999 139.35V139.45V139.55H5.75H5.85001L5.95 139.65H6.05H6.14999H6.25H6.35001V139.55V139.45H6.45V139.35V139.25H6.55V139.15H6.64999V139.05H6.55V138.95V138.85V138.75V138.65H6.45L6.35001 138.55H6.25H6.14999H6.05L5.85001 138.65V138.75L5.75 138.85H5.64999V138.95H5.55H5.45V138.85H5.35001V138.75V138.65V138.55V138.45V138.35V138.25L5.25 138.15V138.05H5.14999V137.95H5.05H4.95V137.85H4.85001H4.75V137.75H4.64999V137.65V137.55H4.55V137.45L4.64999 137.35V137.25L4.75 137.15V137.05V136.95V136.85V136.75V136.65V136.55H4.64999V136.45H4.55V136.35V136.25H4.45H4.35001H4.25H4.14999L3.95 136.15L3.85001 136.05H3.75V135.95V135.85H3.64999V135.75V135.65V135.55H3.75V135.45H3.85001H3.95H4.05H4.14999V135.35H4.25V135.25V135.15V135.05V134.95H4.14999V134.85L4.05 134.75V134.65H3.95V134.55V134.45H4.05V134.35H4.14999V134.25V134.15H4.25V134.25L4.35001 134.15V134.05V133.95H4.25V133.85L4.14999 133.75V133.65V133.55H4.05V133.45H3.95V133.35V133.25V133.15V133.05H3.85001V132.95V132.85L3.95 132.75V132.65H4.05H4.14999H4.25V132.55H4.35001H4.45H4.55V132.45H4.64999V132.35H4.75H4.85001V132.25H4.95V132.15V132.05V131.95H4.85001V131.85V131.75L4.75 131.65H4.64999L4.55 131.55H4.45H4.35001H4.25H4.14999V131.65L4.05 131.75V131.85L3.95 131.95V132.05L3.85001 132.15L3.75 132.25H3.64999V132.35H3.55H3.45V132.25H3.35001L3.25 132.15V132.05H3.14999V131.95H3.05L2.95 131.85V131.75L2.85001 131.65V131.55H2.95V131.45H2.85001V131.35V131.25H2.95H3.05H3.14999H3.25H3.35001H3.45H3.55V131.15V131.05H3.64999V130.95H3.55V130.85H3.45V130.75V130.65H3.35001V130.55V130.45V130.35V130.25V130.15V130.05V129.95H3.45V129.85V129.75H3.55V129.65H3.64999V129.55L3.75 129.45V129.35V129.25H3.85001V129.15V129.05H3.95V128.95V128.85H4.05V128.75V128.65V128.55V128.45V128.35V128.25V128.15H3.95V128.05H3.85001H3.75V127.95H3.64999H3.55L3.45 127.85H3.35001H3.25V127.75H3.14999H3.05V127.65H2.95H2.85001H2.75V127.55H2.64999V127.45H2.55V127.35V127.25H2.45V127.15H2.55V127.05H2.45L2.55 126.95V126.85V126.75H2.64999H2.75V126.65V126.55H2.85001H2.95V126.65H3.05H3.14999L3.25 126.75H3.35001V126.85H3.45H3.55H3.64999H3.75V126.75H3.85001L3.95 126.65H4.05V126.55V126.45H4.14999V126.35H4.25V126.25V126.15V126.05L4.14999 125.95V125.85H4.05H3.95V125.75H3.85001H3.75V125.85H3.64999H3.55H3.45H3.35001H3.25H3.14999H3.05H2.95V125.75H2.85001H2.75V125.65L2.64999 125.55L2.55 125.45V125.35H2.45V125.25V125.15H2.55V125.05L2.64999 124.95V124.85H2.75L2.85001 124.75H2.95H3.05H3.14999V124.65H3.25H3.35001H3.45V124.75H3.35001V124.85H3.45H3.55H3.64999H3.75L3.85001 124.95L3.95 124.85H4.05V124.95H4.14999H4.25V124.85H4.35001L4.45 124.75H4.35001V124.65V124.55H4.45V124.45V124.35V124.25V124.15V124.05V123.95H4.35001V123.85H4.25H4.14999V123.75H4.05H3.95V123.65H3.85001V123.55V123.45H3.75V123.35H3.64999V123.25L3.55 123.15V123.05V122.95V122.85H3.64999V122.75H3.55V122.65H3.64999H3.75H3.85001H3.95L4.05 122.55V122.45V122.35V122.25V122.15V122.05H3.95V121.95H3.85001L3.75 121.85L3.55 121.65L3.45 121.55L3.35001 121.45L3.14999 121.25L3.05 121.15L2.95 121.05V120.95L2.85001 120.85V120.75V120.65V120.55V120.45V120.35L2.95 120.25V120.15H3.05L3.14999 120.05L3.35001 119.95H3.45V119.85H3.55H3.64999H3.75H3.85001L3.95 119.75H4.05L4.14999 119.65L4.25 119.55H4.35001V119.45H4.45V119.35V119.25H4.35001H4.25H4.14999H4.05H3.95H3.85001L3.75 119.35H3.64999L3.55 119.25H3.45H3.35001V119.15H3.25V119.05V118.95L3.35001 118.85V118.75L3.45 118.65H3.55V118.55V118.45V118.35V118.25H3.45V118.15H3.55V118.05H3.45V117.95H3.55H3.64999V117.85H3.55V117.75H3.64999V117.65V117.55H3.75H3.85001V117.45V117.35V117.25V117.15V117.05V116.95V116.85V116.75V116.65V116.55V116.45V116.35V116.25V116.15H3.75V116.05L3.64999 116.15V116.05V115.95V115.85V115.75V115.65V115.55H3.55V115.45H3.64999L3.55 115.35V115.25L3.45 115.15V115.05V114.95H3.55H3.64999V114.85H3.75L3.85001 114.75V114.65L3.95 114.75V114.65H3.85001V114.55H3.75L3.64999 114.45H3.55H3.45H3.35001V114.35V114.25H3.45V114.15V114.05V113.95H3.55V113.85V113.75V113.65V113.55H3.45V113.45V113.35H3.35001V113.25H3.25V113.15V113.05V112.95H3.14999V112.85V112.75V112.65H3.25V112.55V112.45H3.35001V112.35H3.45H3.55V112.45V112.55H3.64999V112.65H3.75V112.75H3.85001V112.65H3.95H4.05V112.55H4.14999V112.45V112.35V112.25H4.05V112.15H4.14999V112.05H4.05V111.95H3.95H3.85001V111.85H3.75H3.64999H3.55H3.45V111.75H3.35001H3.25H3.14999V111.65H3.05V111.55H3.14999V111.45H3.25V111.35H3.35001V111.25V111.15H3.45V111.05V110.95V110.85V110.75H3.35001V110.65H3.25V110.55H3.14999V110.45V110.35H3.05V110.25H2.95V110.15L2.85001 110.05V109.95V109.85V109.75V109.65V109.55V109.45H2.95V109.35L3.05 109.25V109.15L3.14999 109.05V108.95V108.85H3.25V108.75H3.35001V108.65V108.55H3.45V108.45V108.35H3.35001V108.25H3.25V108.15V108.05H3.14999V107.95H3.25V107.85H3.35001L3.45 107.95H3.55H3.64999H3.75V107.85V107.75H3.85001V107.65H3.75V107.55H3.64999V107.45L3.55 107.35H3.64999V107.25H3.75V107.15H3.85001H3.95V107.05H4.05V106.95H3.95V106.85H3.85001L3.75 106.75V106.65V106.55V106.45H3.64999V106.35V106.25H3.75V106.15V106.05H3.85001V105.95H3.95H4.05H4.14999H4.25H4.35001L4.45 106.05H4.55V105.95H4.64999H4.75H4.85001H4.95H5.05H5.14999H5.25L5.35001 106.05H5.45H5.55H5.64999V106.15H5.75V106.25H5.85001V106.15V106.05H5.95V105.95V105.85L6.05 105.75H5.95V105.65V105.55H5.85001V105.45L5.75 105.35V105.25H5.85001L5.95 105.15V105.05H6.05V105.15L6.14999 105.05H6.25V104.95L6.35001 104.85H6.45V104.75H6.55V104.65V104.55V104.45L6.45 104.35H6.35001V104.25H6.25V104.15H6.14999H6.05V104.05H5.95V103.95H5.85001V103.85H5.75V103.75V103.65V103.55V103.45H5.85001H5.95H6.05H6.14999V103.55H6.25H6.35001V103.65H6.45V103.55H6.55V103.45V103.35H6.45L6.35001 103.25V103.15H6.25V103.05H6.14999V102.95V102.85V102.75H6.25H6.35001H6.45V102.65H6.55H6.64999V102.55V102.45H6.55V102.35L6.45 102.25H6.35001V102.15H6.25V102.05H6.14999V101.95H6.05V101.85L5.95 101.75V101.65H6.05V101.55H6.14999V101.45V101.35L6.25 101.25V101.15V101.05V100.95L6.05 100.75L5.95 100.65L5.85001 100.45H5.75L5.55 100.35L5.45 100.15H5.35001L5.25 100.05L5.14999 99.95L5.05 99.85L4.95 99.75V99.65V99.55V99.45V98.85V98.45V98.35H5.05V98.25V98.15V98.05V97.95H5.14999V97.85H5.25H5.35001H5.45V97.95V98.05H5.55V98.15H5.64999V98.25H5.75H5.85001V98.15V98.05V97.95V97.85V97.75V97.65V97.55H5.75V97.45H5.64999H5.55H5.45H5.35001L5.25 97.35V97.25H5.35001V97.15H5.45V97.05H5.55V96.95L5.64999 96.85V96.75L5.75 96.65L5.85001 96.55V96.45H5.95V96.35H5.85001H5.75L5.64999 96.25H5.55H5.45L5.35001 96.15H5.25L5.14999 96.05H5.05L4.95 95.95H4.85001H4.75V95.85H4.64999V95.75V95.65H4.75H4.85001L4.95 95.55L5.05 95.45L5.14999 95.35V95.25V95.15H5.05V95.05H5.14999V94.95V94.85H5.25V94.75V94.65V94.55V94.45V94.35V94.25H5.35001V94.15H5.45V94.05V93.95H5.35001H5.25V93.85H5.14999H5.05L4.95 93.75V93.65H4.85001L4.95 93.55H5.05V93.45H5.14999L5.05 93.35L4.95 93.25V93.15L4.85001 93.25H4.75V93.15L4.55 92.95L4.45 92.75V92.65H4.35001L4.14999 92.75L4.05 92.65L3.95 92.55L3.85001 92.45H3.75V92.35L3.64999 92.25L3.55 92.15L3.45 92.05L3.35001 91.85V91.75L3.25 91.65V91.55H3.35001V91.45H3.25L3.55 91.15H3.64999V91.05L3.75 90.95V90.85V90.75H3.64999V90.65L3.45 90.55V90.45L3.35001 90.35V90.25V90.15H3.25V90.05L3.14999 89.95V89.85H3.05V89.75H3.14999V89.65V89.45V89.35V89.25V89.15V89.05V88.95V88.85V88.75V88.65V88.55V88.45V88.35V88.25L3.05 88.15V88.05V87.95V87.85V87.75V87.65H2.95L2.85001 87.55L2.75 87.45V87.35H2.64999V87.25H2.55L2.45 87.15H2.35001V87.05H2.25H2.14999V86.95H2.05H1.95V86.85V86.75H1.85001V86.65L1.75 86.55L1.64999 86.45L1.55 86.35V86.25H1.45V86.15L1.35001 86.05H1.25V85.95V85.85V85.75H1.14999H1.05V85.65H0.949997H0.850006H0.75V85.55V85.45L0.850006 85.35V85.25L0.949997 85.15L1.05 85.05H1.14999V84.95H1.25V84.85H1.35001L1.45 84.75L1.55 84.65V84.55H1.45V84.45L1.55 84.35V84.15V84.05V83.95V83.85V83.75H1.64999V83.65L1.85001 83.45H1.95V83.35L2.05 83.25V83.15H2.14999V83.05L2.25 82.95V82.85V82.75L2.35001 82.65V82.55V82.45H2.45H2.55V82.35H2.64999H2.75H2.85001V82.25H2.95H3.05V82.15V82.05V81.95H3.14999V81.85H3.25V81.95H3.35001H3.45H3.55H3.64999L3.75 82.05V82.15V82.25H3.64999V82.35V82.45H3.75V82.55V82.65H3.85001H3.95H4.05H4.14999V82.55H4.25H4.35001V82.45H4.45V82.35H4.55H4.64999V82.25V82.15V82.05H4.55V81.95H4.45V81.85V81.75V81.65V81.55H4.35001V81.45V81.35V81.25V81.15L4.45 81.05V80.95H4.35001V80.85V80.75V80.65H4.25V80.55L4.14999 80.45L4.05 80.35V80.25V80.15V80.05V79.95H4.14999V79.85H4.25H4.35001V79.75V79.65V79.55V79.45V79.35V79.25V79.15L4.25 79.05L4.14999 78.95H4.05V78.85L3.95 78.75V78.65V78.55H3.85001V78.45H3.75V78.35V78.25V78.15H3.64999V78.05V77.95V77.85V77.75H3.75H3.85001H3.95H4.05V77.65H4.14999V77.55V77.45H4.25V77.35H4.35001V77.25H4.45V77.15V77.05V76.95H4.55L4.64999 76.85H4.75V76.75H4.85001V76.65H4.95V76.55V76.45H5.05V76.35V76.25H5.14999V76.15V76.05V75.95V75.85V75.75L5.25 75.65H5.35001H5.45V75.55H5.55H5.64999H5.75V75.65H5.85001L5.95 75.75H6.05L6.14999 75.85H6.25L6.35001 75.95H6.45V75.85L6.55 75.75L6.64999 75.65H6.75L6.85001 75.55V75.45V75.35H6.95V75.25V75.15L6.85001 74.95V74.85L6.75 74.75V74.65L6.64999 74.55V74.45V74.35L6.75 74.25H6.85001H6.95H7.05H7.14999V74.15H7.25L7.35001 74.05L7.25 73.95V73.85L7.14999 73.75V73.65V73.55V73.45V73.35V73.25V73.15L7.05 73.05V72.95H6.95V72.85L6.85001 72.75H6.75L6.64999 72.65H6.55V72.55L6.45 72.45L6.35001 72.35L6.25 72.25V72.15H6.14999V72.05H6.05V71.85L5.95 71.75V71.65L5.85001 71.35L5.75 71.25V71.15H5.64999L5.45 71.05L5.35001 70.95H5.25H5.14999L5.05 70.85L4.95 70.75L4.85001 70.65V70.55V70.45H4.75H4.64999V70.35H4.55L4.45 70.25H4.35001H4.25L4.14999 70.15H4.05L3.95 70.05H3.85001H3.75H3.64999H3.55L3.45 69.95H3.35001L3.25 69.85V69.75V69.65H3.14999L3.25 69.55H3.35001V69.45H3.45V69.35L3.55 69.25V69.15H3.64999V69.05L3.75 68.95V68.85H3.85001V68.75V68.65H3.95L4.05 68.55L4.14999 68.45L4.25 68.35V68.25L4.35001 68.15V68.05V67.95H4.45V67.85H4.55H4.64999H4.75L4.85001 67.75H4.95H5.05V67.65H5.14999H5.25V67.55H5.35001L5.55 67.35L5.64999 67.25H5.75L5.85001 67.15V67.05L5.75 66.95V66.85V66.75V66.65V66.55V66.45V66.35V66.25V66.15V66.05L5.64999 65.95V65.85L5.55 65.75V65.65V65.55V65.45V65.35L5.45 65.25V65.15V65.05H5.55H5.64999V64.95V64.85H5.75L5.64999 64.75H5.55H5.35001L5.25 64.65H5.14999H5.05V64.55H4.95V64.45H4.85001V64.35V64.25V64.15L5.05 63.65V63.55V63.45H4.95V63.35L4.85001 63.25V63.15H4.75H4.64999V63.05H4.55V62.95V62.85V62.75V62.65H4.64999V62.55L4.55 62.45V62.35H4.45V62.25V62.15H4.35001V62.05H4.25H4.14999V61.95V61.85H4.05V61.75V61.65V61.55V61.45V61.35V61.25H3.95H3.85001H3.75H3.64999H3.55V61.15V61.05L3.45 60.95V60.85H3.35001V60.75L3.25 60.65H3.14999V60.55V60.45V60.35V60.25L3.05 60.15H2.95V60.05H2.85001V59.95L2.95 59.85V59.75H2.85001V59.65V59.55V59.45L2.95 59.35V59.25H2.85001H2.75H2.64999H2.55V59.15V59.05H2.64999V58.95H2.75L2.95 58.65L3.05 58.55L3.14999 58.45V58.35H3.25V58.25L3.35001 58.15V58.05L3.55 57.95L3.64999 57.75V57.65H3.55L3.45 57.45V57.35H3.35001L3.25 57.25H3.14999L3.05 57.15H2.95V57.05H2.85001H2.75H2.64999H2.55H2.45V56.95H2.35001H2.25V56.85H2.14999V56.75H2.05H1.95V56.65L1.85001 56.55H1.75V56.45V56.35V56.25V56.15V56.05V55.95L1.55 55.85V55.75H1.45H1.35001H1.25V55.65L1.14999 55.55L0.850006 55.45H0.75H0.550003L0.350006 55.35L0.25 55.25V55.15V54.95V54.75L0.350006 54.65V54.55L0.449997 54.45V54.35H0.550003V54.25V54.15V54.05H0.649994V53.95H0.75L0.850006 53.85H1.05V53.75H1.14999L1.25 53.65H1.35001V53.55H1.45H1.55L1.64999 53.45L1.75 53.35H1.85001H1.95L1.85001 53.15L1.64999 52.85L1.55 52.55L1.45 52.45V52.25L1.35001 51.75H1.25V51.65L1.14999 51.15V51.05L0.949997 50.65L0.850006 50.35V50.25L0.949997 50.15L1.05 50.05V49.95V49.85V49.75V49.65V49.25V49.15L1.14999 49.05H1.25H1.35001V48.95V48.85V48.75L1.45 48.65V48.55L1.55 48.45H1.64999H1.75H1.85001L1.95 48.35H2.05V48.25H2.14999L2.05 48.05V47.95H2.14999V47.85V47.75H2.25H2.35001H2.45H2.55L2.64999 47.85H2.75H2.85001H2.95H3.05H3.14999H3.25H3.45H3.55H3.64999H3.75V47.75V47.65V47.55H3.85001V47.45V47.35V47.15V47.05V46.95L3.95 46.85V46.65L4.05 46.55V46.45V46.35V46.25L4.14999 46.15V46.05V45.95H4.05H3.95H3.85001L3.95 45.75H3.85001H3.75H3.64999V45.65H3.55H3.45H3.35001H3.25H3.14999H3.05V45.55H2.95V45.45H2.85001H2.75L2.64999 45.35H2.55V45.45L2.45 45.35V45.25L2.55 45.15H2.64999V45.05H2.75H2.85001V44.95H2.95L3.05 44.85H3.14999V44.75H3.25V44.65H3.35001L3.45 44.55L3.55 44.45H3.64999V44.35H3.75H3.85001H3.95H4.05H4.14999H4.25H4.35001H4.45L4.55 44.15V44.05V43.85V43.75V43.65H4.64999H4.85001H4.95V43.55H5.05V43.45H4.95V43.35V43.25H4.85001L4.95 43.15V43.05H4.85001V42.95H4.75V42.85V42.65V42.55H4.64999V42.45H4.55V42.35H4.45L4.35001 42.25L4.25 42.15H3.95L3.75 42.05V41.95V41.75L3.95 41.25L3.64999 41.05V40.95L3.75 40.75V40.65V40.55L3.85001 40.45V40.35V40.25V40.15V40.05V39.95H3.75V39.85V39.75V39.65H3.64999V39.55H3.75H3.95L4.14999 39.45H4.55H4.64999H4.75L4.95 39.35H5.05H5.35001H5.45H5.55H5.64999L5.85001 39.25H6.05H6.14999H6.25H6.35001H6.64999H6.75H6.85001L7.35001 39.15V38.95V38.85V38.75V38.65V38.55V38.35L7.14999 38.25L7.05 38.15L6.95 38.05H6.85001V37.95L6.55 37.75L6.45 37.65L6.35001 37.55L6.25 37.45L6.05 37.35L5.95 37.25L5.85001 37.15H5.75L5.64999 37.05L5.45 36.95V36.85V36.75L5.55 36.65L5.85001 35.95H5.75L5.64999 35.85H5.55H5.45L5.35001 35.95H5.25V36.05H5.14999H5.05H4.95H4.85001V35.95V35.85V35.75H4.75L4.64999 35.65H4.55V35.55H4.45V35.45H4.35001V35.35H4.25V35.25H4.14999V35.15H4.05V35.05V34.95H4.14999L4.55 34.85V34.75L4.45 34.65V34.55V34.45H4.55V34.35H4.64999L4.75 34.25L4.64999 34.15L4.55 34.05L4.45 33.85L4.35001 33.75V33.65H4.25V33.55V33.45L4.35001 33.35L4.55 33.25H4.64999V33.15H4.75V33.25H4.85001V33.35H4.95V33.45V33.55H5.05V33.65L5.14999 33.75V33.65H5.25H5.35001H5.45H5.55H5.64999L5.75 33.55H5.85001H5.95V33.45V33.35H6.05H6.14999V33.25H6.25V33.15H6.35001H6.45H6.55V33.05H6.64999H6.75V33.15H6.85001V33.25H6.95H7.05H7.14999H7.25V33.15H7.35001V33.05H7.45V32.95H7.55L7.64999 32.85H7.75V32.95H7.85001H7.95H8.05H8.14999V32.85V32.75V32.65V32.55H8.25V32.45H8.35001L8.45 32.35V32.25V32.15H8.55V32.05H8.64999L8.75 31.95V31.85V31.75H8.85001L8.95 31.65V31.55V31.45V31.35V31.25H8.85001V31.15H8.75V31.05H8.85001V30.95V30.85H8.95V30.75V30.65V30.55V30.45H9.05H9.14999V30.35H9.25H9.35001V30.25H9.45001V30.15V30.05V29.95H9.54999H9.64999V29.85V29.75H9.75V29.65H9.85001V29.55H9.95001V29.45V29.35L9.85001 29.25V29.15H9.95001V29.05H10.05H10.15V28.95H10.25V28.85H10.35V28.75H10.45H10.55H10.65V28.65H10.75H10.85V28.55V28.45H10.95H11.05H11.15H11.25V28.35V28.25H11.35V28.15H11.45V28.05H11.55V27.95H11.65L11.75 27.85V27.75V27.65V27.55V27.45H11.85H11.95V27.35H12.05H12.15H12.25H12.35V27.45H12.45V27.35H12.55V27.45H12.65V27.35H12.75H12.85V27.25V27.15H12.95V27.05H12.85V26.95H12.95V26.85H12.85V26.75H12.95H13.05H13.15V26.65V26.55H13.25H13.35H13.45V26.45H13.55V26.35H13.65V26.45H13.75H13.85V26.55H13.95V26.45H14.05L13.95 26.55H14.05H14.15H14.25H14.35V26.65H14.45V26.55H14.55V26.65H14.65V26.75H14.75V26.65H14.85H14.95H15.05V26.55H15.15V26.65V26.75H15.25H15.35H15.45V26.65H15.55V26.75H15.65H15.75H15.85V26.65V26.55H15.95H16.05V26.45H16.15V26.55H16.25V26.45H16.35H16.45L16.55 26.55H16.45V26.65H16.35V26.75H16.55H16.75H16.95H17.15H17.25H17.35L17.45 26.65L17.55 26.55L17.65 26.45L17.75 26.35H17.95H18.25L18.45 26.45V26.55H18.65H18.75L18.95 26.65H19.05L19.15 26.45L18.45 26.15L18.55 26.05L18.65 25.95L18.75 25.85L18.65 25.75L18.55 25.65L18.45 25.55V25.45H18.55L18.45 25.35V25.25V25.15L18.55 25.05L18.65 24.95H18.75H18.85V25.05H18.95V24.95L19.05 24.85H19.15L19.25 24.95L19.45 25.15L19.55 25.05V24.95V24.85L19.45 24.75H19.35L19.25 24.65V24.55V24.45L19.35 24.35L19.55 24.45V24.35V24.05V23.95L19.65 23.85H19.75H19.85L19.95 23.75V23.65V23.45L19.85 23.35L19.75 23.25L20.15 22.75L20.25 22.85L20.45 23.15L20.75 23.05H20.85H21.25L21.05 22.45L20.95 22.15L21.15 22.25H21.35H21.55H21.75H21.85L21.95 22.05V21.95V21.85H21.85L21.75 21.75L21.45 21.25H21.55L21.65 21.15H21.75L22.35 20.85L22.65 20.75L22.75 20.65L23.05 20.45H23.15V20.35L23.25 20.25V20.15V20.05V19.95V19.85V19.75H23.35V19.65V19.55H23.45V19.45L23.55 19.35V19.15L23.65 19.05L23.95 18.25L24.05 18.15H24.15H24.25L24.55 18.05H24.65H24.75L24.95 17.95V18.05H25.05H25.15H25.25V18.15H25.35H25.45V18.25H25.55L25.95 18.35L26.25 18.55V18.45V18.35H26.35V18.25V18.15V18.05L26.45 17.95V17.85V17.75V17.65L26.55 17.55V17.45V17.35L26.65 17.25V17.15V16.95L26.75 16.85V16.75V16.65V16.55L26.85 16.45V16.35H26.95H27.05V16.45H27.15H27.25H27.35H27.45H27.55H27.65H27.75V16.55H27.85H27.95L28.05 16.45V16.35V16.25V16.05L28.15 15.85V15.75V15.65V15.55L28.25 15.35V15.25V15.15V15.05L28.35 14.95V14.85V14.65V14.55V14.45H28.45V14.15H28.65H28.75V14.25H28.85H28.95H29.05L29.25 14.35H29.45H29.55V14.25V14.15V14.05V13.95L29.65 13.85V13.75V13.65V13.55V13.35V13.25V13.05V12.95V12.65V12.45V12.35L29.75 12.15H29.85H29.95L30.05 12.25H30.15H30.25H30.35H30.65H30.75V11.75L30.85 11.65V11.55H30.75V11.45L30.65 11.35H30.55L30.45 11.25H30.35V11.15H30.25L30.35 11.05V10.85H30.45L30.65 10.75V10.65V10.55V10.45V10.35V10.25V10.15V10.05H30.75L30.65 9.95V9.84999V9.75V9.64999V9.54999H30.85V9.45H31.15V9.54999V9.64999L31.25 9.75V9.84999V9.95V10.05L31.15 10.15V10.25V10.35L31.05 10.45V10.55V10.65H30.95V10.85H31.15L31.45 10.75H31.65L31.85 10.65V10.75H31.95L32.15 10.85V10.65L32.25 10.55V10.45V10.35H32.35V10.45L32.45 10.55V10.65H32.55V10.55L32.65 10.45V10.35L32.75 10.45H32.85H32.95H33.05H33.15V10.35H33.25V10.15V10.05V9.95H33.35V9.75H33.15L32.95 9.84999H32.85H32.75H32.65V10.05H32.55L32.05 10.15H31.95V10.05V9.75V9.64999H32.05L32.25 9.54999H32.35L32.25 9.04999L32.35 8.95L32.25 8.84999L32.35 8.75L32.15 8.64999L32.25 8.54999V8.45H32.45V8.54999H32.65H32.75L32.85 8.34999L32.95 8.25V8.14999V8.04999V7.95L32.85 7.84999H32.75L32.85 7.75V7.64999H32.95H33.05H33.15L33.25 7.54999H33.35H33.45H33.55H33.65H33.75L33.85 7.64999H33.95H34.05H34.15H34.25H34.35V7.54999H34.45H34.65H34.75H34.85V7.45V7.25L34.95 7.14999V7.04999L34.85 6.84999V6.64999L34.95 6.54999L35.05 6.25L35.25 6.14999V6.04999V5.95H35.35H35.45H35.65V6.04999L35.75 6.25L35.85 6.54999L36.05 6.64999L36.15 6.75H36.25L36.45 6.95L36.65 7.04999H36.75L36.95 6.64999V6.54999L37.15 6.45V6.34999H37.25L37.55 6.14999L37.65 6.04999L37.75 5.75V5.54999L37.85 5.34999L37.95 5.25V5.14999V5.04999H38.05V4.95H38.15V4.84999L38.25 4.75H38.35V4.64999H38.45V4.54999H38.55L38.65 4.34999L38.85 4.25L38.95 4.14999L39.25 4.34999L39.35 4.45V4.54999H39.45L39.55 4.64999L39.75 4.75V4.84999H39.85H39.95H40.05L40.25 4.95H40.35L40.45 5.04999L40.55 5.14999H40.65V5.25H40.75L40.85 5.34999H40.95H41.05V5.45L41.15 5.34999H41.25H41.35V5.45H41.45H41.55H41.65H41.75H41.95H42.15H42.25H42.35V5.54999H42.45H42.55V5.64999H42.65H42.75V5.75H42.85V5.84999H42.95L43.15 5.95V5.84999L43.25 5.75V5.64999V5.54999L43.35 5.45V5.25L43.45 5.14999L43.65 5.04999L43.75 4.95H43.85L43.95 4.84999L44.35 4.64999L44.45 4.54999V4.45V4.34999L44.55 4.25L44.65 3.95V3.75L44.85 3.34999V3.14999H45.05L45.15 3.25H45.25H45.35L45.55 3.34999H45.65H45.75L45.85 3.45H45.95H46.05L46.15 3.54999H46.25L46.35 3.64999H46.45H46.55H46.65L46.75 3.75H46.85H46.95H47.05H47.15H47.25H47.35H47.65L47.85 3.45L47.75 3.34999L47.65 3.25H47.55V3.14999L47.25 2.84999L47.35 2.75V2.64999H47.45V2.54999V2.45H47.55V2.34999V2.25V2.14999L47.65 1.95V1.84999V1.75H47.75H47.85H47.95L47.85 1.64999L47.95 1.45V1.25L48.05 1.14999L48.15 1.25L48.25 1.34999L48.35 1.45H48.45V1.25L48.55 1.14999V1.04999V0.949997V0.849991H48.65H48.75V0.949997H48.85H48.95L49.05 1.04999H49.15V1.14999H49.25V1.04999H49.35V0.949997L49.45 0.849991V0.75V0.649994V0.549988H49.55H49.65L49.55 0.449997H49.65V0.349991H49.75H49.85L49.95 0.25V0.349991V0.449997V0.549988H50.05V0.649994H50.15H50.25V0.75H50.35H50.45H50.55V0.849991V0.949997V1.04999L50.45 1.34999H50.55L50.45 1.84999H50.35V1.95H50.25V2.04999L50.35 2.14999L50.45 2.34999V2.45V2.54999L50.55 2.64999V2.75V2.84999V2.95H50.65H50.75H50.85H50.95L51.15 2.84999H51.25H51.45H51.55L51.65 2.75H51.75L51.95 2.84999H52.05H52.15H52.25H52.35H52.45V2.95H52.55H52.65H52.85H52.95H53.05H53.25H53.45H53.55H53.65L53.75 2.84999H53.85H53.95V2.95V3.04999V3.25V3.34999V3.45V3.54999V3.64999L54.05 3.84999V3.95L54.15 4.04999V4.14999H54.25V4.25V4.34999L54.35 4.45V4.54999V4.64999V4.84999L54.45 5.04999V5.14999V5.25H54.55L54.65 5.34999L54.85 5.45H55.05L55.15 5.54999H55.25L55.35 5.64999V5.75V5.84999L55.45 5.95H55.55H55.65L55.95 6.14999L56.15 6.25L56.45 6.45L56.75 6.64999H56.85L57.05 6.75L57.25 7.04999V7.14999L57.15 7.84999L57.25 7.95V8.04999V8.14999L57.35 8.25H57.45V8.34999V8.45H57.55H57.75L57.85 8.54999H57.95H58.05L58.15 8.45L58.25 8.34999H58.35H58.45L58.55 8.25H58.65H58.75V8.34999L58.85 8.25H58.95H59.05L59.15 8.34999V8.45V8.54999V8.64999V8.75L59.05 8.84999V8.95V9.04999H58.95V9.14999L58.85 9.25V9.34999L58.75 9.45V9.54999L58.65 9.64999V9.75V9.84999V9.95V10.05V10.15V10.25V10.35V10.45V10.55V10.85H58.75V10.95V11.05V11.15H58.65V11.25V11.35L58.55 11.45L58.45 11.55L58.25 11.85V11.95L58.15 12.05V12.15L58.05 12.35H57.95V12.45H57.85V12.55L57.75 12.65L57.65 12.85L57.55 12.95V13.05L57.45 13.15V13.25L57.35 13.35V13.45L57.15 13.55L57.05 13.75V13.85V13.95L56.95 14.15V14.35V14.45L56.85 14.65V14.75L56.75 15.45L56.55 16.25L56.75 16.45H56.95L57.15 16.65L57.35 16.75H57.45L57.65 16.85L57.75 16.95H57.85H57.95V17.05L58.15 17.15L58.45 17.25L59.05 17.65H59.15H59.35L59.45 17.75L59.75 17.95L60.25 18.25V18.35H60.15V18.45V18.55H60.25V18.65V18.75V18.85V19.05V19.25V19.35L60.15 19.75V19.85V19.95H60.05L59.95 20.15L59.85 20.25V20.35L59.75 20.45V20.55L59.85 20.65V20.85V20.95L59.95 21.05V21.15H60.15V21.05H60.25H60.35L60.65 20.95V21.05H60.75H60.85H60.95H61.15L61.35 20.95L61.45 21.05L61.75 21.15H61.85H62.15V21.05H62.25H62.35V21.15H62.45V21.25H62.55L62.65 21.35H62.75V21.45L63.45 21.95L63.55 22.05H63.65L63.85 22.15L64.35 22.65L64.75 22.85L64.95 22.95L65.05 23.05V23.15V23.35V23.55V23.65H65.15V23.75V23.95H65.05V24.05H64.95V23.95H64.85V24.05H64.75H64.65H64.55H64.45H64.35V24.15H64.45L64.55 24.25H64.65L64.55 24.45H64.45H64.35H64.25L64.15 24.35L63.95 24.25L63.75 24.45L63.85 24.55H63.95V24.65H64.05V24.55H64.15V24.65V24.75H64.25V24.85H64.35V24.95L64.45 25.05H64.55V25.15H64.65V25.25H64.75V25.35L64.85 25.45L64.95 25.55V25.65H65.05H65.15V25.75H65.25V25.85H65.35V25.65V25.55V25.45L65.65 25.55H65.85H65.95H66.25H66.45V25.95L66.35 26.25V26.65L67.25 26.85V26.95H68.25V27.05V27.15V27.25V27.35V27.45L68.35 27.65L68.45 27.85L68.55 27.95V28.05V28.15L68.65 28.25V28.35V28.45H68.75L68.85 28.55H68.95L69.05 28.65L69.15 28.75H69.25V28.85H69.35L69.45 28.95H69.55L69.65 29.05L69.75 29.15L69.85 29.25H69.95L70.05 29.35H70.15V29.45H70.25L70.35 29.55H70.45H70.55L70.65 29.45V29.35V29.25H70.75V29.15L70.85 29.05V28.95L70.95 28.85V28.75L71.05 28.65V28.55L71.15 28.45V28.35L71.25 28.25V28.15L71.35 28.05V27.95V27.85H71.45H71.75H71.85H71.95H72.05H72.15V27.95H72.25L72.35 27.85V27.75H72.45H72.55V27.65V27.55V27.45V27.35H72.65H72.75H72.85V27.25H72.95V27.15L73.05 27.05V26.95L73.15 26.85H73.25H73.35H73.45H73.65H73.75H73.85H73.95H74.05H74.15V26.95V27.15V27.25V27.35L74.25 27.65V27.75V27.85L74.35 27.95V28.05V28.15V28.25V28.35V28.45V28.55L74.25 28.65V28.75V28.85V28.95V29.15H74.15L74.05 29.05L73.95 29.15V29.25V29.35V29.55V29.65V29.85V29.95V30.05V30.15V30.25H74.05H74.15H74.25H74.35H74.45V30.35H74.55H74.65V30.45V30.55V30.65H74.75V30.75V30.85V30.95V31.05V31.15V31.25V31.35V31.45H74.85V31.55V31.65H74.75H74.65V31.75H74.75H74.85V31.85V31.95H74.95V31.85H75.05V31.75H75.15V31.65H75.25H75.35V31.55H75.45V31.65V31.75V31.85V31.95V32.05V32.15V32.35H75.35V32.75V32.85V33.45V33.55V33.65V33.95H75.45L75.75 33.85L76.35 33.65V33.35L76.25 32.85L76.15 32.45L76.25 32.35H76.35L76.95 32.15L77.15 32.05H77.25L77.45 31.95V32.05H77.55L77.45 32.15V32.25V32.35V32.45V32.55V32.65V32.75V32.85V32.95V33.05L77.55 33.15H77.45V33.25V33.35V33.45H77.55V33.55L77.45 33.65V33.75V33.85L77.55 33.95H77.65V34.05L77.85 34.15V34.25H77.95V34.35H78.05V34.45L78.15 34.55H78.25L78.15 34.65V34.75V34.85H78.05V34.95L77.95 35.15H77.85L77.35 35.25H76.85V35.75H76.75V35.95H76.35H76.15V35.85H76.05V35.75H75.95H75.85V35.85V35.95V36.05L75.95 36.15L75.85 36.45L75.95 36.55L75.85 36.65V36.75H75.75H75.65V37.25L75.55 37.55L76.25 38.05V38.15H76.15H76.05H75.95H75.85V38.25V38.45H75.75H75.65H75.55L75.45 38.75V38.85V39.05H75.55H75.65L75.75 39.15V39.25L75.65 39.35V39.45L75.55 39.55L75.35 39.95L75.05 40.45L75.35 40.55L75.55 40.65H75.65H75.85L76.05 40.75H76.15H76.25L76.45 40.85H76.65L76.75 40.95H76.85H77.15V41.05H77.25H77.45L77.65 41.15H77.75V41.25V41.35V41.45H77.85V41.55V41.65L77.95 41.75H78.05V41.85V41.95H78.15V42.05V42.15H78.25V42.25V42.35H78.15L78.25 42.45V42.55H78.15V42.65H78.05V42.75V42.85H78.15V42.95H78.25V43.05V43.15V43.25H78.35V43.35V43.45L78.45 43.55H78.35V43.65H78.25V43.75V43.85V43.95H78.15V44.05H78.25V44.15H78.15V44.25H78.25V44.35H78.35V44.45V44.55H78.25V44.65H78.15H78.05V44.75V44.85V44.95H77.95V45.05H77.85V45.15V45.25H77.75H77.15L77.25 45.15V44.85V44.75V44.65H77.15H77.05H76.95V44.55H76.85H76.75V44.45H76.65H76.55V44.35H76.45H76.35V44.45L76.25 44.55L76.15 44.75L76.05 44.85L75.95 44.95V45.05L75.85 45.15V45.25L75.75 45.35L75.65 45.45L75.55 45.65L75.45 45.75V45.85L75.35 45.95L75.25 46.05V46.15H75.15V46.25V46.35L75.05 46.45L74.95 46.55V46.65L74.85 46.75H74.75L74.65 46.65H74.55V46.55H74.45L74.35 46.45H74.25V46.35H74.15L74.05 46.25H73.95V46.15H73.85L73.75 46.05H73.65L73.55 45.95H73.45V45.85H73.35H73.25H73.15H73.05L72.95 45.75H72.85V45.65L72.75 45.75H72.65H72.55H72.45V45.85H72.35V45.95V46.05V46.15H72.25V46.25H72.15L72.05 46.35H71.95H71.85H71.75H71.65H71.55V46.45V46.55V46.65V46.75V46.85V46.95V47.05H71.65V47.15V47.25V47.35V47.45V47.55H71.75V47.65V47.75H71.85V47.85V47.95V48.05H71.95V48.15V48.25H72.05V48.35H72.15V48.45H72.25H72.35V48.55V48.65V48.75V48.85V48.95V49.05V49.15V49.25H72.45V49.35V49.45V49.55V49.65V49.75V49.85V49.95V50.05L72.55 50.15V50.25V50.35V50.45V50.55H72.65V50.65H72.75L72.85 50.75V50.85L72.95 50.95V51.05V51.15H73.05V51.25L72.95 51.35H72.85H72.75V51.45H72.65L72.55 51.35H72.45V51.45H72.35H72.25V51.55H72.15H72.05V51.65V51.75V51.85H72.15V51.95V52.05V52.15V52.25H72.05V52.35H71.85H71.65V52.45V52.55V52.65V52.75V52.85V52.95V53.05V53.15V53.25V53.45V53.55V53.65V53.75V53.85H71.75V54.05V54.25V54.35V54.45H71.65V54.55V54.65V54.75H71.55V54.85H71.65V54.95L71.75 55.05H71.85H71.95H72.05V54.95H72.15H72.25H72.35H72.45V54.85H72.35V54.75V54.65V54.55V54.45V54.35H72.45H72.55H72.65H72.75H72.85L72.95 54.45V54.55H73.05V54.65V54.75H73.15L73.25 54.85H73.35V54.95H73.45L73.55 55.05V55.15H73.65V55.25H73.75V55.35H73.85H73.95V55.45H74.05V55.65V55.75V55.85H74.15H74.25V55.75H74.35H74.45H74.55H74.65V55.85L74.75 55.75H74.95L75.05 55.65L75.15 55.55H75.25L75.35 55.65H75.45H75.55V55.75L75.45 55.85V55.95L75.35 56.05H75.25V56.15V56.25L75.15 56.35V56.45H75.05V56.55L74.95 56.65V56.75L74.85 56.85L74.75 56.95L74.85 57.05H74.95V57.15H75.05V57.25V57.35V57.45V57.55V57.65V57.75V57.85V57.95H75.15H75.25V58.05H75.35V58.15H75.45L75.35 58.25V58.35V58.45H75.25V58.55V58.65L75.35 58.75V58.85H75.45H75.55V58.95H75.65V59.05V59.15H75.55L75.65 59.25H75.55L75.45 59.35H75.35V59.45L75.45 59.55V59.65H75.35V59.75L75.45 59.85H75.35V59.95H75.45H75.55V60.05V60.15H75.65H75.75V60.25V60.35V60.45H75.85V60.55H75.95V60.65H76.05V60.75V60.85H75.95V60.95V61.05H76.05V60.95H76.15H76.25V61.05V61.15H76.15V61.25V61.35H76.25H76.35V61.45V61.55H76.45V61.65V61.75H76.35V61.85V61.95H76.45V62.05H76.55V62.15V62.25V62.35H76.65H76.75V62.45H76.85V62.55H76.95H77.05V62.65V62.75V62.85H77.15H77.25V62.95H77.35V63.05H77.25H77.15V63.15H77.25V63.25H77.35V63.35H77.45V63.25L77.55 62.95V62.85L77.65 62.65V62.45L77.75 62.35H77.85H77.95H78.05V62.45H78.15H78.25H78.35L78.45 62.55H78.55H78.65V62.65H78.75L78.85 62.75H78.95V62.65L79.05 62.45V62.35L79.15 62.25V62.15L79.25 62.25H79.35H79.45H79.55L79.65 62.35H79.75H79.85H79.95H80.05L80.15 62.45H80.25L80.35 62.65L80.45 62.75L80.55 62.85H80.65V62.95V63.05V63.15L80.55 63.25V63.35V63.45H80.45V63.55L80.55 63.65L80.45 63.85H80.35V63.95H80.25V64.05H80.15V64.15L80.05 64.25H79.95H79.85V64.35L79.75 64.45H79.65V64.55V64.65V64.75L79.55 64.95V65.25V65.35H79.65L79.85 65.45H79.95L80.05 65.55H80.15H80.25H80.35V65.65H80.45H80.55L80.75 65.75H80.85H80.95V65.85H81.05V65.95H81.15L81.25 66.05H81.35V66.15H81.45H81.55V66.25H81.65H81.75H81.85V66.35L81.95 66.45V66.55H82.05V66.65H82.15V66.75H82.25V66.85H82.15V66.95V67.05H82.25V67.15H82.35V67.25H82.45L82.55 67.35V67.45H82.65V67.55H82.75V67.65L82.85 67.75V67.85H82.95V67.95L83.05 68.05H83.15V68.15H83.25V68.25L83.35 68.35V68.45H83.45H83.55H83.65V68.55H83.75L83.85 68.65V68.55H83.95H84.05H84.15L84.25 68.45H84.35H84.45H84.55V68.55H84.65H84.75V68.45L84.95 68.35L85.05 68.25L85.15 68.15V68.05H85.25Z" fill="#220F0F"/>
<path d="M82.85 84.55H82.95H83.05V84.65H83.15H83.25L83.35 84.55V84.45H83.45V84.35L83.55 84.25H83.65V84.15L83.75 84.05L83.85 83.95H83.95H84.05V83.85V83.75V83.65V83.55V83.45L83.95 83.35V83.25V83.15H83.85H83.75V83.05H83.65V82.95V82.85V82.75V82.65H83.75V82.55V82.45H83.85L83.95 82.35L84.05 82.25V82.15L83.95 82.05V81.95L83.85 81.85V81.75L83.75 81.65V81.55H83.65H83.55V81.45H83.45L83.35 81.35L83.25 81.25H83.15V81.15L83.05 81.05L82.95 80.95H82.85V80.85H82.75H82.65V80.75H82.55V80.65H82.45H82.35H82.25V80.55V80.45V80.35V80.25V80.15H82.35V80.05V79.95V79.85L82.45 79.75L82.55 79.65H82.65L82.75 79.55V79.45H82.85L82.95 79.35V79.25V79.15V78.95L83.05 78.75H83.15H83.25H83.35H83.45H83.55L83.65 78.65L83.75 78.45L83.85 78.35L83.95 78.15V78.05V77.95V77.85V77.75H84.05V77.65V77.55V77.45H84.15V77.35V77.25L84.25 77.15V77.05L84.35 76.85L84.45 76.95L84.95 77.35V77.05V76.85V76.75V76.25V76.05V75.95V75.85V75.55V75.45V75.25V75.15H84.85V75.05H84.95L84.85 74.95H84.75V74.85H84.65L84.55 74.75L84.45 74.65L84.15 74.45L84.05 74.35L83.85 74.15L83.65 74.05L83.55 73.95L83.45 73.85H83.35L83.15 73.75L83.05 73.65L82.95 73.55L82.65 73.35V73.05V72.85V72.65V72.05H82.55V71.95V71.85V71.65L82.45 70.95H82.55L82.75 70.85H82.85H82.95H83.05L83.15 70.75H83.45H83.55H83.65V70.65H83.75L83.85 70.75H83.95L84.05 70.65H84.15H84.35H84.55L84.85 70.55H84.95V70.45L84.85 70.35V70.25L84.75 70.15V69.95L84.95 69.65L85.05 69.55H85.15L85.25 69.45V69.35L85.35 69.25L85.55 69.15V69.05H85.65L85.75 68.85L85.85 68.75L86.15 68.45H86.25V68.35H86.15H86.05H85.95L85.85 68.25H85.75H85.65H85.55L85.45 68.15H85.35V68.05H85.25H85.15V68.15L85.05 68.25L84.95 68.35L84.75 68.45V68.55H84.65H84.55V68.45H84.45H84.35H84.25L84.15 68.55H84.05H83.95H83.85V68.65L83.75 68.55H83.65V68.45H83.55H83.45H83.35V68.35L83.25 68.25V68.15H83.15V68.05H83.05L82.95 67.95V67.85H82.85V67.75L82.75 67.65V67.55H82.65V67.45H82.55V67.35L82.45 67.25H82.35V67.15H82.25V67.05H82.15V66.95V66.85H82.25V66.75H82.15V66.65H82.05V66.55H81.95V66.45L81.85 66.35V66.25H81.75H81.65H81.55V66.15H81.45H81.35V66.05H81.25L81.15 65.95H81.05V65.85H80.95V65.75H80.85H80.75L80.55 65.65H80.45H80.35V65.55H80.25H80.15H80.05L79.95 65.45H79.85L79.65 65.35H79.55M82.85 84.55V84.45M82.85 84.55L82.75 84.45V84.35V84.25H82.65V84.15L82.55 84.05V83.95H82.45H82.35V83.85H82.25V83.75H82.15H82.05L81.95 83.85H81.85V83.95H81.75H81.65H81.55V83.85H81.45V83.95L81.35 84.05V84.15V84.25V84.35V84.45V84.55V84.65H81.25V84.75V84.85L81.15 84.95V85.05V85.15V85.25V85.35H81.05V85.45V85.55H81.15V85.65V85.75V85.85V85.95V86.05V86.15V86.25H81.25V86.35V86.45L81.15 86.55H81.05V86.65H81.15V86.75H81.25V86.85H81.35H81.45H81.55H81.65H81.75H81.95H82.05H82.15H82.25H82.35H82.45H82.55L82.65 86.95L82.75 87.05H82.85H82.95L83.05 86.95H83.15H83.35H83.55L83.65 86.85H83.75V86.95H83.85V87.05L83.95 87.15V87.25H83.85H83.65H83.55V87.35L83.45 87.65L83.35 87.95L83.15 88.25L82.95 88.15H82.85L82.65 87.95H82.55L82.45 88.15V88.25V88.35V88.45L82.35 88.55V88.65L82.25 89.05V89.15H82.15L81.95 89.45L81.55 90.15L81.65 90.45L81.85 90.95L82.05 90.85H82.25L82.65 90.65L82.75 90.95L82.95 90.85L83.45 90.75L83.55 91.05L83.75 91.15L83.85 91.35L84.25 91.25L84.45 91.15L84.55 91.05H84.65V90.95H84.75V91.15L84.85 91.25L85.05 91.45V91.55H85.15V91.65H85.25V91.75L85.55 92.05L85.75 92.35L85.95 92.15H86.05V92.05H86.15L86.55 91.75L86.65 91.65H86.75V91.75H86.85V91.85L86.95 91.95L86.85 92.35V92.45L86.55 92.85L86.45 93.05L86.25 93.25L86.15 93.35H86.05V93.45V93.55H85.95V93.65V93.75V93.85V94.05L86.05 94.75H85.45V94.95H84.95V95.65H85.15L85.25 96.05L85.75 95.95L85.85 96.55H85.35H85.05H84.95V96.65V96.75V96.85L85.05 96.95V97.05V97.15V97.25V97.35L85.15 97.45L85.25 97.55H85.45L85.55 97.65L85.65 97.75L85.85 97.85H86.05H86.15H86.25V97.95L86.45 98.05V98.15H86.55L86.65 98.45L86.75 98.55L86.85 98.75V98.85H86.95V98.95V99.05H87.05V99.15V99.25H87.15V99.35L87.25 99.45V99.55L87.35 99.65H87.25L87.15 99.85L87.05 100.05L87.25 100.15V100.25V100.35V100.45H87.15V100.55L87.05 100.65V100.75L86.95 100.85V100.95V101.05H87.05V101.15L87.15 101.25L87.25 101.45L87.35 101.65L87.45 101.75V101.85V102.05L87.55 102.15V102.25V102.35L87.35 103.15V103.25L87.45 103.35V103.45H87.35H87.25V103.35L87.05 103.65V103.75L86.95 104.25L86.85 104.35V104.55L87.25 104.75V104.85V104.95V105.05V105.35H87.35L87.45 105.45L87.75 105.65L87.85 105.75L88.05 105.65V105.85V105.95V106.05L87.95 106.25H87.85H87.75L87.65 106.35H87.55H87.45H87.35V106.45H87.25V106.55L87.35 106.85L87.45 107.15V107.25V107.35L87.55 107.55L87.65 107.95V108.05L87.75 108.15H87.65V108.25L87.75 108.35V108.45H87.85H87.95H88.05H88.15H88.25H88.35L88.45 108.35L88.55 108.25L88.75 108.45L88.85 108.55V108.65H88.95V108.75H89.05L89.15 108.85V108.95V109.05V109.25V109.35L89.25 109.55V109.65V109.75V110.05V110.25L89.35 110.45V110.55L89.25 110.65H89.15H89.05H88.95L88.85 110.75H88.75V110.85H88.65V110.95L88.55 111.05V111.15V111.25H88.45H88.35L88.25 111.35H88.15H88.05H87.95H87.85L87.75 111.45V111.55H87.65H87.55V111.65H87.45H87.35V111.75H87.25H87.15H87.05L86.95 111.55V111.45V111.35H86.85V111.25H86.75V111.15H86.65H86.55L86.35 111.05H86.15H85.95H85.85H85.75V111.15H85.65L85.55 111.05V111.15H85.45V111.05V110.95V110.85L85.35 110.75V110.65V110.55V110.45H85.25V110.35H85.15H85.05V110.45H84.95V110.55H84.85H84.75H84.65H84.55V110.65V110.75H84.45V110.85V110.95M84.45 110.95H84.55M84.45 110.95V111.05V111.15H84.35V111.25L84.15 111.35L84.05 111.25L83.95 111.15L83.85 111.05L83.55 110.55L83.45 110.45V110.35V110.25H83.35H83.25H83.15V110.35V110.45L83.25 110.85L83.35 111.15V111.25L83.45 111.35L83.35 111.45V111.55V111.65H83.25V111.75L83.15 111.85L83.05 111.95L82.55 112.55V112.65L82.45 112.55L82.35 112.45H82.25L82.15 112.55V112.65H82.05L81.95 112.75L82.05 112.85V112.95H82.15H82.25V113.05V113.15L81.95 113.45L81.75 113.65H81.65V113.75L81.55 113.85H81.45V113.95H81.35L81.45 114.05V114.15V114.25L81.35 114.35V114.25V114.15H81.25V114.05H81.05L80.95 113.95H80.85H80.75H80.65L80.55 113.85H80.45V113.75H80.35V113.65H80.25L79.95 113.55L79.85 113.75L79.75 113.95V114.05H79.65L79.55 114.15L79.25 114.25H79.15L79.05 113.95V113.75H78.95V113.85H78.85L78.75 113.95L78.65 114.05L78.55 113.95V113.85H78.45V113.75L78.35 113.65L78.25 113.55L78.15 113.45L78.05 113.35L77.95 113.25H77.85V113.15H77.75L77.65 113.05H77.55V112.95H77.45V112.85H77.35H77.25V112.75H77.15L77.05 112.65V112.55H76.95L76.85 112.45V112.35L76.75 112.25L76.65 112.15H76.55H76.45L76.35 112.05H76.25L76.15 112.15L75.95 112.25H75.85L75.55 112.35H75.45H75.35L75.25 112.45H75.15H75.05H74.95H74.85H74.75H74.65H74.55H74.45H74.35V112.55H74.25V112.65V112.75H74.15L74.05 112.85V112.95H73.95V113.05V113.15H74.05V113.25V113.35V113.45V113.55V113.65V113.75V113.85H73.95V113.95V114.05H73.85L73.95 114.15V114.25H74.05V114.35H74.15V114.45V114.55L74.05 114.65L73.85 114.85L73.65 115.05L73.55 115.15L73.25 115.45L73.15 115.55H73.05H72.95H72.85H72.75V115.45H72.65L72.55 115.35L72.15 115.15L72.05 115.05H71.95L71.75 114.95L71.65 114.85L71.55 114.75V114.65H71.45V114.55H71.35V114.45L71.25 114.35L71.15 114.25L71.05 114.15H70.95M70.95 114.15V114.05H70.85L70.95 114.15ZM70.95 114.15V114.25V114.35L71.05 114.45V114.55V114.65V114.75V114.85V114.95H71.15V115.05V115.35L70.95 115.55H70.85H70.75H70.65V115.45H70.55H70.45V115.35V115.25H70.35L70.25 115.15H70.05H69.95V114.95L69.85 114.85H69.75H69.65V114.75L69.55 114.85V114.95V115.05V115.15H69.45H69.35V115.25H69.25H69.15L69.05 115.45L68.95 115.55H68.85L68.95 115.65L69.05 115.85L69.45 116.35V116.45H69.55L69.25 116.85L69.15 117.05L69.05 117.25L68.95 117.45V117.55H68.85V117.65H68.75V117.75H68.65L68.35 117.95L68.25 118.05H68.15L68.25 118.15V118.25L68.35 118.35V118.45L68.45 118.55L68.55 118.65L68.65 118.75H68.75L68.85 118.85L69.05 119.05H69.15V119.15H69.25V119.25L69.35 119.45V119.55H69.45V119.65V119.75L69.35 119.85H69.25V119.75H69.15H69.05H68.95L68.75 119.65L68.35 119.55H68.15H68.05L67.95 119.65L67.75 119.55H67.65H67.55L67.45 119.45H67.35H67.25V119.55H67.05H66.95H66.85H66.65H66.55H66.35H66.25H66.15H66.05V119.65V119.75H66.15V119.85L66.05 119.95H65.75H65.65H65.55V120.05V120.25V120.35V120.45V120.65V120.75V120.85L65.45 120.75H65.15H65.05H64.95V120.85V120.95L64.85 121.15V121.25V121.35V121.45H64.75V121.55V121.65V121.75H64.65V121.85V121.95V122.05L64.55 122.15V122.25V122.35V122.45H64.45V122.55V122.65L64.15 123.15L64.05 123.35L63.45 124.25H63.35V124.35H63.45V124.45L64.15 124.85L64.05 125.05L63.95 125.15V125.25V125.45V125.55V125.75H64.05V125.85V125.95L64.25 126.25V126.35V126.45H64.35V126.55L64.45 126.65L64.55 126.85H64.65V126.95H64.75L64.85 127.05H65.05L64.95 127.45V127.55L64.75 127.95L64.95 128.15L65.05 128.45L64.95 128.55L64.85 128.45L64.75 128.35V128.45V128.55V128.65H64.65H64.55V128.55H64.45H64.35L64.25 128.65L64.35 128.75V128.85V128.95H64.25V129.05V129.15L64.15 129.25L64.05 129.35H63.95V129.45H63.85V129.55L63.75 129.65L63.85 129.75L63.95 129.85V129.95V130.05H63.85V130.15H63.75L63.85 130.25V130.35H63.95H64.05V130.45H63.95V130.55H63.85L63.95 130.65H64.05L63.95 130.85V131.25V131.65V131.95L63.85 132.25V132.55L63.95 132.65L64.15 133.05L64.25 133.15V133.25H64.35L64.45 133.45L64.65 133.65L64.85 133.85L64.95 133.95V134.05V134.15V135.65L65.05 135.75V135.85V135.95L64.95 136.05V136.35L64.85 136.45V136.55V136.65H64.95V136.75V136.85L65.05 136.95V137.05V137.15V137.25V137.35L64.85 137.45V137.65L64.95 138.05L65.05 138.15V138.35V138.45V138.55V138.65V138.75L64.95 138.85V138.95H64.85L64.75 139.05V139.15V139.25V139.35V139.45V139.55H64.85V139.65H64.95V139.75H65.05V139.85V139.95H65.15V140.05V140.15V140.25L65.25 140.35H65.35V140.45H65.45H65.55V140.65L65.45 140.75V140.85H65.35H65.25V140.95V141.05H65.15H65.05L65.15 141.25L65.05 141.55L64.95 141.65V141.75L64.85 141.95L64.75 142.05L64.65 142.15H64.55L64.45 142.25H64.35V142.35H64.45V142.45H64.55L64.65 142.55V142.65V142.75H64.55V142.85H64.45H64.35L64.25 142.75H64.15H64.05L63.95 142.85H63.85H63.75V142.95H63.65V143.05H63.75V143.15V143.25V143.35V143.45V143.55V143.65L63.85 143.75V143.85H63.95L64.05 143.75H64.15V143.85V143.95H64.25V144.05L64.35 144.15V144.25L64.45 144.35V144.25H64.55V144.35V144.45H64.65M64.65 144.45V144.35M64.65 144.45H64.75V144.55L64.85 144.65V144.75V144.85H64.95L64.85 144.95V145.05H64.75H64.65V145.15L64.55 145.25L64.25 145.55L64.15 145.65V145.85L64.35 146.25V146.55L64.45 146.85L64.55 146.95L64.65 147.05L64.75 147.15V147.25L64.85 147.45L64.95 147.55V147.65V147.75V147.85V147.95L64.85 148.05V148.15V148.25H64.75V148.35L64.55 148.25L64.45 148.35L64.55 148.65V148.75V148.85V148.95H64.45L64.35 148.85H64.25H64.15V148.75L63.95 148.95V149.05H63.85V149.15V149.25H63.75V149.35H63.65V149.45V149.55V149.65V149.75V149.85V149.95H63.55V150.05V150.15V150.25L63.65 150.35V150.45V150.55H63.55V150.65H63.65V150.75V150.85L63.55 150.95V151.05L63.45 151.15V151.25V151.35L63.35 151.45L63.25 151.55L63.15 151.65V151.75V151.85V151.95V152.05L63.05 152.15V152.25H63.15L63.05 152.35V152.45V152.55V152.65H62.95V152.75V152.85V152.95L62.85 153.05V153.15V153.25H62.45H62.15H62.05H61.95L61.75 153.45L61.65 153.55V154.05V154.45L61.55 154.85L61.45 155.05L61.35 155.15L61.15 155.25L60.95 155.35L60.55 155.55L60.35 155.65H60.05L59.75 155.55L59.55 155.35L59.35 155.25V155.15L59.05 154.65L58.85 154.25L58.75 154.05L58.55 153.85L58.35 153.75L58.05 153.55H57.85L57.65 153.45L57.35 153.55L56.95 153.65L56.55 153.75L56.35 153.95L56.25 154.15L55.75 154.75V154.85L55.85 154.95L55.95 155.15H56.05L56.35 155.35H56.45L56.65 155.45L56.75 155.65L56.95 155.75L57.15 156.15L57.25 156.35L57.45 156.75V157.05L57.35 157.25V157.55L57.05 157.85L56.75 158.05L56.55 158.15L56.25 158.25H55.95H55.85H55.75V158.35H55.55H55.35L55.05 158.15L54.65 157.95L54.25 157.55L54.15 157.45L53.85 157.25L53.65 157.05L53.45 156.95L53.15 156.75L52.95 156.65H52.45L52.05 156.75L51.85 156.85L51.35 157.25L51.15 157.35L51.05 157.55L50.95 157.65L50.85 157.85L50.75 157.95L50.55 158.25L50.35 158.45L50.15 158.55L50.05 158.65L49.95 158.75L49.75 158.85H49.45L49.35 158.95H49.15H49.05L48.75 158.85L48.45 158.75L47.75 158.55L47.45 158.45L47.25 158.35L46.95 158.25H46.75L46.55 158.15H46.35H46.15H46.05H45.95L45.85 158.25L45.65 158.15H45.45L45.15 158.05H44.95L44.65 157.95H44.35L44.15 157.85L44.05 157.75H43.95L43.85 157.55L43.75 157.35V157.25L43.65 157.15V156.95L43.75 156.85V156.75L43.85 156.65V156.55V156.45H43.75H43.65H43.55H43.35L43.15 156.55L43.05 156.75L42.95 156.85L42.85 157.05L42.65 157.25L42.55 157.35L42.35 157.45H42.05H41.95H41.85H41.55L41.05 157.35H40.85H40.75L40.45 157.45L40.25 157.55L40.05 157.65L39.85 157.85L39.65 158.35L39.35 158.95L39.25 159.15L39.15 159.25V159.35L39.05 159.45H38.95V159.55L38.75 159.65H38.65L38.55 159.75L38.35 159.85L38.05 159.95H37.95H37.75L37.65 159.85H37.45L37.25 159.75L36.95 159.55H36.85L36.65 159.45V159.35H36.55L36.45 159.25L36.35 159.15L36.25 158.95L36.15 158.85H36.05V158.75H35.95L35.85 158.55L35.75 158.35L35.45 157.95L35.25 157.55L35.15 157.25L35.05 157.15L34.95 157.05V156.95V156.75V156.65V156.55V156.35L35.05 156.15L35.15 155.85V155.65L35.25 155.45L35.15 155.35V155.05L34.95 154.85L34.75 154.75H34.55H34.35H34.25L33.95 154.85L33.75 154.95L33.55 155.05L33.45 155.15L33.25 155.35L33.15 155.45L33.05 155.55L32.95 155.65V155.75L32.85 155.85V155.95V156.05V156.15V156.35V156.45L32.95 156.55V156.65L33.05 156.75L33.15 156.95L33.25 157.15L33.35 157.35L33.45 157.45L33.65 157.75V157.85V157.95V158.05V158.25V158.45L33.55 158.65L33.45 158.85L33.35 159.05L33.25 159.15L33.15 159.35L33.05 159.45L32.95 159.55H32.75H32.55L32.45 159.65L32.35 159.55H32.25H32.15H32.05V159.45H31.95L31.85 159.25L31.75 159.05V158.95L31.65 158.75V158.65V158.45V158.35L31.55 158.25V158.05V157.95L31.45 157.85V157.65L31.35 157.45V157.35V157.15L31.25 157.05L31.15 156.95L31.05 156.85L30.95 156.75H30.85V156.65H30.75L30.65 156.55H30.55H30.45H30.35H30.25H30.15H30.05H29.95V156.65L29.85 156.75V156.95V157.05V157.15L29.95 157.35L30.05 157.45L30.15 157.65H30.25L30.45 157.75L30.65 157.85V157.95L30.75 158.05L30.85 158.25L30.95 158.35V158.55V158.65L31.05 158.85V158.95V159.05V159.15V159.35L30.95 159.55V159.75V159.85V159.95L30.85 160.15L30.75 160.25L30.55 160.45L30.35 160.55L30.25 160.65L30.05 160.75H29.95H29.85H29.65H29.55L29.45 160.65H29.35H29.25L28.95 160.45L28.55 160.15L28.45 160.05L28.25 159.85L28.15 159.75L27.95 159.55L27.75 159.35L27.65 159.15L27.45 158.95L27.25 158.85L27.15 158.75L27.05 158.65L26.95 158.55H26.75H26.55L26.35 158.45H26.25H26.05H25.95H25.85L25.55 158.55L25.35 158.65L25.25 158.75L25.05 158.85L24.95 158.95L24.85 159.15L24.75 159.25V159.35V159.55V159.65V159.75V159.95L24.85 160.15L25.05 160.35H25.25H25.45L25.65 160.45L25.85 160.35L25.95 160.25H26.05H26.15L26.25 160.15H26.35L26.45 160.05H26.65H26.85L27.15 159.95L27.25 160.05H27.35H27.45L27.55 160.15L27.65 160.25L27.75 160.45V160.55V160.65V160.75V160.95L27.85 161.05V161.25L27.95 161.35L28.05 161.55L28.15 161.65L28.35 161.85H28.45V161.95L28.65 162.05L28.85 162.15L29.15 162.45L29.35 162.75L29.45 162.95L29.55 163.25V163.35V163.55V163.65L29.45 163.85L29.25 163.95L29.05 164.05V164.15H28.95H28.85L28.75 164.25H28.45H27.85H27.75H27.65H27.55H27.45H27.35H27.25H27.15L26.95 164.15L26.55 163.85L26.45 163.75L26.15 163.45L26.05 163.35L25.95 163.15L25.85 163.05L25.75 162.85H25.65V162.75H25.55L25.45 162.65L25.35 162.55H25.25H25.15L25.05 162.45H24.95L24.85 162.55H24.75H24.65L24.45 162.65L24.35 162.75L24.25 162.85L24.15 162.95V163.25V163.35H24.25V163.55V163.65H24.35V163.75V163.85L24.45 163.95V164.05L24.55 164.15L24.65 164.35V164.45L24.75 164.65L24.85 164.85V164.95L24.95 165.05V165.15V165.25L25.05 165.35V165.45L25.15 165.55V165.75V165.85V165.95L25.05 166.05L24.95 166.35L24.85 166.45L24.75 166.55L24.55 166.65L24.45 166.75H24.25L24.15 166.85H23.95H23.75H23.55H23.35H23.15H22.85L22.55 166.75H22.45L22.25 166.65H22.15L21.95 166.45L21.85 166.35L21.75 166.25L21.55 166.05L21.45 165.95L21.15 165.55V165.45L21.05 165.35L20.95 165.05L20.85 164.75L20.75 164.55L20.55 164.05H20.45L20.35 163.75L20.15 163.45L20.05 163.35L19.95 163.25V163.15H19.85V163.05L19.75 162.95V162.85L19.65 162.75V162.65L19.55 162.55L19.45 162.45V162.35H19.35V162.25L19.25 162.15V162.05L19.15 161.95V161.85L18.85 161.25L18.75 161.05V160.85L18.65 160.55L18.55 160.45V160.35L18.45 160.15L18.35 159.95L18.25 159.85L18.05 159.75L17.95 159.65H17.75H17.65H17.55H17.45H17.35H17.25H17.15L17.05 159.75H16.95L16.65 159.95H16.55L16.45 160.05L16.15 160.15H16.05H15.95V160.25V160.05L15.85 159.95V159.85V159.75L15.75 159.65H15.65L15.55 159.55H15.45H15.35H15.25H15.15L15.05 159.65L14.95 159.85L14.85 159.95H14.75V160.05H14.65H14.45H14.35H14.25L14.15 159.95V159.85H14.05V159.75H13.95V159.65L13.85 159.55L13.75 159.45V159.35L13.65 159.25V159.15V159.05H13.55V158.95V158.85H13.45V158.75H13.35V158.65L13.25 158.55H13.15V158.45H13.05V158.35H12.95V158.25H12.85H12.75H12.65L12.55 158.35H12.45V158.45V158.55H12.55V158.65H12.65V158.75V158.85V158.95V159.05V159.15V159.25V159.35V159.45L12.55 159.55V159.65L12.45 159.75V159.85H12.35H12.25V159.95H12.15H12.05H11.95H11.85L11.75 160.05V159.95L11.65 159.85V159.75V159.65L11.75 159.55H11.85V159.45L11.95 159.35H12.05V159.25V159.15V159.05V158.95V158.85L11.95 158.75V158.65H11.85V158.55H11.75H11.65H11.55H11.45H11.35H11.25H11.15V158.45H11.05H10.95L10.85 158.35H10.75V158.25H10.65V158.15L10.55 158.05V157.95V157.85V157.75H10.65V157.65V157.55H10.75L10.85 157.45H10.95V157.35H11.05H11.15L11.25 157.25H11.35H11.45V157.15H11.55V157.05H11.65V156.95H11.75V156.85V156.75V156.65V156.55V156.45H11.65V156.35L11.55 156.45H11.45H11.35M11.35 156.45H11.25M11.35 156.45V156.55H11.25V156.65H11.15H11.05H10.95H10.85L10.75 156.55V156.45H10.85V156.35V156.25V156.15H10.95V156.05L10.85 155.95V155.85V155.75H10.75H10.65V155.85H10.55H10.45H10.35V155.75H10.25L10.15 155.65H10.05H9.95001V155.55H9.85001L9.95001 155.45V155.35V155.25M9.95001 155.25H10.05M9.95001 155.25V155.15L10.05 155.05V154.95V154.85V154.75V154.65H9.95001H9.85001V154.55H9.75V154.45H9.64999V154.35H9.54999H9.45001H9.35001H9.25H9.14999H9.05V154.25L8.95 154.15H8.85001V154.05H8.75H8.64999H8.55V153.95L8.45 153.85H8.35001V153.75V153.65V153.55L8.45 153.45H8.55V153.35H8.64999V153.45H8.75V153.55H8.85001L8.95 153.65H9.05H9.14999H9.25H9.35001H9.45001H9.54999H9.64999V153.55H9.75L9.85001 153.45V153.35V153.25H9.95001L9.85001 153.15V153.05V152.95L9.75 152.85V152.75H9.64999V152.65H9.54999H9.45001L9.35001 152.75H9.14999H9.05V152.85H8.95H8.85001H8.75H8.64999H8.55H8.45H8.35001V152.75V152.65H8.25V152.55H8.14999L8.05 152.45L8.14999 152.35H8.25V152.25H8.35001V152.35L8.45 152.25H8.55L8.64999 152.15V152.05H8.75H8.85001L8.95 151.95V151.85H9.05L9.14999 151.75V151.65V151.55V151.45V151.35V151.25H9.05V151.15H8.95L8.85001 151.05V151.15H8.75H8.64999V151.25H8.55V151.35V151.45V151.55H8.45L8.35001 151.65L8.25 151.75H8.14999V151.85H8.05H7.95V151.75H7.85001V151.85V151.95H7.75H7.64999V151.85H7.55H7.45V151.95H7.35001L7.25 151.85L7.14999 151.75H7.05V151.65L7.14999 151.55H7.25L7.35001 151.45V151.35V151.25H7.45V151.15V151.05H7.55V150.95V150.85V150.75V150.65V150.55H7.64999V150.45H7.75V150.35V150.25V150.15H7.64999V150.05V149.95H7.55V149.85H7.45H7.35001H7.25H7.14999L7.05 149.95L6.95 150.05L6.85001 150.25H6.75L6.64999 150.35H6.55H6.45H6.35001H6.25M6.25 150.35V150.45M6.25 150.35H6.14999H6.05L5.95 150.25V150.15H5.85001V150.05V149.95V149.85H5.75V149.75V149.65V149.55V149.45H5.85001V149.35H5.95V149.25V149.15H5.85001H5.75V149.25H5.64999H5.55V149.35H5.45H5.35001V149.25H5.25H5.14999H5.05H4.95V149.15H4.85001L4.75 149.05V148.95L4.64999 148.85V148.75V148.65V148.55H4.75V148.45H4.85001H4.95H5.05H5.14999H5.25H5.35001H5.45V148.35V148.25H5.55V148.15V148.05V147.95V147.85H5.45H5.35001M5.35001 147.85V147.95M5.35001 147.85H5.25V147.75V147.65H5.35001V147.55H5.25V147.45H5.14999V147.35V147.25V147.15L5.25 147.05V146.95V146.85H5.35001V146.75L5.45 146.65L5.55 146.55L5.64999 146.45V146.35V146.25L5.55 146.05L5.45 145.85V145.75V145.65L5.55 145.55H5.64999V145.45H5.75L5.85001 145.35V145.25V145.15V145.05V144.95V144.85H5.75V144.75H5.64999H5.55L5.45 144.65H5.35001V144.55V144.45H5.25L5.14999 144.35H5.05L4.95 144.25H4.85001V144.15V144.05V143.95V143.85V143.75H4.95V143.65H5.05V143.75H5.14999V143.85V143.95H5.25V144.05H5.35001L5.45 144.15H5.55H5.64999H5.75V144.05H5.85001V143.95V143.85H5.95V143.75V143.65V143.55H5.85001H5.75H5.64999L5.55 143.45H5.45L5.35001 143.35H5.25V143.25H5.14999V143.15V143.05L5.25 142.95H5.35001V142.85L5.45 142.75V142.65H5.55V142.55V142.45V142.35H5.64999L5.55 142.25V142.15V142.05L5.45 141.95V141.85H5.35001H5.25V141.75H5.14999V141.85H5.05H4.95L4.85001 141.75V141.85H4.75H4.64999H4.55H4.45V141.75H4.35001V141.65H4.25V141.55V141.45V141.35V141.25V141.15H4.14999V141.05V140.95V140.85L4.05 140.75V140.65V140.55V140.45H4.14999V140.35V140.25V140.15H4.25H4.35001H4.45H4.55V140.25V140.35V140.45V140.55V140.65V140.75L4.64999 140.85H4.75H4.85001H4.95V140.95H5.05H5.14999H5.25V141.05H5.35001V140.95H5.45V140.85V140.75V140.65V140.55H5.35001V140.45V140.35H5.25V140.25V140.15H5.14999V140.05H5.05V139.95H5.14999V139.85L5.05 139.75V139.65H4.95H4.85001V139.55V139.45V139.35H4.95V139.25V139.15H5.05H5.14999L5.25 139.25H5.35001V139.15H5.45L5.55 139.25L5.64999 139.35V139.45V139.55H5.75H5.85001L5.95 139.65H6.05H6.14999H6.25H6.35001V139.55V139.45H6.45V139.35V139.25H6.55V139.15H6.64999V139.05H6.55V138.95V138.85V138.75V138.65H6.45L6.35001 138.55H6.25H6.14999H6.05L5.85001 138.65V138.75L5.75 138.85H5.64999V138.95H5.55H5.45V138.85H5.35001V138.75V138.65V138.55V138.45V138.35V138.25L5.25 138.15V138.05H5.14999V137.95H5.05H4.95V137.85H4.85001H4.75V137.75H4.64999V137.65V137.55H4.55V137.45L4.64999 137.35V137.25L4.75 137.15V137.05V136.95V136.85V136.75V136.65V136.55H4.64999V136.45H4.55V136.35V136.25H4.45H4.35001H4.25H4.14999L3.95 136.15L3.85001 136.05H3.75V135.95V135.85H3.64999V135.75V135.65V135.55H3.75V135.45H3.85001H3.95H4.05H4.14999V135.35H4.25V135.25V135.15V135.05V134.95H4.14999V134.85L4.05 134.75V134.65H3.95V134.55V134.45H4.05V134.35H4.14999V134.25V134.15H4.25V134.25L4.35001 134.15V134.05V133.95H4.25V133.85L4.14999 133.75V133.65V133.55H4.05V133.45H3.95V133.35V133.25M3.95 133.25H3.85001M3.95 133.25V133.15V133.05H3.85001V132.95V132.85L3.95 132.75V132.65H4.05H4.14999H4.25V132.55H4.35001H4.45H4.55V132.45H4.64999V132.35H4.75H4.85001V132.25H4.95V132.15V132.05V131.95H4.85001V131.85V131.75L4.75 131.65H4.64999L4.55 131.55H4.45H4.35001H4.25H4.14999V131.65L4.05 131.75V131.85L3.95 131.95V132.05L3.85001 132.15L3.75 132.25H3.64999V132.35H3.55H3.45V132.25H3.35001L3.25 132.15V132.05H3.14999V131.95H3.05L2.95 131.85V131.75L2.85001 131.65V131.55H2.95V131.45H2.85001V131.35V131.25H2.95H3.05H3.14999H3.25H3.35001H3.45H3.55V131.15V131.05H3.64999V130.95H3.55V130.85H3.45V130.75V130.65H3.35001V130.55V130.45V130.35V130.25V130.15V130.05V129.95H3.45V129.85V129.75H3.55V129.65H3.64999V129.55L3.75 129.45V129.35V129.25H3.85001V129.15V129.05H3.95V128.95V128.85H4.05V128.75V128.65V128.55V128.45V128.35V128.25V128.15H3.95V128.05H3.85001H3.75V127.95H3.64999H3.55L3.45 127.85H3.35001H3.25V127.75H3.14999H3.05V127.65H2.95H2.85001H2.75V127.55H2.64999V127.45H2.55V127.35V127.25H2.45V127.15H2.55V127.05H2.45L2.55 126.95V126.85V126.75H2.64999H2.75V126.65M2.75 126.65H2.85001M2.75 126.65V126.55H2.85001H2.95V126.65H3.05H3.14999L3.25 126.75H3.35001V126.85H3.45H3.55H3.64999H3.75V126.75H3.85001L3.95 126.65H4.05V126.55V126.45H4.14999V126.35H4.25V126.25V126.15V126.05L4.14999 125.95V125.85H4.05H3.95V125.75H3.85001H3.75V125.85H3.64999H3.55H3.45H3.35001H3.25H3.14999H3.05H2.95V125.75H2.85001H2.75V125.65L2.64999 125.55L2.55 125.45V125.35H2.45V125.25V125.15H2.55V125.05L2.64999 124.95V124.85H2.75L2.85001 124.75H2.95H3.05H3.14999V124.65H3.25H3.35001H3.45V124.75H3.35001V124.85H3.45H3.55H3.64999H3.75L3.85001 124.95L3.95 124.85H4.05V124.95H4.14999H4.25V124.85H4.35001L4.45 124.75H4.35001V124.65M4.35001 124.65H4.45M4.35001 124.65V124.55H4.45V124.45V124.35V124.25V124.15V124.05V123.95H4.35001V123.85H4.25H4.14999V123.75H4.05H3.95V123.65H3.85001V123.55V123.45H3.75V123.35H3.64999V123.25L3.55 123.15V123.05V122.95V122.85H3.64999V122.75H3.55V122.65H3.64999H3.75H3.85001H3.95L4.05 122.55V122.45V122.35V122.25V122.15V122.05H3.95V121.95H3.85001L3.75 121.85L3.55 121.65L3.45 121.55L3.35001 121.45L3.14999 121.25L3.05 121.15L2.95 121.05V120.95L2.85001 120.85V120.75V120.65V120.55V120.45V120.35L2.95 120.25V120.15H3.05L3.14999 120.05L3.35001 119.95H3.45V119.85H3.55H3.64999H3.75H3.85001L3.95 119.75H4.05L4.14999 119.65L4.25 119.55H4.35001V119.45H4.45V119.35V119.25H4.35001H4.25H4.14999H4.05H3.95H3.85001L3.75 119.35H3.64999L3.55 119.25H3.45H3.35001V119.15H3.25V119.05V118.95L3.35001 118.85V118.75L3.45 118.65H3.55V118.55V118.45V118.35V118.25H3.45V118.15H3.55V118.05H3.45V117.95H3.55H3.64999V117.85H3.55V117.75H3.64999V117.65V117.55H3.75H3.85001V117.45V117.35V117.25V117.15V117.05V116.95V116.85V116.75V116.65V116.55V116.45V116.35M3.85001 116.35H3.75M3.85001 116.35V116.25V116.15H3.75V116.05L3.64999 116.15V116.05V115.95V115.85V115.75V115.65M3.64999 115.65H3.55M3.64999 115.65V115.55H3.55V115.45H3.64999L3.55 115.35V115.25L3.45 115.15V115.05V114.95H3.55M3.55 114.95V115.05M3.55 114.95H3.64999V114.85M3.64999 114.85H3.55M3.64999 114.85H3.75L3.85001 114.75V114.65M3.85001 114.65L3.95 114.75V114.65H3.85001ZM3.85001 114.65V114.55H3.75L3.64999 114.45H3.55H3.45H3.35001V114.35V114.25H3.45V114.15V114.05V113.95H3.55V113.85V113.75V113.65M3.55 113.65H3.64999M3.55 113.65V113.55H3.45V113.45V113.35H3.35001V113.25H3.25V113.15V113.05V112.95H3.14999V112.85V112.75V112.65H3.25V112.55V112.45H3.35001V112.35H3.45H3.55V112.45V112.55H3.64999V112.65H3.75V112.75H3.85001V112.65H3.95H4.05V112.55H4.14999V112.45M4.14999 112.45H4.25M4.14999 112.45V112.35V112.25H4.05V112.15H4.14999V112.05H4.05V111.95H3.95H3.85001V111.85H3.75H3.64999H3.55H3.45V111.75H3.35001H3.25H3.14999V111.65H3.05V111.55H3.14999V111.45H3.25V111.35H3.35001V111.25V111.15H3.45V111.05V110.95V110.85V110.75H3.35001V110.65H3.25V110.55H3.14999V110.45M3.14999 110.45H3.25M3.14999 110.45V110.35H3.05V110.25M3.05 110.25V110.15M3.05 110.25H2.95V110.15M2.95 110.15V110.05M2.95 110.15L2.85001 110.05V109.95V109.85V109.75V109.65V109.55V109.45H2.95V109.35L3.05 109.25V109.15L3.14999 109.05V108.95V108.85H3.25V108.75H3.35001V108.65M3.35001 108.65H3.45M3.35001 108.65V108.55H3.45V108.45V108.35H3.35001V108.25H3.25V108.15V108.05H3.14999V107.95H3.25V107.85H3.35001L3.45 107.95H3.55H3.64999H3.75V107.85V107.75H3.85001V107.65H3.75V107.55H3.64999V107.45L3.55 107.35H3.64999V107.25H3.75V107.15H3.85001H3.95V107.05H4.05V106.95H3.95V106.85H3.85001L3.75 106.75V106.65V106.55V106.45H3.64999V106.35V106.25H3.75V106.15V106.05H3.85001V105.95H3.95H4.05H4.14999H4.25H4.35001L4.45 106.05H4.55V105.95H4.64999H4.75H4.85001H4.95H5.05H5.14999H5.25L5.35001 106.05H5.45H5.55H5.64999V106.15H5.75V106.25H5.85001V106.15V106.05H5.95V105.95V105.85L6.05 105.75H5.95V105.65V105.55H5.85001V105.45L5.75 105.35V105.25H5.85001L5.95 105.15V105.05H6.05V105.15L6.14999 105.05H6.25V104.95L6.35001 104.85H6.45V104.75H6.55V104.65V104.55V104.45L6.45 104.35H6.35001V104.25H6.25V104.15H6.14999H6.05V104.05H5.95V103.95H5.85001V103.85H5.75V103.75V103.65V103.55V103.45H5.85001H5.95H6.05M6.05 103.45V103.35M6.05 103.45H6.14999V103.55H6.25H6.35001V103.65H6.45V103.55H6.55V103.45V103.35H6.45L6.35001 103.25V103.15H6.25V103.05H6.14999V102.95V102.85V102.75H6.25H6.35001H6.45V102.65H6.55M6.55 102.65V102.75M6.55 102.65H6.64999V102.55V102.45H6.55V102.35L6.45 102.25H6.35001V102.15H6.25V102.05H6.14999V101.95H6.05V101.85L5.95 101.75V101.65H6.05V101.55H6.14999V101.45V101.35L6.25 101.25V101.15V101.05V100.95L6.05 100.75L5.95 100.65L5.85001 100.45H5.75L5.55 100.35L5.45 100.15H5.35001L5.25 100.05L5.14999 99.95L5.05 99.85L4.95 99.75V99.65V99.55V99.45V98.85V98.45V98.35H5.05V98.25V98.15V98.05V97.95H5.14999V97.85H5.25H5.35001H5.45V97.95V98.05H5.55V98.15H5.64999V98.25H5.75H5.85001V98.15V98.05V97.95V97.85V97.75V97.65V97.55H5.75V97.45H5.64999H5.55H5.45H5.35001L5.25 97.35V97.25H5.35001V97.15H5.45V97.05H5.55V96.95L5.64999 96.85V96.75L5.75 96.65L5.85001 96.55V96.45H5.95V96.35H5.85001H5.75L5.64999 96.25H5.55H5.45L5.35001 96.15H5.25L5.14999 96.05H5.05L4.95 95.95H4.85001H4.75V95.85H4.64999V95.75V95.65H4.75H4.85001L4.95 95.55L5.05 95.45L5.14999 95.35V95.25V95.15H5.05V95.05H5.14999V94.95V94.85M5.14999 94.85V94.75M5.14999 94.85H5.25V94.75V94.65V94.55V94.45M5.25 94.45H5.14999M5.25 94.45V94.35V94.25H5.35001V94.15H5.45V94.05V93.95H5.35001H5.25V93.85H5.14999H5.05L4.95 93.75M4.95 93.75H4.85001M4.95 93.75V93.65H4.85001L4.95 93.55H5.05V93.45H5.14999L5.05 93.35L4.95 93.25V93.15L4.85001 93.25H4.75V93.15L4.55 92.95L4.45 92.75V92.65H4.35001L4.14999 92.75L4.05 92.65L3.95 92.55L3.85001 92.45H3.75V92.35L3.64999 92.25L3.55 92.15L3.45 92.05L3.35001 91.85V91.75L3.25 91.65V91.55H3.35001V91.45H3.25L3.55 91.15H3.64999V91.05L3.75 90.95V90.85V90.75H3.64999V90.65L3.45 90.55V90.45L3.35001 90.35V90.25V90.15H3.25V90.05L3.14999 89.95V89.85H3.05V89.75H3.14999V89.65V89.45V89.35V89.25V89.15V89.05V88.95V88.85V88.75V88.65V88.55V88.45V88.35V88.25L3.05 88.15V88.05V87.95V87.85V87.75V87.65H2.95L2.85001 87.55L2.75 87.45V87.35H2.64999V87.25H2.55L2.45 87.15H2.35001V87.05H2.25H2.14999V86.95H2.05H1.95V86.85V86.75H1.85001V86.65L1.75 86.55L1.64999 86.45L1.55 86.35V86.25H1.45V86.15L1.35001 86.05H1.25V85.95V85.85V85.75H1.14999H1.05V85.65H0.949997H0.850006H0.75V85.55V85.45L0.850006 85.35V85.25L0.949997 85.15L1.05 85.05H1.14999V84.95H1.25V84.85H1.35001L1.45 84.75L1.55 84.65V84.55H1.45V84.45L1.55 84.35V84.15V84.05V83.95V83.85V83.75H1.64999V83.65L1.85001 83.45H1.95V83.35L2.05 83.25V83.15H2.14999V83.05L2.25 82.95V82.85V82.75L2.35001 82.65V82.55V82.45H2.45H2.55V82.35H2.64999H2.75H2.85001V82.25H2.95H3.05V82.15V82.05V81.95H3.14999V81.85H3.25V81.95H3.35001H3.45H3.55H3.64999L3.75 82.05V82.15V82.25H3.64999V82.35V82.45H3.75V82.55V82.65H3.85001H3.95H4.05H4.14999V82.55H4.25H4.35001V82.45H4.45V82.35H4.55H4.64999V82.25M4.64999 82.25H4.55M4.64999 82.25V82.15V82.05H4.55V81.95H4.45V81.85V81.75V81.65V81.55H4.35001V81.45V81.35V81.25V81.15L4.45 81.05V80.95H4.35001V80.85V80.75V80.65H4.25V80.55L4.14999 80.45L4.05 80.35V80.25V80.15V80.05V79.95H4.14999V79.85H4.25H4.35001V79.75V79.65V79.55V79.45V79.35V79.25V79.15L4.25 79.05L4.14999 78.95H4.05V78.85L3.95 78.75V78.65V78.55H3.85001V78.45H3.75V78.35V78.25V78.15H3.64999V78.05V77.95V77.85V77.75H3.75H3.85001H3.95H4.05V77.65H4.14999V77.55V77.45H4.25V77.35H4.35001V77.25H4.45V77.15V77.05V76.95H4.55L4.64999 76.85H4.75V76.75H4.85001V76.65H4.95V76.55V76.45H5.05V76.35V76.25H5.14999V76.15V76.05V75.95V75.85V75.75L5.25 75.65H5.35001H5.45V75.55H5.55H5.64999H5.75V75.65H5.85001L5.95 75.75H6.05L6.14999 75.85H6.25L6.35001 75.95H6.45V75.85L6.55 75.75L6.64999 75.65H6.75L6.85001 75.55V75.45V75.35H6.95V75.25V75.15L6.85001 74.95V74.85L6.75 74.75V74.65L6.64999 74.55V74.45V74.35L6.75 74.25H6.85001H6.95H7.05H7.14999V74.15H7.25L7.35001 74.05L7.25 73.95V73.85L7.14999 73.75V73.65V73.55V73.45V73.35V73.25V73.15L7.05 73.05V72.95H6.95V72.85L6.85001 72.75H6.75L6.64999 72.65H6.55V72.55L6.45 72.45L6.35001 72.35L6.25 72.25V72.15H6.14999V72.05H6.05V71.85L5.95 71.75V71.65L5.85001 71.35L5.75 71.25V71.15H5.64999L5.45 71.05L5.35001 70.95H5.25H5.14999L5.05 70.85L4.95 70.75L4.85001 70.65V70.55V70.45H4.75H4.64999V70.35H4.55L4.45 70.25H4.35001H4.25L4.14999 70.15H4.05L3.95 70.05H3.85001H3.75H3.64999H3.55L3.45 69.95H3.35001L3.25 69.85V69.75V69.65H3.14999L3.25 69.55H3.35001V69.45H3.45V69.35L3.55 69.25V69.15H3.64999V69.05L3.75 68.95V68.85H3.85001V68.75V68.65H3.95L4.05 68.55L4.14999 68.45L4.25 68.35V68.25L4.35001 68.15V68.05V67.95H4.45V67.85H4.55H4.64999H4.75L4.85001 67.75H4.95H5.05V67.65H5.14999H5.25V67.55H5.35001L5.55 67.35L5.64999 67.25H5.75L5.85001 67.15V67.05L5.75 66.95V66.85V66.75V66.65V66.55V66.45V66.35V66.25V66.15V66.05L5.64999 65.95V65.85L5.55 65.75V65.65V65.55V65.45V65.35L5.45 65.25V65.15V65.05H5.55H5.64999V64.95V64.85H5.75L5.64999 64.75H5.55H5.35001L5.25 64.65H5.14999H5.05V64.55H4.95V64.45H4.85001V64.35V64.25V64.15L5.05 63.65V63.55V63.45H4.95V63.35L4.85001 63.25V63.15H4.75H4.64999V63.05H4.55V62.95V62.85V62.75V62.65H4.64999V62.55L4.55 62.45V62.35H4.45V62.25V62.15H4.35001V62.05H4.25H4.14999V61.95V61.85H4.05V61.75V61.65V61.55V61.45V61.35V61.25H3.95H3.85001H3.75H3.64999H3.55V61.15V61.05L3.45 60.95V60.85H3.35001V60.75L3.25 60.65H3.14999V60.55V60.45V60.35V60.25L3.05 60.15H2.95V60.05H2.85001V59.95L2.95 59.85V59.75H2.85001V59.65V59.55V59.45L2.95 59.35V59.25H2.85001M2.85001 59.25V59.35M2.85001 59.25H2.75H2.64999H2.55V59.15V59.05H2.64999V58.95H2.75L2.95 58.65L3.05 58.55L3.14999 58.45V58.35H3.25V58.25L3.35001 58.15V58.05L3.55 57.95L3.64999 57.75M3.64999 57.75H3.75M3.64999 57.75V57.65H3.55L3.45 57.45V57.35H3.35001L3.25 57.25H3.14999L3.05 57.15H2.95V57.05H2.85001H2.75H2.64999H2.55H2.45V56.95H2.35001H2.25V56.85H2.14999V56.75H2.05H1.95V56.65L1.85001 56.55H1.75V56.45V56.35V56.25V56.15V56.05V55.95L1.55 55.85V55.75H1.45H1.35001H1.25V55.65L1.14999 55.55L0.850006 55.45H0.75H0.550003L0.350006 55.35L0.25 55.25V55.15V54.95V54.75L0.350006 54.65V54.55L0.449997 54.45V54.35H0.550003V54.25M0.550003 54.25H0.449997M0.550003 54.25V54.15V54.05H0.649994V53.95H0.75L0.850006 53.85H1.05V53.75H1.14999L1.25 53.65H1.35001V53.55H1.45H1.55L1.64999 53.45L1.75 53.35H1.85001H1.95L1.85001 53.15L1.64999 52.85L1.55 52.55L1.45 52.45V52.25L1.35001 51.75H1.25V51.65L1.14999 51.15V51.05L0.949997 50.65L0.850006 50.35V50.25L0.949997 50.15L1.05 50.05V49.95V49.85V49.75V49.65V49.25V49.15L1.14999 49.05H1.25H1.35001V48.95V48.85V48.75L1.45 48.65V48.55L1.55 48.45H1.64999H1.75H1.85001L1.95 48.35H2.05V48.25H2.14999L2.05 48.05V47.95H2.14999V47.85M2.14999 47.85H2.05M2.14999 47.85V47.75H2.25H2.35001H2.45H2.55L2.64999 47.85H2.75H2.85001H2.95H3.05H3.14999H3.25H3.45H3.55H3.64999H3.75V47.75V47.65V47.55H3.85001V47.45V47.35V47.15V47.05V46.95L3.95 46.85V46.65L4.05 46.55V46.45V46.35V46.25L4.14999 46.15V46.05V45.95H4.05H3.95H3.85001L3.95 45.75H3.85001H3.75H3.64999V45.65H3.55H3.45H3.35001H3.25H3.14999H3.05V45.55H2.95V45.45H2.85001H2.75L2.64999 45.35H2.55V45.45L2.45 45.35V45.25L2.55 45.15H2.64999V45.05H2.75H2.85001V44.95H2.95L3.05 44.85H3.14999V44.75H3.25V44.65H3.35001L3.45 44.55L3.55 44.45H3.64999V44.35H3.75H3.85001H3.95H4.05H4.14999H4.25H4.35001H4.45L4.55 44.15V44.05V43.85V43.75V43.65H4.64999H4.85001H4.95V43.55H5.05V43.45H4.95V43.35V43.25H4.85001L4.95 43.15V43.05H4.85001V42.95H4.75V42.85V42.65V42.55H4.64999V42.45H4.55V42.35H4.45L4.35001 42.25L4.25 42.15H3.95L3.75 42.05V41.95M3.75 41.95H3.64999M3.75 41.95V41.75L3.95 41.25L3.64999 41.05V40.95L3.75 40.75V40.65V40.55L3.85001 40.45V40.35V40.25V40.15V40.05V39.95H3.75V39.85V39.75V39.65H3.64999V39.55H3.75H3.95L4.14999 39.45H4.55H4.64999H4.75L4.95 39.35H5.05H5.35001H5.45H5.55H5.64999L5.85001 39.25H6.05H6.14999H6.25H6.35001H6.64999H6.75H6.85001L7.35001 39.15V38.95V38.85V38.75V38.65V38.55V38.35L7.14999 38.25L7.05 38.15L6.95 38.05H6.85001V37.95L6.55 37.75L6.45 37.65L6.35001 37.55L6.25 37.45L6.05 37.35L5.95 37.25L5.85001 37.15H5.75L5.64999 37.05L5.45 36.95V36.85V36.75L5.55 36.65L5.85001 35.95H5.75L5.64999 35.85H5.55H5.45L5.35001 35.95H5.25V36.05H5.14999H5.05H4.95H4.85001V35.95V35.85V35.75H4.75L4.64999 35.65H4.55V35.55H4.45V35.45H4.35001V35.35H4.25V35.25H4.14999V35.15H4.05V35.05V34.95H4.14999L4.55 34.85V34.75L4.45 34.65V34.55V34.45H4.55V34.35H4.64999L4.75 34.25L4.64999 34.15L4.55 34.05L4.45 33.85L4.35001 33.75V33.65H4.25V33.55V33.45L4.35001 33.35L4.55 33.25H4.64999V33.15H4.75V33.25H4.85001V33.35H4.95V33.45V33.55H5.05V33.65L5.14999 33.75V33.65H5.25H5.35001H5.45H5.55H5.64999M5.64999 33.65V33.55M5.64999 33.65L5.75 33.55H5.85001H5.95V33.45V33.35H6.05H6.14999V33.25H6.25M6.25 33.25V33.35M6.25 33.25V33.15H6.35001H6.45H6.55V33.05H6.64999H6.75V33.15H6.85001V33.25H6.95H7.05H7.14999H7.25V33.15H7.35001V33.05H7.45V32.95H7.55L7.64999 32.85H7.75M7.75 32.85H7.85001M7.75 32.85V32.95H7.85001H7.95H8.05M8.05 32.95V33.05M8.05 32.95H8.14999V32.85V32.75V32.65V32.55H8.25V32.45H8.35001L8.45 32.35V32.25V32.15H8.55V32.05H8.64999L8.75 31.95V31.85V31.75H8.85001L8.95 31.65V31.55V31.45V31.35V31.25H8.85001V31.15H8.75V31.05H8.85001V30.95V30.85H8.95V30.75V30.65V30.55V30.45H9.05H9.14999V30.35H9.25H9.35001V30.25H9.45001V30.15V30.05V29.95H9.54999M9.54999 29.95V30.05M9.54999 29.95H9.64999V29.85V29.75H9.75M9.75 29.75V29.85M9.75 29.75V29.65H9.85001V29.55H9.95001V29.45V29.35M9.95001 29.35H9.85001M9.95001 29.35L9.85001 29.25M9.85001 29.25H9.95001M9.85001 29.25V29.15H9.95001V29.05H10.05H10.15V28.95H10.25V28.85H10.35V28.75H10.45H10.55H10.65V28.65H10.75M10.75 28.65V28.75M10.75 28.65H10.85V28.55M10.85 28.55H10.75M10.85 28.55V28.45H10.95M10.95 28.45V28.55M10.95 28.45H11.05H11.15H11.25V28.35V28.25H11.35V28.15H11.45V28.05H11.55V27.95H11.65L11.75 27.85V27.75V27.65V27.55V27.45H11.85H11.95V27.35H12.05H12.15H12.25H12.35V27.45H12.45V27.35H12.55V27.45H12.65V27.35H12.75H12.85V27.25V27.15H12.95V27.05H12.85V26.95M12.85 26.95H12.75M12.85 26.95H12.95V26.85H12.85V26.75H12.95H13.05M13.05 26.75V26.65M13.05 26.75H13.15V26.65V26.55H13.25H13.35M13.35 26.55V26.45M13.35 26.55H13.45V26.45H13.55V26.35H13.65V26.45H13.75H13.85M13.85 26.45H13.95M13.85 26.45V26.55H13.95M13.95 26.45V26.55M13.95 26.45H14.05M13.95 26.55L14.05 26.45M13.95 26.55H14.05M14.05 26.45V26.55M14.05 26.55H14.15H14.25M14.25 26.55V26.65H14.15M14.25 26.55H14.35V26.65H14.45V26.55H14.55M14.55 26.55H14.65M14.55 26.55V26.65H14.65M14.65 26.65H14.75M14.65 26.65V26.75H14.75V26.65M14.75 26.65H14.85H14.95M14.95 26.65V26.75M14.95 26.65H15.05V26.55H15.15V26.65V26.75H15.25M15.25 26.75V26.65M15.25 26.75H15.35H15.45V26.65H15.55V26.75H15.65H15.75H15.85V26.65M15.85 26.65H15.75M15.85 26.65V26.55H15.95H16.05V26.45H16.15V26.55H16.25V26.45H16.35H16.45L16.55 26.55H16.45V26.65H16.35V26.75H16.55H16.75H16.95H17.15H17.25H17.35L17.45 26.65L17.55 26.55L17.65 26.45L17.75 26.35H17.95H18.25L18.45 26.45V26.55H18.65H18.75L18.95 26.65H19.05L19.15 26.45L18.45 26.15L18.55 26.05L18.65 25.95L18.75 25.85L18.65 25.75L18.55 25.65L18.45 25.55V25.45H18.55L18.45 25.35V25.25V25.15L18.55 25.05L18.65 24.95H18.75H18.85V25.05H18.95V24.95L19.05 24.85H19.15L19.25 24.95L19.45 25.15L19.55 25.05V24.95V24.85L19.45 24.75H19.35L19.25 24.65V24.55V24.45L19.35 24.35L19.55 24.45V24.35V24.05V23.95L19.65 23.85H19.75H19.85L19.95 23.75V23.65V23.45L19.85 23.35L19.75 23.25L20.15 22.75L20.25 22.85L20.45 23.15L20.75 23.05H20.85H21.25L21.05 22.45L20.95 22.15L21.15 22.25H21.35H21.55H21.75H21.85L21.95 22.05V21.95V21.85H21.85L21.75 21.75L21.45 21.25H21.55L21.65 21.15H21.75L22.35 20.85L22.65 20.75L22.75 20.65L23.05 20.45H23.15V20.35L23.25 20.25V20.15V20.05V19.95V19.85V19.75H23.35V19.65V19.55H23.45V19.45L23.55 19.35V19.15L23.65 19.05L23.95 18.25L24.05 18.15H24.15H24.25L24.55 18.05H24.65H24.75L24.95 17.95V18.05H25.05H25.15H25.25V18.15H25.35H25.45V18.25H25.55L25.95 18.35L26.25 18.55V18.45V18.35H26.35V18.25V18.15V18.05L26.45 17.95V17.85V17.75V17.65L26.55 17.55V17.45V17.35L26.65 17.25V17.15V16.95L26.75 16.85V16.75V16.65V16.55L26.85 16.45V16.35H26.95H27.05V16.45H27.15H27.25H27.35H27.45H27.55H27.65H27.75V16.55H27.85H27.95L28.05 16.45V16.35V16.25V16.05L28.15 15.85V15.75V15.65V15.55L28.25 15.35V15.25V15.15V15.05L28.35 14.95V14.85V14.65V14.55V14.45H28.45V14.15H28.65H28.75V14.25H28.85H28.95H29.05L29.25 14.35H29.45H29.55V14.25V14.15V14.05V13.95L29.65 13.85V13.75V13.65V13.55V13.35V13.25V13.05V12.95V12.65V12.45V12.35L29.75 12.15M29.75 12.15V12.05M29.75 12.15H29.85H29.95L30.05 12.25H30.15H30.25H30.35H30.65H30.75V11.75L30.85 11.65V11.55H30.75V11.45L30.65 11.35H30.55L30.45 11.25H30.35V11.15H30.25L30.35 11.05V10.85H30.45L30.65 10.75V10.65V10.55V10.45V10.35V10.25V10.15V10.05H30.75L30.65 9.95V9.84999V9.75V9.64999V9.54999H30.85V9.45H31.15V9.54999V9.64999L31.25 9.75V9.84999V9.95V10.05L31.15 10.15V10.25V10.35L31.05 10.45V10.55V10.65H30.95V10.85H31.15L31.45 10.75H31.65L31.85 10.65V10.75H31.95L32.15 10.85V10.65L32.25 10.55V10.45V10.35H32.35V10.45L32.45 10.55V10.65H32.55V10.55L32.65 10.45V10.35L32.75 10.45H32.85H32.95H33.05H33.15V10.35H33.25V10.15V10.05V9.95H33.35V9.75H33.15L32.95 9.84999H32.85H32.75H32.65V10.05H32.55L32.05 10.15H31.95V10.05V9.75V9.64999H32.05L32.25 9.54999H32.35L32.25 9.04999L32.35 8.95L32.25 8.84999L32.35 8.75L32.15 8.64999L32.25 8.54999V8.45H32.45V8.54999H32.65H32.75L32.85 8.34999L32.95 8.25V8.14999V8.04999V7.95L32.85 7.84999H32.75L32.85 7.75V7.64999H32.95H33.05H33.15L33.25 7.54999H33.35H33.45H33.55H33.65H33.75L33.85 7.64999H33.95H34.05H34.15H34.25H34.35V7.54999H34.45H34.65H34.75H34.85V7.45V7.25L34.95 7.14999V7.04999L34.85 6.84999V6.64999L34.95 6.54999L35.05 6.25L35.25 6.14999V6.04999V5.95H35.35H35.45H35.65V6.04999L35.75 6.25L35.85 6.54999L36.05 6.64999L36.15 6.75H36.25L36.45 6.95L36.65 7.04999H36.75L36.95 6.64999V6.54999L37.15 6.45V6.34999H37.25L37.55 6.14999L37.65 6.04999L37.75 5.75V5.54999L37.85 5.34999L37.95 5.25V5.14999V5.04999H38.05V4.95H38.15V4.84999L38.25 4.75H38.35V4.64999H38.45V4.54999H38.55L38.65 4.34999L38.85 4.25L38.95 4.14999L39.25 4.34999L39.35 4.45V4.54999H39.45L39.55 4.64999L39.75 4.75V4.84999H39.85H39.95H40.05L40.25 4.95H40.35L40.45 5.04999L40.55 5.14999H40.65V5.25H40.75L40.85 5.34999H40.95H41.05V5.45L41.15 5.34999H41.25H41.35V5.45H41.45H41.55H41.65H41.75H41.95H42.15H42.25H42.35V5.54999H42.45H42.55V5.64999H42.65H42.75V5.75H42.85V5.84999H42.95L43.15 5.95V5.84999L43.25 5.75V5.64999V5.54999L43.35 5.45V5.25L43.45 5.14999L43.65 5.04999L43.75 4.95H43.85L43.95 4.84999L44.35 4.64999L44.45 4.54999V4.45V4.34999L44.55 4.25L44.65 3.95V3.75L44.85 3.34999V3.14999H45.05L45.15 3.25H45.25H45.35L45.55 3.34999H45.65H45.75L45.85 3.45H45.95H46.05L46.15 3.54999H46.25L46.35 3.64999H46.45H46.55H46.65L46.75 3.75H46.85H46.95H47.05H47.15H47.25H47.35H47.65L47.85 3.45L47.75 3.34999L47.65 3.25H47.55V3.14999L47.25 2.84999L47.35 2.75V2.64999H47.45V2.54999V2.45H47.55V2.34999V2.25V2.14999L47.65 1.95V1.84999V1.75H47.75H47.85H47.95L47.85 1.64999L47.95 1.45V1.25L48.05 1.14999L48.15 1.25L48.25 1.34999L48.35 1.45H48.45V1.25L48.55 1.14999V1.04999V0.949997V0.849991H48.65H48.75V0.949997H48.85H48.95L49.05 1.04999H49.15V1.14999H49.25V1.04999H49.35V0.949997L49.45 0.849991V0.75V0.649994V0.549988H49.55H49.65L49.55 0.449997H49.65V0.349991H49.75H49.85L49.95 0.25V0.349991V0.449997V0.549988H50.05V0.649994H50.15H50.25V0.75H50.35H50.45H50.55V0.849991V0.949997V1.04999L50.45 1.34999H50.55L50.45 1.84999H50.35V1.95H50.25V2.04999L50.35 2.14999L50.45 2.34999V2.45V2.54999L50.55 2.64999V2.75V2.84999V2.95H50.65H50.75H50.85H50.95L51.15 2.84999H51.25H51.45H51.55L51.65 2.75H51.75L51.95 2.84999H52.05H52.15H52.25H52.35H52.45V2.95H52.55H52.65H52.85H52.95H53.05H53.25H53.45H53.55H53.65L53.75 2.84999H53.85H53.95V2.95V3.04999V3.25V3.34999V3.45V3.54999V3.64999L54.05 3.84999V3.95L54.15 4.04999V4.14999H54.25V4.25V4.34999L54.35 4.45V4.54999V4.64999V4.84999L54.45 5.04999V5.14999V5.25H54.55L54.65 5.34999L54.85 5.45H55.05L55.15 5.54999H55.25L55.35 5.64999M55.35 5.64999H55.45M55.35 5.64999V5.75V5.84999L55.45 5.95H55.55H55.65L55.95 6.14999L56.15 6.25L56.45 6.45L56.75 6.64999H56.85L57.05 6.75L57.25 7.04999V7.14999L57.15 7.84999L57.25 7.95V8.04999V8.14999L57.35 8.25H57.45V8.34999V8.45H57.55H57.75L57.85 8.54999H57.95H58.05L58.15 8.45L58.25 8.34999H58.35H58.45L58.55 8.25H58.65H58.75V8.34999L58.85 8.25H58.95H59.05L59.15 8.34999M59.15 8.34999H59.25M59.15 8.34999V8.45V8.54999V8.64999V8.75L59.05 8.84999V8.95V9.04999H58.95V9.14999L58.85 9.25V9.34999L58.75 9.45V9.54999L58.65 9.64999V9.75V9.84999V9.95V10.05V10.15V10.25V10.35V10.45V10.55V10.85H58.75V10.95V11.05V11.15H58.65V11.25V11.35L58.55 11.45L58.45 11.55L58.25 11.85V11.95L58.15 12.05V12.15L58.05 12.35H57.95V12.45H57.85V12.55L57.75 12.65L57.65 12.85L57.55 12.95V13.05L57.45 13.15V13.25L57.35 13.35V13.45L57.15 13.55L57.05 13.75V13.85V13.95L56.95 14.15V14.35V14.45L56.85 14.65V14.75L56.75 15.45L56.55 16.25L56.75 16.45H56.95L57.15 16.65L57.35 16.75H57.45L57.65 16.85L57.75 16.95H57.85H57.95V17.05L58.15 17.15L58.45 17.25L59.05 17.65H59.15M59.15 17.65V17.55M59.15 17.65H59.35L59.45 17.75L59.75 17.95L60.25 18.25V18.35H60.15V18.45V18.55H60.25V18.65V18.75V18.85V19.05V19.25V19.35M60.25 19.35H60.35M60.25 19.35L60.15 19.75V19.85V19.95H60.05L59.95 20.15L59.85 20.25V20.35L59.75 20.45V20.55L59.85 20.65V20.85V20.95L59.95 21.05V21.15H60.15V21.05H60.25H60.35L60.65 20.95V21.05H60.75H60.85H60.95H61.15L61.35 20.95L61.45 21.05L61.75 21.15H61.85H62.15V21.05H62.25H62.35V21.15H62.45V21.25H62.55L62.65 21.35H62.75V21.45L63.45 21.95L63.55 22.05H63.65L63.85 22.15L64.35 22.65L64.75 22.85L64.95 22.95L65.05 23.05V23.15V23.35V23.55V23.65H65.15V23.75V23.95H65.05V24.05H64.95V23.95H64.85V24.05H64.75H64.65H64.55H64.45H64.35V24.15H64.45L64.55 24.25H64.65L64.55 24.45H64.45H64.35H64.25L64.15 24.35L63.95 24.25L63.75 24.45L63.85 24.55H63.95V24.65H64.05V24.55H64.15V24.65V24.75H64.25V24.85H64.35V24.95L64.45 25.05H64.55V25.15H64.65V25.25H64.75V25.35L64.85 25.45L64.95 25.55V25.65H65.05H65.15V25.75H65.25V25.85H65.35V25.65V25.55V25.45L65.65 25.55H65.85H65.95H66.25H66.45V25.95L66.35 26.25V26.65L67.25 26.85V26.95H68.25V27.05V27.15V27.25V27.35V27.45L68.35 27.65L68.45 27.85L68.55 27.95V28.05V28.15L68.65 28.25V28.35V28.45H68.75L68.85 28.55H68.95L69.05 28.65L69.15 28.75H69.25V28.85H69.35L69.45 28.95H69.55L69.65 29.05L69.75 29.15L69.85 29.25H69.95L70.05 29.35H70.15V29.45H70.25L70.35 29.55H70.45H70.55L70.65 29.45V29.35V29.25H70.75V29.15L70.85 29.05V28.95L70.95 28.85V28.75L71.05 28.65V28.55L71.15 28.45V28.35L71.25 28.25V28.15L71.35 28.05V27.95V27.85H71.45H71.75H71.85H71.95H72.05H72.15V27.95H72.25L72.35 27.85V27.75H72.45H72.55V27.65V27.55V27.45V27.35H72.65H72.75H72.85V27.25H72.95V27.15L73.05 27.05V26.95L73.15 26.85H73.25H73.35H73.45H73.65H73.75H73.85H73.95H74.05H74.15V26.95V27.15V27.25V27.35L74.25 27.65V27.75V27.85L74.35 27.95V28.05V28.15V28.25V28.35V28.45V28.55L74.25 28.65V28.75V28.85V28.95V29.15H74.15L74.05 29.05L73.95 29.15V29.25V29.35V29.55V29.65V29.85V29.95V30.05V30.15V30.25H74.05H74.15H74.25H74.35H74.45V30.35H74.55H74.65V30.45V30.55V30.65H74.75V30.75V30.85V30.95V31.05V31.15V31.25V31.35V31.45H74.85V31.55V31.65H74.75M74.75 31.65H74.65V31.75H74.75M74.75 31.65V31.75M74.75 31.75H74.85V31.85V31.95H74.95V31.85H75.05V31.75H75.15V31.65H75.25H75.35V31.55H75.45V31.65V31.75V31.85V31.95V32.05V32.15V32.35H75.35V32.75V32.85V33.45V33.55V33.65V33.95H75.45L75.75 33.85L76.35 33.65V33.35L76.25 32.85L76.15 32.45L76.25 32.35H76.35L76.95 32.15L77.15 32.05H77.25L77.45 31.95V32.05H77.55L77.45 32.15V32.25V32.35V32.45V32.55V32.65V32.75V32.85V32.95V33.05L77.55 33.15H77.45V33.25V33.35V33.45H77.55V33.55L77.45 33.65V33.75V33.85L77.55 33.95H77.65V34.05L77.85 34.15V34.25H77.95V34.35H78.05V34.45L78.15 34.55H78.25L78.15 34.65V34.75V34.85H78.05V34.95L77.95 35.15H77.85L77.35 35.25H76.85V35.75H76.75V35.95H76.35H76.15V35.85H76.05V35.75H75.95H75.85V35.85V35.95V36.05L75.95 36.15L75.85 36.45L75.95 36.55L75.85 36.65V36.75H75.75H75.65V37.25L75.55 37.55L76.25 38.05V38.15H76.15H76.05H75.95H75.85V38.25V38.45H75.75H75.65H75.55L75.45 38.75V38.85V39.05H75.55M75.55 39.05V39.15M75.55 39.05H75.65L75.75 39.15M75.75 39.15H75.85M75.75 39.15V39.25L75.65 39.35V39.45L75.55 39.55L75.35 39.95L75.05 40.45L75.35 40.55L75.55 40.65H75.65H75.85L76.05 40.75H76.15H76.25L76.45 40.85H76.65L76.75 40.95H76.85H77.15V41.05H77.25H77.45L77.65 41.15H77.75V41.25V41.35V41.45H77.85V41.55V41.65L77.95 41.75H78.05V41.85V41.95H78.15V42.05V42.15H78.25V42.25V42.35H78.15L78.25 42.45V42.55H78.15V42.65H78.05V42.75V42.85H78.15V42.95H78.25V43.05V43.15V43.25H78.35V43.35V43.45L78.45 43.55H78.35V43.65H78.25V43.75V43.85V43.95H78.15V44.05H78.25V44.15M78.25 44.15H78.35M78.25 44.15H78.15V44.25H78.25V44.35H78.35V44.45V44.55H78.25V44.65H78.15H78.05V44.75V44.85V44.95H77.95V45.05H77.85V45.15V45.25H77.75H77.15L77.25 45.15V44.85V44.75V44.65H77.15H77.05M77.05 44.65V44.55M77.05 44.65H76.95V44.55H76.85H76.75V44.45H76.65M76.65 44.45V44.35M76.65 44.45H76.55V44.35H76.45H76.35V44.45L76.25 44.55L76.15 44.75L76.05 44.85L75.95 44.95V45.05L75.85 45.15V45.25L75.75 45.35L75.65 45.45L75.55 45.65L75.45 45.75V45.85L75.35 45.95L75.25 46.05V46.15H75.15V46.25V46.35L75.05 46.45L74.95 46.55V46.65L74.85 46.75H74.75L74.65 46.65H74.55V46.55H74.45L74.35 46.45H74.25V46.35H74.15L74.05 46.25H73.95V46.15H73.85L73.75 46.05H73.65L73.55 45.95H73.45V45.85H73.35H73.25H73.15H73.05L72.95 45.75H72.85V45.65L72.75 45.75H72.65M72.65 45.75V45.85M72.65 45.75H72.55H72.45V45.85H72.35V45.95V46.05V46.15H72.25V46.25H72.15L72.05 46.35H71.95H71.85H71.75H71.65H71.55V46.45V46.55V46.65V46.75V46.85V46.95V47.05H71.65V47.15V47.25V47.35V47.45V47.55H71.75V47.65V47.75H71.85V47.85V47.95V48.05H71.95V48.15V48.25H72.05V48.35H72.15V48.45H72.25H72.35V48.55V48.65V48.75V48.85V48.95V49.05V49.15V49.25H72.45V49.35V49.45V49.55V49.65V49.75V49.85V49.95V50.05L72.55 50.15V50.25V50.35V50.45V50.55H72.65V50.65H72.75L72.85 50.75V50.85L72.95 50.95V51.05V51.15H73.05V51.25L72.95 51.35H72.85H72.75V51.45H72.65L72.55 51.35H72.45V51.45H72.35H72.25V51.55H72.15H72.05V51.65V51.75V51.85H72.15V51.95V52.05V52.15V52.25H72.05V52.35H71.85H71.65V52.45V52.55V52.65V52.75V52.85V52.95V53.05V53.15V53.25V53.45V53.55V53.65V53.75V53.85H71.75V54.05V54.25V54.35V54.45H71.65V54.55V54.65V54.75H71.55V54.85H71.65V54.95L71.75 55.05H71.85H71.95H72.05V54.95H72.15H72.25H72.35H72.45V54.85H72.35V54.75V54.65V54.55V54.45V54.35H72.45H72.55H72.65H72.75H72.85L72.95 54.45V54.55H73.05V54.65V54.75H73.15L73.25 54.85H73.35V54.95H73.45L73.55 55.05V55.15H73.65V55.25H73.75V55.35H73.85H73.95V55.45H74.05V55.65V55.75V55.85H74.15H74.25V55.75H74.35H74.45H74.55H74.65V55.85L74.75 55.75H74.95L75.05 55.65L75.15 55.55H75.25L75.35 55.65H75.45H75.55V55.75L75.45 55.85V55.95L75.35 56.05H75.25V56.15V56.25L75.15 56.35V56.45H75.05V56.55L74.95 56.65V56.75L74.85 56.85L74.75 56.95L74.85 57.05H74.95V57.15H75.05V57.25V57.35V57.45V57.55V57.65V57.75V57.85V57.95H75.15H75.25V58.05H75.35V58.15H75.45L75.35 58.25V58.35V58.45H75.25V58.55V58.65L75.35 58.75V58.85H75.45H75.55V58.95H75.65V59.05V59.15H75.55L75.65 59.25H75.55L75.45 59.35H75.35V59.45L75.45 59.55V59.65H75.35V59.75L75.45 59.85H75.35V59.95H75.45H75.55V60.05V60.15H75.65H75.75V60.25V60.35V60.45H75.85V60.55H75.95V60.65H76.05V60.75V60.85H75.95V60.95V61.05H76.05M76.05 61.05H76.15M76.05 61.05V60.95H76.15H76.25V61.05V61.15H76.15V61.25M76.15 61.25H76.25M76.15 61.25V61.35H76.25H76.35V61.45V61.55H76.45V61.65V61.75H76.35V61.85V61.95H76.45V62.05H76.55V62.15V62.25V62.35H76.65H76.75V62.45H76.85M76.85 62.45V62.35M76.85 62.45V62.55H76.95H77.05V62.65V62.75M77.05 62.75H76.95M77.05 62.75V62.85H77.15M77.15 62.85V62.75M77.15 62.85H77.25V62.95H77.35V63.05H77.25H77.15V63.15H77.25V63.25H77.35V63.35H77.45V63.25L77.55 62.95V62.85L77.65 62.65V62.45L77.75 62.35M77.75 62.35V62.25M77.75 62.35H77.85H77.95H78.05V62.45H78.15H78.25H78.35L78.45 62.55H78.55H78.65V62.65H78.75L78.85 62.75H78.95V62.65L79.05 62.45V62.35L79.15 62.25V62.15L79.25 62.25H79.35H79.45H79.55L79.65 62.35H79.75H79.85H79.95H80.05L80.15 62.45H80.25L80.35 62.65L80.45 62.75L80.55 62.85H80.65V62.95V63.05V63.15L80.55 63.25V63.35V63.45H80.45V63.55L80.55 63.65L80.45 63.85H80.35V63.95H80.25V64.05H80.15V64.15L80.05 64.25H79.95H79.85V64.35L79.75 64.45H79.65V64.55V64.65V64.75L79.55 64.95V65.25V65.35M79.55 65.35H79.45" stroke="white" stroke-width="0.5" stroke-linecap="round" stroke-linejoin="round"/>
</svg>
