<svg width="167" height="139" viewBox="0 0 167 139" fill="none" xmlns="http://www.w3.org/2000/svg">
<path d="M18.55 136.35L18.35 136.25H18.15V136.15L18.25 135.85V135.65L18.35 135.35L18.45 134.85H18.55H18.65L18.75 134.95H18.95L19.15 134.75V134.65H19.55L19.75 134.75H20.15L20.25 134.45V134.15L20.35 133.75V133.65V133.45L20.45 133.35V133.25V133.15H20.35V132.95L20.15 133.15H20.05H19.95L19.65 133.05L19.55 132.85L19.75 132.65L19.85 132.55H19.95H20.05H20.15L20.25 132.65H20.35V132.75H20.45V132.65H20.55H20.65H20.75H20.85L20.95 132.75L21.05 132.85L21.15 132.75V132.65V132.55H21.05V132.45V132.25L21.15 131.95V131.55V131.45H21.05L21.15 131.25V131.15H21.05H20.95L20.85 131.05V130.95H20.65H20.55L20.65 130.75H20.55V130.45L20.45 130.35L20.35 130.25V129.95L20.45 129.85V129.75L20.35 129.65V129.55V129.05V128.95L20.45 128.75V128.65V128.55H20.25L19.75 128.15L19.35 128.05L18.95 127.85L18.65 127.75L18.05 127.85L17.95 127.75L17.75 127.55L17.65 127.25L17.55 127.15V127.05V126.95L17.45 126.85H17.55L17.65 126.45V126.15L17.75 126.05L17.65 125.85H17.85H18.05L18.45 125.75H18.55L18.65 125.65H18.95H19.25V125.75L19.35 125.65H19.45L19.55 125.55H19.65V125.45V125.35V125.25L19.55 125.15H19.45V124.95H19.55V124.85V124.75V124.55V124.45L19.65 124.35L19.75 124.25V124.15V124.05L19.65 123.75L19.05 123.85L18.95 123.65V123.35H18.65L18.55 123.25L18.45 123.15V122.95V122.65L18.05 122.75L17.95 122.05L17.35 122.15L17.25 121.85V121.75V121.65V121.55L17.35 121.45L17.45 121.25L16.65 121.15L15.95 121.05L15.65 120.75L15.35 120.45L15.05 120.15L14.85 119.95L14.45 119.55L14.15 119.15L13.75 118.75L13.65 118.65L13.15 118.95L13.35 118.25H13.15L13.25 117.95L12.85 117.85L13.15 117.35L13.05 117.25L13.15 117.15L13.25 116.75L13.35 116.65L13.45 116.25L13.75 116.35L14.15 116.55L14.25 116.25V116.15V116.05V115.95H14.15V115.85H14.05V115.75V115.65H13.95V115.55V115.45L13.75 115.35H13.65L13.35 114.85L13.15 114.65L13.05 114.45L13.35 114.35V114.05H13.05L12.75 113.95L12.55 113.85H12.45L11.05 113.45H10.85L10.05 113.25L10.15 113.15V113.05H10.25L10.35 112.85H10.25H10.05L9.94998 112.75H9.84998H9.75H9.64999L9.54999 112.65L9.44998 112.55L9.34998 112.45L9.25 112.35H9.14999H9.04999L8.94998 112.45H8.84998L8.75 112.55L8.64999 112.45L8.34998 112.35V112.25V112.05V111.75L8.25 111.35V110.95V110.45V109.95V109.55L8.14999 108.95V108.85V108.15V107.65H8.04999L7.84998 107.55H7.75L7.44998 107.35L7.14999 107.25V107.15H7.04999H6.84998L6.54999 107.05V106.95V106.65V106.15L6.44998 105.85V105.55V105.05V104.95L6.34998 104.85L6.44998 104.65L6.34998 104.55V104.45H6.25L6.14999 104.35V104.25H6.04999H5.94998H5.84998H5.75V104.15H5.64999H5.54999V104.05L5.44998 103.95V103.85V103.75H5.54999H5.64999L5.94998 103.65L6.04999 103.55L6.14999 103.45L6.54999 103.25L6.64999 103.15V103.05H6.75V102.95L6.44998 102.85H6.34998L5.84998 102.75H5.75H5.64999L5.54999 102.65H5.44998V102.55L5.25 102.45L5.04999 102.35L4.34998 102.65L3.54999 101.95L3.34998 101.75H3.14999V101.65L3.25 101.55L3.44998 101.45L3.34998 101.35V101.25L3.14999 101.15L2.84998 100.95L2.75 100.85L2.84998 100.75L2.64999 100.65L2.75 100.45L2.94998 99.95L3.04999 99.85L2.94998 99.75L2.75 99.35L2.54999 99.05L2.75 98.75L2.94998 98.55L3.44998 97.85L3.64999 97.45L4.04999 96.85L4.25 96.55L4.75 95.85L4.34998 95.55L4.14999 95.45L4.25 95.35L4.34998 95.15L4.54999 94.95L4.44998 94.75L4.25 94.85H4.14999V94.75V94.55L4.04999 94.45L4.14999 94.25V94.05V93.85L4.04999 93.95L3.75 94.25V94.15H3.64999V94.05H3.54999H3.44998V94.15V94.25H3.34998V94.35H3.25L3.14999 94.45H3.04999V94.55H2.94998V94.65H2.84998V94.75H2.75H2.64999V94.85L2.54999 94.65H2.44998L1.94998 95.05L1.75 94.75L1.44998 94.25V94.15H1.34998V94.05V93.95V93.85V93.75L1.14999 93.25V93.15L1.04999 93.05V92.95L0.949982 92.85L0.849976 92.75H0.75V92.65L0.649994 92.55V92.45V92.35H0.549988V92.25V92.15V92.05V91.95V91.85H0.449982V91.75L0.349976 91.65L0.25 91.55V91.45L0.649994 91.55H0.75V91.65H0.849976L0.949982 91.85V91.95H1.04999L1.14999 92.05V92.15H1.25L1.34998 92.25L1.44998 92.35L1.54999 92.25L1.44998 92.05V91.95L1.54999 91.85H1.64999H1.75H1.84998L1.94998 91.75V91.65L2.04999 91.55L1.64999 91.25L1.84998 90.85L2.04999 90.15L2.14999 89.85V89.65L2.34998 89.15L2.44998 88.65L2.54999 88.45L2.64999 88.55L2.75 88.65H2.84998H2.94998H3.04999L3.25 88.75H3.34998V88.85H3.44998L3.54999 88.95H3.64999H3.75H3.84998L3.94998 89.05H4.04999L4.25 89.15L4.34998 89.05L4.25 88.85V88.75V88.65L4.14999 88.55V88.45V88.35L4.04999 88.25V88.15V88.05L3.84998 87.25H3.94998H4.04999L4.25 86.95L5.04999 86.85L5.44998 86.75H5.75V86.65H5.84998H5.94998H6.04999H6.14999L6.25 86.55H6.34998H6.44998L6.64999 86.45V85.95L6.54999 85.75H5.94998L5.84998 85.45L5.75 85.25L5.64999 85.05V84.95H5.54999V84.45V84.15L5.44998 83.95H5.75L5.84998 83.85V83.65V83.55V83.35V83.15L5.94998 82.75H5.84998V82.35V82.05L5.94998 81.85L6.04999 81.75V81.85H6.14999H6.25L6.34998 81.95V81.85V81.65V81.25V80.85V80.25L5.75 80.05L5.54999 79.95L5.25 78.95L5.14999 78.55H5.25H5.34998V78.65H5.44998H5.54999V78.75H5.64999H5.75L5.84998 78.85H5.94998H6.04999H6.14999H6.25H6.34998L6.44998 78.75V78.65L6.54999 78.55L6.64999 78.45H6.75L6.84998 78.35H6.94998V78.45H7.04999V78.55H7.14999H7.25L7.34998 78.65L7.75 78.45V78.55H7.64999V78.65H7.54999H7.44998L7.34998 78.75V78.65L7.25 78.75L7.34998 78.85H7.25V78.95V79.05V79.15H7.14999L7.04999 79.25V79.35L7.14999 79.65H7.04999H6.94998L6.84998 79.75H6.64999L6.54999 79.85H6.44998H6.34998L6.54999 80.15L6.84998 80.45L6.94998 80.55L7.04999 80.65L7.25 80.95L7.34998 81.05V81.15L7.54999 81.35L7.75 81.65L7.94998 81.95L8.04999 82.05L8.75 81.95L9.14999 81.85L9.44998 81.75L10.35 81.65H10.45L10.65 81.55H10.75H10.85V81.65L10.95 81.75V81.85V81.95L11.05 82.15L11.35 82.05H11.45L11.55 81.95H11.65L11.95 81.85V81.75L12.25 81.65L12.55 81.55L12.75 81.45L12.95 81.35L13.05 81.45H13.25H13.55H13.65L13.85 81.55H14.15H14.25V81.35V81.25V81.15V81.05V80.95H14.15V80.85L14.05 80.75L13.95 80.65V80.55V80.45H14.05H14.15L14.45 80.35L14.75 80.15H14.95L14.75 79.85L15.25 79.45L15.55 79.25L15.45 79.15H15.55L15.45 79.05L15.35 78.85L15.65 78.55L16.05 78.25L16.15 78.15V78.05L16.35 77.75L16.55 77.45V77.35L16.65 77.25V77.15V77.05V76.95V76.85L16.75 76.75H16.85H16.95H17.05H17.15H17.25L17.55 76.65H17.65H17.75H17.85V76.55V76.45L17.95 76.35V76.25V76.15V76.05V75.95V75.85V75.65V75.55V75.15V74.75V74.55V74.25V73.95V73.85V73.75V73.65L17.85 73.55L17.75 73.25L17.65 73.15L17.55 73.05L17.45 72.85L17.35 72.65V72.55V72.45V72.35L17.45 72.25V72.15L17.55 72.05V71.95V71.85H17.65H17.75H17.85V71.95H17.95V72.05L18.05 72.15V72.25H18.15L18.35 72.15H18.45L18.55 72.05L18.65 71.95L18.85 71.85L19.15 71.65L19.25 71.55H19.35H19.45H19.65H19.75H19.95H20.05H20.25H20.35L20.45 71.65L20.55 71.35V71.25V71.15V71.05L20.65 70.75V70.65L20.75 70.55H20.85H20.95H21.05H21.15L21.45 70.15L21.75 70.25L21.85 70.35L22.45 70.55L23.65 70.85H23.75V70.95H23.85H23.95V71.05H24.05L24.15 71.25V71.35V71.45H24.25L24.35 71.55V71.65H24.45V71.85V71.95V72.05V72.15L24.35 72.25L24.45 72.35V72.45V72.55V72.65H24.35V72.75H24.25V72.85L24.35 72.95V73.05H24.45V73.15H24.55V73.25V73.35V73.45V73.55V73.65V73.75L24.65 73.85V73.95V74.05H24.75H24.85V74.15H24.95V74.25L25.05 74.35V74.45L25.15 74.55V74.65L25.35 74.75V74.85H25.45H25.55L25.65 74.95L25.75 75.05H25.85V74.95H25.95V74.85V74.75H26.05V74.65V74.55V74.45L26.15 74.35L26.25 74.25H26.35V74.05V73.95V73.85V73.75V73.65L26.25 73.45L26.15 73.35V73.25L26.25 73.15H26.15V73.05L26.05 72.95L25.95 72.85L25.85 72.75H25.75V72.65H25.65L25.55 72.55V72.45H25.65V72.35L25.75 72.25V72.15H25.85V72.05H25.95V72.15H26.15V72.05H26.25V71.95H26.35H26.45H26.55V71.85L26.65 71.75H26.75L26.85 71.55V71.35L26.95 70.75L27.05 70.35H27.15H27.25V70.25H27.35L27.55 70.15L27.65 70.05V70.15V70.35V70.45V70.75L28.05 70.65H28.15H28.35H28.65H28.95H29.05H29.15L29.95 70.55H30.25L30.15 71.15L30.05 71.75L29.95 72.45V72.55V72.95V73.25V73.45L29.85 73.75V73.85V73.95L29.75 74.25L29.65 74.75H29.75L30.15 74.85H30.55H30.75L31.35 74.95H31.75L32.05 75.15L32.15 75.05H32.25H32.35L32.45 75.15H32.55H32.65H32.75H32.85H32.95L33.05 75.25H33.15V74.95L33.35 75.05L33.85 75.15L34.25 75.25H34.35H34.45L34.55 75.35L34.95 75.45H35.05L35.35 75.55H35.45L35.75 75.65L36.35 75.75L36.65 75.85H36.85L37.05 75.95L38.05 76.15H38.35L38.65 76.25V76.35V76.45V76.55V76.65H38.55V76.75V76.85V76.95V77.05L38.85 77.15H39.05L38.95 77.35V77.45V77.55L38.85 77.65L39.05 77.75L39.15 77.55L39.25 77.15L39.35 76.85L39.45 76.45V76.25L39.55 76.15V76.05V75.95L39.65 75.65V75.35V75.05L39.75 74.95L39.85 74.45V74.15L39.95 73.85V73.55L40.05 73.15L40.15 72.55H40.25H40.35H40.45H40.55H40.75H40.85H41.05H41.15H41.25H41.35V72.45V72.25L41.25 71.85L41.05 70.45L41.25 70.35H41.35H41.55H41.65L41.85 70.25H41.95H42.05H42.15L42.25 70.15H42.35V70.05H42.45V69.95L42.35 69.35L42.25 69.25V69.15V68.75H42.35H42.45V68.65H42.55V68.55H42.65V68.45V68.35H42.75H42.85H42.95H43.05V68.25H43.15H43.25H43.35V68.15H43.45V68.05H43.55H43.65L43.75 67.95L43.85 67.85L43.95 67.75H44.05L44.25 68.05L44.55 68.55L44.95 69.05V69.15L45.15 69.35L45.25 69.55L45.55 69.95L45.95 70.35L46.15 70.65L46.35 70.55H46.45L46.75 70.45L47.25 70.65V70.35H47.35H47.45H47.55L47.65 70.25L47.55 70.15V70.05V69.95H47.65V69.85H47.75L47.85 69.75H47.95H48.05H48.15V69.65H48.25V69.55V69.45V69.35H48.35V69.25V69.15H48.45V69.05H48.55V68.95H48.65V68.85H48.75V68.75V68.65H48.85V68.55H48.95H49.05L49.15 68.65H49.25V68.75V68.85H49.35V68.95H49.45H49.55L49.65 68.85L49.85 68.55L50.25 68.05L50.75 67.35H50.85V67.45H50.95L51.05 67.55L51.15 67.65L51.25 67.75H51.45L51.55 67.85V67.95H51.65L51.85 68.05V68.15H51.95H52.05V68.25H52.15L52.25 68.35L52.35 68.45L52.65 68.35L52.95 68.25H53.05L53.25 68.15H53.45V68.25V68.35V68.45V68.55H53.55L53.65 68.65V68.55H53.75V68.45H53.85H53.95V68.55H54.15H54.25H54.35L54.45 68.65L54.55 68.75L54.75 68.85V68.95H54.85L55.15 69.35L55.45 69.65L55.65 69.75L55.85 69.95L56.25 69.75L56.45 69.95L56.55 70.05L56.75 70.25H56.85V70.35L56.95 70.25L57.35 69.95L57.45 69.75L57.55 69.65H57.65L57.75 69.55L57.85 69.35H57.95V69.25L58.25 69.35H58.35H58.45H58.55H58.65H58.75H58.95H59.05H59.25H59.35L59.65 69.25V69.15H59.75L60.05 68.95L60.35 68.65H60.45L60.55 68.55L60.75 68.65H61.15H61.25V68.55H61.45H61.65L61.75 68.65H61.85L61.95 68.75H62.05V68.85H62.15H62.25H62.35V68.75H62.45V68.65L62.55 68.75L62.95 68.65H63.15H63.35H63.45L63.55 68.75H63.65H63.95V68.65L64.05 68.55V68.45H64.15H64.25L64.45 68.25V68.05L64.85 67.85L65.15 67.95H65.25H65.35L65.95 68.25L66.05 68.15V68.05V67.85L66.15 67.75V67.65L66.25 67.45V67.35L66.35 67.25V67.05V66.95H66.45V66.85V66.75L66.55 66.65V66.55V66.45H66.65V66.55H66.75V66.65H66.85H66.95V66.55H67.05V66.45V66.35V66.25L66.95 66.05V65.95V65.75V65.55L67.05 65.45L67.25 65.35V65.05V64.85L67.35 64.75V64.55V64.45L67.05 64.35L66.95 64.15L66.65 63.85H66.55L67.05 63.65V63.55L67.35 63.45L67.65 63.35L67.95 63.25H68.05H68.15H68.25L68.35 63.15H68.75L69.25 63.25H69.35H69.55H69.75H69.85H69.95V63.35H70.05H70.15H70.25V63.25H70.35V63.15L70.45 63.05L70.55 62.95L70.75 62.85V62.75L70.85 62.65V62.25V61.85V61.55V61.45V61.35V61.05L70.95 60.85L71.05 60.75L71.55 60.15L71.95 59.65V59.55L72.05 59.45H72.15V59.55V59.65H72.25V59.75V59.85L72.35 60.05V60.15V60.25V60.35H72.45V60.45L72.55 60.55V60.65H72.65H72.75H72.85V60.55L72.75 60.35L72.85 60.25V60.15L72.65 59.75L72.55 59.65V59.35L72.75 59.25V59.15H72.85L72.95 59.05V58.95H73.05H73.45L73.65 59.05V58.85V58.75V58.65L73.75 58.55H73.85H73.95V58.45H74.05H74.15V58.35H74.25H74.35H74.45V58.25H74.55V58.15H74.65H74.75V58.05H74.85H74.95V57.95V57.85V57.75V57.65V57.55H75.05L75.15 57.65H75.25V57.55H75.35V57.45V57.35H75.25V57.25V57.15V57.05H75.35V57.15H75.45V57.05H75.55V56.95V56.85H75.45L75.35 56.95V56.85H75.25V56.75H75.35V56.65V56.55H75.25H75.15V56.45H75.25V56.35L75.35 56.25H75.45V56.15H75.35V56.05H75.25V55.95H75.35V55.85L75.45 55.75V55.65V55.55H75.55H75.65V55.45V55.35H75.55V55.25V55.15V55.05V54.95H75.65V54.85H75.75V54.75V54.65V54.55L75.65 54.45L75.55 54.35H75.65V54.25V54.15H75.55V54.05V53.95H75.45L75.55 53.85V53.75V53.65L75.65 53.55V53.45H75.75H75.85H75.95V53.35V53.25V53.15V53.05H76.05V52.95V52.85V52.75H76.15V52.85H76.25H76.35H76.45H76.55V52.75V52.65V52.55H76.65L76.85 52.65L76.95 52.75L77.15 52.95L77.25 53.05H77.35V53.15H77.45H77.55L77.65 53.25V53.15V53.05L77.75 52.75L77.85 52.85H77.95L78.05 52.95H78.15H78.25L78.15 52.85V52.75V52.65V52.55V52.45V52.35V52.25V52.15V52.05L78.05 51.95V51.85H77.95L77.85 51.75H77.75H77.65H77.55L77.75 51.55L77.85 51.45L77.95 51.35L78.05 51.25L78.15 51.15L78.25 51.05L78.15 50.95H77.95H77.85L77.65 50.85H77.55H77.45L77.05 50.75L77.15 50.55V50.45V50.35V50.25L77.25 50.15V50.05V49.95V49.85V49.75H77.35V49.65V49.55L77.45 49.45V49.35V49.25V49.15V49.05H77.55V48.95V48.85H77.65V48.75V48.65L77.75 48.55V48.45L78.05 47.85L78.15 47.65L78.25 47.55L78.35 47.35V47.25L78.45 47.15L78.55 47.05L78.65 46.85L78.85 46.65V46.55L78.95 46.45L79.05 46.25L79.15 46.15L79.45 45.65L79.75 45.15L80.05 44.75L80.25 44.45L80.55 44.05L80.75 43.65V43.55L80.65 43.25H80.55V43.15L80.45 43.05V42.95L80.55 42.85L80.75 42.65L80.65 42.55L80.85 42.35L81.05 42.45L80.95 42.65L81.15 42.75H81.25L81.35 42.55L81.45 42.35V42.25L81.55 42.15L81.45 42.05H81.35L81.25 41.85H81.15L81.05 41.75H80.95H80.85L80.45 41.55L80.65 41.05L80.75 40.95L80.85 40.55L80.95 40.15L81.25 39.35H81.35H81.45L81.55 39.25L81.75 39.15L81.65 38.95L81.55 38.85V38.65L81.45 38.45V38.35V38.25V38.15H81.35V38.05L81.25 37.85L81.15 37.75V37.65L81.05 37.35H81.15L81.25 37.25L81.15 37.05H81.05V36.95L81.15 36.75L81.25 36.35L81.45 35.75L81.15 35.45L80.45 34.95L80.15 34.65L80.25 34.55L80.35 34.25L80.65 33.65V33.55L80.75 33.35L80.85 33.15L80.95 33.05H80.85V32.95V32.85H80.95L81.15 32.55V32.45L81.45 31.85L81.65 31.55L81.75 31.35L81.55 30.95L81.45 30.65L81.35 30.55V30.45H81.25V30.35L81.15 30.25V30.15H81.05V30.05V29.95V29.85V29.75H81.15L81.45 29.55L83.05 28.65L83.25 28.75L83.35 28.85V28.95H83.45V29.05L83.55 29.15V29.25L83.65 29.35H83.75V29.25L83.95 29.15V29.05H84.05L84.45 28.45L84.55 28.35L84.75 28.05L85.15 27.55H85.25V27.45L85.65 27.25L86.35 26.95V26.85H86.45H86.55V26.65H86.65L87.25 26.55H87.35L87.45 26.45H87.55H87.65L88.05 26.35H88.35H88.45H88.55H88.75H88.95H89.05L89.25 26.15H89.45L89.55 25.85L89.75 25.55V25.45L89.55 25.15L88.65 23.85L88.05 23.15L87.45 23.05L87.55 22.55L87.95 22.35L88.25 22.15L88.05 22.05L87.35 21.55L86.25 20.95L85.75 21.35L85.65 21.55H85.45L85.05 21.75L85.35 21.35V21.25H85.45L85.55 21.15L86.05 20.55L86.45 20.15L86.05 19.75L85.65 20.15L85.45 20.05L85.65 19.55V19.35L85.85 19.15L86.15 18.85H86.25L86.75 18.75H87.05L87.45 18.85L87.95 18.95H88.45H88.55L88.65 18.85H88.85H88.95H89.15L89.95 18.65H90.15L90.85 18.85L91.45 19.05L91.65 18.85L91.85 18.95L92.25 19.15L92.55 19.45L92.85 19.85L92.95 19.95L93.05 20.15V20.25V20.35L92.95 20.45L92.75 20.55L92.45 21.15V21.35L92.35 21.75V22.05V22.15V22.35L92.45 22.45V22.65L92.35 22.75L92.05 23.25L91.95 23.35V23.45V23.65V23.85V23.95V24.35L91.85 24.75V24.95V25.25L92.05 26.15H92.35L92.55 27.15L92.75 27.85H93.85L93.95 28.15H94.35L94.45 28.95L94.55 29.15H94.65L94.85 29.35H95.05L95.35 29.15H95.55V29.45L95.65 29.95L95.75 30.15V30.25L95.85 30.45H95.95H96.15H96.25L96.35 30.35L96.45 30.25L96.55 30.15V30.05L96.25 29.65L96.35 29.55V29.45V29.35L96.45 29.25L96.65 29.15L96.75 29.05V28.85V28.75L96.65 28.65H96.55V28.55V28.45L96.65 28.35L96.85 28.15L97.05 28.35L97.15 28.25L97.45 28.15V28.05L97.55 27.95L97.65 28.05L97.85 27.95V27.85L97.95 27.75L98.05 27.95L98.15 28.15L98.25 28.05L98.35 28.15L98.45 28.05H98.65L98.75 27.75V27.55H98.85L98.95 27.35H99.05V27.05H99.15L99.25 26.85V26.65V26.45H99.35H99.45H99.75V26.15H99.85H99.95V25.95V25.85V25.75V25.55H100.45H100.75H101.25H101.45V26.05V26.25L101.55 26.75H101.45L101.35 26.85H101.25L101.35 26.95L101.45 27.05L101.55 27.25L101.65 27.45L101.75 27.65V27.85V28.05L101.65 28.55L101.55 29.55L102.05 29.45H102.15L102.95 29.35H103.05V29.45H103.25H103.55H103.65H103.85H103.95H104.05H104.15L104.25 29.35L104.35 29.45H104.45H104.55L104.95 29.55L105.55 29.75H105.75L106.15 29.85L106.35 29.95H106.45L106.55 29.85H106.75V29.75H106.65L106.75 29.65L106.95 29.45L107.15 29.05L107.25 28.85L107.35 28.75V28.65L107.95 27.55L108.25 27.05L108.45 26.65L108.55 26.55H109.15H109.25H109.55H109.65L109.55 26.15V26.05V25.55L109.45 25.25V25.15V25.05V24.75V24.55L109.55 24.35H109.65L109.85 24.15L109.95 24.05L110.15 23.95L110.25 23.85L110.45 23.65L110.55 23.55L110.65 23.45L110.75 23.25L111.05 22.55L111.15 22.35L111.35 21.95L111.55 21.65L111.65 21.45V21.35V21.25V20.85L112.05 20.95H112.85L113.55 21.05H114.05L114.45 21.15H115.05H115.45V21.45V21.75V21.95V22.05H115.55H115.65L115.85 22.15L115.95 22.35L116.05 22.65L116.15 22.45L116.25 22.25L116.45 21.95L116.55 21.85V21.75H116.65V21.65L116.75 21.55V21.45L116.85 21.35V21.25V21.15V20.95V20.85V20.75V20.65V20.55V20.45V20.35V20.25V20.15V20.05L116.75 19.95V19.85V19.75V19.65V19.55V19.45V19.35V19.25L116.65 19.15V19.05L116.55 18.75V18.05L116.45 17.75V17.55V17.25H116.35V17.15L116.25 17.05H116.15V16.95L116.05 16.85L115.95 16.75H116.05L116.35 16.65L116.25 16.35H116.35L116.45 16.25L116.55 16.15H116.65V16.05H116.75H116.85V15.95H117.15L117.35 15.85L117.45 15.75H117.55L117.75 15.65L117.95 15.55L118.25 15.35H118.35L118.65 15.15L119.05 14.95L119.25 14.85L119.45 14.75V14.85H119.55V14.95H119.65L119.95 15.15L120.05 14.95L120.15 14.55L120.25 14.25L120.35 14.15L120.15 14.05H119.95H119.85H119.65L119.35 13.95L119.05 13.85L118.65 13.75H118.55H118.35H118.15V13.65H117.95L117.55 13.55H117.35H117.25H117.05L116.75 13.65L116.45 13.85L116.25 13.75L116.35 13.55V13.45V13.35V12.85L116.45 12.55V12.45V12.35V12.15V11.95V11.75V11.55V11.45V11.35V11.25V11.15L116.55 10.55V10.35L116.75 10.25L116.85 10.15L117.35 9.84999L117.45 9.75L117.75 9.64999L117.85 9.54999L117.95 9.45L118.15 9.34999H118.25L118.45 9.25V9.14999L118.85 8.95H118.95V8.84999H119.05L119.15 8.75H119.25L119.35 8.64999H119.45V8.54999H119.55L119.65 8.45H119.75L119.55 8.14999V8.04999L119.45 7.95L119.35 7.75H119.25V7.64999L119.15 7.54999L119.05 7.45V7.34999L118.95 7.25V7.14999H118.85L118.55 7.34999L118.35 7.54999L118.25 7.25L118.05 6.75L117.95 6.54999L117.85 6.34999V6.14999L117.75 5.95L117.65 5.75L117.75 5.84999H117.85L118.05 5.95H118.25L118.35 6.04999H118.45L118.65 6.14999L119.25 6.34999L119.55 5.54999H119.65V5.34999L119.75 5.25V5.14999V5.04999L119.85 4.95L119.95 4.84999L120.05 4.64999V4.54999L120.15 4.25L120.25 4.14999L120.35 4.04999L120.45 3.75L120.55 3.64999V3.54999L120.75 3.45V3.34999L120.85 3.25L120.95 3.04999L121.05 2.95L120.75 2.84999H120.65L120.55 2.75L120.65 2.45L121.05 2.25L121.35 2.14999L121.75 2.04999L121.95 2.25L122.15 2.54999L122.35 2.75L122.45 2.84999L122.55 3.04999L122.75 3.14999L122.85 3.25L123.05 3.45H123.25H123.35H123.55H123.85L123.95 3.34999L124.05 3.14999L124.15 2.95L124.25 2.84999V2.75L124.35 2.64999L124.45 2.34999H124.55V2.25L124.85 1.64999H124.95V1.54999L125.15 1.25L125.35 0.849991H125.55H125.85L126.45 0.949997L126.95 0.25L127.35 0.549988L126.85 1.34999L126.65 1.54999L127.75 2.45L128.05 2.75L128.15 2.84999L128.25 2.95H128.35L128.85 3.45H129.15L129.25 3.54999V3.75V3.84999V3.95V4.04999L129.35 4.25L129.45 4.45H129.55V4.54999L129.65 4.75L129.75 4.84999V4.95L129.85 5.04999V5.14999H129.95V5.25L130.35 5.34999L130.45 5.45L131.55 5.75L132.05 5.84999L132.15 5.95L133.15 6.14999L134.45 6.54999L135.15 6.75L135.75 6.95L136.05 7.04999L136.25 8.14999L136.35 8.84999L135.45 8.75L133.95 9.14999H133.75L133.65 9.25V9.34999V9.45L133.75 9.54999L133.85 9.64999L133.95 9.75V9.84999V9.95H134.05V10.05H134.15H134.25H134.35V10.15H134.45V10.25L134.55 10.35H134.65L134.75 10.45H134.85V10.55H134.95V10.65H134.85L134.75 10.95L134.45 11.35H134.35V11.45L134.25 11.75L134.35 12.05L134.45 12.15L134.55 12.25V12.35V12.45L134.65 12.55L134.75 12.75L134.85 12.95H134.95V13.05V13.15H135.05V13.25L135.15 13.35L135.25 13.45L135.35 13.55L135.45 13.65L135.65 13.85L135.75 14.05L135.85 14.15L136.15 14.45L136.35 14.65L136.45 14.75V14.85L136.55 14.95H136.65L136.85 15.15V15.25L137.25 15.15V15.05V14.95L137.35 14.65L137.45 14.25V14.15L137.55 14.05L137.75 13.75L137.85 13.65L137.95 13.75L138.15 13.95V14.05H138.25L138.35 14.15V14.25H138.45V14.35L138.55 14.45H138.65V14.55H138.75L138.65 14.65L138.55 14.75V14.85V14.95V15.05L138.45 15.45L139.35 15.65L139.45 16.15V16.45L139.55 16.75V17.15V17.75L139.65 18.05L139.75 18.15H140.05L140.15 19.35V19.75L140.85 20.25L141.45 20.55L141.75 20.75L142.35 21.15L142.45 21.25L142.55 21.35H142.65L142.55 21.65V21.75V21.85L142.45 21.95V22.05V22.15V22.25L142.35 22.45L142.25 22.75V22.95L142.15 23.05V23.35L142.45 23.45L142.75 23.65L142.65 23.95H142.45L142.15 23.85V24.45V24.65V24.75L142.05 24.85V25.05L141.95 25.45V25.65V25.85L142.05 26.05L142.15 26.25L142.35 26.45L142.45 26.55L142.55 26.65L142.75 26.75L142.95 26.95V27.05L142.75 27.15L142.45 27.35L142.15 27.55L141.85 27.75L141.45 27.95L141.35 28.05L141.25 27.85L140.85 27.25L140.35 27.65L140.25 27.75L139.85 28.05L139.95 28.15L140.05 28.25L140.15 28.35L140.35 28.55L140.55 28.85L140.85 29.15V29.25H140.95V29.35L141.25 29.65L141.55 29.95L141.65 30.05V30.15L141.75 30.35L141.85 30.55V30.65L141.95 30.75L142.05 30.85V30.95H142.15L142.25 31.05L142.35 31.15L142.25 31.25L142.35 31.45L142.65 31.65V31.75L142.85 31.95V32.05L143.05 32.25V32.35L143.25 32.75V32.85L143.45 33.35L143.65 34.15L146.15 33.65L146.45 33.55V33.75V33.95L146.55 34.15L146.65 34.65L146.75 35.15L146.85 35.55L146.95 35.95H147.05H147.25H148.05H148.45H148.65H149.05L149.35 36.65L149.55 36.95L149.85 37.45V37.55V37.65V37.75V37.85H149.75V37.95H149.65L149.75 38.75L149.85 40.15V40.45L149.95 40.95V41.05V41.55L150.95 41.85L151.65 42.15L152.55 42.45L154.55 43.25L154.35 43.55H154.45H154.55H154.65H154.75H154.85H154.95L155.05 43.65L155.15 43.85L154.95 43.95L155.05 44.05L155.15 44.15H155.25H155.35V44.25V44.35V44.45H155.45V44.55L155.55 44.65H155.65V44.75H155.75V44.85H155.85V44.95H155.95H156.05H156.15V44.85H156.25V44.95H156.35V45.05V45.15H156.45H156.55H156.65V45.05H156.75V45.15H156.65V45.25H156.75V45.35V45.45H156.65H156.55V45.55H156.65H156.75V45.65V45.75H156.65H156.55H156.45H156.35V45.85H156.45V45.95V46.05V46.15H156.55L156.65 46.25V46.35V46.45V46.55L156.55 46.65V46.75H156.65L156.75 46.85V46.95V47.05V47.15H156.85V47.05H156.95H157.05V47.15H156.95V47.25V47.35V47.45V47.55H156.85V47.65V47.75H156.95H157.05V47.85V47.95H157.15V48.05H157.05H156.95H156.85V48.15H156.75V48.25H156.65L156.75 48.35H156.85H156.95H157.05V48.45V48.55H156.95V48.65H156.85V48.75L156.75 48.85V48.95L156.65 49.05H156.55L156.45 49.15L156.15 49.25V49.35H156.25H156.35L156.45 49.45L156.55 49.55L156.65 49.65L156.95 49.95H157.05L157.15 49.85H157.25H157.35H157.45L158.15 50.55L158.25 50.65L158.35 50.75L158.55 51.05L158.65 51.25L158.75 51.45V51.55H158.85V51.45V51.35H158.95H159.05H159.15H159.25V51.45H159.15L159.05 51.55H158.95V51.65H158.85V51.75L158.75 51.85L158.85 51.95V51.85H158.95V51.95H158.85V52.05H158.95V52.15H159.05V52.25H158.95L158.85 52.35H158.95V52.45V52.55H158.85V52.65V52.75H158.95V52.85V52.95H158.85V53.05V53.55H158.75V53.65V53.75V53.85H158.85H158.95V53.95H158.85V54.05V54.25V55.45H158.75H158.65V55.55V55.65H158.55L158.45 55.75L158.35 55.85L158.25 55.95L158.15 56.05H158.05L157.05 57.15L156.85 57.35L156.75 57.45H156.65H156.55L156.45 57.35L156.05 57.25H155.75H155.45H155.35H155.25L155.15 57.35V57.45V57.55L155.05 57.65V57.75H154.95V57.85V57.95H154.85V58.05V58.15V58.25H154.75V58.35V58.45L154.85 58.65V58.75V58.85V58.95H154.75L154.85 59.05V59.15V59.25H154.75L154.85 59.35H154.75L154.65 59.45V59.55V59.65V59.75V59.85V59.95V60.05V60.15V60.25V60.35H154.55V60.45H154.65V60.55L154.75 60.65V60.75H154.85V60.85V60.95V61.05L154.95 61.15V61.25V61.35L154.85 61.45L154.75 61.55H154.65V61.65H154.55H154.45H154.35L154.25 61.75H154.15L154.05 61.85H153.95V61.95L153.85 62.05V62.15V62.25V62.35L153.95 62.45H154.05L154.15 62.55H154.25V62.65V62.75V62.85H154.35H154.45V62.95H154.65L154.75 63.05H154.85H154.95H155.05H155.15H155.25V63.15H155.35V63.25V63.35V63.45V63.55V63.65V63.75V63.85V63.95V64.05V64.15V64.35V64.45L155.25 64.55V64.65V64.75V64.85H155.15V64.95L155.25 65.05V65.15V65.25H155.35V65.35V65.45H155.45V65.55L155.55 65.65V65.75H155.65V65.85V65.95H155.75V66.05V66.15H155.85V66.25H155.95V66.35H156.05H156.15L156.25 66.45V66.35H156.35H156.45H156.55H156.65V66.25H156.75H156.85H156.95H157.05V66.35L157.15 66.45L157.25 66.55L157.35 66.65V66.75H157.45L157.55 66.85L157.65 66.95L157.75 67.05H157.85L157.95 67.15H158.05H158.15V67.25V67.35V67.45V67.55V67.65V67.75H158.05L158.15 67.85V67.95V68.05V68.15V68.25L158.25 68.35V68.45V68.55V68.65H158.15V68.75H157.95H157.85H157.75H157.65L157.55 68.65H157.45H157.25H157.15H157.05V68.55H156.95H156.85H156.75H156.65H156.55H156.45L156.35 68.65H156.25H156.15H156.05H155.95H155.85L155.75 68.75H155.65H155.55H155.45H155.35H155.25H155.15V68.65H155.05H154.95H154.85V68.55H154.75V68.45H154.65H154.55H154.45H154.35H154.25H154.15H154.05V68.35H153.95H153.85H153.75L153.65 68.25H153.55L153.45 68.15H153.35V68.05H153.25V67.95H153.15V67.85H153.05L152.95 67.75H152.85H152.75L152.65 67.65L152.55 67.55H152.45H152.35V67.45H152.25L152.15 67.35H152.05H151.95V67.25H151.85V67.15H151.75H151.65V67.05H151.55V66.95H151.45H151.35V66.85H151.25H151.15L151.05 66.75H150.95H150.85H150.75H150.65H150.55H150.45H150.35V66.65H150.25H150.15H150.05H149.95H149.85V66.55H149.75V66.45H149.65H149.55L149.45 66.35H149.35H149.25V66.45H149.15H149.05V66.55H148.95H148.85H148.75L148.65 66.45H148.55H148.45L148.35 66.35H148.25V66.25L148.15 66.15H148.05H147.95V66.05L147.85 65.95L147.75 65.85H147.65V65.75V65.65H147.55V65.55V65.45V65.35H147.45V65.25H147.55V65.15H147.45V65.05V64.95L147.35 64.85V64.75H147.25L147.15 64.65H147.05L146.95 64.55H146.85V64.45H146.75H146.65V64.55L146.55 64.65L146.45 65.15H146.35L146.15 65.25V65.35L146.05 65.55V65.65L145.95 66.05V66.15L145.75 66.45V66.55V66.75L145.65 66.85V66.95L145.55 67.05L145.25 67.55L145.15 67.65V67.75V67.85V68.15V68.25V68.35L145.05 68.45L144.95 68.55L144.45 68.85V68.95H144.35L144.25 69.15V69.25V69.35V69.45L144.35 69.55V69.65H144.45H144.65H144.75H144.85L145.05 69.55H145.15V69.65V69.75V69.85H145.05L144.95 69.95L144.85 70.05L144.65 70.35L144.55 70.45V70.55V70.65H144.65L144.95 70.95L145.55 71.45L146.15 71.95L146.25 72.05L146.45 72.15L146.65 72.25L146.85 72.35L147.15 72.45H147.45H147.55V72.55H147.75L147.85 72.65L148.05 72.85L148.55 73.15L148.75 73.35H148.85L149.15 73.65L149.25 73.75L149.45 73.95L149.55 74.05L149.65 74.15H149.75L150.05 74.25H150.35L150.65 74.45L150.95 74.55L151.05 74.65H151.15V74.75L151.25 74.95V75.05L151.35 75.35L151.45 75.75V75.95L151.55 76.15V76.25L151.65 76.35H151.75H151.85L151.95 76.25L152.35 75.95L152.45 75.85H152.55H152.65H152.75H152.95H153.05L153.15 75.95L153.25 76.05L153.55 76.45L153.75 76.65L153.95 76.75L154.05 76.85H154.25L154.45 76.75L154.75 76.65L154.85 76.55H154.95V76.45L155.05 76.25H155.15H155.25V76.15H155.35L155.45 76.25H155.65H155.75L155.95 76.15H156.25L156.65 76.05H156.95H157.05H157.15L157.25 76.15L157.35 76.25V76.35H157.45H157.55H157.95H158.05L158.15 76.45L158.35 76.65L158.45 76.75L158.65 77.05H158.75V77.15H158.85H159.05H159.15L159.25 77.25V77.35V77.55H159.15V77.65H159.25V77.75V77.85H159.35L159.45 77.95H159.55H159.65L159.75 77.85L159.95 77.75L160.05 77.65H160.15L160.25 77.55H160.45H160.85H161.15L161.35 77.45L161.55 77.25L161.65 77.15L161.75 77.05L161.85 76.95V76.85L161.95 76.75H162.05H162.15H162.25H162.35H162.45L162.65 76.85H162.75H162.95H163.15H163.25L163.35 76.75L163.55 76.65H163.65H163.75L163.85 76.75H163.95L164.05 76.85L164.15 76.95V77.15L163.95 77.85L163.85 78.05L163.75 78.15L163.35 78.45L163.15 78.65L162.85 78.85L162.55 79.05L162.15 79.25L161.85 79.55L161.75 79.75L161.65 79.85L161.35 80.25L160.85 80.75L160.55 81.15L160.15 81.55L159.95 81.95L159.85 82.25V82.45V82.65L159.75 82.75L159.65 82.85L159.45 82.95L159.25 83.05V83.15V83.25V83.35V83.45V83.55V83.65L159.35 83.85V83.95L159.45 84.15L159.65 84.45L159.95 84.65L160.15 84.75L160.25 84.85L160.75 85.05L162.45 85.55L163.95 85.95L165.85 86.55L165.95 87.25L166.05 87.45V87.95V88.15V88.35L165.95 88.45V88.55H165.85L165.05 88.75L164.45 88.85V88.95L163.85 89.15L162.45 89.95L162.25 90.05L162.15 90.15H162.05V90.25L162.15 90.35L162.55 90.55L162.85 90.75L162.95 91.55L163.05 92.05V92.65L163.15 93.15L163.25 93.75H163.55V93.95L163.45 94.05H163.35V94.15H163.25V94.25H163.35V94.35H163.25V94.45H163.35V94.65H163.25H163.15V94.75V94.85L163.05 94.75H162.95L162.85 94.65H162.75L162.65 94.75V94.85L162.75 95.05L162.85 95.25H162.95H163.05H163.15H163.25H163.35L163.45 95.15L163.55 95.05L163.65 94.95V95.05V95.15V95.45L163.75 95.55V95.65H163.85V95.75L163.95 95.85L164.05 95.95L164.25 96.05H164.35H164.55L164.75 95.95H164.95H165.05V96.55H164.25L163.55 96.65L163.65 97.45H163.45L162.05 97.65L161.15 97.75V98.15L160.45 98.25L159.35 98.45L158.65 98.55L158.05 98.65L157.85 97.65L156.25 97.85L156.15 97.75V97.25L155.35 97.35L155.15 97.05H155.05V97.15H154.95L154.85 97.25V97.35V97.45V97.55L154.75 97.65L154.65 97.75L154.75 97.95L154.85 98.25L154.95 98.35L155.25 99.05V99.15H155.35L155.15 99.25V99.15V99.05H155.05V98.95H154.95V99.05H154.85H154.75H154.65V99.15H154.55V99.25L154.45 99.35L153.95 99.45V99.35L153.45 99.55L153.35 99.45V99.15H153.25V99.25V99.35H153.15H152.55H152.25L152.15 99.45H151.85L151.75 99.35H151.65V99.25L151.75 99.05V98.85V98.75L151.65 98.65L151.45 98.85H151.35L151.15 98.95H150.85V99.15L150.95 99.25V99.35H150.85L150.75 99.45V99.55H150.65V99.65L150.55 99.55V99.65H150.45L150.35 99.75V99.65H150.25H150.15V99.55V99.05L149.85 99.15H149.65L149.45 99.05L149.35 98.95L149.05 98.75H148.95L149.05 98.65V98.55H148.85H148.65V98.45H148.15V98.55L148.25 98.65V98.85L148.45 98.95H148.55L148.65 99.05H148.55V99.15L148.45 99.25L148.35 99.35L148.25 99.55L148.35 99.65H148.45V99.75V99.85V99.95H148.55V100.05H148.65V100.15H148.75V100.25H148.85V100.35L148.75 100.65L148.45 100.55H148.35H148.25H147.75L147.35 100.65V100.55H147.25L147.15 100.45L147.25 100.35H147.35L147.45 100.25L147.35 100.15V100.05L147.25 99.95L147.35 99.85V99.75H147.25L147.15 99.65V99.55V99.45H147.05H146.95V99.35V99.25H146.85V99.15V99.05H146.75V98.95L146.85 98.75H146.95V98.65V98.55H146.85L146.95 98.35L146.75 98.15L146.95 97.95H147.05V97.85V97.75L146.95 97.65V97.55V97.45L146.85 97.35V97.25V97.15L146.65 97.05H146.55H146.45V96.95L146.35 96.85V96.75V96.55H146.45V96.45L146.35 96.35V96.25H146.25V96.15V96.05H146.15V95.95H146.05V95.85L146.15 95.75V95.65V95.55V95.45V95.25L146.05 95.15H146.15V95.05V94.95H146.25V94.85H146.15H146.05V94.75L145.95 94.85H145.85H145.75V94.95H145.65V95.05L145.45 95.15L145.35 95.25L145.15 95.35L145.05 95.45H144.95L144.85 95.35V95.25V95.15V95.05V94.95L144.95 94.85V94.75H144.85V94.65V94.55L144.55 93.85L144.45 93.45H144.65H144.75L144.85 93.35L144.75 93.25V93.15H144.65H144.55H144.45V93.05H144.35H144.25V92.95L144.35 92.85H144.25V92.75H144.15V92.85H144.05V92.95H143.95H143.85L143.75 92.85V92.75V92.65V92.55H143.65V92.45H143.55V92.35V92.25H143.45V92.15L143.35 91.95V91.85L143.25 91.95L143.15 92.25L142.95 92.85L142.65 92.75H142.55L142.45 92.95V93.05H142.35V93.15V93.35L142.25 93.45V93.55L142.15 93.65L142.05 93.75V93.85H141.95H141.85H141.55H141.35H141.25L141.05 93.75H140.95V93.65H140.85V93.55H140.75H140.65H140.55V93.45H140.45H140.35H140.25V93.35L140.15 93.25V93.15V93.05H140.05V93.15H139.95H139.85V93.05H139.75V92.95L139.65 92.85V92.75V92.65H139.75V92.55H139.65V92.45V92.35H139.75H139.85V92.25L139.95 92.15V92.05V91.95L139.85 91.85L139.65 91.25L139.55 90.55L139.45 90.35L139.25 90.45L138.85 90.55L138.65 90.15L138.55 90.25V89.85L137.95 89.75H137.75L136.85 89.65L136.75 90.15L136.65 90.25H136.55L136.45 90.15H136.35L136.15 90.25H136.05V89.95V89.75H135.95V89.85H135.85H135.75H135.65L135.55 89.75L135.45 89.65V89.55L135.25 89.35V89.65L135.35 89.85H135.25H135.15L135.05 89.75H134.95H134.85L134.65 89.65H134.55H134.45H134.35V89.75L134.15 89.85V89.95H134.05V90.05V90.15V90.25H133.95L134.05 90.35L133.95 90.45V90.55V90.65V90.75H134.15L134.25 90.65H134.35V90.75V90.95L134.25 91.15V91.25V91.35L134.05 91.45V91.35L133.85 91.45H133.75H133.65V91.35H133.55H133.45H133.35V91.25V91.15H133.25H133.15H133.05L132.85 91.35V91.45V91.65V91.85L132.95 91.95L132.85 92.25L132.55 93.75L132.35 95.25L132.25 95.45L132.15 95.95V96.35L132.05 96.75L131.95 96.85L131.85 96.75L131.75 96.65H131.55V96.55H131.45H131.35H131.25H131.15H131.05V96.65H130.95L130.85 96.55V96.45V96.35V96.25H130.75H130.65H130.55H130.45H130.35V96.15H130.25V96.25V96.35L130.15 96.45L130.05 96.55V96.65L130.25 96.75V96.85V96.95V97.05H130.15V97.15V97.25V97.35L130.05 97.45V97.55V97.65V97.75V97.85V97.95L129.95 98.05H129.85H129.75H129.65H129.55H129.45H129.35H129.25H129.15V98.15L129.05 98.25H128.95L128.65 98.35H128.25L127.85 98.55V98.65L127.75 98.75L127.85 99.45L127.65 99.65H128.25L128.35 99.75H128.45V99.85V99.95H128.55L128.65 100.05V99.95L128.75 100.15V100.25V100.35L128.65 100.55V101.25V101.45V101.65V101.85V102.35L128.55 102.45L128.35 102.65H127.45H126.95H126.75L126.35 102.75V103.45L125.95 103.35V103.05H125.85L125.95 103.15H125.85L125.75 103.05L125.65 103.15H125.55L125.35 103.25V103.15H125.45V103.05H125.55L125.45 102.95H125.55H125.65V102.85L125.75 102.65V102.15L125.25 102.25L125.15 102.15L125.05 101.95H124.95L124.75 102.05H124.65H124.55L124.45 102.15H124.35V102.25L124.25 102.15L123.75 102.25L123.55 102.35H123.45L123.25 101.85H123.15H123.05L122.45 101.25H122.35L122.05 101.55H121.95L121.85 101.75L121.75 101.85V101.95V102.05L121.65 102.15V102.25H121.55H121.45V102.35H121.35V102.45V102.55H121.25H121.15V102.45H121.05L120.95 102.35L120.75 102.45L120.65 102.55L120.45 102.65L119.85 102.85L119.25 103.05L119.05 103.15L118.95 102.95L118.85 103.05L118.75 102.85H118.65L118.75 102.95L118.65 103.05V103.15H118.55H118.45H118.35L118.25 103.25V103.35V103.45L118.15 103.55V103.65H118.05V103.75H117.95V103.85H117.85V103.95H117.75H117.65V104.05H117.55V104.15V104.25V104.35H117.45V104.45V104.55H117.35V104.65L117.25 104.75L117.05 105.15L116.65 104.65H116.55L116.65 104.35L116.95 103.85L116.85 103.15V103.05L116.15 102.75H116.05L115.95 102.65H115.85H115.75L115.55 102.55L114.85 102.25V102.15L114.35 101.85L114.05 101.65L113.85 101.45H113.75L113.65 101.35H113.55L113.45 101.15L113.15 101.05L112.95 100.85L112.65 100.75V100.85L112.55 100.95L112.45 100.85H112.35H112.25H112.15V100.75H112.05L111.95 100.65L111.85 100.55H111.75H111.65V100.45L111.55 100.35V100.25L111.35 100.15L111.45 99.95L111.35 99.85L111.15 99.75V99.85L111.05 100.05L110.85 100.35V100.45L110.75 100.55H110.65L110.15 100.75H110.05L109.85 100.85H109.55H109.45H109.35V100.95H109.25V101.05H109.15H109.05L108.85 101.15V101.25L108.75 101.35L108.55 101.45L108.45 101.55L107.15 100.95L106.85 101.05H106.75L106.15 101.15L105.85 101.25L105.75 101.35L105.65 101.45L105.75 101.55V101.65L105.85 101.75V101.95L105.75 102.15H105.85L105.65 102.85V102.95V103.05L105.55 103.25L105.35 103.85L105.05 103.75L104.85 103.45V103.55H104.75H104.65H104.55H104.45H104.35H104.25H104.15H104.05H103.95H103.85V103.45H103.75H103.65H103.55H103.45H103.35H103.25V103.55H103.15H103.05H102.95H102.85V103.45V103.35H102.75V103.25L102.85 103.15V103.05V102.95L102.55 103.05H102.45L102.35 103.15H101.95H101.85V103.25L101.75 103.35L101.65 103.45L101.45 103.55L101.25 103.65L101.05 103.55L100.95 103.45L100.85 103.55L100.75 103.65L100.65 103.75L100.85 103.95V104.05V104.15H100.75L100.65 104.25H100.55H100.45L100.35 104.35H100.25H100.15H100.05V104.45H99.95L99.85 104.55V104.45V104.35V104.25L99.75 104.15L99.95 103.95L100.25 103.45L100.55 103.15L99.95 102.65L99.35 103.35L99.15 103.65L99.45 103.55V103.65H99.55V103.75H99.65V103.85L99.75 103.95H99.65L99.25 104.25L99.35 104.45H99.45V104.55L99.65 104.65L99.85 104.75L99.75 104.85V104.95H99.65V105.05H99.55V105.15H99.65L99.75 105.25H99.85V105.35V105.45H99.95V105.55L99.85 105.65V105.75H99.75H99.65V105.65L99.55 105.75L99.45 105.85H99.35L98.95 106.25L98.75 106.45L98.85 106.55L99.15 106.85L98.95 107.35V107.45V107.55L98.85 107.65L98.55 108.45L98.75 108.55H98.95L98.85 108.75L98.75 109.05L98.35 109.25L98.05 109.45L97.15 110.05L97.25 110.65V110.95L96.45 111.15L95.75 111.45L95.25 111.65L95.05 111.75H94.95L94.15 112.15L94.05 112.25L93.25 112.85L93.15 112.95L92.05 113.95L91.85 114.05L91.95 114.15H92.05L92.45 114.75H92.55L92.35 115.05V115.15L92.05 115.55H91.95V115.65L91.85 115.55L91.95 115.45V115.35V115.25V115.15L91.85 115.05L91.75 114.95V114.85V114.75V114.65H91.65H91.55H91.45V114.55H91.35V114.65H91.25V114.75H91.35V114.85V114.95H91.45V115.05V115.15V115.25H91.35V115.35L91.25 115.45V115.55V115.65H91.15L91.05 115.75V115.85H90.95L90.85 115.95H90.75L90.65 116.05L90.55 116.15H90.45V116.25H90.35V116.15V116.05L90.45 115.95V115.85H90.55V115.75L90.65 115.65V115.55V115.45V115.35H90.75V115.25H90.65L90.55 115.15H90.45V115.25H90.35V115.35V115.45V115.55H90.25H90.15V115.65H90.05V115.75V115.85V115.95H89.95V116.05H90.05L89.95 116.15V116.25V116.35V116.45V116.55H90.05V116.65H89.95V116.75H89.85H89.75H89.65L89.55 116.65H89.45H89.35H89.25V116.55V116.45V116.35V116.25V116.15H89.15H89.05V116.05H88.95V115.95V115.85H88.85H88.75V115.75H88.65H88.45H88.35V115.85V115.95V116.05V116.15V116.25V116.35H88.45V116.45V116.55V116.65V116.75V116.85H88.35H88.25V116.75H88.15H88.05H87.95H87.85H87.75H87.65V116.85H87.55H87.45V116.95H87.35H87.25H87.15V116.85H87.05L86.95 116.75H87.05V116.65V116.55H86.95H86.85H86.75H86.65L86.95 116.25V116.15L86.85 115.85H86.75V115.75H86.65V115.65V115.55H86.55H86.45V115.45V115.35H86.35V115.25V115.15H86.25V115.05H86.35V114.95V114.85V114.75V114.65L86.25 114.55V114.45L86.15 114.35H86.05V114.45H85.95H85.85V114.35H85.75V114.45H85.65H85.55H85.45V114.55H85.35H85.25H85.15H85.05V114.45H84.95H84.85V114.55V114.65H84.75V114.75H84.65H84.55H84.45H84.35H84.25V114.85H84.15H84.05V114.95H83.95V115.05L83.85 115.15H83.75H83.65V115.05H83.55V114.95H83.45V114.85V114.75V114.65V114.55H83.35V114.45L83.25 114.35V114.25L83.35 114.15V114.05V113.95V113.85H83.25V113.75H83.15H83.05H82.95V113.65H82.85L82.75 113.75H82.65H82.55H82.45V113.85H82.35H82.25H82.15L82.05 113.75H81.95H81.85H81.75V113.65H81.65H81.55H81.45L81.35 113.75H81.25V113.85V113.95V114.05V114.15V114.25V114.35L81.15 114.45H81.05V114.55H80.95H80.85V114.45H80.75L80.65 114.35H80.55V114.25H80.45H80.35H80.25H80.15H80.05H79.95H79.85H79.75H79.65V114.15H79.55H79.45H79.35H79.25V114.25H79.15V114.35H79.05V114.45V114.55H78.95V114.65L78.85 114.75V114.85H78.75V114.95V115.05H78.65V115.15H78.55V115.25V115.35H78.45V115.45V115.55H78.35V115.65L78.25 115.75V115.85H78.15V115.75V115.65V115.55H78.05H77.95V115.45H77.85V115.35H77.75H77.65V115.45H77.55H77.45V115.55V115.65H77.35V115.75V115.85H77.25V115.95H77.15V116.05H77.05V115.95H76.95V115.85V115.75H76.85H76.75V115.85H76.65V115.95L76.55 116.05V116.15V116.35V116.45V116.55V116.65H76.45V116.75H76.35H76.25H76.15V116.65H76.05H75.95H75.85V116.55V116.45V116.35V116.25H75.75V116.15V116.05V115.95H75.65V115.85H75.55H75.45H75.35V115.75H75.25V115.85H75.15V115.95H75.05L74.95 116.05V116.15L75.05 116.25V116.35V116.45H74.95H74.85L74.75 116.35V116.25H74.65H74.55H74.45V116.15H74.35H74.25H74.15H74.05V116.05H73.95V115.95V115.85H74.05V115.75V115.65H74.15V115.55V115.45H74.05V115.35H73.95H73.85H73.75V115.25H73.65V115.15V115.05V114.95H73.55V114.85V114.75H73.45V114.65H73.35H73.25L73.15 114.75V114.85H73.05V114.95H72.95L72.85 114.85H72.75V114.75V114.65H72.65V114.55V114.45V114.35H72.55V114.25H72.45H72.35L72.25 114.35H72.15V114.25H72.05H71.95H71.85L71.75 114.15H71.65H71.55V114.25H71.45H71.35V114.35H71.25H71.15H71.05H70.95V114.45L70.85 114.55H70.75H70.65V114.45H70.55V114.35H70.45V114.25H70.35V114.15V114.05V113.95H70.25H70.15H70.05H69.95V114.05H69.85H69.75H69.65V114.15H69.55H69.45H69.35V114.25H69.25H69.15H69.05V114.15H68.95V114.25H68.85V114.15H68.75L68.65 114.05H68.55V113.95V113.85H68.45V113.75H68.35V113.65H68.45V113.55H68.35H68.25H68.15V113.45H68.05H67.95H67.85H67.75V113.35H67.65V113.45V113.55V113.65V113.75L67.75 113.85V113.95H67.85V114.05V114.15V114.25V114.35V114.45H67.75V114.35H67.65L67.55 114.25H67.45H67.35H67.25V114.15H67.15H67.05V114.25H66.95H66.85H66.75H66.65H66.55H66.45H66.35H66.25H66.15H66.05V114.15H65.95H65.85H65.75H65.65H65.55V114.25H65.45V114.35H65.35V114.45L65.25 114.55V114.65V114.75V114.85H65.35V114.95V115.05L65.45 115.15V115.25H65.35V115.35H65.25L65.15 115.45H65.05V115.35L64.95 115.45H64.85H64.75L64.65 115.55L64.55 115.45H64.45V115.35V115.25L64.35 115.15L64.25 115.05H64.15H64.05L63.65 114.95H63.35H63.25H63.15H63.05H62.95H62.85H62.75H62.65L62.55 115.05L62.45 115.15L62.35 115.05V115.15H62.15V115.05H62.05V114.95V114.85L61.95 114.75V114.65V114.55H61.85V114.45L61.75 114.35V114.25H61.65V114.15L61.55 114.05V113.95H61.45V113.85V113.75H61.35H61.25L61.15 113.65H61.05L60.85 114.25L60.65 114.55L59.45 114.05L58.75 113.85L58.35 113.65L58.15 113.55L58.05 114.15V114.25H57.95H57.85H57.55H57.25H56.45L55.95 114.05L55.45 113.75H55.35L54.65 114.05L52.65 114.85L52.35 114.95H52.25L52.15 115.95H52.05H51.85L51.55 115.85L51.35 116.15L51.15 116.85L50.85 117.45L50.45 117.35H50.25H50.15H50.05H49.95L49.75 117.15V117.25H49.65H49.55H49.45H49.35H49.25L49.15 117.35L49.35 117.55L49.65 117.75L50.05 118.25L50.15 118.45L50.25 118.65L50.45 118.95L50.95 119.05L50.85 119.85V119.95H50.75H50.65V120.05V120.15V120.25H50.55V120.35H50.45V120.45V120.55V120.65V120.75V120.85V120.95L50.35 121.05V121.15V121.25V121.35V121.45V121.55V121.65V121.75H50.25L49.05 122.15L48.55 122.25L48.05 122.45H47.95L47.85 122.55L47.35 123.55L46.95 124.25L46.85 124.45L47.15 124.75L47.55 125.05V124.95L47.65 125.05L48.15 125.45L48.55 125.75L48.95 126.15L48.75 126.25L48.55 126.55L48.25 126.85L48.35 126.95H48.45L48.55 127.05H48.65L48.75 127.15H48.85L48.75 127.35L48.65 127.85L48.55 128.15H48.75L48.85 128.25L48.75 128.95V129.05L47.65 128.85L47.35 128.75V128.85V128.95H47.25V129.05H47.05H46.95H46.85V129.15H46.75L46.65 129.05V129.15H46.55V129.05H46.15H46.05L45.95 128.95H45.75L45.65 129.15V129.25H45.45V129.15V128.95H45.35H45.05H44.95L44.65 128.85L44.75 129.05L44.65 129.15V129.25H44.55L44.45 129.15H44.35H44.25H44.15L44.05 129.05L43.95 128.95L43.65 128.55L43.25 128.15L43.05 127.85H42.95H42.85L42.25 127.95L41.45 128.25H41.35L40.45 128.55L40.35 128.85L40.25 129.25L40.15 129.55L40.05 129.85L39.95 130.15L39.85 130.45L39.65 130.85V130.95V131.05V131.15V131.55V131.75V132.15H39.45H38.95H38.65H38.45H38.35L37.95 132.25H37.85H37.65L37.55 132.35L36.55 132.55L36.15 132.75L35.75 133.05L35.65 133.25H35.45L35.05 133.35L33.55 133.65L32.95 133.75V133.85L33.05 134.15V134.35V134.95L32.55 135.25L31.95 135.45H31.75L31.25 135.65L30.85 135.35H30.75L29.95 134.85L29.15 134.35L28.35 133.85L28.15 134.05L28.05 134.15L27.75 134.35V134.45V134.65V134.75V134.85L27.85 134.95V135.15H27.95L28.05 135.25L27.85 135.45H27.75V135.55V135.65H27.65V135.75V135.85H27.55V135.95L27.45 136.05V136.15V136.25L27.05 136.45H26.95H26.85H26.75V136.55V136.75V136.85L26.65 136.95H26.55V137.05L26.35 136.95L26.25 137.15H26.15V137.25V137.35V137.45V137.55H26.25V137.65L26.05 137.75H25.95L25.85 137.85H25.75H25.65L25.55 137.75L25.25 137.65L24.95 137.55H24.85H24.75L24.65 137.45H24.55L24.45 137.25L24.35 137.05V136.95V136.75H24.25H24.15V136.65H24.05H23.95L23.85 136.55H23.75L23.55 136.35V136.25L23.35 136.05L23.25 135.95V135.85L23.05 135.75L22.85 135.65L22.65 135.55V135.45H22.55L21.65 135.65L20.95 135.75L20.15 135.85L20.25 136.25H20.05H19.75H19.15H18.55V136.35Z" fill="#220F0F"/>
<path d="M7.34998 78.65L7.25 78.55H7.14999H7.04999V78.45H6.94998V78.35H6.84998L6.75 78.45H6.64999L6.54999 78.55L6.44998 78.65V78.75L6.34998 78.85H6.25H6.14999H6.04999H5.94998H5.84998L5.75 78.75H5.64999H5.54999V78.65H5.44998H5.34998V78.55H5.25H5.14999L5.25 78.95L5.54999 79.95L5.75 80.05L6.34998 80.25V80.85V81.25V81.65V81.85V81.95L6.25 81.85H6.14999H6.04999V81.75L5.94998 81.85L5.84998 82.05V82.35V82.75H5.94998L5.84998 83.15V83.35V83.55V83.65V83.85L5.75 83.95H5.44998L5.54999 84.15V84.45V84.95H5.64999V85.05L5.75 85.25L5.84998 85.45L5.94998 85.75H6.54999L6.64999 85.95V86.45L6.44998 86.55H6.34998H6.25L6.14999 86.65H6.04999H5.94998H5.84998H5.75V86.75H5.44998L5.04999 86.85L4.25 86.95L4.04999 87.25H3.94998H3.84998L4.04999 88.05V88.15V88.25L4.14999 88.35V88.45V88.55L4.25 88.65V88.75V88.85L4.34998 89.05L4.25 89.15L4.04999 89.05H3.94998L3.84998 88.95H3.75H3.64999H3.54999L3.44998 88.85H3.34998V88.75H3.25L3.04999 88.65H2.94998H2.84998H2.75L2.64999 88.55L2.54999 88.45L2.44998 88.65L2.34998 89.15L2.14999 89.65V89.85L2.04999 90.15L1.84998 90.85L1.64999 91.25L2.04999 91.55L1.94998 91.65V91.75L1.84998 91.85H1.75H1.64999H1.54999L1.44998 91.95V92.05L1.54999 92.25L1.44998 92.35L1.34998 92.25L1.25 92.15H1.14999V92.05L1.04999 91.95H0.949982V91.85L0.849976 91.65H0.75V91.55H0.649994L0.25 91.45V91.55L0.349976 91.65L0.449982 91.75V91.85H0.549988V91.95V92.05V92.15V92.25V92.35H0.649994V92.45V92.55L0.75 92.65V92.75H0.849976L0.949982 92.85L1.04999 92.95V93.05L1.14999 93.15V93.25L1.34998 93.75V93.85V93.95V94.05V94.15H1.44998V94.25L1.75 94.75L1.94998 95.05L2.44998 94.65H2.54999L2.64999 94.85V94.75H2.75H2.84998V94.65H2.94998V94.55H3.04999V94.45H3.14999L3.25 94.35H3.34998V94.25H3.44998V94.15V94.05H3.54999H3.64999V94.15H3.75V94.25L4.04999 93.95L4.14999 93.85V94.05V94.25L4.04999 94.45L4.14999 94.55V94.75V94.85H4.25L4.44998 94.75L4.54999 94.95L4.34998 95.15L4.25 95.35L4.14999 95.45L4.34998 95.55L4.75 95.85L4.25 96.55L4.04999 96.85L3.64999 97.45L3.44998 97.85L2.94998 98.55L2.75 98.75L2.54999 99.05L2.75 99.35L2.94998 99.75L3.04999 99.85L2.94998 99.95L2.75 100.45L2.64999 100.65L2.84998 100.75L2.75 100.85L2.84998 100.95L3.14999 101.15L3.34998 101.25V101.35L3.44998 101.45L3.25 101.55L3.14999 101.65V101.75H3.34998L3.54999 101.95L4.34998 102.65L5.04999 102.35L5.25 102.45L5.44998 102.55V102.65H5.54999L5.64999 102.75H5.75H5.84998L6.34998 102.85H6.44998L6.75 102.95V103.05H6.64999V103.15L6.54999 103.25L6.14999 103.45L6.04999 103.55L5.94998 103.65L5.64999 103.75H5.54999H5.44998V103.85V103.95L5.54999 104.05V104.15H5.64999H5.75V104.25H5.84998H5.94998H6.04999H6.14999V104.35L6.25 104.45H6.34998V104.55L6.44998 104.65L6.34998 104.85L6.44998 104.95V105.05V105.55V105.85L6.54999 106.15V106.65V106.95V107.05L6.84998 107.15H7.04999H7.14999V107.25L7.44998 107.35L7.75 107.55H7.84998L8.04999 107.65H8.14999V108.15V108.85V108.95L8.25 109.55V109.95V110.45V110.95V111.35L8.34998 111.75V112.05V112.25V112.35L8.64999 112.45L8.75 112.55L8.84998 112.45H8.94998L9.04999 112.35H9.14999H9.25L9.34998 112.45L9.44998 112.55L9.54999 112.65L9.64999 112.75H9.75H9.84998H9.94998L10.05 112.85H10.25H10.35L10.25 113.05H10.15V113.15L10.05 113.25L10.85 113.45H11.05L12.45 113.85H12.55L12.75 113.95L13.05 114.05H13.35V114.35L13.05 114.45L13.15 114.65L13.35 114.85L13.65 115.35H13.75L13.95 115.45V115.55V115.65H14.05V115.75V115.85H14.15V115.95H14.25V116.05V116.15V116.25L14.15 116.55L13.75 116.35L13.45 116.25L13.35 116.65L13.25 116.75L13.15 117.15L13.05 117.25L13.15 117.35L12.85 117.85L13.25 117.95L13.15 118.25H13.35L13.15 118.95L13.65 118.65L13.75 118.75L14.15 119.15L14.45 119.55L14.85 119.95L15.05 120.15L15.35 120.45L15.65 120.75L15.95 121.05L16.65 121.15L17.45 121.25L17.35 121.45L17.25 121.55V121.65V121.75V121.85L17.35 122.15L17.95 122.05L18.05 122.75L18.45 122.65V122.95V123.15L18.55 123.25L18.65 123.35H18.95V123.65L19.05 123.85L19.65 123.75L19.75 124.05V124.15V124.25L19.65 124.35L19.55 124.45V124.55V124.75V124.85V124.95H19.45V125.15H19.55L19.65 125.25V125.35V125.45V125.55H19.55L19.45 125.65H19.35L19.25 125.75V125.65H18.95H18.65L18.55 125.75H18.45L18.05 125.85H17.85H17.65L17.75 126.05L17.65 126.15V126.45L17.55 126.85H17.45L17.55 126.95V127.05V127.15L17.65 127.25L17.75 127.55L17.95 127.75L18.05 127.85L18.65 127.75L18.95 127.85L19.35 128.05L19.75 128.15L20.25 128.55H20.45V128.65V128.75L20.35 128.95V129.05V129.55V129.65L20.45 129.75V129.85L20.35 129.95V130.25L20.45 130.35L20.55 130.45V130.75H20.65L20.55 130.95H20.65H20.85V131.05L20.95 131.15H21.05H21.15V131.25L21.05 131.45H21.15V131.55V131.95L21.05 132.25V132.45V132.55H21.15V132.65V132.75L21.05 132.85L20.95 132.75L20.85 132.65H20.75H20.65H20.55H20.45V132.75H20.35V132.65H20.25L20.15 132.55H20.05H19.95H19.85L19.75 132.65L19.55 132.85L19.65 133.05L19.95 133.15H20.05H20.15L20.35 132.95V133.15H20.45V133.25V133.35L20.35 133.45V133.65V133.75L20.25 134.15V134.45L20.15 134.75H19.75L19.55 134.65H19.15V134.75L18.95 134.95H18.75L18.65 134.85H18.55H18.45L18.35 135.35L18.25 135.65V135.85L18.15 136.15V136.25H18.35L18.55 136.35V136.25H19.15H19.75H20.05H20.25L20.15 135.85L20.95 135.75L21.65 135.65L22.55 135.45H22.65V135.55L22.85 135.65L23.05 135.75L23.25 135.85V135.95L23.35 136.05L23.55 136.25V136.35L23.75 136.55H23.85L23.95 136.65H24.05H24.15V136.75H24.25H24.35V136.95V137.05L24.45 137.25L24.55 137.45H24.65L24.75 137.55H24.85H24.95L25.25 137.65L25.55 137.75L25.65 137.85H25.75H25.85L25.95 137.75H26.05L26.25 137.65V137.55H26.15V137.45V137.35V137.25V137.15H26.25L26.35 136.95L26.55 137.05V136.95H26.65L26.75 136.85V136.75V136.55V136.45H26.85H26.95H27.05L27.45 136.25V136.15V136.05L27.55 135.95V135.85H27.65V135.75V135.65H27.75V135.55V135.45H27.85L28.05 135.25L27.95 135.15H27.85V134.95L27.75 134.85V134.75V134.65V134.45V134.35L28.05 134.15L28.15 134.05L28.35 133.85L29.15 134.35L29.95 134.85L30.75 135.35H30.85L31.25 135.65L31.75 135.45H31.95L32.55 135.25L33.05 134.95V134.35V134.15L32.95 133.85V133.75L33.55 133.65L35.05 133.35L35.45 133.25H35.65L35.75 133.05L36.15 132.75L36.55 132.55L37.55 132.35L37.65 132.25H37.85H37.95L38.35 132.15H38.45H38.65H38.95H39.45H39.65V131.75V131.55V131.15V131.05V130.95V130.85L39.85 130.45L39.95 130.15L40.05 129.85L40.15 129.55L40.25 129.25L40.35 128.85L40.45 128.55L41.35 128.25H41.45L42.25 127.95L42.85 127.85H42.95H43.05L43.25 128.15L43.65 128.55L43.95 128.95L44.05 129.05L44.15 129.15H44.25H44.35H44.45L44.55 129.25H44.65V129.15L44.75 129.05L44.65 128.85L44.95 128.95H45.05H45.35H45.45V129.15V129.25H45.65V129.15L45.75 128.95H45.95L46.05 129.05H46.15H46.55V129.15H46.65V129.05L46.75 129.15H46.85V129.05H46.95H47.05H47.25V128.95H47.35V128.85V128.75L47.65 128.85L48.75 129.05V128.95L48.85 128.25L48.75 128.15H48.55L48.65 127.85L48.75 127.35L48.85 127.15H48.75L48.65 127.05H48.55L48.45 126.95H48.35L48.25 126.85L48.55 126.55L48.75 126.25L48.95 126.15L48.55 125.75L48.15 125.45L47.65 125.05L47.55 124.95V125.05L47.15 124.75L46.85 124.45L46.95 124.25L47.35 123.55L47.85 122.55L47.95 122.45H48.05L48.55 122.25L49.05 122.15L50.25 121.75H50.35V121.65V121.55V121.45V121.35V121.25V121.15V121.05L50.45 120.95V120.85V120.75V120.65V120.55V120.45V120.35H50.55V120.25H50.65V120.15V120.05V119.95H50.75H50.85V119.85L50.95 119.05L50.45 118.95L50.25 118.65L50.15 118.45L50.05 118.25L49.65 117.75L49.35 117.55L49.15 117.35L49.25 117.25H49.35H49.45H49.55H49.65H49.75V117.15L49.95 117.35H50.05H50.15H50.25H50.45L50.85 117.45L51.15 116.85L51.35 116.15L51.55 115.85L51.85 115.95H52.05H52.15L52.25 114.95H52.35L52.65 114.85L54.65 114.05L55.35 113.75H55.45L55.95 114.05L56.45 114.25H57.25H57.55H57.85H57.95H58.05V114.15L58.15 113.55L58.35 113.65L58.75 113.85L59.45 114.05L60.65 114.55L60.85 114.25L61.05 113.65H61.15L61.25 113.75H61.35H61.45V113.85V113.95H61.55V114.05L61.65 114.15V114.25H61.75V114.35L61.85 114.45V114.55H61.95V114.65V114.75L62.05 114.85V114.95V115.05H62.15V115.15H62.35V115.05L62.45 115.15L62.55 115.05L62.65 114.95H62.75H62.85H62.95H63.05H63.15H63.25H63.35H63.65L64.05 115.05H64.15H64.25L64.35 115.15L64.45 115.25V115.35V115.45H64.55L64.65 115.55L64.75 115.45H64.85H64.95L65.05 115.35V115.45H65.15L65.25 115.35H65.35V115.25H65.45V115.15L65.35 115.05V114.95V114.85H65.25V114.75V114.65V114.55L65.35 114.45V114.35H65.45V114.25H65.55V114.15H65.65H65.75H65.85H65.95H66.05V114.25H66.15H66.25H66.35H66.45H66.55H66.65H66.75H66.85H66.95H67.05V114.15H67.15H67.25V114.25H67.35H67.45H67.55L67.65 114.35H67.75V114.45H67.85V114.35V114.25V114.15V114.05V113.95H67.75V113.85L67.65 113.75V113.65V113.55V113.45V113.35H67.75V113.45H67.85H67.95H68.05H68.15V113.55H68.25H68.35H68.45V113.65H68.35V113.75H68.45V113.85H68.55V113.95V114.05H68.65L68.75 114.15H68.85V114.25H68.95V114.15H69.05V114.25H69.15H69.25H69.35V114.15H69.45H69.55H69.65V114.05H69.75H69.85H69.95V113.95H70.05H70.15H70.25H70.35V114.05V114.15V114.25H70.45V114.35H70.55V114.45H70.65V114.55H70.75H70.85L70.95 114.45V114.35H71.05H71.15H71.25H71.35V114.25H71.45H71.55V114.15H71.65H71.75M7.34998 78.65L7.75 78.45V78.55H7.64999V78.65H7.54999H7.44998L7.34998 78.75V78.65ZM7.34998 78.65L7.25 78.75L7.34998 78.85H7.25V78.95V79.05V79.15H7.14999L7.04999 79.25V79.35L7.14999 79.65H7.04999H6.94998L6.84998 79.75H6.64999L6.54999 79.85H6.44998H6.34998L6.54999 80.15L6.84998 80.45L6.94998 80.55L7.04999 80.65L7.25 80.95L7.34998 81.05V81.15L7.54999 81.35L7.75 81.65L7.94998 81.95L8.04999 82.05L8.75 81.95L9.14999 81.85L9.44998 81.75L10.35 81.65H10.45L10.65 81.55H10.75H10.85V81.65L10.95 81.75V81.85V81.95L11.05 82.15L11.35 82.05H11.45L11.55 81.95H11.65L11.95 81.85V81.75L12.25 81.65L12.55 81.55L12.75 81.45L12.95 81.35L13.05 81.45H13.25H13.55H13.65L13.85 81.55H14.15H14.25V81.35V81.25V81.15V81.05V80.95H14.15V80.85L14.05 80.75L13.95 80.65V80.55V80.45H14.05H14.15L14.45 80.35L14.75 80.15H14.95L14.75 79.85L15.25 79.45L15.55 79.25L15.45 79.15H15.55L15.45 79.05L15.35 78.85L15.65 78.55L16.05 78.25L16.15 78.15V78.05L16.35 77.75L16.55 77.45V77.35L16.65 77.25V77.15V77.05V76.95V76.85L16.75 76.75H16.85H16.95H17.05H17.15H17.25L17.55 76.65H17.65H17.75H17.85V76.55V76.45L17.95 76.35V76.25V76.15V76.05V75.95V75.85V75.65V75.55V75.15V74.75V74.55V74.25V73.95V73.85V73.75V73.65L17.85 73.55L17.75 73.25L17.65 73.15L17.55 73.05L17.45 72.85L17.35 72.65V72.55V72.45V72.35L17.45 72.25V72.15L17.55 72.05V71.95V71.85H17.65H17.75H17.85V71.95H17.95V72.05L18.05 72.15V72.25H18.15L18.35 72.15H18.45L18.55 72.05L18.65 71.95L18.85 71.85L19.15 71.65L19.25 71.55H19.35H19.45H19.65H19.75H19.95H20.05H20.25H20.35L20.45 71.65L20.55 71.35V71.25V71.15V71.05L20.65 70.75V70.65L20.75 70.55H20.85H20.95H21.05H21.15L21.45 70.15L21.75 70.25L21.85 70.35L22.45 70.55L23.65 70.85H23.75V70.95H23.85H23.95V71.05H24.05L24.15 71.25V71.35V71.45H24.25L24.35 71.55V71.65H24.45V71.85V71.95V72.05V72.15L24.35 72.25L24.45 72.35V72.45V72.55V72.65H24.35V72.75H24.25V72.85L24.35 72.95V73.05H24.45V73.15H24.55V73.25V73.35V73.45V73.55V73.65V73.75L24.65 73.85V73.95V74.05H24.75H24.85V74.15H24.95V74.25L25.05 74.35V74.45L25.15 74.55V74.65L25.35 74.75V74.85H25.45H25.55L25.65 74.95L25.75 75.05H25.85V74.95H25.95V74.85V74.75H26.05V74.65V74.55V74.45L26.15 74.35L26.25 74.25H26.35V74.05V73.95V73.85V73.75V73.65L26.25 73.45L26.15 73.35V73.25L26.25 73.15H26.15V73.05L26.05 72.95L25.95 72.85L25.85 72.75H25.75V72.65H25.65L25.55 72.55V72.45H25.65V72.35L25.75 72.25V72.15H25.85V72.05H25.95V72.15H26.15V72.05H26.25V71.95H26.35H26.45M26.45 71.95V72.05M26.45 71.95H26.55V71.85L26.65 71.75H26.75L26.85 71.55V71.35L26.95 70.75L27.05 70.35H27.15H27.25V70.25H27.35L27.55 70.15L27.65 70.05V70.15V70.35V70.45V70.75L28.05 70.65H28.15H28.35H28.65H28.95H29.05H29.15L29.95 70.55H30.25L30.15 71.15L30.05 71.75L29.95 72.45V72.55V72.95V73.25V73.45L29.85 73.75V73.85V73.95L29.75 74.25L29.65 74.75H29.75L30.15 74.85H30.55H30.75L31.35 74.95H31.75L32.05 75.15L32.15 75.05H32.25H32.35L32.45 75.15H32.55H32.65H32.75H32.85H32.95L33.05 75.25H33.15V74.95L33.35 75.05L33.85 75.15L34.25 75.25H34.35H34.45L34.55 75.35L34.95 75.45H35.05L35.35 75.55H35.45L35.75 75.65L36.35 75.75L36.65 75.85H36.85L37.05 75.95L38.05 76.15H38.35L38.65 76.25V76.35V76.45V76.55V76.65H38.55V76.75V76.85V76.95V77.05L38.85 77.15H39.05L38.95 77.35V77.45V77.55L38.85 77.65L39.05 77.75L39.15 77.55L39.25 77.15L39.35 76.85L39.45 76.45V76.25L39.55 76.15V76.05V75.95L39.65 75.65V75.35V75.05L39.75 74.95L39.85 74.45V74.15L39.95 73.85V73.55L40.05 73.15L40.15 72.55H40.25H40.35H40.45H40.55H40.75H40.85H41.05H41.15H41.25H41.35V72.45V72.25L41.25 71.85L41.05 70.45L41.25 70.35H41.35H41.55H41.65L41.85 70.25H41.95H42.05H42.15L42.25 70.15H42.35V70.05H42.45V69.95L42.35 69.35L42.25 69.25V69.15V68.75H42.35H42.45V68.65H42.55V68.55H42.65V68.45V68.35H42.75H42.85H42.95H43.05V68.25H43.15H43.25H43.35V68.15H43.45V68.05H43.55H43.65L43.75 67.95L43.85 67.85L43.95 67.75H44.05L44.25 68.05L44.55 68.55L44.95 69.05V69.15L45.15 69.35L45.25 69.55L45.55 69.95L45.95 70.35L46.15 70.65L46.35 70.55H46.45L46.75 70.45L47.25 70.65V70.35H47.35H47.45H47.55L47.65 70.25L47.55 70.15V70.05V69.95H47.65V69.85H47.75L47.85 69.75H47.95H48.05H48.15V69.65H48.25V69.55V69.45V69.35H48.35V69.25V69.15H48.45V69.05H48.55V68.95H48.65V68.85H48.75V68.75V68.65H48.85V68.55H48.95H49.05L49.15 68.65H49.25V68.75V68.85H49.35V68.95H49.45H49.55L49.65 68.85L49.85 68.55L50.25 68.05L50.75 67.35H50.85V67.45H50.95L51.05 67.55L51.15 67.65L51.25 67.75H51.45L51.55 67.85V67.95H51.65L51.85 68.05V68.15H51.95H52.05V68.25H52.15L52.25 68.35L52.35 68.45L52.65 68.35L52.95 68.25H53.05L53.25 68.15H53.45V68.25V68.35V68.45V68.55H53.55L53.65 68.65V68.55H53.75V68.45H53.85H53.95V68.55H54.15H54.25H54.35L54.45 68.65L54.55 68.75L54.75 68.85V68.95H54.85L55.15 69.35L55.45 69.65L55.65 69.75L55.85 69.95L56.25 69.75L56.45 69.95L56.55 70.05L56.75 70.25H56.85V70.35L56.95 70.25L57.35 69.95L57.45 69.75L57.55 69.65H57.65L57.75 69.55L57.85 69.35H57.95V69.25L58.25 69.35H58.35H58.45H58.55H58.65H58.75H58.95H59.05H59.25H59.35L59.65 69.25V69.15H59.75L60.05 68.95L60.35 68.65H60.45L60.55 68.55L60.75 68.65H61.15H61.25V68.55H61.45H61.65L61.75 68.65H61.85L61.95 68.75H62.05V68.85H62.15H62.25H62.35V68.75H62.45V68.65L62.55 68.75L62.95 68.65H63.15H63.35H63.45L63.55 68.75H63.65H63.95V68.65L64.05 68.55V68.45H64.15H64.25L64.45 68.25V68.05L64.85 67.85L65.15 67.95H65.25H65.35L65.95 68.25L66.05 68.15V68.05V67.85L66.15 67.75V67.65L66.25 67.45V67.35L66.35 67.25V67.05V66.95H66.45V66.85V66.75L66.55 66.65V66.55V66.45H66.65V66.55H66.75V66.65H66.85H66.95V66.55H67.05V66.45V66.35V66.25L66.95 66.05V65.95V65.75V65.55L67.05 65.45L67.25 65.35V65.05V64.85L67.35 64.75V64.55V64.45L67.05 64.35L66.95 64.15L66.65 63.85H66.55L67.05 63.65V63.55L67.35 63.45L67.65 63.35L67.95 63.25H68.05H68.15H68.25L68.35 63.15H68.75L69.25 63.25H69.35H69.55H69.75H69.85H69.95V63.35H70.05H70.15H70.25V63.25H70.35V63.15L70.45 63.05L70.55 62.95L70.75 62.85V62.75L70.85 62.65V62.25V61.85V61.55V61.45V61.35V61.05L70.95 60.85L71.05 60.75L71.55 60.15L71.95 59.65V59.55L72.05 59.45H72.15V59.55V59.65H72.25V59.75V59.85L72.35 60.05V60.15V60.25V60.35H72.45V60.45L72.55 60.55V60.65H72.65H72.75H72.85V60.55L72.75 60.35L72.85 60.25V60.15L72.65 59.75L72.55 59.65V59.35L72.75 59.25V59.15H72.85L72.95 59.05V58.95H73.05H73.45L73.65 59.05V58.85V58.75V58.65L73.75 58.55H73.85H73.95V58.45H74.05H74.15V58.35H74.25H74.35H74.45V58.25H74.55V58.15H74.65H74.75V58.05H74.85H74.95V57.95V57.85V57.75V57.65V57.55H75.05L75.15 57.65H75.25V57.55H75.35V57.45V57.35H75.25V57.25V57.15V57.05H75.35V57.15H75.45V57.05H75.55V56.95V56.85H75.45L75.35 56.95V56.85H75.25V56.75H75.35V56.65V56.55H75.25H75.15V56.45H75.25V56.35L75.35 56.25H75.45V56.15H75.35V56.05H75.25V55.95H75.35V55.85L75.45 55.75V55.65V55.55H75.55H75.65V55.45V55.35H75.55V55.25V55.15V55.05V54.95H75.65V54.85H75.75M75.75 54.85H75.85M75.75 54.85V54.75V54.65V54.55L75.65 54.45L75.55 54.35H75.65V54.25V54.15H75.55V54.05V53.95H75.45L75.55 53.85V53.75V53.65L75.65 53.55V53.45H75.75H75.85H75.95V53.35V53.25V53.15V53.05H76.05V52.95V52.85V52.75H76.15V52.85H76.25H76.35H76.45H76.55V52.75V52.65V52.55H76.65L76.85 52.65L76.95 52.75L77.15 52.95L77.25 53.05H77.35V53.15H77.45H77.55L77.65 53.25V53.15V53.05L77.75 52.75L77.85 52.85H77.95L78.05 52.95H78.15H78.25L78.15 52.85V52.75V52.65V52.55V52.45V52.35V52.25V52.15V52.05L78.05 51.95V51.85H77.95L77.85 51.75H77.75H77.65H77.55L77.75 51.55L77.85 51.45L77.95 51.35L78.05 51.25L78.15 51.15L78.25 51.05L78.15 50.95H77.95H77.85L77.65 50.85H77.55H77.45L77.05 50.75L77.15 50.55V50.45V50.35V50.25L77.25 50.15V50.05V49.95V49.85V49.75H77.35V49.65V49.55L77.45 49.45V49.35V49.25V49.15V49.05H77.55V48.95V48.85H77.65V48.75V48.65L77.75 48.55V48.45L78.05 47.85L78.15 47.65L78.25 47.55L78.35 47.35V47.25L78.45 47.15L78.55 47.05L78.65 46.85L78.85 46.65V46.55L78.95 46.45L79.05 46.25L79.15 46.15L79.45 45.65L79.75 45.15L80.05 44.75L80.25 44.45L80.55 44.05L80.75 43.65V43.55L80.65 43.25H80.55V43.15L80.45 43.05V42.95L80.55 42.85L80.75 42.65L80.65 42.55L80.85 42.35L81.05 42.45L80.95 42.65L81.15 42.75H81.25L81.35 42.55L81.45 42.35V42.25L81.55 42.15L81.45 42.05H81.35L81.25 41.85H81.15L81.05 41.75H80.95H80.85L80.45 41.55L80.65 41.05L80.75 40.95L80.85 40.55L80.95 40.15L81.25 39.35H81.35H81.45L81.55 39.25L81.75 39.15L81.65 38.95L81.55 38.85V38.65L81.45 38.45V38.35V38.25V38.15H81.35V38.05L81.25 37.85L81.15 37.75V37.65L81.05 37.35H81.15L81.25 37.25L81.15 37.05H81.05V36.95L81.15 36.75L81.25 36.35L81.45 35.75L81.15 35.45L80.45 34.95L80.15 34.65L80.25 34.55L80.35 34.25L80.65 33.65V33.55L80.75 33.35L80.85 33.15L80.95 33.05H80.85V32.95V32.85H80.95L81.15 32.55V32.45L81.45 31.85L81.65 31.55L81.75 31.35L81.55 30.95L81.45 30.65L81.35 30.55V30.45H81.25V30.35L81.15 30.25V30.15H81.05V30.05V29.95V29.85V29.75H81.15L81.45 29.55L83.05 28.65L83.25 28.75L83.35 28.85V28.95H83.45V29.05L83.55 29.15V29.25L83.65 29.35H83.75V29.25L83.95 29.15V29.05H84.05L84.45 28.45L84.55 28.35L84.75 28.05L85.15 27.55H85.25V27.45L85.65 27.25L86.35 26.95V26.85H86.45H86.55V26.65H86.65L87.25 26.55H87.35L87.45 26.45H87.55H87.65L88.05 26.35H88.35H88.45H88.55H88.75H88.95H89.05L89.25 26.15H89.45L89.55 25.85L89.75 25.55V25.45L89.55 25.15L88.65 23.85L88.05 23.15L87.45 23.05L87.55 22.55L87.95 22.35L88.25 22.15L88.05 22.05L87.35 21.55L86.25 20.95L85.75 21.35L85.65 21.55H85.45L85.05 21.75L85.35 21.35V21.25H85.45L85.55 21.15L86.05 20.55L86.45 20.15L86.05 19.75L85.65 20.15L85.45 20.05L85.65 19.55V19.35L85.85 19.15L86.15 18.85H86.25L86.75 18.75H87.05L87.45 18.85L87.95 18.95H88.45H88.55L88.65 18.85H88.85H88.95H89.15L89.95 18.65H90.15L90.85 18.85L91.45 19.05L91.65 18.85L91.85 18.95L92.25 19.15L92.55 19.45L92.85 19.85L92.95 19.95L93.05 20.15V20.25V20.35L92.95 20.45L92.75 20.55L92.45 21.15V21.35L92.35 21.75V22.05V22.15V22.35L92.45 22.45V22.65L92.35 22.75L92.05 23.25L91.95 23.35V23.45V23.65V23.85V23.95V24.35L91.85 24.75V24.95V25.25L92.05 26.15H92.35L92.55 27.15L92.75 27.85H93.85L93.95 28.15H94.35L94.45 28.95L94.55 29.15H94.65L94.85 29.35H95.05L95.35 29.15H95.55V29.45L95.65 29.95L95.75 30.15V30.25L95.85 30.45H95.95H96.15H96.25L96.35 30.35L96.45 30.25L96.55 30.15V30.05L96.25 29.65L96.35 29.55V29.45V29.35L96.45 29.25L96.65 29.15L96.75 29.05V28.85V28.75L96.65 28.65H96.55V28.55V28.45L96.65 28.35L96.85 28.15L97.05 28.35L97.15 28.25L97.45 28.15V28.05L97.55 27.95L97.65 28.05L97.85 27.95V27.85L97.95 27.75L98.05 27.95L98.15 28.15L98.25 28.05L98.35 28.15L98.45 28.05H98.65L98.75 27.75V27.55H98.85L98.95 27.35H99.05V27.05H99.15L99.25 26.85V26.65V26.45H99.35H99.45H99.75V26.15H99.85H99.95V25.95V25.85V25.75V25.55H100.45H100.75H101.25H101.45V26.05V26.25L101.55 26.75H101.45L101.35 26.85H101.25L101.35 26.95L101.45 27.05L101.55 27.25L101.65 27.45L101.75 27.65V27.85V28.05L101.65 28.55L101.55 29.55L102.05 29.45H102.15L102.95 29.35H103.05V29.45H103.25H103.55H103.65H103.85H103.95H104.05H104.15L104.25 29.35L104.35 29.45H104.45H104.55L104.95 29.55L105.55 29.75H105.75L106.15 29.85L106.35 29.95H106.45L106.55 29.85H106.75V29.75H106.65L106.75 29.65L106.95 29.45L107.15 29.05L107.25 28.85L107.35 28.75V28.65L107.95 27.55L108.25 27.05L108.45 26.65L108.55 26.55H109.15H109.25H109.55H109.65L109.55 26.15V26.05V25.55L109.45 25.25V25.15V25.05V24.75V24.55L109.55 24.35H109.65L109.85 24.15L109.95 24.05L110.15 23.95L110.25 23.85L110.45 23.65L110.55 23.55L110.65 23.45L110.75 23.25L111.05 22.55L111.15 22.35L111.35 21.95L111.55 21.65L111.65 21.45V21.35V21.25V20.85L112.05 20.95H112.85L113.55 21.05H114.05L114.45 21.15H115.05H115.45V21.45V21.75V21.95V22.05H115.55H115.65L115.85 22.15L115.95 22.35L116.05 22.65L116.15 22.45L116.25 22.25L116.45 21.95L116.55 21.85V21.75H116.65V21.65L116.75 21.55V21.45L116.85 21.35V21.25V21.15V20.95V20.85V20.75V20.65V20.55V20.45V20.35V20.25V20.15V20.05L116.75 19.95V19.85V19.75V19.65V19.55V19.45V19.35V19.25L116.65 19.15V19.05L116.55 18.75V18.05L116.45 17.75V17.55V17.25H116.35V17.15L116.25 17.05H116.15V16.95L116.05 16.85L115.95 16.75H116.05L116.35 16.65L116.25 16.35H116.35L116.45 16.25L116.55 16.15H116.65V16.05H116.75H116.85V15.95H117.15L117.35 15.85L117.45 15.75H117.55L117.75 15.65L117.95 15.55L118.25 15.35H118.35L118.65 15.15L119.05 14.95L119.25 14.85L119.45 14.75V14.85H119.55V14.95H119.65L119.95 15.15L120.05 14.95L120.15 14.55L120.25 14.25L120.35 14.15L120.15 14.05H119.95H119.85H119.65L119.35 13.95L119.05 13.85L118.65 13.75H118.55H118.35H118.15V13.65H117.95L117.55 13.55H117.35H117.25H117.05L116.75 13.65L116.45 13.85L116.25 13.75L116.35 13.55V13.45V13.35V12.85L116.45 12.55V12.45V12.35V12.15V11.95V11.75V11.55V11.45V11.35V11.25V11.15L116.55 10.55V10.35L116.75 10.25L116.85 10.15L117.35 9.84999L117.45 9.75L117.75 9.64999L117.85 9.54999L117.95 9.45L118.15 9.34999H118.25L118.45 9.25V9.14999L118.85 8.95H118.95V8.84999H119.05L119.15 8.75H119.25L119.35 8.64999H119.45V8.54999H119.55L119.65 8.45H119.75L119.55 8.14999V8.04999L119.45 7.95L119.35 7.75H119.25V7.64999L119.15 7.54999L119.05 7.45V7.34999L118.95 7.25V7.14999H118.85L118.55 7.34999L118.35 7.54999L118.25 7.25L118.05 6.75L117.95 6.54999L117.85 6.34999V6.14999L117.75 5.95L117.65 5.75L117.75 5.84999H117.85L118.05 5.95H118.25L118.35 6.04999H118.45L118.65 6.14999L119.25 6.34999L119.55 5.54999H119.65V5.34999L119.75 5.25V5.14999V5.04999L119.85 4.95L119.95 4.84999L120.05 4.64999V4.54999L120.15 4.25L120.25 4.14999L120.35 4.04999L120.45 3.75L120.55 3.64999V3.54999L120.75 3.45V3.34999L120.85 3.25L120.95 3.04999L121.05 2.95L120.75 2.84999H120.65L120.55 2.75L120.65 2.45L121.05 2.25L121.35 2.14999L121.75 2.04999L121.95 2.25L122.15 2.54999L122.35 2.75L122.45 2.84999L122.55 3.04999L122.75 3.14999L122.85 3.25L123.05 3.45H123.25H123.35H123.55H123.85L123.95 3.34999L124.05 3.14999L124.15 2.95L124.25 2.84999V2.75L124.35 2.64999L124.45 2.34999H124.55V2.25L124.85 1.64999H124.95V1.54999L125.15 1.25L125.35 0.849991H125.55H125.85L126.45 0.949997L126.95 0.25L127.35 0.549988L126.85 1.34999L126.65 1.54999L127.75 2.45L128.05 2.75L128.15 2.84999L128.25 2.95H128.35L128.85 3.45H129.15L129.25 3.54999V3.75V3.84999V3.95V4.04999L129.35 4.25L129.45 4.45H129.55V4.54999L129.65 4.75L129.75 4.84999V4.95L129.85 5.04999V5.14999H129.95V5.25L130.35 5.34999L130.45 5.45L131.55 5.75L132.05 5.84999L132.15 5.95L133.15 6.14999L134.45 6.54999L135.15 6.75L135.75 6.95L136.05 7.04999L136.25 8.14999L136.35 8.84999L135.45 8.75L133.95 9.14999H133.75L133.65 9.25V9.34999V9.45L133.75 9.54999L133.85 9.64999L133.95 9.75V9.84999V9.95H134.05V10.05H134.15H134.25H134.35V10.15H134.45V10.25L134.55 10.35H134.65L134.75 10.45H134.85V10.55H134.95V10.65H134.85L134.75 10.95L134.45 11.35H134.35V11.45L134.25 11.75L134.35 12.05L134.45 12.15L134.55 12.25V12.35V12.45L134.65 12.55L134.75 12.75L134.85 12.95H134.95V13.05V13.15H135.05V13.25L135.15 13.35L135.25 13.45L135.35 13.55L135.45 13.65L135.65 13.85L135.75 14.05L135.85 14.15L136.15 14.45L136.35 14.65L136.45 14.75V14.85L136.55 14.95H136.65L136.85 15.15V15.25L137.25 15.15V15.05V14.95L137.35 14.65L137.45 14.25V14.15L137.55 14.05L137.75 13.75L137.85 13.65L137.95 13.75L138.15 13.95V14.05H138.25L138.35 14.15V14.25H138.45V14.35L138.55 14.45H138.65V14.55H138.75L138.65 14.65L138.55 14.75V14.85V14.95V15.05L138.45 15.45L139.35 15.65L139.45 16.15V16.45L139.55 16.75V17.15V17.75L139.65 18.05L139.75 18.15H140.05L140.15 19.35V19.75L140.85 20.25L141.45 20.55L141.75 20.75L142.35 21.15L142.45 21.25L142.55 21.35H142.65L142.55 21.65V21.75V21.85L142.45 21.95V22.05V22.15V22.25L142.35 22.45L142.25 22.75V22.95L142.15 23.05V23.35L142.45 23.45L142.75 23.65L142.65 23.95H142.45L142.15 23.85V24.45V24.65V24.75L142.05 24.85V25.05L141.95 25.45V25.65V25.85L142.05 26.05L142.15 26.25L142.35 26.45L142.45 26.55L142.55 26.65L142.75 26.75L142.95 26.95V27.05L142.75 27.15L142.45 27.35L142.15 27.55L141.85 27.75L141.45 27.95L141.35 28.05L141.25 27.85L140.85 27.25L140.35 27.65L140.25 27.75L139.85 28.05L139.95 28.15L140.05 28.25L140.15 28.35L140.35 28.55L140.55 28.85L140.85 29.15V29.25H140.95V29.35L141.25 29.65L141.55 29.95L141.65 30.05V30.15L141.75 30.35L141.85 30.55V30.65L141.95 30.75L142.05 30.85V30.95H142.15L142.25 31.05L142.35 31.15L142.25 31.25L142.35 31.45L142.65 31.65V31.75L142.85 31.95V32.05L143.05 32.25V32.35L143.25 32.75V32.85L143.45 33.35L143.65 34.15L146.15 33.65L146.45 33.55V33.75V33.95L146.55 34.15L146.65 34.65L146.75 35.15L146.85 35.55L146.95 35.95H147.05H147.25H148.05H148.45H148.65H149.05L149.35 36.65L149.55 36.95L149.85 37.45V37.55V37.65V37.75V37.85H149.75V37.95H149.65L149.75 38.75L149.85 40.15V40.45L149.95 40.95V41.05V41.55L150.95 41.85L151.65 42.15L152.55 42.45L154.55 43.25L154.35 43.55H154.45H154.55H154.65H154.75H154.85H154.95L155.05 43.65L155.15 43.85L154.95 43.95L155.05 44.05L155.15 44.15H155.25H155.35V44.25V44.35V44.45H155.45V44.55L155.55 44.65H155.65V44.75H155.75V44.85H155.85V44.95H155.95M155.95 44.95V45.05M155.95 44.95H156.05H156.15V44.85H156.25V44.95H156.35V45.05V45.15H156.45H156.55M156.55 45.15V45.25M156.55 45.15H156.65M156.65 45.15V45.05H156.75V45.15H156.65ZM156.65 45.15V45.25H156.75V45.35V45.45H156.65H156.55V45.55H156.65H156.75V45.65M156.75 45.65H156.85M156.75 45.65V45.75H156.65H156.55H156.45H156.35V45.85H156.45V45.95V46.05V46.15H156.55L156.65 46.25V46.35V46.45V46.55L156.55 46.65V46.75H156.65L156.75 46.85V46.95V47.05V47.15H156.85V47.05H156.95H157.05V47.15H156.95V47.25V47.35V47.45V47.55H156.85V47.65V47.75H156.95H157.05V47.85V47.95H157.15V48.05H157.05H156.95H156.85V48.15H156.75V48.25H156.65L156.75 48.35H156.85H156.95H157.05V48.45V48.55H156.95V48.65H156.85V48.75L156.75 48.85V48.95L156.65 49.05H156.55L156.45 49.15L156.15 49.25V49.35H156.25H156.35L156.45 49.45L156.55 49.55L156.65 49.65L156.95 49.95H157.05L157.15 49.85H157.25H157.35H157.45L158.15 50.55L158.25 50.65L158.35 50.75L158.55 51.05L158.65 51.25L158.75 51.45V51.55H158.85V51.45V51.35H158.95H159.05H159.15H159.25V51.45H159.15L159.05 51.55H158.95V51.65H158.85V51.75L158.75 51.85L158.85 51.95M158.85 51.95V51.85H158.95V51.95H158.85ZM158.85 51.95V52.05H158.95M158.95 52.05H159.05M158.95 52.05V52.15H159.05V52.25H158.95L158.85 52.35H158.95V52.45M158.95 52.45H159.05M158.95 52.45V52.55H158.85V52.65V52.75H158.95V52.85V52.95H158.85V53.05V53.55H158.75V53.65V53.75V53.85H158.85H158.95V53.95H158.85V54.05V54.25V55.45H158.75H158.65V55.55V55.65H158.55L158.45 55.75L158.35 55.85L158.25 55.95L158.15 56.05H158.05L157.05 57.15L156.85 57.35L156.75 57.45H156.65H156.55L156.45 57.35L156.05 57.25H155.75H155.45H155.35H155.25L155.15 57.35V57.45V57.55L155.05 57.65V57.75H154.95V57.85V57.95H154.85V58.05V58.15V58.25H154.75V58.35V58.45L154.85 58.65V58.75V58.85V58.95H154.75L154.85 59.05V59.15V59.25H154.75L154.85 59.35H154.75L154.65 59.45V59.55V59.65V59.75V59.85V59.95V60.05V60.15V60.25V60.35H154.55V60.45H154.65V60.55L154.75 60.65V60.75H154.85V60.85V60.95V61.05L154.95 61.15V61.25V61.35L154.85 61.45L154.75 61.55H154.65V61.65H154.55H154.45H154.35L154.25 61.75H154.15L154.05 61.85H153.95V61.95L153.85 62.05V62.15V62.25V62.35L153.95 62.45H154.05L154.15 62.55H154.25V62.65V62.75V62.85H154.35H154.45V62.95H154.65L154.75 63.05H154.85H154.95H155.05H155.15M155.15 63.05V62.95M155.15 63.05H155.25V63.15H155.35V63.25V63.35V63.45V63.55V63.65V63.75V63.85V63.95V64.05V64.15V64.35V64.45L155.25 64.55V64.65V64.75V64.85H155.15V64.95L155.25 65.05V65.15V65.25H155.35V65.35V65.45H155.45V65.55L155.55 65.65V65.75H155.65V65.85V65.95H155.75V66.05V66.15H155.85V66.25H155.95V66.35H156.05H156.15L156.25 66.45V66.35H156.35H156.45H156.55H156.65V66.25H156.75H156.85H156.95H157.05V66.35L157.15 66.45L157.25 66.55L157.35 66.65V66.75H157.45L157.55 66.85L157.65 66.95L157.75 67.05H157.85L157.95 67.15H158.05H158.15V67.25V67.35V67.45V67.55V67.65V67.75H158.05L158.15 67.85V67.95V68.05V68.15V68.25L158.25 68.35V68.45V68.55V68.65H158.15V68.75H157.95H157.85H157.75H157.65L157.55 68.65H157.45H157.25H157.15H157.05V68.55H156.95H156.85H156.75H156.65H156.55H156.45L156.35 68.65H156.25H156.15H156.05H155.95H155.85L155.75 68.75H155.65H155.55H155.45H155.35H155.25H155.15V68.65H155.05H154.95H154.85V68.55H154.75V68.45H154.65H154.55H154.45M154.45 68.45V68.35M154.45 68.45H154.35H154.25H154.15H154.05V68.35H153.95H153.85H153.75L153.65 68.25H153.55L153.45 68.15H153.35V68.05H153.25V67.95H153.15V67.85H153.05L152.95 67.75H152.85H152.75L152.65 67.65L152.55 67.55H152.45H152.35V67.45H152.25L152.15 67.35H152.05H151.95V67.25H151.85V67.15H151.75H151.65V67.05H151.55V66.95H151.45H151.35V66.85H151.25H151.15L151.05 66.75H150.95H150.85H150.75H150.65H150.55H150.45H150.35V66.65H150.25H150.15H150.05H149.95H149.85V66.55H149.75V66.45H149.65H149.55L149.45 66.35H149.35H149.25V66.45H149.15H149.05V66.55H148.95H148.85H148.75L148.65 66.45H148.55H148.45L148.35 66.35H148.25V66.25L148.15 66.15H148.05H147.95V66.05L147.85 65.95L147.75 65.85H147.65V65.75V65.65H147.55V65.55V65.45V65.35H147.45V65.25H147.55V65.15H147.45V65.05V64.95L147.35 64.85V64.75H147.25L147.15 64.65H147.05L146.95 64.55H146.85V64.45H146.75H146.65V64.55L146.55 64.65L146.45 65.15H146.35L146.15 65.25V65.35L146.05 65.55V65.65L145.95 66.05V66.15L145.75 66.45V66.55V66.75L145.65 66.85V66.95L145.55 67.05L145.25 67.55L145.15 67.65V67.75V67.85V68.15V68.25V68.35L145.05 68.45L144.95 68.55L144.45 68.85V68.95H144.35L144.25 69.15V69.25V69.35V69.45L144.35 69.55V69.65H144.45H144.65H144.75H144.85L145.05 69.55H145.15V69.65V69.75V69.85H145.05L144.95 69.95L144.85 70.05L144.65 70.35L144.55 70.45V70.55V70.65H144.65L144.95 70.95L145.55 71.45L146.15 71.95L146.25 72.05L146.45 72.15L146.65 72.25L146.85 72.35L147.15 72.45H147.45H147.55V72.55H147.75L147.85 72.65L148.05 72.85L148.55 73.15L148.75 73.35H148.85L149.15 73.65L149.25 73.75L149.45 73.95L149.55 74.05L149.65 74.15H149.75L150.05 74.25H150.35L150.65 74.45L150.95 74.55L151.05 74.65H151.15V74.75L151.25 74.95V75.05L151.35 75.35L151.45 75.75V75.95L151.55 76.15V76.25L151.65 76.35H151.75H151.85L151.95 76.25L152.35 75.95L152.45 75.85H152.55H152.65H152.75H152.95H153.05L153.15 75.95L153.25 76.05L153.55 76.45L153.75 76.65L153.95 76.75L154.05 76.85H154.25L154.45 76.75L154.75 76.65L154.85 76.55H154.95V76.45L155.05 76.25H155.15H155.25V76.15H155.35L155.45 76.25H155.65H155.75L155.95 76.15H156.25L156.65 76.05H156.95H157.05H157.15L157.25 76.15L157.35 76.25V76.35H157.45H157.55H157.95H158.05L158.15 76.45L158.35 76.65L158.45 76.75L158.65 77.05H158.75V77.15H158.85H159.05H159.15L159.25 77.25V77.35V77.55H159.15V77.65H159.25V77.75V77.85H159.35L159.45 77.95H159.55H159.65L159.75 77.85L159.95 77.75L160.05 77.65H160.15L160.25 77.55H160.45H160.85H161.15L161.35 77.45L161.55 77.25L161.65 77.15L161.75 77.05L161.85 76.95V76.85L161.95 76.75H162.05H162.15H162.25H162.35H162.45L162.65 76.85H162.75H162.95H163.15H163.25L163.35 76.75L163.55 76.65H163.65H163.75L163.85 76.75H163.95L164.05 76.85L164.15 76.95V77.15L163.95 77.85L163.85 78.05L163.75 78.15L163.35 78.45L163.15 78.65L162.85 78.85L162.55 79.05L162.15 79.25L161.85 79.55L161.75 79.75L161.65 79.85L161.35 80.25L160.85 80.75L160.55 81.15L160.15 81.55L159.95 81.95L159.85 82.25V82.45V82.65L159.75 82.75L159.65 82.85L159.45 82.95L159.25 83.05V83.15V83.25V83.35V83.45V83.55V83.65L159.35 83.85V83.95L159.45 84.15L159.65 84.45L159.95 84.65L160.15 84.75L160.25 84.85L160.75 85.05L162.45 85.55L163.95 85.95L165.85 86.55L165.95 87.25L166.05 87.45V87.95V88.15V88.35L165.95 88.45V88.55H165.85L165.05 88.75L164.45 88.85V88.95L163.85 89.15L162.45 89.95L162.25 90.05L162.15 90.15H162.05V90.25L162.15 90.35L162.55 90.55L162.85 90.75L162.95 91.55L163.05 92.05V92.65L163.15 93.15L163.25 93.75H163.55V93.95L163.45 94.05H163.35V94.15H163.25V94.25H163.35V94.35H163.25V94.45H163.35V94.65H163.25H163.15V94.75V94.85L163.05 94.75H162.95L162.85 94.65H162.75L162.65 94.75V94.85L162.75 95.05L162.85 95.25H162.95H163.05H163.15H163.25H163.35L163.45 95.15L163.55 95.05L163.65 94.95V95.05V95.15V95.45L163.75 95.55V95.65H163.85V95.75L163.95 95.85L164.05 95.95L164.25 96.05H164.35H164.55L164.75 95.95H164.95H165.05V96.55H164.25L163.55 96.65L163.65 97.45H163.45L162.05 97.65L161.15 97.75V98.15L160.45 98.25L159.35 98.45L158.65 98.55L158.05 98.65L157.85 97.65L156.25 97.85L156.15 97.75V97.25L155.35 97.35L155.15 97.05H155.05V97.15H154.95L154.85 97.25V97.35V97.45V97.55L154.75 97.65L154.65 97.75L154.75 97.95L154.85 98.25L154.95 98.35L155.25 99.05V99.15H155.35L155.15 99.25V99.15V99.05H155.05V98.95H154.95V99.05H154.85H154.75H154.65V99.15H154.55V99.25L154.45 99.35L153.95 99.45V99.35L153.45 99.55L153.35 99.45V99.15H153.25V99.25V99.35H153.15H152.55H152.25L152.15 99.45H151.85L151.75 99.35H151.65V99.25L151.75 99.05V98.85V98.75L151.65 98.65L151.45 98.85H151.35L151.15 98.95H150.85V99.15L150.95 99.25V99.35H150.85L150.75 99.45V99.55H150.65V99.65L150.55 99.55V99.65H150.45L150.35 99.75V99.65H150.25H150.15V99.55V99.05L149.85 99.15H149.65L149.45 99.05L149.35 98.95L149.05 98.75H148.95L149.05 98.65V98.55H148.85H148.65V98.45H148.15V98.55L148.25 98.65V98.85L148.45 98.95H148.55L148.65 99.05H148.55V99.15L148.45 99.25L148.35 99.35L148.25 99.55L148.35 99.65H148.45V99.75V99.85V99.95H148.55V100.05H148.65V100.15H148.75V100.25H148.85V100.35L148.75 100.65L148.45 100.55H148.35H148.25H147.75L147.35 100.65V100.55H147.25L147.15 100.45L147.25 100.35H147.35L147.45 100.25L147.35 100.15V100.05L147.25 99.95L147.35 99.85V99.75H147.25L147.15 99.65V99.55V99.45H147.05H146.95V99.35V99.25H146.85V99.15V99.05H146.75V98.95L146.85 98.75H146.95V98.65V98.55H146.85L146.95 98.35L146.75 98.15L146.95 97.95H147.05V97.85V97.75L146.95 97.65V97.55V97.45L146.85 97.35V97.25V97.15L146.65 97.05H146.55H146.45V96.95L146.35 96.85V96.75V96.55H146.45V96.45L146.35 96.35V96.25H146.25V96.15V96.05H146.15V95.95H146.05V95.85L146.15 95.75V95.65V95.55V95.45V95.25L146.05 95.15H146.15V95.05V94.95H146.25V94.85H146.15H146.05V94.75L145.95 94.85H145.85H145.75V94.95H145.65V95.05L145.45 95.15L145.35 95.25L145.15 95.35L145.05 95.45H144.95L144.85 95.35V95.25V95.15V95.05V94.95L144.95 94.85V94.75H144.85V94.65V94.55L144.55 93.85L144.45 93.45H144.65H144.75L144.85 93.35M144.85 93.35H144.95M144.85 93.35L144.75 93.25V93.15H144.65H144.55H144.45V93.05H144.35H144.25V92.95L144.35 92.85H144.25V92.75H144.15V92.85H144.05V92.95H143.95H143.85L143.75 92.85V92.75M143.75 92.75H143.85M143.75 92.75V92.65V92.55H143.65V92.45H143.55V92.35V92.25H143.45V92.15L143.35 91.95V91.85L143.25 91.95L143.15 92.25L142.95 92.85L142.65 92.75H142.55L142.45 92.95V93.05H142.35V93.15V93.35L142.25 93.45V93.55L142.15 93.65L142.05 93.75V93.85H141.95H141.85H141.55H141.35H141.25L141.05 93.75H140.95V93.65H140.85V93.55H140.75H140.65H140.55V93.45H140.45H140.35H140.25V93.35L140.15 93.25V93.15V93.05H140.05V93.15H139.95H139.85V93.05H139.75V92.95L139.65 92.85V92.75V92.65H139.75V92.55H139.65V92.45V92.35H139.75H139.85V92.25L139.95 92.15V92.05V91.95L139.85 91.85L139.65 91.25L139.55 90.55L139.45 90.35L139.25 90.45L138.85 90.55L138.65 90.15L138.55 90.25V89.85L137.95 89.75H137.75L136.85 89.65L136.75 90.15L136.65 90.25H136.55L136.45 90.15H136.35L136.15 90.25H136.05V89.95V89.75H135.95V89.85H135.85H135.75H135.65L135.55 89.75L135.45 89.65V89.55L135.25 89.35V89.65L135.35 89.85H135.25H135.15L135.05 89.75H134.95H134.85L134.65 89.65H134.55H134.45H134.35V89.75L134.15 89.85V89.95H134.05V90.05V90.15V90.25H133.95L134.05 90.35L133.95 90.45V90.55V90.65V90.75H134.15L134.25 90.65H134.35V90.75V90.95L134.25 91.15V91.25V91.35L134.05 91.45V91.35L133.85 91.45H133.75H133.65V91.35H133.55H133.45H133.35V91.25V91.15H133.25H133.15H133.05L132.85 91.35V91.45V91.65V91.85L132.95 91.95L132.85 92.25L132.55 93.75L132.35 95.25L132.25 95.45L132.15 95.95V96.35L132.05 96.75L131.95 96.85L131.85 96.75L131.75 96.65H131.55V96.55H131.45H131.35H131.25H131.15H131.05V96.65H130.95L130.85 96.55V96.45V96.35V96.25H130.75H130.65H130.55H130.45H130.35V96.15H130.25V96.25V96.35L130.15 96.45L130.05 96.55V96.65L130.25 96.75V96.85V96.95V97.05H130.15V97.15V97.25V97.35L130.05 97.45V97.55V97.65V97.75V97.85V97.95L129.95 98.05H129.85H129.75H129.65H129.55H129.45H129.35H129.25H129.15V98.15L129.05 98.25H128.95L128.65 98.35H128.25L127.85 98.55V98.65L127.75 98.75L127.85 99.45L127.65 99.65H128.25L128.35 99.75H128.45V99.85V99.95H128.55L128.65 100.05V99.95L128.75 100.15V100.25V100.35L128.65 100.55V101.25V101.45V101.65V101.85V102.35L128.55 102.45L128.35 102.65H127.45H126.95H126.75L126.35 102.75V103.45L125.95 103.35V103.05H125.85L125.95 103.15H125.85L125.75 103.05L125.65 103.15H125.55L125.35 103.25V103.15H125.45V103.05H125.55L125.45 102.95H125.55H125.65V102.85L125.75 102.65V102.15L125.25 102.25L125.15 102.15L125.05 101.95H124.95L124.75 102.05H124.65H124.55L124.45 102.15H124.35V102.25L124.25 102.15L123.75 102.25L123.55 102.35H123.45L123.25 101.85H123.15H123.05L122.45 101.25H122.35L122.05 101.55H121.95L121.85 101.75L121.75 101.85V101.95V102.05L121.65 102.15V102.25H121.55H121.45V102.35H121.35V102.45V102.55H121.25H121.15V102.45H121.05L120.95 102.35L120.75 102.45L120.65 102.55L120.45 102.65L119.85 102.85L119.25 103.05L119.05 103.15L118.95 102.95L118.85 103.05L118.75 102.85H118.65L118.75 102.95L118.65 103.05V103.15H118.55H118.45H118.35L118.25 103.25V103.35V103.45L118.15 103.55V103.65H118.05V103.75H117.95V103.85H117.85V103.95H117.75H117.65V104.05H117.55V104.15V104.25V104.35H117.45V104.45V104.55H117.35V104.65L117.25 104.75L117.05 105.15L116.65 104.65H116.55L116.65 104.35L116.95 103.85L116.85 103.15V103.05L116.15 102.75H116.05L115.95 102.65H115.85H115.75L115.55 102.55L114.85 102.25V102.15L114.35 101.85L114.05 101.65L113.85 101.45H113.75L113.65 101.35H113.55L113.45 101.15L113.15 101.05L112.95 100.85L112.65 100.75V100.85L112.55 100.95L112.45 100.85H112.35H112.25H112.15V100.75H112.05L111.95 100.65L111.85 100.55H111.75H111.65V100.45M111.65 100.45H111.55M111.65 100.45L111.55 100.35V100.25L111.35 100.15L111.45 99.95L111.35 99.85L111.15 99.75V99.85L111.05 100.05L110.85 100.35V100.45L110.75 100.55H110.65L110.15 100.75H110.05L109.85 100.85H109.55H109.45H109.35V100.95H109.25V101.05H109.15H109.05L108.85 101.15V101.25L108.75 101.35L108.55 101.45L108.45 101.55L107.15 100.95L106.85 101.05H106.75L106.15 101.15L105.85 101.25L105.75 101.35L105.65 101.45L105.75 101.55V101.65L105.85 101.75V101.95L105.75 102.15H105.85L105.65 102.85V102.95V103.05L105.55 103.25L105.35 103.85L105.05 103.75L104.85 103.45V103.55H104.75H104.65H104.55H104.45H104.35H104.25H104.15H104.05H103.95H103.85V103.45H103.75H103.65H103.55H103.45H103.35H103.25V103.55H103.15H103.05H102.95H102.85V103.45V103.35H102.75V103.25L102.85 103.15V103.05V102.95L102.55 103.05H102.45L102.35 103.15H101.95H101.85V103.25L101.75 103.35L101.65 103.45L101.45 103.55L101.25 103.65L101.05 103.55L100.95 103.45L100.85 103.55L100.75 103.65L100.65 103.75L100.85 103.95V104.05V104.15H100.75L100.65 104.25H100.55H100.45L100.35 104.35H100.25H100.15H100.05V104.45H99.95L99.85 104.55V104.45V104.35V104.25L99.75 104.15L99.95 103.95L100.25 103.45L100.55 103.15L99.95 102.65L99.35 103.35L99.15 103.65L99.45 103.55V103.65H99.55V103.75H99.65V103.85L99.75 103.95H99.65L99.25 104.25L99.35 104.45H99.45V104.55L99.65 104.65L99.85 104.75L99.75 104.85V104.95H99.65V105.05H99.55V105.15H99.65L99.75 105.25H99.85V105.35V105.45H99.95V105.55L99.85 105.65V105.75H99.75H99.65V105.65L99.55 105.75L99.45 105.85H99.35L98.95 106.25L98.75 106.45L98.85 106.55L99.15 106.85L98.95 107.35V107.45V107.55L98.85 107.65L98.55 108.45L98.75 108.55H98.95L98.85 108.75L98.75 109.05L98.35 109.25L98.05 109.45L97.15 110.05L97.25 110.65V110.95L96.45 111.15L95.75 111.45L95.25 111.65L95.05 111.75H94.95L94.15 112.15L94.05 112.25L93.25 112.85L93.15 112.95L92.05 113.95L91.85 114.05L91.95 114.15H92.05L92.45 114.75H92.55L92.35 115.05V115.15L92.05 115.55H91.95V115.65L91.85 115.55L91.95 115.45V115.35V115.25V115.15L91.85 115.05L91.75 114.95V114.85V114.75V114.65H91.65H91.55H91.45V114.55H91.35V114.65H91.25V114.75H91.35V114.85V114.95H91.45V115.05V115.15V115.25H91.35V115.35L91.25 115.45V115.55V115.65H91.15L91.05 115.75V115.85H90.95L90.85 115.95H90.75L90.65 116.05L90.55 116.15H90.45V116.25H90.35V116.15V116.05L90.45 115.95V115.85H90.55V115.75L90.65 115.65V115.55V115.45V115.35H90.75V115.25H90.65L90.55 115.15H90.45V115.25H90.35V115.35V115.45V115.55H90.25H90.15V115.65H90.05V115.75V115.85V115.95H89.95V116.05H90.05L89.95 116.15M89.95 116.15H90.05M89.95 116.15V116.25V116.35V116.45V116.55H90.05V116.65H89.95V116.75H89.85H89.75H89.65L89.55 116.65H89.45H89.35H89.25V116.55V116.45V116.35V116.25V116.15H89.15H89.05V116.05H88.95V115.95V115.85H88.85H88.75V115.75H88.65H88.45H88.35V115.85V115.95V116.05V116.15V116.25V116.35H88.45V116.45V116.55V116.65V116.75V116.85H88.35H88.25V116.75H88.15H88.05H87.95H87.85H87.75H87.65V116.85H87.55H87.45V116.95H87.35H87.25H87.15V116.85H87.05L86.95 116.75H87.05V116.65V116.55H86.95H86.85M86.85 116.55V116.65M86.85 116.55H86.75H86.65L86.95 116.25V116.15L86.85 115.85H86.75V115.75H86.65V115.65V115.55H86.55H86.45V115.45V115.35H86.35V115.25V115.15H86.25V115.05H86.35V114.95V114.85V114.75V114.65L86.25 114.55V114.45L86.15 114.35H86.05V114.45H85.95H85.85V114.35H85.75V114.45H85.65H85.55H85.45V114.55H85.35H85.25H85.15H85.05V114.45H84.95H84.85V114.55V114.65H84.75V114.75H84.65H84.55M84.55 114.75V114.85M84.55 114.75H84.45H84.35H84.25V114.85H84.15H84.05V114.95H83.95V115.05L83.85 115.15H83.75H83.65V115.05H83.55V114.95H83.45V114.85V114.75V114.65V114.55H83.35V114.45L83.25 114.35V114.25L83.35 114.15V114.05V113.95V113.85H83.25V113.75H83.15H83.05H82.95V113.65H82.85L82.75 113.75H82.65H82.55H82.45V113.85H82.35H82.25H82.15L82.05 113.75H81.95H81.85H81.75V113.65H81.65H81.55H81.45L81.35 113.75H81.25V113.85V113.95V114.05V114.15V114.25V114.35L81.15 114.45H81.05V114.55H80.95H80.85V114.45H80.75L80.65 114.35H80.55V114.25H80.45H80.35H80.25H80.15H80.05H79.95H79.85H79.75H79.65V114.15H79.55H79.45H79.35H79.25V114.25H79.15V114.35H79.05V114.45V114.55H78.95V114.65L78.85 114.75V114.85H78.75V114.95V115.05H78.65V115.15H78.55V115.25V115.35H78.45V115.45V115.55H78.35V115.65L78.25 115.75V115.85H78.15V115.75V115.65V115.55H78.05H77.95V115.45H77.85V115.35H77.75H77.65V115.45H77.55H77.45V115.55V115.65H77.35V115.75V115.85H77.25V115.95H77.15V116.05H77.05V115.95H76.95V115.85V115.75H76.85H76.75V115.85H76.65V115.95L76.55 116.05V116.15V116.35V116.45V116.55V116.65H76.45V116.75H76.35H76.25H76.15V116.65H76.05H75.95H75.85V116.55V116.45V116.35V116.25H75.75V116.15V116.05V115.95H75.65V115.85H75.55M75.55 115.85V115.95M75.55 115.85H75.45H75.35V115.75H75.25V115.85H75.15V115.95H75.05L74.95 116.05V116.15L75.05 116.25V116.35V116.45H74.95H74.85L74.75 116.35V116.25H74.65H74.55H74.45V116.15H74.35H74.25H74.15H74.05V116.05H73.95V115.95V115.85M73.95 115.85V115.75M73.95 115.85H74.05V115.75V115.65H74.15V115.55V115.45H74.05V115.35H73.95H73.85H73.75V115.25H73.65V115.15V115.05V114.95H73.55V114.85V114.75H73.45V114.65H73.35H73.25L73.15 114.75V114.85H73.05V114.95H72.95L72.85 114.85H72.75V114.75V114.65H72.65V114.55V114.45V114.35H72.55V114.25H72.45H72.35L72.25 114.35H72.15V114.25H72.05H71.95H71.85L71.75 114.15M71.75 114.15V114.25" stroke="white" stroke-width="0.5" stroke-linecap="round" stroke-linejoin="round"/>
</svg>
