<svg width="153" height="164" viewBox="0 0 153 164" fill="none" xmlns="http://www.w3.org/2000/svg">
<path d="M148.55 2.75L148.25 3.35V3.45H148.15V3.55V3.65H148.05V3.75V3.85L147.95 3.95L147.85 4.05L147.75 4.15H147.65H147.55V4.25V4.35L147.45 4.55V4.65L147.35 4.75V4.85H147.25H147.15L147.05 4.75L146.95 4.65L146.85 4.55H146.75H146.65V4.65V4.75H146.75V4.85V4.95V5.05L147.25 5.25V5.35H147.35V5.45V5.55V5.65V5.75H147.45V5.95H147.35V6.05L147.05 5.75L146.65 6.15L146.95 6.45V6.55H147.05V6.65V6.75H146.95H146.85L146.75 6.65L146.65 6.75V6.85H146.55V6.95H146.65V7.05H146.55V7.15V7.25V7.35H146.65V7.45L146.55 7.55H146.45V7.65H146.55L146.65 7.55V7.65V7.75H146.55L146.45 7.85V7.75H146.35V7.85H146.25L146.15 7.95V8.05H146.25H146.35H146.45H146.55V8.15H146.45V8.25H146.55V8.15H146.65V8.25V8.35L146.45 8.75H146.35L145.95 9.35H145.75L145.45 9.65L145.35 9.35H145.25V9.45V9.55V9.65H145.15V9.75H145.25V9.85V9.95H145.35V10.05V10.15V10.25V10.35V10.45H145.45H145.55H145.65V10.55V10.65V10.75L145.55 10.85L145.45 11.05H145.35V11.15H145.45V11.25L145.55 11.35H145.65V11.45V11.55H145.55H145.45L145.35 11.65L145.25 11.75H145.15V11.85V11.95H145.05V12.05V12.15V12.35H144.95V12.45L144.85 12.55H144.75V12.45H144.65H144.55H144.45H144.35V12.55H144.25V12.65L144.15 12.75V12.85H144.05L143.95 12.95H143.85H143.75V12.85H143.65V12.75V12.65V12.55V12.45H143.55V12.35H143.45V12.45H143.35L143.25 12.65L143.05 12.95V13.05L143.15 13.15H143.25H143.35H143.45H143.55V13.25V13.35V13.45L143.75 13.75V13.85H143.85V13.95V14.05V14.15H143.75V14.25V14.35H143.65V14.45V14.55H143.55V14.65H143.45V14.55H143.35V14.65V14.75V14.95V15.05H143.25V14.95H143.15V14.85H143.05H142.95H142.85V14.95V15.05V15.15H142.95V15.25V15.35H142.85H142.75V15.45H142.85V15.55H142.95V15.45H143.05V15.55V15.65H143.15V15.75H143.25V15.85H143.15V15.95V16.05L143.05 16.15H143.15V16.25H143.25V16.35V16.45H143.35L143.45 16.75H143.55V16.65H143.65H143.75L143.95 16.95L143.85 17.05V17.15L143.95 17.25H144.15V17.35V17.65V17.75V17.85H143.65L143.55 18.25V18.45V18.55L143.45 18.85V19.05V19.15V19.25V19.35V19.45H144.45V19.35V19.25H144.35H144.25H144.15H144.05H143.95H143.85V19.15H143.75V19.05V18.95L144.05 18.85L144.25 18.75L144.35 18.65H144.45H144.55H144.65L144.75 18.75L145.45 19.15L145.85 19.25L146.15 19.45L146.45 19.65L146.95 19.85L147.55 20.15L147.65 20.25L148.25 20.55L147.85 21.15L148.25 21.35L149.05 21.65L149.25 21.95L149.45 22.35V22.45L149.55 22.55H149.65L149.55 22.75V22.85V22.95H149.45V23.05L149.35 23.15L149.25 23.25V23.35V23.45L149.35 23.35H149.45L149.55 23.25H149.65H149.75H149.85H149.95H150.05H150.15H150.25H150.35V23.45L150.95 23.55L151.85 23.85L151.95 23.75V23.45H152.15L152.25 23.35V23.25H152.35V23.35V23.85V24.95L152.45 25.75V27.45H152.35H151.35H150.95H150.85H150.75H150.65H150.55H150.45V27.55H150.35H150.25V27.65H150.15H150.05L149.95 27.75L149.75 27.85H149.55H149.45L149.35 27.95H149.25V28.05L149.15 28.15H149.05V28.25V28.35L148.95 28.45H148.85L148.65 28.35L147.95 27.85L147.85 27.65L147.65 27.15L147.45 26.45H147.25H147.15L146.95 26.55H146.85L146.15 26.95L146.05 27.05L145.85 27.15L145.65 27.25L145.55 27.35L145.45 27.45V27.55H145.35V27.65L145.25 27.75V27.85L145.15 27.95V28.05H145.05H144.95H144.85H144.75L144.65 28.15H144.55H144.45H144.35H144.25H144.15H144.05V28.05H143.95H143.85H143.55H143.45L143.15 27.95L143.05 28.05L142.95 28.15V28.25V28.35V28.45V28.55V28.65L143.05 28.75V28.85L143.15 28.95V29.05V29.15V29.25L143.05 29.35H142.95H142.85H142.75H142.65V29.25V29.15H142.55V29.25V29.35H142.45V29.45H142.55V29.55H142.65H142.75H142.85H142.95L143.05 29.65L143.15 29.75H143.25V29.85H143.45L143.55 29.95H143.65H143.75V30.05H143.95H144.05H144.15L144.35 30.35L144.45 30.45V30.55L144.55 30.65H144.65L144.75 30.75V30.85V30.95V31.05H144.65V31.15H144.75V31.25V31.35L144.85 31.45H144.75V31.55V31.65V31.75V31.85H144.85V31.95V32.05H144.95H145.05H145.15V32.15H145.25H145.35V32.25H145.45L145.55 32.35H145.65V32.15L145.85 32.25L145.95 32.35L146.05 32.45V32.55L145.95 32.65V32.75V32.85V32.95H146.05H146.15L146.25 32.85H146.35H146.45H146.55L146.65 32.95V33.05H146.75V33.15L146.85 33.25L146.95 33.35L147.05 33.45V33.55V33.65H147.15V33.75V33.95V34.05V34.15V34.25L147.05 34.35H146.95V34.45H146.85H146.75H146.65H146.55H146.45V34.35H146.35H146.25V34.25H146.15L146.05 34.35H145.95L145.85 34.45V34.55H145.75V34.65V34.75L145.85 34.85V34.95V35.05H145.75H145.65H145.55L145.45 34.95H145.35V35.05V35.15V35.35V35.45L145.15 35.55L145.25 35.75V35.95L145.15 36.05V36.15V36.25H145.05V36.35H144.85H144.75H144.45H143.85L143.75 36.15V36.05H143.25H143.15V35.95V35.85V35.75L142.85 35.95H142.75L142.45 36.05H142.35L142.15 35.95V36.05L142.05 36.25V36.35L141.95 36.45V36.55V36.65V36.75H141.85V36.85H141.75V36.95H141.65H141.55H141.45H141.35L141.05 36.85H140.95H140.85L140.75 36.95H140.65V37.05L140.55 37.15L140.45 37.25V37.15H140.35L140.25 36.95L140.15 36.85V36.75L139.95 36.65H139.85V36.75H139.95V36.85V36.95H139.85V37.05H139.75H139.65H139.55V37.15V37.25H139.65V37.35H139.75L139.65 37.45H139.55H139.45H139.35V37.55H139.25H139.15V37.65V37.75V37.85V37.95H139.05L138.95 38.05H138.85H138.75H138.65L138.55 37.95V37.85L138.45 37.75H138.35V37.65H138.25V37.75V37.85V37.95V38.05H138.35V38.15H138.45V38.25V38.35H138.35H138.25H138.15H138.05V38.25V38.15V38.05V37.95V37.85V37.75H137.95H137.85H137.75H137.65V37.85H137.55L137.45 37.95H137.35H137.25V38.05H137.15L137.05 37.95H136.95V37.85H136.85L136.75 37.75H136.65H136.55V37.85V37.95V38.15V38.25V38.35H136.45V38.45V38.55H136.35L136.25 38.45V38.35H136.15H136.05H135.95V38.45V38.55H135.85V38.65H135.75V38.75V38.85H135.85H135.95H136.05V38.95H136.15V39.05V39.15L136.25 39.25V39.35V39.45V39.55V39.65V39.75V39.85V39.95L136.15 40.05L136.05 40.15H135.95L135.85 40.25L135.75 40.35H135.65H135.55H135.45H135.25H135.15L135.05 40.45H134.95L134.85 40.55H134.75H134.65L134.45 40.65V40.75V40.85H134.55V40.95L134.45 41.05H134.35V41.15L134.25 41.05H134.15L134.05 40.95L133.95 41.05H133.85L133.95 41.15V41.25V41.35V41.55V41.65V41.75V41.85V41.95H133.85H133.75V41.85V41.75H133.65V41.65H133.55H133.45L133.35 41.75V41.85V41.95L133.45 42.05L133.65 42.15L133.75 42.25L133.85 42.35V42.45H133.75H133.65H133.55H133.45V42.55V42.65V42.75V42.85L133.35 43.05V43.15V43.25V43.35H133.45L133.55 43.25V43.15H133.65V43.25L133.75 43.35V43.45H133.65H133.55L133.65 43.55L133.55 44.05L133.65 44.15H133.75L133.95 44.25H134.05V44.35H134.15L134.25 44.55V44.65L134.35 44.85L134.45 45.05L134.55 45.15V45.25V45.35V45.45V45.55V45.65V45.75H134.45L134.35 45.85H134.25H134.15V45.75L134.05 45.65H133.95H133.85L133.75 45.75L133.55 45.95H133.45V46.05H133.35L133.25 46.15V46.25V46.35V46.45L133.15 46.65L133.05 46.85L132.95 46.95L132.85 47.05V47.15L132.75 47.25L132.65 47.35H132.55V47.45L132.45 47.55L132.35 47.65V47.75H132.25V47.85V48.05V48.15V48.25L132.35 48.35V48.45H132.25H132.15L132.05 48.35H131.95L131.85 48.25H131.75V48.35H131.85V48.45H131.75H131.65H131.55H131.45V48.55L131.35 48.75H131.25V48.85H131.15H131.05L131.15 48.95V49.05H131.25V49.15L131.35 49.25V49.35V49.45H131.45L131.55 49.35V49.25V49.15H131.65V49.05H131.75L131.85 49.25V49.45V49.55V49.65V49.75V49.85H131.95V49.95H132.05V50.05V50.15H131.95V50.25V50.35V50.45L132.05 50.55V50.65H132.15V50.75V50.85V50.95V51.05H132.25V51.15L132.35 51.25V51.35H132.45V51.45L132.55 51.55V51.65H132.65V51.75H132.75L132.85 51.85L132.95 51.95H133.05V52.05H133.15L133.25 52.15L133.35 52.25H133.45V52.35V52.45H133.55L133.65 52.55L133.75 52.65H133.85V52.75H133.95L134.05 52.95H134.15L134.05 53.05L133.85 53.35L134.05 53.55L134.15 53.65L134.25 53.75H134.35L134.45 53.85L134.55 53.95L134.65 54.05V54.15L134.75 54.35L134.85 54.45V54.55V54.65L134.95 54.75V54.85L135.05 54.95L135.15 55.05H135.25H135.35H135.45L135.55 54.95H135.65L135.75 55.05L135.85 55.15V55.25L135.75 55.35V55.45L135.65 55.55V55.65L135.55 55.75L135.35 55.85L135.15 55.95H135.05L134.95 56.05L134.85 55.95H134.75H134.65V55.85H134.55V55.75H134.45V55.85V55.95V56.05L134.55 56.35V56.45L134.65 56.55H134.75H134.85L134.95 56.65L135.05 56.55H135.15H135.35H135.45V56.65V56.75L135.35 56.85H135.25H135.15H134.95H134.85H134.65H134.55L134.45 56.75H134.35H134.25V56.85L134.15 56.95V57.05H134.25V57.15L134.15 57.25H134.25H134.35V57.35H134.45V57.45H134.55V57.55L134.45 57.75L134.35 57.95L134.25 58.05L134.15 58.25H134.05H133.95L133.85 58.35V58.45L133.75 58.55L133.65 58.65V58.75H133.55V58.95V59.05L133.45 59.15V59.25V59.35V59.45L133.55 59.55V59.65V59.75H133.65L133.85 59.65L134.25 59.95L134.85 59.85H134.95V60.15V60.75V60.95V61.55V62.65H135.05L135.35 62.85L136.05 63.45L136.15 63.55L136.25 63.75L136.45 64.05L136.65 64.25L136.85 64.55L137.55 64.65L138.05 64.75L138.35 64.85L138.05 64.95H137.95V65.05L137.75 65.45L137.65 65.55V65.65L136.95 65.45H136.75H136.65H136.55L135.85 65.65H135.65H135.55L135.15 65.55L135.25 65.85V65.95L135.15 66.05H135.05V66.15V66.55V66.85L135.45 66.95V67.05V67.15V67.25L135.55 67.35V67.75L135.95 67.95L136.35 68.15L136.45 68.25L136.55 68.35V68.75V68.95L136.65 69.05V69.15L136.75 69.25L136.85 69.35V69.45L136.95 69.55V69.65V70.05L136.85 70.35V70.65V70.85L136.25 70.75H136.15L135.95 71.25V71.35L135.55 71.45V71.55L135.25 71.75L135.05 71.85H134.95L134.85 71.95H134.75H134.65V71.85H134.55L134.65 71.75L134.75 71.65L134.65 71.55H134.45H134.35V71.65H134.25H134.15H134.05V71.75L133.95 71.95L133.85 72.25L133.75 72.45V72.75V72.85V73.05V73.15V73.25L133.95 73.95V74.05L133.45 74.55L133.35 75.05L133.15 75.65V75.85L132.85 77.05V77.15L133.75 77.95L133.95 78.05V78.15L133.85 78.25L133.55 78.95L133.35 79.15H133.15V79.35H133.45L133.75 79.45H133.95L134.05 79.85L133.85 79.95V80.45V80.75V80.85H133.75V80.95H133.65H133.55H133.45H133.35H133.25L133.15 80.85L133.05 80.75V80.55H132.95L132.85 80.35H132.75L132.65 80.25H132.55H132.45H132.35H132.25H132.15H132.05V80.35L131.95 80.25H131.85H131.75L131.65 80.45L131.85 80.55L131.95 80.65H132.05H132.15H132.25V80.75H132.45L132.55 80.85H132.65V80.95L132.75 81.05L132.65 81.15L132.55 81.05L132.45 81.25L132.65 81.45L132.55 81.55V81.65L132.75 81.85L132.55 82.25L132.35 82.15H132.25L132.15 82.05H131.95L131.85 81.85L131.65 82.05H131.55V81.95H131.45V81.85V81.75V81.65H131.35V81.75V81.95H131.25H130.95H130.85L130.75 81.85H130.55H130.45H130.35H130.25H130.15V81.75V81.65V81.45V81.35H130.25L130.35 81.05L130.25 80.95L130.15 80.85L130.05 80.75H129.95H129.85L129.75 80.65L129.65 80.55H129.45L129.35 80.35L129.15 80.15L129.25 80.05V79.95H129.15V79.85L129.35 79.75L129.45 79.85L129.75 79.75H129.85L129.75 79.65L129.95 79.45L130.05 79.15L129.55 78.65L129.45 78.55L129.35 78.65V78.75V78.85V78.95V79.05L129.15 79.15V79.35L128.35 79.65L127.95 79.75L128.15 80.25L128.35 80.65V80.75L128.45 80.95L128.75 81.55V81.65H128.85V81.85L129.15 81.95L129.25 82.05L129.15 82.15V82.25L128.95 82.65V83.25V83.45L129.05 83.85L129.15 83.95H129.25V84.05H129.35V84.15H129.45V84.05H129.55L129.35 83.95L129.55 83.75L129.65 83.95H129.75V83.85H129.85H129.95L130.05 83.75H130.15V83.65H130.45L130.35 83.75L130.95 84.25L130.65 84.75V84.85V84.95V85.05L130.75 85.15V85.25H130.85V85.35H130.95V85.45V85.55H131.05V85.65H131.15V85.75L130.85 86.05V86.35L130.95 86.45H131.05L130.65 86.55V86.65L130.75 86.75V86.85L130.65 86.95L130.55 87.05H130.45H130.35V86.95V86.85L130.15 87.05L129.95 87.25H129.65V87.15H129.55L129.45 87.25V87.35L129.75 87.55V87.65V87.75H129.85V87.65H129.95V87.55H130.05H130.15H130.25L130.15 87.65H130.25V87.75H130.15V87.85H130.05H129.95H129.85V87.95L129.75 87.85H129.65L129.55 87.95H129.45L129.35 87.85L129.25 88.25V88.35L129.35 88.45H129.45H129.55H129.65H129.75L129.85 88.35H129.95L130.25 88.25L130.45 88.15L130.35 88.25V88.35V88.45H130.25V88.55L130.15 88.45V88.55H130.25L130.35 88.65L130.45 88.55H130.55V88.45V88.35H130.65V88.25H130.75V88.35V88.45H130.85L130.95 88.35H131.05V88.45L130.75 88.55H130.85V88.65L130.95 88.75H130.85H130.65V88.85H130.55H130.45L130.55 88.95L130.65 88.85H130.75H130.85V89.45V89.55H130.45V89.75V89.85L130.55 90.05L130.05 90.25L130.15 90.75L130.25 90.95L130.35 91.05H130.45L130.65 91.15L130.45 91.35L129.55 92.25L129.25 92.65L128.85 93.05L128.65 93.35L128.85 93.75L129.15 93.95V94.65H129.25V94.85V95.15H128.65V95.55H128.35L127.75 95.65H127.45L127.25 95.75H127.05H126.85H126.65L126.55 95.85L126.05 96.55L126.35 96.75L126.45 96.85L126.35 97.05L125.95 97.55L125.45 98.25H125.35L125.15 98.55L125.75 99.15L125.85 99.35L126.25 99.65L126.35 99.75L126.65 100.05H126.75V100.15L126.55 100.55L125.95 101.55L125.65 102.05L125.55 102.35L125.35 102.65L125.25 102.75L124.65 103.65L124.55 103.85L124.25 104.45L124.55 104.55V104.65L124.85 104.85L125.25 104.55H125.55L126.35 104.65L126.95 104.75L127.65 104.85L128.85 105.05H129.25L129.05 105.85L129.25 105.95H129.85L130.25 106.05H130.65V106.15L130.75 106.55L130.55 107.05L130.15 107.65L130.75 108.15L131.35 108.45L131.45 108.55L131.05 109.15V109.25L130.85 109.05L130.65 109.45L130.35 109.85L130.25 109.75L130.15 109.85V109.95V110.05L130.05 110.15V110.25H130.15L130.05 110.35V110.45L129.95 110.55L129.75 110.65V110.75L129.65 111.05L129.55 111.25L129.45 111.35V111.45H129.35V111.55V111.65V111.75H129.25V111.85V111.95H129.15V112.05L129.05 112.15L129.25 112.25L129.45 112.35H129.55V112.45L129.65 112.55H129.75V112.65H129.85H129.95H130.05H130.15V112.75H130.25V112.85H130.35H130.45L130.55 112.95H130.65H130.75V113.05H130.85H130.95H131.05V113.15H131.15V113.05V112.85V112.65V112.55L131.05 112.25L131.35 112.15L132.05 111.65L132.25 111.55L132.65 111.35L132.75 111.25H132.85L133.15 111.05V111.15L133.25 111.25L133.35 111.35L133.45 111.45L133.55 111.55L133.45 111.65V111.75H133.35L133.25 111.85L133.35 111.95V112.05V112.15L133.55 112.65L133.75 113.05L134.05 113.75V113.95L134.15 114.25V114.35L134.05 114.75L134.15 114.65H134.25H134.45H134.65L135.25 114.75L135.65 114.85H135.85L136.35 114.95H136.45H136.55L136.65 114.85V114.75V114.65H136.75H136.85H136.95H137.05H137.15L137.25 114.75V114.85V115.75V116.35V116.85L137.05 117.15V117.75V118.05L137.35 118.55L137.55 119.05L137.65 119.25L137.75 119.45V119.55H137.65H137.55V119.65L137.35 119.75L137.65 120.15H137.55V120.25H137.45V120.15H137.35H137.25V120.05V119.95H137.15V120.05V120.15L137.25 120.25V120.35H137.15H137.05V120.25H136.95H136.85V120.35H136.75H136.65V120.25V120.15V120.05H136.55L136.45 120.15V120.25L136.25 120.05L136.15 120.15L136.05 120.25L135.95 120.35L135.85 120.45V120.55H135.75V120.65V120.75L135.65 120.85V120.95V121.05V121.15V121.25H135.75V121.35V121.45V121.55V121.65H135.85H135.95L135.85 121.75H135.95L136.05 121.85H135.95V121.95H136.05V122.05V122.15V122.25H136.15L135.95 122.35L135.85 123.05V123.15V123.25L135.75 123.35V123.55H135.65L135.95 123.65H136.45L136.55 123.75L136.45 123.85V123.95H136.35V124.05H136.25V124.15H136.15V124.05H136.05V124.15H135.95V124.25H135.85V124.35H135.75V124.45V124.55L135.65 124.75L135.55 124.95V125.05V125.15L135.35 125.25L135.25 125.35H135.15H135.05H134.95V125.45V125.55V125.65V125.75V125.85H135.05V125.95H135.15H135.25V126.05V126.15V126.25H135.35V126.35V126.45H135.45H135.55V126.75V127.05L135.45 127.25V127.35V127.45V127.55H135.55L135.65 127.65L135.45 128.25L135.15 128.15H135.05H134.95H134.85L135.15 128.75L135.45 129.55L135.75 129.95L136.15 130.65L136.35 131.15L136.55 131.55H136.65L136.75 131.75V131.85H137.05H137.55H137.65V131.95L137.75 132.15L137.85 132.55V132.75H138.05L138.75 132.55L138.85 132.65V132.75V132.85L139.05 132.75L139.25 133.05L139.05 133.15H138.95L138.65 133.25H138.55L138.35 133.35H138.25L137.95 133.45V133.85L137.75 133.95H137.65V133.85H137.55H137.45H137.35H137.25H137.15H137.05H136.95H136.85V133.95L136.75 134.05H136.65H136.55H136.45H136.35V134.15H136.25H136.15V134.25H136.05H135.95H135.85V134.35H135.65H135.55H135.45L135.35 134.45H135.25L135.15 134.35V134.45H135.05V134.55V134.65V134.75L134.95 134.85H134.85H134.75H134.65H134.55L134.45 134.75H134.35H134.25L134.15 134.65L134.05 134.75L134.15 134.95L134.25 135.15L134.45 135.45V135.55L134.55 135.65V135.75L134.65 135.85L134.75 135.95V136.05V136.15V136.55V136.75V137.05L134.65 137.45L134.55 138.05V138.15V138.45V138.75V139.15V139.25L134.45 139.35L134.15 139.55V139.65H134.05H133.95H133.85H133.75L133.65 139.55H133.55H133.45L133.35 139.65H133.25V139.75H133.15H133.05V139.85V139.95V140.05L133.15 140.15V140.25V140.35H133.25V140.45V140.55L133.05 141.25L132.95 141.65L132.85 142.35L132.75 142.45V142.65V142.75H132.65L132.55 142.95V143.05L132.45 143.15L132.35 143.35L132.65 143.45L133.05 143.55H133.15H133.25L133.35 143.65V143.75V143.85V143.95L133.25 144.05V144.15H133.15V144.25L133.05 144.15L132.45 144.05L132.25 144.25L132.15 144.35L131.95 144.55L131.85 144.75V144.85L131.95 144.95L132.05 145.15L131.95 145.25L131.85 145.35L131.65 145.55L131.45 145.75L131.25 146.05L131.15 146.25L131.05 146.35V146.45L130.95 146.75V146.95H130.85V147.05L130.75 147.15L130.55 147.35L130.25 147.55L130.15 147.65V147.75H130.05V147.85H129.95V147.95L129.75 148.15H129.65V148.25L129.75 148.35L129.85 148.55L130.25 149.35V149.45V149.75L130.45 149.95L130.35 150.05H130.25H130.15L130.05 150.15V150.25L129.85 150.55L129.65 150.85L129.45 151.15L129.35 151.35L129.15 151.25L129.05 151.35H128.95H128.85H128.75V151.25H128.65H128.55H128.45V151.35H128.35V151.45V151.55V151.65H128.25V151.75V151.85H128.35V151.95H128.45V152.05L128.35 152.15L128.15 152.55L127.95 152.85L127.85 153.05L127.95 153.85L127.75 153.75L127.65 153.65L127.35 153.55H127.25L127.05 153.45L126.65 153.25L126.55 153.55H126.45H126.15H126.05V153.45H125.95H125.75L125.65 153.55L125.85 153.95V154.05L126.05 154.35V154.45L125.95 154.65L125.65 154.75H125.55V154.85V154.95V155.05H125.45V155.15L125.55 155.25V155.35H125.65V155.45V155.55H125.55V155.65L125.45 155.75V155.85H125.35L125.05 156.05L124.85 155.95L124.75 155.85H124.65L124.55 155.75L124.45 155.85V155.95L124.05 156.25L123.75 156.45V156.55V156.65H123.85H123.95V156.75V156.85H124.05V156.95V157.05H124.15V157.15L124.05 157.05H123.95H123.85V157.15H123.75H123.65V157.05L123.15 157.15V157.45L122.85 157.55H122.75V157.65V157.95L122.85 158.15V158.35V158.45V158.55V158.65H122.95V158.75V158.85H122.85V158.95H122.75H122.05L121.95 159.05L121.55 159.35L120.85 159.85L120.35 160.35H120.25L119.55 160.95L118.95 161.45H118.35H117.65H117.55L117.25 161.55L117.15 161.65H117.05H116.95H116.85V161.75H116.75H116.55V161.85V161.95H116.45H116.35L116.45 162.05V162.15H116.55L116.65 162.25V162.35H116.55H116.45V162.45H116.35L116.55 162.55L116.75 162.75H116.85L117.15 162.85L117.05 162.95L116.95 163.15L116.85 163.35L116.75 163.55V163.65L115.55 163.15H115.45V163.25H115.35L115.25 163.45H115.15H115.05V163.35H114.95L114.85 163.15L114.75 162.95V162.85H114.65L114.55 162.75V162.65H114.45L114.35 162.75L114.25 163.05V163.25H114.15L114.05 163.05V162.95H114.15V162.85V162.75H114.05L113.75 162.85H113.65L113.55 162.95L113.35 162.85H112.75H112.25H112.15H112.05H111.95L111.45 162.75H110.85H110.75H110.55V161.95V161.75V161.85H110.45H110.35L110.15 161.95H109.65H109.45L109.35 162.05H109.25H109.15H109.05H108.75H108.65V162.45L108.75 162.85H108.65H108.55H108.15H108.05H107.65L106.85 162.95H106.45H106.35H106.25H106.15V162.85L106.05 162.75H105.95H105.85H105.75V162.65H105.65H105.55H105.45H105.35H105.15H105.05V162.75H104.95L104.85 162.85V162.95L104.75 163.05H104.55H104.45L104.35 163.15L104.15 163.05V163.15L104.05 163.25L103.75 163.45V163.55H103.65L103.35 163.75H103.25H103.15V163.65L102.95 163.45L102.45 162.65L102.15 162.45L101.95 162.35L101.65 162.25V162.05L101.25 161.95V161.85V161.65H101.15V161.55V161.45H101.25V161.35H101.55V161.25V160.35V160.25L101.45 160.05L101.35 159.95H101.45L101.55 160.05L101.65 159.85L101.55 159.75V159.65H101.65V159.55V159.45L101.35 159.65L101.15 159.35L100.75 159.65H100.35H100.05L99.25 159.55L98.65 159.25L97.95 158.95L96.95 158.45L96.75 158.85L95.35 158.25V158.15V158.05L95.25 157.95L95.15 157.45V157.35L94.55 157.25H94.05H93.85V157.15H93.75V157.25H93.65V157.35H93.55H93.45H93.35H93.25V157.45H93.15H93.05H92.95V157.55H92.85V157.65L92.65 157.95V158.05V158.15L92.85 158.45L93.05 158.95V159.05L93.15 159.15L92.25 159.25H92.15L91.95 159.65L91.65 159.55L91.55 159.95L91.45 160.75L91.35 161.05L90.75 160.95V161.45H89.55H89.45L89.55 161.75V161.95L89.85 162.05V162.15V162.25L90.05 162.35V162.55L89.85 162.65L89.75 162.75H89.65L89.55 163.15V163.25L90.05 163.05H90.15L90.25 163.15V163.25L90.05 163.35L89.55 163.65L89.45 163.55L88.75 163.35V163.25H88.85V163.15L88.65 163.05L88.55 163.15L88.45 163.25L88.35 163.35H88.25L88.15 163.25H88.05V163.15V163.05H87.95V162.95H87.85V162.85H87.75V162.75H87.65H87.55L87.05 162.85L86.15 162.95L85.65 163.05L85.15 163.15L84.85 163.25L84.15 163.45H84.05L83.95 163.55V163.45L83.85 163.15V163.05L84.25 162.65L84.85 161.95L84.55 161.25H84.45H84.35H83.85H83.75H83.65L83.35 161.15L83.15 161.05L82.75 160.95H82.65L82.05 161.15L81.95 161.45L81.65 161.65H81.55L81.35 161.85L81.05 161.65L80.55 161.45L80.95 161.05L80.85 160.75L80.95 160.55L80.55 160.05L80.95 159.65L81.85 158.45L81.55 158.15V158.05L80.95 158.55L80.85 158.65L80.65 158.85H80.55L80.25 159.15L80.15 159.25L79.55 159.65L79.15 159.35L79.05 159.25V158.75H78.95V158.65V158.55L78.85 158.35V158.25L78.75 157.75V157.15H78.65V157.05L78.15 156.65V156.55L78.05 156.15V155.75V155.55L77.95 155.15V154.95V154.85L77.85 154.75L77.35 154.65L76.45 154.45L75.65 154.25L75.35 154.15V154.05L75.25 153.55L75.35 153.45V153.35L75.45 153.25L75.55 153.15H75.65V153.05V152.95H75.55L75.45 153.05H75.35V152.95V152.85L75.25 152.75V152.85L75.15 152.95L75.05 152.85V152.75H74.95V152.65H74.85L74.95 152.55V152.45H75.05H75.15H75.25H75.35L75.45 152.35H75.55V152.45V152.65H75.65V152.75L75.85 152.85L75.95 152.75V152.65V152.55H76.05V152.45L75.95 152.35V152.15V152.05V151.95V151.85L76.05 151.75V151.85L76.35 151.95V151.85H76.45L76.55 151.75H76.65L76.75 151.85L76.85 151.75V151.85L76.95 151.95V152.35L77.05 152.45V152.55L77.35 152.45L79.05 151.85L79.95 150.55L79.35 149.65L79.85 149.15V149.05V148.85V148.55L79.95 148.25H79.85L79.05 148.15L77.25 148.25H76.35L75.55 148.35H75.45L74.45 148.05V147.95L74.35 147.55L74.25 147.35L74.05 147.05V146.95L73.95 146.75V146.65V146.55V146.45V146.35H73.85V146.25V146.15H73.75V146.05V145.95V145.85L73.65 145.75V145.65H73.55V145.55H73.45V145.45L73.25 145.35V145.25L73.15 145.15H73.05V145.05L72.95 144.95V144.85L72.85 144.65V144.45V144.25L72.75 144.05L72.65 143.95L72.55 143.75L72.35 143.65L71.95 143.45L71.55 143.25L71.05 142.85L70.85 142.95L70.25 142.05H70.05L69.65 141.05L68.95 141.25V141.35L67.15 141.65V141.75V141.85L67.25 142.45V143.05H67.15H67.05L66.95 143.15V143.05H66.85H66.75H66.65H66.55H66.45H66.35H66.25H66.15H66.05H65.95H65.85H65.75V143.15L65.85 143.75L65.95 143.85V144.35L66.05 144.65V145.25H65.95H65.85H65.75L65.65 145.35H65.55H65.45L65.55 145.75L65.65 146.15L65.75 146.75H65.55H65.45H65.25H64.55H63.65H63.55H62.95L62.35 146.65L61.65 146.55H60.85L60.55 146.85L60.45 147.05L60.25 147.45L60.15 147.55L60.05 147.65L59.75 147.45L59.65 147.25H59.55L59.15 147.35H58.85V148.85V148.95V149.05L58.65 149.25V149.45L58.55 149.55L58.05 149.85H57.85L57.65 149.75H57.55H57.45H57.35L56.95 149.65H56.75L56.45 149.55H56.25L55.85 149.45L55.55 149.35H55.05V149.65L54.95 149.75L54.75 150.05L54.45 149.95V149.85H54.35L54.25 149.95H54.15V149.85H54.05H53.95H53.85H53.75V149.75H53.65L53.25 149.25L52.95 149.35L52.85 149.15H52.45V149.75H52.35L52.25 149.85H52.05V149.65L51.75 149.75H51.65H51.55H51.45L51.15 149.65V149.85L50.45 150.25L49.85 150.45L49.25 150.65L49.15 150.95L49.05 151.05H48.75V151.25V151.45L48.05 151.35L47.45 151.25V151.05V150.95V150.85H47.55L47.45 150.75L47.15 150.25V150.15L46.85 150.05L46.55 149.75L46.45 149.65H46.35H46.25L46.05 149.55H45.85L45.65 149.45V149.35H45.45H45.35H45.25V149.25H45.15L45.05 149.15V149.05L44.95 148.85L44.65 149.05L44.35 149.15L44.25 149.35L43.95 149.95L43.85 150.15L43.75 150.25L43.55 150.55L43.45 150.65L43.35 150.75L42.95 151.45L42.85 151.35L42.75 151.15V151.05V150.95L42.55 150.45L42.45 149.85V149.55V149.35L42.25 149.25H42.15L41.85 149.15H41.75L41.85 149.05L41.35 148.95H41.25L41.15 148.85H41.05L40.95 148.75L40.85 148.85H40.75V148.75H40.65H40.55V148.65H40.45H40.35H40.25V148.55H40.15H40.05H39.95L39.75 148.45H39.65H39.55L39.45 148.35L39.35 148.25H39.25V148.15H39.15V148.05V147.95V147.85H39.25V147.75L39.35 147.65V147.55V147.45V147.35V147.15V147.05V146.95H39.25L38.95 147.05L38.75 146.65V146.55V146.45V146.15H38.65H38.55H38.45H38.35H38.25V146.05L37.75 145.95H37.05V145.75V145.65H36.85H36.65H36.55H35.75V144.45H35.15L34.65 144.35V143.95V143.75V142.95H35.35H35.75H36.25L36.65 143.05H37.45L37.75 142.55V142.45L37.55 142.35L37.25 141.95L37.75 141.45L37.65 141.35L37.25 141.05L36.85 140.75L36.55 140.55L36.35 139.95L36.45 139.25L36.55 139.05L37.05 138.55L37.55 138.15L37.45 138.05V137.95V137.85V137.55L37.35 136.85L37.25 136.55V136.35V136.25L37.35 135.95L37.25 135.85H37.15H37.05H36.65V135.65V135.55V135.45V135.05L36.45 135.15L35.95 135.35H35.85L35.95 134.75L35.85 133.65H34.55V133.55V133.45L34.65 133.15V132.95L34.45 132.85L34.15 132.55H33.85L33.75 132.35L33.65 132.25V132.15L33.45 131.85H33.15H32.95H32.85L32.75 131.75H32.65L32.45 131.65V131.05V130.65V130.55L32.55 130.15L32.65 129.85V129.65L32.25 129.55L31.75 129.35H31.45L31.25 129.25H31.15H30.85L30.55 129.15H30.25H30.15H30.05L29.85 129.95V130.25L29.75 130.45H29.45H29.15H29.05L28.75 130.55H28.55H28.35H28.25L28.05 130.65H27.95H27.85H27.75L27.65 130.55H27.55H27.45H27.15H27.05L26.95 130.45V130.35L25.85 130.55H25.75L25.65 130.65H25.55H25.45H25.05V130.75L24.85 130.65H24.45L23.95 130.55L23.85 130.85L23.75 131.05H23.65L23.55 130.95H23.45H23.35H23.15H23.05H22.95V130.85V130.75V130.65V130.55H22.45L22.25 130.45H22.15H22.05H21.95H21.55H21.45L21.15 130.35H21.05H20.95H20.85V130.25V130.15V130.05V129.95V129.85L20.75 129.75L20.25 130.05L20.05 130.15V130.25V130.55V130.85L19.95 131.15V131.25V131.35V131.75V131.85L19.45 131.95L18.15 132.05H17.95L17.85 131.75L17.55 131.65V131.05L18.25 131.25L18.35 131.15L18.15 131.05V130.95V130.85L18.25 130.75V130.65V130.55H18.35L18.45 130.45L18.55 130.35V130.25H18.65L18.75 130.05H18.85L18.95 129.95V129.85L19.15 129.95L19.85 129.45H19.95L19.75 129.15L19.45 129.25L19.25 129.35L19.05 129.55H18.85L18.75 129.65V129.75H18.65H18.55H18.45V129.85H18.35L18.45 129.95V130.05V130.15L18.35 130.25H18.25H18.15V130.35V130.45L18.05 130.55V130.65H17.85L17.65 130.55H17.55H17.45V130.45H17.35H17.25L17.15 130.35L17.05 130.25H16.95V130.15H16.85H16.75L16.65 130.05H16.55H16.45H16.35H16.25H16.15L16.05 129.95H15.95H15.85L15.75 129.85L15.55 129.75H15.35L15.15 129.65V129.55H15.05V129.45H14.95L14.65 129.35V129.55V129.65L14.55 129.75V129.85V129.95H14.45V129.85H14.35H14.25H14.15H14.05V129.75V129.65H13.95V129.55H13.85L13.75 129.65H13.65V129.75H13.55H13.45H13.35V129.85H13.25H13.15H13.05V129.75V129.65H13.15V129.55H13.05V129.45V129.35V129.25H13.15V129.15H13.05V129.05H12.95V128.95H13.05V129.05L13.15 128.95H13.05V128.85H13.15L13.25 128.75H13.35H13.45V128.65V128.55L13.55 128.45V128.35H13.65L13.55 128.25H13.45V128.15H13.35V128.05H13.25L13.35 127.95L13.45 127.85V127.75V127.65H13.35V127.55V127.45L13.45 127.35V127.25L13.35 127.15V127.05H13.25V126.95H13.15H13.05H12.95L12.85 126.65L12.75 126.25H13.05L13.35 126.05L13.55 126.35L13.65 126.45L13.75 126.55V126.65H13.85V126.75H13.95H14.05H14.15H14.25H14.35L14.55 126.65V126.55V126.45H14.65V126.35H14.75V126.25V126.15H14.65V126.05V125.95V125.85V125.75H14.55H14.45V125.65V125.55L14.55 125.45H14.65H14.75H14.85L14.95 125.35V125.25H15.05V125.15V125.05V124.95H14.95V124.85V124.75L14.85 124.65V124.55V124.45V124.35V124.25V124.15V124.05V123.95H14.75V123.85V123.75V123.65V123.55V123.45H14.85V123.35H14.95V123.25H15.05V123.15L14.95 122.55L14.85 122.45L14.75 122.35V122.25V122.15H14.65V122.05L14.55 121.85L14.75 121.65H14.65L14.55 121.55H14.45L14.35 121.45L14.25 121.35L13.95 121.25L13.85 121.15H13.75L13.65 121.05L13.55 120.95L13.45 120.85H13.35L12.95 120.65V120.35V120.15V120.05H12.85L12.75 119.95L12.55 120.05H12.45H12.25V119.95H12.15L12.05 119.85H11.95V119.75L11.85 119.65L10.95 119.55V119.35L10.35 119.45L10.15 118.85L10.05 118.65L9.95001 118.55V118.45V118.35L9.85001 118.25V118.15V118.05H9.75V117.95V117.85V117.75V117.55H9.64999L9.54999 117.25V117.05L9.45001 116.95V116.85H9.54999V116.75V116.65L9.45001 116.55L9.25 116.05L9.04999 115.35L8.35001 114.55L8.45001 113.95V113.65V113.55V113.45H8.54999V113.25V113.15V113.05L8.64999 112.95V112.85H8.54999V112.75V112.65L8.45001 112.35L8.25 111.75V111.65V111.45L7.35001 110.95V110.85H7.25H7.04999H6.54999H6.35001H6.25V110.65V110.35V110.25L6.14999 109.65V109.45L4.45001 109.55L1.04999 109.85L1.14999 109.55V109.35V109.05L1.04999 108.55L0.850006 108.25L0.75 107.95V107.75V107.65V107.55L0.850006 107.35L1.14999 107.05L1.25 106.85L1.35001 106.65L1.45001 106.45L1.54999 106.15V105.95V105.75V105.65V105.55L1.45001 105.45L1.04999 105.15L0.75 104.85L0.549988 104.65L0.350006 104.45L0.25 104.35V104.25L0.350006 104.05L0.549988 103.85L0.850006 103.65L1.04999 103.55H1.25H1.54999L1.64999 103.45H1.75L1.85001 103.25V103.05L1.95001 102.75L1.85001 102.55L1.75 102.25L1.64999 102.05L1.45001 101.85L1.14999 101.55L1.04999 101.35L0.850006 101.05L0.75 100.85V100.65L0.649994 100.35L0.549988 100.15V99.95V99.35V98.55L0.649994 98.35L0.75 97.95L0.850006 97.85L0.950012 97.65L1.14999 97.45H1.25H1.35001H1.54999H1.64999L1.75 97.55L1.95001 97.65L2.14999 97.75H2.35001H2.54999L2.75 97.65H2.85001L2.95001 97.55V97.45L3.04999 97.35V97.15L2.95001 97.05V96.95L2.75 96.85H2.64999H2.45001L2.35001 96.95H2.14999H2.04999L1.95001 96.85V96.75H1.85001V96.65V96.55V96.45H1.95001V96.35L2.04999 96.25L2.14999 96.15L2.35001 96.05L2.45001 95.95L2.54999 95.85V95.75V95.65V95.55V95.45V95.35L2.45001 95.25L2.35001 95.05V94.95L2.25 94.85V94.65L2.14999 94.55L2.04999 94.45L1.95001 94.35L1.75 94.25L1.54999 94.05H1.45001V93.95H1.35001V93.85V93.75V93.65V93.45V93.35V93.25L1.45001 93.15L1.54999 93.05V92.95H1.64999H1.75L1.85001 92.85H1.95001V92.75H2.14999L2.25 92.65H2.35001H2.45001H2.54999L2.75 92.75L2.85001 92.85L2.95001 92.95L3.04999 93.05H3.14999L3.35001 93.15H3.45001H3.54999H3.75H3.85001L3.95001 93.05V92.95L4.04999 92.85V92.75V92.65V92.55V92.45V92.35L3.95001 92.25V92.15V92.05V91.95V91.85L3.85001 91.75L3.95001 90.15L4.04999 89.95L4.95001 88.35V88.15L5.04999 87.25L6.64999 86.05L7.85001 84.75H7.95001H8.14999H8.25L8.35001 84.65H8.45001H8.54999V84.55H8.64999V84.45H8.75V84.35V84.25L8.85001 84.15V84.05V83.95L8.75 83.85V83.75H8.64999L8.54999 83.55L8.45001 83.45L8.35001 83.35L8.25 83.25L8.14999 83.15L8.04999 83.05H7.95001V82.95L7.85001 82.85V82.75L7.75 82.65V82.55V82.45H7.85001V82.35V82.25L8.35001 82.05V81.85H8.45001L8.54999 81.75H8.64999V81.65H8.75V81.55V81.45H8.85001V81.35L8.75 81.25V81.15V81.05L8.54999 80.75L8.45001 80.55L8.35001 80.35V80.25L8.25 80.15V80.05L8.14999 79.95L7.95001 79.75V79.65L7.85001 79.55V79.45V79.35H7.75V79.25L7.64999 79.05V78.95V78.85V78.75L7.54999 78.65V78.55L7.45001 78.45V78.35V78.25L7.35001 78.05L7.25 77.95V77.85L7.14999 77.75V77.65V77.55V77.45V77.35V77.25V77.15H7.04999V77.05H6.95001H6.85001H6.75H6.64999L6.54999 77.15H6.45001V77.25L6.35001 77.35L6.25 77.45H5.85001L5.45001 77.25L5.25 76.25L5.35001 75.25L5.64999 74.85L5.75 74.75H5.85001H5.95001L6.04999 74.65L6.14999 74.55H6.25L6.35001 74.45L7.04999 74.65V74.05L6.45001 73.75L5.95001 73.45L5.54999 72.85L5.45001 72.65V72.55V72.45V72.15V72.05V71.95V71.85V71.75V71.65V71.55L5.54999 71.15L5.35001 70.55L4.85001 70.05L4.54999 69.75L4.25 69.55L4.64999 69.15L4.95001 68.85L5.25 67.95L4.45001 67.55L4.25 67.45L3.14999 67.15V67.05L3.04999 66.95L2.95001 66.85L2.85001 66.75L2.75 66.65L2.64999 66.55V66.45L2.54999 66.35V66.25H2.45001V66.15V66.05V65.95V65.85V65.75V65.65V65.55L2.64999 65.35L2.85001 65.25L3.25 65.15V64.65L3.14999 64.55L2.75 64.35L1.85001 63.55V62.95V62.85H1.95001L2.04999 62.95H2.14999L2.25 63.05H2.35001H2.45001H2.54999L2.64999 62.95H2.75V62.85L2.85001 62.75V62.65V62.55V62.45V62.35V62.25H2.75V62.15H2.64999L3.25 61.55L3.54999 61.45L3.95001 61.35L3.75 60.65V60.55L3.54999 60.25L3.85001 59.95L4.04999 59.65H4.14999L4.25 59.75H4.35001H4.45001H4.54999H4.64999H4.75L4.85001 59.65H4.95001L5.04999 59.55V59.45L5.14999 59.35V59.25V59.15V59.05L5.04999 58.95V58.85L4.95001 58.75V58.65L4.85001 58.55L4.75 58.45V58.35V58.25V58.15V58.05V57.95H4.85001V57.85L4.95001 57.75V57.65V57.55V57.45V57.35V57.25V57.15H5.04999V57.05V56.95V56.85L4.95001 56.75V56.65V56.55L4.85001 56.45V56.35V56.25L4.54999 55.15L5.25 54.95L6.75 54.85L7.35001 54.65L7.64999 53.85L7.75 52.85L7.85001 51.85L8.45001 51.25V51.15V51.05L8.54999 50.95V50.85L8.64999 50.75V50.65V50.55V50.45V50.35V50.25V50.15V50.05L8.54999 49.95L8.45001 49.85H8.35001L8.25 49.75H8.14999H8.04999L7.95001 49.85H7.85001L7.75 49.95H7.64999V50.05H7.54999V50.15H7.45001L7.35001 50.25H7.25L7.04999 50.15L7.64999 49.35L8.75 48.65L9.25 48.15L9.54999 47.85L9.64999 47.75V47.45V47.25V46.45L9.25 45.65V45.45V45.35H9.35001V45.25H9.45001L9.54999 45.15H9.64999H9.75H9.85001H9.95001V45.05H10.05H10.15H10.25H10.35V44.95H10.45L10.55 44.85H10.65V44.75L10.75 44.65V44.55V44.45H10.85V44.35V44.15V44.05L10.95 43.85V43.75V43.55L11.05 43.35V43.15V43.05L11.15 42.85V42.75L11.25 42.55L11.55 42.05L11.85 41.45L12.85 40.95L13.05 40.25V39.45L13.15 39.25V39.15H13.25V39.05L13.35 38.95L13.65 38.85L15.15 38.95L15.35 38.85L15.55 38.95H15.65H15.75H15.85L15.95 39.05H16.05V38.95H16.15H16.25V38.85H16.35V38.75V38.65V38.55V38.45V38.35L16.45 38.25V38.15L16.55 38.05L16.65 37.95L16.75 37.85L16.85 37.75H16.95L17.05 37.65V37.55L17.15 37.45H17.25L17.35 37.35V37.25H17.45V37.15V37.05V36.95V36.85L17.35 36.75V36.65L17.25 36.55V36.45L17.15 36.35V36.25H17.05L16.95 36.05L16.85 35.95L16.75 35.75V35.65L16.65 35.55V35.45L17.75 35.05L18.45 34.55L19.15 34.05L19.65 33.45L19.75 33.35H19.85H19.95H20.05H20.15H20.25V33.25H20.35H20.45H20.55L20.65 33.15H20.75V33.05V32.95V32.85V32.75V32.65V32.55H20.65L20.55 32.45V32.35L20.45 32.25V32.15V32.05V31.95V31.85H20.55V31.75H20.65H20.75H20.85L21.05 31.85H21.15H21.25H21.35H21.45H21.55H21.65V31.75H21.75V31.65V31.55V31.45V31.35V31.25H21.65V31.15H21.55H21.45H21.35H21.25H21.15H21.05V31.05H20.95H20.85V30.95L21.05 30.75L21.35 30.65L21.65 30.75L21.95 31.25L23.35 31.15L23.75 30.05L23.25 28.95V28.85L23.35 28.75L23.45 28.65V28.55H23.55V28.45L23.45 28.35V28.25H23.35L23.25 28.15H23.15V28.05L23.05 27.95V27.85L22.95 27.75V27.65V27.55V27.45V27.35V27.25V27.15H23.05V27.05L23.15 26.95H23.25H23.35V26.85H23.45V26.75H23.55V26.55V26.45H23.65V26.35V26.25V26.15V26.05V25.95V25.85H23.55V25.75V25.65H23.45V25.55H23.35L23.25 25.45H23.15L23.05 25.35V25.25H22.95V25.15V25.05V24.95V24.85L24.25 24.45L31.15 24.05L33.05 24.35L34.35 25.05L36.65 27.05L37.85 27.45L38.85 27.05L39.05 27.15H39.15V27.05H39.25L39.75 26.85L40.35 26.65L41.05 26.45L41.25 26.35L41.35 26.15L41.45 26.05L41.65 25.55L41.95 25.05L42.05 24.75L42.15 24.45L42.35 24.15L42.45 23.95V23.85V23.75L42.25 23.65L42.15 23.55L41.95 23.45L42.15 23.35H42.25L42.35 23.25V23.15H42.45V23.05V22.95H42.55V22.85V22.75V22.65V22.55V22.45V22.35V22.25L42.65 22.15L45.55 20.95H50.25L50.65 21.05H50.75H50.85H50.95L59.05 22.65L62.55 22.45H63.45L64.85 22.35L66.55 22.15L67.95 22.05L68.25 22.15L69.55 22.45L70.75 23.55L71.05 24.85V26.35L71.25 27.65L72.15 28.25L73.05 28.05L75.75 26.65L77.45 26.55H77.55H77.65L77.95 26.65V26.75H78.05H78.15H78.25L78.35 26.85H78.45H78.55V26.95L78.65 27.05V27.15H78.75V27.25L78.95 27.35H79.05H79.15V27.45H79.25H79.35V27.55H79.45H79.55L79.65 27.65H79.75H79.85L79.95 27.75H80.05H80.15H80.25H80.35H80.55H80.75H80.95H81.05H81.25V27.85H81.35H81.55V27.65V27.55V27.35V27.25L82.45 26.85L83.45 26.35H83.55L83.85 26.15H83.95L86.35 24.95L86.85 24.75L88.45 23.95L89.35 23.25H89.45V23.15H89.55H89.65H89.75H89.85V23.05V22.95H89.95V23.05H90.05V22.95H90.15V22.85V22.75H90.25V22.65H90.35H90.45H90.55V22.55H90.65H90.75V22.45H90.85H90.95V22.35H91.05H91.15V22.25V22.15H91.25H91.35V22.05V21.95H91.45V21.85V21.75V21.65H91.55V21.55H91.65H91.75V21.45H91.65V21.35H91.75V21.25H91.65V21.15H91.55V21.05V20.95V20.85V20.75H91.65H91.75H91.85V20.65V20.55H91.95V20.65H92.05H92.15H92.25H92.35H92.45H92.55H92.65L92.75 20.55V20.45V20.25V20.15V20.05L92.85 19.95V19.85V19.65V19.55V19.45V19.35L92.95 19.45H93.05L93.15 19.55L93.25 19.65H93.35L93.45 19.45V19.35V19.25V19.15H93.55V19.05H93.85H94.35H94.55H94.85H94.95V18.95H95.05V18.85L95.15 18.75L95.25 18.65V18.55H95.35V18.45L95.25 18.25V18.15L95.15 17.95V17.75H95.05H94.75H94.45H94.35H94.25H93.95H93.85H93.75H93.65H93.55H93.45H93.35V17.85V17.95H93.25V18.05V18.15H93.15V18.25H93.05V18.15L93.15 18.05V17.95V17.85H93.25V17.75H93.15L93.25 17.65V17.55H93.15V17.45H93.25V17.35V17.25H93.15L93.25 17.15V17.25H93.35V17.15H93.25V17.05H93.35V16.95V16.85L93.45 16.75V16.85H93.55V16.75H93.45L93.55 16.65V16.55H93.65V16.45V16.35H93.75H93.85V16.25H93.75V16.35L93.65 16.25V16.15H93.75H93.85V16.05V15.95V15.85V15.75H93.95V15.65H94.05H94.15V15.55H94.25V15.45L94.15 15.15V15.05V14.85V14.75V14.65L94.05 14.55V14.45H93.95L93.65 14.15L93.55 14.05L93.45 13.95V13.85V13.75H93.35V13.65V13.55L93.25 13.35L93.15 13.15V13.05L93.25 12.65L93.75 12.05L94.35 11.75L94.95 11.25L95.05 10.85H95.15H95.25H95.35H95.45H95.55H95.65H95.75H95.85H95.95H96.05V10.75H96.15H96.25V10.65H96.35L96.45 10.55V10.45H96.55L96.65 10.35H96.85V10.25V10.15L96.75 10.05H96.65V9.95V9.85H96.55H96.45V9.75H96.35V9.65V9.55V9.45H96.25V9.35V9.25V9.15H96.15V9.05V8.95H96.05V8.85V8.45V8.35H96.15L96.25 8.15L96.45 7.85L96.55 7.75H96.45V7.65H96.35H96.25L96.15 7.75V7.65H96.05H95.95V7.75L95.75 7.85V7.95L95.55 8.05H95.45V7.95L95.35 7.85V7.75L95.25 7.55V7.45V7.35V7.25H95.15V7.15V6.95V6.85V6.75V6.65V6.55V6.45V6.25L95.05 6.15V6.05V5.95V5.85V5.75H94.95V5.65V5.55L94.85 5.45V5.25L94.75 5.15L94.65 4.95V4.85V4.75H94.55V4.65L94.45 4.55V4.45L94.55 4.35V4.15L96.65 3.75L100.95 5.35L103.35 4.65L111.25 8.85L112.65 9.55L113.35 9.85H114.85L117.65 9.15L117.85 9.05H118.05H119.25L120.15 9.45L121.65 10.65L122.55 10.75L123.45 10.35L125.95 8.05H126.05H126.15H126.25L126.35 8.15H126.45L126.55 8.25H126.65H126.75H126.85H126.95V8.15V8.05V7.95V7.85H127.05H127.15V7.75V7.65V7.45L127.05 7.35V7.25V7.15L127.35 6.85L128.65 5.65L129.45 5.25L129.55 5.15L130.05 5.25L130.25 5.35L130.75 5.55L131.15 5.45L131.55 5.05L131.85 4.45L132.15 3.85L132.65 3.65L133.15 3.45L133.65 3.25L134.25 2.65L134.45 2.35H134.55V2.45L134.65 2.55H134.75V2.65H134.85L134.95 2.75H135.05H135.15V2.65H135.25H135.35H135.45L135.55 2.55H135.65L135.75 2.45V2.25V2.15V2.05V1.95V1.85V1.75V1.65V1.55V1.45V1.35V1.25V1.15L135.85 1.05V0.950001V0.85V0.75L136.35 0.35L137.05 0.25L141.65 1.15L142.05 1.25L145.05 1.15H145.25L146.15 1.35L147.35 2.25L147.55 2.35L148.35 2.75H148.55ZM15.05 70.55V70.45V70.35L14.85 70.45V70.65L15.05 70.55ZM9.35001 70.55L9.45001 70.45V70.35V70.25L9.25 70.35V70.45L9.35001 70.55ZM13.95 70.15H13.75L13.55 70.05V70.15L13.85 70.25H13.95V70.15ZM13.45 68.05H13.35H13.25H12.95V67.95V67.75V67.65V67.55V67.35H12.85H12.75H12.65L12.55 67.25H12.35L12.05 67.15L11.75 67.05H11.65H11.55V67.25L11.65 67.85V67.95V68.15V68.75V68.85H11.55H11.45H11.35H11.25V68.95H11.15H11.05H10.95H10.85H10.75L10.65 68.85H10.55H10.45H10.35H10.15H9.85001H9.75H9.64999V68.95V69.05H9.54999L9.35001 69.15H9.25H9.14999L8.75 69.45H8.64999L8.35001 69.65L7.95001 69.85L7.64999 70.05H7.54999V70.15H7.45001H7.25L6.64999 70.05H6.54999H6.45001H6.35001V69.95V69.85L6.25 69.75V69.65L6.14999 69.45V69.35H5.75V69.65L5.35001 69.55V70.05H5.64999H5.75H5.85001V69.95L5.75 69.75V69.65H5.85001L5.95001 69.75V69.95L6.04999 70.05L5.95001 70.15H5.85001L5.95001 70.25L6.04999 70.55L6.14999 70.45L6.25 70.35H6.35001V70.05H6.45001H6.54999H6.64999H6.85001L7.14999 70.15H7.25H7.45001H7.54999H7.64999V70.05L8.14999 69.75H8.25L8.45001 69.55L8.75 69.45V69.55L8.85001 69.65V69.75L8.95001 69.65V69.75H9.04999V69.85L9.25 69.75L9.45001 69.65L9.64999 69.55H9.85001H9.95001H10.05H10.15H10.25H10.35H10.55H10.65H10.75H10.95H11.05H11.15H11.25L11.35 69.65H11.55H11.65H11.75L11.95 69.75H12.05H12.35L12.45 69.85H12.65H12.85V69.95H12.95H13.05H13.15H13.25H13.35L13.45 70.05H13.85L14.25 70.15H14.45V70.25H14.65L15.05 70.35H15.25L15.35 70.15V70.05V69.95V69.75V69.35H15.45V69.45H15.65V69.35H15.55V69.25L15.45 69.35L15.35 69.25V69.15V69.05V68.85L15.45 68.75V68.65V68.55V68.45V68.25V68.15H15.35H15.25H15.15H15.05H14.75H14.55H14.25H14.05V68.05H13.95H13.75H13.65H13.55H13.45Z" fill="#220F0F"/>
<path d="M147.35 5.75V5.65V5.55V5.45V5.35H147.25V5.25L146.75 5.05V4.95V4.85V4.75H146.65V4.65V4.55H146.75H146.85L146.95 4.65L147.05 4.75L147.15 4.85H147.25H147.35V4.75L147.45 4.65V4.55L147.55 4.35V4.25V4.15H147.65H147.75L147.85 4.05L147.95 3.95L148.05 3.85V3.75V3.65H148.15V3.55V3.45H148.25V3.35L148.55 2.75H148.35L147.55 2.35L147.35 2.25L146.15 1.35L145.25 1.15H145.05L142.05 1.25L141.65 1.15L137.05 0.25L136.35 0.35L135.85 0.75V0.85V0.950001V1.05L135.75 1.15V1.25V1.35V1.45V1.55V1.65V1.75V1.85V1.95V2.05V2.15V2.25V2.45L135.65 2.55H135.55L135.45 2.65H135.35H135.25H135.15V2.75H135.05H134.95L134.85 2.65H134.75V2.55H134.65L134.55 2.45V2.35H134.45L134.25 2.65L133.65 3.25L133.15 3.45L132.65 3.65L132.15 3.85L131.85 4.45L131.55 5.05L131.15 5.45L130.75 5.55L130.25 5.35L130.05 5.25L129.55 5.15L129.45 5.25L128.65 5.65L127.35 6.85L127.05 7.15V7.25V7.35L127.15 7.45V7.65V7.75V7.85H127.05H126.95V7.95V8.05V8.15V8.25H126.85H126.75H126.65H126.55L126.45 8.15H126.35L126.25 8.05H126.15H126.05H125.95L123.45 10.35L122.55 10.75L121.65 10.65L120.15 9.45L119.25 9.05H118.05H117.85L117.65 9.15L114.85 9.85H113.35L112.65 9.55L111.25 8.85L103.35 4.65L100.95 5.35L96.65 3.75L94.55 4.15V4.35L94.45 4.45V4.55L94.55 4.65V4.75H94.65V4.85V4.95L94.75 5.15L94.85 5.25V5.45L94.95 5.55V5.65V5.75H95.05V5.85V5.95V6.05V6.15L95.15 6.25V6.45V6.55V6.65V6.75V6.85V6.95V7.15V7.25H95.25V7.35V7.45V7.55L95.35 7.75V7.85L95.45 7.95V8.05H95.55L95.75 7.95V7.85L95.95 7.75V7.65H96.05H96.15V7.75L96.25 7.65H96.35H96.45V7.75H96.55L96.45 7.85L96.25 8.15L96.15 8.35H96.05V8.45V8.85V8.95H96.15V9.05V9.15H96.25V9.25V9.35V9.45H96.35M147.35 5.75V5.85M147.35 5.75H147.45V5.95H147.35V6.05L147.05 5.75L146.65 6.15L146.95 6.45V6.55H147.05V6.65V6.75H146.95H146.85L146.75 6.65L146.65 6.75V6.85H146.55V6.95H146.65V7.05H146.55V7.15V7.25V7.35M146.55 7.35V7.45M146.55 7.35H146.65V7.45L146.55 7.55H146.45V7.65H146.55L146.65 7.55V7.65V7.75H146.55L146.45 7.85M146.45 7.85V7.95V8.05M146.45 7.85V7.75H146.35V7.85H146.25L146.15 7.95V8.05H146.25H146.35H146.45M146.45 8.05H146.55V8.15M146.55 8.15H146.45V8.25M146.55 8.15V8.25H146.45M146.55 8.15H146.65V8.25V8.35L146.45 8.75H146.35L145.95 9.35H145.75L145.45 9.65L145.35 9.35H145.25V9.45V9.55V9.65H145.15V9.75H145.25V9.85V9.95H145.35V10.05V10.15V10.25V10.35V10.45H145.45H145.55H145.65V10.55M146.45 8.25H146.35M146.35 8.25V8.15M146.35 8.25H146.25M146.35 8.25V8.35M145.65 10.55H145.75M145.65 10.55V10.65V10.75L145.55 10.85L145.45 11.05H145.35V11.15H145.45V11.25L145.55 11.35H145.65V11.45V11.55H145.55H145.45L145.35 11.65L145.25 11.75H145.15V11.85V11.95H145.05V12.05V12.15V12.35H144.95V12.45L144.85 12.55H144.75V12.45H144.65H144.55H144.45H144.35V12.55H144.25V12.65L144.15 12.75V12.85H144.05L143.95 12.95H143.85H143.75V12.85H143.65V12.75V12.65V12.55V12.45H143.55V12.35H143.45V12.45H143.35L143.25 12.65L143.05 12.95V13.05L143.15 13.15H143.25H143.35H143.45H143.55V13.25V13.35V13.45L143.75 13.75V13.85H143.85V13.95V14.05V14.15H143.75V14.25V14.35M143.75 14.35H143.85M143.75 14.35H143.65V14.45V14.55H143.55V14.65H143.45V14.55H143.35V14.65V14.75V14.95M143.35 14.95H143.45M143.35 14.95V15.05H143.25V14.95H143.15V14.85H143.05H142.95H142.85V14.95V15.05V15.15H142.95V15.25V15.35H142.85H142.75V15.45H142.85V15.55H142.95V15.45H143.05V15.55V15.65H143.15V15.75H143.25V15.85H143.15V15.95V16.05L143.05 16.15H143.15V16.25H143.25V16.35V16.45H143.35L143.45 16.75H143.55V16.65H143.65H143.75L143.95 16.95L143.85 17.05V17.15L143.95 17.25H144.15V17.35V17.65V17.75V17.85H143.65L143.55 18.25V18.45V18.55L143.45 18.85V19.05V19.15V19.25V19.35V19.45H144.45V19.35V19.25H144.35H144.25H144.15H144.05H143.95H143.85V19.15H143.75V19.05V18.95L144.05 18.85L144.25 18.75L144.35 18.65H144.45H144.55H144.65L144.75 18.75L145.45 19.15L145.85 19.25L146.15 19.45L146.45 19.65L146.95 19.85L147.55 20.15L147.65 20.25L148.25 20.55L147.85 21.15L148.25 21.35L149.05 21.65L149.25 21.95L149.45 22.35V22.45L149.55 22.55H149.65L149.55 22.75V22.85V22.95H149.45V23.05L149.35 23.15L149.25 23.25V23.35V23.45L149.35 23.35H149.45L149.55 23.25H149.65H149.75H149.85H149.95H150.05H150.15H150.25H150.35V23.45L150.95 23.55L151.85 23.85L151.95 23.75V23.45H152.15L152.25 23.35V23.25H152.35V23.35V23.85V24.95L152.45 25.75V27.45H152.35H151.35H150.95H150.85H150.75H150.65H150.55H150.45V27.55H150.35H150.25V27.65H150.15H150.05L149.95 27.75L149.75 27.85H149.55H149.45L149.35 27.95H149.25V28.05L149.15 28.15H149.05V28.25V28.35L148.95 28.45H148.85L148.65 28.35L147.95 27.85L147.85 27.65L147.65 27.15L147.45 26.45H147.25H147.15L146.95 26.55H146.85L146.15 26.95L146.05 27.05L145.85 27.15L145.65 27.25L145.55 27.35L145.45 27.45V27.55H145.35V27.65L145.25 27.75V27.85L145.15 27.95V28.05H145.05H144.95H144.85H144.75L144.65 28.15H144.55H144.45H144.35H144.25H144.15H144.05V28.05H143.95H143.85H143.55H143.45L143.15 27.95L143.05 28.05L142.95 28.15V28.25V28.35V28.45V28.55V28.65L143.05 28.75V28.85L143.15 28.95V29.05V29.15V29.25L143.05 29.35H142.95H142.85H142.75H142.65V29.25V29.15H142.55V29.25V29.35H142.45V29.45H142.55V29.55H142.65H142.75H142.85H142.95L143.05 29.65L143.15 29.75H143.25V29.85H143.45L143.55 29.95H143.65H143.75V30.05H143.95H144.05H144.15L144.35 30.35L144.45 30.45V30.55L144.55 30.65H144.65L144.75 30.75V30.85V30.95V31.05H144.65V31.15H144.75V31.25V31.35L144.85 31.45H144.75V31.55V31.65V31.75V31.85H144.85V31.95V32.05H144.95H145.05H145.15V32.15H145.25H145.35V32.25H145.45L145.55 32.35H145.65V32.15L145.85 32.25L145.95 32.35L146.05 32.45V32.55L145.95 32.65V32.75V32.85V32.95H146.05H146.15L146.25 32.85H146.35H146.45H146.55L146.65 32.95V33.05H146.75V33.15L146.85 33.25L146.95 33.35L147.05 33.45V33.55V33.65H147.15V33.75V33.95V34.05V34.15V34.25L147.05 34.35H146.95V34.45H146.85H146.75H146.65H146.55H146.45V34.35H146.35H146.25V34.25H146.15L146.05 34.35H145.95L145.85 34.45V34.55H145.75V34.65V34.75L145.85 34.85V34.95V35.05H145.75H145.65H145.55L145.45 34.95H145.35V35.05V35.15V35.35V35.45L145.15 35.55L145.25 35.75V35.95L145.15 36.05V36.15V36.25H145.05V36.35H144.85H144.75H144.45H143.85L143.75 36.15V36.05H143.25H143.15V35.95V35.85V35.75L142.85 35.95H142.75L142.45 36.05H142.35L142.15 35.95V36.05L142.05 36.25V36.35L141.95 36.45V36.55V36.65V36.75H141.85V36.85H141.75V36.95H141.65H141.55H141.45H141.35L141.05 36.85H140.95H140.85L140.75 36.95H140.65V37.05L140.55 37.15L140.45 37.25V37.15H140.35L140.25 36.95L140.15 36.85V36.75L139.95 36.65H139.85V36.75H139.95V36.85V36.95H139.85V37.05H139.75H139.65H139.55V37.15V37.25H139.65V37.35H139.75L139.65 37.45H139.55H139.45H139.35V37.55H139.25H139.15V37.65V37.75V37.85V37.95H139.05L138.95 38.05H138.85H138.75H138.65L138.55 37.95V37.85L138.45 37.75H138.35V37.65H138.25V37.75V37.85V37.95V38.05H138.35V38.15H138.45V38.25V38.35H138.35H138.25M138.25 38.35V38.45M138.25 38.35H138.15H138.05V38.25V38.15V38.05V37.95V37.85V37.75H137.95H137.85H137.75H137.65V37.85H137.55L137.45 37.95H137.35H137.25V38.05H137.15L137.05 37.95H136.95V37.85H136.85L136.75 37.75H136.65H136.55V37.85V37.95V38.15V38.25V38.35H136.45V38.45V38.55H136.35L136.25 38.45V38.35H136.15H136.05H135.95V38.45V38.55H135.85V38.65H135.75V38.75V38.85H135.85H135.95H136.05V38.95H136.15V39.05V39.15L136.25 39.25V39.35V39.45V39.55V39.65V39.75V39.85V39.95L136.15 40.05L136.05 40.15H135.95L135.85 40.25L135.75 40.35H135.65H135.55H135.45H135.25H135.15L135.05 40.45H134.95L134.85 40.55H134.75H134.65L134.45 40.65V40.75V40.85H134.55V40.95L134.45 41.05H134.35V41.15L134.25 41.05H134.15L134.05 40.95L133.95 41.05H133.85L133.95 41.15V41.25V41.35V41.55V41.65V41.75V41.85V41.95H133.85H133.75V41.85V41.75H133.65V41.65H133.55H133.45L133.35 41.75V41.85V41.95L133.45 42.05L133.65 42.15L133.75 42.25L133.85 42.35V42.45H133.75H133.65H133.55H133.45V42.55V42.65V42.75V42.85L133.35 43.05V43.15V43.25V43.35H133.45L133.55 43.25V43.15H133.65V43.25L133.75 43.35V43.45H133.65H133.55L133.65 43.55L133.55 44.05L133.65 44.15H133.75L133.95 44.25H134.05V44.35H134.15L134.25 44.55V44.65L134.35 44.85L134.45 45.05L134.55 45.15V45.25V45.35V45.45V45.55V45.65V45.75H134.45L134.35 45.85H134.25H134.15V45.75L134.05 45.65H133.95H133.85L133.75 45.75L133.55 45.95H133.45V46.05H133.35L133.25 46.15V46.25V46.35V46.45L133.15 46.65L133.05 46.85L132.95 46.95L132.85 47.05V47.15L132.75 47.25L132.65 47.35H132.55V47.45L132.45 47.55L132.35 47.65V47.75H132.25V47.85V48.05V48.15V48.25L132.35 48.35V48.45H132.25H132.15L132.05 48.35H131.95L131.85 48.25H131.75V48.35H131.85V48.45H131.75H131.65H131.55H131.45V48.55L131.35 48.75H131.25V48.85H131.15H131.05L131.15 48.95V49.05H131.25V49.15L131.35 49.25V49.35V49.45H131.45L131.55 49.35V49.25V49.15H131.65V49.05H131.75L131.85 49.25V49.45V49.55V49.65V49.75V49.85H131.95V49.95H132.05V50.05V50.15H131.95V50.25V50.35V50.45L132.05 50.55V50.65H132.15V50.75V50.85V50.95V51.05H132.25V51.15L132.35 51.25V51.35H132.45V51.45L132.55 51.55V51.65H132.65V51.75H132.75L132.85 51.85L132.95 51.95H133.05V52.05H133.15L133.25 52.15L133.35 52.25H133.45V52.35V52.45H133.55L133.65 52.55L133.75 52.65H133.85V52.75H133.95L134.05 52.95H134.15L134.05 53.05L133.85 53.35L134.05 53.55L134.15 53.65L134.25 53.75H134.35L134.45 53.85L134.55 53.95L134.65 54.05V54.15L134.75 54.35L134.85 54.45V54.55V54.65L134.95 54.75V54.85L135.05 54.95L135.15 55.05H135.25H135.35H135.45L135.55 54.95H135.65L135.75 55.05L135.85 55.15V55.25L135.75 55.35V55.45L135.65 55.55V55.65L135.55 55.75L135.35 55.85L135.15 55.95H135.05L134.95 56.05L134.85 55.95H134.75H134.65V55.85H134.55V55.75H134.45V55.85V55.95V56.05L134.55 56.35V56.45L134.65 56.55H134.75H134.85L134.95 56.65L135.05 56.55H135.15H135.35H135.45V56.65V56.75L135.35 56.85H135.25H135.15H134.95H134.85H134.65H134.55L134.45 56.75H134.35H134.25V56.85L134.15 56.95V57.05H134.25V57.15L134.15 57.25H134.25H134.35V57.35H134.45V57.45H134.55V57.55L134.45 57.75L134.35 57.95L134.25 58.05L134.15 58.25H134.05H133.95L133.85 58.35V58.45L133.75 58.55L133.65 58.65V58.75H133.55V58.95V59.05L133.45 59.15V59.25V59.35V59.45L133.55 59.55V59.65V59.75H133.65L133.85 59.65L134.25 59.95L134.85 59.85H134.95V60.15V60.75V60.95V61.55V62.65H135.05L135.35 62.85L136.05 63.45L136.15 63.55L136.25 63.75L136.45 64.05L136.65 64.25L136.85 64.55L137.55 64.65L138.05 64.75L138.35 64.85L138.05 64.95H137.95V65.05L137.75 65.45L137.65 65.55V65.65L136.95 65.45H136.75H136.65H136.55L135.85 65.65H135.65H135.55L135.15 65.55L135.25 65.85V65.95L135.15 66.05H135.05V66.15V66.55V66.85L135.45 66.95V67.05V67.15V67.25L135.55 67.35V67.75L135.95 67.95L136.35 68.15L136.45 68.25L136.55 68.35V68.75V68.95L136.65 69.05V69.15L136.75 69.25L136.85 69.35V69.45L136.95 69.55V69.65V70.05L136.85 70.35V70.65V70.85L136.25 70.75H136.15L135.95 71.25V71.35L135.55 71.45V71.55L135.25 71.75L135.05 71.85H134.95L134.85 71.95H134.75H134.65V71.85H134.55L134.65 71.75L134.75 71.65L134.65 71.55H134.45H134.35V71.65H134.25H134.15H134.05V71.75L133.95 71.95L133.85 72.25L133.75 72.45V72.75V72.85V73.05V73.15V73.25L133.95 73.95V74.05L133.45 74.55L133.35 75.05L133.15 75.65V75.85L132.85 77.05V77.15L133.75 77.95L133.95 78.05V78.15L133.85 78.25L133.55 78.95L133.35 79.15H133.15V79.35H133.45L133.75 79.45H133.95L134.05 79.85L133.85 79.95V80.45V80.75V80.85H133.75V80.95H133.65H133.55H133.45H133.35H133.25L133.15 80.85L133.05 80.75V80.55H132.95L132.85 80.35H132.75L132.65 80.25H132.55H132.45H132.35H132.25H132.15H132.05V80.35L131.95 80.25H131.85H131.75L131.65 80.45L131.85 80.55L131.95 80.65H132.05H132.15H132.25V80.75H132.45L132.55 80.85H132.65V80.95L132.75 81.05L132.65 81.15L132.55 81.05L132.45 81.25L132.65 81.45L132.55 81.55V81.65L132.75 81.85L132.55 82.25L132.35 82.15H132.25L132.15 82.05H131.95L131.85 81.85L131.65 82.05H131.55V81.95H131.45V81.85V81.75V81.65H131.35V81.75V81.95M131.35 81.95V82.05M131.35 81.95H131.25H130.95H130.85L130.75 81.85H130.55H130.45H130.35H130.25H130.15V81.75V81.65V81.45V81.35H130.25L130.35 81.05L130.25 80.95L130.15 80.85L130.05 80.75H129.95H129.85L129.75 80.65L129.65 80.55H129.45L129.35 80.35L129.15 80.15L129.25 80.05V79.95H129.15V79.85L129.35 79.75L129.45 79.85L129.75 79.75H129.85L129.75 79.65L129.95 79.45L130.05 79.15L129.55 78.65L129.45 78.55L129.35 78.65V78.75V78.85V78.95V79.05L129.15 79.15V79.35L128.35 79.65L127.95 79.75L128.15 80.25L128.35 80.65V80.75L128.45 80.95L128.75 81.55V81.65H128.85V81.85L129.15 81.95L129.25 82.05L129.15 82.15V82.25L128.95 82.65V83.25V83.45L129.05 83.85L129.15 83.95H129.25V84.05H129.35V84.15H129.45V84.05H129.55L129.35 83.95L129.55 83.75L129.65 83.95H129.75V83.85H129.85H129.95L130.05 83.75H130.15V83.65H130.45L130.35 83.75L130.95 84.25L130.65 84.75V84.85V84.95V85.05L130.75 85.15V85.25H130.85V85.35H130.95V85.45V85.55H131.05V85.65H131.15V85.75L130.85 86.05V86.35L130.95 86.45H131.05L130.65 86.55V86.65L130.75 86.75V86.85L130.65 86.95L130.55 87.05H130.45H130.35V86.95V86.85L130.15 87.05L129.95 87.25H129.65V87.15H129.55L129.45 87.25V87.35L129.75 87.55V87.65V87.75H129.85V87.65H129.95V87.55H130.05H130.15H130.25L130.15 87.65H130.25V87.75H130.15V87.85H130.05H129.95H129.85V87.95L129.75 87.85H129.65L129.55 87.95H129.45L129.35 87.85L129.25 88.25V88.35L129.35 88.45H129.45H129.55H129.65H129.75L129.85 88.35H129.95L130.25 88.25L130.45 88.15L130.35 88.25V88.35V88.45H130.25V88.55M130.25 88.55L130.15 88.45V88.55H130.25ZM130.25 88.55L130.35 88.65L130.45 88.55H130.55V88.45V88.35H130.65V88.25H130.75V88.35V88.45H130.85L130.95 88.35H131.05V88.45L130.75 88.55H130.85V88.65L130.95 88.75H130.85H130.65V88.85M130.65 88.85H130.55H130.45L130.55 88.95L130.65 88.85ZM130.65 88.85H130.75H130.85V89.45V89.55H130.45V89.75V89.85L130.55 90.05L130.05 90.25L130.15 90.75L130.25 90.95L130.35 91.05H130.45L130.65 91.15L130.45 91.35L129.55 92.25L129.25 92.65L128.85 93.05L128.65 93.35L128.85 93.75L129.15 93.95V94.65H129.25V94.85V95.15H128.65V95.55H128.35L127.75 95.65H127.45L127.25 95.75H127.05H126.85H126.65L126.55 95.85L126.05 96.55L126.35 96.75L126.45 96.85L126.35 97.05L125.95 97.55L125.45 98.25H125.35L125.15 98.55L125.75 99.15L125.85 99.35L126.25 99.65L126.35 99.75L126.65 100.05H126.75V100.15L126.55 100.55L125.95 101.55L125.65 102.05L125.55 102.35L125.35 102.65L125.25 102.75L124.65 103.65L124.55 103.85L124.25 104.45L124.55 104.55V104.65L124.85 104.85L125.25 104.55H125.55L126.35 104.65L126.95 104.75L127.65 104.85L128.85 105.05H129.25L129.05 105.85L129.25 105.95H129.85L130.25 106.05H130.65V106.15L130.75 106.55L130.55 107.05L130.15 107.65L130.75 108.15L131.35 108.45L131.45 108.55L131.05 109.15V109.25L130.85 109.05L130.65 109.45L130.35 109.85L130.25 109.75L130.15 109.85V109.95V110.05L130.05 110.15V110.25H130.15L130.05 110.35V110.45L129.95 110.55L129.75 110.65V110.75L129.65 111.05L129.55 111.25L129.45 111.35V111.45H129.35V111.55V111.65V111.75H129.25V111.85V111.95H129.15V112.05L129.05 112.15L129.25 112.25L129.45 112.35H129.55V112.45L129.65 112.55H129.75V112.65H129.85H129.95H130.05H130.15V112.75H130.25V112.85H130.35H130.45L130.55 112.95H130.65H130.75V113.05H130.85H130.95H131.05V113.15H131.15M131.15 113.15V113.25M131.15 113.15V113.05V112.85V112.65V112.55L131.05 112.25L131.35 112.15L132.05 111.65L132.25 111.55L132.65 111.35L132.75 111.25H132.85L133.15 111.05V111.15L133.25 111.25L133.35 111.35L133.45 111.45L133.55 111.55L133.45 111.65V111.75H133.35L133.25 111.85L133.35 111.95V112.05V112.15L133.55 112.65L133.75 113.05L134.05 113.75V113.95L134.15 114.25V114.35L134.05 114.75L134.15 114.65H134.25H134.45H134.65L135.25 114.75L135.65 114.85H135.85L136.35 114.95H136.45H136.55L136.65 114.85V114.75V114.65H136.75H136.85H136.95H137.05H137.15L137.25 114.75V114.85V115.75V116.35V116.85L137.05 117.15V117.75V118.05L137.35 118.55L137.55 119.05L137.65 119.25L137.75 119.45V119.55H137.65H137.55V119.65L137.35 119.75L137.65 120.15H137.55V120.25H137.45V120.15H137.35H137.25V120.05V119.95H137.15V120.05V120.15L137.25 120.25V120.35H137.15H137.05V120.25H136.95H136.85V120.35H136.75H136.65V120.25V120.15M136.65 120.15H136.55M136.65 120.15V120.05H136.55L136.45 120.15V120.25L136.25 120.05L136.15 120.15L136.05 120.25L135.95 120.35L135.85 120.45V120.55H135.75V120.65V120.75L135.65 120.85V120.95V121.05V121.15V121.25H135.75V121.35V121.45V121.55V121.65H135.85H135.95L135.85 121.75H135.95L136.05 121.85H135.95V121.95M135.95 121.95V122.05M135.95 121.95H136.05V122.05V122.15V122.25H136.15M136.15 122.25H136.25M136.15 122.25L135.95 122.35L135.85 123.05V123.15V123.25L135.75 123.35V123.55H135.65L135.95 123.65H136.45L136.55 123.75L136.45 123.85V123.95H136.35V124.05H136.25V124.15H136.15V124.05H136.05V124.15H135.95V124.25H135.85V124.35H135.75V124.45V124.55L135.65 124.75L135.55 124.95V125.05V125.15L135.35 125.25L135.25 125.35H135.15H135.05H134.95V125.45V125.55V125.65V125.75V125.85H135.05V125.95H135.15H135.25V126.05V126.15V126.25H135.35V126.35V126.45H135.45H135.55V126.75V127.05L135.45 127.25V127.35V127.45V127.55H135.55L135.65 127.65L135.45 128.25L135.15 128.15H135.05H134.95H134.85L135.15 128.75L135.45 129.55L135.75 129.95L136.15 130.65L136.35 131.15L136.55 131.55H136.65L136.75 131.75V131.85H137.05H137.55H137.65V131.95L137.75 132.15L137.85 132.55V132.75H138.05L138.75 132.55L138.85 132.65V132.75V132.85L139.05 132.75L139.25 133.05L139.05 133.15H138.95L138.65 133.25H138.55L138.35 133.35H138.25L137.95 133.45V133.85L137.75 133.95H137.65V133.85H137.55H137.45H137.35H137.25H137.15H137.05H136.95H136.85V133.95L136.75 134.05H136.65H136.55H136.45H136.35V134.15H136.25H136.15V134.25H136.05H135.95H135.85V134.35H135.65H135.55H135.45L135.35 134.45H135.25L135.15 134.35V134.45H135.05V134.55V134.65V134.75L134.95 134.85H134.85H134.75H134.65H134.55L134.45 134.75H134.35H134.25L134.15 134.65L134.05 134.75L134.15 134.95L134.25 135.15L134.45 135.45V135.55L134.55 135.65V135.75L134.65 135.85L134.75 135.95V136.05V136.15V136.55V136.75V137.05L134.65 137.45L134.55 138.05V138.15V138.45V138.75V139.15V139.25L134.45 139.35L134.15 139.55V139.65H134.05H133.95H133.85H133.75L133.65 139.55H133.55H133.45L133.35 139.65H133.25V139.75H133.15H133.05V139.85V139.95V140.05L133.15 140.15V140.25V140.35H133.25V140.45V140.55L133.05 141.25L132.95 141.65L132.85 142.35L132.75 142.45V142.65V142.75H132.65L132.55 142.95V143.05L132.45 143.15L132.35 143.35L132.65 143.45L133.05 143.55H133.15H133.25L133.35 143.65V143.75V143.85V143.95L133.25 144.05V144.15H133.15V144.25L133.05 144.15L132.45 144.05L132.25 144.25L132.15 144.35L131.95 144.55L131.85 144.75V144.85L131.95 144.95L132.05 145.15L131.95 145.25L131.85 145.35L131.65 145.55L131.45 145.75L131.25 146.05L131.15 146.25L131.05 146.35V146.45L130.95 146.75V146.95H130.85V147.05L130.75 147.15L130.55 147.35L130.25 147.55L130.15 147.65V147.75H130.05V147.85H129.95V147.95L129.75 148.15H129.65V148.25L129.75 148.35L129.85 148.55L130.25 149.35V149.45V149.75L130.45 149.95L130.35 150.05H130.25H130.15L130.05 150.15V150.25L129.85 150.55L129.65 150.85L129.45 151.15L129.35 151.35L129.15 151.25L129.05 151.35H128.95H128.85H128.75V151.25H128.65H128.55H128.45V151.35H128.35V151.45V151.55V151.65H128.25V151.75V151.85H128.35V151.95H128.45V152.05L128.35 152.15L128.15 152.55L127.95 152.85L127.85 153.05L127.95 153.85L127.75 153.75L127.65 153.65L127.35 153.55H127.25L127.05 153.45L126.65 153.25L126.55 153.55H126.45H126.15H126.05V153.45H125.95H125.75L125.65 153.55L125.85 153.95V154.05L126.05 154.35V154.45L125.95 154.65L125.65 154.75H125.55V154.85V154.95V155.05H125.45V155.15L125.55 155.25V155.35H125.65V155.45V155.55H125.55V155.65L125.45 155.75V155.85H125.35L125.05 156.05L124.85 155.95L124.75 155.85H124.65L124.55 155.75L124.45 155.85V155.95L124.05 156.25L123.75 156.45V156.55V156.65H123.85H123.95V156.75V156.85H124.05V156.95V157.05M124.05 157.05H124.15V157.15L124.05 157.05ZM124.05 157.05H123.95H123.85V157.15H123.75H123.65V157.05L123.15 157.15V157.45L122.85 157.55H122.75V157.65V157.95L122.85 158.15V158.35V158.45V158.55V158.65H122.95V158.75V158.85H122.85V158.95H122.75H122.05L121.95 159.05L121.55 159.35L120.85 159.85L120.35 160.35H120.25L119.55 160.95L118.95 161.45H118.35H117.65H117.55L117.25 161.55L117.15 161.65H117.05H116.95H116.85V161.75H116.75H116.55V161.85V161.95H116.45H116.35L116.45 162.05V162.15H116.55L116.65 162.25V162.35H116.55H116.45V162.45H116.35L116.55 162.55L116.75 162.75H116.85L117.15 162.85L117.05 162.95L116.95 163.15L116.85 163.35L116.75 163.55V163.65L115.55 163.15H115.45V163.25H115.35L115.25 163.45H115.15H115.05V163.35H114.95L114.85 163.15L114.75 162.95V162.85H114.65L114.55 162.75V162.65H114.45L114.35 162.75L114.25 163.05V163.25H114.15L114.05 163.05V162.95H114.15V162.85V162.75H114.05L113.75 162.85H113.65L113.55 162.95L113.35 162.85H112.75H112.25H112.15H112.05H111.95L111.45 162.75H110.85H110.75H110.55V161.95V161.75V161.85H110.45H110.35L110.15 161.95H109.65H109.45L109.35 162.05H109.25H109.15H109.05H108.75H108.65V162.45L108.75 162.85H108.65H108.55H108.15H108.05H107.65L106.85 162.95H106.45H106.35H106.25H106.15V162.85L106.05 162.75H105.95H105.85H105.75V162.65H105.65H105.55H105.45H105.35H105.15H105.05V162.75H104.95L104.85 162.85V162.95L104.75 163.05H104.55H104.45L104.35 163.15L104.15 163.05V163.15L104.05 163.25L103.75 163.45V163.55H103.65L103.35 163.75H103.25H103.15V163.65L102.95 163.45L102.45 162.65L102.15 162.45L101.95 162.35L101.65 162.25V162.05L101.25 161.95V161.85V161.65H101.15V161.55V161.45H101.25V161.35H101.55V161.25V160.35V160.25L101.45 160.05L101.35 159.95H101.45L101.55 160.05L101.65 159.85L101.55 159.75V159.65H101.65V159.55V159.45L101.35 159.65L101.15 159.35L100.75 159.65H100.35H100.05L99.25 159.55L98.65 159.25L97.95 158.95L96.95 158.45L96.75 158.85L95.35 158.25V158.15V158.05L95.25 157.95L95.15 157.45V157.35L94.55 157.25H94.05H93.85V157.15H93.75V157.25H93.65V157.35H93.55H93.45M93.45 157.35V157.25M93.45 157.35H93.35H93.25V157.45H93.15H93.05H92.95V157.55H92.85V157.65L92.65 157.95V158.05V158.15L92.85 158.45L93.05 158.95V159.05L93.15 159.15L92.25 159.25H92.15L91.95 159.65L91.65 159.55L91.55 159.95L91.45 160.75L91.35 161.05L90.75 160.95V161.45H89.55H89.45L89.55 161.75V161.95L89.85 162.05V162.15V162.25L90.05 162.35V162.55L89.85 162.65L89.75 162.75H89.65L89.55 163.15V163.25L90.05 163.05H90.15L90.25 163.15V163.25L90.05 163.35L89.55 163.65L89.45 163.55L88.75 163.35V163.25H88.85V163.15L88.65 163.05L88.55 163.15L88.45 163.25L88.35 163.35H88.25L88.15 163.25H88.05V163.15V163.05H87.95V162.95H87.85V162.85H87.75V162.75H87.65H87.55L87.05 162.85L86.15 162.95L85.65 163.05L85.15 163.15L84.85 163.25L84.15 163.45H84.05L83.95 163.55V163.45L83.85 163.15V163.05L84.25 162.65L84.85 161.95L84.55 161.25H84.45H84.35H83.85H83.75H83.65L83.35 161.15L83.15 161.05L82.75 160.95H82.65L82.05 161.15L81.95 161.45L81.65 161.65H81.55L81.35 161.85L81.05 161.65L80.55 161.45L80.95 161.05L80.85 160.75L80.95 160.55L80.55 160.05L80.95 159.65L81.85 158.45L81.55 158.15V158.05L80.95 158.55L80.85 158.65L80.65 158.85H80.55L80.25 159.15L80.15 159.25L79.55 159.65L79.15 159.35L79.05 159.25V158.75H78.95V158.65V158.55L78.85 158.35V158.25L78.75 157.75V157.15H78.65V157.05L78.15 156.65V156.55L78.05 156.15V155.75V155.55L77.95 155.15V154.95V154.85L77.85 154.75L77.35 154.65L76.45 154.45L75.65 154.25L75.35 154.15V154.05L75.25 153.55L75.35 153.45V153.35L75.45 153.25L75.55 153.15H75.65V153.05V152.95H75.55L75.45 153.05H75.35V152.95V152.85L75.25 152.75V152.85L75.15 152.95L75.05 152.85V152.75H74.95V152.65H74.85L74.95 152.55V152.45H75.05H75.15H75.25H75.35L75.45 152.35H75.55V152.45V152.65H75.65V152.75L75.85 152.85L75.95 152.75V152.65V152.55H76.05V152.45L75.95 152.35V152.15V152.05V151.95V151.85L76.05 151.75V151.85L76.35 151.95V151.85H76.45L76.55 151.75H76.65L76.75 151.85L76.85 151.75V151.85L76.95 151.95V152.35L77.05 152.45V152.55L77.35 152.45L79.05 151.85L79.95 150.55L79.35 149.65L79.85 149.15V149.05V148.85V148.55L79.95 148.25H79.85L79.05 148.15L77.25 148.25H76.35L75.55 148.35H75.45L74.45 148.05V147.95L74.35 147.55L74.25 147.35L74.05 147.05V146.95L73.95 146.75V146.65V146.55V146.45V146.35H73.85V146.25V146.15H73.75V146.05V145.95V145.85L73.65 145.75V145.65H73.55V145.55H73.45V145.45L73.25 145.35V145.25L73.15 145.15H73.05V145.05L72.95 144.95V144.85L72.85 144.65V144.45V144.25L72.75 144.05L72.65 143.95L72.55 143.75L72.35 143.65L71.95 143.45L71.55 143.25L71.05 142.85L70.85 142.95L70.25 142.05H70.05L69.65 141.05L68.95 141.25V141.35L67.15 141.65V141.75V141.85L67.25 142.45V143.05H67.15H67.05L66.95 143.15V143.05H66.85H66.75H66.65H66.55H66.45H66.35H66.25H66.15H66.05H65.95H65.85H65.75V143.15L65.85 143.75L65.95 143.85V144.35L66.05 144.65V145.25H65.95H65.85H65.75L65.65 145.35H65.55H65.45L65.55 145.75L65.65 146.15L65.75 146.75H65.55H65.45H65.25H64.55H63.65H63.55H62.95L62.35 146.65L61.65 146.55H60.85L60.55 146.85L60.45 147.05L60.25 147.45L60.15 147.55L60.05 147.65L59.75 147.45L59.65 147.25H59.55L59.15 147.35H58.85V148.85V148.95V149.05L58.65 149.25V149.45L58.55 149.55L58.05 149.85H57.85L57.65 149.75H57.55H57.45H57.35L56.95 149.65H56.75L56.45 149.55H56.25L55.85 149.45L55.55 149.35H55.05V149.65L54.95 149.75L54.75 150.05L54.45 149.95V149.85H54.35L54.25 149.95H54.15V149.85H54.05H53.95H53.85H53.75V149.75H53.65L53.25 149.25L52.95 149.35L52.85 149.15H52.45V149.75H52.35L52.25 149.85H52.05V149.65L51.75 149.75H51.65H51.55H51.45L51.15 149.65V149.85L50.45 150.25L49.85 150.45L49.25 150.65L49.15 150.95L49.05 151.05H48.75V151.25V151.45L48.05 151.35L47.45 151.25V151.05V150.95V150.85H47.55L47.45 150.75L47.15 150.25V150.15L46.85 150.05L46.55 149.75L46.45 149.65H46.35H46.25L46.05 149.55H45.85L45.65 149.45V149.35H45.45H45.35H45.25V149.25H45.15L45.05 149.15V149.05L44.95 148.85L44.65 149.05L44.35 149.15L44.25 149.35L43.95 149.95L43.85 150.15L43.75 150.25L43.55 150.55L43.45 150.65L43.35 150.75L42.95 151.45L42.85 151.35L42.75 151.15V151.05V150.95L42.55 150.45L42.45 149.85V149.55V149.35L42.25 149.25H42.15L41.85 149.15H41.75L41.85 149.05L41.35 148.95H41.25L41.15 148.85H41.05L40.95 148.75L40.85 148.85H40.75V148.75H40.65H40.55V148.65H40.45H40.35H40.25V148.55H40.15M40.15 148.55V148.65M40.15 148.55H40.05H39.95L39.75 148.45H39.65H39.55L39.45 148.35L39.35 148.25H39.25V148.15H39.15V148.05V147.95V147.85H39.25V147.75L39.35 147.65V147.55V147.45V147.35V147.15V147.05V146.95H39.25L38.95 147.05L38.75 146.65V146.55V146.45V146.15H38.65H38.55H38.45H38.35H38.25V146.05L37.75 145.95H37.05V145.75V145.65H36.85H36.65H36.55H35.75V144.45H35.15L34.65 144.35V143.95V143.75V142.95H35.35H35.75H36.25L36.65 143.05H37.45L37.75 142.55V142.45L37.55 142.35L37.25 141.95L37.75 141.45L37.65 141.35L37.25 141.05L36.85 140.75L36.55 140.55L36.35 139.95L36.45 139.25L36.55 139.05L37.05 138.55L37.55 138.15L37.45 138.05V137.95V137.85V137.55L37.35 136.85L37.25 136.55V136.35V136.25L37.35 135.95L37.25 135.85H37.15H37.05H36.65V135.65V135.55V135.45V135.05L36.45 135.15L35.95 135.35H35.85L35.95 134.75L35.85 133.65H34.55V133.55V133.45L34.65 133.15V132.95L34.45 132.85L34.15 132.55H33.85L33.75 132.35L33.65 132.25V132.15L33.45 131.85H33.15H32.95H32.85L32.75 131.75H32.65L32.45 131.65V131.05V130.65V130.55L32.55 130.15L32.65 129.85V129.65L32.25 129.55L31.75 129.35H31.45L31.25 129.25H31.15H30.85L30.55 129.15H30.25H30.15H30.05L29.85 129.95V130.25L29.75 130.45H29.45H29.15H29.05L28.75 130.55H28.55H28.35H28.25L28.05 130.65H27.95H27.85H27.75L27.65 130.55H27.55H27.45H27.15H27.05L26.95 130.45V130.35L25.85 130.55H25.75L25.65 130.65H25.55H25.45H25.05V130.75L24.85 130.65H24.45L23.95 130.55L23.85 130.85L23.75 131.05H23.65L23.55 130.95H23.45H23.35H23.15H23.05H22.95V130.85V130.75V130.65V130.55H22.45L22.25 130.45H22.15H22.05H21.95H21.55H21.45L21.15 130.35H21.05H20.95H20.85V130.25V130.15V130.05V129.95V129.85L20.75 129.75L20.25 130.05L20.05 130.15V130.25V130.55V130.85L19.95 131.15V131.25V131.35V131.75V131.85L19.45 131.95L18.15 132.05H17.95L17.85 131.75L17.55 131.65V131.05L18.25 131.25L18.35 131.15L18.15 131.05V130.95V130.85L18.25 130.75V130.65V130.55H18.35L18.45 130.45L18.55 130.35V130.25H18.65L18.75 130.05H18.85L18.95 129.95V129.85L19.15 129.95L19.85 129.45H19.95L19.75 129.15L19.45 129.25L19.25 129.35L19.05 129.55H18.85L18.75 129.65V129.75H18.65H18.55H18.45V129.85H18.35L18.45 129.95V130.05V130.15L18.35 130.25H18.25H18.15V130.35V130.45L18.05 130.55V130.65H17.85L17.65 130.55H17.55H17.45V130.45H17.35H17.25L17.15 130.35L17.05 130.25H16.95V130.15H16.85H16.75L16.65 130.05H16.55H16.45H16.35H16.25H16.15L16.05 129.95H15.95H15.85L15.75 129.85L15.55 129.75H15.35L15.15 129.65V129.55H15.05V129.45H14.95L14.65 129.35V129.55V129.65L14.55 129.75V129.85V129.95H14.45V129.85H14.35H14.25H14.15H14.05V129.75V129.65H13.95V129.55H13.85L13.75 129.65H13.65V129.75H13.55H13.45H13.35V129.85H13.25H13.15M13.15 129.85V129.95M13.15 129.85H13.05V129.75M13.05 129.75H13.15M13.05 129.75V129.65H13.15V129.55H13.05V129.45V129.35V129.25H13.15V129.15H13.05V129.05M13.05 129.05H12.95V128.95H13.05M13.05 129.05V128.95M13.05 129.05L13.15 128.95H13.05M13.05 128.95V128.85H13.15L13.25 128.75H13.35H13.45V128.65V128.55L13.55 128.45V128.35H13.65L13.55 128.25H13.45V128.15H13.35V128.05H13.25L13.35 127.95L13.45 127.85V127.75V127.65H13.35V127.55V127.45L13.45 127.35V127.25L13.35 127.15V127.05H13.25V126.95H13.15H13.05H12.95L12.85 126.65L12.75 126.25H13.05L13.35 126.05L13.55 126.35L13.65 126.45L13.75 126.55V126.65H13.85V126.75H13.95H14.05H14.15H14.25H14.35L14.55 126.65V126.55V126.45H14.65V126.35H14.75V126.25V126.15H14.65V126.05V125.95V125.85V125.75H14.55H14.45V125.65V125.55L14.55 125.45H14.65H14.75H14.85L14.95 125.35V125.25H15.05V125.15V125.05V124.95H14.95V124.85V124.75L14.85 124.65V124.55V124.45V124.35V124.25V124.15M14.85 124.15H14.95M14.85 124.15V124.05V123.95H14.75V123.85V123.75V123.65V123.55V123.45H14.85V123.35H14.95V123.25H15.05V123.15L14.95 122.55L14.85 122.45L14.75 122.35V122.25V122.15H14.65V122.05L14.55 121.85L14.75 121.65H14.65L14.55 121.55H14.45L14.35 121.45L14.25 121.35L13.95 121.25L13.85 121.15H13.75L13.65 121.05L13.55 120.95L13.45 120.85H13.35L12.95 120.65V120.35V120.15V120.05H12.85L12.75 119.95L12.55 120.05H12.45H12.25V119.95H12.15L12.05 119.85H11.95V119.75L11.85 119.65L10.95 119.55V119.35L10.35 119.45L10.15 118.85L10.05 118.65L9.95001 118.55V118.45V118.35L9.85001 118.25V118.15V118.05H9.75V117.95V117.85V117.75V117.55H9.64999L9.54999 117.25V117.05L9.45001 116.95V116.85H9.54999V116.75V116.65L9.45001 116.55L9.25 116.05L9.04999 115.35L8.35001 114.55L8.45001 113.95V113.65V113.55V113.45H8.54999V113.25V113.15V113.05L8.64999 112.95V112.85H8.54999V112.75V112.65L8.45001 112.35L8.25 111.75V111.65V111.45L7.35001 110.95V110.85H7.25H7.04999H6.54999H6.35001H6.25V110.65V110.35V110.25L6.14999 109.65V109.45L4.45001 109.55L1.04999 109.85L1.14999 109.55V109.35V109.05L1.04999 108.55L0.850006 108.25L0.75 107.95V107.75V107.65V107.55L0.850006 107.35L1.14999 107.05L1.25 106.85L1.35001 106.65L1.45001 106.45L1.54999 106.15V105.95V105.75V105.65V105.55L1.45001 105.45L1.04999 105.15L0.75 104.85L0.549988 104.65L0.350006 104.45L0.25 104.35V104.25L0.350006 104.05L0.549988 103.85L0.850006 103.65L1.04999 103.55H1.25H1.54999L1.64999 103.45H1.75L1.85001 103.25V103.05L1.95001 102.75L1.85001 102.55L1.75 102.25L1.64999 102.05L1.45001 101.85L1.14999 101.55L1.04999 101.35L0.850006 101.05L0.75 100.85V100.65L0.649994 100.35L0.549988 100.15V99.95V99.35V98.55L0.649994 98.35L0.75 97.95L0.850006 97.85L0.950012 97.65L1.14999 97.45H1.25H1.35001H1.54999H1.64999L1.75 97.55L1.95001 97.65L2.14999 97.75H2.35001H2.54999L2.75 97.65H2.85001L2.95001 97.55V97.45L3.04999 97.35V97.15L2.95001 97.05V96.95L2.75 96.85H2.64999H2.45001L2.35001 96.95H2.14999H2.04999L1.95001 96.85V96.75H1.85001V96.65V96.55V96.45H1.95001V96.35L2.04999 96.25L2.14999 96.15L2.35001 96.05L2.45001 95.95L2.54999 95.85V95.75V95.65V95.55V95.45V95.35L2.45001 95.25L2.35001 95.05V94.95L2.25 94.85V94.65L2.14999 94.55L2.04999 94.45L1.95001 94.35L1.75 94.25L1.54999 94.05H1.45001V93.95H1.35001V93.85V93.75V93.65V93.45V93.35V93.25L1.45001 93.15L1.54999 93.05V92.95H1.64999H1.75L1.85001 92.85H1.95001V92.75H2.14999L2.25 92.65H2.35001H2.45001H2.54999L2.75 92.75L2.85001 92.85L2.95001 92.95L3.04999 93.05H3.14999L3.35001 93.15H3.45001H3.54999H3.75H3.85001L3.95001 93.05V92.95L4.04999 92.85V92.75V92.65V92.55V92.45V92.35L3.95001 92.25V92.15V92.05V91.95V91.85L3.85001 91.75L3.95001 90.15L4.04999 89.95L4.95001 88.35V88.15L5.04999 87.25L6.64999 86.05L7.85001 84.75H7.95001H8.14999H8.25L8.35001 84.65H8.45001H8.54999V84.55H8.64999V84.45H8.75V84.35V84.25L8.85001 84.15V84.05V83.95L8.75 83.85V83.75H8.64999L8.54999 83.55L8.45001 83.45L8.35001 83.35L8.25 83.25L8.14999 83.15L8.04999 83.05H7.95001V82.95L7.85001 82.85V82.75L7.75 82.65V82.55V82.45H7.85001V82.35V82.25L8.35001 82.05V81.85H8.45001L8.54999 81.75H8.64999V81.65H8.75V81.55V81.45H8.85001V81.35L8.75 81.25V81.15V81.05L8.54999 80.75L8.45001 80.55L8.35001 80.35V80.25L8.25 80.15V80.05L8.14999 79.95L7.95001 79.75V79.65L7.85001 79.55V79.45V79.35H7.75V79.25L7.64999 79.05V78.95V78.85V78.75L7.54999 78.65V78.55L7.45001 78.45V78.35V78.25L7.35001 78.05L7.25 77.95V77.85L7.14999 77.75V77.65V77.55V77.45V77.35V77.25V77.15H7.04999V77.05H6.95001H6.85001H6.75H6.64999L6.54999 77.15H6.45001V77.25L6.35001 77.35L6.25 77.45H5.85001L5.45001 77.25L5.25 76.25L5.35001 75.25L5.64999 74.85L5.75 74.75H5.85001H5.95001L6.04999 74.65L6.14999 74.55H6.25L6.35001 74.45L7.04999 74.65V74.05L6.45001 73.75L5.95001 73.45L5.54999 72.85L5.45001 72.65V72.55V72.45V72.15V72.05V71.95V71.85V71.75V71.65V71.55L5.54999 71.15L5.35001 70.55L4.85001 70.05L4.54999 69.75L4.25 69.55L4.64999 69.15L4.95001 68.85L5.25 67.95L4.45001 67.55L4.25 67.45L3.14999 67.15V67.05L3.04999 66.95L2.95001 66.85L2.85001 66.75L2.75 66.65L2.64999 66.55V66.45L2.54999 66.35V66.25H2.45001V66.15V66.05V65.95V65.85V65.75V65.65V65.55L2.64999 65.35L2.85001 65.25L3.25 65.15V64.65L3.14999 64.55L2.75 64.35L1.85001 63.55V62.95V62.85H1.95001L2.04999 62.95H2.14999L2.25 63.05H2.35001H2.45001H2.54999L2.64999 62.95H2.75V62.85L2.85001 62.75V62.65V62.55V62.45V62.35V62.25H2.75V62.15H2.64999L3.25 61.55L3.54999 61.45L3.95001 61.35L3.75 60.65V60.55L3.54999 60.25L3.85001 59.95L4.04999 59.65H4.14999L4.25 59.75H4.35001H4.45001H4.54999H4.64999H4.75L4.85001 59.65H4.95001L5.04999 59.55V59.45L5.14999 59.35V59.25V59.15V59.05L5.04999 58.95V58.85L4.95001 58.75V58.65L4.85001 58.55L4.75 58.45V58.35V58.25V58.15V58.05V57.95H4.85001V57.85L4.95001 57.75V57.65V57.55V57.45V57.35V57.25V57.15H5.04999V57.05V56.95V56.85L4.95001 56.75V56.65V56.55L4.85001 56.45V56.35V56.25L4.54999 55.15L5.25 54.95L6.75 54.85L7.35001 54.65L7.64999 53.85L7.75 52.85L7.85001 51.85L8.45001 51.25V51.15V51.05L8.54999 50.95V50.85L8.64999 50.75V50.65V50.55V50.45V50.35V50.25V50.15V50.05L8.54999 49.95L8.45001 49.85H8.35001L8.25 49.75H8.14999H8.04999L7.95001 49.85H7.85001L7.75 49.95H7.64999V50.05H7.54999V50.15H7.45001L7.35001 50.25H7.25L7.04999 50.15L7.64999 49.35L8.75 48.65L9.25 48.15L9.54999 47.85L9.64999 47.75V47.45V47.25V46.45L9.25 45.65V45.45V45.35H9.35001V45.25H9.45001L9.54999 45.15H9.64999H9.75H9.85001H9.95001V45.05H10.05H10.15H10.25H10.35V44.95H10.45L10.55 44.85H10.65V44.75L10.75 44.65V44.55V44.45H10.85V44.35V44.15V44.05L10.95 43.85V43.75V43.55L11.05 43.35V43.15V43.05L11.15 42.85V42.75L11.25 42.55L11.55 42.05L11.85 41.45L12.85 40.95L13.05 40.25V39.45L13.15 39.25V39.15H13.25V39.05L13.35 38.95L13.65 38.85L15.15 38.95L15.35 38.85L15.55 38.95H15.65H15.75H15.85L15.95 39.05H16.05V38.95H16.15H16.25V38.85H16.35V38.75V38.65V38.55V38.45V38.35L16.45 38.25V38.15L16.55 38.05L16.65 37.95L16.75 37.85L16.85 37.75H16.95L17.05 37.65V37.55L17.15 37.45H17.25L17.35 37.35V37.25H17.45V37.15V37.05V36.95V36.85L17.35 36.75V36.65L17.25 36.55V36.45L17.15 36.35V36.25H17.05L16.95 36.05L16.85 35.95L16.75 35.75V35.65L16.65 35.55V35.45L17.75 35.05L18.45 34.55L19.15 34.05L19.65 33.45L19.75 33.35H19.85H19.95H20.05H20.15H20.25V33.25H20.35H20.45H20.55L20.65 33.15H20.75V33.05V32.95V32.85V32.75V32.65V32.55H20.65L20.55 32.45V32.35L20.45 32.25V32.15V32.05V31.95V31.85H20.55V31.75H20.65H20.75H20.85L21.05 31.85H21.15H21.25H21.35H21.45H21.55H21.65V31.75H21.75V31.65V31.55V31.45V31.35V31.25H21.65V31.15H21.55H21.45H21.35H21.25H21.15H21.05V31.05H20.95H20.85V30.95L21.05 30.75L21.35 30.65L21.65 30.75L21.95 31.25L23.35 31.15L23.75 30.05L23.25 28.95V28.85L23.35 28.75L23.45 28.65V28.55H23.55V28.45L23.45 28.35V28.25H23.35L23.25 28.15H23.15V28.05L23.05 27.95V27.85L22.95 27.75V27.65V27.55V27.45V27.35V27.25V27.15H23.05V27.05L23.15 26.95H23.25H23.35V26.85H23.45V26.75H23.55V26.55V26.45H23.65V26.35V26.25V26.15V26.05V25.95V25.85H23.55V25.75V25.65H23.45V25.55H23.35L23.25 25.45H23.15L23.05 25.35V25.25H22.95V25.15V25.05V24.95V24.85L24.25 24.45L31.15 24.05L33.05 24.35L34.35 25.05L36.65 27.05L37.85 27.45L38.85 27.05L39.05 27.15H39.15V27.05H39.25L39.75 26.85L40.35 26.65L41.05 26.45L41.25 26.35L41.35 26.15L41.45 26.05L41.65 25.55L41.95 25.05L42.05 24.75L42.15 24.45L42.35 24.15L42.45 23.95V23.85V23.75L42.25 23.65L42.15 23.55L41.95 23.45L42.15 23.35H42.25L42.35 23.25V23.15H42.45V23.05V22.95H42.55V22.85V22.75V22.65V22.55V22.45V22.35V22.25L42.65 22.15L45.55 20.95H50.25L50.65 21.05H50.75H50.85H50.95L59.05 22.65L62.55 22.45H63.45L64.85 22.35L66.55 22.15L67.95 22.05L68.25 22.15L69.55 22.45L70.75 23.55L71.05 24.85V26.35L71.25 27.65L72.15 28.25L73.05 28.05L75.75 26.65L77.45 26.55H77.55H77.65L77.95 26.65V26.75H78.05H78.15H78.25L78.35 26.85H78.45H78.55V26.95L78.65 27.05V27.15H78.75V27.25L78.95 27.35H79.05H79.15V27.45H79.25H79.35V27.55H79.45H79.55L79.65 27.65H79.75H79.85L79.95 27.75H80.05H80.15H80.25H80.35H80.55H80.75H80.95H81.05H81.25V27.85H81.35H81.55V27.65V27.55V27.35V27.25L82.45 26.85L83.45 26.35H83.55L83.85 26.15H83.95L86.35 24.95L86.85 24.75L88.45 23.95L89.35 23.25H89.45V23.15H89.55H89.65M89.65 23.15V23.25M89.65 23.15H89.75H89.85V23.05M89.85 23.05H89.95M89.85 23.05V22.95H89.95V23.05M89.95 23.05H90.05V22.95H90.15V22.85V22.75H90.25V22.65H90.35M90.35 22.65V22.55M90.35 22.65H90.45H90.55V22.55H90.65M90.65 22.55V22.65M90.65 22.55H90.75V22.45H90.85H90.95V22.35H91.05H91.15V22.25V22.15H91.25H91.35V22.05V21.95H91.45V21.85V21.75V21.65H91.55M91.55 21.65H91.65M91.55 21.65V21.55H91.65H91.75V21.45H91.65V21.35M91.65 21.35H91.75V21.25H91.65M91.65 21.35V21.25M91.65 21.25V21.15H91.55V21.05V20.95M91.55 20.95H91.65M91.55 20.95V20.85V20.75H91.65H91.75M91.75 20.75V20.65M91.75 20.75H91.85V20.65V20.55H91.95V20.65H92.05H92.15H92.25H92.35H92.45H92.55H92.65L92.75 20.55V20.45V20.25V20.15V20.05L92.85 19.95V19.85V19.65V19.55V19.45V19.35L92.95 19.45H93.05L93.15 19.55L93.25 19.65H93.35L93.45 19.45V19.35V19.25V19.15H93.55V19.05H93.85H94.35H94.55H94.85H94.95V18.95H95.05V18.85L95.15 18.75L95.25 18.65V18.55H95.35V18.45L95.25 18.25V18.15L95.15 17.95V17.75H95.05H94.75H94.45H94.35H94.25H93.95H93.85H93.75H93.65H93.55H93.45H93.35V17.85V17.95H93.25V18.05V18.15H93.15V18.25H93.05V18.15L93.15 18.05V17.95V17.85H93.25V17.75H93.15L93.25 17.65V17.55M93.25 17.55H93.35M93.25 17.55H93.15V17.45H93.25V17.35M93.25 17.35H93.15M93.25 17.35V17.25M93.25 17.25H93.15L93.25 17.15M93.25 17.25V17.15M93.25 17.25H93.35V17.15H93.25M93.25 17.15V17.05H93.35V16.95V16.85L93.45 16.75M93.45 16.75V16.85M93.45 16.75H93.55V16.85H93.45M93.45 16.75L93.55 16.65V16.55M93.45 16.85V16.95M93.55 16.55V16.45M93.55 16.55H93.65V16.45V16.35H93.75M93.75 16.35V16.45M93.75 16.35H93.85V16.25H93.75V16.35ZM93.75 16.35L93.65 16.25V16.15M93.65 16.15H93.55M93.65 16.15H93.75H93.85V16.05V15.95V15.85V15.75H93.95V15.65H94.05H94.15V15.55H94.25V15.45L94.15 15.15V15.05V14.85V14.75V14.65L94.05 14.55V14.45H93.95L93.65 14.15L93.55 14.05L93.45 13.95V13.85V13.75H93.35V13.65V13.55L93.25 13.35L93.15 13.15V13.05L93.25 12.65L93.75 12.05L94.35 11.75L94.95 11.25L95.05 10.85H95.15H95.25H95.35H95.45H95.55H95.65H95.75H95.85H95.95H96.05V10.75H96.15H96.25V10.65H96.35L96.45 10.55V10.45H96.55L96.65 10.35H96.85V10.25V10.15L96.75 10.05H96.65V9.95V9.85H96.55H96.45V9.75M96.45 9.75H96.55M96.45 9.75H96.35V9.65V9.55V9.45M96.35 9.45H96.45M96.35 9.45V9.35M15.05 70.35V70.45V70.55L14.85 70.65V70.45L15.05 70.35ZM15.05 70.35L14.65 70.25H14.45V70.15H14.25L13.85 70.05H13.45L13.35 69.95H13.25H13.15H13.05H12.95H12.85V69.85H12.65H12.45L12.35 69.75H12.05H11.95L11.75 69.65H11.65H11.55H11.35L11.25 69.55H11.15H11.05H10.95H10.75H10.65H10.55H10.35H10.25H10.15H10.05H9.95001H9.85001H9.64999L9.45001 69.65L9.25 69.75L9.04999 69.85V69.75H8.95001V69.65L8.85001 69.75V69.65L8.75 69.55V69.45M15.05 70.35H15.25L15.35 70.15V70.05V69.95V69.75V69.35H15.45M8.75 69.45L9.14999 69.15H9.25H9.35001L9.54999 69.05H9.64999V68.95V68.85H9.75H9.85001H10.15H10.35H10.45H10.55H10.65L10.75 68.95H10.85H10.95H11.05H11.15H11.25V68.85H11.35H11.45H11.55H11.65V68.75V68.15V67.95V67.85L11.55 67.25V67.05H11.65H11.75L12.05 67.15L12.35 67.25H12.55L12.65 67.35H12.75H12.85H12.95V67.55V67.65V67.75V67.95V68.05H13.25H13.35H13.45H13.55H13.65H13.75H13.95H14.05V68.15H14.25H14.55H14.75H15.05H15.15H15.25H15.35H15.45V68.25V68.45V68.55V68.65V68.75L15.35 68.85V69.05V69.15V69.25L15.45 69.35M8.75 69.45H8.64999L8.35001 69.65L7.95001 69.85L7.64999 70.05M8.75 69.45L8.45001 69.55L8.25 69.75H8.14999L7.64999 70.05M7.64999 70.05H7.54999V70.15M7.64999 70.05V70.15H7.54999M7.54999 70.15H7.45001H7.25M7.25 70.15L6.64999 70.05M7.25 70.15H7.14999L6.85001 70.05H6.64999M6.64999 70.05H6.54999H6.45001H6.35001M6.35001 70.05V69.95V69.85L6.25 69.75V69.65L6.14999 69.45V69.35H5.75V69.65M6.35001 70.05V70.35H6.25L6.14999 70.45L6.04999 70.55L5.95001 70.25L5.85001 70.15H5.95001L6.04999 70.05L5.95001 69.95V69.75L5.85001 69.65H5.75M5.75 69.65L5.35001 69.55V70.05H5.64999H5.75H5.85001V69.95L5.75 69.75V69.65ZM15.45 69.35V69.45H15.65V69.35H15.55V69.25L15.45 69.35ZM9.35001 70.55L9.45001 70.45V70.35V70.25L9.25 70.35V70.45L9.35001 70.55ZM13.95 70.15H13.75L13.55 70.05V70.15L13.85 70.25H13.95V70.15Z" stroke="white" stroke-width="0.5" stroke-linecap="round" stroke-linejoin="round"/>
</svg>
