<svg width="133" height="73" viewBox="0 0 133 73" fill="none" xmlns="http://www.w3.org/2000/svg">
<path d="M0.949997 72.05H0.849991V71.95V71.85V71.75V71.65V71.55H0.949997V71.45V71.35V71.25V71.15V71.05V70.95L1.05 70.85V70.75H1.14999V70.65V70.55V70.45V70.35V70.25H1.25V70.15L1.34999 70.05V69.95H1.45L1.55 69.85V69.75H1.64999V69.65V69.55V69.45V69.35H1.75V69.25V69.15V69.05V68.95V68.85V68.75V68.65V68.55V68.45H1.84999V68.35V68.25V68.15H1.95L1.84999 68.05V67.95H1.95V67.85V67.75V67.65V67.55H2.05V67.45V67.35V67.25L2.14999 67.15V67.05V66.95H2.25V66.85V66.75H2.34999V66.65H2.45V66.55H2.55H2.64999V66.45V66.35V66.25V66.15H2.75H2.84999V66.05V65.95V65.85H2.95V65.75H3.05V65.65V65.55V65.45H3.14999V65.35H3.25V65.25H3.34999H3.45L3.55 65.15V65.05V64.95H3.45V64.85H3.55V64.75V64.65H3.64999H3.75H3.84999H3.95V64.55V64.45H4.05V64.35V64.25H3.95V64.15H4.05H4.14999V64.05V63.95V63.85V63.75V63.65H4.25V63.55V63.45V63.35V63.25V63.15H4.34999L4.45 63.05V62.95H4.55V62.85V62.75V62.65H4.64999V62.55V62.45V62.35V62.25H4.55L4.45 62.35H4.34999V62.25H4.25L4.14999 62.15V62.05H4.05V62.15H3.95L3.84999 62.05H3.95V61.95L4.05 61.85V61.75H4.14999V61.65L4.05 61.55V61.45H3.95H3.84999H3.75V61.35H3.64999L3.55 61.25V61.15V61.05H3.45V60.95V60.85H3.34999H3.25V60.75H3.14999V60.85H3.05H2.95H2.84999V60.75H2.75L2.64999 60.65V60.55V60.45V60.35V60.25V60.15V60.05H2.55V59.95H2.45V59.85H2.34999H2.25V59.75V59.65V59.55V59.45H2.14999V59.35H2.05V59.25V59.15L2.14999 59.05V58.95H2.25V58.85H2.34999H2.45H2.55H2.64999H2.75H2.84999V58.75V58.65H2.75H2.64999V58.55H2.75V58.45H2.84999V58.35V58.25V58.15H2.75H2.64999V58.05V57.95V57.85V57.75V57.65V57.55H2.55H2.45V57.45V57.35H2.34999V57.45H2.25H2.14999V57.35V57.25V57.15H2.05V57.05V56.95V56.85L1.95 56.75H1.84999H1.75L1.64999 56.65V56.55V56.45H1.55L1.45 56.35V56.25H1.34999L1.25 56.35H1.14999V56.25H1.05V56.15L0.949997 56.05V55.95H0.849991V55.85V55.75V55.65H0.75V55.55V55.45V55.35V55.25V55.15H0.849991V55.05H0.949997H1.05V55.15H1.14999L1.25 55.05V54.95H1.14999H1.05L0.949997 54.85H0.849991V54.95H0.75V54.85V54.75V54.65H0.649994V54.55V54.45L0.550003 54.35V54.25H0.649994H0.75V54.35H0.849991H0.949997V54.25V54.15H0.849991H0.75L0.649994 54.05L0.550003 53.95V53.85V53.75V53.65V53.55H0.649994V53.45V53.35H0.550003V53.25H0.449997V53.15V53.05V52.95V52.85V52.75V52.65V52.55H0.349991V52.45V52.35H0.25V52.25L0.349991 52.15V52.05V51.95H0.25V51.85V51.75V51.65H0.349991V51.55H0.449997V51.45V51.35V51.25L0.550003 51.15V51.05H0.649994V50.95H0.75V50.85V50.75V50.65L0.649994 50.55H0.550003H0.449997V50.45V50.35V50.25H0.349991V50.15V50.05V49.95V49.85V49.75V49.65V49.55V49.45H0.449997H0.550003V49.35H0.649994V49.25H0.75H0.849991V49.15V49.05V48.95H0.949997H1.05V48.85H1.14999V48.75H1.25V48.65H1.34999V48.55H1.45L1.55 48.45H1.64999V48.35V48.25H1.75H1.84999V48.15H1.95V48.05H1.84999V47.95H1.75V47.85H1.84999L1.95 47.75L2.05 47.65H2.14999V47.55H2.25V47.45H2.34999V47.35L2.45 47.25L2.55 47.15H2.64999V47.05H2.75V46.95V46.85H2.84999V46.75V46.65L2.95 46.55V46.45H3.05V46.35H3.14999V46.25H3.25V46.15H3.34999H3.45H3.55V46.25H3.64999V46.15V46.05H3.55V45.95L3.64999 45.85H3.75L3.84999 45.75H3.95H4.05V45.65H4.14999V45.55V45.45H4.25V45.35L4.34999 45.25L4.45 45.15V45.05H4.55V44.95V44.85V44.75L4.64999 44.65V44.55H4.55L4.45 44.45H4.34999H4.25V44.35V44.25V44.15L4.14999 44.05V43.95V43.85V43.75L4.05 43.65H3.95V43.55H3.84999V43.45V43.35L3.75 43.25V43.15H3.84999V43.05L3.95 42.95L4.05 42.85L4.14999 42.75L4.25 42.65H4.34999V42.55H4.45H4.55V42.45H4.64999H4.75H4.84999H4.95V42.55H5.05H5.14999V42.65H5.25V42.75V42.85H5.34999L5.45 42.95H5.55L5.75 43.05V43.15H5.95L6.05 43.25H6.14999H6.25H6.34999H6.45L6.55 43.15H6.64999L6.75 43.05L6.84999 42.95V42.85V42.75V42.65H6.75V42.55V42.45H6.64999V42.35V42.25V42.15V42.05L6.75 41.95L6.84999 41.85H6.95V41.75H7.05H7.14999H7.25H7.34999H7.45H7.64999H7.75H7.84999H7.95H8.05V41.65H8.14999V41.55H8.25V41.45V41.35V41.25V41.15V41.05V40.95L8.34999 40.85V40.75H8.45V40.65V40.55V40.45V40.35H8.34999L8.25 40.25L8.14999 40.15V40.05V39.95V39.85V39.75V39.65H8.25V39.55H8.34999H8.45V39.45H8.55H8.64999H8.75H8.84999H8.95H9.05H9.14999H9.25H9.34999H9.45V39.35H9.55V39.25V39.15L9.45 39.05L9.34999 38.95H9.25V38.85H9.14999V38.75H9.05V38.65L8.95 38.55V38.45V38.35V38.25H9.05V38.15V38.05H9.14999V37.95L9.25 37.85L9.34999 37.75H9.45L9.55 37.65L9.64999 37.55H9.75V37.45H9.84999L9.95 37.55H10.05H10.15H10.25H10.35H10.45H10.55L10.65 37.65H10.75V37.75H10.85L10.95 37.85V37.95H11.05V38.05H11.15L11.25 38.15H11.35H11.45V38.05H11.55L11.65 37.95L11.75 37.85V37.75V37.65L11.85 37.55V37.45V37.35V37.15L11.75 37.05H11.85V36.95L11.75 36.85V36.75L11.65 36.65L11.55 36.55H11.45V36.45H11.35V36.35V36.25L11.25 36.15H11.15V36.05H11.05H10.95L10.85 35.95H10.75L10.65 35.85V35.75H10.55V35.65V35.55L10.65 35.45L10.75 35.35H10.85V35.25V35.15V35.05L10.75 34.95V34.85H10.65L10.55 34.75H10.45H10.35H10.25V34.65H10.15V34.55H10.25V34.45H10.35H10.45L10.55 34.35L10.75 34.25V34.15L10.95 34.05H11.05H11.15V33.95V33.85V33.75H11.25L11.35 33.65L11.45 33.55H11.55L11.65 33.45L11.75 33.35L11.85 33.25L11.95 33.15V33.05H12.05V32.95H12.15H12.25L12.35 32.85H12.45V32.75H12.55L12.65 32.85H12.75H12.95H13.05L13.15 32.95H13.25H13.35L13.55 33.05H13.65H13.75V32.95L13.95 32.85L14.05 32.75L14.25 32.55L14.35 32.35H14.45L14.55 32.25H14.65V32.15V32.05V31.95L14.75 31.85V31.75L14.85 31.65L14.95 31.55H15.05V31.45L15.15 31.35V31.25V31.15L15.25 31.05L15.35 30.85V30.75H15.45L15.65 30.55L15.75 30.35L15.85 30.25V30.15V30.05L15.95 29.95V29.85L16.05 29.75L16.15 29.65L16.25 29.55L16.45 29.45L16.55 29.35V29.25L16.65 29.15V29.05V28.95V28.85H16.75V28.75L16.85 28.55V28.45L16.95 28.25L17.05 28.15L17.15 27.95L17.25 27.75V27.65H17.35L17.45 27.75H17.55H17.65L17.75 27.65H17.85V27.55V27.45V27.35V27.25H17.95V27.15V27.05V26.95H18.05L18.15 26.85V26.75H18.25V26.65H18.35V26.75H18.45H18.55H18.65V26.65H18.75V26.55L18.65 26.45L18.55 26.35L18.65 26.25H18.75H18.85L18.95 26.15V26.05V25.95V25.85V25.75L19.05 25.65V25.55H19.15H19.25L19.35 25.45H19.45L19.55 25.35V25.45H19.65V25.35H19.75V25.25V25.15V25.05H19.85V24.95V24.85H19.95V24.75H20.05V24.65H20.15H20.25V24.55H20.35V24.45V24.35H20.45V24.25H20.55V24.15H20.65V24.05V23.95L20.75 23.85H20.85V23.75H20.95H21.05V23.65H21.15H21.25H21.35L21.45 23.55H21.55V23.45H21.65L21.75 23.35L21.95 23.25L22.15 23.15L22.25 23.05L22.35 22.95H22.45L22.55 22.85H22.65H22.75V22.75H22.85V22.65H22.95L23.05 22.55H23.15H23.25V22.45H23.35H23.45L23.55 22.35H23.65L23.75 22.15L23.85 22.05H23.95V21.95H24.05L24.15 22.05H24.25L24.35 22.15H24.45H24.55V22.05H24.65H24.75H24.85H24.95H25.05H25.15V21.95V21.85V21.75H25.25H25.35V21.65H25.45H25.55L25.65 21.75L25.75 21.85H25.85V21.75H25.95V21.65H26.05H26.15H26.25H26.35H26.45H26.55H26.65H26.75L26.85 21.55L26.95 21.45L27.05 21.35V21.25H27.15H27.25V21.15H27.35H27.45H27.55H27.65V21.05H27.75V21.15H27.85L27.95 21.25H28.05H28.15H28.25H28.35V21.15H28.45H28.55L28.65 21.25L28.75 21.35H28.85L28.95 21.25H29.05L29.15 21.15L29.25 21.25H29.35L29.45 21.35H29.55V21.25H29.65H29.75H29.85H29.95H30.05H30.15H30.25H30.35H30.45V21.35H30.55H30.65H30.75H30.85H30.95H31.05H31.15V21.45H31.25V21.55H31.35L31.45 21.65V21.75H31.55L31.65 21.85H31.75V21.95L31.85 22.05V22.15V22.25H31.95V22.35H32.05H32.15V22.45H32.25H32.35H32.45V22.55V22.65H32.55H32.65L32.75 22.55H32.85V22.65H32.95H33.05H33.15L33.25 22.75H33.35H33.45V22.85H33.55H33.65H33.75L33.85 22.75H33.95H34.05H34.15V22.85H34.25H34.35L34.45 22.95H34.55H34.65H34.75H34.85H34.95H35.05V23.05H35.15H35.25V22.95H35.35H35.45V22.85H35.55H35.65V22.75H35.75H35.85H35.95H36.05H36.15V22.55V22.45V22.35V22.25V22.15H36.05V22.05L35.95 21.95V21.85V21.75V21.65L36.05 21.55V21.45H36.15V21.35V21.25L36.05 21.15V21.05H35.95V20.95H36.05V20.85V20.75L36.15 20.65V20.55H36.05V20.45H35.95V20.35H35.85V20.25H35.75H35.65V20.35V20.45H35.55H35.45L35.35 20.55H35.25V20.45L35.15 20.35V20.25V20.15H35.05L35.15 20.05H35.25V19.95H35.35V19.85V19.75V19.65H35.45V19.55H35.55V19.45V19.35V19.25H35.65V19.15V19.05V18.95H35.55V18.85V18.75H35.45V18.65V18.55V18.45V18.35V18.25H35.35V18.15V18.05V17.95H35.25V17.85V17.75V17.65V17.55H35.35V17.45H35.45V17.35V17.25V17.15V17.05V16.95H35.35V16.85H35.45V16.75V16.65V16.55V16.45H35.35V16.35V16.25H35.25V16.15H35.15V16.05V15.95H35.05V15.85V15.75H34.95V15.65L35.05 15.55V15.45L35.15 15.35V15.25V15.15V15.05V14.95V14.85V14.75V14.65V14.55V14.45V14.35V14.25V14.15V14.05L35.05 13.95V13.85V13.75V13.65V13.55L35.15 13.45V13.35V13.25L35.25 13.15V13.05V12.85L35.35 12.75V12.65V12.55L35.45 12.45V12.35V12.25V12.15V12.05L35.55 11.85V11.75V11.65V11.55V11.45V11.35V11.25V11.15H35.45V11.05V10.95V10.85V10.75H35.35H35.25H35.15V10.65V10.55L35.05 10.45V10.35L35.15 10.25V10.15V10.05H35.25V9.94998V9.85001V9.75V9.64999L35.15 9.54999L35.05 9.35001L34.95 9.25H35.05V9.14999V9.04999H35.15V8.94998H35.05V8.85001V8.75H34.95V8.64999H35.05H35.15L35.25 8.44998V8.35001V8.25H35.15V8.14999H35.05V8.04999H34.95V7.94998V7.85001H34.85V7.75V7.64999L34.75 7.44998V7.35001V7.25L34.65 7.14999V7.04999L34.55 6.94998L34.45 6.85001V6.64999L34.55 6.54999V6.44998V6.35001V6.25V5.94998L34.65 5.64999V5.54999V5.44998L34.55 5.14999V5.04999V4.64999L34.45 4.44998H34.55V4.35001V4.25L34.45 4.04999L34.35 3.94998V3.85001V3.75V3.54999V3.44998V3.35001H34.45L34.55 3.14999H34.65V3.04999L34.75 2.94998L34.85 2.64999H34.95L35.05 2.44998L35.15 2.35001V2.25L35.35 2.14999L35.45 1.94998L35.55 1.85001H35.65V1.75L35.85 1.64999H35.95V1.54999L36.05 1.44998H36.15L36.25 1.35001L36.15 1.04999L36.25 0.949982L36.45 0.649994V0.549988L36.55 0.449982V0.549988H36.75L36.85 0.649994H37.05V0.75H37.15H37.25H37.35H37.45L37.65 0.850006L37.75 0.949982H37.85H38.05H38.15H38.25H38.35H38.45L38.55 1.04999H38.65H38.85L38.95 1.14999H39.05H39.15H39.25H39.35H39.55H39.65H39.75H39.85L40.05 1.04999H40.15L40.35 1.14999H40.45H40.65V1.25H40.75L40.85 1.35001H40.95V1.44998L41.05 1.54999L41.15 1.75V1.85001H41.25V1.94998V2.04999L41.35 2.14999V2.25V2.35001V2.44998V2.54999V2.75V2.85001L41.45 2.94998V3.04999V3.14999L41.55 3.25V3.35001H41.65L41.75 3.44998H41.85L41.95 3.54999H42.05L42.15 3.44998H42.25L42.35 3.35001H42.45V3.25V3.14999V3.04999L42.55 2.85001L42.45 2.64999V2.54999V2.44998H42.55V2.35001V2.25L42.65 2.04999V1.94998V1.85001L42.85 1.64999L42.95 1.44998L43.05 1.25L43.25 0.949982L43.35 0.75L43.45 0.649994H43.55L43.65 0.549988L43.85 0.449982L43.95 0.350006H44.05L44.25 0.25H44.35H44.45L44.55 0.350006L44.65 0.449982L44.85 0.549988H44.95L45.05 0.649994V0.75H45.25L45.35 0.850006L45.45 0.949982L45.55 1.14999L45.65 1.25L46.05 1.85001L46.15 1.94998V2.04999H46.25V2.14999V2.25V2.35001V2.44998H46.35V2.54999H46.45V2.64999L46.55 2.75L46.65 2.85001L46.75 2.94998L46.85 3.04999V3.14999H46.95V3.25L47.05 3.35001V3.44998H47.15V3.54999V3.64999H47.25V3.75L47.35 3.85001L47.45 3.94998L47.55 4.04999L47.75 4.14999L47.85 4.35001L47.95 4.44998V4.54999L48.05 4.75V4.85001V4.94998V5.04999L47.95 5.14999L47.75 5.44998L47.65 5.64999L47.55 5.75V5.85001V5.94998V6.04999V6.14999H47.65V6.25L47.75 6.35001H47.85H47.95L48.05 6.25H48.15H48.35H48.45L48.55 6.14999H48.65L48.75 6.04999H48.85H48.95H49.05L49.15 6.14999L49.25 6.25H49.35V6.35001H49.45L49.55 6.44998L49.65 6.54999H49.75V6.64999H49.85L49.95 6.75H50.05L50.15 6.85001L50.25 6.94998H50.35H50.45L50.55 7.04999H50.65H50.75H50.85H50.95H51.05H51.25L51.35 6.94998H51.55H51.65V6.85001H51.75L51.95 6.75V6.64999H52.05V6.54999H52.15L52.35 6.35001V6.25H52.45L52.55 6.04999V5.94998L52.65 5.85001L52.75 5.75V5.64999H52.85L52.95 5.54999L53.15 5.25H53.25L53.35 5.04999L53.45 4.94998L53.55 4.75L53.65 4.64999L53.75 4.54999H53.85L53.95 4.44998H54.05H54.15H54.25H54.35H54.45H54.55V4.54999H54.65L54.95 4.64999L55.05 4.75L55.15 4.85001L55.45 5.04999L55.55 5.14999L55.65 5.25H55.75H55.85L55.95 5.35001H56.05H56.15L56.25 5.25H56.35L56.45 5.04999L56.65 4.75L56.75 4.64999V4.54999V4.44998V4.35001V4.25V3.94998V3.75V3.44998V3.35001V3.25V3.14999V2.94998L56.85 2.75L56.95 2.64999L57.05 2.44998H57.15L57.25 2.35001H57.35L57.55 2.25L57.65 2.35001H57.75H57.85L57.95 2.44998L58.05 2.54999H58.15V2.64999L58.25 2.75V2.85001L58.35 2.94998V3.14999V3.25L58.45 3.35001V3.44998V3.54999L58.35 3.64999V3.75V3.85001L58.25 3.94998V4.04999V4.14999V4.25V4.35001V4.44998V4.54999V4.64999H58.35V4.75L58.45 4.94998V5.04999L58.55 5.14999V5.25V5.35001V5.44998V5.54999V5.64999V5.75L58.45 5.85001L58.35 5.94998L58.25 6.04999L58.15 6.14999L57.95 6.25L57.85 6.35001L57.75 6.44998L57.65 6.64999L57.55 6.75V6.85001L57.45 6.94998V7.04999L57.55 7.14999V7.25V7.35001H57.65V7.44998L57.75 7.54999L57.85 7.75V7.85001H57.95V7.94998L58.05 8.04999V8.14999L58.15 8.25V8.35001H58.25L58.35 8.44998H58.45L58.55 8.54999V8.64999L58.75 8.75L58.85 8.85001L58.95 8.94998L59.05 9.04999L59.25 9.25V9.35001H59.35V9.44998L59.45 9.54999V9.64999L59.55 9.75V9.85001L59.65 9.94998V10.05V10.15V10.25L59.75 10.35V10.45V10.55V10.65H59.85V10.75H59.95H60.05H60.15H60.35H60.45L60.55 10.65H60.75L60.85 10.55L60.95 10.45L61.05 10.35H61.15V10.25H61.25V10.15H61.35L61.45 10.05L61.55 9.94998V9.85001L61.65 9.64999V9.54999L61.75 9.35001V9.25V9.14999L61.65 9.04999V8.94998V8.85001V8.75L61.55 8.54999V8.44998L61.45 8.35001V8.25L61.35 8.14999L61.25 8.04999H61.15V7.94998H61.05L60.95 7.85001L60.85 7.75L60.75 7.64999L60.65 7.54999L60.55 7.44998V7.35001V7.25V7.14999V6.94998V6.85001V6.75L60.45 6.64999V6.54999L60.35 6.44998L60.25 6.35001L60.15 6.25V6.14999V6.04999V5.94998V5.85001V5.64999V5.54999V5.44998V5.25L60.25 5.14999V5.04999L60.35 4.94998V4.85001H60.45L60.55 4.75L60.65 4.64999L60.85 4.54999H60.95H61.05H61.15H61.25H61.35H61.45L61.55 4.64999L61.65 4.85001L61.75 5.04999L61.95 5.35001L62.05 5.54999L62.15 5.64999L62.25 5.75L62.35 5.85001L62.45 5.94998V6.04999L62.55 6.14999V6.25V6.35001V6.44998L62.65 6.54999L62.55 6.64999V6.75V7.04999V7.25V7.35001V7.44998V7.64999V7.85001L62.45 8.04999V8.25V8.35001V8.44998L62.55 8.54999V8.75V8.94998V9.25V9.35001V9.44998L62.65 9.54999V9.64999V9.75V9.85001V9.94998V10.15V10.25L62.75 10.35V10.45L62.85 10.55V10.65L62.95 10.75L63.05 10.85V10.95L63.15 11.05H63.25V11.15L63.35 11.25H63.45L63.55 11.35L63.65 11.45L63.75 11.55H63.85H63.95H64.05H64.15H64.25H64.35H64.45L64.55 11.65H64.65L64.75 11.75H64.85H64.95H65.15H65.35V11.65H65.55L65.65 11.55H65.75H65.95H66.15L66.25 11.45H66.35H66.45L66.55 11.35H66.65H66.75H66.85L67.05 11.25L67.35 11.15L67.45 11.05L67.65 10.95L67.85 10.85H67.95L68.05 10.75H68.25L68.55 10.65H68.65H68.75H68.95H69.15L69.25 10.75L69.35 10.85L69.45 11.05L69.55 11.25V11.35L69.65 11.55L69.85 11.85L70.05 12.45L70.15 12.65L70.25 12.75L70.35 12.85L70.55 12.95V13.05H70.65H70.75L70.85 12.95H70.95L71.05 12.85L71.35 12.55L71.45 12.45L71.55 12.35H71.65H71.75L71.85 12.45H71.95L72.15 12.65L72.35 12.85H72.45L72.55 12.95L72.95 13.05H73.05H73.15H73.25H73.35L73.55 12.85H73.65L73.75 12.75L73.85 12.65L73.95 12.55L74.05 12.35L74.15 12.15L74.25 12.05V11.95L74.35 11.85L74.45 11.75L74.55 11.55V11.35L74.65 11.25L74.75 11.15L74.85 11.05L75.05 10.95H75.15L75.35 10.85H75.65H75.85H75.95H76.05H76.15H76.25L76.65 10.95H76.75L76.95 11.05L77.05 10.95H77.25H77.35L77.55 10.85V10.75H77.65V10.65H77.75H77.85L78.15 10.55L78.25 10.45H78.35L78.65 10.25H78.75L78.85 10.15H78.95H79.05H79.15H79.25H79.35H79.45H79.65L79.75 10.25L79.95 10.35L80.05 10.45L80.15 10.65L80.25 10.85V10.95L80.35 11.05L80.45 11.35V11.55L80.55 11.75L80.85 12.35V12.45L80.95 12.55V12.65L81.05 12.75V12.85H81.15V12.95L81.25 13.05L81.35 13.15V13.25L81.45 13.35V13.45L81.55 13.55V13.65H81.65V13.75L81.75 13.85L81.85 13.95L82.05 14.25L82.15 14.55H82.25L82.45 15.05L82.55 15.25L82.65 15.55L82.75 15.85L82.85 15.95V16.05L83.15 16.45L83.25 16.55L83.45 16.75L83.55 16.85L83.65 16.95L83.85 17.15H83.95L84.15 17.25H84.25L84.55 17.35H84.85H85.05H85.25H85.45H85.65H85.85L85.95 17.25H86.15L86.25 17.15L86.45 17.05L86.55 16.95L86.65 16.85L86.75 16.55L86.85 16.45V16.35V16.25V16.05L86.75 15.95V15.85L86.65 15.75V15.65V15.55L86.55 15.45V15.35L86.45 15.15L86.35 14.95V14.85L86.25 14.65L86.15 14.55V14.45L86.05 14.35V14.25V14.15H85.95V14.05V13.85H85.85V13.75V13.45L85.95 13.35L86.05 13.25L86.15 13.15L86.35 13.05H86.45H86.55L86.65 12.95H86.75L86.85 13.05H86.95H87.05L87.15 13.15L87.25 13.25H87.35V13.35H87.45L87.55 13.55L87.65 13.65L87.75 13.85L87.85 13.95L88.15 14.25L88.25 14.35L88.65 14.65L88.85 14.75H88.95H89.05H89.15H89.25H89.35H89.45H89.55H90.15H90.45L90.55 14.65H90.65H90.75V14.55L90.95 14.45L91.15 14.35L91.25 14.15V14.05V13.85V13.75L91.15 13.45L91.05 13.25L90.85 12.95L90.55 12.65L90.35 12.55L90.15 12.45V12.35H90.05L89.85 12.15L89.75 12.05L89.65 11.85L89.55 11.75V11.55L89.45 11.45V11.25V11.15V11.05V10.95L89.35 10.75L89.25 10.65L89.15 10.55H89.05H88.95L88.85 10.45L88.55 10.55H88.35H88.15L88.05 10.65H87.95L87.85 10.75H87.75H87.65L87.55 10.85L87.35 10.95L87.15 10.85H86.95H86.75L86.55 10.65L86.45 10.45V10.25V10.15V10.05V9.85001V9.75L86.55 9.64999L86.65 9.44998L86.75 9.35001L86.95 9.25L87.05 9.14999L87.25 9.04999L87.55 8.94998H87.65H87.75H87.95H88.05L88.25 9.04999H88.45H88.65L88.75 9.14999L88.85 9.25L88.95 9.35001L89.15 9.44998L89.35 9.64999L89.45 9.85001L89.65 10.05L89.85 10.25L89.95 10.35L90.15 10.55L90.25 10.65L90.65 10.95L90.95 11.15H91.05H91.15L91.25 11.25H91.35H91.55H91.65H91.75L91.95 11.15L92.05 11.05L92.25 10.95L92.45 10.75L92.55 10.65L92.65 10.45V10.35V10.25V10.05L92.75 9.85001V9.64999V9.54999V9.44998V9.35001L92.65 9.14999V9.04999V8.85001L92.55 8.75L92.45 8.54999L92.35 8.44998V8.35001L92.15 8.25L91.95 8.14999H91.85L91.75 7.94998L91.65 7.85001L91.55 7.64999V7.54999V7.44998V7.25L91.65 7.14999V7.04999H91.75H91.85H91.95H92.05H92.15H92.25H92.35L92.45 7.14999H92.55V7.25H92.65L92.75 7.35001L92.85 7.44998L92.95 7.54999L93.05 7.64999V7.85001V7.94998L93.15 8.14999V8.35001L93.25 8.44998V8.54999V8.75L93.35 8.85001V8.94998V9.14999V9.25L93.45 9.44998V9.54999L93.55 9.75L93.65 9.94998H93.75V10.05H93.85H93.95H94.05L94.15 10.15L94.25 10.05H94.45H94.65L94.75 9.94998L94.85 9.85001L94.95 9.64999L95.05 9.54999L95.15 9.35001L95.25 9.14999L95.35 8.94998V8.75V8.54999V8.44998V8.35001V8.25L95.15 7.94998L95.05 7.85001L94.95 7.64999L94.85 7.44998L94.75 7.25L94.65 7.14999V7.04999L94.55 6.94998V6.85001V6.64999V6.54999V6.44998V6.35001L94.65 6.25V6.14999L94.75 6.04999L94.85 5.94998L94.95 5.85001L95.15 5.64999L95.25 5.54999L95.45 5.44998L95.65 5.35001L95.95 5.25H96.05H96.25H96.45L96.65 5.35001L96.85 5.54999V5.85001L96.95 5.94998L96.85 6.14999V6.35001L96.75 6.64999L96.65 6.85001V7.04999V7.14999V7.25V7.44998V7.54999L96.75 7.64999L96.85 7.75L96.95 8.04999L97.15 8.44998L97.45 8.85001L97.55 9.04999L97.65 9.25H97.75V9.35001H97.85L97.95 9.44998L98.05 9.64999L98.15 9.75L98.25 9.85001H98.35V9.94998L98.55 10.05H98.65L98.95 10.25L99.15 10.35H99.35L99.45 10.45H99.65H99.75L100.05 10.35L100.25 10.25L100.35 10.15H100.45L100.65 10.05V9.94998H100.75L100.85 9.85001V9.75L100.95 9.64999L101.05 9.44998L101.35 8.85001L101.55 8.35001L101.75 8.14999L101.95 8.04999L102.15 7.94998L102.45 7.85001H102.55H102.75L103.25 7.94998H103.55H103.65H103.75H104.05L104.25 7.85001L104.35 7.75L104.55 7.54999L104.65 7.35001L104.75 7.25L104.85 7.04999L105.05 6.94998H105.25H105.35H105.45H105.55V7.04999V7.14999L105.45 7.25V7.35001L105.35 7.44998V7.64999L105.45 7.75V7.85001L105.55 8.04999L105.65 8.25H105.75L105.85 8.35001L106.05 8.44998H106.35L106.65 8.54999H106.85L107.15 8.64999H107.35L107.55 8.75L107.65 8.64999H107.75H107.85H108.05H108.25L108.45 8.75H108.65L108.95 8.85001L109.15 8.94998L109.45 9.04999L110.15 9.25L110.45 9.35001L110.75 9.44998H110.85H111.05L111.15 9.35001H111.45L111.65 9.25L111.75 9.14999L111.85 9.04999L112.05 8.94998L112.25 8.75L112.45 8.44998L112.55 8.35001L112.65 8.14999L112.75 8.04999L112.85 7.85001L113.05 7.75L113.55 7.35001L113.75 7.25L114.15 7.14999H114.65L114.85 7.25L115.15 7.44998L115.35 7.54999L115.55 7.75L115.85 7.94998L115.95 8.04999L116.35 8.44998L116.75 8.64999L117.05 8.85001H117.25H117.45V8.75H117.55H117.65H117.95L118.25 8.64999L118.45 8.54999L118.75 8.35001L119.05 8.04999V7.75L119.15 7.54999V7.25L118.95 6.85001L118.85 6.64999L118.65 6.25L118.45 6.14999L118.35 5.94998L118.15 5.85001H118.05L117.75 5.64999H117.65L117.55 5.44998L117.45 5.35001V5.25L117.95 4.64999L118.05 4.44998L118.25 4.25L118.65 4.14999L119.05 4.04999L119.35 3.94998L119.55 4.04999H119.75L120.05 4.25L120.25 4.35001L120.45 4.54999L120.55 4.75L120.75 5.14999L121.05 5.64999V5.75L121.25 5.85001L121.45 6.04999L121.75 6.14999H122.05L122.25 6.04999L122.65 5.85001L122.85 5.75L123.05 5.64999L123.15 5.54999L123.25 5.35001L123.35 4.94998V4.54999V4.04999L123.45 3.94998L123.65 3.75H123.75H123.85H124.15H124.55L124.85 3.85001L125.15 3.94998L125.35 4.04999L125.75 4.25L126.15 4.44998L126.45 4.64999L126.65 4.75L126.85 4.85001L127.15 5.04999L127.35 5.25L127.65 5.44998L127.85 5.64999H127.95L128.05 5.85001L128.35 6.14999L128.45 6.35001L128.55 6.54999V6.64999H128.65L128.75 6.75V6.85001V6.94998L128.85 7.04999L128.95 7.14999V7.25V7.35001L129.05 7.44998L129.15 7.64999V7.85001L129.25 7.94998V8.04999V8.14999V8.25L129.35 8.35001V8.44998V8.54999V8.64999L129.45 8.75V8.85001L129.55 8.94998V9.14999L129.65 9.25V9.35001L129.75 9.54999V9.75L129.85 9.94998V10.05V10.15L129.95 10.25V10.35V10.45V10.65L130.05 10.75V10.95V11.05V11.15V11.25V11.45V11.55V11.75V11.85V11.95V12.05V12.15L129.95 12.35V12.55V12.65V12.75H129.85V12.85V12.95V13.05V13.15V13.25H129.95V13.35L130.05 13.45L130.15 13.55V13.65L130.25 13.95L130.35 14.15L130.45 14.25V14.45L130.55 14.55L130.65 14.65V14.75L130.75 14.95H130.85V15.05L131.05 15.15L131.15 15.25L131.25 15.35L131.45 15.45V15.55L131.55 15.65L131.65 15.75H131.75L131.85 15.85L131.95 15.95H132.05H132.15H132.35H132.45H132.55H132.65L132.55 16.05V16.15H132.45L132.35 16.25H132.25V16.35V16.45V16.55H132.15V16.45H132.05L131.95 16.55L131.55 16.85H131.45L131.35 16.95L131.25 17.05H131.15H131.05L130.85 16.95L130.45 16.85L130.25 16.95L130.05 17.05L129.85 17.15L129.65 17.25L129.35 17.45L129.25 17.55L129.15 17.65L129.05 18.15V18.35V18.45V18.65L128.95 18.85V18.95V19.05L128.65 19.75L128.45 20.15L128.35 20.25V20.45H128.25V20.55L128.15 20.65H128.05V20.55H127.95L127.75 20.45H127.65H127.55H127.45H127.25H127.15H127.05L126.95 20.35H126.85H126.75H126.65H126.55L126.45 20.45H126.35H126.25H126.15H126.05H125.95V20.35H125.85H125.75H125.65H125.55V20.45H125.45H125.35V20.55H125.25H125.15H125.05V20.45H124.95V20.35L124.85 20.25H124.75V20.15V20.05V19.95V19.75V19.55L124.65 19.15V19.05V18.95V18.75V18.65V18.55V18.45V18.35H124.55V18.25V18.05L124.45 18.15H124.35H124.25V18.05H124.15H124.05L123.85 17.85L123.75 17.75L123.65 17.65L123.55 17.55L123.35 17.75V17.85L123.45 17.95V18.05L123.55 18.15H123.45L123.35 18.05L123.15 17.95L122.95 17.85V17.75H122.85V17.65H122.75L122.65 17.95L122.75 18.05V18.15L121.85 17.95V18.05H121.75V18.15V18.25L121.65 18.45V18.55V18.65V18.75H121.55V18.95L121.45 19.05V19.15V19.35L121.55 19.45V19.55L121.45 19.65L121.35 19.75L121.25 19.95L121.15 20.05L121.05 20.15L120.75 20.55L120.65 20.65V20.75L120.55 21.25V21.55L120.45 22.05L120.35 22.45V22.65L120.25 22.85V22.95V23.15V23.25L120.15 23.35V23.45H120.05V23.35H119.95L119.85 23.25L119.65 23.15L119.45 23.05L119.15 22.85L119.05 22.75L118.95 22.85H118.85L118.65 22.95L118.35 23.15H118.25H118.05H117.95H117.85V23.25H117.75L117.65 23.35H117.55L117.45 23.15L117.35 23.05L117.25 22.95L117.15 22.75L117.05 22.65L116.95 22.55L116.85 22.45V22.35L116.55 22.15V22.05H116.45V21.95L116.35 22.05H116.25H116.15H116.05H115.95L115.85 22.15L115.75 22.05L115.65 21.95L115.55 21.85H115.45V21.75L115.35 21.65L115.25 21.75L115.15 21.85L115.05 21.95H114.95V22.05L114.85 22.15L114.75 22.25L114.65 22.35L114.55 22.45H114.45L114.35 22.55L114.25 22.75H114.15H114.05L113.85 22.85L113.75 22.75V22.85H113.65V22.95H113.55L113.35 23.05H113.25H113.15H113.05L112.85 23.15H112.75V23.25L112.65 23.15H112.55L112.45 23.05H112.25V22.95H112.15L112.05 22.85H111.95V22.75H111.85L111.75 22.65L111.65 22.45L111.55 22.35V22.25L111.45 22.05L111.35 21.95L111.25 21.75L111.15 21.65L111.05 21.55V21.45L110.95 21.25L110.85 21.15H110.75V21.05L110.65 20.95L110.55 20.85V20.75H110.45V20.65H110.35V20.55L110.25 20.45L110.15 20.35V20.25H110.05V20.05V19.95V19.75V19.55V19.35V19.15V18.95L109.95 18.75V18.65H109.85H109.75L109.65 18.75H109.55H109.45H109.35H109.25V18.85V18.95H109.15L109.05 19.05L108.95 19.15V19.25V19.45V19.55V19.65H108.85H108.75L108.65 19.55H108.55L108.45 19.45L108.35 19.35H108.25L108.15 19.45H108.05V19.35H107.95L107.85 19.45H107.75H107.65H107.55H107.45H107.35V19.35H107.25V19.25H107.15H107.05L106.75 19.35H106.45L106.35 19.45V19.55V19.65H106.45L106.55 19.75L106.65 19.85H106.75V19.95H106.85H106.95H107.05L107.25 20.05L107.35 20.15L107.55 20.25L107.75 20.45L107.85 20.75L107.95 21.05V21.45L108.05 21.55V21.75V21.95L108.15 22.05V22.15H108.25V22.25L108.15 22.35V22.45L108.05 22.85V22.95V23.05V23.15V23.25L107.95 23.15H107.85L107.75 23.05L107.65 22.95H107.55V22.85H107.45L107.35 22.75L107.25 22.65H107.15V22.55H107.05H106.95H106.85V22.65H106.75H106.65H106.55H106.45H106.35H106.25L106.05 22.75H105.95L105.85 22.85H105.75V22.95V23.05V23.25V23.45V23.55V23.65V23.75L105.85 23.95H105.75L105.65 24.05L105.45 24.35L105.25 24.25L104.85 24.15H104.65L104.15 23.95L103.85 23.85L103.55 23.75L103.15 23.65L102.85 23.55H102.55L102.35 23.45H102.25V23.55V23.65L102.35 23.75V23.85V23.95V24.05H102.25L102.15 23.95L101.95 23.85L101.75 23.65L101.65 23.55L101.55 23.45L101.25 23.15H101.15L100.95 22.95L100.85 22.85H100.75L100.55 22.65L100.45 22.55H100.35V22.45L100.45 22.35V22.25V22.15V22.05L100.55 21.95V21.65H100.65V21.55H100.75L100.65 21.35L100.55 21.25L100.45 21.05L100.35 20.95L100.25 20.85V20.75L100.15 20.65V20.55L99.95 20.35L99.85 20.15L99.75 20.05L99.35 19.75H99.25H99.15V19.85H99.05V19.95H98.95L98.85 20.05H98.75H98.65L98.55 20.15H98.45L98.25 20.25H98.15H98.05H97.85L97.75 20.15H97.55H97.35L97.15 20.05H97.05H96.95H96.85H96.75H96.65L96.55 19.95H96.45H96.25H96.05H95.85L95.45 19.85H95.25H95.15H95.05H94.85H94.65H94.45H94.35V20.05H94.25V20.15L94.15 20.35L94.05 20.55V20.75L93.85 20.65L93.75 20.75L93.65 20.85V20.95L93.55 21.05L93.45 21.15L93.35 21.25L93.25 21.35L93.05 21.25L92.85 21.15L92.75 21.05L92.55 20.95L92.45 20.85L92.35 20.75L92.15 20.55H92.05L91.85 20.35L91.65 20.45H91.55L91.45 20.55H91.35L91.25 20.65L91.05 20.85L91.15 21.05L91.25 21.15L91.45 21.35L91.55 21.45L91.65 21.65L91.75 21.85L91.95 22.05L92.15 22.35L92.45 22.65L92.55 22.85H92.65L92.75 23.15L92.85 23.25L93.05 23.45V23.55L93.15 23.65L93.25 23.85L93.45 24.05L93.55 24.15L93.65 24.25L93.75 24.45V24.65H93.85V24.75L94.05 24.85L94.35 24.95L94.55 25.05L94.85 25.15V25.25L95.15 25.45L95.25 25.55H95.35L95.45 25.45L95.55 25.35L95.75 25.25L95.95 25.05L96.05 24.95L96.35 25.15L96.65 25.35L96.85 25.45V25.65L96.95 25.85V26.05V26.25V26.45V26.65V26.85V26.95L96.75 27.05V27.25V27.35L96.85 27.45V27.55H96.95V27.65H97.05V27.75H97.15L97.25 27.85H97.15H97.05L96.85 27.95V28.05L96.95 28.55L96.75 28.65V28.75L96.55 29.05V29.15L96.45 29.25L96.35 29.35H96.25H96.15H96.05L95.95 29.45H95.85H95.75H95.65H95.55H95.45V29.55H95.35H95.25V29.45H95.15V29.35L95.05 29.25H94.95L94.85 29.15L94.75 29.05L94.55 28.95H94.45L94.15 28.75L93.95 28.65L93.85 28.45L93.75 28.25V28.05L93.65 27.95V27.85V27.75V27.65V27.55V27.45V27.35V27.25H93.55V27.15H93.45V27.25L92.85 27.65L92.55 27.85L92.35 27.55V27.45H92.25V27.35L92.15 27.25L91.95 26.85L91.65 26.35L91.45 26.15L91.35 25.95L91.25 25.65L91.05 25.55V25.45V25.35H90.95L90.75 25.15L90.65 24.95L90.25 24.35L90.05 24.45L89.75 24.65H89.65L89.85 24.95V25.05L89.95 25.15V25.25L90.05 25.45V25.55V25.65L90.15 25.95L90.25 26.25V26.45L90.35 26.65V26.75L90.15 26.85H89.95L89.75 26.95H89.65H89.45L89.35 27.05V27.15V27.25V27.35V27.45V27.55L89.25 27.65L89.15 27.75H88.95L88.85 27.85L88.55 28.05L87.95 28.45L88.05 28.65V28.75V28.85V28.95V29.05H87.95L87.85 29.25L87.75 29.45L87.65 29.55V29.65H87.55L87.35 29.95L87.15 30.05L87.05 30.25H86.95L86.85 30.35V30.45H86.75L86.65 30.55L86.55 30.65L86.45 30.75L86.35 30.85L86.55 31.15L86.65 31.25L86.75 31.35V31.45L86.85 31.55L86.95 31.75L87.05 31.95V32.05L86.95 32.15L87.05 32.25V32.35V32.45V32.55V32.65L86.95 32.75V32.85V32.95H86.85L86.75 32.85V32.75H86.65V32.65H86.55H86.45V32.55L86.35 32.65H86.25V32.75L86.35 32.85L86.45 33.05L86.55 33.15V33.25V33.35V33.45H86.45H86.35L86.15 33.35H86.05L85.95 33.45H85.85H85.75H85.65H85.55H85.45H85.35H85.25L85.15 33.25V33.15L85.05 33.05L84.95 32.95H84.85H84.75L84.65 33.05V33.15L84.55 33.25H84.45L84.35 33.15L84.25 33.25L84.15 33.35V33.45H84.05V33.55V33.65V33.75V33.85V33.95L83.95 34.05V34.15V34.25L84.05 34.35L84.15 34.45V34.65V34.75V34.85V34.95H84.05H83.95L83.85 34.85H83.75L83.65 34.75H83.55H83.45L83.35 34.65L83.25 34.55H83.15H83.05H82.95V34.65H82.85V34.75L82.95 34.85V34.95V35.05V35.15V35.25H82.85H82.75V35.35H82.55H82.45L82.35 35.45H82.15L81.95 35.65L81.85 35.75H81.75V35.85H81.65V35.75V35.65V35.55V35.45H81.55H81.45L81.35 35.55L81.25 35.65H81.15L81.05 35.55L80.95 35.45L80.85 35.35L80.75 35.25L80.65 35.15H80.55H80.45L80.25 35.05H80.15H80.05L79.95 35.15H79.85V35.25H79.75H79.65H79.55H79.45H79.35L79.25 35.15L79.15 35.05V34.95H79.05V34.85H78.95H78.85L78.75 34.95V35.05V35.15L78.65 35.25H78.55H78.45L78.35 35.35H78.25V35.45V35.55L78.35 35.65V35.75V35.85V35.95H78.25V36.05H77.95L77.85 36.15H77.75H77.65L77.45 36.05H77.35H77.25V36.15H77.15V36.25H77.05V36.35L77.15 36.45L77.35 36.65H77.45V36.75V36.85L77.35 36.95H77.25H77.15H77.05V36.85V36.75L76.95 36.65L76.85 36.55L76.75 36.45L76.65 36.35H76.55H76.45H76.35V36.45L76.25 36.65V36.75L76.05 36.85L75.95 36.95L75.85 37.05L75.75 37.15L75.65 37.25H75.55H75.45L75.35 37.35V37.25H75.25H75.15H75.05H74.95L74.85 37.35V37.45H74.75H74.65V37.35H74.55V37.25L74.45 37.15L74.35 37.05H74.45L74.55 36.95V36.85H74.65V36.75H74.55V36.65H74.45H74.35H74.25H74.15H74.05L73.95 36.75V36.85V36.95V37.05V37.15H73.85L73.75 37.25L73.65 37.35H73.55L73.45 37.45L73.35 37.55H73.25L73.15 37.45V37.35L73.05 37.25V37.15V37.05H72.95H72.85V37.15H72.75V37.25L72.85 37.45L72.95 37.55H72.85V37.65L72.75 37.75H72.65H72.55H72.45H72.35H72.25V37.65H72.15H72.05V37.75L71.85 37.95V38.15V38.25V38.45L71.95 38.55L72.05 38.95L72.15 39.05V39.35V39.55L71.95 39.75L71.85 40.05L71.55 40.15L71.25 40.35L70.85 40.65V40.75L70.55 41.25L70.25 41.45V41.55L70.05 41.85L69.95 42.35L69.75 42.55V42.65L69.65 42.85V43.05V43.15V43.45L69.55 43.85V43.95L69.35 44.15L69.25 44.35V44.75L69.15 45.05L69.05 45.25V45.35L68.85 45.55L68.75 45.75L68.65 45.85L68.45 45.95H68.35L68.05 46.15L67.55 46.75L66.25 47.95L65.85 48.35V48.55V48.85L65.75 48.95V49.05V49.15V49.25V49.35L65.65 49.75L65.55 50.05L65.45 50.35L65.35 50.65V50.95L65.05 51.35L64.75 51.75L64.65 51.85L64.55 51.95L63.85 52.25L63.65 52.35H63.55H63.45L63.35 52.45H63.15H63.05L62.85 52.55H62.65H62.55L62.35 52.65H62.25V52.75L62.15 52.65H62.05L61.95 52.55H61.85L61.75 52.45H61.65L61.25 52.85L61.15 52.95H60.95L60.65 53.05H60.55L60.35 53.15L59.55 52.85L58.95 52.65L58.35 52.45H58.25L57.85 52.55L57.55 52.65H57.25L57.05 52.75H56.85L56.65 52.85H56.55H56.45H56.35L56.15 52.95L55.85 53.05H55.55L55.35 53.15H55.05L54.85 53.25H54.75H54.65H54.55L54.35 53.35H54.15H54.05L53.95 53.45L52.85 53.75L52.45 53.55L52.25 53.35L51.75 53.25H51.45H50.95V53.35L50.85 53.45L50.75 53.65V53.75V53.85H50.65V53.95V54.05L50.25 54.15L49.55 54.45L49.25 54.35L48.95 54.15L48.65 54.05L48.45 53.85L48.25 53.75L47.55 53.95H47.35L47.05 54.05H46.95L46.65 54.25H46.45L46.15 54.85V55.05H45.95L45.75 55.25L45.45 55.35L43.75 56.05H43.35H42.85L42.25 55.95H42.15H42.05L41.85 55.65H41.65L41.35 55.75H41.15L41.05 55.95H40.95H40.85H40.75H40.65H40.55V55.85H40.45V55.75H40.35H40.25H40.15V55.65H40.05H39.95H39.85H39.75V55.75H39.65V55.65H39.55V55.55H39.45V55.65V55.75H39.35H39.25L39.15 55.65H39.05H38.95L38.85 55.55H38.75H38.65H38.55L38.45 55.45H38.35H38.25H38.15H38.05V55.35L37.95 55.45V55.35H37.85V55.45H37.75H37.65H37.55H37.45V55.35H37.35H37.25H36.85H36.75H36.65L36.45 55.45H36.35H36.25L36.15 55.55L35.55 55.75L35.15 55.95L34.85 56.15H34.75H34.65H34.55V56.25H34.45H34.25H34.05H33.95H33.85H33.75H33.65H33.55L33.45 56.35H33.25H33.05H32.95H32.55H32.45L32.35 56.45H32.25H32.15H31.95L31.85 56.35H31.75V56.45H31.65L31.15 56.55H30.85H30.75H30.45H30.25L30.15 56.65H29.95H29.85L29.35 56.75L28.85 56.85H28.75H28.65L28.35 56.95H28.25H27.85L27.45 57.05H27.35H27.25H27.15L27.05 57.15H26.95H26.65L26.25 57.25H26.05L25.65 57.35L25.25 57.45H25.05L24.55 57.55H24.25L24.05 57.65H23.75L23.55 57.75H23.25H23.15H23.05H22.95L22.55 57.85H22.45H22.35H22.25V57.95H22.15H22.05V58.05H21.95H21.85H21.75H21.65H21.55H21.45H21.35H21.25H21.05H20.75H20.65H20.55L20.35 58.15H20.25L20.15 58.25L19.95 58.45L19.85 58.55L19.65 58.65L19.55 58.75L19.45 58.85L19.35 58.95L19.15 59.05L18.05 59.15L17.55 59.45L16.05 60.55L15.85 60.65L11.35 68.15V68.25L11.25 68.35L10.95 68.85L10.65 69.05L9.34999 70.45L9.25 70.55L9.05 70.65L8.84999 70.85L7.05 71.65L6.25 71.95V71.85H6.14999V71.75H6.05H5.95H5.84999H5.75H5.64999H5.55V71.65H5.45V71.55H5.34999H5.25H5.14999V71.65L5.05 71.75H4.95V71.85L4.84999 71.95V72.05L4.64999 72.25H4.55V72.15H4.45L4.34999 72.05L4.25 71.95L4.05 71.85H3.95L2.95 71.95H2.14999H1.95H1.84999H1.64999L1.34999 72.05H1.14999H0.949997Z" fill="#220F0F"/>
<path d="M4.25 63.25V63.35V63.45V63.55V63.65H4.14999V63.75V63.85V63.95V64.05V64.15H4.05H3.95V64.25H4.05V64.35V64.45H3.95V64.55V64.65H3.84999H3.75H3.64999H3.55V64.75V64.85H3.45V64.95H3.55V65.05V65.15L3.45 65.25H3.34999H3.25V65.35H3.14999V65.45H3.05V65.55V65.65V65.75H2.95V65.85H2.84999V65.95V66.05V66.15H2.75H2.64999V66.25V66.35V66.45V66.55H2.55H2.45V66.65H2.34999V66.75H2.25V66.85V66.95H2.14999V67.05V67.15L2.05 67.25V67.35V67.45V67.55H1.95V67.65V67.75V67.85V67.95H1.84999V68.05L1.95 68.15H1.84999V68.25V68.35V68.45H1.75V68.55V68.65V68.75V68.85V68.95V69.05V69.15V69.25V69.35H1.64999V69.45V69.55V69.65V69.75H1.55V69.85L1.45 69.95H1.34999V70.05L1.25 70.15V70.25H1.14999V70.35V70.45V70.55V70.65V70.75H1.05V70.85L0.949997 70.95V71.05V71.15V71.25V71.35V71.45V71.55H0.849991V71.65V71.75V71.85V71.95V72.05H0.949997H1.14999H1.34999L1.64999 71.95H1.84999H1.95H2.14999H2.95L3.95 71.85H4.05L4.25 71.95L4.34999 72.05L4.45 72.15H4.55V72.25H4.64999L4.84999 72.05V71.95L4.95 71.85V71.75H5.05L5.14999 71.65V71.55H5.25H5.34999H5.45V71.65H5.55V71.75H5.64999H5.75H5.84999H5.95H6.05H6.14999V71.85H6.25V71.95L7.05 71.65L8.84999 70.85L9.05 70.65L9.25 70.55L9.34999 70.45L10.65 69.05L10.95 68.85L11.25 68.35L11.35 68.25V68.15L15.85 60.65L16.05 60.55L17.55 59.45L18.05 59.15L19.15 59.05L19.35 58.95L19.45 58.85L19.55 58.75L19.65 58.65L19.85 58.55L19.95 58.45L20.15 58.25L20.25 58.15H20.35L20.55 58.05H20.65H20.75H21.05H21.25H21.35H21.45H21.55H21.65H21.75H21.85H21.95H22.05V57.95H22.15H22.25V57.85H22.35H22.45H22.55L22.95 57.75H23.05H23.15H23.25H23.55L23.75 57.65H24.05L24.25 57.55H24.55L25.05 57.45H25.25L25.65 57.35L26.05 57.25H26.25L26.65 57.15H26.95H27.05L27.15 57.05H27.25H27.35H27.45L27.85 56.95H28.25H28.35L28.65 56.85H28.75H28.85L29.35 56.75L29.85 56.65H29.95H30.15L30.25 56.55H30.45H30.75H30.85H31.15L31.65 56.45H31.75V56.35H31.85L31.95 56.45H32.15H32.25H32.35L32.45 56.35H32.55H32.95H33.05H33.25H33.45L33.55 56.25H33.65H33.75H33.85H33.95H34.05H34.25H34.45H34.55V56.15H34.65H34.75H34.85L35.15 55.95L35.55 55.75L36.15 55.55L36.25 55.45H36.35H36.45L36.65 55.35H36.75H36.85H37.25H37.35H37.45V55.45H37.55H37.65M4.25 63.25H4.34999M4.25 63.25V63.15H4.34999L4.45 63.05V62.95H4.55V62.85V62.75V62.65H4.64999V62.55V62.45V62.35V62.25H4.55L4.45 62.35H4.34999V62.25H4.25L4.14999 62.15V62.05H4.05V62.15H3.95L3.84999 62.05H3.95V61.95L4.05 61.85V61.75H4.14999V61.65L4.05 61.55V61.45H3.95H3.84999H3.75V61.35H3.64999L3.55 61.25V61.15V61.05H3.45V60.95M3.45 60.95H3.34999M3.45 60.95V60.85H3.34999H3.25M3.25 60.85V60.95M3.25 60.85V60.75H3.14999V60.85H3.05H2.95H2.84999V60.75H2.75L2.64999 60.65V60.55V60.45V60.35V60.25V60.15V60.05H2.55V59.95H2.45V59.85H2.34999H2.25V59.75V59.65V59.55V59.45H2.14999V59.35H2.05V59.25V59.15L2.14999 59.05V58.95H2.25V58.85H2.34999H2.45H2.55H2.64999H2.75H2.84999V58.75V58.65H2.75H2.64999V58.55H2.75V58.45H2.84999V58.35V58.25V58.15H2.75H2.64999V58.05V57.95V57.85V57.75V57.65V57.55H2.55H2.45V57.45V57.35H2.34999V57.45H2.25M2.25 57.45V57.55M2.25 57.45H2.14999V57.35M2.14999 57.35H2.05M2.14999 57.35V57.25V57.15H2.05V57.05V56.95V56.85L1.95 56.75H1.84999H1.75L1.64999 56.65V56.55V56.45H1.55L1.45 56.35V56.25H1.34999L1.25 56.35H1.14999V56.25H1.05V56.15L0.949997 56.05V55.95H0.849991V55.85V55.75V55.65H0.75V55.55V55.45V55.35V55.25V55.15H0.849991V55.05H0.949997H1.05V55.15H1.14999L1.25 55.05V54.95H1.14999H1.05L0.949997 54.85H0.849991V54.95H0.75V54.85V54.75V54.65H0.649994V54.55V54.45L0.550003 54.35V54.25H0.649994H0.75V54.35H0.849991H0.949997V54.25V54.15H0.849991H0.75L0.649994 54.05L0.550003 53.95V53.85V53.75V53.65V53.55H0.649994V53.45V53.35H0.550003V53.25H0.449997V53.15V53.05V52.95V52.85V52.75V52.65V52.55H0.349991V52.45V52.35H0.25V52.25L0.349991 52.15V52.05V51.95H0.25V51.85V51.75V51.65H0.349991V51.55H0.449997V51.45V51.35V51.25L0.550003 51.15V51.05H0.649994V50.95H0.75V50.85V50.75V50.65L0.649994 50.55H0.550003H0.449997V50.45V50.35V50.25H0.349991V50.15V50.05V49.95V49.85V49.75V49.65V49.55V49.45H0.449997H0.550003V49.35H0.649994V49.25H0.75H0.849991V49.15M0.849991 49.15H0.949997M0.849991 49.15V49.05M0.849991 49.05H0.75M0.849991 49.05V48.95H0.949997H1.05V48.85H1.14999V48.75H1.25V48.65H1.34999V48.55H1.45L1.55 48.45H1.64999V48.35V48.25H1.75H1.84999V48.15H1.95V48.05H1.84999V47.95H1.75V47.85H1.84999L1.95 47.75L2.05 47.65H2.14999V47.55H2.25V47.45H2.34999V47.35L2.45 47.25L2.55 47.15H2.64999V47.05H2.75V46.95V46.85H2.84999V46.75V46.65L2.95 46.55V46.45H3.05V46.35H3.14999V46.25H3.25V46.15H3.34999H3.45H3.55V46.25H3.64999V46.15V46.05H3.55V45.95L3.64999 45.85H3.75L3.84999 45.75H3.95H4.05V45.65H4.14999V45.55V45.45H4.25V45.35L4.34999 45.25L4.45 45.15V45.05H4.55V44.95V44.85V44.75L4.64999 44.65V44.55H4.55L4.45 44.45H4.34999H4.25V44.35V44.25V44.15L4.14999 44.05V43.95V43.85V43.75L4.05 43.65H3.95V43.55H3.84999V43.45V43.35L3.75 43.25V43.15H3.84999V43.05L3.95 42.95L4.05 42.85L4.14999 42.75L4.25 42.65H4.34999V42.55H4.45H4.55V42.45H4.64999H4.75H4.84999H4.95V42.55H5.05H5.14999V42.65H5.25V42.75V42.85H5.34999L5.45 42.95H5.55L5.75 43.05V43.15H5.95L6.05 43.25H6.14999H6.25H6.34999H6.45L6.55 43.15H6.64999L6.75 43.05L6.84999 42.95V42.85V42.75V42.65H6.75V42.55V42.45H6.64999V42.35V42.25V42.15V42.05L6.75 41.95L6.84999 41.85H6.95V41.75H7.05H7.14999H7.25H7.34999H7.45H7.64999H7.75H7.84999H7.95H8.05V41.65H8.14999V41.55H8.25V41.45V41.35V41.25V41.15V41.05V40.95L8.34999 40.85V40.75H8.45V40.65V40.55V40.45V40.35H8.34999L8.25 40.25L8.14999 40.15V40.05V39.95V39.85V39.75V39.65H8.25V39.55H8.34999H8.45V39.45H8.55H8.64999H8.75H8.84999H8.95H9.05H9.14999H9.25H9.34999H9.45V39.35H9.55V39.25V39.15L9.45 39.05L9.34999 38.95H9.25V38.85H9.14999V38.75H9.05V38.65L8.95 38.55V38.45V38.35V38.25H9.05V38.15V38.05H9.14999V37.95L9.25 37.85L9.34999 37.75H9.45L9.55 37.65L9.64999 37.55H9.75V37.45H9.84999L9.95 37.55H10.05H10.15H10.25H10.35H10.45H10.55L10.65 37.65H10.75V37.75H10.85L10.95 37.85V37.95H11.05V38.05H11.15L11.25 38.15H11.35H11.45V38.05H11.55L11.65 37.95L11.75 37.85V37.75V37.65L11.85 37.55V37.45V37.35V37.15L11.75 37.05H11.85V36.95L11.75 36.85V36.75L11.65 36.65L11.55 36.55H11.45V36.45H11.35V36.35V36.25L11.25 36.15H11.15V36.05H11.05H10.95L10.85 35.95H10.75L10.65 35.85V35.75H10.55V35.65V35.55L10.65 35.45L10.75 35.35H10.85V35.25V35.15V35.05L10.75 34.95V34.85H10.65L10.55 34.75H10.45H10.35H10.25V34.65H10.15V34.55H10.25V34.45H10.35H10.45L10.55 34.35L10.75 34.25V34.15L10.95 34.05H11.05H11.15V33.95V33.85V33.75H11.25L11.35 33.65L11.45 33.55H11.55L11.65 33.45L11.75 33.35L11.85 33.25L11.95 33.15V33.05H12.05V32.95H12.15H12.25L12.35 32.85H12.45V32.75H12.55L12.65 32.85H12.75H12.95H13.05L13.15 32.95H13.25H13.35L13.55 33.05H13.65H13.75V32.95L13.95 32.85L14.05 32.75L14.25 32.55L14.35 32.35H14.45L14.55 32.25H14.65V32.15V32.05V31.95L14.75 31.85V31.75L14.85 31.65L14.95 31.55H15.05V31.45L15.15 31.35V31.25V31.15L15.25 31.05L15.35 30.85V30.75H15.45L15.65 30.55L15.75 30.35L15.85 30.25V30.15V30.05L15.95 29.95V29.85L16.05 29.75L16.15 29.65L16.25 29.55L16.45 29.45L16.55 29.35V29.25L16.65 29.15V29.05V28.95V28.85H16.75V28.75L16.85 28.55V28.45L16.95 28.25L17.05 28.15L17.15 27.95L17.25 27.75V27.65H17.35L17.45 27.75H17.55H17.65L17.75 27.65H17.85V27.55V27.45V27.35V27.25H17.95V27.15V27.05V26.95H18.05L18.15 26.85V26.75H18.25V26.65H18.35V26.75H18.45H18.55H18.65V26.65H18.75V26.55L18.65 26.45L18.55 26.35L18.65 26.25H18.75H18.85L18.95 26.15V26.05V25.95V25.85V25.75L19.05 25.65V25.55H19.15H19.25L19.35 25.45H19.45L19.55 25.35V25.45H19.65V25.35H19.75V25.25V25.15V25.05H19.85V24.95V24.85H19.95V24.75H20.05V24.65H20.15H20.25V24.55H20.35V24.45V24.35H20.45V24.25H20.55V24.15H20.65V24.05V23.95L20.75 23.85H20.85V23.75H20.95H21.05V23.65H21.15H21.25H21.35L21.45 23.55H21.55V23.45H21.65L21.75 23.35L21.95 23.25L22.15 23.15L22.25 23.05L22.35 22.95H22.45L22.55 22.85H22.65H22.75V22.75H22.85V22.65H22.95L23.05 22.55H23.15H23.25V22.45H23.35H23.45L23.55 22.35H23.65L23.75 22.15L23.85 22.05H23.95V21.95H24.05L24.15 22.05H24.25L24.35 22.15H24.45H24.55V22.05H24.65H24.75H24.85H24.95H25.05H25.15V21.95V21.85M25.15 21.85H25.05M25.15 21.85V21.75H25.25H25.35V21.65H25.45H25.55L25.65 21.75L25.75 21.85H25.85V21.75H25.95V21.65H26.05H26.15H26.25H26.35H26.45H26.55H26.65M26.65 21.65V21.75M26.65 21.65H26.75L26.85 21.55L26.95 21.45L27.05 21.35V21.25H27.15H27.25V21.15H27.35H27.45H27.55H27.65V21.05H27.75V21.15H27.85L27.95 21.25H28.05H28.15H28.25H28.35V21.15H28.45H28.55L28.65 21.25L28.75 21.35H28.85L28.95 21.25H29.05L29.15 21.15L29.25 21.25H29.35L29.45 21.35H29.55V21.25H29.65H29.75H29.85H29.95H30.05H30.15H30.25H30.35H30.45V21.35H30.55H30.65H30.75H30.85H30.95H31.05H31.15V21.45H31.25V21.55H31.35L31.45 21.65V21.75H31.55L31.65 21.85H31.75V21.95L31.85 22.05V22.15V22.25H31.95V22.35H32.05H32.15V22.45H32.25H32.35H32.45V22.55V22.65H32.55H32.65L32.75 22.55H32.85V22.65H32.95H33.05H33.15L33.25 22.75H33.35H33.45V22.85H33.55H33.65H33.75L33.85 22.75H33.95H34.05H34.15V22.85H34.25H34.35L34.45 22.95H34.55H34.65H34.75H34.85H34.95H35.05V23.05H35.15H35.25V22.95H35.35H35.45V22.85H35.55H35.65V22.75H35.75H35.85H35.95H36.05H36.15V22.55V22.45V22.35V22.25V22.15H36.05V22.05L35.95 21.95V21.85V21.75V21.65L36.05 21.55V21.45H36.15V21.35V21.25L36.05 21.15V21.05H35.95V20.95H36.05V20.85V20.75L36.15 20.65V20.55H36.05V20.45H35.95V20.35H35.85V20.25H35.75H35.65V20.35V20.45H35.55H35.45L35.35 20.55H35.25V20.45L35.15 20.35V20.25V20.15H35.05L35.15 20.05H35.25V19.95H35.35V19.85V19.75V19.65H35.45V19.55H35.55V19.45V19.35V19.25H35.65V19.15V19.05V18.95H35.55V18.85V18.75H35.45V18.65V18.55V18.45V18.35V18.25H35.35V18.15V18.05V17.95H35.25V17.85V17.75V17.65V17.55H35.35V17.45H35.45V17.35V17.25V17.15V17.05V16.95H35.35V16.85H35.45V16.75V16.65V16.55V16.45H35.35V16.35V16.25H35.25V16.15H35.15V16.05V15.95H35.05V15.85V15.75H34.95V15.65L35.05 15.55V15.45L35.15 15.35V15.25V15.15V15.05V14.95V14.85V14.75V14.65V14.55V14.45V14.35V14.25V14.15V14.05L35.05 13.95V13.85V13.75V13.65V13.55L35.15 13.45V13.35V13.25L35.25 13.15V13.05V12.85L35.35 12.75V12.65V12.55L35.45 12.45V12.35V12.25V12.15V12.05L35.55 11.85V11.75V11.65V11.55V11.45V11.35V11.25V11.15H35.45V11.05V10.95V10.85V10.75H35.35H35.25H35.15V10.65V10.55L35.05 10.45V10.35L35.15 10.25V10.15V10.05H35.25V9.94998V9.85001V9.75V9.64999L35.15 9.54999L35.05 9.35001L34.95 9.25H35.05V9.14999V9.04999H35.15V8.94998H35.05V8.85001V8.75H34.95V8.64999H35.05H35.15L35.25 8.44998V8.35001V8.25H35.15V8.14999H35.05V8.04999H34.95V7.94998V7.85001H34.85V7.75V7.64999L34.75 7.44998V7.35001V7.25L34.65 7.14999V7.04999L34.55 6.94998L34.45 6.85001V6.64999L34.55 6.54999V6.44998V6.35001V6.25V5.94998L34.65 5.64999V5.54999V5.44998L34.55 5.14999V5.04999V4.64999L34.45 4.44998H34.55V4.35001V4.25L34.45 4.04999L34.35 3.94998V3.85001V3.75V3.54999V3.44998V3.35001H34.45L34.55 3.14999H34.65V3.04999L34.75 2.94998L34.85 2.64999H34.95L35.05 2.44998L35.15 2.35001V2.25L35.35 2.14999L35.45 1.94998L35.55 1.85001H35.65V1.75L35.85 1.64999H35.95V1.54999L36.05 1.44998H36.15L36.25 1.35001L36.15 1.04999L36.25 0.949982L36.45 0.649994V0.549988L36.55 0.449982V0.549988H36.75L36.85 0.649994H37.05V0.75H37.15H37.25H37.35H37.45L37.65 0.850006L37.75 0.949982H37.85H38.05H38.15H38.25H38.35H38.45L38.55 1.04999H38.65H38.85L38.95 1.14999H39.05H39.15H39.25H39.35H39.55H39.65H39.75H39.85L40.05 1.04999H40.15L40.35 1.14999H40.45H40.65V1.25H40.75L40.85 1.35001H40.95V1.44998L41.05 1.54999L41.15 1.75V1.85001H41.25V1.94998V2.04999L41.35 2.14999V2.25V2.35001V2.44998V2.54999V2.75V2.85001L41.45 2.94998V3.04999V3.14999L41.55 3.25V3.35001H41.65L41.75 3.44998H41.85L41.95 3.54999H42.05L42.15 3.44998H42.25L42.35 3.35001H42.45V3.25V3.14999V3.04999L42.55 2.85001L42.45 2.64999V2.54999V2.44998H42.55V2.35001V2.25L42.65 2.04999V1.94998V1.85001L42.85 1.64999L42.95 1.44998L43.05 1.25L43.25 0.949982L43.35 0.75L43.45 0.649994H43.55L43.65 0.549988L43.85 0.449982L43.95 0.350006H44.05L44.25 0.25H44.35H44.45L44.55 0.350006L44.65 0.449982L44.85 0.549988H44.95L45.05 0.649994V0.75H45.25L45.35 0.850006L45.45 0.949982L45.55 1.14999L45.65 1.25L46.05 1.85001L46.15 1.94998V2.04999H46.25V2.14999V2.25V2.35001V2.44998H46.35V2.54999H46.45V2.64999L46.55 2.75L46.65 2.85001L46.75 2.94998L46.85 3.04999V3.14999H46.95V3.25L47.05 3.35001V3.44998H47.15V3.54999V3.64999H47.25V3.75L47.35 3.85001L47.45 3.94998L47.55 4.04999L47.75 4.14999L47.85 4.35001L47.95 4.44998V4.54999L48.05 4.75V4.85001V4.94998V5.04999L47.95 5.14999L47.75 5.44998L47.65 5.64999L47.55 5.75V5.85001V5.94998V6.04999V6.14999H47.65V6.25L47.75 6.35001H47.85H47.95L48.05 6.25H48.15H48.35H48.45L48.55 6.14999H48.65L48.75 6.04999H48.85H48.95H49.05L49.15 6.14999L49.25 6.25H49.35V6.35001H49.45L49.55 6.44998L49.65 6.54999H49.75V6.64999H49.85L49.95 6.75H50.05L50.15 6.85001L50.25 6.94998H50.35H50.45L50.55 7.04999H50.65H50.75H50.85H50.95H51.05H51.25L51.35 6.94998H51.55H51.65V6.85001H51.75L51.95 6.75V6.64999H52.05V6.54999H52.15L52.35 6.35001V6.25H52.45L52.55 6.04999V5.94998L52.65 5.85001L52.75 5.75V5.64999H52.85L52.95 5.54999L53.15 5.25H53.25L53.35 5.04999L53.45 4.94998L53.55 4.75L53.65 4.64999L53.75 4.54999H53.85L53.95 4.44998H54.05H54.15H54.25H54.35H54.45H54.55V4.54999H54.65L54.95 4.64999L55.05 4.75L55.15 4.85001L55.45 5.04999L55.55 5.14999L55.65 5.25H55.75H55.85L55.95 5.35001H56.05H56.15L56.25 5.25H56.35L56.45 5.04999L56.65 4.75L56.75 4.64999V4.54999V4.44998V4.35001V4.25V3.94998V3.75V3.44998V3.35001V3.25V3.14999V2.94998L56.85 2.75L56.95 2.64999L57.05 2.44998H57.15L57.25 2.35001H57.35L57.55 2.25L57.65 2.35001H57.75H57.85L57.95 2.44998L58.05 2.54999H58.15V2.64999L58.25 2.75V2.85001L58.35 2.94998V3.14999V3.25L58.45 3.35001V3.44998V3.54999L58.35 3.64999V3.75V3.85001L58.25 3.94998V4.04999V4.14999V4.25V4.35001V4.44998V4.54999V4.64999H58.35V4.75L58.45 4.94998V5.04999L58.55 5.14999V5.25V5.35001V5.44998V5.54999V5.64999V5.75L58.45 5.85001L58.35 5.94998L58.25 6.04999L58.15 6.14999L57.95 6.25L57.85 6.35001L57.75 6.44998L57.65 6.64999L57.55 6.75V6.85001L57.45 6.94998V7.04999L57.55 7.14999V7.25V7.35001H57.65V7.44998L57.75 7.54999L57.85 7.75V7.85001H57.95V7.94998L58.05 8.04999V8.14999L58.15 8.25V8.35001H58.25L58.35 8.44998H58.45L58.55 8.54999V8.64999L58.75 8.75L58.85 8.85001L58.95 8.94998L59.05 9.04999L59.25 9.25V9.35001H59.35V9.44998L59.45 9.54999V9.64999L59.55 9.75V9.85001L59.65 9.94998V10.05V10.15V10.25L59.75 10.35V10.45V10.55V10.65H59.85V10.75H59.95H60.05H60.15H60.35H60.45L60.55 10.65H60.75L60.85 10.55L60.95 10.45L61.05 10.35H61.15V10.25H61.25V10.15H61.35L61.45 10.05L61.55 9.94998V9.85001L61.65 9.64999V9.54999L61.75 9.35001V9.25V9.14999L61.65 9.04999V8.94998V8.85001V8.75L61.55 8.54999V8.44998L61.45 8.35001V8.25L61.35 8.14999L61.25 8.04999H61.15V7.94998H61.05L60.95 7.85001L60.85 7.75L60.75 7.64999L60.65 7.54999L60.55 7.44998V7.35001V7.25V7.14999V6.94998V6.85001V6.75L60.45 6.64999V6.54999L60.35 6.44998L60.25 6.35001L60.15 6.25V6.14999V6.04999V5.94998V5.85001V5.64999V5.54999V5.44998V5.25L60.25 5.14999V5.04999L60.35 4.94998V4.85001H60.45L60.55 4.75L60.65 4.64999L60.85 4.54999H60.95H61.05H61.15H61.25H61.35H61.45L61.55 4.64999L61.65 4.85001L61.75 5.04999L61.95 5.35001L62.05 5.54999L62.15 5.64999L62.25 5.75L62.35 5.85001L62.45 5.94998V6.04999L62.55 6.14999V6.25V6.35001V6.44998L62.65 6.54999L62.55 6.64999V6.75V7.04999V7.25V7.35001V7.44998V7.64999V7.85001L62.45 8.04999V8.25V8.35001V8.44998L62.55 8.54999V8.75V8.94998V9.25V9.35001V9.44998L62.65 9.54999V9.64999V9.75V9.85001V9.94998V10.15V10.25L62.75 10.35V10.45L62.85 10.55V10.65L62.95 10.75L63.05 10.85V10.95L63.15 11.05H63.25V11.15L63.35 11.25H63.45L63.55 11.35L63.65 11.45L63.75 11.55H63.85H63.95H64.05H64.15H64.25H64.35H64.45L64.55 11.65H64.65L64.75 11.75H64.85H64.95H65.15H65.35V11.65H65.55L65.65 11.55H65.75H65.95H66.15L66.25 11.45H66.35H66.45L66.55 11.35H66.65H66.75H66.85L67.05 11.25L67.35 11.15L67.45 11.05L67.65 10.95L67.85 10.85H67.95L68.05 10.75H68.25L68.55 10.65H68.65H68.75H68.95H69.15L69.25 10.75L69.35 10.85L69.45 11.05L69.55 11.25V11.35L69.65 11.55L69.85 11.85L70.05 12.45L70.15 12.65L70.25 12.75L70.35 12.85L70.55 12.95V13.05H70.65H70.75L70.85 12.95H70.95L71.05 12.85L71.35 12.55L71.45 12.45L71.55 12.35H71.65H71.75L71.85 12.45H71.95L72.15 12.65L72.35 12.85H72.45L72.55 12.95L72.95 13.05H73.05H73.15H73.25H73.35L73.55 12.85H73.65L73.75 12.75L73.85 12.65L73.95 12.55L74.05 12.35L74.15 12.15L74.25 12.05V11.95L74.35 11.85L74.45 11.75L74.55 11.55V11.35L74.65 11.25L74.75 11.15L74.85 11.05L75.05 10.95H75.15L75.35 10.85H75.65H75.85H75.95H76.05H76.15H76.25L76.65 10.95H76.75L76.95 11.05L77.05 10.95H77.25H77.35L77.55 10.85V10.75H77.65V10.65H77.75H77.85L78.15 10.55L78.25 10.45H78.35L78.65 10.25H78.75L78.85 10.15H78.95H79.05H79.15H79.25H79.35H79.45H79.65L79.75 10.25L79.95 10.35L80.05 10.45L80.15 10.65L80.25 10.85V10.95L80.35 11.05L80.45 11.35V11.55L80.55 11.75L80.85 12.35V12.45L80.95 12.55V12.65L81.05 12.75V12.85H81.15V12.95L81.25 13.05L81.35 13.15V13.25L81.45 13.35V13.45L81.55 13.55V13.65H81.65V13.75L81.75 13.85L81.85 13.95L82.05 14.25L82.15 14.55H82.25L82.45 15.05L82.55 15.25L82.65 15.55L82.75 15.85L82.85 15.95V16.05L83.15 16.45L83.25 16.55L83.45 16.75L83.55 16.85L83.65 16.95L83.85 17.15H83.95L84.15 17.25H84.25L84.55 17.35H84.85H85.05H85.25H85.45H85.65H85.85L85.95 17.25H86.15L86.25 17.15L86.45 17.05L86.55 16.95L86.65 16.85L86.75 16.55L86.85 16.45V16.35V16.25V16.05L86.75 15.95V15.85L86.65 15.75V15.65V15.55L86.55 15.45V15.35L86.45 15.15L86.35 14.95V14.85L86.25 14.65L86.15 14.55V14.45L86.05 14.35V14.25V14.15H85.95V14.05V13.85H85.85V13.75V13.45L85.95 13.35L86.05 13.25L86.15 13.15L86.35 13.05H86.45H86.55L86.65 12.95H86.75L86.85 13.05H86.95H87.05L87.15 13.15L87.25 13.25H87.35V13.35H87.45L87.55 13.55L87.65 13.65L87.75 13.85L87.85 13.95L88.15 14.25L88.25 14.35L88.65 14.65L88.85 14.75H88.95H89.05H89.15H89.25H89.35H89.45H89.55H90.15H90.45L90.55 14.65H90.65H90.75V14.55L90.95 14.45L91.15 14.35L91.25 14.15V14.05V13.85V13.75L91.15 13.45L91.05 13.25L90.85 12.95L90.55 12.65L90.35 12.55L90.15 12.45V12.35H90.05L89.85 12.15L89.75 12.05L89.65 11.85L89.55 11.75V11.55L89.45 11.45V11.25V11.15V11.05V10.95L89.35 10.75L89.25 10.65L89.15 10.55H89.05H88.95L88.85 10.45L88.55 10.55H88.35H88.15L88.05 10.65H87.95L87.85 10.75H87.75H87.65L87.55 10.85L87.35 10.95L87.15 10.85H86.95H86.75L86.55 10.65L86.45 10.45V10.25V10.15V10.05V9.85001V9.75L86.55 9.64999L86.65 9.44998L86.75 9.35001L86.95 9.25L87.05 9.14999L87.25 9.04999L87.55 8.94998H87.65H87.75H87.95H88.05L88.25 9.04999H88.45H88.65L88.75 9.14999L88.85 9.25L88.95 9.35001L89.15 9.44998L89.35 9.64999L89.45 9.85001L89.65 10.05L89.85 10.25L89.95 10.35L90.15 10.55L90.25 10.65L90.65 10.95L90.95 11.15H91.05H91.15L91.25 11.25H91.35H91.55H91.65H91.75L91.95 11.15L92.05 11.05L92.25 10.95L92.45 10.75L92.55 10.65L92.65 10.45V10.35V10.25V10.05L92.75 9.85001V9.64999V9.54999V9.44998V9.35001L92.65 9.14999V9.04999V8.85001L92.55 8.75L92.45 8.54999L92.35 8.44998V8.35001L92.15 8.25L91.95 8.14999H91.85L91.75 7.94998L91.65 7.85001L91.55 7.64999V7.54999V7.44998V7.25L91.65 7.14999V7.04999H91.75H91.85H91.95H92.05H92.15H92.25H92.35L92.45 7.14999H92.55V7.25H92.65L92.75 7.35001L92.85 7.44998L92.95 7.54999L93.05 7.64999V7.85001V7.94998L93.15 8.14999V8.35001L93.25 8.44998V8.54999V8.75L93.35 8.85001V8.94998V9.14999V9.25L93.45 9.44998V9.54999L93.55 9.75L93.65 9.94998H93.75V10.05H93.85H93.95H94.05L94.15 10.15L94.25 10.05H94.45H94.65L94.75 9.94998L94.85 9.85001L94.95 9.64999L95.05 9.54999L95.15 9.35001L95.25 9.14999L95.35 8.94998V8.75V8.54999V8.44998V8.35001V8.25L95.15 7.94998L95.05 7.85001L94.95 7.64999L94.85 7.44998L94.75 7.25L94.65 7.14999V7.04999L94.55 6.94998V6.85001V6.64999V6.54999V6.44998V6.35001L94.65 6.25V6.14999L94.75 6.04999L94.85 5.94998L94.95 5.85001L95.15 5.64999L95.25 5.54999L95.45 5.44998L95.65 5.35001L95.95 5.25H96.05H96.25H96.45L96.65 5.35001L96.85 5.54999V5.85001L96.95 5.94998L96.85 6.14999V6.35001L96.75 6.64999L96.65 6.85001V7.04999V7.14999V7.25V7.44998V7.54999L96.75 7.64999L96.85 7.75L96.95 8.04999L97.15 8.44998L97.45 8.85001L97.55 9.04999L97.65 9.25H97.75V9.35001H97.85L97.95 9.44998L98.05 9.64999L98.15 9.75L98.25 9.85001H98.35V9.94998L98.55 10.05H98.65L98.95 10.25L99.15 10.35H99.35L99.45 10.45H99.65H99.75L100.05 10.35L100.25 10.25L100.35 10.15H100.45L100.65 10.05V9.94998H100.75L100.85 9.85001V9.75L100.95 9.64999L101.05 9.44998L101.35 8.85001L101.55 8.35001L101.75 8.14999L101.95 8.04999L102.15 7.94998L102.45 7.85001H102.55H102.75L103.25 7.94998H103.55H103.65H103.75H104.05L104.25 7.85001L104.35 7.75L104.55 7.54999L104.65 7.35001L104.75 7.25L104.85 7.04999L105.05 6.94998H105.25H105.35H105.45H105.55V7.04999V7.14999L105.45 7.25V7.35001L105.35 7.44998V7.64999L105.45 7.75V7.85001L105.55 8.04999L105.65 8.25H105.75L105.85 8.35001L106.05 8.44998H106.35L106.65 8.54999H106.85L107.15 8.64999H107.35L107.55 8.75L107.65 8.64999H107.75H107.85H108.05H108.25L108.45 8.75H108.65L108.95 8.85001L109.15 8.94998L109.45 9.04999L110.15 9.25L110.45 9.35001L110.75 9.44998H110.85H111.05L111.15 9.35001H111.45L111.65 9.25L111.75 9.14999L111.85 9.04999L112.05 8.94998L112.25 8.75L112.45 8.44998L112.55 8.35001L112.65 8.14999L112.75 8.04999L112.85 7.85001L113.05 7.75L113.55 7.35001L113.75 7.25L114.15 7.14999H114.65L114.85 7.25L115.15 7.44998L115.35 7.54999L115.55 7.75L115.85 7.94998L115.95 8.04999L116.35 8.44998L116.75 8.64999L117.05 8.85001H117.25H117.45V8.75H117.55H117.65H117.95L118.25 8.64999L118.45 8.54999L118.75 8.35001L119.05 8.04999V7.75L119.15 7.54999V7.25L118.95 6.85001L118.85 6.64999L118.65 6.25L118.45 6.14999L118.35 5.94998L118.15 5.85001H118.05L117.75 5.64999H117.65L117.55 5.44998L117.45 5.35001V5.25L117.95 4.64999L118.05 4.44998L118.25 4.25L118.65 4.14999L119.05 4.04999L119.35 3.94998L119.55 4.04999H119.75L120.05 4.25L120.25 4.35001L120.45 4.54999L120.55 4.75L120.75 5.14999L121.05 5.64999V5.75L121.25 5.85001L121.45 6.04999L121.75 6.14999H122.05L122.25 6.04999L122.65 5.85001L122.85 5.75L123.05 5.64999L123.15 5.54999L123.25 5.35001L123.35 4.94998V4.54999V4.04999L123.45 3.94998L123.65 3.75H123.75H123.85H124.15H124.55L124.85 3.85001L125.15 3.94998L125.35 4.04999L125.75 4.25L126.15 4.44998L126.45 4.64999L126.65 4.75L126.85 4.85001L127.15 5.04999L127.35 5.25L127.65 5.44998L127.85 5.64999H127.95L128.05 5.85001L128.35 6.14999L128.45 6.35001L128.55 6.54999V6.64999H128.65L128.75 6.75V6.85001V6.94998L128.85 7.04999L128.95 7.14999V7.25V7.35001L129.05 7.44998L129.15 7.64999V7.85001L129.25 7.94998V8.04999V8.14999V8.25L129.35 8.35001V8.44998V8.54999V8.64999L129.45 8.75V8.85001L129.55 8.94998V9.14999L129.65 9.25V9.35001L129.75 9.54999V9.75L129.85 9.94998V10.05V10.15L129.95 10.25V10.35V10.45V10.65L130.05 10.75V10.95V11.05V11.15V11.25V11.45V11.55V11.75V11.85V11.95V12.05V12.15L129.95 12.35V12.55V12.65V12.75H129.85V12.85V12.95V13.05V13.15V13.25H129.95V13.35L130.05 13.45L130.15 13.55V13.65L130.25 13.95L130.35 14.15L130.45 14.25V14.45L130.55 14.55L130.65 14.65V14.75L130.75 14.95H130.85V15.05L131.05 15.15L131.15 15.25L131.25 15.35L131.45 15.45V15.55L131.55 15.65L131.65 15.75H131.75L131.85 15.85L131.95 15.95H132.05H132.15H132.35H132.45H132.55H132.65L132.55 16.05V16.15H132.45L132.35 16.25H132.25V16.35V16.45V16.55H132.15V16.45H132.05L131.95 16.55L131.55 16.85H131.45L131.35 16.95L131.25 17.05H131.15H131.05L130.85 16.95L130.45 16.85L130.25 16.95L130.05 17.05L129.85 17.15L129.65 17.25L129.35 17.45L129.25 17.55L129.15 17.65L129.05 18.15V18.35V18.45V18.65L128.95 18.85V18.95V19.05L128.65 19.75L128.45 20.15L128.35 20.25V20.45H128.25V20.55L128.15 20.65H128.05V20.55H127.95L127.75 20.45H127.65H127.55H127.45H127.25H127.15H127.05L126.95 20.35H126.85H126.75H126.65H126.55L126.45 20.45H126.35H126.25H126.15H126.05H125.95V20.35H125.85H125.75H125.65H125.55V20.45H125.45H125.35V20.55H125.25H125.15H125.05V20.45H124.95V20.35L124.85 20.25H124.75V20.15V20.05V19.95V19.75V19.55L124.65 19.15V19.05V18.95V18.75V18.65V18.55V18.45V18.35H124.55V18.25V18.05L124.45 18.15H124.35H124.25V18.05H124.15H124.05L123.85 17.85L123.75 17.75L123.65 17.65L123.55 17.55L123.35 17.75V17.85L123.45 17.95V18.05L123.55 18.15H123.45L123.35 18.05L123.15 17.95L122.95 17.85V17.75H122.85V17.65H122.75L122.65 17.95L122.75 18.05V18.15L121.85 17.95V18.05H121.75V18.15V18.25L121.65 18.45V18.55V18.65V18.75H121.55V18.95L121.45 19.05V19.15V19.35L121.55 19.45V19.55L121.45 19.65L121.35 19.75L121.25 19.95L121.15 20.05L121.05 20.15L120.75 20.55L120.65 20.65V20.75L120.55 21.25V21.55L120.45 22.05L120.35 22.45V22.65L120.25 22.85V22.95V23.15V23.25L120.15 23.35V23.45H120.05V23.35H119.95L119.85 23.25L119.65 23.15L119.45 23.05L119.15 22.85L119.05 22.75L118.95 22.85H118.85L118.65 22.95L118.35 23.15H118.25H118.05H117.95H117.85V23.25H117.75L117.65 23.35H117.55L117.45 23.15L117.35 23.05L117.25 22.95L117.15 22.75L117.05 22.65L116.95 22.55L116.85 22.45V22.35L116.55 22.15V22.05H116.45V21.95L116.35 22.05H116.25H116.15H116.05H115.95L115.85 22.15L115.75 22.05L115.65 21.95L115.55 21.85H115.45V21.75L115.35 21.65L115.25 21.75L115.15 21.85L115.05 21.95H114.95V22.05L114.85 22.15L114.75 22.25L114.65 22.35L114.55 22.45H114.45L114.35 22.55L114.25 22.75H114.15H114.05L113.85 22.85L113.75 22.75V22.85H113.65V22.95H113.55L113.35 23.05H113.25H113.15H113.05L112.85 23.15H112.75V23.25L112.65 23.15H112.55L112.45 23.05H112.25V22.95H112.15L112.05 22.85H111.95V22.75H111.85L111.75 22.65L111.65 22.45L111.55 22.35V22.25L111.45 22.05L111.35 21.95L111.25 21.75L111.15 21.65L111.05 21.55V21.45L110.95 21.25L110.85 21.15H110.75V21.05L110.65 20.95L110.55 20.85V20.75H110.45V20.65H110.35V20.55L110.25 20.45L110.15 20.35V20.25H110.05V20.05V19.95V19.75V19.55V19.35V19.15V18.95L109.95 18.75V18.65H109.85H109.75L109.65 18.75H109.55H109.45H109.35H109.25V18.85V18.95H109.15L109.05 19.05L108.95 19.15V19.25V19.45V19.55V19.65H108.85H108.75L108.65 19.55H108.55L108.45 19.45L108.35 19.35H108.25L108.15 19.45H108.05V19.35H107.95L107.85 19.45H107.75H107.65H107.55H107.45H107.35V19.35H107.25V19.25H107.15H107.05L106.75 19.35H106.45L106.35 19.45V19.55V19.65H106.45L106.55 19.75L106.65 19.85H106.75V19.95H106.85H106.95H107.05L107.25 20.05L107.35 20.15L107.55 20.25L107.75 20.45L107.85 20.75L107.95 21.05V21.45L108.05 21.55V21.75V21.95L108.15 22.05V22.15H108.25V22.25L108.15 22.35V22.45L108.05 22.85V22.95V23.05V23.15V23.25L107.95 23.15H107.85L107.75 23.05L107.65 22.95H107.55V22.85H107.45L107.35 22.75L107.25 22.65H107.15V22.55H107.05H106.95H106.85V22.65H106.75H106.65H106.55H106.45H106.35H106.25L106.05 22.75H105.95L105.85 22.85H105.75V22.95V23.05V23.25V23.45V23.55V23.65V23.75L105.85 23.95H105.75L105.65 24.05L105.45 24.35L105.25 24.25L104.85 24.15H104.65L104.15 23.95L103.85 23.85L103.55 23.75L103.15 23.65L102.85 23.55H102.55L102.35 23.45H102.25V23.55V23.65L102.35 23.75V23.85V23.95V24.05H102.25L102.15 23.95L101.95 23.85L101.75 23.65L101.65 23.55L101.55 23.45L101.25 23.15H101.15L100.95 22.95L100.85 22.85H100.75L100.55 22.65L100.45 22.55H100.35V22.45L100.45 22.35V22.25V22.15V22.05L100.55 21.95V21.65H100.65V21.55H100.75L100.65 21.35L100.55 21.25L100.45 21.05L100.35 20.95L100.25 20.85V20.75L100.15 20.65V20.55L99.95 20.35L99.85 20.15L99.75 20.05L99.35 19.75H99.25H99.15V19.85H99.05V19.95H98.95L98.85 20.05H98.75H98.65L98.55 20.15H98.45L98.25 20.25H98.15H98.05H97.85L97.75 20.15H97.55H97.35L97.15 20.05H97.05H96.95H96.85H96.75H96.65L96.55 19.95H96.45H96.25H96.05H95.85L95.45 19.85H95.25H95.15H95.05H94.85H94.65H94.45H94.35V20.05H94.25V20.15L94.15 20.35L94.05 20.55V20.75L93.85 20.65L93.75 20.75L93.65 20.85V20.95L93.55 21.05L93.45 21.15L93.35 21.25L93.25 21.35L93.05 21.25L92.85 21.15L92.75 21.05L92.55 20.95L92.45 20.85L92.35 20.75L92.15 20.55H92.05L91.85 20.35L91.65 20.45H91.55L91.45 20.55H91.35L91.25 20.65L91.05 20.85L91.15 21.05L91.25 21.15L91.45 21.35L91.55 21.45L91.65 21.65L91.75 21.85L91.95 22.05L92.15 22.35L92.45 22.65L92.55 22.85H92.65L92.75 23.15L92.85 23.25L93.05 23.45V23.55L93.15 23.65L93.25 23.85L93.45 24.05L93.55 24.15L93.65 24.25L93.75 24.45V24.65H93.85V24.75L94.05 24.85L94.35 24.95L94.55 25.05L94.85 25.15V25.25L95.15 25.45L95.25 25.55H95.35L95.45 25.45L95.55 25.35L95.75 25.25L95.95 25.05L96.05 24.95L96.35 25.15L96.65 25.35L96.85 25.45V25.65L96.95 25.85V26.05V26.25V26.45V26.65V26.85V26.95L96.75 27.05V27.25V27.35L96.85 27.45V27.55H96.95V27.65H97.05V27.75H97.15L97.25 27.85H97.15H97.05L96.85 27.95V28.05L96.95 28.55L96.75 28.65V28.75L96.55 29.05V29.15L96.45 29.25L96.35 29.35H96.25H96.15H96.05L95.95 29.45H95.85H95.75H95.65H95.55H95.45V29.55H95.35H95.25V29.45H95.15V29.35L95.05 29.25H94.95L94.85 29.15L94.75 29.05L94.55 28.95H94.45L94.15 28.75L93.95 28.65L93.85 28.45L93.75 28.25V28.05L93.65 27.95V27.85V27.75V27.65V27.55V27.45V27.35V27.25H93.55V27.15H93.45V27.25L92.85 27.65L92.55 27.85L92.35 27.55V27.45H92.25V27.35L92.15 27.25L91.95 26.85L91.65 26.35L91.45 26.15L91.35 25.95L91.25 25.65L91.05 25.55V25.45V25.35H90.95L90.75 25.15L90.65 24.95L90.25 24.35L90.05 24.45L89.75 24.65H89.65L89.85 24.95V25.05L89.95 25.15V25.25L90.05 25.45V25.55V25.65L90.15 25.95L90.25 26.25V26.45L90.35 26.65V26.75L90.15 26.85H89.95L89.75 26.95H89.65H89.45L89.35 27.05V27.15V27.25V27.35V27.45V27.55L89.25 27.65L89.15 27.75H88.95L88.85 27.85L88.55 28.05L87.95 28.45L88.05 28.65V28.75V28.85V28.95V29.05H87.95L87.85 29.25L87.75 29.45L87.65 29.55V29.65H87.55L87.35 29.95L87.15 30.05L87.05 30.25H86.95L86.85 30.35V30.45H86.75L86.65 30.55L86.55 30.65L86.45 30.75L86.35 30.85L86.55 31.15L86.65 31.25L86.75 31.35V31.45L86.85 31.55L86.95 31.75L87.05 31.95V32.05L86.95 32.15L87.05 32.25V32.35V32.45V32.55V32.65L86.95 32.75V32.85V32.95H86.85L86.75 32.85V32.75H86.65V32.65H86.55H86.45V32.55L86.35 32.65H86.25V32.75L86.35 32.85L86.45 33.05L86.55 33.15V33.25V33.35V33.45H86.45H86.35L86.15 33.35H86.05L85.95 33.45H85.85H85.75H85.65H85.55H85.45H85.35H85.25L85.15 33.25V33.15L85.05 33.05L84.95 32.95H84.85H84.75L84.65 33.05V33.15L84.55 33.25H84.45L84.35 33.15L84.25 33.25L84.15 33.35V33.45H84.05V33.55V33.65V33.75V33.85V33.95L83.95 34.05V34.15V34.25L84.05 34.35L84.15 34.45V34.65V34.75V34.85V34.95H84.05H83.95L83.85 34.85H83.75L83.65 34.75H83.55H83.45L83.35 34.65L83.25 34.55H83.15H83.05H82.95V34.65H82.85V34.75L82.95 34.85V34.95V35.05V35.15V35.25H82.85H82.75V35.35H82.55H82.45L82.35 35.45H82.15L81.95 35.65L81.85 35.75H81.75V35.85H81.65V35.75V35.65V35.55V35.45H81.55H81.45L81.35 35.55L81.25 35.65H81.15L81.05 35.55L80.95 35.45L80.85 35.35L80.75 35.25L80.65 35.15H80.55H80.45L80.25 35.05H80.15H80.05L79.95 35.15H79.85V35.25H79.75H79.65H79.55H79.45H79.35L79.25 35.15L79.15 35.05V34.95H79.05V34.85H78.95H78.85L78.75 34.95V35.05V35.15L78.65 35.25H78.55H78.45L78.35 35.35H78.25V35.45V35.55L78.35 35.65V35.75V35.85V35.95H78.25V36.05H77.95L77.85 36.15H77.75H77.65L77.45 36.05H77.35H77.25V36.15H77.15V36.25H77.05V36.35L77.15 36.45L77.35 36.65H77.45V36.75V36.85L77.35 36.95H77.25H77.15H77.05V36.85V36.75L76.95 36.65L76.85 36.55L76.75 36.45L76.65 36.35H76.55H76.45H76.35V36.45L76.25 36.65V36.75L76.05 36.85L75.95 36.95L75.85 37.05L75.75 37.15L75.65 37.25H75.55H75.45L75.35 37.35V37.25H75.25H75.15H75.05H74.95L74.85 37.35V37.45H74.75H74.65V37.35H74.55V37.25L74.45 37.15L74.35 37.05H74.45L74.55 36.95V36.85H74.65V36.75H74.55V36.65H74.45H74.35H74.25H74.15H74.05L73.95 36.75V36.85V36.95V37.05V37.15H73.85L73.75 37.25L73.65 37.35H73.55L73.45 37.45L73.35 37.55H73.25L73.15 37.45V37.35L73.05 37.25V37.15V37.05H72.95H72.85V37.15H72.75V37.25L72.85 37.45L72.95 37.55H72.85V37.65L72.75 37.75H72.65H72.55H72.45H72.35H72.25V37.65H72.15H72.05V37.75L71.85 37.95V38.15V38.25V38.45L71.95 38.55L72.05 38.95L72.15 39.05V39.35V39.55L71.95 39.75L71.85 40.05L71.55 40.15L71.25 40.35L70.85 40.65V40.75L70.55 41.25L70.25 41.45V41.55L70.05 41.85L69.95 42.35L69.75 42.55V42.65L69.65 42.85V43.05V43.15V43.45L69.55 43.85V43.95L69.35 44.15L69.25 44.35V44.75L69.15 45.05L69.05 45.25V45.35L68.85 45.55L68.75 45.75L68.65 45.85L68.45 45.95H68.35L68.05 46.15L67.55 46.75L66.25 47.95L65.85 48.35V48.55V48.85L65.75 48.95V49.05V49.15V49.25V49.35L65.65 49.75L65.55 50.05L65.45 50.35L65.35 50.65V50.95L65.05 51.35L64.75 51.75L64.65 51.85L64.55 51.95L63.85 52.25L63.65 52.35H63.55H63.45L63.35 52.45H63.15H63.05L62.85 52.55H62.65H62.55L62.35 52.65H62.25V52.75L62.15 52.65H62.05L61.95 52.55H61.85L61.75 52.45H61.65L61.25 52.85L61.15 52.95H60.95L60.65 53.05H60.55L60.35 53.15L59.55 52.85L58.95 52.65L58.35 52.45H58.25L57.85 52.55L57.55 52.65H57.25L57.05 52.75H56.85L56.65 52.85H56.55H56.45H56.35L56.15 52.95L55.85 53.05H55.55L55.35 53.15H55.05L54.85 53.25H54.75H54.65H54.55L54.35 53.35H54.15H54.05L53.95 53.45L52.85 53.75L52.45 53.55L52.25 53.35L51.75 53.25H51.45H50.95V53.35L50.85 53.45L50.75 53.65V53.75V53.85H50.65V53.95V54.05L50.25 54.15L49.55 54.45L49.25 54.35L48.95 54.15L48.65 54.05L48.45 53.85L48.25 53.75L47.55 53.95H47.35L47.05 54.05H46.95L46.65 54.25H46.45L46.15 54.85V55.05H45.95L45.75 55.25L45.45 55.35L43.75 56.05H43.35H42.85L42.25 55.95H42.15H42.05L41.85 55.65H41.65L41.35 55.75H41.15L41.05 55.95H40.95H40.85H40.75H40.65H40.55V55.85H40.45V55.75H40.35H40.25H40.15V55.65H40.05H39.95H39.85H39.75V55.75H39.65V55.65H39.55V55.55H39.45V55.65V55.75H39.35H39.25L39.15 55.65H39.05H38.95L38.85 55.55H38.75H38.65H38.55L38.45 55.45H38.35H38.25H38.15H38.05V55.35L37.95 55.45V55.35H37.85V55.45H37.75M37.75 55.45V55.35M37.75 55.45H37.65M37.65 55.45V55.35" stroke="white" stroke-width="0.5" stroke-linecap="round" stroke-linejoin="round"/>
</svg>
